<svg width="547" height="450" viewBox="0 0 547 450" fill="none" xmlns="http://www.w3.org/2000/svg">
<path d="M407.288 94.9858H347.066V182.274H407.288V94.9858Z" fill="#E0E0E0"/>
<path d="M404.273 94.9858H344.052V182.274H404.273V94.9858Z" fill="#F5F5F5"/>
<path d="M396.792 104.436H351.533V172.824H396.792V104.436Z" fill="white"/>
<path d="M396.78 172.812C396.78 172.812 396.78 172.704 396.78 172.488V171.515C396.78 170.65 396.78 169.402 396.78 167.768C396.78 164.49 396.78 159.711 396.78 153.671C396.78 141.662 396.78 124.538 396.708 104.437L396.852 104.581H351.605L351.773 104.412C351.773 130.206 351.773 153.995 351.773 172.788L351.641 172.668H384.592H393.682H396.78H395.987H393.586H384.508H351.485H351.353V172.536C351.353 153.743 351.353 129.954 351.353 104.16V103.992H396.924V104.148C396.924 124.298 396.864 141.374 396.852 153.491C396.852 159.495 396.852 164.298 396.852 167.54C396.852 169.161 396.852 170.41 396.852 171.263V172.211C396.849 172.414 396.825 172.615 396.78 172.812Z" fill="#E0E0E0"/>
<path d="M404.441 94.9858C404.132 95.5371 403.774 96.0595 403.372 96.5469C402.676 97.4716 401.679 98.7444 400.55 100.149C399.421 101.554 398.353 102.743 397.572 103.608C397.166 104.096 396.72 104.55 396.239 104.965C396.602 104.435 397.003 103.934 397.44 103.464L400.346 99.9453L403.24 96.4269C403.597 95.9121 403.999 95.4299 404.441 94.9858Z" fill="#E0E0E0"/>
<path d="M397.021 172.596C399.276 176.172 401.927 179.483 404.922 182.467L397.021 172.596Z" fill="white"/>
<path d="M404.922 182.466C404.419 182.118 403.956 181.715 403.541 181.266C402.492 180.196 401.498 179.074 400.563 177.903C399.627 176.75 398.753 175.547 397.945 174.301C397.58 173.795 397.271 173.251 397.021 172.68C397.436 173.142 397.809 173.641 398.137 174.169C398.798 175.105 399.734 176.378 400.815 177.771C401.896 179.164 402.953 180.329 403.709 181.182C404.144 181.579 404.55 182.009 404.922 182.466Z" fill="#E0E0E0"/>
<path d="M344.052 182.202L351.929 172.476L344.052 182.202Z" fill="white"/>
<path d="M351.929 172.476C350.747 174.194 349.477 175.849 348.123 177.435C345.937 180.125 344.112 182.238 344.052 182.238C345.232 180.515 346.502 178.855 347.858 177.267C349.134 175.602 350.492 174.003 351.929 172.476Z" fill="#E0E0E0"/>
<path d="M344.052 94.9858C345.414 96.4377 346.693 97.9652 347.882 99.561C349.166 101.099 350.368 102.702 351.485 104.364C350.123 102.912 348.844 101.385 347.654 99.7892C346.365 98.2563 345.162 96.6527 344.052 94.9858Z" fill="#E0E0E0"/>
<path d="M382.695 118.318H367.54V161.344H382.695V118.318Z" fill="#E0E0E0"/>
<path d="M287.504 339.212C284.765 340.116 282.237 341.564 280.071 343.468C277.904 345.373 276.144 347.695 274.896 350.295C272.435 355.519 271.202 361.237 271.293 367.011C271.149 378.143 275.964 390.007 281.56 399.625C291.827 392.733 295.742 378.947 297.291 371.826C299.693 360.562 297.291 338.743 287.517 339.212" fill="#F5F5F5"/>
<path d="M268.519 416.389C269.551 413.329 269.755 410.051 269.109 406.887C268.464 403.723 266.993 400.787 264.844 398.376C262.663 396.008 260.031 394.098 257.104 392.758C254.176 391.418 251.011 390.674 247.793 390.571C244.827 390.415 241.536 390.871 239.543 393.081C238.675 394.17 238.114 395.471 237.918 396.849C237.722 398.228 237.897 399.634 238.426 400.922C239.522 403.491 241.279 405.724 243.518 407.394C250.879 413.399 259.129 417.926 268.519 416.365" fill="#F5F5F5"/>
<path d="M276.217 443.144C276.355 440.689 276.242 438.226 275.881 435.794C275.587 433.121 274.975 430.492 274.055 427.965C273.026 424.858 271.795 421.821 270.369 418.875C267.739 413.463 263.812 408.785 258.937 405.257C257.429 404.227 255.819 403.354 254.134 402.651C253.532 402.363 252.887 402.176 252.224 402.099C252.128 402.303 254.806 403.3 258.372 405.966C262.931 409.598 266.623 414.201 269.18 419.439C270.578 422.339 271.817 425.314 272.891 428.349C273.83 430.794 274.514 433.329 274.932 435.915C275.676 440.37 276.025 443.168 276.217 443.144Z" fill="#E0E0E0"/>
<path d="M287.877 356.023C287.492 357.197 287.21 358.402 287.036 359.625C286.58 362.027 285.967 365.389 285.247 369.604C283.794 378.01 281.933 389.706 280.179 402.651C278.426 415.596 277.189 427.352 276.469 435.89C276.108 440.153 275.856 443.6 275.724 445.989C275.582 447.225 275.558 448.472 275.652 449.712C275.942 448.505 276.127 447.276 276.205 446.037C276.505 443.432 276.889 440.033 277.405 435.974C278.354 427.472 279.735 415.74 281.476 402.819C283.217 389.898 284.947 378.418 286.171 369.736C286.748 365.678 287.216 362.291 287.576 359.71C287.782 358.492 287.883 357.258 287.877 356.023Z" fill="#E0E0E0"/>
<path d="M281.921 422.369C284.757 416.194 289.024 410.784 294.368 406.586C299.712 402.389 305.979 399.525 312.65 398.232C316.036 397.608 320.215 397.728 322.076 400.634C323.938 403.54 322.305 407.407 320.251 410.24C315.857 415.954 309.87 420.24 303.045 422.558C296.22 424.877 288.862 425.124 281.896 423.27" fill="#F5F5F5"/>
<path d="M307.919 407.178C307.264 407.209 306.619 407.347 306.009 407.587C304.808 407.923 303.067 408.511 300.966 409.292C295.407 411.311 290.27 414.34 285.811 418.226C283.408 420.446 281.38 423.042 279.807 425.911C278.549 428.266 277.624 430.784 277.057 433.392C276.672 435.137 276.446 436.914 276.385 438.7C276.274 439.348 276.274 440.01 276.385 440.657C276.637 440.657 276.733 437.883 277.85 433.609C279.317 428.041 282.361 423.016 286.616 419.139C290.986 415.366 295.932 412.318 301.266 410.108C305.409 408.319 308.015 407.37 307.919 407.178Z" fill="#E0E0E0"/>
<path d="M516.371 128.777C516.371 128.777 503.786 125.067 498.695 153.995C493.603 182.923 493.195 198.858 493.195 198.858C493.195 198.858 491.43 205.138 486.771 202.809C482.111 200.479 474.198 192.277 468.614 195.904C462.814 199.662 462.898 207.396 467.305 217.435C471.712 227.474 480.514 249.857 481.331 251.875C482.147 253.892 481.859 257.218 478.437 256.15C475.014 255.081 453.219 241.944 447.575 252.751C441.931 263.559 458.815 289.449 460.604 292.379C462.394 295.309 462.19 296.774 460.941 297.999C459.692 299.223 452.775 294.12 446.411 290.637C440.046 287.155 432.061 284.237 429.347 290.698C426.633 297.158 431.748 318.941 462.754 347.413L477.956 359.661L496.365 352.889C534.876 335.981 546.8 317.056 546.344 310.055C545.888 303.054 537.362 303.186 530.217 304.387C523.072 305.588 514.87 308.218 514.078 306.645C513.285 305.071 513.597 303.57 516.227 301.433C518.857 299.295 543.222 280.178 541.384 268.206C539.547 256.234 514.642 261.601 511.051 261.505C507.461 261.409 508.326 258.155 509.694 256.534C511.063 254.913 526.71 236.576 534.131 228.494C541.553 220.413 544.134 213.136 539.871 207.696C535.765 202.448 525.605 207.696 520.454 208.344C515.302 208.993 515.651 202.532 515.651 202.532C515.651 202.532 520.454 187.33 524.981 158.294C529.508 129.258 516.095 128.753 516.095 128.753" fill="#F5F5F5"/>
<path d="M511.772 154.703C511.772 154.703 511.772 154.908 511.712 155.316L511.46 157.105C511.219 158.702 510.871 161.02 510.439 163.974C509.538 169.978 508.181 178.576 506.464 189.191C503.03 210.506 498.058 239.902 492.426 272.361C486.795 304.819 481.739 334.204 478.197 355.495C476.431 366.122 475.002 374.708 474.018 380.712C473.525 383.666 473.141 385.972 472.817 387.569C472.685 388.325 472.589 388.914 472.505 389.346C472.421 389.778 472.373 389.946 472.373 389.946C472.373 389.946 472.373 389.742 472.445 389.334C472.517 388.926 472.589 388.313 472.685 387.545C472.925 385.948 473.273 383.63 473.705 380.676C474.606 374.672 475.963 366.074 477.68 355.459C481.115 334.144 486.086 304.735 491.73 272.277C497.374 239.818 502.453 210.446 506.056 189.107C507.809 178.48 509.238 169.894 510.235 163.89L511.376 157.033L511.688 155.256C511.706 155.07 511.734 154.886 511.772 154.703Z" fill="#E0E0E0"/>
<path d="M479.229 207.864C479.559 208.203 479.849 208.578 480.094 208.981C480.622 209.726 481.295 210.818 482.232 212.175C483.997 214.901 486.338 218.72 488.836 222.983L495.189 233.946L497.122 237.249C497.396 237.617 497.618 238.021 497.782 238.449C497.448 238.116 497.154 237.746 496.906 237.345C496.389 236.6 495.705 235.507 494.792 234.138C493.051 231.389 490.757 227.534 488.26 223.271L481.835 212.355C481.067 211.058 480.406 209.954 479.878 209.053C479.61 208.687 479.392 208.287 479.229 207.864Z" fill="#E0E0E0"/>
<path d="M499.607 238.341C499.499 238.185 507.172 233.022 516.743 226.789C526.314 220.557 534.131 215.646 534.239 215.79C534.347 215.934 526.662 221.121 517.103 227.342C507.545 233.562 499.703 238.473 499.607 238.341Z" fill="#E0E0E0"/>
<path d="M488.728 287.767C489.161 287.554 489.616 287.389 490.085 287.275L493.832 286.134C496.99 285.162 501.361 283.817 506.116 282.147C510.871 280.478 515.146 278.857 518.232 277.644L521.835 276.215C522.273 276.002 522.737 275.849 523.216 275.759C522.818 276.032 522.391 276.262 521.943 276.444C521.102 276.852 519.89 277.416 518.341 278.077C515.314 279.398 511.064 281.115 506.332 282.772C501.601 284.429 497.158 285.726 493.964 286.579C492.355 286.999 491.058 287.323 490.145 287.527C489.684 287.664 489.208 287.744 488.728 287.767Z" fill="#E0E0E0"/>
<path d="M464.23 264.279C464.615 264.507 464.969 264.782 465.287 265.096C465.936 265.648 466.872 266.465 468.001 267.498C470.283 269.551 473.393 272.409 476.803 275.591C480.214 278.773 483.276 281.691 485.473 283.829C486.566 284.886 487.443 285.762 488.043 286.375C488.374 286.674 488.672 287.008 488.932 287.371C488.543 287.154 488.187 286.884 487.875 286.567C487.214 286.014 486.29 285.186 485.149 284.165C482.879 282.124 479.757 279.266 476.347 276.071C472.937 272.877 469.874 269.971 467.689 267.846C466.584 266.777 465.707 265.912 465.107 265.288C464.772 264.991 464.478 264.652 464.23 264.279Z" fill="#E0E0E0"/>
<path d="M449.076 306.717C449.561 307.019 450.012 307.373 450.421 307.773L453.916 310.835C456.846 313.441 460.856 317.068 465.275 321.115C469.694 325.161 473.681 328.848 476.503 331.538L479.854 334.756C480.293 335.115 480.695 335.517 481.054 335.957C480.576 335.645 480.125 335.292 479.709 334.9L476.215 331.838C473.285 329.232 469.274 325.594 464.855 321.559C460.436 317.524 456.449 313.825 453.639 311.136L450.253 307.989C449.817 307.608 449.423 307.181 449.076 306.717Z" fill="#E0E0E0"/>
<path d="M480.455 335.08C480.999 334.811 481.565 334.59 482.148 334.42L486.855 332.799C490.818 331.43 496.294 329.52 502.286 327.251C508.278 324.981 513.646 322.796 517.512 321.187L522.111 319.277C522.664 319.017 523.238 318.808 523.829 318.653C523.324 318.997 522.785 319.287 522.22 319.517C521.163 320.034 519.626 320.718 517.704 321.607C513.874 323.336 508.518 325.594 502.514 327.863C496.51 330.133 491.01 332.006 486.999 333.207C484.994 333.831 483.397 334.312 482.196 334.624C481.632 334.833 481.049 334.986 480.455 335.08Z" fill="#E0E0E0"/>
<path d="M93.9783 385.263C121.705 369.436 130.712 336.197 132.405 305.732C132.693 300.64 133.738 295.357 131.732 290.685C129.727 286.014 124.383 282.46 119.652 284.177C115.725 285.606 113.648 289.833 111.246 293.267C107.987 297.838 103.505 301.397 98.3133 303.534C94.9269 304.915 90.8441 305.564 87.818 303.534C83.6631 300.712 83.6991 294.624 84.2155 289.593C85.1682 280.178 86.0848 270.78 86.9654 261.397C87.4577 256.366 87.9501 251.214 86.8213 246.291C85.6925 241.367 82.6304 236.588 77.9592 234.811C73.2879 233.033 67.0916 235.243 65.6266 240.094C65.0262 242.112 65.2423 244.273 64.9181 246.351C64.5939 248.428 63.3931 250.662 61.3156 251.07C59.2382 251.478 57.3649 249.869 55.9959 248.248C51.1926 242.676 48.3226 235.795 45.6207 228.963C42.9189 222.13 40.3251 215.177 36.1101 209.185C31.8952 203.193 25.771 198.209 18.59 197.177C11.409 196.144 3.3034 199.866 0.829684 206.783C-1.64403 213.7 1.82637 221.313 5.81314 227.486C11.7597 236.62 18.9909 244.85 27.284 251.923C28.7731 253.195 30.3822 254.576 30.8865 256.498C31.6671 259.956 28.1726 263.006 24.7623 263.811C20.8836 264.711 16.8368 263.943 12.874 264.051C8.91129 264.159 4.46821 265.492 2.65495 269.082C0.109185 274.042 3.92783 279.89 7.84255 283.769C15.688 291.637 24.8324 298.092 34.8733 302.85C38.4758 304.543 42.2464 306.092 44.9963 308.974C47.7462 311.856 49.1392 316.551 47.0137 319.938C44.8882 323.324 40.1329 324.045 36.3143 322.964C32.4956 321.883 29.2174 319.457 25.6389 317.728C18.9502 314.474 9.95601 314.126 4.97255 319.71C1.69428 323.384 0.937758 328.836 1.98248 333.663C3.02721 338.491 5.64502 342.814 8.47899 346.872C18.3859 360.922 31.6431 372.714 47.2178 379.763C62.7926 386.812 77.5269 389.682 94.0503 385.311" fill="#F5F5F5"/>
<path d="M92.3209 407.815C92.1939 393.6 90.7101 379.43 87.8898 365.497C84.3581 348.486 79.8556 331.691 74.4045 315.195L70.1536 302.214C68.7606 297.951 67.3796 293.724 65.7705 289.665C62.6767 281.89 59.1529 274.293 55.2152 266.909C51.5046 259.836 47.734 253.256 44.1555 247.131C40.577 241.007 37.1066 235.363 33.7443 230.32C28.4673 222.406 22.5729 214.921 16.1161 207.936C13.8345 205.462 12.0092 203.601 10.7484 202.352L9.30737 200.947C9.14796 200.781 8.97527 200.629 8.79102 200.491C8.92629 200.674 9.07479 200.846 9.23532 201.007L10.6163 202.484C11.8171 203.769 13.6184 205.679 15.8519 208.188C22.1922 215.261 27.9926 222.799 33.2039 230.74C36.5302 235.747 39.9406 241.403 43.4951 247.552C47.0495 253.7 50.7961 260.28 54.4707 267.341C58.3787 274.692 61.8862 282.248 64.978 289.977C66.5631 294.012 67.932 298.203 69.313 302.478C70.6939 306.753 72.0989 311.076 73.5279 315.471C78.9601 331.927 83.4742 348.672 87.0493 365.629C89.8969 379.505 91.4406 393.616 91.6605 407.779" fill="#E0E0E0"/>
<path d="M65.5542 289.605C65.8731 288.936 66.107 288.23 66.2507 287.503C66.647 286.134 67.1393 284.141 67.7277 281.655C68.9285 276.696 70.2855 269.803 71.7865 262.19C73.2876 254.576 74.7646 247.72 76.0134 242.796C76.6259 240.395 77.1422 238.341 77.5265 236.972C77.7609 236.27 77.9219 235.546 78.0068 234.811C77.6509 235.46 77.3728 236.15 77.1783 236.864C76.6979 238.209 76.0735 240.179 75.377 242.628C73.96 247.516 72.3749 254.384 70.8739 262.01L67.0793 281.571C66.6109 283.913 66.2147 285.894 65.8784 287.479C65.7036 288.176 65.595 288.888 65.5542 289.605Z" fill="#E0E0E0"/>
<path d="M1.83789 271.556C2.6733 271.81 3.52908 271.99 4.39566 272.096C6.05281 272.397 8.44247 272.817 11.3725 273.441C17.2566 274.642 25.3142 276.54 34.1163 279.049C42.9184 281.559 50.7838 284.201 56.4277 286.254C59.2497 287.263 61.5193 288.14 63.0804 288.74C63.8751 289.104 64.7037 289.39 65.5541 289.593C64.819 289.117 64.0387 288.714 63.2245 288.392C61.6994 287.683 59.4659 286.711 56.6559 285.618C51.06 283.384 43.2066 280.658 34.3684 278.125C26.8406 275.943 19.2051 274.151 11.4926 272.757C8.53854 272.229 6.12486 271.904 4.45571 271.712C3.59065 271.572 2.71353 271.519 1.83789 271.556Z" fill="#E0E0E0"/>
<path d="M87.1934 364.237C87.4022 364.012 87.5762 363.757 87.7097 363.48L89.0426 361.235C90.2435 359.289 91.7565 356.431 93.6538 352.829C97.4605 345.696 102.42 335.669 107.728 324.525C113.035 313.382 117.887 303.319 121.549 296.114L125.896 287.588L127.097 285.258C127.245 284.992 127.362 284.71 127.445 284.417C127.243 284.643 127.069 284.893 126.929 285.162L125.608 287.408C124.467 289.365 122.894 292.211 120.985 295.813C117.178 302.958 112.231 312.985 106.911 324.129C101.591 335.273 96.752 345.324 93.1015 352.541L88.7424 361.067L87.5416 363.396C87.3872 363.659 87.27 363.942 87.1934 364.237Z" fill="#E0E0E0"/>
<path d="M3.59131 328.572C3.84517 328.755 4.12426 328.901 4.41988 329.004L6.82155 330.073L15.7678 333.916C23.333 337.146 33.7802 341.745 45.1881 346.837C56.5961 351.928 67.0913 356.443 74.7286 359.517C78.5353 361.067 81.6334 362.279 83.7949 363.12L86.2806 364.033C86.5662 364.15 86.8644 364.235 87.1693 364.285C86.9211 364.099 86.6456 363.953 86.3527 363.852L83.951 362.784L74.9568 358.905C67.3915 355.663 56.9443 351.064 45.5364 345.972C34.1285 340.881 23.6212 336.365 15.9959 333.291C12.1893 331.754 9.09112 330.529 6.92962 329.689L4.4439 328.788C4.16914 328.683 3.88299 328.61 3.59131 328.572Z" fill="#E0E0E0"/>
<path d="M179.237 23.032V122.149H36.8905L31.751 23.7285L179.237 23.032Z" fill="#E0E0E0"/>
<path d="M31.751 23.7405L31.751 121.945L174.098 121.945V23.7405L31.751 23.7405Z" fill="white"/>
<path d="M174.782 122.617H31.0786V23.0559H174.782V122.617ZM32.4356 121.26H173.425V24.4008H32.4356V121.26Z" fill="#E0E0E0"/>
<path d="M158.679 35.929H47.1699V109.732H158.679V35.929Z" fill="white"/>
<path d="M158.692 35.929H158.139H156.614H150.49L127.506 36.0131L47.2304 36.1692L47.5547 35.845C47.5547 58.3966 47.5547 83.3859 47.5547 109.648L47.1944 109.3L158.716 109.372L158.428 109.648C158.5 87.1926 158.548 68.8198 158.584 55.9589C158.584 49.5465 158.584 44.539 158.656 41.1046C158.656 39.4115 158.656 38.1025 158.656 37.2019C158.656 36.3013 158.656 35.845 158.656 35.845C158.656 35.845 158.656 36.2773 158.656 37.1419C158.656 38.0065 158.656 39.3154 158.656 40.9966C158.656 44.4069 158.656 49.4024 158.728 55.7788C158.728 68.6397 158.812 87.1205 158.872 109.648V109.936H158.596L47.0743 110.008H46.7261V109.648C46.7261 83.3859 46.7261 58.3966 46.7261 35.845V35.5208H47.0383L127.494 35.6889L150.406 35.7729H156.41H157.959L158.692 35.929Z" fill="#E0E0E0"/>
<path d="M31.7271 23.4521C32.5861 23.886 33.3921 24.4179 34.1287 25.0372C35.5938 26.094 37.5751 27.583 39.7126 29.3002C41.8501 31.0174 43.7354 32.6265 45.0683 33.8393C45.8314 34.4462 46.5134 35.1484 47.0977 35.9288C46.9656 36.0849 43.4952 33.2629 39.2683 29.8406C35.0414 26.4182 31.631 23.6203 31.7271 23.4521Z" fill="#E0E0E0"/>
<path d="M174.11 23.7285C171.768 26.0306 169.264 28.1615 166.616 30.1049C164.118 32.2342 161.469 34.1806 158.691 35.929C161.048 33.63 163.564 31.4993 166.22 29.5526C168.708 27.4262 171.345 25.4799 174.11 23.7285Z" fill="#E0E0E0"/>
<path d="M173.99 121.957L158.127 109.084L173.99 121.957Z" fill="white"/>
<path d="M158.127 109.084C160.977 110.956 163.7 113.014 166.28 115.244C169.003 117.3 171.579 119.543 173.99 121.957C171.136 120.089 168.412 118.031 165.836 115.796C161.417 112.254 157.995 109.24 158.127 109.084Z" fill="#E0E0E0"/>
<path d="M31.7271 121.944C34.0467 119.664 36.5267 117.553 39.1482 115.628C41.6228 113.524 44.2432 111.598 46.9896 109.864C44.676 112.146 42.1998 114.257 39.5805 116.18C37.102 118.285 34.4776 120.211 31.7271 121.944Z" fill="#E0E0E0"/>
<path d="M69.8174 58.9368V83.6499H139.982V58.9368H69.8174Z" fill="#E0E0E0"/>
<path d="M507.93 0H431.821V110.32H507.93V0Z" fill="#E0E0E0"/>
<path d="M504.123 0H428.014V110.32H504.123V0Z" fill="#F5F5F5"/>
<path d="M494.66 11.9482H437.464V98.3722H494.66V11.9482Z" fill="white"/>
<path d="M494.672 98.3722C494.672 98.3722 494.672 98.2281 494.672 97.9519V96.7511C494.672 95.6583 494.672 94.0732 494.672 92.0078C494.672 87.8649 494.672 81.8367 494.672 74.2114C494.672 58.9729 494.612 37.3819 494.576 11.9723L494.768 12.1644H437.465L437.681 11.9603C437.681 44.5629 437.681 74.6197 437.681 98.4202L437.513 98.2521L479.145 98.3482H490.649H493.675H494.72H493.712H490.721H479.253L437.513 98.4323H437.356V98.2641C437.356 74.4997 437.356 44.4428 437.356 11.8042V11.7441H494.996V11.9363C494.996 37.4059 494.936 59.0209 494.912 74.2955C494.912 81.8968 494.912 87.9249 494.852 92.0558C494.852 94.0972 494.852 95.6583 494.852 96.7511V97.9519C494.672 98.2401 494.672 98.3722 494.672 98.3722Z" fill="#E0E0E0"/>
<path d="M504.339 0C503.952 0.699515 503.498 1.35917 502.982 1.96937C502.093 3.1702 500.844 4.76731 499.379 6.50851C497.914 8.24972 496.605 9.78679 495.609 10.8795C495.116 11.4949 494.569 12.0655 493.976 12.5847C494.403 11.9109 494.89 11.276 495.429 10.6874L499.091 6.24433C500.472 4.55116 501.733 3.0261 502.754 1.78924C503.23 1.14892 503.761 0.550342 504.339 0Z" fill="#E0E0E0"/>
<path d="M494.96 98.0957C497.809 102.615 501.156 106.8 504.939 110.572L494.96 98.0957Z" fill="white"/>
<path d="M504.939 110.572C504.306 110.105 503.722 109.574 503.198 108.987C502.177 107.955 500.796 106.478 499.427 104.748C498.25 103.267 497.148 101.728 496.125 100.137C495.656 99.4993 495.254 98.8152 494.924 98.0957C495.441 98.6865 495.911 99.3168 496.329 99.981C497.17 101.182 498.347 102.767 499.716 104.484C501.085 106.201 502.405 107.714 503.378 108.783C503.941 109.341 504.463 109.939 504.939 110.572Z" fill="#E0E0E0"/>
<path d="M428.002 110.237L437.969 97.9402L428.002 110.237Z" fill="white"/>
<path d="M437.969 97.9402C436.481 100.118 434.878 102.214 433.166 104.221C430.404 107.607 428.098 110.309 428.014 110.225C429.505 108.049 431.108 105.953 432.817 103.944C434.429 101.855 436.149 99.8509 437.969 97.9402Z" fill="#E0E0E0"/>
<path d="M428.002 0C429.706 1.84175 431.309 3.77388 432.805 5.78801C434.416 7.70789 435.923 9.71211 437.32 11.7922C435.613 9.95396 434.009 8.0216 432.517 6.00416C430.907 4.08428 429.399 2.08006 428.002 0Z" fill="#E0E0E0"/>
<path d="M476.851 29.4924H457.698V83.8661H476.851V29.4924Z" fill="#E0E0E0"/>
<path d="M523.984 449.688C523.984 449.868 406.999 450 262.743 450C118.487 450 1.47803 449.916 1.47803 449.688C1.47803 449.46 118.427 449.375 262.743 449.375C407.059 449.375 523.984 449.568 523.984 449.688Z" fill="#263238"/>
<path d="M377.207 241.944C378.099 245.57 377.995 249.369 376.906 252.941C375.818 256.513 373.785 259.725 371.023 262.238C367.36 265.48 362.617 267.353 359.254 270.92C357.173 273.291 355.742 276.162 355.1 279.251C354.458 282.341 354.628 285.543 355.592 288.548C356.612 291.53 358.227 294.275 360.339 296.616C362.45 298.956 365.014 300.844 367.876 302.165C371.774 303.986 376.047 304.859 380.346 304.713C384.645 304.567 388.849 303.406 392.614 301.325C401.896 296.077 407.3 285.546 408.669 274.966C410.038 264.387 407.888 253.676 405.066 243.385" fill="#263238"/>
<path d="M494.276 428.493C503.883 426.92 512.889 429.85 522.4 431.952C524.929 432.701 527.598 432.845 530.193 432.372C534.312 431.315 537.242 427.304 537.879 423.101C538.393 419.419 537.539 415.676 535.477 412.582C534.65 411.249 533.523 410.126 532.187 409.304C530.755 408.586 529.188 408.177 527.587 408.103C521.759 407.634 515.912 408.737 510.656 411.297C505.414 413.846 500.659 417.292 496.606 421.48C494.589 423.498 495.189 425.815 494.3 428.529" fill="#263238"/>
<path d="M299.513 273.442C297.972 264.281 298.16 254.914 300.065 245.822C300.871 241.377 302.5 237.121 304.869 233.274C305.676 231.839 306.904 230.686 308.387 229.971C309.464 229.614 310.62 229.562 311.725 229.823C312.829 230.084 313.84 230.647 314.643 231.448C315.669 232.516 316.457 233.79 316.954 235.186C317.451 236.581 317.645 238.066 317.525 239.542C317.311 242.494 316.588 245.387 315.388 248.092C311.677 257.578 305.781 265.456 299.477 273.429" fill="#263238"/>
<path d="M485.642 308.158C487.815 309.707 536.077 413.663 536.077 413.663C532.196 412.005 527.897 411.586 523.768 412.462L521.151 413.158C516.465 414.418 512.022 416.447 508.001 419.163L494.228 428.481C493.683 428.168 493.221 427.728 492.88 427.2C492.54 426.671 492.331 426.069 492.27 425.443V425.047L454.853 360.826L485.642 308.158Z" fill="#FF931E"/>
<path d="M304.425 142.659L317.298 215.826C321.44 225.672 369.75 285.33 369.75 285.33L353.779 336.653L290.327 249.893C284.435 243.593 281.23 235.245 281.393 226.621L283.866 148.447L304.425 142.659Z" fill="#FFBE9D"/>
<path d="M372.932 273.862L406.063 276.372L434.955 280.851C434.955 280.851 485.642 294.168 485.642 299.716C485.642 301.565 471.809 345.624 464.027 372.018C462.12 378.429 460.565 384.939 459.368 391.52L485.642 449.688H360.96V396.359C360.96 396.359 352.554 326.314 354.031 316.744C355.508 307.173 372.932 273.862 372.932 273.862Z" fill="#FF931E"/>
<path d="M288.705 113.094C288.9 105.642 289.663 98.2154 290.987 90.879C291.167 89.8343 291.599 88.5734 292.644 88.4773C293.941 88.3092 294.601 89.9784 294.769 91.2753C295.921 100.123 295.551 109.102 293.677 117.826" fill="#EB996E"/>
<path d="M303.476 268.026C317.694 255.321 318.174 233.31 316.961 215.79C316.724 214.51 316.918 213.188 317.514 212.031C318.871 210.098 322.173 210.83 323.518 212.776C324.863 214.721 324.719 217.279 324.647 219.633C325.379 217.639 328.501 217.651 329.966 219.188C331.431 220.725 331.684 223.043 331.852 225.192L332.32 231.052L373.857 270.68C373.857 270.68 374.998 267.077 378.048 269.155C381.098 271.232 383.067 275.615 383.067 275.615L353.803 339.488L299.489 273.442C300.534 271.443 301.878 269.617 303.476 268.026Z" fill="#FF931E"/>
<path d="M359.843 312.229C355.509 317.756 352.273 324.062 350.308 330.805C348.35 337.593 348.565 344.824 350.921 351.484C352.743 356.092 355.729 360.149 359.587 363.259C363.444 366.37 368.042 368.428 372.932 369.232" fill="#FF931E"/>
<path d="M494.276 428.493L492.703 449.688H523.48L530.685 412.162C521.31 411.638 512.064 414.535 504.663 420.315L494.276 428.493Z" fill="#FFBE9D"/>
<path d="M317.945 263.331C318.119 262.748 318.344 262.181 318.618 261.637C319.098 260.581 319.747 259.02 320.479 257.074C321.212 255.129 321.992 252.775 322.725 250.134C323.486 247.25 324.091 244.328 324.538 241.379C324.953 238.429 325.205 235.459 325.294 232.481C325.294 229.731 325.294 227.258 325.126 225.18C324.958 223.103 324.802 221.434 324.646 220.281C324.542 219.682 324.486 219.075 324.478 218.468C324.673 219.045 324.81 219.64 324.886 220.245C325.198 221.865 325.426 223.5 325.571 225.144C325.805 227.587 325.905 230.04 325.871 232.493C325.78 238.509 324.908 244.487 323.277 250.278C322.606 252.638 321.805 254.959 320.875 257.23C320.083 259.176 319.374 260.713 318.822 261.746C318.57 262.295 318.277 262.825 317.945 263.331Z" fill="#263238"/>
<path d="M326.988 252.175C327.38 251.142 327.829 250.132 328.333 249.149C330.436 244.275 331.655 239.067 331.936 233.766C331.934 232.663 331.994 231.56 332.116 230.464C332.352 231.552 332.441 232.667 332.38 233.778C332.339 239.164 331.109 244.474 328.778 249.329C328.319 250.358 327.716 251.316 326.988 252.175Z" fill="#263238"/>
<path d="M375.766 285.39C375.67 285.33 376.174 284.549 376.462 283.132C376.799 281.28 376.692 279.375 376.15 277.573C375.579 275.758 374.885 273.985 374.072 272.265C373.693 271.553 373.411 270.794 373.232 270.007C373.707 270.649 374.11 271.342 374.433 272.073C375.383 273.764 376.152 275.551 376.726 277.404C377.301 279.302 377.346 281.319 376.858 283.241C376.707 284.047 376.328 284.793 375.766 285.39Z" fill="#263238"/>
<path d="M368.549 369.977C368.361 369.899 368.184 369.798 368.021 369.676L366.604 368.74C365.403 367.911 363.614 366.698 361.524 365.053C359.054 363.151 356.796 360.989 354.787 358.605C352.316 355.653 350.536 352.186 349.576 348.458C348.659 344.728 348.423 340.863 348.879 337.05C349.248 333.957 349.936 330.91 350.933 327.959C351.594 325.971 352.359 324.019 353.226 322.111C353.539 321.439 353.779 320.911 353.959 320.574C354.038 320.387 354.139 320.21 354.259 320.046C354.032 320.781 353.763 321.503 353.455 322.207C352.914 323.576 352.134 325.57 351.353 328.091C350.431 331.029 349.796 334.049 349.456 337.11C349.038 340.854 349.281 344.642 350.176 348.301C351.111 351.947 352.837 355.341 355.232 358.244C357.198 360.614 359.398 362.778 361.8 364.705C363.842 366.386 365.559 367.647 366.748 368.548L368.093 369.58C368.405 369.82 368.561 369.952 368.549 369.977Z" fill="#263238"/>
<path d="M436.576 381.853C436.41 381.941 436.232 382.005 436.048 382.045C435.688 382.141 435.171 382.321 434.487 382.453C432.552 382.873 430.582 383.11 428.603 383.162C422.004 383.364 415.495 381.586 409.916 378.057C404.336 374.528 399.941 369.409 397.297 363.36C396.491 361.551 395.86 359.669 395.412 357.74C395.243 357.056 395.183 356.539 395.111 356.155C395.07 355.97 395.05 355.78 395.051 355.591C395.297 356.269 395.498 356.963 395.652 357.668C397.563 364.918 401.843 371.321 407.811 375.86C413.779 380.399 421.093 382.812 428.591 382.717C430.55 382.708 432.506 382.539 434.439 382.213C435.144 382.055 435.858 381.935 436.576 381.853Z" fill="#263238"/>
<path d="M455.681 405.257C455.513 405.257 457.098 398.569 459.284 390.427C461.469 382.285 463.27 375.717 463.427 375.765C463.583 375.813 462.01 382.442 459.884 390.583C457.759 398.725 455.849 405.257 455.681 405.257Z" fill="#263238"/>
<path d="M472.433 391.099C472.289 391.183 467.461 383.294 461.625 373.471C455.789 363.648 451.226 355.615 451.382 355.531C451.538 355.447 456.354 363.324 462.19 373.147C468.026 382.97 472.637 391.003 472.433 391.099Z" fill="#263238"/>
<path d="M518.533 410.541C518.533 410.661 516.779 410.805 514.042 411.501C512.442 411.908 510.873 412.425 509.346 413.05C507.484 413.839 505.685 414.77 503.967 415.836C502.271 416.928 500.665 418.152 499.163 419.499C497.939 420.618 496.796 421.822 495.741 423.101C493.94 425.275 493.051 426.8 492.943 426.704C493.087 426.315 493.277 425.944 493.507 425.599C494.064 424.616 494.694 423.677 495.393 422.789C496.419 421.462 497.547 420.217 498.767 419.067C500.277 417.668 501.909 416.406 503.642 415.296C505.391 414.209 507.231 413.277 509.142 412.51C510.701 411.895 512.307 411.409 513.945 411.057C515.043 410.803 516.16 410.634 517.284 410.553C517.697 410.489 518.118 410.485 518.533 410.541Z" fill="#263238"/>
<path d="M524.417 403.312C524.417 403.444 522.484 403.204 519.398 403.468C517.597 403.63 515.814 403.944 514.066 404.404C509.78 405.542 505.775 407.549 502.298 410.301C500.884 411.426 499.566 412.667 498.359 414.011C496.306 416.317 495.345 417.998 495.237 417.938C495.399 417.513 495.612 417.109 495.873 416.737C496.131 416.273 496.42 415.828 496.738 415.404C497.138 414.822 497.567 414.261 498.023 413.723C499.203 412.314 500.514 411.019 501.937 409.856C503.699 408.444 505.598 407.213 507.605 406.182C509.626 405.192 511.743 404.412 513.922 403.852C515.709 403.403 517.534 403.126 519.374 403.023C520.074 402.988 520.775 402.988 521.475 403.023C522.009 403.026 522.542 403.058 523.072 403.12C523.527 403.126 523.979 403.191 524.417 403.312Z" fill="#263238"/>
<g opacity="0.3">
<path d="M396.336 358.148C393.515 363.504 395.868 370.036 398.45 375.524C400.455 379.775 402.689 384.086 406.339 387.052C408.133 388.519 410.211 389.598 412.442 390.224C414.672 390.849 417.008 391.006 419.303 390.686C421.598 390.366 423.801 389.575 425.776 388.363C427.75 387.15 429.453 385.543 430.776 383.642C423.122 383.528 415.68 381.101 409.431 376.68C403.181 372.258 398.415 366.049 395.76 358.869" fill="black"/>
</g>
<g opacity="0.3">
<path d="M451.467 355.531C449.305 360.682 450.938 367.731 453.196 372.835C455.454 377.938 457.855 383.642 456.042 388.938C455.574 389.878 455.332 390.914 455.333 391.964C455.454 392.996 456.534 393.993 457.507 393.513C458.01 393.159 458.358 392.626 458.48 392.024C460.185 386.884 461.894 381.749 463.607 376.617" fill="black"/>
</g>
<path d="M337.868 287.695C338.062 284.471 338.463 281.262 339.069 278.089C339.477 274.898 340.091 271.738 340.906 268.626C340.725 271.852 340.324 275.062 339.705 278.233C339.301 281.424 338.687 284.585 337.868 287.695Z" fill="#FAFAFA"/>
<path d="M325.223 285.042C325.067 285.138 323.002 282.256 320.144 278.942C317.286 275.627 314.764 273.142 314.884 273.01C317.037 274.584 318.968 276.442 320.624 278.533C322.433 280.494 323.979 282.682 325.223 285.042Z" fill="#FAFAFA"/>
<path d="M336.078 254.108C335.717 254.882 335.261 255.608 334.722 256.27C333.809 257.555 332.476 259.272 330.927 261.073C329.378 262.874 327.889 264.495 326.772 265.6C326.212 266.242 325.57 266.807 324.863 267.281C324.731 267.161 327.36 264.315 330.447 260.665C333.533 257.014 335.934 253.952 336.078 254.108Z" fill="#FAFAFA"/>
<path d="M331.839 238.99C331.659 239.062 330.975 237.537 329.654 236.012C328.333 234.487 326.916 233.61 327.012 233.43C328.261 233.79 329.355 234.554 330.122 235.604C331.046 236.517 331.648 237.705 331.839 238.99Z" fill="#FAFAFA"/>
<path d="M320.888 248.308C319.907 248.77 318.848 249.043 317.766 249.113C316.716 249.387 315.622 249.452 314.547 249.305C316.577 248.568 318.73 248.23 320.888 248.308Z" fill="#FAFAFA"/>
<path d="M348.519 261.65C348.546 259.78 348.414 257.912 348.123 256.066C347.626 254.263 346.971 252.507 346.166 250.818C347.527 252.217 348.421 254.005 348.723 255.934C349.237 257.815 349.166 259.809 348.519 261.65Z" fill="#FAFAFA"/>
<path d="M363.277 277.525C361.062 273.989 358.088 270.991 354.571 268.747C356.557 269.517 358.359 270.697 359.859 272.209C361.358 273.721 362.523 275.533 363.277 277.525Z" fill="#FAFAFA"/>
<path d="M339.585 305.072C336.01 306.411 332.05 306.277 328.573 304.699C328.633 304.519 330.975 305.276 334.061 305.36C337.147 305.444 339.537 304.892 339.585 305.072Z" fill="#FAFAFA"/>
<path d="M350.704 310.776C350.536 310.704 351.473 307.942 352.253 304.435C353.034 300.929 353.382 298.023 353.562 298.047C353.686 300.244 353.451 302.446 352.866 304.567C352.484 306.74 351.754 308.836 350.704 310.776Z" fill="#FAFAFA"/>
<path d="M374.998 311.7C373.098 310.095 371.342 308.327 369.75 306.416C367.993 304.648 366.386 302.736 364.947 300.7C366.839 302.314 368.591 304.086 370.182 305.996C371.938 307.765 373.549 309.672 374.998 311.7Z" fill="#FAFAFA"/>
<path d="M386.309 339.763C384.869 338.718 383.555 337.51 382.394 336.161C381.093 334.951 379.932 333.598 378.936 332.126C380.376 333.171 381.69 334.38 382.851 335.729C384.164 336.927 385.326 338.282 386.309 339.763Z" fill="#FAFAFA"/>
<path d="M365.283 342.442C363.902 343.911 362.277 345.13 360.479 346.044C358.789 347.17 356.91 347.983 354.932 348.446C354.932 348.278 357.333 347.245 360.167 345.552C363.001 343.859 365.163 342.298 365.283 342.442Z" fill="#FAFAFA"/>
<path d="M374.962 369.136C374.781 369.136 375.502 365.942 375.862 361.991C376.222 358.04 376.114 354.786 376.294 354.786C376.736 357.163 376.8 359.594 376.487 361.991C376.367 364.439 375.852 366.852 374.962 369.136Z" fill="#FAFAFA"/>
<path d="M411.358 347.437C409.375 346.223 407.615 344.675 406.159 342.862C404.553 341.185 403.256 339.238 402.328 337.11C402.484 337.002 404.129 339.607 406.627 342.453C409.125 345.299 411.478 347.281 411.358 347.437Z" fill="#FAFAFA"/>
<path d="M424.652 358.761C424.508 358.653 426.333 356.155 428.375 352.949C430.416 349.742 431.917 347.053 432.073 347.137C431.294 349.32 430.224 351.388 428.891 353.285C427.738 355.298 426.312 357.141 424.652 358.761Z" fill="#FAFAFA"/>
<path d="M422.707 331.045C418.606 330.364 414.584 329.278 410.698 327.803C412.769 328.05 414.811 328.492 416.798 329.124C418.828 329.564 420.807 330.207 422.707 331.045Z" fill="#FAFAFA"/>
<path d="M413.016 379.823C412.803 377.932 412.803 376.023 413.016 374.131C413.031 372.229 413.248 370.333 413.664 368.476C413.88 370.367 413.88 372.276 413.664 374.168C413.652 376.071 413.435 377.967 413.016 379.823Z" fill="#FAFAFA"/>
<path d="M421.397 396.527C422.026 394.588 422.531 392.61 422.91 390.607C423.076 388.574 423.108 386.532 423.006 384.495C423.626 386.493 423.803 388.602 423.525 390.676C423.247 392.75 422.521 394.738 421.397 396.503V396.527Z" fill="#FAFAFA"/>
<path d="M399.674 392.841C399.062 388.692 399.875 384.459 401.98 380.832C402.148 380.904 401.043 383.438 400.419 386.764C399.794 390.091 399.854 392.829 399.674 392.841Z" fill="#FAFAFA"/>
<path d="M379.861 401.306C377.903 399.947 376.019 398.483 374.217 396.923C372.288 395.526 370.432 394.031 368.657 392.444C370.815 393.52 372.832 394.859 374.661 396.431C376.579 397.848 378.324 399.484 379.861 401.306Z" fill="#FAFAFA"/>
<path d="M393.274 377.746C388.678 380.662 383.86 383.211 378.864 385.371C381.125 383.815 383.502 382.434 385.973 381.24C388.313 379.889 390.754 378.721 393.274 377.746Z" fill="#FAFAFA"/>
<path d="M434.955 430.619C434.7 430.702 434.439 430.766 434.174 430.811C433.658 430.907 432.901 431.099 431.917 431.231C429.136 431.656 426.323 431.837 423.511 431.771C416.246 431.666 409.086 430.021 402.504 426.945C395.921 423.869 390.066 419.432 385.324 413.927C382.57 410.758 380.211 407.266 378.3 403.528C376.997 401.023 375.92 398.407 375.081 395.71C374.757 394.762 374.601 394.005 374.457 393.501C374.377 393.243 374.324 392.977 374.301 392.708C374.416 392.951 374.508 393.205 374.577 393.465C374.757 393.957 374.949 394.666 375.309 395.638C377.612 402.221 381.159 408.299 385.757 413.543C390.51 418.921 396.312 423.272 402.805 426.33C409.299 429.388 416.349 431.089 423.523 431.327C426.329 431.431 429.14 431.319 431.929 430.991C432.925 430.895 433.682 430.739 434.198 430.691C434.447 430.638 434.701 430.614 434.955 430.619Z" fill="#263238"/>
<path d="M399.074 424.398C398.664 422.492 398.862 420.506 399.639 418.718C400.225 416.858 401.385 415.231 402.953 414.071C401.892 415.606 400.98 417.239 400.227 418.946C399.677 420.725 399.291 422.55 399.074 424.398Z" fill="#FAFAFA"/>
<path d="M389.192 420.267C388.051 421.15 387.005 422.148 386.069 423.245C385.289 424.455 384.629 425.738 384.1 427.076C384.14 425.554 384.652 424.082 385.564 422.862C386.475 421.643 387.743 420.736 389.192 420.267Z" fill="#FAFAFA"/>
<path d="M427.197 442.891C425.232 442.734 423.333 442.106 421.662 441.061C419.99 440.016 418.593 438.585 417.591 436.887C420.202 439.707 423.518 441.779 427.197 442.891Z" fill="#FAFAFA"/>
<path d="M433.106 409.628C432.854 411.393 432.108 413.051 430.954 414.411C429.8 415.771 428.286 416.777 426.585 417.313C427.989 416.345 429.292 415.239 430.476 414.011C431.501 412.645 432.383 411.176 433.106 409.628Z" fill="#FAFAFA"/>
<path d="M449.905 434.425C449.761 434.305 451.346 432.3 452.811 429.538C454.276 426.776 455.057 424.338 455.213 424.398C454.533 428.218 452.668 431.726 449.881 434.425H449.905Z" fill="#FAFAFA"/>
<path d="M472.109 437.679C472.181 437.86 469.995 438.724 467.798 440.537C465.6 442.351 464.279 444.296 464.123 444.14C464.813 442.483 465.948 441.05 467.401 439.997C468.725 438.803 470.355 438 472.109 437.679Z" fill="#FAFAFA"/>
<path d="M455.177 409.256C454.985 409.316 453.976 405.809 451.73 401.919C449.485 398.028 447.083 395.29 447.239 395.17C447.898 395.634 448.478 396.202 448.956 396.851C451.483 399.804 453.409 403.222 454.624 406.914C454.926 407.662 455.112 408.452 455.177 409.256Z" fill="#FAFAFA"/>
<path d="M458.491 373.507C454.753 374.798 450.889 375.688 446.963 376.161C450.702 374.874 454.566 373.984 458.491 373.507Z" fill="#FAFAFA"/>
<path d="M448.273 362.82C446.902 361.545 445.67 360.128 444.598 358.593C443.376 357.178 442.309 355.636 441.416 353.993C442.8 355.251 444.033 356.666 445.091 358.208C446.325 359.618 447.392 361.166 448.273 362.82Z" fill="#FAFAFA"/>
<path d="M473.633 356.407C469.742 356.311 465.914 355.403 462.394 353.741C464.295 354.066 466.176 354.503 468.025 355.05C469.92 355.389 471.793 355.842 473.633 356.407Z" fill="#FAFAFA"/>
<path d="M491.646 356.083C492.163 354.384 492.776 352.716 493.483 351.087C493.99 349.381 494.604 347.709 495.321 346.08C495.223 347.877 494.817 349.644 494.12 351.303C493.584 353.03 492.746 354.648 491.646 356.083Z" fill="#FAFAFA"/>
<path d="M487.539 380.484C483.815 379.652 480.451 377.659 477.933 374.792C478.053 374.648 479.95 376.305 482.58 377.854C485.21 379.403 487.599 380.304 487.539 380.484Z" fill="#FAFAFA"/>
<path d="M499.235 379.739C499.476 377.329 499.918 374.943 500.556 372.606C500.991 370.231 501.625 367.897 502.453 365.629C501.779 370.422 500.691 375.147 499.199 379.751L499.235 379.739Z" fill="#FAFAFA"/>
<path d="M489.473 407.022C486.475 403.63 483.798 399.968 481.475 396.083C483.049 397.712 484.471 399.481 485.726 401.366C487.146 403.132 488.401 405.026 489.473 407.022Z" fill="#FAFAFA"/>
<path d="M506.14 396.587C505.972 396.671 504.879 394.498 503.15 392.072C501.421 389.646 499.752 387.881 499.884 387.749C501.394 388.807 502.68 390.154 503.666 391.712C504.814 393.152 505.656 394.811 506.14 396.587Z" fill="#FAFAFA"/>
<path d="M521.775 394.245C520.406 392.637 519.123 390.958 517.933 389.214C516.568 387.607 515.285 385.931 514.09 384.194C517.285 387.01 519.896 390.424 521.775 394.245Z" fill="#FAFAFA"/>
<path d="M518.064 404.609C517.85 403.166 517.365 401.777 516.635 400.514C515.757 399.348 514.67 398.354 513.429 397.584C513.429 397.512 513.982 397.584 514.738 397.956C515.714 398.476 516.541 399.237 517.14 400.166C517.751 401.092 518.119 402.158 518.208 403.264C518.329 404.057 518.172 404.609 518.064 404.609Z" fill="#FAFAFA"/>
<path d="M505.912 418.815C505.816 418.815 505.852 418.49 505.756 418.07C505.643 417.53 505.351 417.044 504.928 416.689C504.484 416.361 503.942 416.196 503.391 416.221C502.958 416.221 502.682 416.329 502.634 416.221C502.586 416.113 502.814 415.897 503.331 415.753C503.67 415.664 504.026 415.655 504.369 415.726C504.713 415.797 505.036 415.946 505.312 416.162C505.589 416.378 505.812 416.655 505.964 416.972C506.116 417.288 506.193 417.635 506.189 417.986C506.177 418.562 505.985 418.839 505.912 418.815Z" fill="#FAFAFA"/>
<path d="M380.977 441.522C378.735 440.658 376.697 439.336 374.993 437.641C373.289 435.945 371.958 433.914 371.083 431.675C373.532 435.726 376.927 439.121 380.977 441.57V441.522Z" fill="#FAFAFA"/>
<path d="M304.545 143.475C302.611 125.211 299.117 108.027 298.168 90.1225C298.206 89.6735 298.149 89.2217 298.003 88.7958C297.856 88.3699 297.622 87.9792 297.316 87.6487C297.054 87.4959 296.764 87.3978 296.464 87.3605C296.163 87.3232 295.858 87.3474 295.567 87.4317C295.276 87.5159 295.006 87.6584 294.772 87.8506C294.537 88.0427 294.345 88.2805 294.205 88.5494C293.682 89.6733 293.474 90.9188 293.605 92.1519C293.626 101.673 292.001 111.127 288.802 120.095C286.748 125.919 283.998 131.503 282.461 137.471C280.924 143.439 283.818 145.469 286.508 151.029" fill="#FFBE9D"/>
<path d="M286.544 151.005C284.165 149.18 282.32 146.749 281.203 143.967C280.085 141.185 279.736 138.153 280.192 135.19C280.804 131.588 282.594 128.321 284.011 124.959C285.428 121.597 286.52 117.862 285.656 114.32C285.178 113.005 284.855 111.638 284.695 110.249C284.695 108.856 285.596 107.295 286.989 107.235C287.515 107.277 288.025 107.441 288.477 107.714C288.929 107.987 289.312 108.362 289.594 108.808C291.936 111.702 293.809 120.156 292.633 126.472" fill="#FFBE9D"/>
<path d="M292.632 126.472C292.632 126.472 292.752 125.499 292.824 123.746C292.899 121.273 292.694 118.799 292.212 116.373C291.888 114.701 291.406 113.065 290.771 111.485C290.436 110.626 289.984 109.818 289.426 109.084C289.175 108.69 288.847 108.351 288.461 108.089C288.074 107.827 287.639 107.646 287.18 107.559C286.708 107.581 286.256 107.758 285.894 108.061C285.532 108.365 285.279 108.779 285.175 109.24C284.917 110.264 284.985 111.342 285.367 112.326C285.771 113.425 286.053 114.564 286.208 115.724C286.324 116.926 286.279 118.137 286.075 119.327C285.235 124.202 282.641 128.141 281.272 132.044C280.597 133.867 280.236 135.792 280.203 137.736C280.196 139.429 280.447 141.113 280.948 142.731C281.675 145.091 282.904 147.266 284.55 149.107C285.751 150.392 286.532 150.957 286.496 151.017C286.281 150.908 286.08 150.775 285.895 150.621C285.353 150.208 284.843 149.754 284.37 149.264C282.615 147.453 281.3 145.263 280.528 142.863C279.98 141.209 279.697 139.478 279.687 137.736C279.697 135.729 280.051 133.739 280.732 131.852C282.053 127.865 284.61 123.926 285.403 119.231C285.608 118.09 285.652 116.926 285.535 115.772C285.391 114.645 285.121 113.537 284.731 112.47C284.315 111.367 284.256 110.162 284.562 109.024C284.741 108.456 285.069 107.946 285.511 107.547C285.732 107.34 285.994 107.182 286.279 107.08C286.564 106.979 286.866 106.938 287.168 106.958C287.718 107.031 288.247 107.22 288.719 107.511C289.191 107.803 289.595 108.192 289.906 108.651C290.49 109.446 290.959 110.319 291.299 111.245C291.934 112.858 292.401 114.532 292.692 116.241C293.147 118.703 293.288 121.212 293.112 123.71C293.07 124.388 292.982 125.062 292.848 125.727C292.812 125.984 292.739 126.235 292.632 126.472Z" fill="#EB996E"/>
<path d="M449.617 223.991C450.01 225.709 450.94 227.257 452.272 228.41C453.605 229.563 455.27 230.262 457.027 230.404C458.787 230.49 460.54 230.127 462.122 229.35C463.703 228.573 465.062 227.407 466.069 225.961C468.063 223.02 468.866 219.432 468.314 215.922C467.63 210.866 464.268 206.003 459.392 204.502C454.517 203.001 448.453 205.703 447.108 210.602L441.488 218.443L449.617 223.991Z" fill="#263238"/>
<path d="M442.976 208.585C443.521 204.239 443.188 199.828 441.996 195.614C440.804 191.4 438.777 187.468 436.036 184.052C433.296 180.636 429.897 177.805 426.041 175.728C422.186 173.651 417.952 172.369 413.592 171.959C396.168 170.302 380.665 183.283 378.059 200.599C375.765 215.778 373.796 231.1 373.868 236.624C374.084 253.436 383.895 259.944 387.882 261.842C389.313 262.358 390.794 262.724 392.301 262.934C392.315 262.937 392.329 262.943 392.341 262.951C392.353 262.959 392.363 262.97 392.371 262.982C392.379 262.995 392.384 263.009 392.387 263.023C392.389 263.037 392.388 263.052 392.385 263.066L388.662 282.28C386.969 294.901 394.018 306.164 406.615 308.002C419.212 309.839 429.142 300.148 431.076 287.515L442.976 208.585Z" fill="#FFBE9D"/>
<path d="M380.953 210.41C381.23 210.806 383.439 209.617 386.285 210.038C389.131 210.458 390.992 212.187 391.353 211.875C391.533 211.743 391.281 211.082 390.476 210.29C389.371 209.257 387.975 208.59 386.477 208.381C384.999 208.166 383.491 208.422 382.166 209.113C381.169 209.653 380.809 210.23 380.953 210.41Z" fill="#263238"/>
<path d="M406.22 215.885C406.496 216.282 408.717 215.093 411.551 215.513C414.385 215.934 416.271 217.663 416.631 217.351C416.799 217.218 416.559 216.558 415.742 215.753C414.64 214.727 413.248 214.064 411.755 213.856C410.277 213.64 408.768 213.897 407.444 214.589C406.472 215.129 406.087 215.705 406.22 215.885Z" fill="#263238"/>
<path d="M396.397 229.311C394.968 228.627 393.459 228.122 391.906 227.81C391.185 227.63 390.525 227.378 390.477 226.873C390.524 226.117 390.8 225.392 391.269 224.796L394.223 219.584C398.342 212.151 401.428 206.003 401.14 205.835C400.852 205.667 397.249 211.563 393.13 219.044L390.26 224.292C389.686 225.107 389.406 226.094 389.468 227.09C389.544 227.354 389.677 227.598 389.857 227.806C390.038 228.013 390.261 228.179 390.513 228.29C390.897 228.454 391.301 228.571 391.713 228.639C393.24 229.06 394.813 229.286 396.397 229.311Z" fill="#263238"/>
<path d="M392.409 263.054C392.409 263.054 403.217 265.552 418.167 259.308C418.167 259.308 411.731 273.177 391.413 268.242L392.409 263.054Z" fill="#EB996E"/>
<path d="M396.601 236.336C397.238 235.75 398.011 235.334 398.85 235.124C399.689 234.914 400.567 234.918 401.404 235.135C402.022 235.288 402.604 235.561 403.115 235.941C403.626 236.32 404.057 236.797 404.382 237.345C404.694 237.872 404.835 238.483 404.786 239.094C404.736 239.704 404.499 240.285 404.106 240.755C403.578 241.201 402.928 241.478 402.24 241.549C401.552 241.619 400.859 241.481 400.252 241.151C398.977 240.487 397.849 239.572 396.937 238.461C396.644 238.19 396.408 237.864 396.241 237.501C396.158 237.328 396.129 237.135 396.159 236.946C396.189 236.757 396.276 236.582 396.409 236.444" fill="#EB996E"/>
<path d="M404.466 232.493C404.01 232.397 403.553 235.483 400.599 237.296C397.645 239.11 394.403 238.281 394.319 238.713C394.247 238.906 394.967 239.422 396.348 239.662C398.15 239.947 399.995 239.59 401.56 238.653C403.062 237.75 404.155 236.299 404.61 234.607C404.91 233.322 404.682 232.505 404.466 232.493Z" fill="#263238"/>
<path d="M408.177 206.639C408.345 207.456 411.239 207.504 414.505 208.392C417.771 209.281 420.353 210.578 420.893 209.953C421.134 209.653 420.773 208.861 419.801 207.948C418.483 206.82 416.925 206.007 415.246 205.57C413.567 205.133 411.811 205.084 410.11 205.426C408.789 205.738 408.117 206.255 408.177 206.639Z" fill="#263238"/>
<path d="M383.824 201.656C384.22 202.376 386.285 201.992 388.627 202.304C390.969 202.616 392.914 203.361 393.43 202.761C393.682 202.46 393.43 201.764 392.674 201.031C391.612 200.126 390.305 199.558 388.919 199.4C387.532 199.241 386.131 199.5 384.892 200.143C384.016 200.683 383.643 201.308 383.824 201.656Z" fill="#263238"/>
<path d="M374.769 196.841C378.24 202.136 389.263 198.858 395.916 195.22C399.391 197.436 403.594 198.21 407.63 197.376C411.667 196.541 415.219 194.165 417.531 190.752C421.337 195.556 429.083 193.995 431.941 188.531C434.799 183.067 433.142 175.538 429.299 170.759C425.456 165.979 419.764 163.554 414.168 162.533C400.899 160.131 386.453 165.223 378.516 177.219C374.853 182.755 372.656 190.212 374.829 196.841" fill="#263238"/>
<path d="M411.443 164.418C411.443 164.658 408.309 164.058 403.385 164.874C396.99 165.938 391.128 169.093 386.718 173.845C382.566 178.82 379.821 184.815 378.768 191.209C378.403 193.874 378.263 196.565 378.348 199.254C378.092 198.56 377.942 197.831 377.904 197.093C377.694 195.095 377.726 193.079 378 191.089C378.87 184.447 381.63 178.195 385.949 173.076C390.515 168.132 396.666 164.942 403.337 164.058C405.328 163.79 407.343 163.758 409.341 163.962C410.061 164.005 410.77 164.159 411.443 164.418Z" fill="#455A64"/>
<path d="M393.502 189.107C393.304 188.499 393.215 187.861 393.238 187.222C393.175 185.48 393.357 183.738 393.779 182.046C394.421 179.209 395.637 176.534 397.352 174.185C399.067 171.836 401.245 169.863 403.751 168.387C406.258 166.911 409.039 165.964 411.925 165.604C414.812 165.243 417.741 165.477 420.533 166.291C422.219 166.753 423.834 167.44 425.336 168.333C425.916 168.634 426.433 169.041 426.862 169.533C424.767 168.542 422.589 167.739 420.353 167.132C414.914 165.746 409.149 166.567 404.312 169.415C399.476 172.262 395.962 176.906 394.535 182.334C393.358 186.345 393.731 189.107 393.502 189.107Z" fill="#455A64"/>
<path d="M425.336 183.343C424.034 188.043 423.285 192.879 423.103 197.753C422.923 202.654 424.446 207.466 427.414 211.371C432.049 216.954 439.782 218.66 446.915 220.017C450.731 210.498 451.881 200.119 450.241 189.996C449.425 185.084 447.84 180.077 444.381 176.498C441.81 173.962 438.47 172.35 434.884 171.915C431.299 171.481 427.67 172.248 424.568 174.097" fill="#263238"/>
<path d="M429.299 206.591C427.426 210.65 427.558 215.345 428.206 219.8C428.855 224.256 429.984 228.615 429.936 233.082C429.888 237.549 428.471 242.292 424.964 245.09C423.901 245.799 422.904 246.603 421.986 247.492C421.533 247.943 421.23 248.523 421.118 249.152C421.006 249.782 421.091 250.431 421.362 251.01C422.034 252.091 424.064 252.067 424.352 250.83L424.172 251.142C423.995 251.441 423.9 251.782 423.896 252.129C423.892 252.477 423.979 252.819 424.15 253.122C424.32 253.425 424.567 253.678 424.866 253.855C425.165 254.032 425.505 254.128 425.853 254.132C427.08 254.074 428.282 253.764 429.385 253.223C430.488 252.682 431.468 251.921 432.265 250.986C434.559 248.332 435.471 244.766 436.072 241.379C437.921 230.776 437.561 219.764 440.491 209.425" fill="#263238"/>
<path d="M388.578 276.228C389.405 279.84 391 283.232 393.254 286.173C395.507 289.114 398.368 291.536 401.64 293.275C404.913 295.013 408.521 296.027 412.22 296.247C415.919 296.468 419.622 295.89 423.078 294.552C429.299 292.151 434.318 287.467 439.157 282.892C440.024 288.101 439.785 293.433 438.458 298.543C437.13 303.653 434.743 308.427 431.452 312.556C428.16 316.684 424.037 320.074 419.351 322.507C414.665 324.939 409.52 326.359 404.249 326.675C396.288 327.155 387.738 324.729 382.73 318.521C379.236 314.198 377.831 308.47 377.927 302.91C378.17 297.341 379.23 291.839 381.073 286.579C382.49 282.04 384.736 276.972 389.323 275.711" fill="#FF931E"/>
<path d="M445.547 220.329C450.35 222.911 452.92 228.314 453.844 233.646C454.769 238.978 454.301 244.454 454.529 249.845C454.757 255.237 455.79 260.905 459.212 265.096C462.815 269.563 468.519 271.677 473.622 274.402C484.814 280.407 494.036 290.65 497.399 302.922C500.761 315.195 497.711 329.341 488.524 338.167C480.119 346.164 467.99 348.974 456.414 348.974C448.164 348.974 439.098 347.197 433.947 340.748C428.795 334.3 429.143 325.258 430.945 317.308C432.746 309.359 436.048 301.637 436.18 293.484C434.947 298.531 432.798 303.31 429.84 307.581C428.987 308.782 427.534 310.103 426.237 309.407C424.94 308.71 425.337 306.465 426.009 304.964C435.952 282.832 432.494 238.221 438.39 213.784" fill="#263238"/>
<path d="M437.357 217.819C437.657 217.723 449.269 215.525 447.768 227.005C446.267 238.485 435.063 234.619 435.087 234.295C435.111 233.97 437.357 217.819 437.357 217.819Z" fill="#FFBE9D"/>
<path d="M439.158 230.404C439.158 230.404 439.338 230.56 439.662 230.764C440.111 231.028 440.644 231.11 441.151 230.992C442.424 230.704 443.697 228.903 444.021 226.849C444.173 225.866 444.107 224.862 443.829 223.907C443.769 223.534 443.618 223.181 443.39 222.88C443.161 222.579 442.863 222.338 442.52 222.178C442.305 222.102 442.07 222.099 441.852 222.171C441.635 222.243 441.447 222.384 441.319 222.574C441.127 222.874 441.163 223.115 441.103 223.127C441.043 223.139 440.887 222.898 441.031 222.442C441.134 222.165 441.329 221.932 441.584 221.782C441.762 221.674 441.961 221.605 442.168 221.578C442.374 221.551 442.584 221.568 442.785 221.626C443.244 221.781 443.656 222.051 443.982 222.41C444.308 222.77 444.536 223.207 444.646 223.679C445.001 224.738 445.096 225.866 444.922 226.969C444.55 229.275 443.085 231.28 441.319 231.544C441 231.596 440.673 231.574 440.363 231.48C440.053 231.387 439.768 231.224 439.53 231.004C439.146 230.68 439.122 230.416 439.158 230.404Z" fill="#EB996E"/>
<path d="M376.715 300.965C377.278 299.739 377.928 298.555 378.66 297.422C380.334 294.652 381.722 291.719 382.803 288.668C383.853 285.615 384.206 282.365 383.836 279.158C383.602 277.841 383.297 276.538 382.923 275.255C383.149 275.547 383.324 275.876 383.44 276.228C383.831 277.148 384.113 278.111 384.28 279.098C384.785 282.375 384.484 285.726 383.403 288.86C382.314 291.957 380.85 294.909 379.044 297.65C378.372 298.707 377.844 299.548 377.399 300.112C376.955 300.677 376.751 300.989 376.715 300.965Z" fill="#263238"/>
<path d="M382.562 287.72C382.394 287.72 382.07 286.735 381.037 286.051C380.004 285.366 378.972 285.366 378.948 285.186C378.924 285.006 379.2 284.982 379.668 284.97C380.289 284.975 380.893 285.172 381.397 285.534C381.906 285.889 382.298 286.386 382.526 286.963C382.682 287.407 382.646 287.696 382.562 287.72Z" fill="#FAFAFA"/>
<path d="M389.984 287.696C389.084 286.684 388.095 285.756 387.03 284.922C385.847 284.26 384.6 283.72 383.307 283.313C384.022 283.214 384.75 283.259 385.447 283.447C386.145 283.635 386.797 283.961 387.366 284.405C388.635 285.118 389.574 286.299 389.984 287.696Z" fill="#FAFAFA"/>
<path d="M394.643 312.06C394.671 310.405 394.905 308.759 395.34 307.161C395.571 305.511 396.011 303.897 396.648 302.358C396.621 304.017 396.387 305.667 395.952 307.269C395.719 308.915 395.279 310.525 394.643 312.06Z" fill="#FAFAFA"/>
<path d="M413.376 315.735C413.076 312.288 413.184 308.817 413.7 305.396C414.017 308.842 413.908 312.315 413.376 315.735Z" fill="#FAFAFA"/>
<path d="M30.8982 369.1L12.3813 449.736L51.5405 449.856L69.625 378.947L30.8982 369.1Z" fill="#B78876"/>
<path d="M223.199 270.031C219.477 265.048 215.202 260.256 213.244 254.348C212.296 251.49 211.923 248.464 210.915 245.63C209.906 242.796 208.069 240.034 205.259 238.966C202.449 237.897 200.311 238.966 198.486 240.983L185.049 280.286L192.794 310.475C200.528 308.734 210.206 306.669 217.435 303.414C224.664 300.16 229.444 294.948 229.948 287.035C230.296 280.827 226.922 275.027 223.199 270.031Z" fill="#263238"/>
<path d="M100.919 263.09C100.919 263.09 54.2062 283.421 48.3702 292.595C42.5341 301.769 23.3208 367.179 23.3208 367.179L72.5549 381.589L71.7144 449.688H192.398L191.401 329.605L176.271 263.247C176.271 263.247 149.624 261.529 147.151 260.317C144.677 259.104 100.919 263.09 100.919 263.09Z" fill="#FF931E"/>
<path d="M266.922 96.643C267.306 93.8931 265.373 90.867 266.766 88.4533C267.687 87.2094 269.004 86.3159 270.5 85.9196C271.225 85.5882 272.009 85.4044 272.806 85.3792C273.203 85.3728 273.594 85.4832 273.929 85.6966C274.264 85.9101 274.529 86.2173 274.691 86.58C274.778 87.0392 274.737 87.5134 274.574 87.9514C274.412 88.3894 274.132 88.7746 273.767 89.0657C273.035 89.6407 272.42 90.3498 271.953 91.1552C271.627 93.1317 271.78 95.1577 272.398 97.0633C273.998 101.256 275.325 105.548 276.373 109.912" fill="#B78876"/>
<path d="M257.063 97.5792C257.231 93.4123 260.665 76.997 260.786 72.8301C263.608 73.6947 265.241 76.6968 265.769 79.6028C266.297 82.5088 266.021 85.4989 266.526 88.4049C267.198 92.3076 269.227 95.826 271.269 99.2124C273.31 102.599 275.448 106.045 276.372 109.888C277.297 113.73 280.779 123.721 278.066 126.603" fill="#B78876"/>
<path d="M256.282 125.679L239.579 205.03C238.99 208.632 176.271 263.33 176.271 263.33L188.652 312.792L270.308 232.901C276.204 226.598 279.413 218.246 279.254 209.617L277.861 135.165L256.282 125.679Z" fill="#B78876"/>
<path d="M253.425 98.0839L256.283 125.703L277.898 135.214C277.898 135.214 278.162 133.256 279.099 123.686C280.119 113.142 268.784 108.615 263.728 100.87C261.567 97.5436 262.131 91.4193 260.462 83.8301C260.27 82.9535 259.069 77.6458 258.42 74.7998C258.079 73.2183 257.153 71.8242 255.827 70.8971C254.842 70.2486 253.737 69.9244 252.933 70.8971C252.128 71.8698 253.425 98.0839 253.425 98.0839Z" fill="#B78876"/>
<path d="M266.922 130.266C269.324 128.189 269.9 124.466 268.999 121.38C267.897 118.341 266.157 115.573 263.896 113.262C261.638 110.957 259.74 108.326 258.264 105.457C257.351 103.391 256.919 101.11 255.862 99.0805C254.806 97.0511 253.016 95.1898 250.759 95.1057C252.572 106.526 252.524 113.118 256.235 125.631" fill="#B78876"/>
<path d="M253.004 108.147C253.004 108.147 252.92 107.835 252.788 107.234C252.656 106.634 252.428 105.637 252.212 104.616C251.695 102.215 251.011 99.1526 250.303 95.6341L250.23 95.2979H250.579C251.318 95.2709 252.055 95.3908 252.748 95.6505C253.44 95.9102 254.074 96.3046 254.614 96.811C256.262 98.38 257.436 100.382 258 102.587C258.479 104.301 259.11 105.969 259.885 107.57C260.473 108.623 261.182 109.602 261.999 110.488C262.297 110.829 262.54 111.214 262.719 111.629C262.39 111.325 262.085 110.995 261.806 110.645C260.913 109.8 260.137 108.839 259.501 107.787C258.653 106.18 257.961 104.495 257.435 102.755C256.877 100.66 255.756 98.7582 254.193 97.2553C253.219 96.3413 251.926 95.8455 250.591 95.8743L250.879 95.5141C252.332 102.743 253.269 108.159 253.004 108.147Z" fill="#7C5142"/>
<path d="M262.72 101.122C261.848 97.4072 261.182 93.6469 260.726 89.8584C260.059 86.0998 259.598 82.3075 259.345 78.4985C260.223 82.2163 260.889 85.981 261.339 89.7744C262.005 93.529 262.466 97.3173 262.72 101.122Z" fill="#7C5142"/>
<path d="M269.6 102.059C269.6 102.059 269.684 102.179 269.756 102.479H269.576C268.683 99.9097 267.953 97.2867 267.39 94.6255C266.874 92.3079 266.502 90.1944 266.274 88.6213C266.088 87.7984 266.015 86.9541 266.057 86.1116C266.238 86.1116 266.97 89.8462 268.003 94.5174C268.831 98.252 269.6 101.398 269.756 102.455H269.576C269.564 102.203 269.564 102.059 269.6 102.059Z" fill="#7C5142"/>
<path d="M273.863 117.273C273.767 117.273 273.335 116.649 272.47 115.724C270.186 113.297 267.085 111.8 263.764 111.521C263.069 111.527 262.375 111.483 261.687 111.389C262.351 111.131 263.065 111.025 263.776 111.077C265.507 111.099 267.211 111.5 268.77 112.254C270.328 113.007 271.702 114.093 272.794 115.436C273.286 115.959 273.651 116.587 273.863 117.273Z" fill="#7C5142"/>
<path d="M258.24 127.864C257.646 126.831 257.167 125.736 256.811 124.598C255.824 121.904 254.998 119.153 254.337 116.36C253.665 113.591 253.16 110.784 252.824 107.955C252.628 106.764 252.555 105.557 252.608 104.352C252.909 105.499 253.126 106.667 253.256 107.846C253.617 109.996 254.169 112.974 254.938 116.252C255.706 119.531 256.571 122.401 257.231 124.49C257.645 125.59 257.982 126.718 258.24 127.864Z" fill="#7C5142"/>
<path d="M161.609 264.759C162.679 263.121 164.339 261.957 166.244 261.51C168.149 261.063 170.153 261.366 171.84 262.358C180.655 255.153 189.673 248.164 198.487 240.995C195.605 255.405 193.684 275.495 200.132 288.68C200.132 288.68 208.262 303.786 221.207 301.481L209.655 312.793L191.438 329.688" fill="#FF931E"/>
<path d="M158.751 271.484C158.765 269.551 159.354 267.665 160.444 266.068C161.365 264.363 162.768 262.968 164.479 262.058C161.766 264.635 159.788 267.889 158.751 271.484Z" fill="#263238"/>
<path d="M168.273 280.37C167.773 279.57 167.431 278.682 167.265 277.753C166.746 275.526 166.684 273.217 167.083 270.965C167.481 268.713 168.331 266.566 169.582 264.652C170.059 263.833 170.687 263.112 171.431 262.526C171.515 262.598 170.819 263.415 169.966 264.928C168.857 266.842 168.089 268.935 167.697 271.112C167.321 273.294 167.321 275.523 167.697 277.705C167.997 279.266 168.369 280.274 168.273 280.37Z" fill="#263238"/>
<path d="M212.392 311.208C211.506 311.759 210.537 312.164 209.522 312.408C206.748 313.077 203.845 312.99 201.116 312.156C197.074 310.873 193.538 308.353 191.005 304.951C187.963 300.78 185.91 295.972 185.001 290.89C183.305 281.738 182.821 272.404 183.56 263.126C183.836 259.524 184.233 256.714 184.569 254.721C184.725 253.736 184.869 252.979 184.977 252.463C185.014 252.197 185.079 251.935 185.169 251.682C185.178 251.952 185.153 252.223 185.097 252.487L184.809 254.757C184.557 256.726 184.22 259.56 184.004 263.162C183.39 272.4 183.931 281.678 185.613 290.782C186.513 295.732 188.502 300.421 191.438 304.507C193.866 307.873 197.289 310.393 201.224 311.712C203.882 312.568 206.716 312.721 209.45 312.156C210.451 311.906 211.434 311.589 212.392 311.208Z" fill="#FAFAFA"/>
<path d="M72.7834 401.859C72.6153 401.859 72.4712 384.783 72.4712 363.732C72.4712 342.682 72.6153 325.606 72.7834 325.606C72.9515 325.606 73.0956 342.67 73.0956 363.732C73.0956 384.795 72.9635 401.859 72.7834 401.859Z" fill="#263238"/>
<path d="M71.8227 312.433C71.6906 312.433 71.7266 310.727 71.1382 308.073C70.7876 306.523 70.2848 305.01 69.6372 303.558C68.8301 301.792 67.8358 300.117 66.6711 298.563C65.474 297.03 64.1175 295.63 62.6243 294.384C61.3949 293.379 60.0719 292.494 58.6736 291.742C56.2719 290.481 54.6027 290.061 54.6388 289.941C55.0486 289.962 55.4532 290.043 55.8396 290.181C56.2947 290.294 56.7404 290.443 57.1725 290.625C57.7616 290.828 58.3355 291.073 58.8897 291.358C60.3323 292.064 61.6933 292.926 62.9485 293.928C64.4901 295.187 65.8875 296.612 67.1154 298.179C68.3139 299.773 69.3214 301.502 70.1175 303.33C70.7715 304.825 71.2587 306.388 71.5705 307.989C71.6937 308.6 71.7779 309.218 71.8227 309.839C71.8788 310.305 71.9029 310.774 71.8947 311.244C71.9165 311.641 71.8924 312.04 71.8227 312.433Z" fill="#263238"/>
<path d="M154.068 262.562C154.168 262.895 154.236 263.237 154.272 263.583C154.434 264.556 154.538 265.539 154.584 266.525C154.728 270.168 154.22 273.808 153.083 277.272C151.391 282.439 148.392 287.08 144.377 290.746C139.342 295.146 133.018 297.8 126.35 298.311C119.681 298.822 113.027 297.162 107.38 293.579C102.865 290.559 99.2086 286.422 96.7644 281.571C95.1271 278.315 94.0821 274.794 93.6782 271.172C93.5807 270.19 93.5366 269.204 93.5461 268.218C93.5172 267.874 93.5172 267.529 93.5461 267.185C93.6025 267.522 93.6306 267.864 93.6302 268.206C93.661 269.186 93.7411 270.164 93.8704 271.136C94.3622 274.706 95.4587 278.166 97.1126 281.367C99.5627 286.12 103.188 290.167 107.644 293.123C113.189 296.61 119.706 298.227 126.237 297.736C132.769 297.245 138.971 294.673 143.933 290.397C147.904 286.807 150.889 282.26 152.603 277.188C153.754 273.773 154.322 270.188 154.284 266.585C154.284 265.312 154.176 264.327 154.08 263.655C153.984 262.982 154.056 262.574 154.068 262.562Z" fill="#263238"/>
<path d="M71.7509 366.746C71.7509 366.914 61.772 363.78 49.5955 359.757C37.4191 355.735 27.5843 352.336 27.6443 352.168C27.7044 352 37.6112 355.134 49.7997 359.157C61.9881 363.18 71.7989 366.578 71.7509 366.746Z" fill="#FAFAFA"/>
<path d="M190.237 350.079C190.237 350.259 163.759 350.511 131.096 350.643C98.4337 350.775 71.9434 350.751 71.9434 350.643C71.9434 350.535 98.4217 350.211 131.096 350.079C163.771 349.947 190.237 349.911 190.237 350.079Z" fill="#FAFAFA"/>
<path d="M190.838 360.538C190.838 360.706 164.215 360.85 131.397 360.85C98.5778 360.85 71.9434 360.706 71.9434 360.538C71.9434 360.37 98.5538 360.226 131.397 360.226C164.239 360.226 190.838 360.358 190.838 360.538Z" fill="#FAFAFA"/>
<path d="M174.53 373.243C174.449 373.577 174.336 373.902 174.194 374.215C173.929 374.888 173.569 375.8 173.125 376.953L172.332 378.923C172.02 379.643 171.648 380.4 171.264 381.228C170.471 382.861 169.654 384.759 168.514 386.752L166.784 389.898C166.184 390.991 165.464 392.072 164.767 393.225C163.398 395.542 161.717 397.872 159.964 400.357C156.064 405.64 151.769 410.617 147.115 415.248C142.394 419.814 137.332 424.013 131.972 427.809C129.451 429.49 127.085 431.135 124.767 432.456C123.566 433.128 122.51 433.825 121.405 434.413L118.187 436.07C116.181 437.163 114.26 437.956 112.615 438.712C111.786 439.072 111.018 439.433 110.297 439.733L108.304 440.489L105.554 441.51C105.237 441.646 104.907 441.751 104.569 441.822C104.869 441.653 105.182 441.508 105.506 441.39L108.22 440.261L110.177 439.457C110.898 439.144 111.654 438.772 112.471 438.388C114.104 437.607 116.001 436.791 117.983 435.674L121.141 433.993C122.234 433.392 123.326 432.684 124.479 432.011C126.797 430.679 129.138 429.021 131.684 427.34C142.38 419.793 151.788 410.568 159.543 400.021C161.285 397.56 162.978 395.218 164.347 392.948C165.055 391.808 165.788 390.739 166.4 389.658L168.141 386.536C169.342 384.579 170.147 382.693 170.963 381.072C171.36 380.256 171.756 379.511 172.08 378.803C172.404 378.094 172.669 377.446 172.921 376.857C173.413 375.728 173.809 374.84 174.122 374.167C174.242 373.852 174.378 373.544 174.53 373.243Z" fill="#263238"/>
<g opacity="0.3">
<path d="M169.655 383.642C161.585 393.465 153.131 400.586 141.279 405.173C135.599 407.358 129.655 408.859 124.155 411.465C118.655 414.071 113.468 417.998 110.946 423.558C109.037 427.856 109.961 434.365 114.548 435.302C116.331 435.52 118.138 435.242 119.772 434.497C143.248 425.983 158.679 404.476 169.583 383.642" fill="black"/>
</g>
<path d="M85.6802 169.99C80.6127 173.965 80.2764 181.398 80.5286 187.834C80.7808 194.271 80.8528 201.596 76.1576 206.039C72.3149 209.701 65.5903 211.058 64.4855 216.258C64.2059 217.483 64.3177 218.765 64.8051 219.923C65.2926 221.081 66.1311 222.057 67.2026 222.714C68.2741 223.37 69.5246 223.674 70.7778 223.582C72.031 223.49 73.2238 223.007 74.1882 222.202C72.5551 226.273 73.2996 231.484 76.77 234.21C80.2404 236.936 86.3046 235.639 87.5775 231.46C87.3808 232.152 87.3265 232.876 87.418 233.589C87.5095 234.302 87.7448 234.989 88.1098 235.608C88.4747 236.227 88.9616 236.766 89.541 237.191C90.1204 237.617 90.7801 237.92 91.4802 238.083C92.1803 238.246 92.9062 238.265 93.6139 238.138C94.3215 238.012 94.9962 237.744 95.5969 237.349C96.1976 236.954 96.712 236.442 97.1087 235.842C97.5054 235.243 97.7762 234.569 97.9047 233.862" fill="#263238"/>
<path d="M159.22 216.594C159.462 217.437 159.874 218.222 160.432 218.9C160.989 219.577 161.68 220.133 162.461 220.532C163.243 220.931 164.098 221.165 164.974 221.22C165.849 221.275 166.727 221.149 167.552 220.85C168.377 220.552 169.132 220.086 169.769 219.484C170.407 218.881 170.914 218.154 171.259 217.347C171.603 216.54 171.779 215.671 171.773 214.794C171.768 213.917 171.583 213.05 171.228 212.247C170.232 209.749 167.626 207.864 167.566 205.186C167.41 201.944 170.82 199.794 173.81 198.533C176.8 197.273 180.307 195.591 180.775 192.385C181.243 189.179 178.565 186.717 176.332 184.52C174.098 182.322 171.949 178.984 173.522 176.27C174.327 174.889 175.924 174.145 176.956 172.932C179.286 170.242 178.349 165.727 175.659 163.433C172.97 161.14 169.115 160.611 165.596 161.031C162.078 161.452 158.716 162.773 155.269 163.625C149.554 165.005 143.615 165.183 137.828 164.15C132.04 163.116 126.53 160.893 121.646 157.621" fill="#263238"/>
<path d="M89.1269 194.751L101.484 266.368C101.995 269.366 103.096 272.232 104.721 274.802C106.346 277.373 108.463 279.596 110.951 281.344C113.439 283.092 116.249 284.33 119.218 284.988C122.187 285.645 125.257 285.708 128.25 285.173C133.922 284.158 139.008 281.055 142.506 276.477C146.004 271.898 147.662 266.176 147.151 260.436C146.587 254.084 146.106 248.824 146.106 248.824C146.106 248.824 164.047 244.213 162.498 226.008C161.741 217.194 158.727 199.17 155.797 182.886C154.278 174.459 149.642 166.912 142.811 161.747C135.979 156.583 127.454 154.179 118.932 155.015L117.178 155.183C112.712 155.883 108.431 157.471 104.589 159.852C100.746 162.233 97.4189 165.36 94.8043 169.048C92.1896 172.736 90.3402 176.911 89.3651 181.325C88.3901 185.739 88.3091 190.304 89.1269 194.751Z" fill="#B78876"/>
<path d="M151.966 194.643C152.044 195.321 151.852 196.002 151.432 196.539C151.012 197.076 150.397 197.426 149.72 197.513C149.393 197.573 149.056 197.566 148.731 197.494C148.406 197.421 148.098 197.284 147.827 197.09C147.556 196.896 147.327 196.65 147.153 196.366C146.979 196.081 146.864 195.765 146.814 195.436C146.736 194.758 146.928 194.077 147.348 193.54C147.769 193.003 148.384 192.653 149.06 192.566C149.388 192.506 149.724 192.512 150.05 192.585C150.375 192.657 150.682 192.795 150.953 192.988C151.224 193.182 151.454 193.429 151.628 193.713C151.802 193.997 151.917 194.313 151.966 194.643Z" fill="#263238"/>
<path d="M152.76 192.157C152.471 192.517 150.358 191.256 147.56 191.533C144.762 191.809 142.841 193.418 142.505 193.106C142.348 192.962 142.613 192.325 143.441 191.581C144.572 190.621 145.974 190.037 147.452 189.912C148.906 189.767 150.369 190.086 151.631 190.824C152.555 191.401 152.904 191.989 152.76 192.157Z" fill="#263238"/>
<path d="M124.587 197.849C124.656 198.525 124.458 199.202 124.037 199.735C123.616 200.268 123.004 200.617 122.33 200.707C122.002 200.765 121.666 200.758 121.342 200.684C121.017 200.611 120.71 200.473 120.44 200.28C120.169 200.086 119.94 199.841 119.765 199.557C119.591 199.274 119.475 198.958 119.424 198.63C119.352 197.953 119.546 197.275 119.965 196.74C120.384 196.204 120.996 195.853 121.669 195.76C121.999 195.701 122.336 195.709 122.662 195.783C122.988 195.857 123.296 195.996 123.568 196.19C123.84 196.385 124.07 196.632 124.245 196.917C124.42 197.202 124.537 197.519 124.587 197.849Z" fill="#263238"/>
<path d="M125.296 195.351C125.008 195.724 122.894 194.463 120.096 194.739C117.298 195.015 115.389 196.624 115.041 196.312C114.885 196.168 115.149 195.531 115.977 194.787C117.111 193.831 118.511 193.248 119.988 193.118C121.443 192.967 122.908 193.287 124.167 194.03C125.092 194.607 125.392 195.195 125.296 195.351Z" fill="#263238"/>
<path d="M137.484 215.129C137.484 214.961 139.165 214.492 141.939 213.856C142.648 213.712 143.32 213.508 143.392 213.003C143.372 212.263 143.134 211.544 142.708 210.938L140.054 205.702C136.367 198.233 133.63 192.073 133.93 191.929C134.23 191.785 137.46 197.717 141.135 205.138L143.693 210.422C144.225 211.238 144.45 212.217 144.329 213.184C144.257 213.453 144.123 213.702 143.937 213.911C143.751 214.119 143.52 214.281 143.26 214.384C142.872 214.526 142.469 214.623 142.059 214.673C140.559 215.01 139.022 215.163 137.484 215.129Z" fill="#263238"/>
<path d="M124.947 184.304C124.743 185.096 121.921 185 118.679 185.721C115.437 186.441 112.855 187.594 112.363 186.921C112.135 186.621 112.519 185.853 113.564 185.012C114.897 183.959 116.461 183.235 118.127 182.899C119.789 182.533 121.514 182.57 123.158 183.007C124.371 183.403 125.032 183.943 124.947 184.304Z" fill="#263238"/>
<path d="M150.946 184.148C150.513 184.832 148.544 184.364 146.142 184.556C143.741 184.748 141.903 185.409 141.339 184.784C141.111 184.484 141.339 183.811 142.156 183.127C143.231 182.277 144.545 181.781 145.914 181.71C147.278 181.599 148.643 181.918 149.817 182.623C150.79 183.199 151.126 183.823 150.946 184.148Z" fill="#263238"/>
<path d="M106.947 172.848L106.851 172.944C104.175 175.512 102.592 179.013 102.432 182.719C102.432 182.851 102.432 182.983 102.432 183.091C102.228 188.362 102.864 193.634 102.612 198.894C102.36 204.153 101.075 209.605 97.5807 213.556C96.1518 215.177 93.4619 216.462 91.9969 214.865C91.4871 214.192 91.1789 213.388 91.1083 212.547C88.9227 200.107 84.4076 189.311 83.1588 176.186C82.9796 174.431 83.2229 172.658 83.8684 171.016C84.5139 169.374 85.5428 167.911 86.8693 166.747C89.4151 164.502 92.5733 162.136 95.7675 163.289C98.9617 164.442 103.465 169.762 106.071 171.947" fill="#263238"/>
<path d="M96.0679 202.388C95.7437 202.292 83.1949 199.915 84.8041 212.319C86.4132 224.724 98.5416 220.557 98.5176 220.197C98.4936 219.836 96.0679 202.388 96.0679 202.388Z" fill="#B78876"/>
<path d="M94.1704 215.993C94.1704 215.993 93.9783 216.174 93.63 216.378C93.3916 216.524 93.1267 216.621 92.8506 216.664C92.5745 216.707 92.2925 216.696 92.0209 216.63C90.652 216.318 89.271 214.372 88.9228 212.151C88.7523 211.088 88.822 210.001 89.1269 208.969C89.1953 208.566 89.3598 208.185 89.6064 207.859C89.8531 207.533 90.1746 207.271 90.5439 207.095C90.7836 207.001 91.0483 206.993 91.2934 207.072C91.5385 207.151 91.7488 207.312 91.8888 207.528C92.105 207.852 92.0569 208.116 92.129 208.128C92.201 208.14 92.3692 207.888 92.201 207.384C92.0924 207.084 91.8849 206.829 91.6126 206.663C91.2464 206.461 90.8174 206.406 90.4118 206.507C89.9143 206.675 89.4679 206.967 89.1149 207.356C88.7619 207.745 88.5139 208.217 88.3944 208.728C88.0042 209.887 87.9012 211.124 88.0942 212.331C88.5025 214.817 90.0876 216.99 91.9489 217.278C92.2947 217.334 92.6487 217.311 92.9838 217.209C93.319 217.107 93.6263 216.929 93.8822 216.69C94.1704 216.294 94.1704 216.005 94.1704 215.993Z" fill="#7C5142"/>
<path d="M95.5154 165.258C91.9129 160.575 99.6703 152.602 105.626 150.068C111.583 147.534 119.976 149.732 126.293 151.161C130.267 152.073 134.29 153.478 138.301 152.914C140.99 152.377 143.585 151.442 145.998 150.14C148.41 148.817 151.066 147.999 153.804 147.738C155.175 147.634 156.549 147.907 157.777 148.527C159.004 149.147 160.039 150.091 160.769 151.257C162.042 153.658 160.901 157.261 158.235 157.921C159.055 157.357 159.999 157.001 160.988 156.882C161.976 156.763 162.978 156.886 163.908 157.241C164.838 157.595 165.668 158.17 166.327 158.915C166.986 159.661 167.454 160.556 167.691 161.522C167.928 162.489 167.927 163.499 167.688 164.465C167.449 165.431 166.978 166.324 166.317 167.069C165.657 167.813 164.825 168.386 163.894 168.737C162.963 169.089 161.961 169.21 160.973 169.089C162.618 167.576 165.548 169.533 165.548 171.755C165.548 173.977 163.687 175.802 161.741 176.895C156.77 179.68 150.646 179.536 145.098 178.251C139.55 176.967 134.29 174.649 128.766 173.208C123.243 171.767 113.984 169.173 108.821 171.587C105.026 173.352 102.744 178.36 100.415 177.591C99.3124 177.133 98.3328 176.424 97.5549 175.518C96.7769 174.613 96.2223 173.538 95.9357 172.379C95.3992 170.05 95.2451 167.649 95.4794 165.27" fill="#263238"/>
<path d="M96.2236 204.514C96.3784 211.109 97.1341 217.677 98.4812 224.135C99.8275 230.616 102.902 236.612 107.379 241.487C113.384 247.647 121.261 253.495 129.787 254.948C139.093 256.486 150.477 254.54 158.054 248.944C161.657 246.29 164.263 240.538 163.146 236.191C164.671 235.472 165.977 234.358 166.927 232.964C167.877 231.571 168.437 229.949 168.55 228.266C168.742 224.904 166.688 220.701 164.035 220.256C166.028 219.92 166.604 216.75 165.848 214.961C165.091 213.172 162.462 212.631 160.468 213.015C158.498 213.531 156.665 214.474 155.1 215.777C153.545 217.082 151.789 218.128 149.901 218.875C143.464 220.965 136.944 215.273 130.183 215.549C124.071 215.789 118.631 220.869 112.567 220.016C110.884 219.695 109.286 219.024 107.88 218.045C106.473 217.067 105.288 215.803 104.401 214.336C102.528 211.466 103.345 200.863 102.612 197.525" fill="#263238"/>
<g opacity="0.6">
<path d="M145.278 233.105C144.772 232.987 144.274 232.835 143.789 232.649C142.613 232.313 141.375 232.252 140.171 232.47C138.968 232.689 137.83 233.181 136.848 233.91C136.079 234.462 135.647 234.907 135.647 234.847C135.647 234.787 135.887 234.258 136.62 233.646C137.606 232.778 138.811 232.195 140.104 231.963C141.397 231.73 142.73 231.855 143.957 232.325C144.845 232.625 145.314 233.045 145.278 233.105Z" fill="#455A64"/>
</g>
<path d="M132.128 219.308C132.585 219.236 132.885 222.274 135.731 224.111C138.577 225.949 141.735 225.372 141.807 225.792C141.867 225.973 141.147 226.453 139.778 226.621C138.004 226.829 136.213 226.404 134.722 225.42C133.294 224.466 132.295 222.993 131.936 221.313C131.66 220.088 131.924 219.308 132.128 219.308Z" fill="white"/>
<path d="M123.099 252.919C123.37 252.981 123.633 253.078 123.879 253.207C124.396 253.4 125.152 253.664 126.149 253.94C128.973 254.703 131.872 255.158 134.795 255.297C136.796 255.415 138.804 255.375 140.799 255.177C143.1 254.971 145.373 254.528 147.584 253.856C150.024 253.127 152.351 252.064 154.5 250.698C156.837 249.288 158.877 247.436 160.505 245.246C162.439 242.667 163.299 239.439 162.906 236.24V235.987L163.122 235.891C164.616 235.197 165.909 234.135 166.881 232.805C167.352 232.178 167.755 231.501 168.082 230.788C168.369 230.095 168.547 229.362 168.61 228.614C168.741 227.262 168.548 225.897 168.047 224.634C167.545 223.37 166.751 222.245 165.728 221.349L165.548 221.205L165.692 221.025C166.234 220.338 166.587 219.521 166.718 218.656C166.848 217.791 166.751 216.906 166.437 216.09C166.19 215.47 165.817 214.909 165.341 214.442C164.866 213.975 164.298 213.612 163.675 213.376C162.879 213.058 162.017 212.938 161.165 213.028C160.577 213.1 160.288 213.208 160.276 213.172C160.554 213.04 160.849 212.951 161.153 212.907C162.294 212.723 163.464 212.92 164.48 213.47C165.497 214.02 166.303 214.89 166.773 215.946C167.129 216.826 167.249 217.784 167.123 218.725C166.996 219.666 166.628 220.558 166.052 221.313V220.989C167.149 221.926 168.007 223.11 168.554 224.445C169.102 225.779 169.322 227.225 169.199 228.662C169.137 229.488 168.947 230.298 168.634 231.064C168.286 231.817 167.864 232.533 167.373 233.202C166.351 234.627 164.978 235.765 163.387 236.504L163.567 236.144C164.049 239.506 163.186 242.923 161.165 245.654C159.489 247.909 157.388 249.814 154.981 251.262C152.788 252.657 150.406 253.729 147.908 254.444C145.659 255.12 143.344 255.555 141.003 255.741C138.969 255.902 136.925 255.902 134.891 255.741C131.945 255.557 129.032 255.029 126.209 254.168C125.443 253.93 124.694 253.645 123.963 253.315C123.662 253.215 123.372 253.082 123.099 252.919Z" fill="#455A64"/>
<path d="M68.6647 221.229C68.4349 221.166 68.219 221.06 68.0283 220.917C67.4872 220.512 67.0711 219.962 66.8275 219.332C66.4217 218.317 66.3337 217.203 66.5753 216.137C66.9542 214.726 67.8009 213.486 68.977 212.619C70.3586 211.578 71.8995 210.767 73.5401 210.217C75.3787 209.64 77.1564 208.883 78.8478 207.96C80.6277 206.833 82.0224 205.191 82.8466 203.253C83.7506 201.166 84.2322 198.921 84.2636 196.648C84.3596 191.953 83.2789 187.498 83.1588 183.355C83.0387 179.212 83.7592 175.345 85.6445 172.751C87.0566 170.672 89.2004 169.201 91.6487 168.633C92.3126 168.5 92.9926 168.468 93.6661 168.536C93.9011 168.564 94.1339 168.608 94.3626 168.669C93.4729 168.626 92.5814 168.695 91.7087 168.873C89.3489 169.496 87.3013 170.967 85.9567 173.004C84.2035 175.525 83.471 179.272 83.6872 183.331C83.9033 187.39 84.888 191.845 84.888 196.672C84.838 199.032 84.3196 201.359 83.3629 203.517C82.4801 205.562 80.9926 207.289 79.1 208.464C77.3622 209.405 75.5311 210.161 73.6362 210.722C72.0423 211.226 70.5385 211.98 69.1811 212.955C68.066 213.745 67.2496 214.887 66.8635 216.198C66.6018 217.197 66.6478 218.251 66.9956 219.224C67.3121 220.06 67.8998 220.766 68.6647 221.229Z" fill="#455A64"/>
<path d="M158.691 157.717C158.861 157.614 159.043 157.529 159.231 157.465C159.46 157.363 159.697 157.283 159.94 157.225C160.266 157.129 160.599 157.06 160.937 157.021C162.057 156.899 163.191 157.033 164.252 157.414C165.313 157.795 166.273 158.412 167.061 159.218C167.848 160.274 168.418 161.476 168.738 162.754C169.057 164.032 169.12 165.361 168.922 166.663C168.686 168.279 168.129 169.831 167.284 171.227C166.438 172.623 165.321 173.836 163.999 174.793C160.954 177.01 157.315 178.265 153.551 178.396C149.471 178.556 145.389 178.119 141.435 177.099C135.154 175.557 129.195 172.919 123.831 169.305C121.538 167.729 119.129 166.328 116.626 165.114C114.433 164.1 112.072 163.497 109.661 163.337C106.149 163.095 102.633 163.747 99.4419 165.234C97.1964 166.291 96.1276 167.204 96.0796 167.132C97.0658 166.283 98.1601 165.568 99.3339 165.006C102.544 163.419 106.11 162.691 109.685 162.893C112.174 163.02 114.617 163.611 116.89 164.634C119.43 165.845 121.874 167.246 124.203 168.825C129.529 172.367 135.428 174.959 141.639 176.486C145.532 177.508 149.553 177.961 153.575 177.831C157.225 177.703 160.755 176.5 163.722 174.373C164.996 173.462 166.077 172.307 166.901 170.975C167.726 169.644 168.278 168.162 168.526 166.615C168.737 165.364 168.699 164.083 168.412 162.846C168.126 161.609 167.597 160.442 166.857 159.41C166.112 158.63 165.203 158.023 164.196 157.635C163.189 157.247 162.109 157.086 161.033 157.165C160.239 157.288 159.456 157.473 158.691 157.717Z" fill="#455A64"/>
<path d="M152.326 147.138C152.325 148.083 152.133 149.018 151.761 149.888C150.72 152.277 148.911 154.25 146.622 155.495C145.076 156.395 143.379 157.005 141.614 157.297C139.592 157.592 137.537 157.592 135.514 157.297C131.227 156.756 126.796 155.075 122.137 153.622C117.478 152.169 112.782 151.305 108.652 152.193C104.991 152.993 101.676 154.926 99.177 157.717C97.4747 159.579 96.1711 161.769 95.3464 164.153C94.794 165.859 94.6859 166.855 94.6138 166.843C94.5844 166.604 94.5844 166.362 94.6138 166.123C94.71 165.432 94.8585 164.75 95.0581 164.081C95.8041 161.615 97.0785 159.341 98.7927 157.417C101.316 154.501 104.709 152.472 108.471 151.629C112.746 150.68 117.574 151.557 122.257 153.022C126.94 154.487 131.335 156.168 135.526 156.72C137.497 157.008 139.499 157.008 141.47 156.72C143.183 156.461 144.834 155.896 146.346 155.051C148.584 153.877 150.382 152.011 151.473 149.731C151.826 148.891 152.111 148.024 152.326 147.138Z" fill="#455A64"/>
<path d="M243.218 71.1374C243.11 71.2694 236.361 65.7816 228.136 58.8769C219.91 51.9721 213.341 46.2081 213.462 46.124C213.582 46.0399 220.318 51.4797 228.544 58.3965C236.77 65.3133 243.338 71.0053 243.218 71.1374Z" fill="#263238"/>
<path d="M277.466 62.9117C277.298 62.9117 276.613 52.2483 275.953 39.0752C275.292 25.9021 274.884 15.2147 275.052 15.2026C275.22 15.1906 275.905 25.866 276.577 39.0512C277.25 52.2363 277.634 62.9117 277.466 62.9117Z" fill="#263238"/>
<path d="M255.658 55.2863C255.49 55.2863 253.389 49.2821 250.951 41.6809C248.513 34.0796 246.676 27.9433 246.844 27.8953C247.012 27.8473 249.114 33.8995 251.551 41.4887C253.989 49.078 255.814 55.2383 255.658 55.2863Z" fill="#263238"/>
<path d="M236.217 82.4011C233.055 81.2887 229.963 79.9854 226.959 78.4984C223.866 77.1947 220.858 75.6987 217.953 74.0193C221.115 75.1317 224.207 76.435 227.211 77.922C230.302 79.2285 233.31 80.7244 236.217 82.4011Z" fill="#263238"/>
<path d="M204.647 68.6035C204.647 68.7716 203.626 68.7956 202.414 68.6035C201.201 68.4114 200.24 68.1952 200.264 68.0271C200.288 67.859 201.285 67.835 202.486 68.0271C203.686 68.2192 204.647 68.4354 204.647 68.6035Z" fill="#263238"/>
<path d="M247.625 20.1379C247.445 20.1379 247.312 19.1652 247.312 17.9524C247.312 16.7396 247.445 15.7549 247.625 15.7549C247.805 15.7549 247.937 16.7396 247.937 17.9524C247.937 19.1652 247.793 20.1379 247.625 20.1379Z" fill="#263238"/>
<path d="M319.927 37.0937C320.059 37.2138 314.511 43.5662 307.558 51.2875C300.605 59.0089 294.865 65.1812 294.709 65.0611C294.553 64.941 300.125 58.6006 307.078 50.8672C314.031 43.1339 319.807 36.9856 319.927 37.0937Z" fill="#263238"/>
<path d="M328.753 28.3635C328.873 28.4836 328.237 29.3242 327.324 30.2368C326.411 31.1495 325.583 31.7739 325.463 31.6538C325.343 31.5337 325.979 30.6932 326.892 29.7925C327.804 28.8919 328.633 28.1954 328.753 28.3635Z" fill="#263238"/>
<path d="M350.152 59.105C349.637 59.4759 349.09 59.8014 348.519 60.0777C347.45 60.6661 345.889 61.4946 343.944 62.4793C340.041 64.4487 334.577 67.0185 328.429 69.5762C322.281 72.134 316.601 74.1754 312.446 75.5804C310.38 76.2649 308.699 76.7812 307.522 77.1295C306.927 77.3458 306.311 77.5027 305.685 77.5978C306.253 77.3168 306.843 77.0838 307.45 76.9013L312.254 75.1601C316.36 73.6831 321.992 71.5576 328.141 69.0359C334.289 66.5141 339.753 63.9804 343.751 62.1191L348.411 59.9095C348.97 59.5987 349.552 59.3298 350.152 59.105Z" fill="#263238"/>
<path d="M332.596 88.6694C331.57 89.1264 330.5 89.4765 329.402 89.7142C327.409 90.2665 324.599 90.915 321.501 91.4554C318.402 91.9957 315.496 92.2959 313.467 92.44C312.356 92.5815 311.232 92.6017 310.117 92.5001C311.207 92.2488 312.315 92.0802 313.431 91.9957C315.472 91.7436 318.294 91.3593 321.393 90.7949C324.491 90.2305 327.289 89.6901 329.306 89.2578C330.382 88.9608 331.484 88.7638 332.596 88.6694Z" fill="#263238"/>
<path d="M348.555 85.7156C346.269 86.1319 343.925 86.1319 341.639 85.7156C343.925 85.2992 346.269 85.2992 348.555 85.7156Z" fill="#263238"/>
<path d="M258.3 383.642C259.99 383.93 261.605 384.554 263.05 385.478C264.494 386.402 265.737 387.607 266.706 389.022C268.619 391.879 269.851 395.137 270.309 398.544C271.401 405.077 269.636 412.498 267.21 418.67C260.546 415.536 256.991 407.779 255.442 403.72C253.041 397.32 252.428 384.243 258.24 383.642" fill="#FF931E"/>
<path d="M277.094 427.905C276.09 426.268 275.538 424.394 275.494 422.475C275.449 420.555 275.914 418.658 276.841 416.977C277.792 415.311 279.065 413.852 280.587 412.685C282.109 411.518 283.848 410.667 285.703 410.18C286.533 409.864 287.421 409.732 288.307 409.794C289.193 409.856 290.054 410.111 290.831 410.541C291.478 411.059 291.975 411.741 292.271 412.516C292.566 413.29 292.65 414.13 292.512 414.948C292.215 416.582 291.494 418.11 290.423 419.379C286.94 423.87 282.761 427.568 277.094 427.905Z" fill="#FF931E"/>
<path d="M275.412 448.607C275.273 448.164 275.197 447.703 275.184 447.238C275.1 446.35 274.98 445.053 274.896 443.456C274.592 439.278 274.847 435.078 275.652 430.967C276.514 426.814 278.476 422.97 281.332 419.835C282.213 418.915 283.206 418.108 284.286 417.434C284.647 417.157 285.054 416.946 285.487 416.809C284.122 417.834 282.845 418.97 281.669 420.207C279.005 423.346 277.171 427.104 276.337 431.135C275.542 435.191 275.22 439.325 275.376 443.456C275.492 445.17 275.504 446.891 275.412 448.607Z" fill="#263238"/>
<path d="M259.885 393.597C260.222 394.286 260.503 395.001 260.726 395.734C261.218 397.127 261.927 399.145 262.719 401.655C264.364 406.674 266.514 413.663 268.723 421.408C270.933 429.154 272.71 436.238 273.935 441.378C274.547 443.948 275.016 446.025 275.316 447.478C275.516 448.218 275.652 448.973 275.724 449.736C275.431 449.029 275.202 448.298 275.04 447.55C274.619 445.989 274.079 443.948 273.431 441.546C272.074 436.443 270.188 429.394 268.003 421.648C265.817 413.903 263.752 406.902 262.239 401.847L260.474 395.842C260.216 395.112 260.019 394.36 259.885 393.597Z" fill="#263238"/>
<path d="M268.219 434.077C266.543 430.405 264.018 427.183 260.853 424.678C257.688 422.173 253.973 420.455 250.015 419.667C247.997 419.283 245.511 419.331 244.383 421.06C243.254 422.789 244.227 425.095 245.439 426.752C248.027 430.189 251.576 432.781 255.638 434.2C259.699 435.619 264.09 435.802 268.255 434.725" fill="#FF931E"/>
<path d="M252.224 425.419C252.673 425.401 253.122 425.45 253.557 425.563C254.073 425.633 254.583 425.742 255.082 425.887C255.757 426.046 256.423 426.242 257.076 426.475C258.782 427.073 260.423 427.842 261.975 428.769C265.806 431.036 269.048 434.175 271.438 437.931C272.398 439.448 273.202 441.057 273.839 442.735C274.099 443.377 274.319 444.035 274.5 444.704C274.666 445.202 274.794 445.712 274.884 446.229C275.01 446.658 275.067 447.104 275.052 447.55C274.92 447.55 274.548 445.713 273.359 442.939C272.653 441.318 271.805 439.763 270.825 438.292C269.613 436.501 268.225 434.836 266.682 433.32C265.119 431.828 263.414 430.493 261.591 429.333C260.086 428.397 258.503 427.593 256.86 426.932C254.074 425.875 252.2 425.563 252.224 425.419Z" fill="#263238"/>
</svg>
