<svg width="1440" height="540" viewBox="0 0 1440 540" fill="none" xmlns="http://www.w3.org/2000/svg">
<rect width="1440" height="540" fill="#F0EFEF"/>
<path d="M792.894 104.619C795.007 78.1272 775.244 54.9385 748.752 52.8256C722.26 50.7127 699.071 70.4758 696.958 96.9676C694.846 123.459 714.609 146.648 741.1 148.761C767.592 150.874 790.781 131.111 792.894 104.619Z" fill="#E0E0E0"/>
<path d="M745.41 143.85C769.457 143.85 788.95 124.356 788.95 100.31C788.95 76.2631 769.457 56.7695 745.41 56.7695C721.364 56.7695 701.87 76.2631 701.87 100.31C701.87 124.356 721.364 143.85 745.41 143.85Z" fill="white"/>
<path d="M701.42 97.6895C701.42 97.6895 701.42 97.9295 701.42 98.3995C701.42 98.8695 701.42 99.5795 701.42 100.49C701.42 100.95 701.42 101.49 701.42 102.02C701.42 102.55 701.52 103.2 701.57 103.87C701.62 104.54 701.7 105.25 701.77 106.02C701.865 106.833 702.002 107.64 702.18 108.44C702.924 112.595 704.293 116.614 706.24 120.36C708.789 125.338 712.272 129.778 716.5 133.44L718.29 134.96C718.92 135.44 719.59 135.88 720.29 136.35C720.99 136.82 721.6 137.35 722.29 137.72L724.48 138.95C724.85 139.16 725.22 139.37 725.6 139.57L726.77 140.09L729.16 141.15C729.98 141.47 730.84 141.71 731.68 142C732.53 142.309 733.398 142.566 734.28 142.77C736.072 143.223 737.893 143.557 739.73 143.77C740.67 143.86 741.61 144.02 742.56 144.06H745.45C745.93 144.06 746.45 144.06 746.91 144.06L748.37 143.93C749.37 143.83 750.37 143.78 751.37 143.64C753.353 143.349 755.314 142.925 757.24 142.37L758.72 141.94L759.46 141.72L760.18 141.43L763.08 140.26C764.03 139.82 764.94 139.26 765.89 138.82C766.35 138.56 766.84 138.35 767.29 138.06L768.63 137.18C770.45 136.006 772.19 134.713 773.84 133.31L776.21 131.02L776.8 130.45L777.35 129.82L778.43 128.55L779.54 127.27L780.54 125.9L781.54 124.52L782.02 123.82C782.17 123.58 782.3 123.33 782.44 123.09L784.12 120.09C784.58 119.09 785.05 118 785.51 116.95C787.23 112.609 788.289 108.035 788.65 103.38C788.88 98.7281 788.405 94.0686 787.24 89.5595C786.92 88.4462 786.587 87.3462 786.24 86.2595C785.81 85.1995 785.39 84.1495 784.96 83.0995L784.64 82.3095L784.25 81.5595L783.47 80.0595L782.69 78.5695L781.78 77.1695L780.87 75.7695L780.41 75.0795L779.9 74.4295L777.9 71.8495C776.447 70.2427 774.89 68.7328 773.24 67.3295L772.02 66.3295C771.62 65.9795 771.16 65.7095 770.73 65.3895C769.86 64.7995 769.02 64.1595 768.13 63.5995L765.41 62.0595L764.74 61.6795C764.51 61.5595 764.27 61.4595 764.03 61.3595L762.62 60.7295C760.773 59.9142 758.876 59.2194 756.94 58.6495C755.94 58.3895 755 58.2095 754.04 57.9895L752.61 57.6695C752.13 57.5695 751.61 57.5395 751.16 57.4795L748.29 57.1395C747.29 57.0595 746.39 57.1395 745.45 57.0595C743.596 57.0263 741.741 57.1199 739.9 57.3395C739.002 57.4242 738.11 57.5645 737.23 57.7595C736.36 57.9395 735.47 58.0595 734.62 58.2795L732.12 59.0095L730.88 59.3695L729.7 59.8395L727.37 60.7795C726.615 61.1046 725.877 61.4684 725.16 61.8695C724.45 62.2495 723.72 62.5995 723.03 62.9895L721.03 64.2695C716.357 67.3442 712.323 71.2934 709.15 75.8995C706.723 79.3544 704.835 83.1578 703.55 87.1795C703.3 88.0095 702.97 88.7695 702.82 89.5295C702.67 90.2895 702.5 90.9795 702.35 91.6295C702.2 92.2795 702.05 92.8795 701.95 93.4395C701.85 93.9995 701.82 94.5095 701.77 94.9595C701.65 95.8595 701.56 96.5495 701.5 97.0295C701.44 97.4895 701.39 97.7295 701.39 97.7295C701.39 97.7295 701.39 97.4895 701.45 97.0195C701.51 96.5495 701.57 95.8495 701.67 94.9495C701.67 94.4895 701.77 93.9495 701.83 93.4195C701.89 92.8895 702.07 92.2595 702.21 91.5995L702.66 89.4795C702.857 88.6815 703.094 87.8938 703.37 87.1195C704.631 83.0665 706.503 79.2291 708.92 75.7395C712.099 71.089 716.147 67.0959 720.84 63.9795L722.84 62.6895C723.54 62.2895 724.27 61.9295 724.99 61.5495C725.71 61.1695 726.42 60.7395 727.21 60.4395L729.55 59.4395L730.75 58.9695L731.99 58.5995L734.52 57.8495C735.38 57.6295 736.27 57.4995 737.15 57.3195C738.041 57.1252 738.942 56.9817 739.85 56.8895C741.704 56.6665 743.572 56.5696 745.44 56.5995C746.39 56.5995 747.35 56.5995 748.31 56.6695L751.21 56.9995C751.69 57.0695 752.21 57.0995 752.67 57.1895L754.12 57.5095C755.12 57.7295 756.07 57.9095 757.05 58.1795C759.011 58.7478 760.932 59.446 762.8 60.2695L764.23 60.8995L764.94 61.2195L765.62 61.6095L768.37 63.1595C769.27 63.7195 770.12 64.3695 771.01 64.9695C771.44 65.2895 771.9 65.5595 772.31 65.9195L773.54 66.9695C775.206 68.387 776.776 69.9137 778.24 71.5395L780.32 74.1495L780.84 74.7995L781.3 75.4995L782.22 76.9095L783.14 78.3295L783.93 79.8395L784.72 81.3495L785.12 82.1095L785.44 82.8995L786.73 86.0995C787.06 87.2095 787.39 88.3195 787.73 89.4295C788.885 94.0013 789.343 98.721 789.09 103.43C788.721 108.136 787.649 112.761 785.91 117.15L784.5 120.33L782.8 123.33C782.66 123.58 782.53 123.83 782.38 124.07L781.89 124.77L780.89 126.17L779.89 127.56L778.79 128.84L777.7 130.12L777.15 130.76L776.55 131.34L774.15 133.65C772.482 135.066 770.722 136.368 768.88 137.55L767.52 138.43C767.08 138.73 766.58 138.94 766.11 139.2C765.16 139.69 764.23 140.2 763.26 140.65L760.33 141.83L759.61 142.12C759.36 142.21 759.11 142.27 758.86 142.35L757.37 142.79C755.4 143.355 753.396 143.796 751.37 144.11C750.37 144.25 749.37 144.29 748.37 144.39L746.89 144.52C746.39 144.52 745.89 144.52 745.41 144.52H742.5C741.5 144.46 740.59 144.31 739.64 144.21C737.786 144.002 735.948 143.668 734.14 143.21C733.252 143.003 732.377 142.742 731.52 142.43C730.67 142.13 729.8 141.89 728.98 141.56L726.57 140.49L725.39 139.96L724.26 139.33L722.06 138.08C721.371 137.653 720.703 137.192 720.06 136.7C719.39 136.22 718.72 135.77 718.06 135.29L716.26 133.75C712.014 130.045 708.524 125.557 705.98 120.53C704.044 116.756 702.695 112.71 701.98 108.53C701.805 107.727 701.671 106.916 701.58 106.1C701.52 105.33 701.46 104.61 701.41 103.94C701.36 103.27 701.29 102.65 701.28 102.08C701.27 101.51 701.28 101.01 701.28 100.55C701.28 99.6395 701.28 98.9495 701.34 98.4595C701.4 97.9695 701.42 97.6895 701.42 97.6895Z" fill="#EBEBEB"/>
<path d="M765.24 101.499C764.727 101.575 764.209 101.608 763.69 101.599L759.44 101.689C755.82 101.689 750.79 101.769 745.11 101.779H744.83V98.6594C744.83 92.3094 744.83 86.5694 744.91 82.4094C744.91 80.4094 744.98 78.7494 745 77.4894C744.985 76.8841 745.021 76.2785 745.11 75.6794C745.199 76.2785 745.235 76.8841 745.22 77.4894C745.22 78.7494 745.27 80.4094 745.31 82.4094C745.36 86.5694 745.39 92.3094 745.39 98.6594V101.499L745.11 101.219C750.79 101.219 755.82 101.219 759.44 101.309L763.69 101.399C764.209 101.384 764.728 101.418 765.24 101.499Z" fill="#E0E0E0"/>
<path d="M745.24 63.5396C745.526 64.7439 745.624 65.9853 745.53 67.2196C745.626 68.4538 745.528 69.6955 745.24 70.8996C744.965 69.6935 744.871 68.4533 744.96 67.2196C744.872 65.9858 744.966 64.7457 745.24 63.5396Z" fill="#E0E0E0"/>
<path d="M765.24 69.4495C764.591 70.508 763.781 71.4593 762.84 72.2695C762.042 73.1924 761.108 73.9882 760.07 74.6295C760.713 73.5924 761.512 72.6613 762.44 71.8695C763.24 70.9204 764.185 70.1037 765.24 69.4495Z" fill="#E0E0E0"/>
<path d="M776.87 82.1995C775.951 82.9797 774.944 83.6508 773.87 84.1995C772.885 84.909 771.817 85.4966 770.69 85.9495C771.502 85.0256 772.483 84.2653 773.58 83.7095C774.571 83.002 775.688 82.4896 776.87 82.1995Z" fill="#E0E0E0"/>
<path d="M783.71 101.12C780.387 101.491 777.033 101.491 773.71 101.12C777.032 100.735 780.388 100.735 783.71 101.12Z" fill="#E0E0E0"/>
<path d="M714.14 100.45C712.577 100.731 710.986 100.825 709.4 100.73C707.815 100.825 706.223 100.731 704.66 100.45C706.223 100.168 707.815 100.074 709.4 100.17C710.986 100.074 712.577 100.168 714.14 100.45Z" fill="#E0E0E0"/>
<path d="M719.06 114.53C717.999 115.751 716.798 116.842 715.48 117.78C714.279 118.865 712.957 119.808 711.54 120.59C712.604 119.371 713.805 118.281 715.12 117.34C716.318 116.25 717.64 115.307 719.06 114.53Z" fill="#E0E0E0"/>
<path d="M731.24 125.419C730.536 126.89 729.721 128.304 728.8 129.649C728.044 131.091 727.178 132.471 726.21 133.779C726.682 132.208 727.39 130.718 728.31 129.359C729.075 127.901 730.064 126.572 731.24 125.419Z" fill="#E0E0E0"/>
<path d="M745.24 139.469C744.965 137.818 744.871 136.141 744.96 134.469C744.871 132.798 744.965 131.121 745.24 129.469C745.527 131.12 745.625 132.797 745.53 134.469C745.625 136.142 745.528 137.819 745.24 139.469Z" fill="#E0E0E0"/>
<path d="M766.87 132.789C765.339 132.085 763.939 131.125 762.73 129.95C761.402 128.916 760.262 127.661 759.36 126.24C760.671 127.265 761.923 128.363 763.11 129.53C764.423 130.545 765.679 131.634 766.87 132.789Z" fill="#E0E0E0"/>
<path d="M777.02 121.859C775.793 121.028 774.677 120.044 773.7 118.929C772.587 117.954 771.606 116.838 770.78 115.609C772.004 116.442 773.119 117.422 774.1 118.529C775.209 119.513 776.19 120.632 777.02 121.859Z" fill="#E0E0E0"/>
<path d="M718.6 86.9595C717.505 86.26 716.515 85.4081 715.66 84.4295C714.679 83.5772 713.826 82.5868 713.13 81.4895C714.225 82.1896 715.212 83.0452 716.06 84.0295C717.044 84.8778 717.9 85.8648 718.6 86.9595Z" fill="#E0E0E0"/>
<path d="M731.12 73.7594C730.041 73.0782 729.07 72.2389 728.24 71.2694C727.275 70.4411 726.439 69.4738 725.76 68.3994C726.835 69.0784 727.805 69.9105 728.64 70.8694C729.603 71.7064 730.439 72.6801 731.12 73.7594Z" fill="#E0E0E0"/>
<path d="M706.42 100.729C706.42 89.6308 710.66 78.9514 718.271 70.8736C725.882 62.7959 736.291 57.9297 747.37 57.2695C746.52 57.2695 745.65 57.1895 744.78 57.1895C733.345 57.3627 722.438 62.0267 714.413 70.1742C706.388 78.3216 701.89 89.2986 701.89 100.734C701.89 112.17 706.388 123.147 714.413 131.295C722.438 139.442 733.345 144.106 744.78 144.279C745.65 144.279 746.52 144.279 747.37 144.189C736.291 143.529 725.882 138.663 718.271 130.585C710.66 122.508 706.42 111.828 706.42 100.729Z" fill="#F5F5F5"/>
<path d="M968.17 129.07H835.34V338.99H968.17V129.07Z" fill="#E0E0E0"/>
<path d="M964.14 133.01H838.92V335.54H964.14V133.01Z" fill="#F5F5F5"/>
<path d="M951.46 144.81H901.53V222.29H951.46V144.81Z" fill="white"/>
<path d="M929.15 151.66C929.152 152.03 929.044 152.393 928.839 152.702C928.634 153.011 928.342 153.253 928 153.395C927.658 153.538 927.281 153.576 926.918 153.504C926.554 153.432 926.22 153.254 925.958 152.992C925.696 152.73 925.517 152.396 925.446 152.032C925.374 151.668 925.412 151.291 925.554 150.949C925.697 150.607 925.938 150.315 926.247 150.111C926.556 149.906 926.919 149.798 927.29 149.8C927.783 149.8 928.257 149.996 928.605 150.344C928.954 150.693 929.15 151.166 929.15 151.66Z" fill="#E0E0E0"/>
<path d="M901.14 243.859H851.21V321.339H901.14V243.859Z" fill="white"/>
<path d="M878.83 250.709C878.83 251.08 878.72 251.442 878.514 251.749C878.308 252.057 878.015 252.297 877.673 252.438C877.331 252.579 876.954 252.616 876.591 252.543C876.228 252.47 875.895 252.291 875.634 252.028C875.373 251.766 875.196 251.431 875.125 251.068C875.054 250.705 875.092 250.328 875.235 249.987C875.378 249.645 875.619 249.354 875.928 249.15C876.237 248.945 876.6 248.837 876.97 248.839C877.215 248.839 877.458 248.888 877.684 248.982C877.91 249.076 878.116 249.214 878.289 249.388C878.461 249.561 878.598 249.768 878.691 249.995C878.784 250.221 878.831 250.464 878.83 250.709Z" fill="#E0E0E0"/>
<path d="M893.17 144.81H850.53V205.31H893.17V144.81Z" fill="white"/>
<path d="M873.4 150.27C873.4 150.576 873.309 150.876 873.139 151.131C872.968 151.386 872.726 151.584 872.443 151.702C872.16 151.819 871.848 151.85 871.547 151.79C871.247 151.73 870.971 151.582 870.754 151.366C870.537 151.149 870.389 150.873 870.33 150.572C870.27 150.271 870.3 149.96 870.418 149.676C870.535 149.393 870.734 149.151 870.989 148.981C871.244 148.81 871.543 148.72 871.85 148.72C872.054 148.718 872.256 148.757 872.445 148.835C872.633 148.912 872.805 149.026 872.949 149.171C873.093 149.315 873.207 149.486 873.285 149.675C873.362 149.863 873.401 150.066 873.4 150.27Z" fill="#E0E0E0"/>
<path d="M953.12 244.89L907.51 250.038L910.362 275.307L955.972 270.159L953.12 244.89Z" fill="white"/>
<path d="M930.84 253.869C931.712 253.869 932.42 253.162 932.42 252.289C932.42 251.417 931.712 250.709 930.84 250.709C929.967 250.709 929.26 251.417 929.26 252.289C929.26 253.162 929.967 253.869 930.84 253.869Z" fill="#E0E0E0"/>
<path d="M894.48 261.529C894.48 261.729 886.64 261.899 876.97 261.899C867.3 261.899 859.46 261.729 859.46 261.529C859.46 261.329 867.29 261.159 876.97 261.159C886.65 261.159 894.48 261.319 894.48 261.529Z" fill="#E0E0E0"/>
<path d="M894.48 267.069C894.48 267.279 886.64 267.439 876.97 267.439C867.3 267.439 859.46 267.279 859.46 267.069C859.46 266.859 867.29 266.699 876.97 266.699C886.65 266.699 894.48 266.869 894.48 267.069Z" fill="#E0E0E0"/>
<path d="M894.48 272.62C894.48 272.82 886.64 272.99 876.97 272.99C867.3 272.99 859.46 272.82 859.46 272.62C859.46 272.42 867.29 272.24 876.97 272.24C886.65 272.24 894.48 272.41 894.48 272.62Z" fill="#E0E0E0"/>
<path d="M894.48 278.16C894.48 278.36 886.64 278.53 876.97 278.53C867.3 278.53 859.46 278.36 859.46 278.16C859.46 277.96 867.29 277.79 876.97 277.79C886.65 277.79 894.48 277.95 894.48 278.16Z" fill="#E0E0E0"/>
<path d="M894.48 283.7C894.48 283.91 886.64 284.08 876.97 284.08C867.3 284.08 859.46 283.91 859.46 283.7C859.46 283.49 867.29 283.33 876.97 283.33C886.65 283.33 894.48 283.5 894.48 283.7Z" fill="#E0E0E0"/>
<path d="M894.48 289.269C894.48 289.469 886.64 289.639 876.97 289.639C867.3 289.639 859.46 289.469 859.46 289.269C859.46 289.069 867.29 288.889 876.97 288.889C886.65 288.889 894.48 289.039 894.48 289.269Z" fill="#E0E0E0"/>
<path d="M894.48 294.789C894.48 294.999 886.64 295.159 876.97 295.159C867.3 295.159 859.46 294.999 859.46 294.789C859.46 294.579 867.29 294.419 876.97 294.419C886.65 294.419 894.48 294.579 894.48 294.789Z" fill="#E0E0E0"/>
<path d="M948.83 255.59C948.83 255.79 941.12 257.05 931.54 258.41C921.96 259.77 914.18 260.69 914.15 260.48C914.12 260.27 921.86 259.02 931.44 257.67C941.02 256.32 948.8 255.39 948.83 255.59Z" fill="#E0E0E0"/>
<path d="M949.53 259.059C949.53 259.259 941.81 260.519 932.24 261.869C922.67 263.219 914.87 264.149 914.85 263.949C914.83 263.749 922.56 262.489 932.13 261.139C941.7 259.789 949.5 258.849 949.53 259.059Z" fill="#E0E0E0"/>
<path d="M950.161 262.27C950.161 262.47 942.451 263.73 932.871 265.08C923.291 266.43 915.511 267.37 915.481 267.16C915.451 266.95 923.191 265.7 932.771 264.35C942.351 263 950.131 262.06 950.161 262.27Z" fill="#E0E0E0"/>
<path d="M947.07 161.019C947.07 161.229 938.21 161.389 927.29 161.389C916.37 161.389 907.5 161.229 907.5 161.019C907.5 160.809 916.36 160.649 927.29 160.649C938.22 160.649 947.07 160.809 947.07 161.019Z" fill="#E0E0E0"/>
<path d="M947.07 164.319C947.07 164.519 938.21 164.689 927.29 164.689C916.37 164.689 907.5 164.519 907.5 164.319C907.5 164.119 916.36 163.939 927.29 163.939C938.22 163.939 947.07 164.109 947.07 164.319Z" fill="#E0E0E0"/>
<path d="M947.07 167.609C947.07 167.819 938.21 167.98 927.29 167.98C916.37 167.98 907.5 167.819 907.5 167.609C907.5 167.399 916.36 167.24 927.29 167.24C938.22 167.24 947.07 167.409 947.07 167.609Z" fill="#E0E0E0"/>
<path d="M947.07 170.91C947.07 171.11 938.21 171.28 927.29 171.28C916.37 171.28 907.5 171.11 907.5 170.91C907.5 170.71 916.36 170.54 927.29 170.54C938.22 170.54 947.07 170.7 947.07 170.91Z" fill="#E0E0E0"/>
<path d="M947.07 174.2C947.07 174.41 938.21 174.58 927.29 174.58C916.37 174.58 907.5 174.41 907.5 174.2C907.5 173.99 916.36 173.83 927.29 173.83C938.22 173.83 947.07 174 947.07 174.2Z" fill="#E0E0E0"/>
<path d="M947.07 177.499C947.07 177.709 938.21 177.869 927.29 177.869C916.37 177.869 907.5 177.709 907.5 177.499C907.5 177.289 916.36 177.129 927.29 177.129C938.22 177.129 947.07 177.269 947.07 177.499Z" fill="#E0E0E0"/>
<path d="M947.07 180.799C947.07 180.999 938.21 181.169 927.29 181.169C916.37 181.169 907.5 180.999 907.5 180.799C907.5 180.599 916.36 180.419 927.29 180.419C938.22 180.419 947.07 180.589 947.07 180.799Z" fill="#E0E0E0"/>
<path d="M947.07 190.579C947.07 190.779 938.21 190.949 927.29 190.949C916.37 190.949 907.5 190.779 907.5 190.579C907.5 190.379 916.36 190.209 927.29 190.209C938.22 190.209 947.07 190.369 947.07 190.579Z" fill="#E0E0E0"/>
<path d="M947.35 194.059C947.35 194.259 938.49 194.429 927.57 194.429C916.65 194.429 907.78 194.259 907.78 194.059C907.78 193.859 916.64 193.689 927.57 193.689C938.5 193.689 947.35 193.849 947.35 194.059Z" fill="#E0E0E0"/>
<path d="M947.631 197.539C947.631 197.749 938.771 197.909 927.851 197.909C916.931 197.909 908.061 197.749 908.061 197.539C908.061 197.329 916.921 197.169 927.851 197.169C938.781 197.169 947.631 197.339 947.631 197.539Z" fill="#E0E0E0"/>
<path d="M947.91 201.019C947.91 201.229 939.05 201.389 928.12 201.389C917.19 201.389 908.34 201.229 908.34 201.019C908.34 200.809 917.2 200.649 928.12 200.649C939.04 200.649 947.91 200.819 947.91 201.019Z" fill="#E0E0E0"/>
<path d="M948.24 204.499C948.24 204.709 939.38 204.879 928.45 204.879C917.52 204.879 908.67 204.709 908.67 204.499C908.67 204.289 917.52 204.129 928.45 204.129C939.38 204.129 948.24 204.269 948.24 204.499Z" fill="#E0E0E0"/>
<path d="M948.46 207.989C948.46 208.189 939.61 208.359 928.68 208.359C917.75 208.359 908.9 208.189 908.9 207.989C908.9 207.789 917.75 207.609 928.68 207.609C939.61 207.609 948.46 207.779 948.46 207.989Z" fill="#E0E0E0"/>
<path d="M661.49 97.0195H536.43V278.29H661.49V97.0195Z" fill="#E0E0E0"/>
<path d="M655.23 97.0195H530.17V278.29H655.23V97.0195Z" fill="#F5F5F5"/>
<path d="M639.7 116.649H545.71V258.659H639.7V116.649Z" fill="white"/>
<path d="M639.69 258.66C639.69 258.66 639.69 258.42 639.69 257.97C639.69 257.52 639.69 256.83 639.69 255.97C639.69 254.19 639.69 251.58 639.69 248.18C639.69 241.38 639.69 231.46 639.6 218.93C639.6 193.93 639.51 158.43 639.45 116.67L639.76 116.99H545.76L546.1 116.65C546.1 170.23 546.05 219.65 546.03 258.65L545.76 258.38L614.16 258.52L633.06 258.59H638.06H639.77C639.77 258.59 639.22 258.59 638.11 258.59H633.2L614.36 258.66L545.79 258.8H545.51V258.53C545.51 219.53 545.51 170.1 545.45 116.53V116.27H545.81H639.81H640.12V116.58C640.06 158.43 640.01 193.96 639.97 219.05C639.97 231.54 639.91 241.44 639.89 248.23C639.89 251.59 639.89 254.18 639.89 255.95C639.89 256.81 639.89 257.47 639.89 257.95C639.89 258.43 639.69 258.66 639.69 258.66Z" fill="#E0E0E0"/>
<path d="M655.58 97.0195C654.936 98.1677 654.189 99.2554 653.35 100.27C651.9 102.21 649.84 104.86 647.48 107.71C645.12 110.56 642.93 113.1 641.3 114.9C640.469 115.917 639.549 116.857 638.55 117.71C639.256 116.603 640.055 115.559 640.94 114.59C642.61 112.59 644.68 110.05 646.94 107.28L652.94 99.9695C653.734 98.9128 654.617 97.9259 655.58 97.0195Z" fill="#E0E0E0"/>
<path d="M640.17 258.199C644.841 265.63 650.34 272.507 656.56 278.699L640.17 258.199Z" fill="white"/>
<path d="M656.56 278.699C655.518 277.936 654.559 277.064 653.7 276.099C649.341 271.662 645.447 266.79 642.08 261.559C641.327 260.51 640.687 259.383 640.17 258.199C641.012 259.173 641.784 260.206 642.48 261.289C643.85 263.229 645.79 265.879 648.05 268.709C650.31 271.539 652.47 273.999 654.05 275.779C654.957 276.69 655.796 277.666 656.56 278.699Z" fill="#E0E0E0"/>
<path d="M530.15 278.149L546.53 257.939L530.15 278.149Z" fill="white"/>
<path d="M546.53 257.939C546.68 258.059 543.13 262.679 538.6 268.259C534.07 273.839 530.3 278.259 530.15 278.149C530 278.039 533.55 273.409 538.08 267.829C542.61 262.249 546.38 257.819 546.53 257.939Z" fill="#E0E0E0"/>
<path d="M530.17 97.0194C530.31 96.9094 533.87 101.159 538.17 106.529C542.47 111.899 545.73 116.339 545.59 116.449C545.45 116.559 541.88 112.319 537.59 106.949C533.3 101.579 530.02 97.1394 530.17 97.0194Z" fill="#E0E0E0"/>
<path d="M610.41 145.49H578.94V234.84H610.41V145.49Z" fill="#E0E0E0"/>
<path d="M724.81 452.38C724.81 452.38 719.1 413.13 719.57 390.3C720.04 367.47 719.57 341.77 719.57 341.77H722.21C722.21 341.77 720.42 387.1 722.36 414.44C724.3 441.78 729.36 452.38 729.36 452.38H724.79" fill="#E0E0E0"/>
<path d="M741.81 297.609C741.398 296.217 740.558 294.989 739.41 294.099C737.75 293.039 735.56 293.479 733.7 294.099C725.7 296.909 718.7 311.729 715.49 319.529L726.04 355.079C745.09 337.449 748.39 314.269 741.81 297.609Z" fill="#EBEBEB"/>
<path d="M738.8 295.54C738.763 295.697 738.713 295.851 738.65 296L738.13 297.3C737.67 298.42 737.02 300.04 736.24 302.06C734.69 306.06 732.71 311.75 730.94 318.06C729.17 324.37 727.94 330.28 727.21 334.54C726.84 336.67 726.55 338.4 726.37 339.6C726.28 340.15 726.21 340.6 726.15 340.97C726.134 341.134 726.097 341.295 726.04 341.45C726.022 341.287 726.022 341.122 726.04 340.96C726.04 340.6 726.13 340.14 726.19 339.57C726.31 338.37 726.55 336.63 726.89 334.49C727.782 328.91 728.988 323.384 730.5 317.94C732.009 312.508 733.825 307.166 735.94 301.94C736.75 299.94 737.44 298.32 737.94 297.22L738.54 295.96C738.61 295.81 738.698 295.669 738.8 295.54Z" fill="#E0E0E0"/>
<path d="M721.35 363.65C711.46 358.18 705.63 347.9 705.09 336.65C704.7 328.76 707.09 321.02 709.88 313.65C710.047 312.982 710.439 312.392 710.99 311.98C711.439 311.818 711.922 311.772 712.393 311.845C712.865 311.918 713.311 312.109 713.69 312.4C720.88 316.49 725.23 324.3 727.55 332.24C729.21 337.506 729.765 343.059 729.18 348.55C728.269 354.32 725.524 359.643 721.35 363.73" fill="#E0E0E0"/>
<path d="M721.35 363.65C721.326 363.49 721.326 363.329 721.35 363.169C721.35 362.809 721.35 362.36 721.35 361.81C721.35 360.62 721.29 358.91 721.2 356.81C720.917 351.301 720.303 345.814 719.36 340.379C718.26 334.009 716.93 328.31 715.95 324.19C715.47 322.19 715.07 320.519 714.78 319.299L714.48 317.97C714.429 317.818 714.401 317.659 714.4 317.5C714.469 317.644 714.523 317.794 714.56 317.949L714.94 319.259C715.27 320.399 715.72 322.059 716.25 324.109C717.31 328.219 718.69 333.92 719.79 340.31C720.739 345.757 721.31 351.263 721.5 356.789C721.56 358.919 721.56 360.629 721.5 361.789C721.5 362.339 721.5 362.79 721.45 363.15C721.434 363.319 721.4 363.487 721.35 363.65Z" fill="#EBEBEB"/>
<path d="M732.51 423.7C742.25 425.84 750.26 432.7 759.65 436.05C765.87 438.26 772.89 439.05 777.85 443.38C776.66 440.38 773.85 438.38 771.1 436.66C763.368 431.832 755.116 427.894 746.5 424.92C742.08 423.39 737.29 422.12 732.78 423.38" fill="#EBEBEB"/>
<path d="M718.431 432.38C706.241 432.18 693.431 421.8 681.271 421.18C693.971 417.08 712.151 420.43 718.431 432.38Z" fill="#EBEBEB"/>
<path d="M723.24 403.13C729.43 400.9 736.24 400.79 742.73 401.8C749.22 402.81 755.51 404.9 761.73 406.98C761.1 402.75 757.68 399.57 754.46 396.75C752.107 394.553 749.549 392.588 746.82 390.88C744.072 389.151 740.887 388.245 737.64 388.27C735.699 388.4 733.805 388.918 732.068 389.794C730.331 390.67 728.788 391.886 727.53 393.37C725.067 396.06 723.547 399.479 723.2 403.11" fill="#EBEBEB"/>
<path d="M698.18 389.67C690.5 383.12 678.88 383.76 668.79 383.99C684.999 391.713 700.286 401.24 714.36 412.39C714.77 405.27 707.87 397.95 698.18 389.67Z" fill="#EBEBEB"/>
<path d="M726.65 380.62C730.396 378.025 734.342 375.731 738.45 373.76C742.45 371.93 746.26 369.01 750.16 366.89C755.22 364.15 759.6 360.35 764.25 356.95C768.9 353.55 773.99 350.49 779.67 349.59C775.004 348.759 770.209 349.037 765.67 350.4C761.14 351.768 756.724 353.487 752.46 355.54C746.46 358.24 740.38 361 735.46 365.38C730.54 369.76 726.14 374.08 726.66 380.62" fill="#EBEBEB"/>
<path d="M759.43 432.38C759.295 432.337 759.164 432.28 759.04 432.21L757.98 431.66C757.06 431.17 755.74 430.45 754.08 429.61C753.26 429.18 752.35 428.73 751.36 428.26C750.37 427.79 749.36 427.26 748.2 426.81C745.775 425.728 743.263 424.851 740.69 424.19C738.139 423.486 735.453 423.421 732.87 424C731.743 424.247 730.636 424.581 729.56 425C728.627 425.373 727.73 425.832 726.88 426.37C725.647 427.149 724.517 428.084 723.52 429.15C722.81 429.9 722.47 430.37 722.44 430.34C722.495 430.212 722.57 430.094 722.66 429.99C722.886 429.644 723.13 429.31 723.39 428.99C724.357 427.867 725.474 426.885 726.71 426.07C727.567 425.504 728.475 425.019 729.42 424.62C730.512 424.198 731.636 423.863 732.78 423.62C735.419 423.007 738.169 423.062 740.78 423.78C743.378 424.442 745.912 425.336 748.35 426.45C749.48 426.95 750.54 427.45 751.51 427.95C752.48 428.45 753.4 428.9 754.22 429.35C755.86 430.22 757.16 430.99 758.05 431.52L759.05 432.14C759.32 432.27 759.44 432.36 759.43 432.38Z" fill="#E0E0E0"/>
<path d="M709.34 426.34C709.603 426.374 709.86 426.448 710.1 426.56C710.785 426.804 711.453 427.091 712.1 427.42C716.382 429.598 719.914 433.007 722.24 437.21C722.597 437.838 722.911 438.489 723.18 439.16C723.302 439.395 723.387 439.648 723.43 439.91C723.36 439.91 722.91 438.91 721.97 437.36C719.514 433.317 716.047 429.985 711.91 427.69C710.36 426.82 709.31 426.41 709.34 426.34Z" fill="#E0E0E0"/>
<path d="M682.37 389.06C682.549 389.09 682.723 389.14 682.89 389.21L684.35 389.73L686.66 390.58C687.56 390.92 688.53 391.41 689.66 391.9C695.38 394.541 700.718 397.942 705.53 402.01C708.159 404.269 710.631 406.705 712.93 409.3C714.794 411.424 716.547 413.643 718.18 415.95C719.58 417.95 720.63 419.57 721.35 420.7C721.7 421.24 721.97 421.7 722.19 422.01C722.296 422.156 722.387 422.314 722.46 422.48C722.33 422.354 722.216 422.213 722.12 422.06C721.9 421.78 721.59 421.35 721.21 420.8C720.45 419.69 719.35 418.08 717.93 416.13C716.51 414.18 714.73 411.95 712.63 409.56C710.322 407.003 707.857 404.591 705.25 402.34C700.46 398.303 695.178 394.889 689.53 392.18C688.43 391.67 687.47 391.18 686.53 390.81L684.26 389.89L682.83 389.29C682.67 389.228 682.516 389.151 682.37 389.06Z" fill="#E0E0E0"/>
<path d="M741.49 396.269C741.153 396.266 740.817 396.222 740.49 396.139L739.37 395.939C738.93 395.849 738.43 395.849 737.87 395.789C735.638 395.593 733.391 395.893 731.288 396.668C729.186 397.442 727.281 398.672 725.71 400.269C724.784 401.174 723.962 402.181 723.26 403.269C722.631 404.295 722.07 405.361 721.58 406.459C721.625 406.134 721.709 405.815 721.83 405.509C722.143 404.671 722.534 403.864 723 403.099C723.677 401.953 724.493 400.895 725.43 399.949C727.019 398.278 728.977 397 731.147 396.219C733.317 395.438 735.64 395.174 737.93 395.449C738.437 395.492 738.941 395.562 739.44 395.659L740.56 395.939C740.883 396.011 741.195 396.122 741.49 396.269Z" fill="#E0E0E0"/>
<path d="M753.741 358.27C753.598 358.379 753.444 358.473 753.281 358.55L751.921 359.29C750.741 359.93 749.041 360.87 746.921 362.08C744.801 363.29 742.441 364.84 739.861 366.68C737.044 368.65 734.404 370.862 731.971 373.29C730.714 374.528 729.631 375.931 728.751 377.46C727.951 379 727.181 380.46 726.481 381.9C725.215 384.406 724.087 386.98 723.101 389.61C722.438 391.384 721.887 393.197 721.451 395.04C721.141 396.35 721.021 397.04 720.981 397.04C720.979 396.858 720.996 396.677 721.031 396.5C721.031 396.14 721.151 395.63 721.281 394.97C721.659 393.102 722.171 391.264 722.811 389.47C723.764 386.812 724.87 384.211 726.121 381.68C726.821 380.25 727.571 378.76 728.371 377.23C729.271 375.659 730.377 374.216 731.661 372.94C734.12 370.491 736.798 368.272 739.661 366.31C742.261 364.48 744.711 362.98 746.801 361.78C748.891 360.58 750.621 359.69 751.801 359.1L753.191 358.43C753.365 358.35 753.551 358.296 753.741 358.27Z" fill="#E0E0E0"/>
<path d="M719.56 395.18C719.442 394.857 719.361 394.521 719.32 394.18C719.17 393.43 719 392.49 718.78 391.37C718.199 388.276 717.431 385.22 716.48 382.22C715.493 379.231 714.331 376.302 713 373.45C712.52 372.45 712.12 371.53 711.81 370.84C711.641 370.523 711.51 370.187 711.42 369.84C711.63 370.121 711.811 370.422 711.96 370.74C712.28 371.34 712.74 372.21 713.27 373.29C716.145 378.946 718.109 385.021 719.09 391.29C719.28 392.49 719.41 393.46 719.48 394.14C719.544 394.482 719.571 394.831 719.56 395.18Z" fill="#E0E0E0"/>
<path d="M718.68 367.44C718.282 362.821 716.919 358.338 714.68 354.28C711.678 348.683 707.485 343.813 702.397 340.012C697.308 336.211 691.449 333.571 685.23 332.28L712.5 372.92L716.02 380.17C718.45 376.27 718.98 372.05 718.68 367.44Z" fill="#EBEBEB"/>
<path d="M757.79 447.53H694.39V458.77H757.79V447.53Z" fill="#EBEBEB"/>
<path d="M699.12 456.54L704.52 491.4H746.61L753.05 456.54H699.12Z" fill="#EBEBEB"/>
<path d="M757.75 458.78C757.75 458.9 743.45 459 725.81 459C708.17 459 693.87 458.9 693.87 458.78C693.87 458.66 708.17 458.56 725.81 458.56C743.45 458.56 757.75 458.66 757.75 458.78Z" fill="#E0E0E0"/>
<path d="M515 491.63C515 491.49 615.81 491.37 740.14 491.37C864.47 491.37 965.3 491.49 965.3 491.63C965.3 491.77 864.51 491.89 740.14 491.89C615.77 491.89 515 491.78 515 491.63Z" fill="#263238"/>
<path d="M742.651 212.41C742.501 212.41 742.461 206.91 742.551 200.13C742.641 193.35 742.831 187.86 742.971 187.86C743.111 187.86 743.161 193.36 743.071 200.14C742.981 206.92 742.791 212.41 742.651 212.41Z" fill="#263238"/>
<path d="M707.981 219.38C706.144 217.212 704.44 214.935 702.881 212.56C701.184 210.283 699.628 207.905 698.221 205.44C700.056 207.607 701.755 209.884 703.311 212.26C705.015 214.533 706.575 216.911 707.981 219.38Z" fill="#263238"/>
<path d="M779.311 217.69C778.671 218.416 777.968 219.086 777.211 219.69C775.871 220.87 773.971 222.46 771.831 224.15C769.691 225.84 767.711 227.33 766.261 228.37C765.504 228.974 764.691 229.503 763.831 229.95C764.517 229.269 765.256 228.643 766.041 228.08L771.511 223.75L776.971 219.41C777.698 218.767 778.481 218.192 779.311 217.69Z" fill="#263238"/>
<path d="M723.17 195.52L723.58 196.35C723.6 196.393 723.63 196.43 723.669 196.458C723.707 196.486 723.752 196.504 723.8 196.51L724.72 196.65C724.775 196.655 724.828 196.676 724.871 196.711C724.915 196.746 724.948 196.792 724.966 196.845C724.984 196.898 724.986 196.954 724.973 197.008C724.959 197.062 724.93 197.111 724.89 197.15L724.22 197.8C724.186 197.833 724.161 197.874 724.147 197.92C724.133 197.965 724.131 198.013 724.14 198.06L724.29 198.98C724.301 199.035 724.297 199.092 724.276 199.144C724.256 199.196 724.221 199.242 724.176 199.274C724.13 199.307 724.076 199.326 724.02 199.329C723.964 199.331 723.908 199.318 723.86 199.29L723.04 198.86C722.996 198.84 722.948 198.829 722.9 198.829C722.851 198.829 722.804 198.84 722.76 198.86L721.94 199.29C721.891 199.318 721.836 199.331 721.78 199.329C721.724 199.326 721.669 199.307 721.624 199.274C721.578 199.242 721.543 199.196 721.523 199.144C721.503 199.092 721.498 199.035 721.51 198.98L721.67 198.06C721.675 198.012 721.67 197.964 721.654 197.919C721.639 197.874 721.613 197.833 721.58 197.8L720.92 197.15C720.879 197.112 720.851 197.064 720.837 197.011C720.823 196.957 720.824 196.901 720.841 196.849C720.858 196.796 720.889 196.75 720.931 196.714C720.974 196.679 721.025 196.657 721.08 196.65L722 196.51C722.047 196.505 722.093 196.487 722.131 196.459C722.17 196.431 722.2 196.393 722.22 196.35L722.63 195.52C722.654 195.469 722.693 195.426 722.74 195.396C722.788 195.366 722.843 195.35 722.9 195.35C722.956 195.35 723.011 195.366 723.059 195.396C723.107 195.426 723.145 195.469 723.17 195.52Z" fill="#F7B94E"/>
<path d="M785.99 232.95L786.4 233.78C786.423 233.823 786.456 233.861 786.496 233.891C786.535 233.92 786.581 233.94 786.63 233.95L787.55 234.08C787.605 234.089 787.655 234.113 787.697 234.149C787.739 234.186 787.77 234.233 787.786 234.286C787.803 234.338 787.804 234.395 787.791 234.448C787.777 234.502 787.749 234.551 787.71 234.59L787.05 235.24C787.015 235.273 786.989 235.314 786.973 235.359C786.958 235.404 786.953 235.452 786.96 235.5L787.12 236.41C787.13 236.464 787.124 236.521 787.103 236.572C787.083 236.624 787.048 236.669 787.004 236.702C786.959 236.735 786.906 236.756 786.851 236.76C786.795 236.765 786.74 236.755 786.69 236.73L785.87 236.29C785.826 236.27 785.778 236.259 785.73 236.259C785.682 236.259 785.634 236.27 785.59 236.29L784.77 236.73C784.72 236.755 784.665 236.765 784.609 236.76C784.554 236.756 784.501 236.735 784.456 236.702C784.412 236.669 784.377 236.624 784.357 236.572C784.336 236.521 784.33 236.464 784.34 236.41L784.49 235.5C784.501 235.453 784.499 235.405 784.485 235.359C784.471 235.313 784.445 235.272 784.41 235.24L783.74 234.59C783.7 234.55 783.672 234.501 783.66 234.446C783.647 234.392 783.649 234.335 783.667 234.282C783.684 234.229 783.717 234.182 783.76 234.146C783.803 234.11 783.855 234.087 783.91 234.08L784.83 233.95C784.877 233.94 784.921 233.919 784.959 233.89C784.997 233.86 785.028 233.823 785.05 233.78L785.46 232.95C785.486 232.902 785.524 232.861 785.57 232.833C785.617 232.805 785.67 232.79 785.725 232.79C785.779 232.79 785.833 232.805 785.88 232.833C785.926 232.861 785.964 232.902 785.99 232.95Z" fill="#F7B94E"/>
<path d="M765.57 198.82L766.32 200.34C766.359 200.418 766.417 200.487 766.489 200.539C766.56 200.591 766.642 200.626 766.73 200.64L768.4 200.88C768.499 200.894 768.593 200.936 768.67 201.001C768.747 201.066 768.804 201.151 768.835 201.247C768.866 201.342 768.87 201.445 768.846 201.542C768.822 201.64 768.771 201.729 768.7 201.8L767.49 202.98C767.428 203.041 767.382 203.118 767.355 203.201C767.329 203.285 767.324 203.373 767.34 203.46L767.62 205.13C767.636 205.229 767.625 205.33 767.587 205.423C767.55 205.516 767.487 205.597 767.406 205.656C767.325 205.715 767.229 205.75 767.129 205.758C767.029 205.766 766.929 205.746 766.84 205.7L765.34 204.91C765.262 204.87 765.177 204.85 765.09 204.85C765.003 204.85 764.917 204.87 764.84 204.91L763.34 205.7C763.25 205.748 763.149 205.771 763.047 205.765C762.945 205.758 762.848 205.723 762.765 205.664C762.682 205.604 762.618 205.522 762.58 205.428C762.542 205.333 762.532 205.23 762.55 205.13L762.84 203.46C762.853 203.373 762.846 203.284 762.818 203.2C762.79 203.117 762.743 203.041 762.68 202.98L761.47 201.8C761.398 201.729 761.347 201.64 761.323 201.542C761.299 201.445 761.303 201.342 761.334 201.247C761.365 201.151 761.423 201.066 761.5 201.001C761.577 200.936 761.67 200.894 761.77 200.88L763.45 200.64C763.536 200.626 763.617 200.591 763.686 200.539C763.756 200.487 763.812 200.418 763.85 200.34L764.6 198.82C764.644 198.729 764.713 198.652 764.799 198.599C764.885 198.545 764.984 198.517 765.085 198.517C765.186 198.517 765.285 198.545 765.37 198.599C765.456 198.652 765.525 198.729 765.57 198.82Z" fill="#F7B94E"/>
<path d="M687.98 238.129L688.73 239.639C688.769 239.717 688.825 239.785 688.894 239.837C688.964 239.889 689.044 239.924 689.13 239.939L690.81 240.179C690.909 240.194 691.003 240.236 691.08 240.301C691.157 240.366 691.214 240.451 691.245 240.546C691.276 240.642 691.28 240.745 691.256 240.842C691.232 240.94 691.182 241.029 691.11 241.099L689.9 242.269C689.836 242.328 689.788 242.402 689.76 242.484C689.732 242.566 689.725 242.654 689.74 242.739L690.03 244.409C690.048 244.51 690.037 244.613 689.999 244.708C689.961 244.802 689.897 244.884 689.814 244.943C689.732 245.003 689.634 245.038 689.532 245.044C689.431 245.051 689.329 245.028 689.24 244.979L687.75 244.189C687.671 244.15 687.583 244.129 687.495 244.129C687.406 244.129 687.319 244.15 687.24 244.189L685.74 244.979C685.651 245.025 685.55 245.046 685.45 245.038C685.35 245.03 685.255 244.995 685.174 244.936C685.093 244.876 685.03 244.796 684.992 244.703C684.954 244.61 684.943 244.508 684.96 244.409L685.25 242.739C685.264 242.654 685.257 242.566 685.23 242.484C685.202 242.402 685.154 242.328 685.09 242.269L683.88 241.079C683.808 241.009 683.757 240.92 683.733 240.822C683.709 240.725 683.713 240.622 683.744 240.526C683.776 240.431 683.833 240.346 683.91 240.281C683.987 240.216 684.08 240.174 684.18 240.159L685.85 239.919C685.937 239.905 686.02 239.871 686.091 239.819C686.162 239.767 686.22 239.698 686.26 239.619L687.01 238.109C687.056 238.02 687.127 237.945 687.213 237.893C687.3 237.841 687.4 237.815 687.501 237.817C687.602 237.819 687.701 237.849 687.785 237.905C687.87 237.96 687.937 238.038 687.98 238.129Z" fill="#F7B94E"/>
<path d="M774.99 264.12L775.74 265.63C775.779 265.708 775.837 265.777 775.909 265.829C775.98 265.881 776.062 265.915 776.15 265.93L777.82 266.17C777.919 266.184 778.013 266.226 778.09 266.291C778.166 266.356 778.224 266.441 778.255 266.537C778.286 266.632 778.29 266.735 778.266 266.832C778.242 266.93 778.191 267.019 778.12 267.09L776.91 268.27C776.846 268.328 776.798 268.402 776.77 268.484C776.742 268.566 776.735 268.654 776.75 268.74L777.04 270.41C777.058 270.51 777.047 270.613 777.009 270.708C776.971 270.802 776.907 270.884 776.824 270.943C776.742 271.003 776.644 271.038 776.542 271.045C776.44 271.051 776.339 271.028 776.25 270.98L774.76 270.19C774.68 270.15 774.593 270.129 774.505 270.129C774.416 270.129 774.329 270.15 774.25 270.19L772.76 270.98C772.67 271.028 772.569 271.051 772.467 271.045C772.365 271.038 772.268 271.003 772.185 270.943C772.102 270.884 772.038 270.802 772 270.708C771.962 270.613 771.951 270.51 771.97 270.41L772.26 268.74C772.274 268.654 772.267 268.566 772.239 268.484C772.211 268.402 772.163 268.328 772.1 268.27L770.89 267.08C770.818 267.009 770.767 266.92 770.743 266.822C770.719 266.725 770.723 266.622 770.754 266.527C770.785 266.431 770.843 266.346 770.92 266.281C770.996 266.216 771.09 266.174 771.19 266.16L772.86 265.92C772.947 265.905 773.029 265.871 773.101 265.819C773.172 265.767 773.23 265.698 773.27 265.62L774.02 264.11C774.065 264.019 774.135 263.944 774.221 263.891C774.307 263.838 774.407 263.811 774.508 263.812C774.609 263.813 774.707 263.842 774.793 263.897C774.878 263.951 774.946 264.028 774.99 264.12Z" fill="#F7B94E"/>
<path d="M822.471 145.94L838.971 133.18L840.561 153.9L862.621 152.43L848.011 171.52L861.581 184.89L838.551 188.65L843.771 214.03L826.901 195.41L806.451 207.34L806.681 186.55L784.681 180.28L801.541 167.74L789.111 150.76L807.191 153.65L807.641 133.32L822.471 145.94Z" fill="white"/>
<path d="M784.581 180.15L784.311 180.35L784.631 180.44L806.631 186.72L806.511 186.55C806.431 193.16 806.351 200.17 806.271 207.34V207.66L806.551 207.5L827.001 195.57H826.771L831.371 200.65L843.641 214.2L844.091 214.7L843.961 214.04C842.174 205.373 840.431 196.91 838.731 188.65L838.591 188.86L861.591 185.1H861.921L861.681 184.86L848.101 171.5V171.71L862.701 152.61L862.891 152.36H862.581L840.521 153.85L840.641 153.96C840.011 145.8 839.471 138.96 839.031 133.24V133.08L838.901 133.18L826.671 142.69L823.521 145.15L822.451 146L823.521 145.2L826.681 142.78L839.031 133.27L838.891 133.21C839.311 138.91 839.831 145.77 840.441 153.94V154.06H840.551L862.621 152.61L862.491 152.38C857.951 158.31 853.061 164.7 847.871 171.46L847.781 171.58L847.881 171.67C852.234 175.97 856.757 180.43 861.451 185.05L861.541 184.77L838.541 188.51H838.361V188.69C840.041 196.923 841.777 205.386 843.571 214.08L843.881 213.92L831.641 200.36C830.061 198.63 828.491 196.89 827.041 195.28L826.941 195.17L826.811 195.25L806.361 207.19L806.631 207.35C806.711 200.18 806.781 193.16 806.861 186.56V186.42H806.731L784.731 180.16L784.791 180.46L801.641 167.9L801.761 167.81L801.671 167.68L789.231 150.68L789.101 150.9L807.181 153.76H807.311V153.63C807.481 145.74 807.621 138.88 807.741 133.3L807.601 133.36L818.601 142.7L821.471 145.11C822.111 145.65 822.471 145.91 822.471 145.91L821.471 145.06L818.621 142.61L807.621 133.23L807.491 133.12V133.3C807.361 138.87 807.191 145.74 807.001 153.62L807.141 153.51L789.061 150.61H788.731L788.931 150.87L801.341 167.87V167.65" fill="#263238"/>
<path d="M820.551 160.07L822.081 174.27C822.139 174.831 822.402 175.352 822.818 175.733C823.234 176.115 823.776 176.33 824.341 176.34C824.935 176.351 825.511 176.133 825.949 175.731C826.386 175.328 826.652 174.773 826.691 174.18L827.691 159.77C827.706 159.512 827.668 159.255 827.577 159.014C827.487 158.772 827.346 158.553 827.165 158.37C826.984 158.187 826.766 158.044 826.525 157.951C826.285 157.858 826.028 157.816 825.771 157.83L822.291 158.04C822.039 158.047 821.792 158.108 821.565 158.216C821.338 158.325 821.137 158.48 820.973 158.671C820.809 158.862 820.687 159.085 820.614 159.326C820.542 159.566 820.52 159.82 820.551 160.07Z" fill="#455A64"/>
<path d="M827.781 182.97C827.591 183.63 827.21 184.22 826.685 184.665C826.16 185.109 825.516 185.388 824.833 185.466C824.149 185.544 823.458 185.419 822.847 185.105C822.235 184.791 821.73 184.303 821.396 183.702C821.061 183.101 820.912 182.415 820.967 181.729C821.022 181.044 821.279 180.39 821.706 179.851C822.132 179.312 822.709 178.91 823.363 178.698C824.017 178.486 824.719 178.473 825.381 178.66C825.822 178.784 826.234 178.994 826.594 179.279C826.954 179.563 827.253 179.915 827.476 180.316C827.699 180.716 827.841 181.157 827.893 181.612C827.946 182.068 827.907 182.529 827.781 182.97Z" fill="#455A64"/>
<path d="M976.62 350.52C972.05 345.29 964.31 344.19 958.84 339.91C951.47 334.14 949.6 323.82 949.34 314.45C949.08 305.08 949.8 295.26 945.73 286.82C943.306 282.023 939.502 278.061 934.808 275.443C930.115 272.825 924.745 271.671 919.39 272.13L907.06 284.13C912.67 290.37 915.91 300.04 914.58 308.33C913.25 316.62 906.08 332.41 905.4 340.78C903.93 359 911.09 372.25 927.74 379.78C931.85 381.64 936.4 382.89 940.86 382.26C945.32 381.63 949.68 378.79 951.15 374.52C958.48 378.19 968.04 377.82 974.26 372.52C980.48 367.22 982.02 356.69 976.62 350.52Z" fill="#263238"/>
<path d="M737.87 263.6C737.87 263.6 743.2 253.3 744.53 252.21C745.86 251.12 747.8 251.36 747.68 253.21C747.56 255.06 745.26 260.21 745.26 260.21C745.26 260.21 749.26 248.47 752.4 246.16C755.54 243.85 755.92 245.68 755.92 247.38C755.92 247.38 758.22 239.78 761.25 241.15C764.28 242.52 761.85 247.25 761.85 247.25C761.85 247.25 765.12 241.32 767.54 243.44C769.96 245.56 763.43 256.82 763.43 256.82C763.43 256.82 765.85 255.73 765.12 260.09C764.39 264.45 763.55 270.63 761.49 274.26C759.43 277.89 754.71 286.62 751.07 291.83C747.43 297.04 746.24 343.17 746.24 343.17C746.24 343.17 730.49 352.5 722.86 351.29L719.86 350.8L729.67 294.97C729.67 294.97 727.55 291.09 728.01 284.31C728.47 277.53 737.87 263.6 737.87 263.6Z" fill="#AE7461"/>
<path d="M758.241 261.629C757.341 261.778 756.432 261.858 755.521 261.869C753.831 261.989 751.521 262.199 748.981 262.599C746.441 262.999 744.171 263.509 742.531 263.899C741.655 264.166 740.758 264.36 739.851 264.479C740.674 264.068 741.543 263.756 742.441 263.549C744.559 262.919 746.717 262.428 748.901 262.079C751.085 261.739 753.29 261.545 755.501 261.499C756.416 261.434 757.336 261.478 758.241 261.629Z" fill="#6F4439"/>
<path d="M756.24 246.74C756.059 247.593 755.777 248.422 755.4 249.21C754.8 250.7 753.89 252.729 752.77 254.919C751.65 257.109 750.55 259.029 749.69 260.389C749.275 261.153 748.775 261.868 748.2 262.52C748.52 261.714 748.915 260.94 749.38 260.21C750.15 258.8 751.2 256.86 752.31 254.68C753.42 252.5 754.37 250.509 755.06 249.059C755.389 248.255 755.783 247.479 756.24 246.74Z" fill="#6F4439"/>
<path d="M762.42 246.1C762.069 246.896 761.647 247.659 761.16 248.38L757.95 253.77L754.79 259.2C754.398 259.977 753.936 260.716 753.41 261.41C753.678 260.578 754.034 259.777 754.47 259.02C755.2 257.58 756.25 255.63 757.47 253.51C758.69 251.39 759.91 249.51 760.82 248.18C761.273 247.428 761.81 246.73 762.42 246.1Z" fill="#6F4439"/>
<path d="M741.46 283.83C741.46 283.83 741.46 283.7 741.51 283.46C741.56 283.22 741.66 282.87 741.8 282.46C742.221 281.208 742.799 280.015 743.52 278.91C744.59 277.269 745.945 275.834 747.52 274.67C749.29 273.35 751.46 272.25 753.2 270.49C756.79 266.92 757.11 261.9 759.37 259.29C760.167 258.214 761.252 257.385 762.5 256.9C762.842 256.78 763.198 256.709 763.56 256.69C763.682 256.67 763.807 256.67 763.93 256.69C763.468 256.777 763.013 256.901 762.57 257.06C761.403 257.6 760.399 258.438 759.66 259.49C758.602 261.087 757.786 262.833 757.24 264.67C756.471 266.96 755.224 269.06 753.58 270.83C751.75 272.67 749.58 273.75 747.82 275.03C746.261 276.14 744.907 277.514 743.82 279.09C742.85 280.572 742.058 282.163 741.46 283.83Z" fill="#6F4439"/>
<path d="M924.65 250.38C919.08 236.31 908.86 225.98 894.52 221.15C886.43 218.43 882.52 219.05 876.17 218.76C869.82 218.47 863.52 219.93 858.44 223.76C852.44 228.33 846.83 233.81 843.76 240.76C840.61 247.86 837.45 255.01 835.65 262.57C833.85 270.13 833.49 278.2 835.93 285.57L853.67 294.81C863.93 298.47 874.34 302.16 885.2 303.01C896.06 303.86 907.61 301.56 915.84 294.42C927.24 284.51 930.24 264.45 924.65 250.38Z" fill="#263238"/>
<path d="M907.98 244.94L886.11 227.01L879.33 225.68C864.6 221.05 849.27 234.05 845.38 245.94C841.06 259.14 836.29 275.44 835.29 285.87C833.29 306.87 849.5 313.82 849.5 313.82C849.5 313.82 848.36 316.92 846.13 323.47L843.68 325.33C845.02 336.83 861.92 341.97 879.96 335.04L880.72 334.41L912.46 253.77C912.955 252.004 912.769 250.117 911.94 248.482C911.11 246.847 909.697 245.583 907.98 244.94Z" fill="#AE7461"/>
<path d="M845.94 263.27C845.761 263.942 845.85 264.657 846.19 265.264C846.53 265.871 847.093 266.322 847.76 266.52C848.082 266.632 848.424 266.678 848.764 266.656C849.105 266.634 849.437 266.544 849.742 266.391C850.047 266.238 850.318 266.025 850.539 265.766C850.761 265.506 850.928 265.205 851.03 264.88C851.211 264.209 851.122 263.494 850.784 262.888C850.447 262.281 849.886 261.83 849.22 261.63C848.898 261.517 848.556 261.471 848.214 261.493C847.873 261.515 847.54 261.605 847.234 261.758C846.929 261.911 846.657 262.123 846.434 262.383C846.212 262.642 846.044 262.944 845.94 263.27Z" fill="#263238"/>
<path d="M847.76 253.99C847.99 254.41 850.32 253.46 853.1 254.19C855.88 254.92 857.56 256.84 857.95 256.58C858.14 256.46 857.95 255.77 857.25 254.89C856.262 253.747 854.946 252.937 853.48 252.57C852.034 252.191 850.504 252.278 849.11 252.82C848.09 253.27 847.64 253.79 847.76 253.99Z" fill="#263238"/>
<path d="M858.491 281.01C858.551 280.86 856.891 280.11 854.191 279.01C853.501 278.75 852.861 278.43 852.871 277.92C852.986 277.165 853.336 276.465 853.871 275.92C854.981 274.37 856.141 272.75 857.371 271.05C862.281 264.11 866.031 258.33 865.751 258.14C865.471 257.95 861.261 263.41 856.351 270.35C855.151 272.07 854.011 273.7 852.931 275.27C852.259 276.008 851.872 276.962 851.841 277.96C851.877 278.236 851.976 278.5 852.131 278.733C852.285 278.965 852.49 279.159 852.731 279.3C853.098 279.511 853.491 279.672 853.901 279.78C856.701 280.7 858.441 281.17 858.491 281.01Z" fill="#263238"/>
<path d="M849.471 313.79C858.922 316.389 868.909 316.316 878.321 313.58C878.321 313.58 867.511 325.68 847.841 318.58L849.471 313.79Z" fill="#6F4439"/>
<path d="M851.741 244.709C852.031 245.509 854.281 245.609 856.741 246.459C859.201 247.309 861.061 248.459 861.741 248.029C862.061 247.799 861.961 247.029 861.281 246.159C860.322 244.998 859.047 244.14 857.611 243.689C856.2 243.192 854.673 243.119 853.221 243.479C852.131 243.799 851.621 244.329 851.741 244.709Z" fill="#263238"/>
<path d="M875.53 271.5C875.341 272.169 874.896 272.737 874.292 273.081C873.688 273.425 872.972 273.518 872.3 273.34C871.966 273.27 871.65 273.134 871.37 272.94C871.089 272.746 870.851 272.497 870.669 272.208C870.487 271.92 870.365 271.598 870.31 271.261C870.256 270.925 870.269 270.581 870.35 270.25C870.544 269.581 870.991 269.015 871.596 268.671C872.201 268.327 872.917 268.234 873.59 268.41C873.923 268.48 874.238 268.617 874.517 268.812C874.796 269.007 875.033 269.256 875.214 269.544C875.395 269.832 875.517 270.154 875.571 270.49C875.625 270.826 875.611 271.169 875.53 271.5Z" fill="#263238"/>
<path d="M885.08 264.709C884.66 264.949 883.15 262.929 880.4 262.119C877.65 261.309 875.22 262.119 875.02 261.649C874.92 261.449 875.42 260.949 876.49 260.569C877.931 260.111 879.479 260.111 880.92 260.569C882.35 260.999 883.61 261.866 884.52 263.049C885.17 263.919 885.24 264.609 885.08 264.709Z" fill="#263238"/>
<path d="M886.241 255.43C885.511 255.89 883.581 254.61 881.041 253.81C878.501 253.01 876.201 252.81 875.901 252.02C875.781 251.64 876.301 251.11 877.431 250.8C878.938 250.479 880.504 250.565 881.968 251.048C883.431 251.531 884.74 252.394 885.761 253.55C886.451 254.46 886.551 255.2 886.241 255.43Z" fill="#263238"/>
<path d="M898.46 285.959C898.85 284.459 901.46 281.369 903.04 281.519C907.16 281.929 914.21 284.099 911.67 294.159C908.2 307.919 891.98 301.159 892.05 300.759C892.12 300.359 897.1 291.129 898.46 285.959Z" fill="#AE7461"/>
<path d="M900.24 297.13C900.31 297.13 900.44 297.36 900.8 297.65C901.309 298.034 901.946 298.209 902.58 298.14C904.17 297.97 905.97 295.97 906.67 293.51C907.003 292.339 907.068 291.109 906.86 289.91C906.839 289.447 906.706 288.995 906.473 288.595C906.24 288.194 905.913 287.856 905.52 287.61C905.263 287.47 904.965 287.423 904.677 287.478C904.389 287.532 904.128 287.685 903.94 287.91C903.66 288.25 903.68 288.55 903.6 288.55C903.52 288.55 903.36 288.25 903.6 287.71C903.756 287.385 904.022 287.126 904.35 286.98C904.806 286.798 905.314 286.798 905.77 286.98C906.313 287.23 906.783 287.617 907.133 288.102C907.484 288.588 907.703 289.155 907.77 289.75C908.053 291.074 908.009 292.447 907.64 293.75C906.85 296.5 904.78 298.75 902.64 298.81C902.244 298.825 901.85 298.75 901.487 298.593C901.123 298.436 900.8 298.199 900.54 297.9C900.18 297.47 900.24 297.14 900.24 297.13Z" fill="#6F4439"/>
<path d="M903.581 281.739L899.021 284.199C888.731 265.309 871.091 220.609 872.021 223.199C872.021 223.199 883.491 222.259 893.901 227.639C904.311 233.019 923.441 245.18 918.981 258.069C914.521 270.959 903.581 281.739 903.581 281.739Z" fill="#263238"/>
<path d="M923.49 283.21C923.521 282.937 923.521 282.662 923.49 282.39C923.468 281.601 923.384 280.815 923.24 280.04C922.633 277.176 921.408 274.48 919.65 272.14C917.042 268.668 913.86 265.668 910.24 263.27C906.24 260.44 901.61 257.74 897.37 254.1C893.346 250.73 889.722 246.908 886.57 242.71C884.012 239.281 881.766 235.63 879.86 231.8C878.593 229.216 877.474 226.562 876.51 223.85L875.75 221.63C875.678 221.361 875.574 221.103 875.44 220.86C875.47 221.135 875.527 221.406 875.61 221.67C875.75 222.19 875.94 222.96 876.24 223.94C877.114 226.698 878.173 229.394 879.41 232.01C881.266 235.904 883.486 239.614 886.04 243.09C889.196 247.354 892.845 251.231 896.91 254.64C901.21 258.32 905.91 261.01 909.91 263.8C913.508 266.129 916.697 269.035 919.35 272.4C921.107 274.672 922.374 277.283 923.07 280.07C923.45 282.07 923.41 283.21 923.49 283.21Z" fill="#455A64"/>
<path d="M919.541 285.879C919.894 284.88 920.034 283.817 919.951 282.759C919.777 279.852 918.732 277.064 916.951 274.759C914.811 271.759 911.201 269.179 907.101 266.759C902.59 264.269 898.37 261.284 894.521 257.859C890.719 254.397 887.36 250.477 884.521 246.189C882.197 242.68 880.227 238.948 878.641 235.049C877.582 232.417 876.687 229.722 875.961 226.979L875.421 224.729C875.379 224.459 875.298 224.196 875.181 223.949C875.185 224.219 875.218 224.487 875.281 224.749C875.381 225.359 875.521 226.109 875.691 227.049C876.31 229.837 877.135 232.575 878.161 235.239C881.591 244.087 887.03 252.015 894.051 258.399C897.938 261.854 902.21 264.85 906.781 267.329C910.881 269.709 914.431 272.199 916.561 275.069C918.342 277.268 919.447 279.936 919.741 282.749C919.768 283.797 919.701 284.844 919.541 285.879Z" fill="#455A64"/>
<path d="M866.48 285.09C866.9 284.936 867.358 284.915 867.79 285.03C868.163 285.205 868.466 285.501 868.65 285.87C869.139 286.709 869.364 287.676 869.298 288.646C869.232 289.615 868.876 290.542 868.278 291.307C867.679 292.073 866.865 292.641 865.94 292.939C865.016 293.237 864.023 293.251 863.09 292.98C861.24 292.44 859.34 290.75 859.2 287.07C861.47 286.5 864.24 285.65 866.48 285.09Z" fill="#6F4439"/>
<path d="M862.921 293.11C863.937 293.2 864.961 293.067 865.921 292.72C866.928 292.312 867.755 291.556 868.251 290.59C868.543 290.002 868.711 289.36 868.743 288.704C868.776 288.049 868.673 287.394 868.441 286.78C868.181 286.15 867.811 285.5 867.311 285.44C866.681 285.456 866.057 285.568 865.461 285.77L862.131 286.6C861.116 286.913 860.07 287.115 859.011 287.2C859.966 286.726 860.973 286.364 862.011 286.12L865.311 285.12C865.987 284.858 866.706 284.726 867.431 284.73C867.873 284.815 868.264 285.07 868.521 285.44C868.759 285.765 868.951 286.121 869.091 286.5C869.359 287.202 869.473 287.953 869.427 288.704C869.38 289.454 869.173 290.186 868.821 290.85C868.238 291.933 867.266 292.755 866.101 293.15C864.121 293.84 862.861 293.15 862.921 293.11Z" fill="#263238"/>
<path d="M927.31 265.199C927.385 265.692 927.419 266.191 927.41 266.689C927.444 267.276 927.444 267.863 927.41 268.449C927.41 269.139 927.35 269.919 927.23 270.779C927.23 271.209 927.13 271.659 927.08 272.119C927.03 272.579 926.91 273.119 926.82 273.569C926.67 274.569 926.37 275.629 926.11 276.739C925.454 279.138 924.605 281.479 923.57 283.739C922.506 285.984 921.245 288.129 919.8 290.149C919.07 291.039 918.45 291.939 917.74 292.659L916.74 293.749L915.74 294.679C915.175 295.212 914.577 295.71 913.95 296.169C913.68 296.379 913.42 296.569 913.19 296.759L912.5 297.179C912.09 297.467 911.655 297.718 911.2 297.929C911.13 297.819 913.01 296.779 915.48 294.409L916.48 293.469L917.48 292.379C918.18 291.649 918.78 290.749 919.48 289.869C920.88 287.856 922.115 285.733 923.17 283.519C924.193 281.287 925.046 278.981 925.72 276.619C925.99 275.529 926.3 274.489 926.47 273.499C926.56 273.009 926.66 272.499 926.75 272.069C926.84 271.639 926.88 271.169 926.94 270.739C927.08 269.889 927.13 269.119 927.19 268.439C927.256 267.862 927.293 267.281 927.3 266.699C927.257 266.2 927.261 265.698 927.31 265.199Z" fill="#455A64"/>
<path d="M718.96 344.97L714.1 358.89C711.919 362.32 711.026 366.413 711.58 370.44C712.58 376.9 712.85 387.06 725.36 389.38C737.87 391.7 794.83 386.8 794.83 386.8C794.83 386.8 828.83 323.8 828.57 324.57C822.023 324.724 815.552 326.02 809.45 328.4C805.659 330.045 802.047 332.076 798.67 334.46C790.299 340.119 780.882 344.05 770.97 346.02C759.78 348.27 747.28 350.8 747.71 350.8L748.97 339.37L718.96 344.97Z" fill="#F7B94E"/>
<path d="M890.67 452.43L912.55 341.5L886.79 332.11L885.02 322.9L851.02 335.08L847.24 320.18L839.71 324.46L828.43 324.57C828.43 324.57 795.59 369.98 792.69 397.05C791.2 410.98 797.59 444.05 797.59 444.05L796.33 471.27L791.98 482.9C790.55 486.74 791.4 489.4 794.79 491.7L900.79 491.45C902.549 489.067 903.608 486.239 903.846 483.287C904.085 480.335 903.494 477.374 902.14 474.74L890.67 452.43Z" fill="#F7B94E"/>
<path opacity="0.3" d="M837.35 326.59C837.35 326.59 831.44 339.74 837.35 348.04L849.24 340.32L851.9 354.47C851.9 354.47 878.04 349.27 885.74 333.59C885.74 333.59 867.4 350.59 852.19 350.8L850.47 337.17L838.67 344.17C838.67 344.17 837.45 332.74 837.35 326.59Z" fill="black"/>
<g opacity="0.3">
<path d="M901.76 474L837.17 489.32C836.174 489.556 835.14 489.594 834.129 489.431C833.117 489.268 832.148 488.907 831.276 488.37C830.404 487.832 829.647 487.128 829.047 486.297C828.447 485.467 828.017 484.526 827.78 483.53L804.78 386.6C804.544 385.602 804.507 384.568 804.67 383.556C804.834 382.544 805.196 381.575 805.734 380.703C806.273 379.83 806.978 379.073 807.81 378.474C808.641 377.874 809.583 377.445 810.58 377.21L878.14 361.21C880.155 360.732 882.276 361.073 884.039 362.159C885.801 363.245 887.061 364.986 887.54 367L895.62 462.1C897.02 464.71 901.76 474 901.76 474Z" fill="black"/>
</g>
<path d="M880.949 354.809L814.037 370.688C809.663 371.726 806.959 376.113 807.997 380.487L830.842 476.754C831.88 481.128 836.267 483.832 840.641 482.794L907.553 466.915C911.927 465.877 914.632 461.49 913.594 457.116L890.748 360.849C889.71 356.475 885.323 353.771 880.949 354.809Z" fill="#E0E0E0"/>
<path d="M907.53 466.96L907.77 466.88C907.93 466.82 908.18 466.77 908.48 466.64C909.674 466.184 910.744 465.453 911.603 464.506C912.461 463.559 913.084 462.423 913.42 461.19C913.689 460.214 913.767 459.195 913.65 458.19C913.52 457.13 913.19 456.01 912.92 454.82L903.24 414.56L896.6 386.73L892.95 371.27C892.32 368.61 891.67 365.9 891.02 363.16C890.78 361.783 890.377 360.441 889.82 359.16C889.17 357.906 888.195 356.851 886.997 356.105C885.799 355.359 884.421 354.95 883.01 354.92C881.562 354.989 880.128 355.238 878.74 355.66L870 357.74L852 362.02L814.11 371.02C812.539 371.395 811.122 372.244 810.049 373.451C808.976 374.658 808.299 376.166 808.11 377.77C808.023 379.382 808.236 380.996 808.74 382.53C809.12 384.12 809.5 385.71 809.87 387.29L814.24 405.93C817.14 418.17 819.94 429.93 822.6 441.24L830.24 473.19C830.53 474.44 830.83 475.68 831.12 476.9C831.572 478.657 832.612 480.206 834.068 481.289C835.524 482.372 837.307 482.923 839.12 482.85C840.28 482.727 841.428 482.506 842.55 482.19L845.93 481.39L852.46 479.85L892.78 470.37L903.78 467.82L906.64 467.17C907.28 467.02 907.64 466.96 907.64 466.96C907.64 466.96 907.32 467.06 906.64 467.22L903.8 467.92L892.85 470.57L852.57 480.21L846.04 481.77L842.66 482.57C841.512 482.898 840.338 483.125 839.15 483.25C837.9 483.299 836.655 483.068 835.505 482.573C834.356 482.078 833.333 481.332 832.51 480.39C831.669 479.412 831.06 478.256 830.73 477.01C830.43 475.78 830.14 474.54 829.84 473.29C827.45 463.29 824.91 452.6 822.23 441.35C819.55 430.1 816.75 418.29 813.84 406.05C812.394 399.923 810.917 393.696 809.41 387.37C809.03 385.79 808.66 384.2 808.28 382.61C808.1 381.81 807.89 381.03 807.73 380.2C807.563 379.367 807.529 378.513 807.63 377.67C807.83 375.962 808.549 374.356 809.69 373.07C810.271 372.429 810.945 371.879 811.69 371.44C812.43 370.991 813.232 370.654 814.07 370.44L851.97 361.44L869.97 357.17L878.71 355.1L880.86 354.59C881.593 354.41 882.346 354.329 883.1 354.35C884.596 354.386 886.055 354.822 887.325 355.614C888.594 356.405 889.629 357.523 890.32 358.85C890.651 359.501 890.903 360.189 891.07 360.9C891.23 361.59 891.4 362.28 891.56 362.97L893.48 371.08L897.14 386.58C899.51 396.58 901.71 405.91 903.71 414.42C907.71 431.42 910.95 445.21 913.2 454.75C913.46 455.94 913.78 457.05 913.91 458.14C914.011 459.147 913.923 460.164 913.65 461.14C913.212 462.692 912.329 464.083 911.11 465.14C910.365 465.782 909.508 466.281 908.58 466.61C908.239 466.751 907.888 466.868 907.53 466.96Z" fill="#263238"/>
<path d="M869.005 418.468C869.744 413.922 866.659 409.637 862.112 408.897C857.566 408.158 853.281 411.244 852.541 415.79C851.802 420.336 854.888 424.621 859.434 425.361C863.98 426.1 868.265 423.015 869.005 418.468Z" fill="white"/>
<path opacity="0.3" d="M821.24 442.62C821.05 442.55 823.13 447.38 829.84 449.16C836.55 450.94 851.35 450.93 854.12 451.92C856.89 452.91 912.53 463.62 912.53 463.62C912.53 463.62 913.86 462.93 914.14 457.36C914.42 451.79 821.24 442.62 821.24 442.62Z" fill="black"/>
<path d="M838.011 390.699C837.961 390.468 837.858 390.251 837.709 390.066C837.56 389.881 837.37 389.735 837.154 389.637C836.938 389.54 836.702 389.495 836.465 389.505C836.228 389.516 835.997 389.583 835.791 389.699C833.711 390.899 830.791 393.789 831.311 399.699C831.534 403.269 832.56 406.741 834.311 409.859L817.311 411.749C817.311 411.749 811.311 413.429 812.191 417.059C813.071 420.689 813.881 420.429 813.881 420.429C813.326 420.475 812.788 420.636 812.299 420.902C811.81 421.168 811.382 421.532 811.043 421.973C810.703 422.413 810.459 422.92 810.326 423.46C810.193 424 810.174 424.562 810.271 425.109C810.471 427.629 813.441 429.449 813.441 429.449C813.441 429.449 812.501 433.789 813.161 434.729C813.821 435.669 817.871 437.429 817.871 437.429C817.871 437.429 817.061 440.229 818.811 441.559C820.561 442.889 829.691 445.099 829.691 445.099C829.691 445.099 849.261 446.099 853.421 446.099L873.151 450.629V427.349C873.151 427.349 856.971 424.349 856.081 423.349C854.191 421.179 843.721 406.349 843.721 406.349C843.721 406.349 839.671 401.349 838.831 397.569C838.439 395.295 838.165 393.002 838.011 390.699Z" fill="#AE7461"/>
<path d="M823.841 420.14C820.47 420.359 817.087 420.326 813.721 420.04C815.402 419.874 817.093 419.827 818.781 419.9C820.471 419.857 822.162 419.938 823.841 420.14Z" fill="#6F4439"/>
<path d="M825.641 430.269C825.045 430.357 824.441 430.377 823.841 430.329C822.731 430.329 821.191 430.239 819.491 430.099C817.791 429.959 816.261 429.779 815.161 429.619C814.556 429.569 813.959 429.452 813.381 429.269C813.982 429.232 814.585 429.259 815.181 429.349L819.511 429.719L823.841 430.059C824.446 430.067 825.05 430.138 825.641 430.269Z" fill="#6F4439"/>
<path d="M824.551 438.579C823.426 438.538 822.31 438.373 821.221 438.09C820.11 437.918 819.021 437.63 817.971 437.229C819.093 437.259 820.208 437.424 821.291 437.72C822.406 437.884 823.499 438.173 824.551 438.579Z" fill="#6F4439"/>
<path d="M911.91 341.27C911.91 341.27 914.96 341.35 920.47 349.62C925.98 357.89 943.24 428.89 944.24 436.47C945.6 446.02 941.24 460.72 931.41 461.94C918.37 463.57 856.07 449.27 856.07 449.27L864.19 423.27L906.06 425.58C906.06 425.58 900.44 399.3 898.21 392.58C894.55 381.4 896.9 345.79 911.91 341.27Z" fill="#F7B94E"/>
<path d="M809.121 351.699C809.088 351.854 809.031 352.003 808.951 352.139L808.371 353.379C807.821 354.519 807.081 356.049 806.191 357.909C804.381 361.739 801.961 367.079 799.601 373.099C797.241 379.119 795.371 384.679 794.211 388.749C793.641 390.749 793.211 392.459 792.941 393.609C792.821 394.139 792.711 394.609 792.621 394.939C792.596 395.096 792.549 395.247 792.481 395.389C792.452 395.234 792.452 395.075 792.481 394.919C792.541 394.549 792.611 394.099 792.701 393.569C792.921 392.399 793.291 390.709 793.821 388.659C795.263 383.312 797.016 378.053 799.071 372.909C801.441 366.909 803.921 361.549 805.821 357.749C806.821 355.849 807.571 354.319 808.151 353.289C808.411 352.809 808.641 352.419 808.821 352.099C808.905 351.955 809.005 351.821 809.121 351.699Z" fill="#263238"/>
<path d="M886.44 332.74C886.297 332.965 886.137 333.179 885.96 333.379C885.63 333.769 885.18 334.38 884.49 335.12C882.596 337.202 880.503 339.095 878.24 340.77C874.841 343.297 871.147 345.403 867.24 347.039C862.439 349.1 857.362 350.448 852.17 351.039H851.92V350.789L851.51 347.569C851.06 343.979 850.63 340.49 850.21 337.16L850.59 337.349L838.77 344.289L838.52 344.44L838.45 344.15C837.409 339.713 837.015 335.149 837.28 330.599C837.38 328.969 837.54 327.689 837.67 326.829C837.74 326.399 837.8 326.069 837.84 325.829C837.852 325.716 837.879 325.606 837.92 325.5C837.936 325.612 837.936 325.727 837.92 325.84C837.92 326.1 837.85 326.42 837.81 326.84C837.72 327.7 837.6 328.969 837.54 330.599C837.361 335.12 837.812 339.643 838.88 344.039L838.56 343.91L850.34 336.91L850.68 336.72V337.099C851.1 340.419 851.55 343.909 852 347.509C852.14 348.609 852.28 349.7 852.4 350.72L852.12 350.5C861.446 349.414 870.342 345.973 877.97 340.5C880.243 338.859 882.365 337.018 884.31 335C885.02 334.31 885.48 333.689 885.85 333.319C886.034 333.113 886.231 332.919 886.44 332.74Z" fill="#263238"/>
<path d="M741.38 371.849C741.359 371.549 741.376 371.246 741.43 370.949C741.49 370.369 741.61 369.529 741.79 368.509C742.271 365.833 742.916 363.188 743.72 360.59C744.519 357.992 745.481 355.447 746.6 352.97C747.03 352.03 747.4 351.27 747.67 350.75C747.791 350.471 747.953 350.211 748.15 349.979C747.807 351.048 747.403 352.097 746.94 353.12C746.16 355.04 745.16 357.73 744.22 360.75C743.28 363.77 742.6 366.549 742.16 368.579C741.97 369.685 741.71 370.777 741.38 371.849Z" fill="#263238"/>
<path d="M689.54 386.81H646.28V460.52H689.54V386.81Z" fill="white"/>
<path d="M689.54 460.52C689.54 460.52 689.54 460.39 689.54 460.15C689.54 459.91 689.54 459.55 689.54 459.1C689.54 458.15 689.54 456.79 689.54 455.03C689.54 451.47 689.54 446.3 689.47 439.79C689.47 426.79 689.4 408.38 689.36 386.79L689.6 387.03H646.34L646.6 386.77C646.6 414.87 646.55 440.65 646.54 460.48L646.34 460.28L677.86 460.38L686.53 460.43H688.81C689.32 460.43 689.6 460.43 689.6 460.43H688.85H686.61H677.98L646.34 460.54H646.14V460.34C646.14 440.51 646.14 414.73 646.08 386.63V386.37H646.24H689.5H689.74V386.61C689.74 408.24 689.65 426.69 689.62 439.75C689.62 446.24 689.62 451.39 689.56 454.93C689.56 456.67 689.56 458.02 689.56 458.93V459.93C689.55 460.41 689.54 460.52 689.54 460.52Z" fill="#263238"/>
<path d="M682.79 390.41H587.5C585.954 390.41 584.7 391.663 584.7 393.21V468.17C584.7 469.716 585.954 470.97 587.5 470.97H682.79C684.337 470.97 685.59 469.716 685.59 468.17V393.21C685.59 391.663 684.337 390.41 682.79 390.41Z" fill="#455A64"/>
<path d="M570.04 287.27L569.04 203.66C568.11 182.88 579.43 165.01 600.24 164.66L602.16 164.74C611.501 165.125 620.355 169.012 626.959 175.63C633.563 182.247 637.434 191.108 637.8 200.45C638.51 218.45 639.06 238.39 638.54 248.02C637.45 267.97 617.37 270.27 617.37 270.27C617.37 270.27 617.25 282.41 616.43 288.62L621.12 302.27L590.46 309.63L570.04 287.27Z" fill="#FFBF9D"/>
<path d="M617.37 270.27C617.37 270.27 604.76 270.49 591.71 261.52C591.71 261.52 597.34 276.78 617.32 275.8L617.37 270.27Z" fill="#FF9A6C"/>
<path d="M613.12 232.57C613.12 232.4 615.03 232.15 618.12 231.88C618.9 231.83 619.65 231.71 619.8 231.18C619.9 230.375 619.754 229.559 619.38 228.84L617.31 222.78C614.44 214.16 612.41 207.08 612.75 206.97C613.09 206.86 615.75 213.75 618.57 222.38C619.26 224.5 619.91 226.53 620.57 228.46C621.024 229.424 621.123 230.519 620.85 231.55C620.722 231.82 620.536 232.058 620.304 232.247C620.072 232.435 619.801 232.57 619.51 232.64C619.075 232.747 618.627 232.791 618.18 232.77C615.05 232.81 613.12 232.75 613.12 232.57Z" fill="#263238"/>
<path d="M570.04 218.52C569.7 218.36 556.5 213.9 556.37 227.52C556.24 241.14 569.98 238.52 570.01 238.1C570.04 237.68 570.04 218.52 570.04 218.52Z" fill="#FFBF9D"/>
<path d="M565.88 232.92C565.82 232.92 565.64 233.09 565.24 233.27C564.669 233.5 564.031 233.5 563.46 233.27C562.02 232.73 560.83 230.42 560.79 227.96C560.76 226.789 560.996 225.627 561.48 224.56C561.613 224.134 561.847 223.747 562.162 223.432C562.477 223.117 562.864 222.883 563.29 222.75C563.564 222.682 563.854 222.711 564.11 222.833C564.365 222.956 564.57 223.163 564.69 223.42C564.87 223.8 564.78 224.07 564.85 224.1C564.92 224.13 565.15 223.87 565.04 223.31C564.972 222.969 564.784 222.664 564.51 222.45C564.138 222.161 563.667 222.032 563.2 222.09C562.638 222.196 562.113 222.443 561.674 222.809C561.234 223.175 560.896 223.647 560.69 224.18C560.1 225.358 559.805 226.662 559.83 227.98C559.9 230.73 561.28 233.32 563.25 233.91C563.615 234.021 564.001 234.048 564.378 233.989C564.756 233.93 565.115 233.787 565.43 233.57C565.85 233.27 565.93 232.95 565.88 232.92Z" fill="#FF9A6C"/>
<path d="M645.97 194.34C637.4 195.66 628.62 195.03 621.78 189.71C619.797 188.157 617.962 186.423 616.3 184.53C613.3 181.09 610.9 176.8 606.81 174.72C601.54 172.04 595.2 173.87 589.6 175.72L589.84 175.51C586.909 176.827 584.258 178.694 582.03 181.01C583.382 194.243 581.316 207.603 576.03 219.81C575.604 220.815 574.799 221.612 573.79 222.03C570.59 223.3 571.58 219.03 569.2 218.23C567.38 217.6 566.5 217.99 562.87 217.88C561.61 214.45 560.87 205.1 559.81 200.05C556.81 196.88 554.05 191.05 553.94 186.42C553.83 181.79 556.38 175.99 556.38 175.99C559.84 169.42 561.85 166.06 567.16 164.24L567.28 164.29C572.05 162.43 577.9 162.47 581.76 165.81C582.76 158.7 589.12 153.13 596.09 151.39C603.06 149.65 614.2 150.86 620.84 153.62C625.37 155.5 629.75 159.08 634.84 164.24C635.51 164.92 636.2 165.63 636.9 166.37L637.07 166.56C638.65 167.477 640.418 168.025 642.24 168.16C645.24 168.5 647.16 167.55 649.24 165.3C649.87 164.61 650.66 163.75 651.54 164.03C651.806 164.153 652.04 164.337 652.224 164.566C652.408 164.795 652.537 165.063 652.6 165.35C653.6 168.35 652.27 171.67 650.03 173.85C648.941 174.886 647.691 175.74 646.33 176.38C647.767 177.991 649.704 179.072 651.83 179.45C652.76 179.601 653.65 179.941 654.444 180.448C655.238 180.956 655.921 181.62 656.45 182.4C657.004 183.182 657.31 184.112 657.33 185.07C657.29 190.86 651.55 193.48 645.97 194.34Z" fill="#263238"/>
<path d="M649.63 188.36L649.47 188.5L648.96 188.85C648.691 189.052 648.407 189.232 648.11 189.39C647.717 189.622 647.309 189.829 646.89 190.01C644.194 191.196 641.246 191.694 638.31 191.46C633.95 191.117 629.782 189.519 626.31 186.86C622.114 183.578 618.633 179.474 616.08 174.8C614.66 172.36 613.5 169.87 612.22 167.56C611.054 165.316 609.572 163.252 607.82 161.43C606.243 159.781 604.276 158.556 602.1 157.87C601.126 157.584 600.114 157.452 599.1 157.48C598.152 157.524 597.214 157.692 596.31 157.98C593.556 158.899 591.244 160.814 589.83 163.35C589.358 164.305 588.999 165.312 588.76 166.35C588.76 166.35 588.76 166.28 588.76 166.14C588.76 166 588.82 165.78 588.86 165.53C589.037 164.752 589.302 163.997 589.65 163.28C590.233 162.16 591.001 161.146 591.92 160.28C593.143 159.125 594.599 158.245 596.19 157.7C597.121 157.388 598.09 157.204 599.07 157.15C600.132 157.112 601.195 157.237 602.22 157.52C604.467 158.213 606.503 159.462 608.14 161.15C609.923 163 611.435 165.094 612.63 167.37C613.93 169.69 615.08 172.18 616.5 174.6C619.023 179.22 622.451 183.284 626.58 186.55C629.987 189.178 634.074 190.777 638.36 191.16C641.245 191.421 644.151 190.982 646.83 189.88C648.69 189.03 649.59 188.27 649.63 188.36Z" fill="#455A64"/>
<path d="M651.55 179.6C651.329 179.793 651.083 179.957 650.82 180.09C650.141 180.499 649.429 180.851 648.69 181.14C647.601 181.595 646.473 181.953 645.32 182.21C643.903 182.515 642.46 182.689 641.01 182.73C639.563 182.745 638.117 182.631 636.69 182.39C635.526 182.177 634.382 181.866 633.27 181.46C632.523 181.182 631.797 180.848 631.1 180.46C630.6 180.19 630.34 180.03 630.36 180C630.38 179.97 631.49 180.5 633.36 181.11C634.466 181.462 635.596 181.733 636.74 181.92C638.142 182.142 639.561 182.242 640.98 182.22C642.401 182.179 643.816 182.022 645.21 181.75C646.346 181.494 647.462 181.16 648.55 180.75C650.43 180.15 651.5 179.52 651.55 179.6Z" fill="#455A64"/>
<path d="M575.14 189.99C575.274 190.406 575.334 190.843 575.32 191.28C575.386 192.47 575.363 193.663 575.25 194.85C575.2 195.702 575.063 196.546 574.84 197.37C574.746 197.66 574.564 197.913 574.317 198.093C574.071 198.273 573.774 198.37 573.47 198.37C572.892 198.3 572.356 198.035 571.95 197.62L567.07 193.1L567.79 192.68C568.01 193.68 568.25 194.61 568.49 195.61C569.14 198.37 569.75 200.99 570.31 203.38L570.61 204.69L569.61 203.77C567.53 201.796 565.723 199.553 564.24 197.1C563.602 196.179 563.106 195.168 562.77 194.1C562.97 193.96 565.08 198.48 570.2 203.16L569.54 203.55C568.96 201.16 568.32 198.55 567.65 195.8C567.41 194.8 567.18 193.8 566.95 192.86L566.62 191.44L567.62 192.44L572.42 197.02C572.686 197.315 573.034 197.524 573.42 197.62C573.581 197.619 573.737 197.566 573.865 197.469C573.993 197.371 574.086 197.235 574.13 197.08C574.357 196.319 574.514 195.539 574.6 194.75C575.09 191.82 575.01 190 575.14 189.99Z" fill="#455A64"/>
<path d="M612.51 240.42C612.28 240.42 602.06 236.42 602.06 236.42C602.06 236.42 599.06 242.33 602.68 245.04C606.3 247.75 610.62 246.04 611.31 244.43C611.813 243.126 612.215 241.786 612.51 240.42Z" fill="#FF9A6C"/>
<path d="M610.24 245.57C609.769 245.747 609.288 245.897 608.8 246.02C607.464 246.205 606.105 246.123 604.8 245.78C604.131 245.606 603.507 245.293 602.967 244.861C602.427 244.429 601.984 243.889 601.667 243.275C601.35 242.66 601.166 241.986 601.127 241.296C601.088 240.606 601.195 239.916 601.44 239.27C601.66 238.354 601.996 237.47 602.44 236.64L601.92 236.83C605.02 237.99 607.75 238.98 609.71 239.65C610.737 240.083 611.811 240.395 612.91 240.58C611.968 239.987 610.962 239.504 609.91 239.14C608 238.33 605.31 237.24 602.22 236.03L601.88 235.9L601.7 236.22C601.215 237.118 600.848 238.076 600.61 239.07C600.362 239.884 600.281 240.741 600.37 241.587C600.459 242.434 600.718 243.255 601.13 244C601.966 245.196 603.193 246.062 604.6 246.45C606.002 246.759 607.456 246.742 608.85 246.4C609.87 246.11 610.24 245.59 610.24 245.57Z" fill="#263238"/>
<path d="M630.07 218.97C630.049 219.725 629.735 220.442 629.193 220.969C628.652 221.495 627.926 221.79 627.17 221.79C626.802 221.8 626.434 221.737 626.09 221.604C625.746 221.471 625.432 221.27 625.167 221.014C624.901 220.758 624.69 220.451 624.544 220.112C624.399 219.773 624.323 219.409 624.32 219.04C624.339 218.285 624.651 217.566 625.19 217.038C625.73 216.509 626.455 216.212 627.21 216.21C627.581 216.198 627.95 216.26 628.296 216.393C628.642 216.526 628.957 216.728 629.224 216.985C629.491 217.242 629.703 217.551 629.848 217.892C629.994 218.232 630.069 218.599 630.07 218.97Z" fill="#263238"/>
<path d="M631.85 209.07C631.48 209.43 629.37 207.71 626.27 207.59C623.17 207.47 620.84 208.94 620.52 208.59C620.36 208.42 620.75 207.74 621.77 207.06C623.142 206.173 624.758 205.74 626.39 205.82C628.007 205.883 629.56 206.465 630.82 207.48C631.74 208.21 632.03 208.91 631.85 209.07Z" fill="#263238"/>
<path d="M601.57 217.67C601.552 218.424 601.24 219.141 600.699 219.668C600.159 220.195 599.435 220.49 598.68 220.49C598.311 220.502 597.942 220.44 597.597 220.307C597.252 220.174 596.937 219.974 596.67 219.718C596.404 219.461 596.191 219.154 596.045 218.815C595.899 218.475 595.823 218.109 595.82 217.74C595.839 216.984 596.151 216.266 596.69 215.738C597.23 215.209 597.955 214.912 598.71 214.91C599.08 214.899 599.449 214.962 599.794 215.096C600.139 215.23 600.454 215.431 600.721 215.688C600.987 215.945 601.2 216.253 601.345 216.593C601.491 216.933 601.568 217.299 601.57 217.67Z" fill="#263238"/>
<path d="M601.48 208.53C601.1 208.89 598.99 207.17 595.89 207.05C592.79 206.93 590.47 208.4 590.15 208C589.99 207.82 590.38 207.15 591.4 206.46C592.779 205.593 594.394 205.177 596.02 205.27C597.632 205.332 599.181 205.91 600.44 206.92C601.36 207.66 601.66 208.36 601.48 208.53Z" fill="#263238"/>
<path d="M602.88 198.76C602.42 199.54 599.46 198.58 595.8 198.34C592.14 198.1 589.08 198.56 588.74 197.72C588.59 197.32 589.24 196.62 590.55 196.03C592.279 195.301 594.16 195.002 596.03 195.16C597.904 195.283 599.721 195.852 601.33 196.82C602.54 197.6 603.08 198.39 602.88 198.76Z" fill="#263238"/>
<path d="M632.37 199.86C631.71 200.55 629.2 199.74 626.17 199.63C623.14 199.52 620.56 199.96 619.99 199.2C619.74 198.83 620.16 198.12 621.3 197.48C622.868 196.693 624.62 196.348 626.37 196.48C628.119 196.538 629.817 197.078 631.28 198.04C632.33 198.77 632.66 199.52 632.37 199.86Z" fill="#263238"/>
<path d="M581.32 340.37C588.18 346.92 642.23 373.31 669.12 371.68C696.01 370.05 729.82 297.54 729.82 297.54L704.15 282.87L697.63 292.27L660.15 329.27C660.15 329.27 620.24 299.98 611.67 294.68C603.1 289.38 588.86 273.09 568.49 290.61C548.12 308.13 567.31 327 581.32 340.37Z" fill="#F7B94E"/>
<path d="M708.88 278.37C708.88 278.37 703.06 273.73 702.66 270.97C702.26 268.21 702.86 265.45 701.97 263.77C701.08 262.09 705.13 261.21 707.2 263.77C709.27 266.33 710.95 268.21 710.95 268.21C710.95 268.21 713.12 254.6 714.1 250.66C715.08 246.72 716.67 236.95 717.1 233.66C717.53 230.37 718.48 225.77 720.35 225.77H720.85C720.85 225.77 723.02 225.97 722.62 227.84C722.62 227.84 723.51 218.67 727.95 218.97C727.95 218.97 730.71 218.97 730.31 223.41C729.91 227.85 729.13 233.56 729.13 233.56L732.13 222.81C732.13 222.81 732.42 219.46 735.38 219.95C738.34 220.44 737.95 223.11 737.38 227.64C736.81 232.17 734.92 242.73 734.92 242.73C734.92 242.73 738.86 229.03 740.44 228.04C742.02 227.05 744.78 226.95 743.89 231.98C743 237.01 740.74 247.86 740.74 247.86C740.74 247.86 740.14 265.21 739.36 268.96C738.58 272.71 727.36 296.15 727.36 296.15L707.34 284.8C707.34 284.8 710.95 280.73 710.65 280.44C710.35 280.15 708.88 278.37 708.88 278.37Z" fill="#FFBF9D"/>
<path d="M710.77 268.12C710.755 269.124 710.672 270.127 710.52 271.12C710.528 272.124 710.458 273.127 710.31 274.12C709.944 273.147 709.837 272.096 710 271.07C709.991 270.036 710.257 269.018 710.77 268.12Z" fill="#FF9A6C"/>
<path d="M719.54 246.5C719.458 245.517 719.481 244.528 719.61 243.55C719.74 241.73 720.01 239.22 720.48 236.48C720.95 233.74 721.48 231.28 721.99 229.48C722.205 228.517 722.51 227.576 722.9 226.67C722.789 227.649 722.605 228.618 722.35 229.57C721.97 231.34 721.46 233.8 720.99 236.57C720.52 239.34 720.2 241.78 719.99 243.57C719.914 244.556 719.763 245.536 719.54 246.5Z" fill="#FF9A6C"/>
<path d="M726.82 246.5C726.718 245.713 726.718 244.916 726.82 244.13C726.961 242.235 727.205 240.349 727.55 238.48C727.886 236.606 728.316 234.75 728.84 232.92C729.009 232.148 729.278 231.402 729.64 230.7C729.564 231.485 729.416 232.261 729.2 233.02C728.88 234.43 728.46 236.39 728.06 238.57C727.66 240.75 727.38 242.73 727.18 244.17C727.128 244.955 727.008 245.735 726.82 246.5Z" fill="#FF9A6C"/>
<path d="M733.88 248.81C733.841 245.964 734.461 243.147 735.69 240.58C735.494 241.971 735.203 243.348 734.82 244.7C734.593 246.088 734.279 247.461 733.88 248.81Z" fill="#FF9A6C"/>
<path d="M664.6 343.81C664.549 343.712 664.512 343.607 664.49 343.5L664.24 342.56C664.03 341.71 663.73 340.499 663.36 338.959C662.937 337.053 662.362 335.184 661.64 333.369C661.174 332.25 660.584 331.187 659.88 330.199C659.074 329.108 658.103 328.15 657 327.359C652.45 323.839 646.89 319.809 640.65 315.429C634.41 311.049 627.51 306.309 620.38 301.149C616.82 298.569 613.38 296.069 609.91 293.729C606.44 291.389 603.09 289.279 599.91 287.239C598.359 286.243 596.719 285.392 595.01 284.699C594.202 284.376 593.349 284.18 592.48 284.119L591.19 283.979H589.92C586.792 283.912 583.669 284.296 580.65 285.119C576.28 286.316 572.101 288.127 568.24 290.5C566.86 291.33 565.82 292.03 565.12 292.5L564.32 293.039C564.231 293.108 564.134 293.165 564.03 293.209C564.106 293.131 564.19 293.061 564.28 293L565.06 292.419C565.74 291.909 566.76 291.189 568.13 290.329C571.976 287.852 576.169 285.958 580.57 284.709C583.618 283.85 586.775 283.442 589.94 283.5H591.23L592.54 283.629C593.445 283.698 594.335 283.9 595.18 284.229C596.924 284.924 598.598 285.781 600.18 286.789C603.41 288.789 606.8 290.929 610.24 293.269C613.68 295.609 617.17 298.11 620.74 300.69C627.86 305.84 634.74 310.59 640.98 315C647.22 319.41 652.74 323.46 657.28 327C658.401 327.821 659.386 328.813 660.2 329.94C660.907 330.953 661.497 332.044 661.96 333.19C662.664 335.024 663.216 336.914 663.61 338.84C663.94 340.389 664.2 341.61 664.39 342.47C664.47 342.86 664.54 343.17 664.59 343.41C664.612 343.542 664.616 343.676 664.6 343.81Z" fill="#263238"/>
<path d="M547.14 491.63L550.8 476.3L658.38 478.24L663.36 491.63H547.14Z" fill="#263238"/>
<path d="M565.77 274.46C563.17 275.33 535.52 301.52 536.68 332.08C537.84 362.64 552.53 456.32 552.53 456.32C552.53 456.32 539.85 461.51 543.59 473.32C547.33 485.13 659.59 481.32 659.59 481.32C659.59 481.32 660.66 482.32 661.14 473.25C661.81 460.76 642.52 339.25 642.52 339.25C642.52 339.25 625.7 305.37 618.52 289.46L617.43 280.56L568.96 264.1L565.77 274.46Z" fill="#F7B94E"/>
<path opacity="0.3" d="M586.62 343.81C586.62 343.81 624.08 375.48 648.41 377.57L646.6 365.78L586.62 343.81Z" fill="black"/>
<path d="M577.24 337.52C577.492 337.637 577.73 337.781 577.95 337.95L579.95 339.25C580.79 339.83 581.83 340.53 583.07 341.25C584.31 341.97 585.67 342.95 587.25 343.88C588.83 344.81 590.52 345.88 592.4 346.88C594.28 347.88 596.3 349.03 598.4 350.17C602.7 352.4 607.48 354.72 612.61 356.93C617.74 359.14 622.71 361.02 627.27 362.63C631.83 364.24 636 365.53 639.52 366.53C641.27 367.06 642.87 367.47 644.27 367.86C645.67 368.25 646.89 368.56 647.88 368.8L650.16 369.4C650.431 369.455 650.695 369.535 650.95 369.64C650.677 369.618 650.405 369.571 650.14 369.5L647.83 369C646.83 368.79 645.61 368.5 644.2 368.14C642.79 367.78 641.2 367.39 639.42 366.88C635.88 365.93 631.71 364.64 627.11 363.09C622.51 361.54 617.54 359.62 612.4 357.41C607.26 355.2 602.47 352.85 598.18 350.6C596.05 349.44 594.02 348.36 592.18 347.25C590.34 346.14 588.54 345.27 586.99 344.27C585.44 343.27 584.06 342.38 582.85 341.58C581.64 340.78 580.6 340.06 579.78 339.45L577.87 338.06C577.649 337.894 577.438 337.713 577.24 337.52Z" fill="#263238"/>
<path d="M617.02 280.61C617.096 280.878 617.146 281.152 617.17 281.43C617.27 282.02 617.4 282.8 617.56 283.78C618.052 286.653 618.7 289.497 619.5 292.3L619.61 292.7L619.23 292.54C613.79 290.15 606.5 287.12 598.4 284.2C589.46 280.96 581.24 278.45 575.24 276.77L568.12 274.82L566.17 274.27C565.939 274.221 565.715 274.147 565.5 274.05C565.734 274.062 565.965 274.103 566.19 274.17L568.19 274.6C569.89 274.99 572.34 275.6 575.36 276.38C581.36 277.98 589.66 280.43 598.61 283.68C606.74 286.61 614.01 289.68 619.43 292.15L619.16 292.38C618.389 289.556 617.794 286.687 617.38 283.79C617.24 282.79 617.15 281.96 617.1 281.41C617.047 281.146 617.02 280.878 617.02 280.61Z" fill="#263238"/>
<path d="M561.08 455.64C559.583 456.103 558.041 456.401 556.48 456.53C554.941 456.825 553.375 456.953 551.81 456.91C553.303 456.435 554.847 456.136 556.41 456.02C557.948 455.724 559.514 455.596 561.08 455.64Z" fill="#263238"/>
</svg>
