<svg width="500" height="391" viewBox="0 0 500 391" fill="none" xmlns="http://www.w3.org/2000/svg">
<path d="M61.9205 283.123C67.5504 280.222 74.1688 279.846 80.4111 280.877C83.7633 281.436 87.2551 282.435 89.5436 284.96C91.8321 287.485 92.2511 291.912 89.6296 294.071C88.0717 295.361 85.9013 295.554 83.8815 295.532C78.9929 295.479 73.5671 294.619 69.667 297.552C67.4322 299.239 65.9495 302.022 63.2957 302.849C60.6419 303.677 57.741 302.119 56.3658 299.766C55.0949 297.318 54.8141 294.475 55.5815 291.826C55.8961 289.985 56.6319 288.241 57.7315 286.732C58.8311 285.222 60.2647 283.987 61.9205 283.123Z" fill="#FF931E"/>
<path d="M49.0377 258.261C52.4758 263.171 59.1586 261.538 62.2637 258.551C65.3687 255.564 66.6688 251.202 67.8614 247.066C70.5796 237.6 73.3301 227.726 71.2995 218.057C70.8153 215.136 69.5324 212.407 67.5928 210.17C66.6126 209.065 65.3591 208.237 63.9579 207.77C62.5568 207.302 61.0573 207.211 59.6099 207.506C56.2362 208.398 54.1519 211.696 52.637 214.844C48.1745 224.111 45.8364 234.256 45.793 244.541C45.793 249.322 46.3409 254.339 49.0162 258.293" fill="#FF931E"/>
<path d="M39.5936 265.309C43.3326 260.872 44.0417 254.415 42.3764 248.86C40.711 243.305 37.0043 238.589 32.6422 234.732C27.5526 230.204 21.6297 226.712 15.2045 224.449C12.7178 223.441 10.0414 222.987 7.3613 223.117C6.02273 223.193 4.723 223.595 3.57516 224.288C2.42732 224.981 1.46612 225.943 0.775159 227.092C-1.06208 230.595 0.699949 234.839 2.60166 238.309C5.95643 244.413 9.78598 250.244 14.0549 255.747C17.493 260.174 21.4253 264.536 26.6577 266.491C31.8901 268.447 37.3266 268.264 40.1523 264.675" fill="#FF931E"/>
<path d="M48.8124 332.331C48.991 331.602 49.0954 330.857 49.124 330.107C49.2744 328.474 49.4785 326.443 49.7149 324.015C50.0149 321.014 50.4703 318.03 51.0794 315.076C51.8749 311.484 52.9527 307.959 54.3026 304.536C55.6362 301.119 57.4447 297.907 59.6747 294.995C61.4951 292.627 63.8226 290.696 66.4865 289.344C68.3014 288.461 70.2454 287.874 72.2453 287.603C72.9958 287.573 73.7411 287.465 74.4694 287.281C73.7196 287.197 72.9628 287.197 72.2131 287.281C70.1423 287.438 68.116 287.962 66.2286 288.828C63.4294 290.153 60.9733 292.105 59.0515 294.533C56.724 297.486 54.845 300.766 53.4754 304.268C52.0908 307.748 51.0123 311.343 50.2521 315.012C49.6739 318.001 49.2757 321.022 49.0595 324.058C48.8661 326.648 48.8017 328.743 48.7587 330.193C48.6995 330.906 48.7175 331.623 48.8124 332.331Z" fill="#263238"/>
<path d="M49.2315 327.647C49.2719 327.29 49.2719 326.929 49.2315 326.572V323.607C49.2315 321.039 49.2315 317.322 49.3605 312.734C49.5861 303.548 50.4349 293.663 51.9068 279.728C53.3465 266.631 55.2912 251.374 57.3433 241.468C57.7731 239.212 58.2244 237.171 58.6326 235.409C59.0409 233.646 59.374 232.089 59.707 230.842C60.0401 229.596 60.2228 228.693 60.4054 227.974C60.5116 227.625 60.573 227.264 60.5881 226.899C60.4233 227.204 60.3005 227.529 60.2228 227.866C59.9971 228.607 59.7178 229.553 59.3632 230.703C59.0087 231.852 58.5897 233.453 58.1492 235.237C57.7086 237.02 57.1929 239.029 56.7094 241.275C54.1795 252.984 52.2715 264.819 50.9936 276.73C49.4679 290.698 48.7803 303.408 48.7158 312.605C48.7158 317.214 48.7158 320.942 48.877 323.51C48.9522 324.714 49.0167 325.659 49.0596 326.465C49.063 326.865 49.1209 327.262 49.2315 327.647Z" fill="#263238"/>
<path d="M49.2846 303.129C49.3665 302.099 49.3665 301.064 49.2846 300.034C49.1096 297.227 48.794 294.43 48.3391 291.654C47.6655 287.537 46.7579 283.462 45.6208 279.448C44.2801 274.522 42.5631 269.705 40.4851 265.041C36.9283 256.411 31.8315 248.5 25.4434 241.694C24.3365 240.531 23.1597 239.436 21.9193 238.417C21.3714 237.965 20.8986 237.503 20.4044 237.149L19.0399 236.203C18.2445 235.568 17.4003 234.997 16.515 234.495C16.3646 234.689 20.2002 236.956 25.0458 242.102C31.1985 248.97 36.1362 256.836 39.6471 265.363C41.6726 270.015 43.3883 274.796 44.7828 279.674C46.1151 284.165 47.0068 288.269 47.6729 291.761C48.3391 295.253 48.6829 298.09 48.9085 300.066C48.9619 301.095 49.0875 302.118 49.2846 303.129Z" fill="#263238"/>
<path d="M25.5938 346.384L28.0434 380.046H71.2885L73.7489 346.384H25.5938Z" fill="#263238"/>
<path d="M78.9068 333.115H21.415V346.384H78.9068V333.115Z" fill="#263238"/>
<path d="M21.415 378.756V382.431H24.1118H77.9613V378.756H21.415Z" fill="#455A64"/>
<path d="M26.7651 388.91L24.1113 382.431H75.898L72.8037 388.91H26.7651Z" fill="#455A64"/>
<path d="M72.9439 357.44C72.8902 357.549 72.8215 357.651 72.7398 357.741C72.5679 357.977 72.3637 358.257 72.0951 358.6L69.581 361.824L69.4628 361.974L69.3554 361.824L63.1668 353.228H63.5213L57.4294 361.824L57.236 362.092L57.0211 361.845L49.8011 353.25H50.2201C50.0912 353.4 49.9515 353.572 49.8226 353.744L43.3761 361.845L43.1612 362.114L42.9678 361.834L36.8652 353.239H37.2197C34.2221 356.666 31.665 359.567 29.6988 361.834L29.5699 361.985L29.4732 361.813C28.474 360.158 27.6897 358.826 27.1203 357.87C26.8731 357.44 26.669 357.096 26.5186 356.795C26.4369 356.68 26.3718 356.553 26.3252 356.419C26.3252 356.419 26.4219 356.527 26.5831 356.752L27.2492 357.762L29.7203 361.641H29.484L36.8652 352.981L37.0586 352.766L37.2197 353.003L43.3761 361.598H42.9463L49.3928 353.486L49.7903 352.992L50.0052 352.734L50.2094 352.981C52.745 356 55.1731 358.912 57.4187 361.577H57.0104L63.1668 352.981L63.3494 352.734L63.5213 352.981L69.581 361.641H69.3661L71.9877 358.514L72.686 357.698C72.8508 357.476 72.9367 357.39 72.9439 357.44Z" fill="#E0E0E0"/>
<path d="M74.3505 346.159C74.3505 346.309 63.5097 346.427 50.1547 346.427C36.7998 346.427 25.9482 346.309 25.9482 346.159C25.9482 346.008 36.7783 345.89 50.1547 345.89C63.5312 345.89 74.3505 346.008 74.3505 346.159Z" fill="#455A64"/>
<path d="M76.5319 382.796C76.5319 382.947 64.7134 383.065 50.2303 383.065C35.7472 383.065 23.9287 382.947 23.9287 382.796C23.9287 382.646 35.7472 382.528 50.2303 382.528C64.7134 382.528 76.5319 382.646 76.5319 382.796Z" fill="#263238"/>
<path d="M372.253 246.894H472.743C477.054 246.894 481.189 248.606 484.237 251.655C487.286 254.703 488.998 258.838 488.998 263.149V389.522H356.029V263.149C356.029 258.844 357.738 254.714 360.779 251.666C363.821 248.619 367.947 246.902 372.253 246.894Z" fill="#455A64"/>
<path d="M477.803 247.624C477.964 247.624 478.082 279.373 478.082 318.535C478.082 357.697 477.964 389.446 477.803 389.446C477.642 389.446 477.523 357.697 477.523 318.535C477.523 279.373 477.652 247.624 477.803 247.624Z" fill="#263238"/>
<path d="M412.284 92.061C424.513 109.569 431.525 130.186 432.505 151.519C433.128 165.809 431.205 181.033 437.984 193.625C447.719 211.697 468.766 211.084 475.213 230.563C478.017 239.04 472.849 257.682 471.452 266.502C469.873 276.516 475.997 284.929 474.418 294.953C472.967 304.139 466.091 310.693 457.84 314.969C450.491 318.773 443.7 318.88 436.061 315.71C421.492 309.683 409.373 303.323 399.005 291.461C384.436 274.808 380.031 251.708 377.517 229.758C372.03 181.214 373.14 132.152 380.815 83.9062" fill="#263238"/>
<path d="M443.432 317.762C443.584 317.713 443.738 317.674 443.894 317.644C444.206 317.569 444.679 317.494 445.28 317.311C449.812 316.078 453.874 313.524 456.948 309.973C458.105 308.619 458.988 307.054 459.548 305.363C460.085 303.44 460.391 301.46 460.462 299.465C460.54 294.863 460.071 290.268 459.065 285.777C458.13 280.899 456.916 275.699 456.551 270.058C456.373 267.179 456.579 264.288 457.163 261.463C457.837 258.528 458.749 255.653 459.892 252.868C461.062 250.009 462.088 247.094 462.965 244.133C463.876 241.106 464.132 237.919 463.717 234.785C463.217 231.667 462.023 228.701 460.225 226.104C458.468 223.577 456.424 221.263 454.133 219.206C449.696 215.059 444.894 211.686 440.789 207.796C433.467 201.021 427.559 192.863 423.405 183.794C421.796 180.322 420.459 176.73 419.408 173.05C418.893 171.449 418.592 169.902 418.227 168.505C417.861 167.108 417.7 165.797 417.464 164.637C417.131 162.284 416.873 160.468 416.808 159.265C416.808 158.663 416.722 158.191 416.701 157.847C416.679 157.503 416.701 157.363 416.701 157.363C416.701 157.363 416.701 157.524 416.776 157.847C416.851 158.169 416.873 158.653 416.948 159.254C417.045 160.49 417.335 162.306 417.7 164.626C417.947 165.787 418.216 167.076 418.506 168.483C418.796 169.891 419.194 171.395 419.731 172.996C420.809 176.639 422.163 180.195 423.781 183.633C427.964 192.62 433.866 200.701 441.155 207.42C445.237 211.224 450.051 214.629 454.531 218.798C456.852 220.885 458.925 223.232 460.709 225.793C462.554 228.46 463.777 231.507 464.287 234.71C464.716 237.919 464.456 241.183 463.524 244.283C462.686 247.334 461.515 250.225 460.43 253.061C459.296 255.813 458.383 258.652 457.7 261.549C457.12 264.335 456.914 267.186 457.088 270.026C457.378 275.592 458.624 280.77 459.548 285.68C460.537 290.21 460.985 294.841 460.881 299.476C460.79 301.505 460.466 303.516 459.914 305.471C459.317 307.191 458.402 308.784 457.217 310.166C455.322 312.365 453.015 314.171 450.427 315.484C448.814 316.341 447.099 316.991 445.323 317.418C444.703 317.581 444.07 317.696 443.432 317.762Z" fill="#455A64"/>
<path d="M243.388 356.151L294.959 331.665C294.959 331.665 315.04 234.162 318.844 226.846C322.647 219.529 338.505 213.201 338.505 213.201L335.852 345.224L331.124 375.705L258.408 382.592L243.388 356.151Z" fill="#FF931E"/>
<path d="M199.39 379.251C199.1 379.251 197.671 380.132 198.863 382.399C200.056 384.666 208.802 392.155 211.37 389.544C213.937 386.933 210.016 383.753 210.016 383.753L199.39 379.251Z" fill="#FFBE9D"/>
<path d="M210.381 383.85C210.381 383.85 220.932 385.182 224.982 386.729C229.398 388.405 234.77 387.255 238.38 384.817C240.432 383.451 242.346 381.889 244.096 380.154L257.548 379.939C259.481 377.674 260.75 374.919 261.213 371.977C261.676 369.036 261.314 366.023 260.169 363.275C259.449 361.362 258.41 359.586 257.096 358.021C255.496 356.291 252.971 354.894 248.609 354.142L232.632 357.591C232.632 357.591 207.921 355.818 203.473 357.903C203.473 357.903 197.939 361.18 196.231 362.555C195.586 363.081 193.62 369.377 197.649 372.654C197.649 372.654 194.147 375.437 196.048 377.94L196.951 379.015C196.951 379.015 194.598 382.066 195.812 383.398C197.026 384.731 207.631 390.919 211.402 389.458C215.173 387.997 212.057 384.462 210.381 383.817" fill="#FFBE9D"/>
<path d="M200.304 367.207C200.75 367.338 201.188 367.496 201.615 367.68C202.442 367.991 203.656 368.442 205.182 368.926C205.934 369.173 206.772 369.42 207.685 369.656C208.599 369.893 209.576 370.097 210.597 370.43C211.707 370.734 212.712 371.34 213.498 372.181C213.931 372.647 214.232 373.221 214.368 373.843C214.504 374.465 214.471 375.112 214.272 375.716C214.019 376.325 213.558 376.824 212.972 377.124C212.419 377.394 211.822 377.562 211.209 377.618C210.085 377.684 208.957 377.623 207.847 377.435C205.987 377.134 204.159 376.66 202.389 376.017C200.874 375.48 199.681 374.943 198.854 374.62C198.416 374.462 197.995 374.26 197.597 374.019C198.046 374.138 198.487 374.285 198.918 374.459C199.756 374.76 200.97 375.222 202.485 375.716C204.235 376.31 206.032 376.752 207.857 377.038C208.923 377.205 210.004 377.255 211.081 377.188C211.638 377.138 212.18 376.985 212.681 376.737C213.168 376.482 213.549 376.064 213.756 375.555C213.93 375.033 213.963 374.475 213.854 373.935C213.745 373.396 213.496 372.895 213.133 372.482C212.401 371.698 211.468 371.13 210.436 370.838C209.447 370.505 208.459 370.29 207.556 370.032C206.654 369.775 205.805 369.506 205.053 369.248C203.527 368.722 202.335 368.174 201.518 367.862C201.094 367.682 200.687 367.463 200.304 367.207Z" fill="#EB996E"/>
<path d="M201.249 359.589C201.694 359.713 202.129 359.871 202.549 360.062C203.388 360.384 204.591 360.846 206.095 361.34C207.599 361.835 209.415 362.415 211.467 362.877C212.593 363.053 213.663 363.487 214.594 364.145C215.087 364.555 215.412 365.132 215.507 365.767C215.601 366.407 215.508 367.06 215.238 367.647C214.965 368.207 214.579 368.705 214.104 369.108C213.628 369.511 213.074 369.811 212.477 369.989C211.393 370.342 210.241 370.434 209.114 370.258C207.281 369.891 205.484 369.367 203.742 368.689L200.186 367.443C199.745 367.305 199.314 367.136 198.896 366.938C199.353 367.015 199.802 367.13 200.239 367.282L203.839 368.356C205.59 368.979 207.386 369.468 209.211 369.817C210.275 369.97 211.359 369.874 212.38 369.538C212.923 369.372 213.426 369.095 213.857 368.726C214.288 368.356 214.637 367.901 214.884 367.389C215.138 366.901 215.223 366.343 215.128 365.801C215.033 365.26 214.762 364.764 214.357 364.392C213.478 363.778 212.472 363.371 211.413 363.199C209.361 362.683 207.545 362.125 206.041 361.566C204.537 361.007 203.355 360.492 202.539 360.148C202.095 359.997 201.663 359.81 201.249 359.589Z" fill="#EB996E"/>
<path d="M206.33 361.738C206.11 361.036 205.949 360.318 205.847 359.589C205.604 358.891 205.428 358.172 205.32 357.44C205.833 357.999 206.166 358.699 206.277 359.45C206.545 360.186 206.564 360.99 206.33 361.738Z" fill="#EB996E"/>
<path d="M243.537 362.082L234.136 358.515C234.136 358.515 208.039 346.331 207.598 346.997C207.158 347.663 205.74 347.577 206.051 350.757C206.363 353.938 221.566 360.363 222.049 361.502C222.533 362.64 221.727 368.184 227.346 372.171C232.965 376.157 237.016 376.253 237.016 376.253" fill="#FFBE9D"/>
<path d="M237.017 376.157H236.77L236.125 376.092C235.297 375.961 234.482 375.764 233.686 375.502C230.756 374.504 228.049 372.946 225.714 370.914C224.133 369.433 223.013 367.526 222.491 365.424C222.221 364.267 222.034 363.093 221.932 361.91C221.914 361.775 221.881 361.641 221.835 361.513C221.774 361.409 221.69 361.32 221.588 361.255C221.343 361.077 221.088 360.912 220.825 360.761C220.299 360.449 219.751 360.148 219.171 359.847C216.914 358.633 214.497 357.419 212.069 356.022C210.824 355.321 209.616 354.557 208.448 353.734C207.844 353.31 207.276 352.835 206.751 352.316C206.471 352.049 206.229 351.745 206.031 351.413C205.924 351.231 205.851 351.031 205.816 350.822C205.795 350.629 205.795 350.435 205.816 350.242C205.73 349.464 205.868 348.678 206.213 347.975C206.427 347.643 206.709 347.361 207.041 347.148C207.176 347.06 207.298 346.956 207.406 346.836C207.406 346.836 207.406 346.836 207.492 346.74C207.544 346.7 207.609 346.681 207.675 346.686C207.735 346.679 207.797 346.679 207.857 346.686L208.147 346.761C209.555 347.191 210.855 347.76 212.155 348.297C214.733 349.372 217.194 350.446 219.536 351.521C224.231 353.669 228.421 355.582 231.945 357.237C232.827 357.634 233.654 358.053 234.449 358.397L236.748 359.299L240.433 360.761L242.754 361.695L243.345 361.953C243.485 361.953 243.549 362.039 243.549 362.05C243.549 362.061 243.474 362.05 243.334 361.985L242.722 361.781L240.369 360.911L236.651 359.589L234.331 358.719C233.514 358.386 232.687 357.978 231.806 357.58L219.364 351.961C217.011 350.887 214.551 349.812 211.972 348.738C210.683 348.211 209.372 347.664 208.018 347.223L207.782 347.169H207.696C207.696 347.169 207.696 347.105 207.696 347.062C207.997 347.255 207.771 347.126 207.836 347.169C207.707 347.328 207.555 347.466 207.384 347.578C207.098 347.753 206.855 347.992 206.675 348.276C206.373 348.907 206.254 349.611 206.332 350.307C206.325 350.643 206.402 350.975 206.557 351.274C206.737 351.572 206.953 351.846 207.202 352.09C207.71 352.591 208.26 353.047 208.846 353.455C210.006 354.293 211.22 355.023 212.423 355.722C214.841 357.118 217.237 358.343 219.504 359.557C220.073 359.869 220.578 360.17 221.169 360.503C221.446 360.661 221.715 360.833 221.975 361.018C222.131 361.124 222.257 361.268 222.34 361.437C222.395 361.594 222.431 361.756 222.448 361.921C222.55 363.091 222.725 364.254 222.974 365.402C223.466 367.449 224.532 369.313 226.047 370.774C228.337 372.8 230.986 374.378 233.858 375.426C234.64 375.702 235.441 375.921 236.254 376.082C236.533 376.146 236.748 376.168 236.899 376.189L237.017 376.157Z" fill="#EB996E"/>
<path d="M208.232 377.381C208.579 377.423 208.916 377.521 209.232 377.671C210.114 378.026 210.943 378.504 211.692 379.09C212.214 379.498 212.69 379.963 213.11 380.476C213.374 380.765 213.578 381.104 213.709 381.473C213.84 381.842 213.896 382.234 213.873 382.624C213.787 383.069 213.579 383.481 213.271 383.813C212.963 384.145 212.569 384.385 212.133 384.505C211.235 384.75 210.284 384.72 209.403 384.419C206.415 383.534 203.516 382.372 200.744 380.948C199.909 380.513 199.098 380.032 198.316 379.509C198.015 379.336 197.737 379.127 197.488 378.886C197.808 379.012 198.114 379.17 198.402 379.358C198.982 379.691 199.82 380.153 200.883 380.669C203.66 381.996 206.533 383.109 209.479 384C210.282 384.278 211.149 384.311 211.971 384.096C212.333 384.001 212.661 383.809 212.921 383.54C213.18 383.271 213.361 382.935 213.443 382.571C213.467 382.225 213.422 381.878 213.312 381.55C213.201 381.222 213.027 380.919 212.799 380.658C212.404 380.157 211.958 379.7 211.466 379.294C210.473 378.523 209.387 377.88 208.232 377.381Z" fill="#EB996E"/>
<g opacity="0.3">
<path d="M330.758 375.705C322.313 347.223 314.867 310.542 306.422 282.06C303.328 308.35 307.196 343.065 312.031 369.087C312.6 372.138 312.858 375.125 315.254 377.134L330.758 375.705Z" fill="black"/>
</g>
<path d="M316.93 356.151C316.812 356.151 316.457 354.293 315.308 351.445C314.632 349.786 313.823 348.183 312.89 346.653C311.725 344.797 310.395 343.049 308.915 341.432C307.413 339.832 305.766 338.375 303.994 337.08C302.542 336.029 301.004 335.102 299.396 334.308C296.645 332.955 294.797 332.46 294.83 332.353C295.277 332.405 295.717 332.51 296.14 332.665C296.649 332.793 297.148 332.958 297.634 333.159C298.292 333.389 298.938 333.655 299.568 333.954C301.222 334.712 302.804 335.618 304.295 336.661C306.113 337.956 307.801 339.424 309.334 341.045C310.836 342.703 312.175 344.502 313.331 346.417C314.259 347.981 315.046 349.624 315.684 351.327C315.974 352.047 316.146 352.724 316.328 353.315C316.494 353.817 316.623 354.33 316.715 354.851C316.828 355.277 316.9 355.712 316.93 356.151Z" fill="#263238"/>
<path d="M333.025 211.869C333.025 211.869 306.025 272.197 306.025 283.306C306.025 294.416 326.257 371.333 326.257 371.333C326.063 374.395 325.279 389.727 325.279 389.727L438.726 390.124L440.456 365.735L431.603 342.495L440.445 276.795C440.445 276.795 446.397 238.654 446.891 227.985C447.558 214.64 402.346 199.169 403.582 197.321L395.782 186.835L351.075 223.139L342.233 197.611L331.639 207.614L333.025 211.869Z" fill="#FF931E"/>
<path d="M407.321 227.92C395.04 248.689 372.574 286.529 372.574 286.529L332.306 332.45C332.306 332.45 329.673 355.775 334.938 362.931C340.202 370.086 349.238 374.975 349.238 374.975C349.238 374.975 359.864 374.975 373.37 363.683C386.875 352.391 424.125 305.729 424.125 305.729L436.921 290.29C436.921 290.29 452.178 252.814 449.33 233.743C448.256 226.384 445.097 223.332 440.929 219.959C430.432 211.503 414.186 216.306 407.321 227.92Z" fill="#FF931E"/>
<path d="M441.658 277.289C441.604 277.437 441.54 277.581 441.465 277.719C441.325 278.02 441.121 278.417 440.874 278.944C440.337 280.018 439.52 281.576 438.403 283.553C436.179 287.518 432.719 293.115 428.207 299.873C425.94 303.247 423.415 306.911 420.632 310.8C417.85 314.69 414.691 318.697 412.091 323.382C409.491 328.066 407.127 333.18 404.28 338.294C401.355 343.593 397.926 348.598 394.041 353.239C390.154 357.9 385.583 361.943 380.481 365.23C375.701 368.28 370.361 370.347 364.774 371.311C359.716 372.208 354.523 371.988 349.56 370.666C347.314 370.059 345.149 369.183 343.113 368.056C341.219 367.056 339.439 365.853 337.806 364.467C336.308 363.226 334.966 361.808 333.809 360.245C332.767 358.856 331.881 357.357 331.166 355.775C330.062 353.23 329.337 350.537 329.017 347.781C328.833 346.044 328.772 344.295 328.835 342.549C328.835 341.969 328.899 341.475 328.92 341.185C328.909 341.031 328.909 340.876 328.92 340.723C328.932 340.876 328.932 341.031 328.92 341.185C328.92 341.518 328.92 341.969 328.92 342.549C328.9 344.287 328.993 346.024 329.2 347.749C329.561 350.475 330.313 353.135 331.435 355.646C332.157 357.197 333.043 358.667 334.078 360.03C335.229 361.565 336.564 362.955 338.053 364.166C339.671 365.525 341.433 366.703 343.307 367.68C345.314 368.778 347.446 369.633 349.657 370.226C354.569 371.509 359.702 371.707 364.698 370.806C370.212 369.839 375.478 367.787 380.191 364.768C385.247 361.505 389.778 357.495 393.632 352.874C397.495 348.264 400.902 343.292 403.807 338.026C406.654 332.944 408.953 327.787 411.65 323.124C414.284 318.769 417.153 314.562 420.245 310.521C423.039 306.653 425.617 303 427.863 299.648C432.419 292.933 435.921 287.367 438.199 283.446C439.348 281.48 440.197 279.943 440.756 278.89L441.411 277.687C441.478 277.545 441.561 277.412 441.658 277.289Z" fill="#263238"/>
<path d="M330.242 330.397C330.242 330.473 329.672 330.827 328.931 331.655C327.944 332.702 327.336 334.049 327.203 335.483C327.071 336.916 327.422 338.352 328.2 339.562C328.77 340.508 329.275 340.97 329.275 341.034C329.275 341.099 328.598 340.733 327.889 339.788C326.962 338.534 326.53 336.984 326.675 335.432C326.82 333.88 327.531 332.436 328.673 331.375C329.089 330.903 329.634 330.563 330.242 330.397Z" fill="#263238"/>
<path d="M337.688 342.581C337.903 342.61 338.116 342.66 338.321 342.732L339.073 342.936L340.148 343.129C342.38 343.424 344.65 343.211 346.788 342.506C349.969 341.441 352.896 339.729 355.383 337.478C358.339 334.64 361.02 331.529 363.387 328.184C365.793 324.813 368.564 321.718 371.65 318.955C373.111 317.73 374.54 316.645 375.732 315.474C376.868 314.432 377.782 313.171 378.418 311.767C378.845 310.742 379.013 309.627 378.906 308.521C378.799 307.415 378.421 306.353 377.806 305.428C377.287 304.792 376.619 304.294 375.861 303.978C376.075 304.018 376.283 304.079 376.485 304.16C377.063 304.42 377.575 304.81 377.978 305.299C378.659 306.245 379.09 307.347 379.233 308.504C379.376 309.661 379.225 310.835 378.794 311.918C378.154 313.384 377.226 314.706 376.065 315.807C374.851 317.01 373.412 318.128 371.983 319.353C368.948 322.111 366.218 325.187 363.839 328.528C361.442 331.901 358.722 335.032 355.716 337.875C353.176 340.139 350.189 341.845 346.949 342.882C344.75 343.571 342.42 343.729 340.148 343.344L339.073 343.097C338.773 343.011 338.526 342.904 338.332 342.839C338.108 342.779 337.891 342.693 337.688 342.581Z" fill="#263238"/>
<path d="M412.789 221.538C412.653 221.763 412.503 221.978 412.338 222.183C411.983 222.634 411.532 223.257 410.963 223.977C409.738 225.503 408.051 227.78 405.988 230.617C400.73 238.069 395.947 245.846 391.666 253.899C386.595 263.311 382.405 272.046 379.192 278.278C377.602 281.404 376.291 283.918 375.335 285.637L374.293 287.604C374.176 287.839 374.036 288.062 373.874 288.27C373.955 288.021 374.059 287.78 374.186 287.55L375.196 285.519L378.881 278.095C381.997 271.81 386.144 263.053 391.215 253.62C395.5 245.54 400.347 237.771 405.72 230.37C407.868 227.566 409.555 225.309 410.834 223.827L412.295 222.097C412.439 221.893 412.605 221.706 412.789 221.538Z" fill="#263238"/>
<g opacity="0.3">
<path d="M328.953 340.723C334.185 343.559 339.944 343.258 345.789 342.119C351.69 340.94 357.003 337.759 360.831 333.116C359.947 338.287 357.524 343.073 353.879 346.847C350.162 350.489 344.768 352.595 339.654 351.66C334.54 350.725 329.361 345.912 328.91 340.723" fill="black"/>
</g>
<g opacity="0.3">
<path d="M378.482 309.715C381.804 314.835 382.962 321.062 381.706 327.035C386.143 320.244 387.185 311.649 386.003 303.623C384.821 295.597 381.544 288.023 377.913 280.771C377.913 280.771 373.916 287.539 373.873 288.291C373.68 292.202 375.119 299.551 375.872 303.387C376.875 304.35 377.623 305.548 378.049 306.872C378.474 308.196 378.564 309.605 378.31 310.972" fill="black"/>
</g>
<g opacity="0.3">
<path d="M346.702 368.829C357.382 377.156 373.229 377.543 384.908 370.709C396.157 364.123 403.087 352.262 409.512 340.927C419.472 323.371 431.613 301.657 438.725 282.769C438.725 282.769 418.795 309.962 412.789 321.684C408.785 329.608 404.24 337.247 399.187 344.547C393.469 352.773 385.738 359.396 376.732 363.784C367.726 368.172 357.746 370.179 347.744 369.613" fill="black"/>
</g>
<path d="M325.279 389.673C325.262 389.563 325.262 389.45 325.279 389.34C325.279 389.082 325.279 388.76 325.279 388.362C325.279 387.449 325.354 386.213 325.419 384.634C325.569 381.411 325.773 376.791 326.031 371.279V371.408C324.108 364.961 321.852 357.14 319.51 348.695C316.415 337.499 313.804 327.314 312.042 319.911C311.172 316.215 310.485 313.207 310.055 311.123C309.851 310.123 309.69 309.318 309.571 308.727C309.508 308.447 309.461 308.163 309.432 307.878C309.54 308.141 309.623 308.415 309.679 308.694L310.27 311.08C310.796 313.229 311.527 316.172 312.419 319.815C314.277 327.196 316.953 337.36 320.047 348.544C322.378 356.989 324.602 364.811 326.493 371.268V371.343C326.16 376.855 325.881 381.443 325.677 384.709C325.569 386.267 325.483 387.513 325.419 388.427C325.419 388.813 325.354 389.136 325.333 389.394C325.327 389.489 325.309 389.582 325.279 389.673Z" fill="#263238"/>
<path d="M438.759 219.336C438.759 219.421 437.598 219.013 435.74 218.551C433.315 217.94 430.835 217.58 428.337 217.477C425.838 217.408 423.339 217.603 420.88 218.057C418.989 218.412 417.84 218.734 417.818 218.648C418.057 218.494 418.318 218.378 418.592 218.304C419.315 218.055 420.05 217.843 420.794 217.67C423.258 217.095 425.786 216.842 428.315 216.918C430.864 216.995 433.391 217.399 435.836 218.121C436.568 218.334 437.286 218.593 437.985 218.895C438.522 219.164 438.759 219.293 438.759 219.336Z" fill="#263238"/>
<path d="M402.84 199.502C402.762 199.697 402.665 199.885 402.55 200.061L401.637 201.597C400.831 202.929 399.638 204.82 398.123 207.173C395.083 211.825 390.731 218.175 385.585 224.923C381.449 230.37 377.441 235.258 374.164 239.083L373.928 239.352L373.788 239.03C372.219 235.613 370.93 232.776 369.995 230.724C369.576 229.779 369.243 229.005 368.975 228.414C368.843 228.15 368.738 227.873 368.663 227.587C368.836 227.829 368.983 228.089 369.104 228.361C369.394 228.941 369.759 229.693 370.232 230.617C371.209 232.648 372.563 235.452 374.186 238.847L373.82 238.793C377.043 234.925 381.008 230.026 385.145 224.589C390.28 217.842 394.664 211.546 397.79 206.948L401.454 201.479L402.453 199.996C402.56 199.815 402.69 199.649 402.84 199.502Z" fill="#263238"/>
<path d="M428.959 372.772C428.798 372.772 429.292 367.175 430.034 360.309C430.775 353.444 431.538 347.9 431.688 347.921C431.839 347.943 431.344 353.508 430.614 360.374C429.883 367.239 429.088 372.783 428.959 372.772Z" fill="#263238"/>
<path d="M351.193 371.3C351.804 374.395 352.231 377.524 352.472 380.669C352.907 383.792 353.147 386.939 353.192 390.092C352.588 386.996 352.161 383.868 351.913 380.723C351.491 377.599 351.251 374.452 351.193 371.3Z" fill="#263238"/>
<path d="M408.578 248.592C408.525 248.378 408.423 248.181 408.279 248.015C408.135 247.85 407.953 247.721 407.749 247.64C407.545 247.559 407.324 247.528 407.106 247.55C406.888 247.571 406.677 247.645 406.493 247.764L406.418 247.829C406.25 247.979 406.123 248.171 406.051 248.385C405.979 248.599 405.964 248.828 406.008 249.049C406.051 249.271 406.152 249.477 406.299 249.648C406.446 249.819 406.636 249.949 406.849 250.024C407.061 250.1 407.29 250.119 407.512 250.079C407.734 250.039 407.942 249.942 408.116 249.798C408.289 249.653 408.422 249.466 408.501 249.254C408.58 249.043 408.603 248.815 408.567 248.592H408.578Z" fill="white"/>
<path d="M397.372 221.28C397.319 221.067 397.217 220.869 397.073 220.704C396.929 220.538 396.747 220.409 396.543 220.328C396.339 220.247 396.118 220.216 395.9 220.238C395.681 220.26 395.471 220.333 395.287 220.453L395.223 220.517C395.054 220.668 394.928 220.859 394.856 221.073C394.784 221.287 394.769 221.516 394.812 221.738C394.856 221.959 394.956 222.166 395.104 222.337C395.251 222.507 395.44 222.637 395.653 222.713C395.866 222.788 396.095 222.807 396.317 222.767C396.539 222.728 396.747 222.631 396.921 222.486C397.094 222.342 397.227 222.154 397.306 221.943C397.385 221.731 397.408 221.503 397.372 221.28Z" fill="white"/>
<path d="M371.661 243.273C371.609 243.06 371.507 242.862 371.362 242.697C371.218 242.531 371.037 242.403 370.833 242.322C370.628 242.241 370.408 242.21 370.19 242.231C369.971 242.253 369.761 242.327 369.577 242.446H369.512C369.344 242.596 369.217 242.787 369.145 243C369.073 243.214 369.057 243.443 369.1 243.664C369.142 243.885 369.242 244.092 369.389 244.263C369.535 244.434 369.724 244.564 369.936 244.641C370.148 244.717 370.376 244.737 370.598 244.698C370.82 244.66 371.029 244.564 371.203 244.421C371.377 244.278 371.511 244.092 371.591 243.881C371.671 243.67 371.695 243.442 371.661 243.22V243.273Z" fill="white"/>
<path d="M343.866 232.228C343.815 232.015 343.714 231.818 343.571 231.652C343.428 231.486 343.247 231.357 343.044 231.276C342.84 231.195 342.62 231.164 342.403 231.186C342.185 231.208 341.975 231.281 341.792 231.401L341.717 231.466C341.548 231.616 341.422 231.807 341.35 232.021C341.278 232.235 341.263 232.464 341.307 232.686C341.35 232.907 341.45 233.114 341.598 233.285C341.745 233.456 341.935 233.585 342.147 233.661C342.36 233.736 342.589 233.755 342.811 233.716C343.033 233.676 343.241 233.579 343.415 233.434C343.588 233.29 343.721 233.103 343.8 232.891C343.879 232.68 343.902 232.451 343.866 232.228Z" fill="white"/>
<path d="M338.956 221.345C338.904 221.131 338.802 220.934 338.657 220.768C338.513 220.603 338.332 220.474 338.127 220.393C337.923 220.312 337.703 220.281 337.484 220.303C337.266 220.324 337.056 220.398 336.872 220.517L336.797 220.582C336.623 220.732 336.492 220.925 336.417 221.141C336.341 221.358 336.324 221.59 336.366 221.815C336.409 222.041 336.51 222.251 336.659 222.425C336.808 222.599 337 222.731 337.216 222.808C337.432 222.885 337.664 222.903 337.89 222.862C338.115 222.821 338.326 222.721 338.501 222.573C338.676 222.425 338.809 222.234 338.887 222.018C338.965 221.803 338.985 221.57 338.945 221.345H338.956Z" fill="white"/>
<path d="M341.094 208.774C341.042 208.561 340.939 208.363 340.795 208.198C340.651 208.032 340.469 207.903 340.265 207.822C340.061 207.741 339.841 207.71 339.622 207.732C339.404 207.754 339.194 207.827 339.009 207.947L338.934 208.001C338.766 208.15 338.639 208.341 338.567 208.555C338.494 208.768 338.479 208.997 338.522 209.218C338.564 209.44 338.664 209.646 338.81 209.817C338.957 209.989 339.146 210.119 339.358 210.195C339.57 210.272 339.798 210.291 340.02 210.253C340.242 210.214 340.451 210.119 340.625 209.975C340.799 209.832 340.932 209.646 341.013 209.435C341.093 209.225 341.117 208.997 341.083 208.774H341.094Z" fill="white"/>
<path d="M325.697 226.072C325.645 225.859 325.543 225.661 325.399 225.496C325.254 225.33 325.073 225.201 324.869 225.12C324.665 225.039 324.444 225.008 324.226 225.03C324.007 225.052 323.797 225.125 323.613 225.245L323.538 225.299C323.369 225.448 323.243 225.639 323.17 225.853C323.098 226.066 323.082 226.295 323.125 226.516C323.168 226.738 323.267 226.944 323.414 227.115C323.561 227.287 323.749 227.417 323.961 227.493C324.173 227.57 324.402 227.59 324.624 227.551C324.846 227.512 325.054 227.417 325.228 227.274C325.402 227.13 325.536 226.944 325.616 226.734C325.697 226.523 325.721 226.295 325.686 226.072H325.697Z" fill="white"/>
<path d="M361.4 231.057C361.349 230.844 361.248 230.647 361.105 230.481C360.962 230.315 360.781 230.186 360.578 230.105C360.375 230.024 360.155 229.993 359.937 230.015C359.719 230.037 359.51 230.11 359.326 230.23L359.251 230.295C359.083 230.445 358.956 230.636 358.884 230.85C358.812 231.064 358.797 231.293 358.841 231.515C358.884 231.736 358.985 231.943 359.132 232.114C359.279 232.285 359.469 232.414 359.682 232.49C359.894 232.565 360.123 232.584 360.345 232.544C360.567 232.505 360.775 232.408 360.949 232.263C361.122 232.119 361.255 231.931 361.334 231.72C361.413 231.509 361.436 231.28 361.4 231.057Z" fill="white"/>
<path d="M331.166 253.48C331.114 253.267 331.011 253.069 330.867 252.904C330.723 252.738 330.541 252.61 330.337 252.529C330.133 252.448 329.913 252.417 329.694 252.438C329.476 252.46 329.266 252.534 329.082 252.653H329.006C328.838 252.803 328.711 252.994 328.639 253.207C328.567 253.421 328.551 253.65 328.594 253.871C328.637 254.092 328.736 254.299 328.883 254.47C329.029 254.641 329.218 254.771 329.43 254.848C329.642 254.924 329.87 254.944 330.093 254.905C330.315 254.867 330.523 254.771 330.697 254.628C330.871 254.485 331.005 254.299 331.085 254.088C331.165 253.877 331.19 253.649 331.155 253.427L331.166 253.48Z" fill="white"/>
<path d="M303.532 317.967C303.48 317.753 303.378 317.556 303.234 317.39C303.089 317.224 302.908 317.096 302.704 317.015C302.5 316.934 302.279 316.903 302.061 316.924C301.842 316.946 301.632 317.02 301.448 317.139L301.383 317.193C301.215 317.343 301.088 317.534 301.016 317.747C300.944 317.961 300.928 318.189 300.971 318.411C301.014 318.632 301.113 318.839 301.26 319.01C301.406 319.181 301.595 319.311 301.807 319.388C302.019 319.464 302.247 319.484 302.469 319.445C302.692 319.407 302.9 319.311 303.074 319.168C303.248 319.025 303.382 318.838 303.462 318.628C303.542 318.417 303.567 318.189 303.532 317.967Z" fill="white"/>
<path d="M313.396 280.77C313.344 280.557 313.241 280.36 313.097 280.194C312.953 280.028 312.771 279.9 312.567 279.819C312.363 279.738 312.143 279.707 311.924 279.728C311.706 279.75 311.496 279.824 311.312 279.943L311.236 280.008C311.068 280.158 310.941 280.349 310.87 280.563C310.798 280.777 310.783 281.006 310.826 281.228C310.87 281.449 310.97 281.656 311.117 281.827C311.265 281.998 311.454 282.127 311.667 282.203C311.88 282.278 312.108 282.297 312.331 282.257C312.553 282.218 312.761 282.121 312.934 281.976C313.108 281.832 313.24 281.645 313.319 281.433C313.399 281.222 313.421 280.993 313.385 280.77H313.396Z" fill="white"/>
<path d="M386.112 215.468C386.06 215.254 385.958 215.057 385.814 214.891C385.669 214.726 385.488 214.597 385.284 214.516C385.08 214.435 384.859 214.404 384.641 214.426C384.422 214.447 384.212 214.521 384.028 214.64L383.953 214.694C383.784 214.844 383.658 215.035 383.585 215.248C383.513 215.462 383.497 215.691 383.54 215.912C383.583 216.133 383.682 216.34 383.829 216.511C383.976 216.682 384.164 216.812 384.376 216.889C384.588 216.965 384.817 216.985 385.039 216.946C385.261 216.908 385.469 216.812 385.643 216.669C385.817 216.526 385.951 216.34 386.031 216.129C386.112 215.918 386.136 215.69 386.102 215.468H386.112Z" fill="white"/>
<path d="M420.751 289.516C420.699 289.303 420.596 289.105 420.452 288.94C420.308 288.774 420.126 288.646 419.922 288.565C419.718 288.484 419.498 288.453 419.279 288.474C419.061 288.496 418.851 288.57 418.667 288.689L418.591 288.753C418.418 288.904 418.287 289.096 418.212 289.313C418.136 289.529 418.119 289.762 418.161 289.987C418.204 290.212 418.305 290.423 418.454 290.597C418.603 290.771 418.795 290.903 419.011 290.98C419.227 291.056 419.459 291.075 419.685 291.034C419.91 290.993 420.121 290.893 420.296 290.745C420.471 290.597 420.604 290.406 420.682 290.19C420.76 289.974 420.78 289.742 420.74 289.516H420.751Z" fill="white"/>
<path d="M434.256 225.793C434.205 225.58 434.104 225.382 433.961 225.216C433.818 225.051 433.637 224.922 433.434 224.841C433.231 224.76 433.011 224.729 432.793 224.75C432.575 224.772 432.366 224.846 432.182 224.966L432.107 225.019C431.939 225.169 431.812 225.36 431.74 225.574C431.667 225.787 431.652 226.016 431.694 226.237C431.737 226.459 431.837 226.665 431.983 226.836C432.13 227.007 432.318 227.138 432.531 227.214C432.743 227.29 432.971 227.31 433.193 227.272C433.415 227.233 433.623 227.138 433.797 226.994C433.971 226.851 434.105 226.665 434.186 226.454C434.266 226.244 434.29 226.016 434.256 225.793Z" fill="white"/>
<path d="M428.96 267.523C428.908 267.31 428.805 267.112 428.661 266.946C428.517 266.781 428.335 266.652 428.131 266.571C427.927 266.49 427.707 266.459 427.488 266.481C427.27 266.502 427.06 266.576 426.876 266.696L426.8 266.76C426.627 266.91 426.496 267.103 426.421 267.32C426.345 267.536 426.328 267.768 426.37 267.994C426.413 268.219 426.514 268.429 426.663 268.603C426.812 268.778 427.004 268.91 427.22 268.986C427.436 269.063 427.668 269.082 427.894 269.04C428.119 268.999 428.33 268.9 428.505 268.752C428.68 268.604 428.813 268.412 428.891 268.197C428.969 267.981 428.989 267.749 428.949 267.523H428.96Z" fill="white"/>
<path d="M398.65 297.66C398.598 297.447 398.495 297.249 398.351 297.084C398.207 296.918 398.025 296.79 397.821 296.709C397.617 296.628 397.397 296.597 397.178 296.618C396.96 296.64 396.75 296.714 396.565 296.833L396.49 296.898C396.322 297.048 396.195 297.239 396.123 297.453C396.051 297.667 396.037 297.896 396.08 298.118C396.123 298.339 396.224 298.546 396.371 298.717C396.519 298.888 396.708 299.017 396.921 299.093C397.133 299.168 397.362 299.187 397.584 299.147C397.807 299.108 398.015 299.011 398.188 298.866C398.362 298.722 398.494 298.534 398.573 298.323C398.652 298.112 398.675 297.883 398.639 297.66H398.65Z" fill="white"/>
<path d="M399.93 272.562C399.878 272.348 399.775 272.151 399.631 271.985C399.487 271.82 399.305 271.691 399.101 271.61C398.897 271.529 398.677 271.498 398.458 271.52C398.24 271.541 398.03 271.615 397.845 271.734L397.77 271.799C397.597 271.949 397.466 272.142 397.39 272.358C397.315 272.575 397.298 272.807 397.34 273.033C397.383 273.258 397.483 273.468 397.632 273.642C397.781 273.816 397.974 273.948 398.19 274.025C398.406 274.102 398.638 274.12 398.864 274.079C399.089 274.038 399.3 273.938 399.475 273.79C399.65 273.642 399.783 273.451 399.861 273.235C399.939 273.02 399.959 272.787 399.919 272.562H399.93Z" fill="white"/>
<path d="M418.205 226.008C418.154 225.795 418.053 225.597 417.91 225.431C417.767 225.265 417.586 225.137 417.383 225.055C417.179 224.974 416.959 224.943 416.742 224.965C416.524 224.987 416.314 225.061 416.131 225.18L416.056 225.245C415.887 225.395 415.761 225.587 415.689 225.801C415.617 226.014 415.602 226.244 415.645 226.465C415.689 226.687 415.789 226.893 415.937 227.064C416.084 227.235 416.273 227.364 416.486 227.44C416.699 227.515 416.928 227.534 417.15 227.495C417.372 227.455 417.58 227.358 417.754 227.213C417.927 227.069 418.06 226.882 418.139 226.67C418.218 226.459 418.241 226.23 418.205 226.008Z" fill="white"/>
<path d="M393.633 201.705C393.582 201.492 393.481 201.294 393.338 201.128C393.195 200.962 393.014 200.834 392.811 200.752C392.607 200.671 392.388 200.64 392.17 200.662C391.952 200.684 391.742 200.758 391.559 200.877L391.484 200.931C391.316 201.081 391.189 201.272 391.117 201.485C391.044 201.699 391.029 201.927 391.071 202.149C391.114 202.37 391.214 202.577 391.36 202.748C391.507 202.919 391.695 203.049 391.908 203.126C392.12 203.202 392.348 203.222 392.57 203.183C392.792 203.145 393 203.049 393.174 202.906C393.348 202.763 393.482 202.576 393.563 202.366C393.643 202.155 393.667 201.927 393.633 201.705Z" fill="white"/>
<path d="M392.698 240.888C392.648 240.674 392.547 240.474 392.403 240.307C392.26 240.14 392.077 240.011 391.873 239.929C391.668 239.848 391.446 239.817 391.227 239.84C391.008 239.863 390.797 239.939 390.614 240.061L390.549 240.115C390.381 240.265 390.254 240.456 390.182 240.669C390.11 240.883 390.094 241.111 390.137 241.333C390.18 241.554 390.279 241.76 390.426 241.932C390.572 242.103 390.761 242.233 390.973 242.31C391.185 242.386 391.413 242.406 391.635 242.367C391.858 242.329 392.066 242.233 392.24 242.09C392.414 241.946 392.548 241.76 392.628 241.55C392.708 241.339 392.733 241.111 392.698 240.888Z" fill="white"/>
<path d="M361.282 360.417C361.229 360.21 361.129 360.019 360.989 359.858C360.848 359.698 360.673 359.572 360.475 359.492C360.278 359.411 360.064 359.378 359.852 359.395C359.639 359.412 359.434 359.479 359.252 359.589L359.176 359.643C359.008 359.793 358.881 359.984 358.809 360.197C358.737 360.411 358.721 360.64 358.764 360.861C358.807 361.082 358.906 361.289 359.053 361.46C359.199 361.631 359.388 361.761 359.6 361.838C359.812 361.914 360.04 361.934 360.262 361.896C360.485 361.857 360.693 361.761 360.867 361.618C361.041 361.475 361.175 361.289 361.255 361.078C361.335 360.867 361.359 360.64 361.325 360.417H361.282Z" fill="white"/>
<path d="M325.235 340.755C325.183 340.542 325.08 340.344 324.936 340.178C324.792 340.013 324.61 339.884 324.406 339.803C324.202 339.722 323.982 339.691 323.763 339.713C323.545 339.734 323.335 339.808 323.15 339.928L323.075 339.992C322.907 340.142 322.78 340.334 322.708 340.548C322.636 340.762 322.621 340.991 322.665 341.212C322.708 341.434 322.809 341.64 322.956 341.811C323.104 341.982 323.293 342.112 323.506 342.187C323.718 342.263 323.947 342.282 324.169 342.242C324.392 342.202 324.6 342.105 324.773 341.961C324.946 341.816 325.079 341.629 325.158 341.418C325.237 341.206 325.26 340.978 325.224 340.755H325.235Z" fill="white"/>
<path d="M296.087 350.392C296.035 350.179 295.932 349.981 295.788 349.816C295.644 349.65 295.462 349.522 295.258 349.441C295.054 349.36 294.834 349.329 294.615 349.35C294.397 349.372 294.187 349.446 294.003 349.565L293.938 349.619C293.77 349.769 293.643 349.96 293.571 350.173C293.498 350.387 293.483 350.615 293.526 350.837C293.568 351.058 293.668 351.264 293.814 351.436C293.961 351.607 294.15 351.737 294.362 351.813C294.574 351.89 294.802 351.91 295.024 351.871C295.246 351.833 295.455 351.737 295.629 351.594C295.803 351.45 295.936 351.264 296.017 351.054C296.097 350.843 296.121 350.615 296.087 350.392Z" fill="white"/>
<path d="M292.971 366.992C292.919 366.779 292.816 366.581 292.672 366.416C292.528 366.25 292.346 366.121 292.142 366.04C291.938 365.959 291.718 365.928 291.499 365.95C291.281 365.972 291.07 366.045 290.886 366.165L290.811 366.219C290.643 366.368 290.516 366.559 290.444 366.773C290.371 366.986 290.356 367.215 290.399 367.436C290.441 367.658 290.541 367.864 290.687 368.035C290.834 368.207 291.023 368.337 291.235 368.413C291.447 368.49 291.675 368.509 291.897 368.471C292.119 368.432 292.328 368.337 292.502 368.193C292.676 368.05 292.809 367.864 292.89 367.653C292.97 367.443 292.994 367.215 292.96 366.992H292.971Z" fill="white"/>
<path d="M320.293 372.547C320.241 372.333 320.139 372.136 319.995 371.97C319.851 371.804 319.669 371.676 319.465 371.595C319.261 371.514 319.04 371.483 318.822 371.505C318.603 371.526 318.393 371.6 318.209 371.719L318.145 371.784C317.976 371.934 317.85 372.126 317.778 372.34C317.706 372.554 317.691 372.783 317.734 373.004C317.778 373.226 317.878 373.432 318.026 373.603C318.173 373.774 318.362 373.903 318.575 373.979C318.788 374.055 319.017 374.073 319.239 374.034C319.461 373.994 319.669 373.897 319.842 373.752C320.016 373.608 320.149 373.421 320.228 373.209C320.307 372.998 320.329 372.769 320.293 372.547Z" fill="white"/>
<path d="M311.161 335.372C311.109 335.159 311.007 334.961 310.862 334.795C310.718 334.63 310.537 334.501 310.333 334.42C310.128 334.339 309.908 334.308 309.69 334.33C309.471 334.352 309.261 334.425 309.077 334.545L309.002 334.609C308.828 334.759 308.697 334.952 308.622 335.169C308.546 335.385 308.529 335.618 308.571 335.843C308.614 336.068 308.715 336.278 308.864 336.452C309.013 336.627 309.205 336.759 309.421 336.835C309.637 336.912 309.87 336.931 310.095 336.89C310.321 336.848 310.531 336.749 310.706 336.601C310.881 336.453 311.014 336.261 311.092 336.046C311.17 335.83 311.19 335.598 311.15 335.372H311.161Z" fill="white"/>
<path d="M344.683 344.827C344.633 344.612 344.531 344.413 344.388 344.246C344.244 344.079 344.062 343.949 343.857 343.868C343.652 343.786 343.431 343.756 343.211 343.779C342.992 343.802 342.782 343.878 342.598 344L342.534 344.053C342.365 344.203 342.239 344.394 342.166 344.608C342.094 344.821 342.078 345.05 342.121 345.271C342.164 345.493 342.263 345.699 342.41 345.87C342.557 346.041 342.745 346.172 342.957 346.248C343.169 346.324 343.398 346.344 343.62 346.306C343.842 346.267 344.05 346.172 344.224 346.028C344.398 345.885 344.532 345.699 344.612 345.488C344.693 345.278 344.717 345.05 344.683 344.827Z" fill="white"/>
<path d="M424.372 335.318C424.324 335.104 424.224 334.905 424.081 334.737C423.939 334.57 423.757 334.44 423.553 334.359C423.349 334.277 423.128 334.247 422.909 334.27C422.691 334.293 422.481 334.369 422.298 334.491L422.223 334.545C422.055 334.695 421.928 334.886 421.856 335.099C421.784 335.313 421.768 335.541 421.811 335.763C421.853 335.984 421.953 336.191 422.1 336.362C422.246 336.533 422.435 336.663 422.647 336.74C422.859 336.816 423.087 336.836 423.309 336.797C423.531 336.759 423.74 336.663 423.914 336.52C424.088 336.377 424.221 336.19 424.302 335.98C424.382 335.769 424.406 335.541 424.372 335.318Z" fill="white"/>
<path d="M375.067 382.56C375.015 382.347 374.912 382.149 374.768 381.983C374.624 381.818 374.442 381.689 374.238 381.608C374.034 381.527 373.814 381.496 373.595 381.518C373.377 381.54 373.167 381.613 372.982 381.733L372.907 381.797C372.739 381.947 372.612 382.139 372.54 382.353C372.469 382.567 372.454 382.796 372.497 383.017C372.54 383.239 372.641 383.445 372.788 383.616C372.936 383.787 373.125 383.917 373.338 383.992C373.551 384.068 373.779 384.087 374.001 384.047C374.224 384.007 374.432 383.91 374.605 383.766C374.779 383.621 374.911 383.434 374.99 383.223C375.069 383.011 375.092 382.783 375.056 382.56H375.067Z" fill="white"/>
<path d="M396.093 356.258C396.043 356.045 395.942 355.848 395.798 355.682C395.655 355.516 395.475 355.387 395.271 355.306C395.068 355.225 394.848 355.194 394.63 355.216C394.412 355.237 394.203 355.311 394.02 355.431L393.944 355.495C393.776 355.646 393.649 355.837 393.578 356.051C393.506 356.265 393.491 356.494 393.534 356.716C393.578 356.937 393.678 357.144 393.825 357.315C393.973 357.486 394.162 357.615 394.375 357.691C394.588 357.766 394.816 357.785 395.039 357.745C395.261 357.706 395.469 357.609 395.642 357.464C395.816 357.32 395.948 357.132 396.027 356.921C396.107 356.71 396.129 356.481 396.093 356.258Z" fill="white"/>
<path d="M408.588 377.65C408.54 377.436 408.442 377.237 408.302 377.069C408.161 376.901 407.983 376.769 407.781 376.684C407.579 376.599 407.36 376.563 407.142 376.58C406.923 376.596 406.712 376.665 406.525 376.78L406.461 376.844C406.293 376.995 406.166 377.186 406.094 377.4C406.022 377.614 406.007 377.843 406.051 378.065C406.094 378.286 406.194 378.492 406.342 378.663C406.489 378.834 406.679 378.964 406.891 379.04C407.104 379.115 407.333 379.134 407.555 379.094C407.777 379.054 407.985 378.958 408.159 378.813C408.332 378.668 408.465 378.481 408.544 378.27C408.623 378.058 408.646 377.83 408.61 377.607L408.588 377.65Z" fill="white"/>
<path d="M373.832 265.632C373.779 265.419 373.677 265.221 373.533 265.055C373.389 264.89 373.207 264.761 373.003 264.68C372.799 264.599 372.578 264.568 372.36 264.59C372.141 264.612 371.931 264.685 371.747 264.805L371.672 264.869C371.503 265.019 371.377 265.211 371.305 265.425C371.233 265.639 371.218 265.868 371.262 266.09C371.305 266.311 371.405 266.517 371.553 266.688C371.7 266.859 371.89 266.989 372.102 267.064C372.315 267.14 372.544 267.159 372.766 267.119C372.988 267.079 373.196 266.982 373.37 266.838C373.543 266.693 373.676 266.506 373.755 266.295C373.834 266.083 373.857 265.855 373.821 265.632H373.832Z" fill="white"/>
<path d="M402.12 320.244C402.068 320.031 401.966 319.833 401.821 319.668C401.677 319.502 401.496 319.374 401.291 319.293C401.087 319.212 400.867 319.181 400.649 319.202C400.43 319.224 400.22 319.298 400.036 319.417L399.961 319.471C399.792 319.621 399.665 319.812 399.593 320.025C399.521 320.239 399.505 320.467 399.548 320.689C399.591 320.91 399.69 321.116 399.837 321.288C399.983 321.459 400.172 321.589 400.384 321.665C400.596 321.742 400.825 321.762 401.047 321.723C401.269 321.685 401.477 321.589 401.651 321.446C401.825 321.302 401.959 321.116 402.039 320.906C402.119 320.695 402.144 320.467 402.109 320.244H402.12Z" fill="white"/>
<path d="M392.944 340.927C392.892 340.714 392.79 340.516 392.646 340.35C392.501 340.185 392.32 340.056 392.116 339.975C391.912 339.894 391.691 339.863 391.473 339.885C391.254 339.907 391.044 339.98 390.86 340.1L390.785 340.153C390.616 340.303 390.49 340.494 390.417 340.708C390.345 340.921 390.329 341.15 390.372 341.371C390.415 341.593 390.514 341.799 390.661 341.97C390.808 342.141 390.996 342.272 391.208 342.348C391.42 342.424 391.649 342.444 391.871 342.406C392.093 342.367 392.301 342.272 392.475 342.128C392.649 341.985 392.783 341.799 392.863 341.588C392.944 341.378 392.968 341.15 392.934 340.927H392.944Z" fill="white"/>
<path d="M423.104 357.537C423.052 357.324 422.949 357.126 422.805 356.961C422.661 356.795 422.479 356.667 422.275 356.586C422.071 356.505 421.851 356.474 421.632 356.495C421.414 356.517 421.204 356.591 421.02 356.71L420.944 356.774C420.776 356.925 420.65 357.116 420.578 357.33C420.506 357.544 420.491 357.773 420.534 357.995C420.578 358.216 420.678 358.423 420.825 358.594C420.973 358.765 421.162 358.894 421.375 358.97C421.588 359.045 421.816 359.064 422.039 359.024C422.261 358.985 422.469 358.888 422.642 358.743C422.816 358.599 422.948 358.411 423.027 358.2C423.107 357.989 423.129 357.76 423.093 357.537H423.104Z" fill="white"/>
<path d="M340.579 381.529C340.529 381.314 340.428 381.115 340.284 380.947C340.14 380.78 339.958 380.651 339.753 380.569C339.549 380.488 339.327 380.458 339.108 380.481C338.889 380.504 338.678 380.579 338.495 380.701L338.419 380.755C338.251 380.905 338.124 381.096 338.052 381.309C337.98 381.523 337.964 381.751 338.007 381.973C338.05 382.194 338.149 382.401 338.296 382.572C338.442 382.743 338.631 382.873 338.843 382.95C339.055 383.026 339.284 383.046 339.506 383.007C339.728 382.969 339.936 382.873 340.11 382.73C340.284 382.587 340.418 382.4 340.498 382.19C340.578 381.979 340.603 381.751 340.568 381.529H340.579Z" fill="white"/>
<path d="M271.816 375.244C271.764 375.03 271.662 374.833 271.518 374.667C271.374 374.501 271.192 374.373 270.988 374.292C270.784 374.211 270.563 374.18 270.345 374.202C270.126 374.223 269.916 374.297 269.732 374.416L269.657 374.481C269.484 374.631 269.353 374.824 269.277 375.04C269.202 375.257 269.184 375.489 269.227 375.714C269.269 375.94 269.37 376.15 269.519 376.324C269.668 376.498 269.86 376.63 270.076 376.707C270.292 376.784 270.525 376.802 270.75 376.761C270.976 376.72 271.187 376.62 271.362 376.472C271.537 376.324 271.67 376.133 271.748 375.917C271.826 375.702 271.846 375.469 271.806 375.244H271.816Z" fill="white"/>
<path d="M332.391 363.951C332.339 363.738 332.236 363.54 332.092 363.375C331.948 363.209 331.766 363.081 331.562 363C331.358 362.919 331.137 362.888 330.919 362.909C330.701 362.931 330.49 363.005 330.306 363.124L330.231 363.189C330.058 363.339 329.927 363.532 329.851 363.748C329.776 363.964 329.759 364.197 329.801 364.422C329.843 364.648 329.944 364.858 330.093 365.032C330.242 365.206 330.435 365.338 330.651 365.415C330.867 365.491 331.099 365.51 331.325 365.469C331.55 365.428 331.761 365.328 331.936 365.18C332.111 365.032 332.244 364.841 332.322 364.625C332.4 364.409 332.42 364.177 332.38 363.951H332.391Z" fill="white"/>
<path d="M274.373 351.671C274.323 351.456 274.222 351.257 274.078 351.09C273.934 350.923 273.752 350.793 273.547 350.712C273.343 350.63 273.121 350.6 272.902 350.623C272.683 350.646 272.472 350.722 272.289 350.844L272.224 350.897C272.056 351.047 271.929 351.238 271.857 351.452C271.784 351.665 271.769 351.894 271.812 352.115C271.854 352.336 271.954 352.543 272.1 352.714C272.247 352.885 272.436 353.016 272.648 353.092C272.86 353.168 273.088 353.188 273.31 353.15C273.532 353.111 273.741 353.016 273.915 352.872C274.089 352.729 274.222 352.543 274.303 352.332C274.383 352.122 274.407 351.894 274.373 351.671Z" fill="white"/>
<path d="M371.285 312.67C371.233 312.457 371.131 312.259 370.986 312.093C370.842 311.928 370.661 311.799 370.457 311.718C370.252 311.637 370.032 311.606 369.814 311.628C369.595 311.649 369.385 311.723 369.201 311.843L369.126 311.896C368.957 312.046 368.831 312.237 368.758 312.451C368.686 312.664 368.67 312.893 368.713 313.114C368.756 313.335 368.855 313.542 369.002 313.713C369.148 313.884 369.337 314.015 369.549 314.091C369.761 314.167 369.99 314.187 370.212 314.149C370.434 314.11 370.642 314.015 370.816 313.871C370.99 313.728 371.124 313.542 371.204 313.331C371.284 313.121 371.309 312.893 371.274 312.67H371.285Z" fill="white"/>
<path d="M350.999 253.48C350.947 253.267 350.844 253.069 350.7 252.904C350.556 252.738 350.374 252.61 350.17 252.529C349.966 252.448 349.746 252.417 349.527 252.438C349.309 252.46 349.099 252.534 348.915 252.653H348.839C348.671 252.803 348.544 252.994 348.472 253.207C348.4 253.421 348.384 253.65 348.427 253.871C348.47 254.092 348.569 254.299 348.716 254.47C348.862 254.641 349.051 254.771 349.263 254.848C349.475 254.924 349.703 254.944 349.926 254.905C350.148 254.867 350.356 254.771 350.53 254.628C350.704 254.485 350.838 254.299 350.918 254.088C350.998 253.877 351.023 253.649 350.988 253.427L350.999 253.48Z" fill="white"/>
<path d="M345.929 304.794C345.877 304.581 345.775 304.383 345.63 304.218C345.486 304.052 345.305 303.923 345.101 303.842C344.896 303.761 344.676 303.73 344.458 303.752C344.239 303.774 344.029 303.847 343.845 303.967L343.78 304.031C343.612 304.182 343.485 304.373 343.413 304.587C343.342 304.801 343.327 305.03 343.37 305.252C343.413 305.473 343.514 305.68 343.661 305.85C343.809 306.021 343.998 306.151 344.211 306.227C344.424 306.302 344.652 306.321 344.875 306.281C345.097 306.241 345.305 306.145 345.478 306C345.652 305.855 345.784 305.668 345.863 305.457C345.942 305.245 345.965 305.017 345.929 304.794Z" fill="white"/>
<path d="M337.678 288.066C337.626 287.852 337.523 287.655 337.379 287.489C337.235 287.324 337.053 287.195 336.849 287.114C336.645 287.033 336.425 287.002 336.206 287.024C335.988 287.045 335.778 287.119 335.593 287.238H335.529C335.36 287.388 335.234 287.579 335.162 287.793C335.089 288.006 335.074 288.235 335.116 288.456C335.159 288.678 335.259 288.884 335.405 289.055C335.552 289.226 335.74 289.357 335.952 289.433C336.165 289.509 336.393 289.529 336.615 289.491C336.837 289.452 337.045 289.357 337.219 289.213C337.393 289.07 337.527 288.884 337.607 288.673C337.688 288.463 337.712 288.235 337.678 288.012V288.066Z" fill="white"/>
<path d="M374.175 340.69C374.123 340.477 374.02 340.279 373.876 340.114C373.732 339.948 373.55 339.819 373.346 339.738C373.142 339.657 372.922 339.626 372.703 339.648C372.485 339.67 372.275 339.743 372.09 339.863L372.015 339.927C371.842 340.077 371.711 340.27 371.636 340.487C371.56 340.703 371.543 340.936 371.585 341.161C371.628 341.386 371.728 341.596 371.878 341.771C372.027 341.945 372.219 342.077 372.435 342.153C372.651 342.23 372.883 342.249 373.109 342.208C373.334 342.167 373.545 342.067 373.72 341.919C373.895 341.771 374.028 341.579 374.106 341.364C374.184 341.148 374.204 340.916 374.164 340.69H374.175Z" fill="white"/>
<path d="M348.444 330.365C348.398 330.148 348.3 329.945 348.158 329.774C348.016 329.603 347.834 329.469 347.629 329.385C347.423 329.3 347.2 329.267 346.979 329.288C346.758 329.309 346.545 329.384 346.359 329.505L346.284 329.57C346.116 329.72 345.989 329.912 345.917 330.126C345.845 330.34 345.83 330.569 345.874 330.79C345.917 331.012 346.018 331.218 346.165 331.389C346.313 331.56 346.502 331.69 346.715 331.765C346.927 331.841 347.156 331.86 347.378 331.82C347.601 331.78 347.809 331.683 347.982 331.539C348.155 331.394 348.288 331.207 348.367 330.995C348.446 330.784 348.469 330.556 348.433 330.333L348.444 330.365Z" fill="white"/>
<path d="M359.456 273.69C359.405 273.477 359.304 273.279 359.161 273.114C359.018 272.948 358.837 272.819 358.634 272.738C358.431 272.657 358.211 272.626 357.993 272.648C357.775 272.669 357.566 272.743 357.382 272.863L357.307 272.917C357.139 273.066 357.012 273.257 356.94 273.471C356.868 273.684 356.852 273.913 356.895 274.134C356.937 274.356 357.037 274.562 357.183 274.733C357.33 274.905 357.519 275.035 357.731 275.111C357.943 275.188 358.171 275.207 358.393 275.169C358.615 275.13 358.824 275.035 358.998 274.891C359.172 274.748 359.305 274.562 359.386 274.351C359.466 274.141 359.49 273.913 359.456 273.69Z" fill="white"/>
<path d="M320.293 313.819C320.241 313.606 320.139 313.408 319.995 313.243C319.851 313.077 319.669 312.948 319.465 312.867C319.261 312.786 319.04 312.755 318.822 312.777C318.603 312.799 318.393 312.872 318.209 312.992L318.145 313.056C317.976 313.207 317.85 313.398 317.778 313.612C317.706 313.826 317.691 314.055 317.734 314.277C317.778 314.498 317.878 314.704 318.026 314.875C318.173 315.046 318.362 315.176 318.575 315.251C318.788 315.327 319.017 315.346 319.239 315.306C319.461 315.266 319.669 315.169 319.842 315.025C320.016 314.88 320.149 314.693 320.228 314.482C320.307 314.27 320.329 314.042 320.293 313.819Z" fill="white"/>
<path d="M380.74 295.404C380.688 295.191 380.586 294.993 380.442 294.827C380.297 294.662 380.116 294.533 379.912 294.452C379.708 294.371 379.487 294.34 379.269 294.362C379.05 294.384 378.84 294.457 378.656 294.577L378.581 294.63C378.412 294.78 378.286 294.971 378.213 295.185C378.141 295.398 378.125 295.627 378.168 295.848C378.211 296.07 378.31 296.276 378.457 296.447C378.604 296.619 378.792 296.749 379.004 296.825C379.216 296.901 379.445 296.921 379.667 296.883C379.889 296.844 380.097 296.749 380.271 296.605C380.445 296.462 380.579 296.276 380.659 296.065C380.74 295.855 380.764 295.627 380.729 295.404H380.74Z" fill="white"/>
<path d="M436.814 247.313C436.762 247.1 436.659 246.902 436.515 246.737C436.371 246.571 436.189 246.442 435.985 246.361C435.781 246.28 435.561 246.249 435.342 246.271C435.124 246.293 434.914 246.366 434.73 246.486L434.654 246.55C434.486 246.701 434.359 246.892 434.288 247.106C434.216 247.32 434.201 247.549 434.244 247.771C434.287 247.992 434.388 248.199 434.535 248.37C434.683 248.54 434.872 248.67 435.085 248.746C435.298 248.821 435.526 248.84 435.749 248.8C435.971 248.761 436.179 248.664 436.352 248.519C436.526 248.375 436.658 248.187 436.737 247.976C436.816 247.764 436.839 247.536 436.803 247.313H436.814Z" fill="white"/>
<path d="M414.046 210.902C413.994 210.688 413.892 210.491 413.748 210.325C413.604 210.159 413.422 210.031 413.218 209.95C413.014 209.869 412.793 209.838 412.575 209.859C412.356 209.881 412.146 209.955 411.962 210.074L411.887 210.139C411.718 210.289 411.592 210.481 411.52 210.695C411.448 210.908 411.433 211.138 411.476 211.359C411.52 211.581 411.62 211.787 411.768 211.958C411.915 212.129 412.105 212.258 412.317 212.334C412.53 212.409 412.759 212.428 412.981 212.389C413.203 212.349 413.411 212.252 413.585 212.107C413.758 211.963 413.891 211.776 413.97 211.564C414.049 211.353 414.072 211.124 414.036 210.902H414.046Z" fill="white"/>
<path d="M369.931 215.468C369.879 215.254 369.776 215.057 369.632 214.891C369.488 214.726 369.306 214.597 369.102 214.516C368.898 214.435 368.677 214.404 368.459 214.426C368.241 214.447 368.03 214.521 367.846 214.64L367.771 214.694C367.603 214.844 367.476 215.035 367.404 215.248C367.331 215.462 367.316 215.691 367.359 215.912C367.401 216.133 367.501 216.34 367.647 216.511C367.794 216.682 367.983 216.812 368.195 216.889C368.407 216.965 368.635 216.985 368.857 216.946C369.079 216.908 369.288 216.812 369.462 216.669C369.636 216.526 369.769 216.34 369.85 216.129C369.93 215.918 369.954 215.69 369.92 215.468H369.931Z" fill="white"/>
<path d="M324.924 84.7656C316.469 90.1377 313.106 101.43 314.696 108.102C315.512 111.465 317.038 114.849 316.372 118.234C315.802 121.167 313.686 123.52 312.074 126.055C309.419 130.324 308.199 135.33 308.593 140.341C308.987 145.352 310.974 150.106 314.264 153.907C317.553 157.708 321.973 160.357 326.876 161.466C331.779 162.575 336.908 162.086 341.513 160.071" fill="#263238"/>
<path d="M319.917 128.806C299.331 83.53 348.303 60.7847 375.012 68.3271C400.121 75.4182 410.833 87.9136 414.97 104.707C419.106 121.5 418.902 139.711 412.316 155.709C409.093 163.595 403.227 171.61 394.749 172.599" fill="#263238"/>
<path d="M344.038 239.374C343.684 217.735 343.426 188.028 343.426 188.146C343.426 188.264 324.871 185.062 320.971 160.823C319.058 148.758 319.671 128.978 320.681 112.808C321.605 98.2497 331.242 80.393 345.747 81.9294L391.033 93.3719C393.159 93.5951 395.124 94.6094 396.537 96.2136C397.95 97.8177 398.708 99.8944 398.661 102.032L395.718 195.688" fill="#FFBE9D"/>
<path d="M328.781 127.602C328.763 128.408 329.061 129.188 329.612 129.776C330.162 130.364 330.92 130.714 331.725 130.75C332.118 130.787 332.515 130.745 332.892 130.625C333.268 130.506 333.617 130.313 333.918 130.056C334.218 129.8 334.464 129.486 334.641 129.132C334.818 128.779 334.923 128.394 334.948 128C334.963 127.194 334.664 126.414 334.115 125.825C333.566 125.236 332.809 124.883 332.004 124.841C331.61 124.806 331.213 124.85 330.837 124.97C330.46 125.091 330.111 125.285 329.811 125.543C329.511 125.8 329.265 126.115 329.088 126.468C328.911 126.822 328.807 127.208 328.781 127.602Z" fill="#263238"/>
<path d="M360.928 127.602C360.913 128.406 361.213 129.183 361.763 129.769C362.313 130.355 363.069 130.703 363.872 130.74C364.265 130.776 364.662 130.734 365.039 130.615C365.415 130.495 365.764 130.302 366.065 130.045C366.365 129.789 366.611 129.475 366.788 129.122C366.965 128.768 367.07 128.383 367.095 127.989C367.113 127.184 366.815 126.404 366.265 125.815C365.715 125.227 364.956 124.877 364.151 124.841C363.757 124.804 363.36 124.847 362.982 124.967C362.605 125.087 362.256 125.282 361.955 125.539C361.654 125.797 361.409 126.112 361.232 126.467C361.056 126.821 360.952 127.207 360.928 127.602Z" fill="#263238"/>
<path d="M325.429 121.951C325.805 122.37 328.223 120.705 331.564 120.877C334.905 121.048 337.301 122.746 337.688 122.348C337.871 122.177 337.495 121.435 336.453 120.619C335.041 119.564 333.336 118.974 331.575 118.932C329.834 118.871 328.118 119.363 326.675 120.339C325.622 121.07 325.246 121.758 325.429 121.951Z" fill="#263238"/>
<path d="M357.21 122.746C357.596 123.154 359.949 121.392 363.291 121.392C366.632 121.392 369.103 123.047 369.458 122.638C369.641 122.456 369.243 121.725 368.169 120.952C366.717 119.949 364.99 119.423 363.226 119.447C361.486 119.447 359.792 120.005 358.391 121.037C357.36 121.833 357.016 122.563 357.21 122.746Z" fill="#263238"/>
<path d="M345.735 148.532C345.735 148.339 343.672 147.984 340.299 147.544C339.439 147.458 338.633 147.286 338.494 146.706C338.417 145.822 338.616 144.936 339.063 144.17C339.858 142.107 340.707 139.937 341.588 137.659C345.101 128.398 347.637 120.769 347.261 120.63C346.885 120.49 343.737 127.893 340.234 137.165L337.806 143.719C337.268 144.749 337.112 145.937 337.366 147.071C337.491 147.372 337.682 147.64 337.926 147.856C338.17 148.072 338.459 148.23 338.773 148.317C339.245 148.45 339.733 148.519 340.224 148.521C343.619 148.704 345.725 148.715 345.735 148.532Z" fill="#263238"/>
<path d="M343.426 188.146C354.848 188.32 366.096 185.322 375.916 179.486C375.916 179.486 367.707 196.354 343.426 194.087V188.146Z" fill="#EB996E"/>
<path d="M356.383 117.986C356.705 118.899 360.057 118.459 363.979 118.942C367.9 119.426 371.081 120.479 371.607 119.662C371.843 119.275 371.285 118.416 370.006 117.513C368.296 116.434 366.362 115.758 364.352 115.537C362.341 115.315 360.307 115.554 358.403 116.235C356.963 116.837 356.232 117.556 356.383 117.986Z" fill="#263238"/>
<path d="M326.202 113.549C326.793 114.312 329.103 113.549 331.875 113.485C334.647 113.42 337 114 337.537 113.205C337.774 112.819 337.408 112.056 336.377 111.336C335.007 110.452 333.396 110.016 331.768 110.09C330.139 110.121 328.56 110.654 327.245 111.615C326.267 112.378 325.944 113.162 326.202 113.549Z" fill="#263238"/>
<path d="M394.503 133.963C394.857 133.791 407.492 128.204 407.643 142.73C407.793 157.256 393.17 154.409 393.138 153.99C393.106 153.571 394.503 133.963 394.503 133.963Z" fill="#FFBE9D"/>
<path d="M397.522 148.424C397.587 148.424 397.78 148.596 398.21 148.79C398.817 149.031 399.494 149.031 400.101 148.79C401.626 148.209 402.894 145.76 402.937 143.138C402.97 141.894 402.716 140.659 402.196 139.528C402.057 139.075 401.809 138.663 401.474 138.327C401.138 137.992 400.726 137.744 400.273 137.605C399.982 137.53 399.673 137.56 399.402 137.69C399.131 137.819 398.914 138.041 398.79 138.314C398.597 138.722 398.693 139.013 398.618 139.034C398.543 139.055 398.296 138.798 398.414 138.196C398.49 137.836 398.687 137.514 398.973 137.283C399.169 137.13 399.393 137.017 399.633 136.95C399.872 136.884 400.123 136.865 400.369 136.896C400.967 137.008 401.525 137.271 401.991 137.661C402.458 138.05 402.817 138.552 403.034 139.12C403.667 140.371 403.984 141.758 403.958 143.16C403.893 146.082 402.422 148.843 400.326 149.467C399.938 149.584 399.527 149.613 399.126 149.552C398.725 149.49 398.342 149.34 398.006 149.112C397.554 148.779 397.479 148.446 397.522 148.424Z" fill="#EB996E"/>
<path d="M340.911 74.7415C332.832 78.9209 329.501 95.4454 332.843 103.912C336.184 112.378 345.198 116.504 354.084 118.449C362.969 120.393 371.683 120.597 380.45 118.191C381.052 124.078 384.586 130.127 390.302 131.685C397.877 133.737 405.505 126.807 407.192 119.147C408.879 111.486 406.343 103.6 403.851 96.1545" fill="#263238"/>
<path d="M404.999 127.441C404.999 127.441 404.634 127.871 403.871 128.516C402.805 129.418 401.689 130.261 400.53 131.041C398.797 132.236 396.891 133.16 394.878 133.78C392.365 134.573 389.663 134.531 387.175 133.662C384.726 132.675 382.673 130.903 381.341 128.623C380.261 126.802 379.55 124.787 379.246 122.692C379.033 121.299 378.958 119.889 379.02 118.481C378.997 117.966 379.058 117.45 379.203 116.955C379.364 116.955 379.203 119.158 379.826 122.585C380.194 124.577 380.922 126.484 381.975 128.215C383.251 130.315 385.168 131.95 387.443 132.878C389.771 133.682 392.293 133.735 394.653 133.028C396.604 132.464 398.467 131.628 400.186 130.546C403.173 128.677 404.913 127.323 404.999 127.441Z" fill="#263238"/>
<path d="M346.724 157.858C347.151 159.117 347.759 160.308 348.529 161.393C348.915 161.936 349.413 162.39 349.989 162.726C350.566 163.061 351.207 163.27 351.87 163.337C352.579 163.332 353.276 163.152 353.898 162.813C354.52 162.474 355.049 161.986 355.437 161.393C356.186 160.177 356.532 158.755 356.426 157.331C356.372 156.053 355.781 154.527 354.513 154.377C353.98 154.358 353.451 154.476 352.977 154.721L346.294 157.428" fill="#EB996E"/>
<path d="M349.388 163.348C349.388 163.144 350.892 163.735 352.955 162.907C354.124 162.456 355.085 161.587 355.652 160.469C355.972 159.786 356.145 159.045 356.16 158.291C356.175 157.538 356.031 156.79 355.738 156.096C355.583 155.742 355.388 155.406 355.157 155.096C354.889 154.817 354.932 154.828 354.653 154.871C354.373 154.914 353.933 155.15 353.578 155.29L352.504 155.741C351.075 156.321 349.775 156.816 348.69 157.235C346.541 158.051 345.112 158.481 345.047 158.309C344.983 158.137 346.251 157.449 348.356 156.44C349.431 155.935 350.666 155.365 352.074 154.71L353.148 154.226C353.546 154.065 353.836 153.893 354.373 153.721C354.694 153.615 355.041 153.615 355.362 153.721C355.655 153.847 355.911 154.047 356.103 154.301C356.82 155.233 357.253 156.353 357.351 157.525C357.448 158.697 357.205 159.872 356.651 160.909C356.294 161.568 355.811 162.149 355.228 162.619C354.645 163.089 353.975 163.439 353.256 163.649C352.322 163.956 351.321 163.997 350.366 163.767C349.678 163.649 349.366 163.423 349.388 163.348Z" fill="#263238"/>
<path d="M410.823 124.003C409.34 123.896 397.339 125.454 398.284 147.748C399.165 168.581 413.777 163.993 418.44 156.15C422.824 148.725 425.381 125.024 410.823 124.003Z" fill="#455A64"/>
<path d="M418.204 126.635C418.17 126.444 418.152 126.25 418.15 126.055C418.15 125.615 418.15 125.056 418.086 124.347C418.086 122.811 417.978 120.662 417.903 117.997C417.795 112.528 417.645 104.911 417.462 96.1329L417.731 96.3907H411.553L411.832 96.1114C411.832 97.766 411.918 99.5173 411.972 101.301C412.176 109.66 412.37 117.417 412.531 123.982V124.175H412.348C409.812 124.76 407.558 126.211 405.977 128.279C404.779 129.883 403.914 131.709 403.431 133.651C403.109 134.903 402.889 136.178 402.775 137.465C402.775 137.906 402.721 138.25 402.711 138.475C402.7 138.701 402.711 138.83 402.711 138.83C402.697 138.712 402.697 138.593 402.711 138.475C402.711 138.25 402.711 137.906 402.711 137.455C402.763 136.151 402.943 134.856 403.248 133.587C403.696 131.588 404.548 129.701 405.751 128.043C407.373 125.89 409.694 124.37 412.316 123.745L412.133 123.982C411.951 117.46 411.725 109.67 411.489 101.301C411.435 99.528 411.392 97.7767 411.349 96.1114V95.8213H418.086V96.0899C418.182 104.879 418.268 112.485 418.333 117.965C418.333 120.629 418.333 122.778 418.333 124.315C418.333 125.024 418.333 125.582 418.333 126.012C418.319 126.225 418.275 126.435 418.204 126.635Z" fill="#455A64"/>
<path d="M410.823 96.122C410.823 96.122 404.549 81.4455 389.604 74.1932C383.888 71.3464 377.884 69.1204 371.693 67.5534C371.693 67.5534 380.418 65.4905 394.525 71.7651C400.971 74.623 407.418 78.3297 411.715 83.9059C414.423 87.4407 417.818 94.3492 417.807 96.122H410.823Z" fill="#455A64"/>
<path d="M372.146 273.905C372.146 273.905 372.231 273.798 372.414 273.615C372.597 273.432 372.876 273.153 373.22 272.777C374.251 271.686 375.219 270.538 376.121 269.339C377.555 267.419 378.865 265.409 380.042 263.322C381.439 260.883 382.9 258.004 384.48 254.791C387.649 248.345 391.313 240.588 395.116 231.67C397.007 227.211 398.941 222.473 400.875 217.477L402.315 213.695C402.769 212.371 403.348 211.094 404.045 209.881C404.789 208.623 405.867 207.596 407.161 206.915C407.819 206.553 408.558 206.365 409.309 206.368C409.719 206.396 410.114 206.537 410.448 206.776C410.765 207.033 411.013 207.365 411.168 207.743V207.818V207.904C411.077 208.416 410.879 208.902 410.588 209.333C410.264 209.781 409.786 210.095 409.245 210.214C408.213 210.357 407.162 210.165 406.247 209.666C405.287 209.218 404.504 208.462 404.023 207.517C403.542 206.573 403.391 205.495 403.594 204.455C403.813 203.386 404.441 202.445 405.345 201.834C406.237 201.211 407.31 200.905 408.396 200.963C408.958 200.967 409.51 201.112 410.002 201.384C410.494 201.656 410.909 202.047 411.211 202.521C411.363 202.793 411.434 203.102 411.415 203.413C411.396 203.723 411.288 204.022 411.104 204.272C410.749 204.722 410.277 205.064 409.739 205.261C408.838 205.603 407.851 205.646 406.924 205.383C405.997 205.119 405.179 204.564 404.593 203.8C404.022 203.02 403.772 202.051 403.894 201.092C403.988 200.158 404.363 199.274 404.969 198.557C405.585 197.832 406.445 197.358 407.386 197.224C407.862 197.162 408.345 197.211 408.798 197.368C409.251 197.525 409.662 197.784 409.997 198.127C410.34 198.497 410.526 198.987 410.513 199.491C410.507 199.743 410.448 199.99 410.341 200.218C410.234 200.446 410.08 200.648 409.89 200.813C409.539 201.128 409.119 201.357 408.663 201.48C408.208 201.603 407.73 201.618 407.268 201.522C406.821 201.405 406.403 201.195 406.042 200.907C405.681 200.618 405.385 200.256 405.173 199.846C404.757 199.076 404.49 198.233 404.389 197.364C404.086 195.675 404.284 193.935 404.958 192.357C405.335 191.552 405.986 190.908 406.795 190.541C407.622 190.235 408.537 190.266 409.342 190.627C409.763 190.78 410.134 191.046 410.413 191.397C410.692 191.748 410.868 192.17 410.921 192.615C410.942 193.07 410.823 193.521 410.579 193.905C410.334 194.29 409.977 194.59 409.557 194.764C409.174 194.96 408.751 195.062 408.321 195.062C407.891 195.062 407.468 194.96 407.085 194.764C406.358 194.344 405.811 193.671 405.549 192.873C405.306 192.116 405.258 191.311 405.409 190.531C405.493 189.77 405.659 189.021 405.904 188.296C406.146 187.551 406.597 186.891 407.204 186.394C407.799 185.916 408.492 185.575 409.234 185.395C409.62 185.285 410.03 185.285 410.416 185.395C410.786 185.523 411.121 185.737 411.394 186.018C411.667 186.287 411.883 186.609 412.028 186.964C412.184 187.346 412.184 187.774 412.028 188.156C411.855 188.51 411.578 188.802 411.234 188.994C410.89 189.186 410.496 189.269 410.104 189.231C409.377 189.22 408.671 188.984 408.085 188.554C406.971 187.733 406.205 186.526 405.936 185.169C405.655 183.83 405.864 182.435 406.527 181.237C406.817 180.663 407.232 180.16 407.741 179.765C408.242 179.384 408.828 179.13 409.449 179.024C410.069 178.898 410.714 178.989 411.276 179.282C411.553 179.432 411.789 179.65 411.961 179.914C412.134 180.178 412.238 180.482 412.264 180.797C412.261 181.389 412.06 181.964 411.695 182.431C411.329 182.898 410.819 183.23 410.244 183.375C409.705 183.49 409.145 183.45 408.628 183.26C408.111 183.069 407.658 182.737 407.322 182.301C406.676 181.524 406.3 180.559 406.247 179.55C406.341 177.793 406.703 176.061 407.322 174.415C407.762 172.867 408.16 171.449 408.525 170.181C409.245 167.656 409.804 165.69 410.201 164.337C410.384 163.681 410.534 163.176 410.642 162.822C410.749 162.467 410.814 162.306 410.814 162.306C410.814 162.306 410.814 162.489 410.695 162.832C410.577 163.176 410.47 163.713 410.309 164.369C409.943 165.733 409.406 167.71 408.729 170.235L407.58 174.479C407.214 176.037 406.505 177.702 406.58 179.529C406.658 180.473 407.035 181.369 407.655 182.086C407.952 182.471 408.351 182.766 408.806 182.937C409.262 183.108 409.756 183.148 410.233 183.053C410.716 182.929 411.145 182.653 411.459 182.266C411.772 181.879 411.953 181.401 411.974 180.904C411.952 180.652 411.867 180.409 411.729 180.197C411.59 179.985 411.401 179.811 411.179 179.69C410.693 179.449 410.141 179.378 409.61 179.486C409.047 179.582 408.516 179.815 408.063 180.163C407.613 180.528 407.246 180.986 406.989 181.506C406.456 182.608 406.316 183.859 406.591 185.051C406.849 186.298 407.562 187.405 408.59 188.156C409.104 188.526 409.718 188.732 410.352 188.747C410.649 188.783 410.951 188.727 411.216 188.587C411.481 188.447 411.696 188.229 411.834 187.963C411.9 187.665 411.882 187.354 411.782 187.065C411.681 186.777 411.502 186.522 411.265 186.33C411.044 186.106 410.776 185.934 410.48 185.825C410.174 185.745 409.852 185.745 409.546 185.825C408.869 185.972 408.241 186.289 407.72 186.745C407.199 187.202 406.804 187.784 406.57 188.436C406.335 189.132 406.18 189.853 406.108 190.584C405.962 191.3 406.007 192.041 406.237 192.733C406.45 193.41 406.91 193.981 407.526 194.334C407.838 194.49 408.182 194.571 408.53 194.571C408.879 194.571 409.223 194.49 409.535 194.334C409.856 194.209 410.131 193.989 410.323 193.702C410.516 193.416 410.615 193.078 410.609 192.733C410.562 192.386 410.419 192.059 410.197 191.788C409.975 191.517 409.683 191.312 409.352 191.197C408.672 190.9 407.903 190.873 407.204 191.122C406.517 191.442 405.966 191.993 405.646 192.68C405.029 194.163 404.854 195.794 405.141 197.375C405.235 198.176 405.48 198.952 405.861 199.663C406.036 200.005 406.28 200.306 406.578 200.549C406.875 200.791 407.22 200.969 407.59 201.071C407.968 201.152 408.36 201.143 408.733 201.044C409.107 200.945 409.451 200.759 409.739 200.501C409.874 200.382 409.983 200.237 410.06 200.074C410.137 199.912 410.18 199.735 410.187 199.556C410.194 199.376 410.165 199.197 410.101 199.029C410.037 198.861 409.939 198.707 409.814 198.578C409.535 198.302 409.196 198.093 408.824 197.968C408.451 197.843 408.055 197.806 407.666 197.858C406.858 197.976 406.123 198.39 405.603 199.019C405.039 199.624 404.695 200.4 404.625 201.224C404.554 202.048 404.763 202.872 405.216 203.563C405.732 204.225 406.446 204.705 407.254 204.933C408.061 205.161 408.921 205.125 409.707 204.831C410.128 204.658 410.498 204.381 410.781 204.025C410.902 203.858 410.973 203.66 410.984 203.455C410.995 203.249 410.947 203.044 410.846 202.865C410.587 202.478 410.238 202.161 409.827 201.941C409.417 201.722 408.958 201.607 408.493 201.608C407.543 201.534 406.598 201.799 405.825 202.355C405.052 202.912 404.501 203.724 404.27 204.648C404.095 205.546 404.222 206.476 404.63 207.294C405.038 208.112 405.705 208.772 406.527 209.172C407.325 209.625 408.249 209.806 409.159 209.687C409.569 209.56 409.931 209.313 410.199 208.978C410.467 208.643 410.629 208.235 410.663 207.807V207.968C410.559 207.671 410.37 207.411 410.12 207.221C409.87 207.03 409.57 206.916 409.256 206.894C408.59 206.891 407.934 207.061 407.354 207.388C406.143 208.022 405.135 208.982 404.442 210.16C403.761 211.338 403.196 212.58 402.755 213.867L401.294 217.66C399.36 222.645 397.405 227.329 395.492 231.842C391.668 240.759 387.972 248.538 384.748 254.942C383.147 258.165 381.665 261.012 380.236 263.451C379.032 265.531 377.693 267.53 376.228 269.435C375.031 271.067 373.663 272.566 372.146 273.905Z" fill="white"/>
<path d="M423.814 113.549C423.683 112.183 423.353 110.844 422.836 109.574C421.275 106.156 418.537 103.415 415.122 101.849C412.777 100.79 410.256 100.174 407.687 100.033C404.73 99.8808 401.766 100.105 398.866 100.699C392.709 101.838 386.241 104.492 379 105.588C375.47 106.055 371.893 106.055 368.363 105.588C365.086 105.094 361.877 104.222 358.801 102.988C353.578 100.884 348.829 97.7573 344.834 93.7906C342.144 91.1382 339.869 88.0957 338.086 84.7656C337.785 84.2581 337.519 83.7304 337.291 83.1862L336.775 81.9936C336.647 81.7035 336.55 81.4564 336.464 81.263C336.423 81.1817 336.394 81.0948 336.378 81.0051C336.434 81.0776 336.481 81.157 336.518 81.2415L336.872 81.9506L337.442 83.111C337.687 83.6481 337.966 84.1685 338.28 84.6689C340.123 87.9282 342.424 90.906 345.113 93.5113C351.456 99.7238 359.609 103.761 368.395 105.04C371.876 105.502 375.402 105.502 378.882 105.04C386.026 103.965 392.505 101.322 398.737 100.205C401.678 99.6171 404.682 99.4077 407.676 99.5817C410.299 99.7407 412.869 100.393 415.25 101.505C418.724 103.132 421.48 105.976 422.997 109.499C423.374 110.457 423.624 111.461 423.738 112.485V113.28C423.777 113.366 423.802 113.456 423.814 113.549Z" fill="#455A64"/>
<path d="M407.6 90.3955C407.345 90.4578 407.087 90.5009 406.826 90.5245C406.321 90.5997 405.569 90.7071 404.613 90.879C402.7 91.1906 399.96 91.803 396.587 92.641C392.64 93.7049 388.622 94.4841 384.564 94.9725C379.577 95.4833 374.546 95.3714 369.587 94.6394C364.626 93.9198 359.768 92.6142 355.115 90.7501C351.3 89.2399 347.646 87.3502 344.209 85.1094C342.77 84.1317 341.48 83.2292 340.384 82.3697C339.288 81.5101 338.364 80.7688 337.655 80.1027L336.022 78.5663C335.657 78.2117 335.464 78.0183 335.485 77.9968C335.704 78.1386 335.909 78.3005 336.097 78.4803L337.795 79.9308C338.526 80.5754 339.503 81.263 340.578 82.0796C341.652 82.8961 342.984 83.7879 344.424 84.7334C352.083 89.565 360.669 92.7383 369.63 94.0485C374.55 94.769 379.539 94.8917 384.489 94.4138C388.523 93.9751 392.523 93.2571 396.458 92.265C399.842 91.4807 402.614 90.922 404.548 90.6641C405.515 90.5352 406.267 90.46 406.783 90.4278C407.053 90.3888 407.327 90.378 407.6 90.3955Z" fill="#455A64"/>
<path d="M409.19 162.381C409.046 162.353 408.905 162.31 408.771 162.252C408.396 162.095 408.037 161.904 407.696 161.683C406.397 160.829 405.319 159.68 404.548 158.331C403.446 156.312 402.787 154.081 402.614 151.787C402.367 149.014 402.367 146.224 402.614 143.45C402.847 140.677 403.307 137.928 403.99 135.231C404.478 133.003 405.285 130.857 406.385 128.859C407.178 127.505 408.283 126.359 409.609 125.518C409.947 125.295 410.307 125.108 410.683 124.959C410.952 124.863 411.102 124.82 411.102 124.841C411.102 124.863 410.554 125.088 409.684 125.701C408.47 126.59 407.465 127.734 406.74 129.053C405.706 131.041 404.954 133.164 404.505 135.36C403.853 138.036 403.408 140.759 403.173 143.504C402.948 146.242 402.948 148.995 403.173 151.734C403.31 153.981 403.91 156.176 404.935 158.18C405.644 159.509 406.643 160.662 407.857 161.554C408.674 162.123 409.222 162.327 409.19 162.381Z" fill="#263238"/>
<path d="M360.867 159.062L349.839 161.225C348.179 161.551 347.098 163.16 347.424 164.819L347.504 165.231C347.83 166.89 349.439 167.972 351.098 167.646L362.127 165.482C363.786 165.157 364.867 163.548 364.542 161.888L364.461 161.477C364.136 159.817 362.526 158.736 360.867 159.062Z" fill="#455A64"/>
<path d="M362.979 160.694L413.96 144.707C414.566 144.518 415.222 144.575 415.785 144.867C416.348 145.159 416.774 145.661 416.969 146.265C417.067 146.575 417.102 146.902 417.071 147.226C417.04 147.55 416.943 147.865 416.788 148.151C416.632 148.436 416.421 148.688 416.166 148.89C415.911 149.092 415.617 149.241 415.303 149.327L363.173 163.402L362.979 160.694Z" fill="#455A64"/>
<path d="M400.66 153.668C401.206 153.427 401.77 153.229 402.347 153.077L407.01 151.659C408.965 151.057 411.372 150.412 413.907 149.585C414.534 149.351 415.102 148.985 415.573 148.511C416.037 148.038 416.296 147.4 416.293 146.738C416.29 146.412 416.185 146.096 415.992 145.833C415.799 145.571 415.528 145.376 415.218 145.277C414.51 145.096 413.765 145.119 413.069 145.341L397.78 150.262L393.128 151.702C392.595 151.921 392.046 152.097 391.484 152.228C392.022 151.967 392.578 151.748 393.15 151.573L397.748 149.961C401.648 148.639 406.999 146.802 413.016 144.879C413.816 144.647 414.665 144.647 415.465 144.879C415.874 145.027 416.228 145.295 416.481 145.647C416.734 146 416.875 146.422 416.883 146.856C416.885 147.66 416.568 148.433 416.002 149.005C415.437 149.501 414.769 149.868 414.047 150.079C411.415 150.906 409.062 151.487 407.074 152.045L402.411 153.302C401.84 153.479 401.254 153.601 400.66 153.668Z" fill="#263238"/>
<path d="M317.35 114.623C319.091 120.747 312.87 126.001 310.678 131.986C308.529 137.766 310.356 144.245 312.967 149.832C315.578 155.419 319.016 160.705 320.348 166.711C323.646 181.538 310.238 197.514 312.827 212.481C313.751 217.939 315.954 223.633 317.855 228.822C319.693 233.716 319.693 239.11 317.855 244.004C314.954 252.599 310.034 256.628 306.574 264.987C304.801 269.285 304.941 274.055 305.027 278.675C305.113 283.295 305.091 288.13 303.028 292.277C300.966 296.424 296.26 299.626 291.79 298.423C294.202 301.125 297.438 302.957 300.996 303.635C304.554 304.313 308.237 303.799 311.473 302.173C317.35 299.035 320.638 292.675 323.453 286.637C337.076 257.402 344.286 254.931 343.867 222.677C343.867 220.603 343.458 188.296 343.458 188.296C340.635 187.538 337.928 186.399 335.411 184.911C320.197 174.404 319.639 155.687 319.757 141.172" fill="#263238"/>
<path d="M347.756 212.481V224.654C347.756 224.654 338.398 272.411 335.583 298.939C332.768 325.466 332.306 332.471 332.306 332.471C332.306 332.471 339.021 342.947 353.063 325.154C367.106 307.362 369.609 304.558 375.228 304.246C375.228 304.246 368.363 229.65 368.674 226.889C369.022 224.93 369.882 223.099 371.167 221.581L347.756 212.481Z" fill="#FFBE9D"/>
<path d="M366.171 185.019C366.171 185.019 350.882 205.304 349.636 208.097C348.39 210.891 347.756 212.459 347.756 212.459L371.167 221.517L393.956 196.547L402.379 174.382L399.876 148.167C399.876 148.167 394.89 147.855 393.956 152.228C393.383 154.997 393.169 157.828 393.322 160.651L386.338 155.032L375.067 151.605C375.067 151.605 372.414 155.967 376.786 158.159C381.159 160.351 382.406 160.308 382.406 160.308L386.338 167.173L384.619 174.866L376.647 167.345C375.875 166.616 374.872 166.18 373.812 166.113C372.752 166.047 371.702 166.353 370.845 166.98L365.688 170.719L360.864 168.57L351.506 176.939L347.756 180.367C347.756 180.367 350.259 185.051 355.277 182.87L360.273 180.721L366.171 185.019Z" fill="#FFBE9D"/>
<path d="M347.755 216.596C347.741 216.377 347.741 216.159 347.755 215.94C347.755 215.511 347.809 214.866 347.905 214.039C348.031 213.005 348.228 211.982 348.496 210.977C348.83 209.588 349.382 208.261 350.129 207.044C353.632 201.672 359.144 194.151 366.02 184.901V185.18L360.089 180.818H360.293L357.21 182.182C356.151 182.699 355.051 183.126 353.922 183.461C352.693 183.755 351.4 183.607 350.269 183.042C349.119 182.451 348.164 181.54 347.519 180.42L347.433 180.27L347.572 180.141C351.591 176.359 356.071 172.545 360.669 168.462L360.809 168.344L360.959 168.43L365.117 170.89H364.849L369.705 167.667C370.554 167.119 371.317 166.593 372.23 166.034C372.727 165.787 373.283 165.681 373.836 165.729C374.39 165.776 374.919 165.975 375.367 166.303L384.833 174.307L384.392 174.457C384.908 172.147 385.467 169.644 386.025 167.119V167.312L382.093 160.447L382.34 160.587C381.672 160.496 381.018 160.319 380.396 160.06C379.783 159.835 379.171 159.577 378.558 159.308C377.946 159.039 377.344 158.739 376.743 158.449C376.431 158.298 376.13 158.094 375.829 157.922C375.535 157.712 375.262 157.475 375.013 157.213C374.652 156.83 374.371 156.38 374.186 155.887C374.002 155.394 373.918 154.87 373.938 154.344C373.973 153.317 374.257 152.314 374.766 151.422L374.873 151.239L375.088 151.304L386.348 154.742H386.402L393.385 160.361L392.945 160.597C392.794 157.815 392.993 155.025 393.536 152.292C393.65 151.587 393.912 150.915 394.304 150.319C394.697 149.722 395.211 149.216 395.813 148.833C397.015 148.124 398.395 147.777 399.789 147.833H400.079V148.07C400.96 157.385 401.787 166.174 402.55 174.285V174.339C399.434 182.505 396.598 189.918 394.084 196.483L376.442 215.951L371.65 221.14C371.102 221.71 370.683 222.161 370.393 222.473L369.952 222.913C369.952 222.913 370.081 222.741 370.35 222.43L371.564 221.065L376.291 215.811L393.847 196.472V196.526L402.228 174.35V174.457C401.443 166.345 400.605 157.568 399.703 148.242L399.95 148.489C398.668 148.436 397.399 148.757 396.297 149.413C395.755 149.757 395.294 150.213 394.944 150.751C394.594 151.288 394.363 151.894 394.266 152.529C393.727 155.211 393.532 157.951 393.686 160.683V161.306L393.203 160.92L386.111 155.268H386.208L374.948 151.841L375.26 151.712C374.807 152.522 374.553 153.428 374.519 154.355C374.499 154.809 374.571 155.263 374.729 155.689C374.888 156.116 375.131 156.506 375.443 156.837C375.665 157.064 375.906 157.273 376.162 157.46C376.452 157.621 376.71 157.793 377.011 157.944C377.613 158.234 378.204 158.535 378.805 158.792C379.937 159.345 381.131 159.759 382.362 160.028H382.534L382.598 160.135L386.53 167.001L386.584 167.098V167.205C386.015 169.73 385.51 172.233 384.94 174.543L384.844 174.995L384.489 174.694L375.056 166.711C374.689 166.438 374.255 166.271 373.8 166.23C373.345 166.188 372.887 166.273 372.477 166.474C371.682 166.947 370.823 167.549 370.006 168.075L365.139 171.299L365.01 171.384L364.87 171.309L360.712 168.838H361.013C356.415 172.899 351.924 176.714 347.895 180.474L347.948 180.195C348.542 181.231 349.422 182.075 350.484 182.623C351.519 183.149 352.708 183.286 353.836 183.01C354.942 182.686 356.02 182.273 357.059 181.774L360.143 180.42H360.261L360.358 180.485L366.278 184.868L366.439 184.987L366.321 185.148C359.412 194.398 353.847 201.855 350.301 207.173C349.555 208.368 348.993 209.668 348.636 211.03C348.362 212.026 348.15 213.038 348.002 214.06C347.884 214.887 347.83 215.532 347.798 215.951C347.766 216.37 347.755 216.596 347.755 216.596Z" fill="#EB996E"/>
<path d="M376.722 189.714C376.614 189.714 377.023 188.06 377.194 185.417C377.308 183.876 377.057 182.33 376.464 180.904C375.567 179.234 374.29 177.798 372.736 176.714C369.959 174.586 367.064 172.616 364.065 170.815L361.325 169.204C360.973 169.03 360.642 168.817 360.337 168.57C360.715 168.662 361.077 168.81 361.411 169.01C362.099 169.322 363.077 169.816 364.259 170.472C367.333 172.187 370.278 174.126 373.069 176.273C374.694 177.407 376.015 178.924 376.915 180.689C377.532 182.191 377.761 183.824 377.581 185.438C377.49 186.503 377.314 187.56 377.055 188.597C376.996 188.983 376.884 189.359 376.722 189.714Z" fill="#EB996E"/>
<path d="M393.107 179.98C393.175 179.034 393.308 178.093 393.504 177.165C393.839 174.924 394.001 172.661 393.987 170.396C393.959 168.124 393.757 165.858 393.386 163.616C393.179 162.696 393.032 161.763 392.945 160.823C393.34 161.688 393.618 162.603 393.773 163.541C394.764 168.05 394.804 172.715 393.891 177.24C393.752 178.184 393.488 179.105 393.107 179.98Z" fill="#EB996E"/>
<path d="M288.77 100.366L277.596 80.6289C284.516 69.3894 286.981 55.9681 284.508 43.0029C282.035 30.0378 274.802 18.4665 264.231 10.5634C253.659 2.66038 240.514 -1.00288 227.379 0.293675C214.244 1.59023 202.069 7.75284 193.247 17.5702C184.425 27.3876 179.594 40.1497 179.703 53.3482C179.812 66.5466 184.855 79.2269 193.838 88.8966C202.822 98.5663 215.098 104.526 228.253 105.605C241.407 106.683 254.49 102.802 264.929 94.7252L288.77 100.366Z" fill="white"/>
<path d="M288.77 100.366L264.854 94.8863H264.65L264.779 94.7144L264.972 94.9078C261.622 97.509 257.976 99.7053 254.11 101.451C249.508 103.51 244.634 104.9 239.638 105.577C236.869 105.962 234.072 106.103 231.279 105.996C229.85 105.92 228.378 105.878 226.906 105.759L222.447 105.082C209.158 102.452 197.373 94.8513 189.495 83.8306C185.097 77.7418 182.056 70.7807 180.577 63.4168C179.051 55.6413 179.264 47.6245 181.2 39.9409C183.192 31.9097 187.07 24.4695 192.514 18.2378L194.663 15.8633C195.372 15.0683 196.221 14.4129 196.983 13.7145C197.745 12.9579 198.545 12.2407 199.379 11.5657L201.915 9.67471C202.749 9.05636 203.625 8.49633 204.537 7.99863L207.212 6.37627L210.016 5.03326C210.928 4.55094 211.873 4.13096 212.842 3.7762C220.349 0.810317 228.427 -0.434301 236.479 0.133942C244.098 0.667943 251.507 2.86859 258.182 6.58041C270.181 13.2579 279.152 24.2948 283.237 37.4053C284.878 42.9842 285.653 48.7818 285.536 54.5959C285.396 59.6331 284.528 64.6236 282.958 69.412C281.646 73.3964 279.868 77.2119 277.661 80.7793V80.6396L288.738 100.441C288.265 99.6137 284.677 93.3929 277.425 80.7685V80.704V80.6396C279.596 77.0803 281.345 73.2799 282.635 69.3153C284.167 64.5495 285.01 59.5893 285.139 54.5851C285.232 48.8231 284.446 43.0805 282.807 37.5557C278.727 24.5755 269.82 13.6569 257.924 7.05315C251.309 3.39967 243.975 1.23961 236.436 0.724863C228.459 0.162938 220.458 1.40034 213.024 4.34563C212.066 4.69681 211.133 5.11322 210.231 5.59195L207.459 6.93496L204.805 8.54658C203.898 9.05041 203.032 9.62523 202.216 10.2656L199.702 12.1351C198.853 12.7368 198.133 13.5211 197.338 14.198C196.543 14.8749 195.748 15.5732 195.039 16.3468L192.89 18.689C187.505 24.861 183.667 32.2271 181.695 40.1772C179.777 47.7829 179.56 55.7179 181.061 63.4168C182.526 70.697 185.529 77.5801 189.871 83.605C197.692 94.5021 209.358 102.025 222.511 104.653L226.927 105.33C228.388 105.458 229.85 105.491 231.225 105.577C233.996 105.689 236.771 105.559 239.519 105.19C248.705 103.974 257.405 100.348 264.736 94.6821L265.574 94.0375L264.929 94.8863L264.843 94.6607L288.77 100.366Z" fill="#263238"/>
<path d="M221.158 52.9844C221.158 53.8344 220.906 54.6653 220.434 55.3721C219.961 56.0788 219.29 56.6296 218.505 56.9549C217.719 57.2802 216.855 57.3653 216.022 57.1995C215.188 57.0337 214.422 56.6243 213.821 56.0233C213.22 55.4223 212.811 54.6565 212.645 53.8228C212.479 52.9892 212.564 52.1251 212.89 51.3398C213.215 50.5545 213.766 49.8833 214.473 49.4111C215.179 48.9388 216.01 48.6868 216.86 48.6868C218 48.6868 219.093 49.1396 219.899 49.9455C220.705 50.7515 221.158 51.8446 221.158 52.9844Z" fill="#263238"/>
<path d="M238.305 52.9844C238.305 53.8344 238.053 54.6653 237.581 55.3721C237.109 56.0788 236.438 56.6296 235.652 56.9549C234.867 57.2802 234.003 57.3653 233.169 57.1995C232.336 57.0337 231.57 56.6243 230.969 56.0233C230.368 55.4223 229.958 54.6565 229.793 53.8228C229.627 52.9892 229.712 52.1251 230.037 51.3398C230.362 50.5545 230.913 49.8833 231.62 49.4111C232.327 48.9388 233.158 48.6868 234.008 48.6868C235.147 48.6868 236.241 49.1396 237.046 49.9455C237.852 50.7515 238.305 51.8446 238.305 52.9844Z" fill="#263238"/>
<path d="M255.421 50.8355C255.848 51.5713 256.048 52.4175 255.994 53.2667C255.94 54.1159 255.635 54.93 255.118 55.6058C254.601 56.2816 253.895 56.7887 253.089 57.0628C252.284 57.3369 251.415 57.3657 250.593 57.1455C249.771 56.9253 249.033 56.466 248.472 55.8259C247.911 55.1858 247.553 54.3936 247.443 53.5498C247.333 52.706 247.476 51.8486 247.854 51.0861C248.232 50.3236 248.827 49.6905 249.566 49.2669C250.551 48.7014 251.72 48.549 252.817 48.8429C253.914 49.1369 254.85 49.8533 255.421 50.8355Z" fill="#263238"/>
<path d="M500.001 389.823C500.001 389.984 390.776 390.102 256.109 390.102C121.442 390.102 12.2178 389.984 12.2178 389.823C12.2178 389.662 121.41 389.543 256.163 389.543C390.916 389.543 500.001 389.672 500.001 389.823Z" fill="#263238"/>
<path d="M361.992 390.091C364.513 386.255 367.914 383.076 371.911 380.818C375.908 378.561 380.387 377.29 384.974 377.112C400.671 376.575 408.514 390.091 408.514 390.091H361.992Z" fill="#455A64"/>
<path d="M392.076 389.672C391.868 388.903 391.714 388.12 391.614 387.33C390.77 383.603 388.548 380.333 385.393 378.176C384.698 377.787 384.027 377.356 383.384 376.887C384.195 377.011 384.969 377.312 385.651 377.768C387.363 378.767 388.831 380.137 389.946 381.777C391.061 383.416 391.796 385.284 392.097 387.244C392.266 388.045 392.258 388.874 392.076 389.672Z" fill="#263238"/>
<path d="M352.28 389.522V389.414C352.255 387.834 351.608 386.326 350.48 385.219C349.352 384.111 347.834 383.491 346.253 383.494H212.66C211.062 383.494 209.529 384.129 208.398 385.26C207.268 386.39 206.633 387.923 206.633 389.522H352.28Z" fill="#455A64"/>
<path d="M96.5264 155.451C96.5264 158.266 98.6752 326.046 98.6752 326.046L223.307 356.032H233.546L226.992 121.811H217.623L96.5264 155.451Z" fill="#263238"/>
<path d="M122.882 319.073L84.2568 389.855H119.562C113.244 389.232 175.431 389.855 175.431 389.855L119.562 375.039L137.043 335.339L135.549 319.073H122.882Z" fill="#263238"/>
<path d="M123.742 332.138L119.562 200.2L157.511 196.568L162.184 337.434L148.636 338.122L123.742 332.138Z" fill="#263238"/>
<path d="M167.491 342.656C167.491 342.656 167.491 342.452 167.491 342.044C167.491 341.635 167.491 341.023 167.491 340.239C167.491 338.627 167.491 336.274 167.491 333.233C167.491 327.099 167.438 318.192 167.406 306.986C167.406 284.563 167.352 253.007 167.309 216.413L167.577 216.681H122.721L123 216.402V222.483C123 258.175 123 291.385 122.946 319.062V319.116C111.321 340.421 101.684 358.106 94.9365 370.462C91.5628 376.629 88.909 381.464 87.0933 384.773C86.1908 386.406 85.4924 387.652 85.0197 388.523C84.5469 389.393 84.2783 389.79 84.2783 389.79C84.2783 389.79 84.5039 389.339 84.9552 388.49C85.4064 387.642 86.0941 386.342 86.9643 384.698C88.7586 381.378 91.3694 376.521 94.7001 370.333L122.527 318.89V319.008C122.527 291.331 122.527 258.121 122.527 222.429V216.069H167.846V216.337C167.846 252.932 167.771 284.487 167.749 306.91C167.749 318.106 167.685 327.023 167.663 333.158C167.663 336.199 167.663 338.53 167.663 340.163C167.663 340.948 167.663 341.549 167.663 341.968C167.663 342.387 167.491 342.656 167.491 342.656Z" fill="#455A64"/>
<path d="M137.042 335.339C137.182 335.393 131.81 347.824 125.041 363.081C118.272 378.337 112.664 390.672 112.524 390.607C112.384 390.543 117.757 378.122 124.525 362.855C131.294 347.588 136.903 335.275 137.042 335.339Z" fill="#455A64"/>
<path d="M223.254 356.076C223.254 356.076 223.254 355.871 223.254 355.474C223.254 355.076 223.254 354.464 223.254 353.701C223.254 352.122 223.201 349.833 223.168 346.889C223.168 340.98 222.986 332.428 222.782 321.856C222.384 300.711 221.428 271.519 220.257 239.276C219.086 207.033 218.194 177.809 217.893 156.665C217.732 146.093 217.657 137.53 217.689 131.62C217.689 128.676 217.689 126.388 217.689 124.809C217.689 124.046 217.689 123.466 217.689 123.036C217.689 122.606 217.689 122.434 217.689 122.434C217.689 122.434 217.689 122.638 217.689 123.036C217.689 123.433 217.689 124.046 217.689 124.809C217.689 126.388 217.689 128.676 217.775 131.62C217.775 137.53 217.947 146.082 218.162 156.654C218.624 177.798 219.58 207.022 220.751 239.255C221.922 271.487 222.814 300.7 223.115 321.845C223.276 332.417 223.34 340.98 223.319 346.889C223.319 349.833 223.319 352.122 223.319 353.701C223.319 354.464 223.319 355.055 223.319 355.474C223.319 355.893 223.254 356.076 223.254 356.076Z" fill="#455A64"/>
<path d="M160.69 215.435C160.852 215.435 160.97 243.498 160.97 278.105C160.97 312.712 160.852 340.776 160.69 340.776C160.529 340.776 160.411 312.723 160.411 278.105C160.411 243.488 160.54 215.435 160.69 215.435Z" fill="#455A64"/>
<path d="M93.55 378.81C93.3467 378.577 93.1668 378.326 93.0128 378.058C92.8301 377.8 92.626 377.488 92.3896 377.134C92.1053 376.713 91.847 376.275 91.6161 375.823C90.0407 372.981 88.8931 369.922 88.2102 366.744C87.2191 362.023 86.9942 357.172 87.544 352.379C88.2164 346.511 89.7892 340.782 92.207 335.393C93.4862 332.61 95.1223 330.006 97.0741 327.646C97.5185 327.061 97.9956 326.502 98.503 325.97C98.9973 325.433 99.47 324.896 99.9642 324.38C101.039 323.403 101.973 322.403 103.037 321.555C104.997 319.887 107.084 318.375 109.279 317.031C110.354 316.451 111.332 315.839 112.341 315.355C113.351 314.872 114.308 314.356 115.275 314.012C118.261 312.733 121.416 311.893 124.643 311.52C125.516 311.4 126.396 311.347 127.276 311.358C127.583 311.333 127.892 311.333 128.2 311.358C127.898 311.41 127.593 311.442 127.287 311.455C126.412 311.495 125.54 311.585 124.676 311.724C121.486 312.177 118.373 313.067 115.425 314.367C114.469 314.721 113.545 315.259 112.535 315.721C111.525 316.183 110.558 316.795 109.516 317.418C107.354 318.766 105.299 320.278 103.37 321.941C102.296 322.779 101.361 323.779 100.34 324.746C99.8568 325.251 99.384 325.82 98.9006 326.314C98.4063 326.845 97.9401 327.4 97.5038 327.98C95.5831 330.308 93.9724 332.876 92.712 335.619C90.3175 340.951 88.7488 346.618 88.0597 352.422C87.4894 357.163 87.6707 361.964 88.597 366.648C89.2462 369.802 90.331 372.85 91.8202 375.705C92.0339 376.165 92.278 376.61 92.5508 377.037L93.1202 377.993C93.2815 378.256 93.4251 378.529 93.55 378.81Z" fill="#455A64"/>
</svg>
