<svg width="132" height="150" viewBox="0 0 132 150" fill="none" xmlns="http://www.w3.org/2000/svg">
<path d="M130.476 52.6649C129.352 48.7962 126.42 45.6762 122.676 44.3659C122.8 44.1787 122.925 43.8667 122.988 43.6795H95.9691C92.8492 43.6795 92.8492 37.4396 95.9691 37.4396H118.557C121.178 37.4396 123.424 35.942 124.36 33.6333C123.362 29.3902 120.679 25.9021 116.38 24.9599H89.7292C86.6093 24.9599 86.6093 18.72 89.7292 18.72H114.689C114.82 18.72 117.247 18.7824 118.189 15.5377V15.4753C115.749 10.7267 108.829 7.23868 103.332 6.29646C98.6522 5.48528 97.7225 4.73648 93.9099 3.9877C84.6125 2.24678 74.3168 0.686813 61.4627 0.187637C60.7763 0.118988 60.0275 0.118988 59.2787 0.118988H59.0915C37.3768 0.187622 24.9595 12.5987 24.9595 12.5987V59.3977C24.9595 59.3977 28.1418 68.6951 40.5591 87.477C55.7844 110.44 56.1588 93.7793 70.5728 133.215C71.4464 135.649 73.0688 137.833 76.0015 137.646C78.4413 137.458 80.4318 135.898 80.931 133.839C80.2509 122.919 78.1917 113.372 74.6912 106.134C72.5072 101.517 70.3857 97.1488 69.2001 92.4689C68.7009 90.3474 68.8257 88.9746 69.2001 88.5378C69.2625 88.4754 69.3873 88.3506 69.5121 88.2882C69.4497 88.1634 69.4497 87.9762 69.3873 87.8514C67.6401 80.8004 69.9489 74.9973 80.7438 74.9973H124.797C127.356 74.9973 129.54 73.4374 130.476 71.2534C129.845 69.0071 128.535 67.0103 126.794 65.5127C127.418 64.9511 127.973 64.3896 128.416 63.7032C127.418 62.9606 126.17 62.399 124.797 62.399H95.9691C92.8492 62.399 92.8492 56.1592 95.9691 56.1592H124.797C127.293 56.1592 129.477 54.7864 130.476 52.6649Z" fill="#FFBE9D"/>
<path d="M12.4796 59.279C12.4796 61.0012 11.0819 62.3989 9.35968 62.3989C7.63747 62.3989 6.23975 61.0012 6.23975 59.279V9.36011C6.23975 7.63791 7.63747 6.24018 9.35968 6.24018C11.0819 6.24018 12.4796 7.63791 12.4796 9.36011V59.279Z" fill="#5FFFBA"/>
<path d="M126.794 65.5185C129.414 63.2098 131.037 59.9027 131.037 56.2211C131.037 50.8611 127.543 46.0502 122.675 44.3716C124.048 42.3687 124.797 39.9975 124.797 37.4392C124.797 31.3865 121.864 26.2074 116.186 25.0218C118.557 25.0218 119.368 20.5915 118.869 17.6588C117.871 11.7933 109.64 7.36304 103.332 6.30226C98.652 5.49107 97.7222 4.74228 93.9097 3.9935C82.6779 1.87195 69.9486 0 53.0386 0C28.8903 0 14.913 13.6653 14.2891 14.2893L12.4795 16.0988V66.5169L12.7915 67.5153C12.9787 67.9458 16.7226 77.6239 29.1399 97.0236C45.8003 123.106 43.866 102.827 58.2801 141.015C60.2768 146.443 64.1455 150 69.387 150L70.1358 149.938C76.4381 149.563 81.3051 144.509 81.118 138.456C80.806 125.602 78.6844 114.37 74.6909 106.134C72.5069 101.516 70.3854 97.1484 69.1998 92.4685C68.7006 90.3469 68.8254 88.9742 69.1998 88.5374C69.5742 88.1006 71.0718 87.358 74.5037 87.358H96.7176C98.4648 87.358 99.8375 85.9853 99.8375 84.2381C99.8375 82.491 98.4648 81.1182 96.7176 81.1182H74.5037C63.7087 81.1182 61.4 86.9212 63.1472 93.9723C66.7039 108.199 74.4413 121.49 74.8781 138.65C75.0029 141.27 72.6941 143.579 69.7614 143.766C66.8287 143.954 65.2063 141.77 64.3327 139.336C49.9187 99.9002 49.5443 116.561 34.319 93.5979C21.9017 74.8159 18.7194 65.5185 18.7194 65.5185V18.7196C18.7194 18.7196 31.1991 6.23985 53.0386 6.23985C74.8781 6.23985 83.6139 9.35979 102.333 12.4797C105.703 13.0413 112.317 15.2253 112.317 18.7196C112.317 24.897 108.573 24.9594 108.449 24.9594H95.9688C92.8489 24.9594 92.8489 31.1993 95.9688 31.1993H112.317C115.749 31.1993 118.557 33.9448 118.557 37.4392C118.557 40.8711 115.749 43.679 112.317 43.679H102.209C99.0887 43.679 99.0887 49.9189 102.209 49.9189H118.557C121.989 49.9189 124.797 52.7892 124.797 56.2211C124.797 59.6531 121.989 62.3986 118.557 62.3986H102.209C99.0887 62.3986 99.0887 68.6385 102.209 68.6385H118.557C121.989 68.6385 124.797 71.384 124.797 74.8783C124.797 78.3102 121.989 81.1182 118.557 81.1182H109.197C107.45 81.1182 106.077 82.491 106.077 84.2381C106.077 85.9853 107.45 87.358 109.197 87.358H118.557C125.421 87.358 131.037 81.7422 131.037 74.8783C131.037 71.1344 129.414 67.7649 126.794 65.5185Z" fill="#2D2220"/>
<path d="M99.8375 84.2385C99.8375 85.9607 98.4398 87.3584 96.7176 87.3584C94.9954 87.3584 93.5977 85.9607 93.5977 84.2385C93.5977 82.5163 94.9954 81.1185 96.7176 81.1185C98.4398 81.1185 99.8375 82.5163 99.8375 84.2385Z" fill="#2D2220"/>
<path d="M6.23986 40.5595C6.23986 38.8373 4.84213 37.4396 3.11993 37.4396C1.39773 37.4396 0 38.8373 0 40.5595V65.519C0 67.2412 1.39773 68.6389 3.11993 68.6389C4.84213 68.6389 6.23986 67.2412 6.23986 65.519V40.5595Z" fill="#2D2220"/>
<path d="M6.23986 28.0798C6.23986 29.802 4.84213 31.1997 3.11993 31.1997C1.39773 31.1997 0 29.802 0 28.0798V15.6001C0 13.8779 1.39773 12.4801 3.11993 12.4801C4.84213 12.4801 6.23986 13.8779 6.23986 15.6001V28.0798Z" fill="#2D2220"/>
</svg>
