<svg width="535" height="500" viewBox="0 0 535 500" fill="none" xmlns="http://www.w3.org/2000/svg">
<path d="M530.783 499.688C530.783 499.861 411.962 500 265.409 500C118.856 500 0 499.861 0 499.688C0 499.514 118.798 499.387 265.409 499.387C412.02 499.387 530.783 499.526 530.783 499.688Z" fill="#263238"/>
<path d="M308.814 499.422H337.332V452.756H308.814V499.422Z" fill="#6A3D88"/>
<path d="M423.799 499.422H452.316V420.25H423.799V499.422Z" fill="#6A3D88"/>
<path d="M481.295 499.411H509.812V470.65H481.295V499.411Z" fill="#6A3D88"/>
<path d="M366.3 499.411H394.817V430.573H366.3V499.411Z" fill="#6A3D88"/>
<path d="M251.317 499.422H279.835V413.649H251.317V499.422Z" fill="#6A3D88"/>
<path d="M193.831 499.411H222.349V389.074H193.831V499.411Z" fill="#6A3D88"/>
<path d="M136.345 499.422H164.862L164.862 361.735H136.345L136.345 499.422Z" fill="#6A3D88"/>
<path d="M78.8369 499.411H107.354L107.354 324.629H78.8369L78.8369 499.411Z" fill="#6A3D88"/>
<path d="M21.3496 499.411H49.8672L49.8672 269.652H21.3496L21.3496 499.411Z" fill="#6A3D88"/>
<path d="M459.956 468.489C455.293 459.646 448.38 452.19 439.914 446.873C431.449 441.555 421.731 438.565 411.741 438.202C423.821 424.828 426.202 404.136 419.232 387.513C412.261 370.891 396.922 358.487 379.698 353.147C362.474 347.806 343.643 349.054 326.524 354.58C328.523 341.587 315.519 328.606 302.526 330.628C305.112 328.858 306.939 326.182 307.646 323.128C308.353 320.075 307.888 316.868 306.343 314.141C304.798 311.415 302.285 309.367 299.303 308.405C296.321 307.442 293.085 307.634 290.238 308.943L291.012 213.61H234.37L235.133 308.896C232.267 307.459 228.957 307.177 225.889 308.109C222.82 309.042 220.228 311.118 218.646 313.907C217.064 316.697 216.614 319.988 217.389 323.099C218.164 326.211 220.105 328.907 222.811 330.628C209.818 328.606 196.813 341.587 198.801 354.58C181.647 349.054 162.805 347.794 145.627 353.147C128.449 358.499 112.994 370.879 106.058 387.513C99.1226 404.148 101.435 424.828 113.561 438.202C103.569 438.565 93.8496 441.556 85.3825 446.873C76.9155 452.19 70.0002 459.646 65.3339 468.489C60.0627 478.8 59.5541 494.024 69.819 499.41H455.471C465.725 494.024 465.239 478.8 459.956 468.489Z" fill="#EBEBEB"/>
<path d="M69.7849 499.411L68.4093 498.59C67.0829 497.7 65.9114 496.599 64.9414 495.33C63.4291 493.211 62.4065 490.783 61.9475 488.221C61.316 484.704 61.3591 481.099 62.0746 477.598C62.918 473.171 64.5887 468.944 66.999 465.136C69.8015 460.527 73.2725 456.358 77.2987 452.768C81.9334 448.576 87.2198 445.168 92.9504 442.676L95.2623 441.693L97.6667 440.85C98.478 440.557 99.3037 440.307 100.14 440.098C100.984 439.867 101.817 439.601 102.684 439.416C106.228 438.62 109.838 438.152 113.469 438.017L113.33 438.318C109.683 434.198 106.833 429.435 104.926 424.273C102.287 416.97 101.352 409.16 102.193 401.441C103.035 393.721 105.63 386.296 109.781 379.734C111.546 376.849 113.582 374.14 115.862 371.642C125.616 360.981 138.547 353.749 152.737 351.02C160.243 349.537 167.916 349.086 175.544 349.679C183.449 350.317 191.254 351.869 198.802 354.303L198.455 354.603C198.007 351.463 198.348 348.261 199.449 345.286C200.604 342.202 202.384 339.39 204.678 337.026C206.971 334.663 209.729 332.8 212.777 331.553C215.956 330.27 219.42 329.859 222.811 330.363L222.603 330.871C219.968 329.056 218.108 326.32 217.391 323.202C216.674 320.084 217.15 316.81 218.727 314.026C220.304 311.242 222.867 309.149 225.911 308.161C228.954 307.174 232.257 307.361 235.168 308.688L234.764 308.954C234.51 278.61 234.255 246.613 233.989 213.668V213.368H291.233V213.61C290.967 246.474 290.701 278.344 290.458 308.896L290.054 308.631C292.965 307.304 296.268 307.116 299.311 308.104C302.355 309.092 304.917 311.184 306.494 313.968C308.071 316.752 308.548 320.026 307.831 323.144C307.113 326.262 305.254 328.999 302.619 330.813L302.411 330.305C305.746 329.813 309.151 330.212 312.283 331.461C315.342 332.689 318.113 334.539 320.421 336.892C322.729 339.246 324.524 342.053 325.692 345.136C326.84 348.159 327.198 351.426 326.732 354.626L326.385 354.326C333.934 351.892 341.738 350.34 349.643 349.702C357.259 349.111 364.92 349.558 372.416 351.031C386.59 353.758 399.513 360.967 409.279 371.596C411.556 374.099 413.596 376.808 415.371 379.688C417.129 382.459 418.615 385.393 419.81 388.45C420.977 391.422 421.856 394.499 422.434 397.64C422.991 400.691 423.281 403.786 423.301 406.887C423.315 412.798 422.297 418.666 420.296 424.227C418.386 429.412 415.524 434.195 411.857 438.33L411.73 438.029C415.364 438.163 418.978 438.631 422.527 439.428C423.382 439.624 424.226 439.89 425.07 440.11C425.907 440.32 426.733 440.575 427.544 440.873L429.96 441.716L432.272 442.699C438.011 445.192 443.306 448.604 447.946 452.802C451.964 456.403 455.43 460.574 458.234 465.183C460.636 468.993 462.302 473.22 463.147 477.644C463.851 481.143 463.886 484.743 463.251 488.256C462.787 490.813 461.765 493.236 460.257 495.353C459.291 496.622 458.119 497.72 456.79 498.601C455.888 499.156 455.414 499.422 455.414 499.422L456.766 498.555C458.056 497.656 459.191 496.556 460.13 495.295C461.611 493.18 462.61 490.765 463.055 488.221C463.666 484.728 463.615 481.152 462.905 477.678C462.051 473.28 460.381 469.081 457.98 465.298C455.177 460.723 451.714 456.586 447.704 453.022C443.081 448.856 437.81 445.471 432.098 443L429.786 442.029L427.382 441.196C426.575 440.9 425.753 440.646 424.92 440.433C424.076 440.214 423.243 439.959 422.388 439.763C418.861 438.98 415.271 438.52 411.661 438.387H411.279L411.534 438.098C415.156 433.994 417.982 429.251 419.868 424.111C421.85 418.582 422.852 412.749 422.827 406.876C422.795 403.805 422.505 400.743 421.96 397.721C421.381 394.607 420.503 391.556 419.336 388.612C418.148 385.581 416.673 382.67 414.932 379.919C413.172 377.096 411.16 374.438 408.921 371.977C399.219 361.435 386.384 354.29 372.312 351.598C364.857 350.138 357.239 349.699 349.666 350.291C341.808 350.936 334.05 352.487 326.547 354.915L326.131 355.042L326.189 354.615C326.643 351.496 326.293 348.313 325.172 345.367C324.022 342.373 322.267 339.649 320.015 337.365C317.763 335.082 315.064 333.288 312.086 332.097C309.046 330.872 305.736 330.473 302.492 330.941L301.278 331.137L302.295 330.432C304.797 328.691 306.559 326.078 307.235 323.105C307.911 320.133 307.452 317.015 305.949 314.363C304.446 311.711 302.006 309.716 299.108 308.769C296.211 307.822 293.064 307.991 290.285 309.243L289.88 309.428V308.977C290.123 278.448 290.366 246.555 290.632 213.691L290.932 213.992H234.371L234.671 213.691C234.926 246.636 235.18 278.622 235.423 308.977V309.428L235.007 309.243C232.242 308.038 229.129 307.897 226.266 308.847C223.404 309.797 220.993 311.772 219.498 314.391C218.003 317.01 217.528 320.09 218.165 323.038C218.802 325.986 220.506 328.595 222.95 330.363L223.967 331.068L222.742 330.871C219.464 330.387 216.116 330.786 213.043 332.027C210.025 333.251 207.299 335.098 205.044 337.449C200.57 342.073 198.108 348.477 199.045 354.476L199.114 354.904L198.698 354.777C191.197 352.344 183.438 350.793 175.579 350.153C168.002 349.566 160.381 350.005 152.922 351.459C138.815 354.179 125.96 361.374 116.266 371.977C114.01 374.453 111.986 377.13 110.22 379.977C108.474 382.723 107.003 385.634 105.828 388.669C101.393 400.045 101.221 412.641 105.342 424.134C107.233 429.255 110.055 433.981 113.665 438.075L113.92 438.364H113.527C109.924 438.497 106.341 438.958 102.822 439.74C101.967 439.925 101.135 440.191 100.291 440.41C99.4469 440.63 98.6377 440.861 97.8285 441.162L95.4357 441.994L93.1238 442.965C87.4132 445.428 82.1423 448.805 77.5183 452.964C73.511 456.535 70.0453 460.67 67.2302 465.24C64.831 469.025 63.1572 473.223 62.2943 477.621C61.5805 481.098 61.5256 484.677 62.1324 488.175C62.5728 490.723 63.5715 493.143 65.057 495.261C65.9933 496.53 67.134 497.636 68.4324 498.532L69.7849 499.411Z" fill="#263238"/>
<path d="M189.148 83.0328L260.483 0L329.031 83.0328H302.282V218.465H219.238V83.1831L189.148 83.0328Z" fill="#6A3D88"/>
<path d="M527.962 217.968L477.458 233.493L489.723 241.226L523.697 262.369L534.62 269.201L527.962 217.968Z" fill="#6A3D88"/>
<path d="M300.053 480.8L269.616 465.587L341.806 354.014L371.121 382.115L428.457 291.025L457.079 312.029L508.507 228.141L525.801 236.221L462.558 349.575L430.526 319.67L375.826 421.707L347.043 388.034L300.053 480.8Z" fill="#6A3D88"/>
<g opacity="0.3">
<path d="M329.842 452.039C322.906 447.415 313.959 446.952 305.809 448.571C303.116 449.103 300.134 449.796 297.775 448.397C295.417 446.999 294.631 444.063 293.706 441.462C288.944 428.376 275.882 419.406 262.137 417.117C248.393 414.828 237.365 415.961 224.915 422.169C216.15 426.315 208.672 432.758 203.276 440.814C201.414 443.6 198.027 449.276 198.027 449.276C195.542 451.102 192.248 451.23 189.196 451.727C182.89 452.861 177.05 455.802 172.385 460.194C167.721 464.586 164.433 470.238 162.921 476.464L337.541 473.701C340.823 466.026 336.766 456.628 329.842 452.039Z" fill="black"/>
</g>
<path d="M153.361 487.897C158.817 468.558 180.33 455.287 200.062 459.102C204.212 438.063 224.337 421.36 245.827 421.186C267.316 421.013 287.707 437.37 292.192 458.374C304.041 455.646 316.78 453.623 328.097 458.073C339.413 462.524 348.072 475.794 343.39 486.972" fill="#EBEBEB"/>
<path d="M343.389 487.018C343.389 487.018 343.389 486.903 343.482 486.683C343.574 486.464 343.655 486.14 343.782 485.724C343.976 485.201 344.111 484.658 344.187 484.105C344.363 483.374 344.467 482.626 344.499 481.874C344.753 476.902 343.265 471.996 340.291 468.003C338.265 465.144 335.725 462.686 332.801 460.755C329.339 458.532 325.461 457.038 321.403 456.362C316.8 455.597 312.114 455.457 307.474 455.946C302.343 456.514 297.257 457.425 292.25 458.674H291.984V458.408C289.915 449.489 285.272 441.374 278.632 435.07C271.393 428.066 262.161 423.478 252.207 421.938C245.915 421.027 239.499 421.545 233.434 423.452C222.131 427.024 212.468 434.502 206.177 444.548C203.409 449.03 201.452 453.964 200.397 459.125V459.368H200.142C195.924 458.594 191.605 458.539 187.369 459.206C185.414 459.504 183.482 459.94 181.589 460.512L178.896 461.449C177.994 461.738 177.185 462.188 176.341 462.535C174.758 463.266 173.214 464.08 171.717 464.974L169.648 466.361L168.631 467.043L167.706 467.783L165.903 469.228C165.325 469.702 164.816 470.245 164.284 470.731C163.753 471.216 163.244 471.702 162.782 472.211L161.464 473.713C158.829 476.771 156.67 480.208 155.06 483.909C154.505 485.192 154.216 486.221 153.904 486.891C153.592 487.562 153.522 487.92 153.522 487.92C153.522 487.92 153.892 486.475 154.875 483.851C156.439 480.108 158.567 476.626 161.186 473.528L162.516 471.991C162.978 471.482 163.51 471.008 164.019 470.5C164.527 469.991 165.047 469.459 165.637 468.974L167.44 467.506C167.752 467.252 168.053 466.997 168.377 466.754L169.382 466.061L171.475 464.651C172.992 463.737 174.559 462.907 176.168 462.165C177.012 461.807 177.832 461.345 178.734 461.009L181.462 460.05C183.381 459.462 185.34 459.014 187.323 458.709C191.613 458.009 195.992 458.049 200.27 458.825L199.969 459.033C201.029 453.801 203.009 448.799 205.818 444.259C208.859 439.36 212.727 435.027 217.251 431.451C222.012 427.659 227.42 424.761 233.215 422.897C239.365 420.963 245.873 420.441 252.253 421.371C262.329 422.923 271.672 427.568 278.991 434.665C285.705 441.062 290.392 449.29 292.469 458.328L292.134 458.119C297.175 456.903 302.292 456.026 307.45 455.495C312.136 455.013 316.865 455.173 321.507 455.969C325.629 456.663 329.564 458.197 333.067 460.478C336.016 462.45 338.572 464.955 340.603 467.864C343.586 471.915 345.043 476.889 344.719 481.909C344.667 482.67 344.548 483.424 344.36 484.163C344.263 484.705 344.112 485.235 343.909 485.747C343.759 486.152 343.644 486.464 343.563 486.706C343.518 486.817 343.46 486.922 343.389 487.018Z" fill="#263238"/>
<path d="M234.669 190.329C235.409 236.764 198.407 275.142 152.191 275.87C105.976 276.598 67.806 239.446 67.0315 193.011C66.257 146.576 103.282 108.198 149.498 107.47C195.713 106.741 233.929 143.905 234.669 190.329ZM110.773 192.329C110.939 200.245 113.445 207.935 117.977 214.428C122.508 220.921 128.862 225.926 136.235 228.812C143.609 231.698 151.672 232.335 159.407 230.643C167.142 228.95 174.203 225.005 179.697 219.304C185.192 213.602 188.875 206.402 190.282 198.609C191.688 190.817 190.754 182.783 187.599 175.521C184.444 168.259 179.208 162.094 172.553 157.804C165.897 153.515 158.12 151.293 150.203 151.419C139.552 151.623 129.417 156.045 122.024 163.716C114.631 171.386 110.584 181.677 110.773 192.329Z" fill="#E0E0E0"/>
<path d="M234.67 190.33C235.41 236.765 198.408 275.143 152.192 275.871L151.487 231.944C162.165 231.774 172.339 227.369 179.769 219.698C187.199 212.027 191.278 201.719 191.108 191.041C190.938 180.362 186.533 170.189 178.862 162.759C171.191 155.329 160.882 151.25 150.204 151.42L149.499 107.493C195.714 106.731 233.919 143.906 234.67 190.33Z" fill="#455A64"/>
<path d="M151.625 276.472L150.908 231.389H151.486C159.32 231.228 166.931 228.753 173.361 224.276C179.791 219.798 184.753 213.518 187.622 206.226C190.49 198.935 191.137 190.957 189.481 183.299C187.825 175.64 183.94 168.643 178.316 163.187C174.606 159.554 170.212 156.694 165.388 154.773C160.564 152.852 155.406 151.909 150.214 151.998H149.636L148.908 106.915H149.486C171.913 106.628 193.538 115.249 209.616 130.887C225.694 146.525 234.912 167.903 235.247 190.329C235.987 237.088 198.742 275.732 152.203 276.483L151.625 276.472ZM152.076 232.545L152.758 275.316C198.395 274.264 234.831 236.267 234.091 190.353C233.762 168.333 224.752 147.333 209.021 131.922C193.289 116.511 172.109 107.935 150.087 108.06L150.769 150.83C161.431 150.919 171.636 155.173 179.204 162.684C186.772 170.194 191.104 180.366 191.274 191.027C191.445 201.688 187.44 211.993 180.116 219.742C172.792 227.491 162.729 232.069 152.076 232.499V232.545Z" fill="#455A64"/>
<path d="M159.717 282.645C105.653 283.524 62.5125 241.562 61.6455 187.232L112.82 186.411C113.236 212.386 133.003 228.731 158.85 228.315L159.717 282.645Z" fill="#6A3D88"/>
<path d="M91.0308 188.179C91.3545 188.399 86.5225 195.993 80.2341 205.114C73.9457 214.234 68.5704 221.471 68.2468 221.297C67.9231 221.124 72.7666 213.483 79.055 204.351C85.3434 195.219 90.7187 187.902 91.0308 188.179Z" fill="#263238"/>
<path d="M113.294 192.399C113.617 192.63 106.462 203.577 97.3182 216.859C88.1746 230.141 80.4758 240.718 80.1522 240.498C79.8285 240.279 86.9839 229.332 96.1391 216.05C105.294 202.768 112.993 192.179 113.294 192.399Z" fill="#263238"/>
<path d="M124.114 215.16C124.449 215.379 117.999 225.297 109.734 237.296C101.469 249.295 94.4984 258.843 94.1748 258.624C93.8511 258.404 100.29 248.486 108.555 236.487C116.82 224.488 123.791 214.928 124.114 215.16Z" fill="#263238"/>
<path d="M142.955 227.748C143.279 227.967 136.84 237.874 128.575 249.885C120.31 261.895 113.34 271.409 112.993 271.212C112.646 271.015 119.108 261.074 127.385 249.064C135.661 237.053 142.632 227.482 142.955 227.748Z" fill="#263238"/>
<path d="M159.092 243.665C159.428 243.897 154.156 252.092 147.348 261.987C140.539 271.882 134.736 279.766 134.413 279.5C134.089 279.234 139.349 271.073 146.169 261.178C152.989 251.283 158.769 243.492 159.092 243.665Z" fill="#263238"/>
<path d="M425.985 29.9971C425.985 29.9971 431.036 18.3681 431.279 16.5417C431.522 14.7153 431.025 10.6809 429.718 9.6059C429.175 9.0809 428.479 8.74288 427.73 8.64101C426.982 8.53913 426.221 8.67873 425.557 9.03948C425.475 8.30705 425.162 7.61973 424.663 7.07723C424.164 6.53473 423.506 6.16526 422.783 6.02242C422.495 5.92118 422.186 5.89144 421.884 5.93575C421.582 5.98006 421.296 6.09709 421.049 6.27678C420.802 6.45648 420.602 6.69344 420.468 6.96729C420.333 7.24114 420.266 7.54366 420.274 7.84884C420.291 7.32829 420.124 6.81841 419.803 6.40843C419.482 5.99846 419.027 5.71451 418.517 5.60628C417.848 5.5004 417.162 5.60122 416.552 5.89527C416.552 5.89527 414.09 3.69894 412.437 5.06297C410.784 6.42701 412.691 27.6158 412.691 27.6158L425.985 29.9971Z" fill="#FFBF9D"/>
<path d="M412.391 25.1884C412.391 25.1884 407.882 17.4319 407.905 15.3165C407.928 13.2011 410.46 8.38073 411.87 7.80275C413.281 7.22477 418.806 5.94165 418.806 5.94165C418.806 5.94165 421.118 8.08018 417.708 10.1956L413.847 12.4728C413.847 12.4728 420.043 14.542 419.846 20.8767" fill="#FFBF9D"/>
<path d="M419.848 20.8188C419.749 19.8239 419.555 18.8407 419.27 17.8827C418.862 16.8226 418.244 15.8555 417.455 15.039C416.412 13.9878 415.154 13.1753 413.767 12.6577L413.247 12.4612L413.721 12.1953L417.651 9.88341C418.322 9.5062 418.853 8.92235 419.166 8.21883C419.276 7.85657 419.283 7.47057 419.185 7.10476C419.086 6.73896 418.888 6.40803 418.611 6.14965L418.877 6.21901L415.906 6.92415L413.594 7.53681C413.212 7.6524 412.831 7.75644 412.438 7.8836C412.261 7.93822 412.087 8.00386 411.918 8.08011C411.774 8.16359 411.639 8.26035 411.513 8.3691C410.546 9.43781 409.765 10.6607 409.201 11.9873C408.901 12.5945 408.65 13.2245 408.45 13.8715C408.238 14.4516 408.155 15.0709 408.207 15.6863C408.482 16.8054 408.869 17.8937 409.363 18.9346C410.242 20.8882 411.051 22.4025 411.594 23.5007C411.897 24.0449 412.164 24.6087 412.392 25.1884C412.004 24.7014 411.664 24.1789 411.374 23.6278C410.773 22.5874 409.906 21.0731 408.97 19.1196C408.429 18.0556 408.006 16.9353 407.71 15.7788C407.626 15.089 407.701 14.3891 407.93 13.7328C408.139 13.0591 408.39 12.399 408.681 11.7561C409.279 10.3511 410.116 9.06047 411.155 7.9414C411.319 7.79223 411.502 7.66409 411.698 7.55993C411.886 7.47195 412.079 7.39476 412.276 7.32873C412.658 7.20158 413.051 7.08598 413.432 6.98195C414.203 6.76617 414.973 6.55809 415.744 6.35773L418.738 5.65259H418.9L419.004 5.75662C419.365 6.09442 419.624 6.52798 419.749 7.00686C419.873 7.48573 419.86 7.99021 419.709 8.46158C419.346 9.28671 418.725 9.97209 417.94 10.4152L413.952 12.6346V12.1722C415.4 12.7358 416.704 13.6166 417.767 14.75C418.582 15.6204 419.197 16.6579 419.57 17.7902C419.701 18.2046 419.794 18.6303 419.848 19.0618C419.907 19.3779 419.93 19.6998 419.917 20.0212C419.929 20.289 419.905 20.5571 419.848 20.8188Z" fill="#FF9A6C"/>
<path d="M419.813 7.99902C419.19 10.2548 418.967 12.6021 419.154 14.9348C419.153 15.7196 419.417 16.4817 419.905 17.0964C420.177 17.3589 420.508 17.5509 420.871 17.6557C421.234 17.7605 421.616 17.7749 421.986 17.6975C422.732 17.5185 423.406 17.1151 423.916 16.5416" fill="#FFBF9D"/>
<path d="M423.951 16.6342C423.951 16.6342 423.581 17.4318 422.298 17.8942C421.912 18.019 421.503 18.0527 421.101 17.9925C420.7 17.9324 420.319 17.78 419.986 17.5474C419.629 17.2102 419.347 16.8008 419.16 16.3465C418.972 15.8921 418.884 15.4031 418.9 14.9118C418.62 12.5549 418.954 10.1656 419.871 7.97607C419.55 10.25 419.426 12.5473 419.501 14.8425C419.483 15.2529 419.547 15.6629 419.69 16.048C419.833 16.4332 420.051 16.7858 420.333 17.0851C420.6 17.2785 420.905 17.4126 421.228 17.4783C421.551 17.5441 421.884 17.5401 422.206 17.4665C422.818 17.2576 423.403 16.9783 423.951 16.6342Z" fill="#FF9A6C"/>
<path d="M414.854 12.1838C414.561 12.9947 414.497 13.8706 414.669 14.7154C414.669 15.2592 414.84 15.7892 415.157 16.2308C415.474 16.6725 415.922 17.0036 416.437 17.1776C417.316 17.3857 418.449 16.2181 418.969 14.9928" fill="#FFBF9D"/>
<path d="M418.97 14.9925C419.028 14.9925 418.97 15.5705 418.427 16.2988C418.134 16.7425 417.737 17.1077 417.271 17.3623C416.933 17.4956 416.557 17.4956 416.219 17.3623C415.872 17.2469 415.558 17.0485 415.305 16.7843C414.844 16.296 414.552 15.6716 414.473 15.0041C414.446 14.4958 414.446 13.9865 414.473 13.4782C414.473 12.565 414.901 12.1026 414.947 12.1373C414.993 12.172 414.843 12.6806 414.947 13.4782L415.109 14.9232C415.204 15.4637 415.453 15.9654 415.826 16.3681C416.016 16.5599 416.244 16.7095 416.496 16.8074C416.707 16.8941 416.944 16.8941 417.155 16.8074C417.568 16.6197 417.935 16.3435 418.23 15.9982C418.646 15.4318 418.877 14.9579 418.97 14.9925Z" fill="#FF9A6C"/>
<path d="M425.975 9.14355C424.703 10.5242 423.78 12.1888 423.281 13.9986C423.09 14.4488 423.025 14.9424 423.092 15.4269C423.159 15.9114 423.356 16.3685 423.663 16.7498C424.089 17.0349 424.595 17.1783 425.107 17.1596C425.62 17.1409 426.114 16.9611 426.518 16.6458C427.18 16.2306 427.749 15.684 428.19 15.0397C428.632 14.3954 428.936 13.6672 429.084 12.9004" fill="#FFBF9D"/>
<path d="M429.084 12.9008C429.113 13.7339 428.851 14.5512 428.344 15.2127C427.856 15.9814 427.184 16.6169 426.39 17.0623C425.901 17.3312 425.353 17.478 424.795 17.49C424.472 17.4963 424.152 17.4213 423.865 17.2718C423.578 17.1224 423.334 16.9032 423.154 16.6346C422.84 16.1019 422.721 15.4765 422.818 14.866C422.884 14.3401 423.012 13.824 423.2 13.3285C423.491 12.5143 423.879 11.7381 424.356 11.0166C424.744 10.3022 425.295 9.68861 425.963 9.22485C426.032 9.29421 425.419 9.97623 424.714 11.2362C424.304 11.9708 423.971 12.7455 423.72 13.5482C423.554 14.0069 423.445 14.4845 423.396 14.97C423.326 15.4464 423.411 15.9328 423.639 16.3571C424.159 17.1779 425.35 17.016 426.124 16.6115C426.854 16.2273 427.487 15.6817 427.974 15.0162C428.405 14.3446 428.776 13.6368 429.084 12.9008Z" fill="#FF9A6C"/>
<path d="M363.229 104.476C363.229 104.476 369.494 97.7134 371.968 96.1991C374.441 94.6848 390.74 75.253 392.463 70.1437C394.185 65.0343 410.172 23.9861 409.802 24.541C409.432 25.0958 430.101 28.8758 430.101 28.8758C430.101 28.8758 414.784 76.2703 412.912 81.634C409.536 91.4481 392.81 111.319 383.284 123.249C379.215 128.323 373.597 144.576 373.597 144.576L363.229 104.476Z" fill="#263238"/>
<path d="M378.163 129.965C377.853 128.749 377.655 127.507 377.574 126.254C377.308 123.942 377.065 120.752 377.007 117.214C376.949 113.677 377.077 110.464 377.262 108.152C377.309 106.896 377.463 105.647 377.724 104.418C377.813 105.669 377.813 106.924 377.724 108.175C377.643 110.487 377.585 113.677 377.643 117.203C377.701 120.729 377.874 123.907 378.036 126.219C378.169 127.463 378.212 128.715 378.163 129.965Z" fill="#455A64"/>
<path d="M274.832 371.237L266.024 389.19L264.868 393.582C264.868 393.582 270.752 420.25 267.076 422.886L240.858 380.566L247.609 376.312L256.013 358.372L274.832 371.237Z" fill="#455A64"/>
<path d="M240.927 380.566L244.244 378.658L268.138 419.949C268.138 419.949 268.531 422.319 267.144 422.885L240.927 380.566Z" fill="#263238"/>
<path d="M265.584 394.137C265.376 394.253 264.648 393.282 263.388 392.646C262.128 392.01 260.972 391.998 260.937 391.756C260.903 391.513 262.22 391.12 263.723 391.906C265.226 392.692 265.769 394.068 265.584 394.137Z" fill="#263238"/>
<path d="M266.578 399.72C266.417 399.882 265.527 399.2 264.267 399.003C263.007 398.807 261.955 399.165 261.885 399.003C261.816 398.842 262.798 397.963 264.359 398.229C265.92 398.495 266.74 399.535 266.578 399.72Z" fill="#263238"/>
<path d="M263.11 405.315C262.948 405.153 263.758 404.252 265.156 404.159C266.555 404.067 267.572 404.726 267.468 404.911C267.364 405.096 266.416 404.911 265.272 404.992C264.128 405.072 263.272 405.5 263.11 405.315Z" fill="#263238"/>
<path d="M364.672 239.169C363.817 241.203 319.59 308.908 310.516 316.433C301.441 323.958 270.473 385.71 270.473 385.71C270.473 385.71 245.169 373.445 244.603 374.775C244.036 376.104 262.347 331.183 273.271 312.734C284.194 294.285 289.292 287.153 289.292 287.153L311.024 229.204C311.024 229.204 311.475 210.119 314.261 202.698C317.047 195.277 325.231 188.826 325.231 188.826L364.672 239.169Z" fill="#263238"/>
<path d="M324.84 320.987L301.316 322.675C301.316 322.675 295.282 348.441 290.912 349.204L285.733 301.232L322.262 297.024L324.84 320.987Z" fill="#455A64"/>
<path d="M301.696 307.625C301.536 307.17 301.205 306.795 300.774 306.58C300.343 306.364 299.845 306.324 299.385 306.469C298.954 306.656 298.607 306.995 298.411 307.421C298.215 307.848 298.183 308.332 298.321 308.781C298.503 309.24 298.851 309.615 299.297 309.829C299.743 310.043 300.253 310.082 300.725 309.937C301.161 309.692 301.49 309.292 301.646 308.817C301.802 308.342 301.775 307.826 301.569 307.37" fill="#E0E0E0"/>
<path d="M285.791 301.232L289.49 300.966L293.062 347.055C293.062 347.055 292.415 349.286 290.97 349.205L285.791 301.232Z" fill="#263238"/>
<path d="M301.639 323.427C301.408 323.427 301.188 322.271 300.344 321.207C299.5 320.144 298.506 319.624 298.576 319.392C298.645 319.161 299.963 319.392 300.957 320.699C301.951 322.005 301.847 323.427 301.639 323.427Z" fill="#263238"/>
<path d="M300.263 328.675C300.055 328.744 299.57 327.773 298.541 327.08C297.512 326.386 296.495 326.27 296.483 326.039C296.472 325.808 297.709 325.519 298.969 326.397C300.229 327.276 300.414 328.64 300.263 328.675Z" fill="#263238"/>
<path d="M294.807 332.154C294.738 331.946 295.813 331.495 297.119 331.969C298.425 332.443 298.991 333.472 298.818 333.599C298.645 333.726 297.928 333.114 296.865 332.744C295.801 332.374 294.853 332.386 294.807 332.154Z" fill="#263238"/>
<path d="M306.944 322.409C306.736 322.34 306.944 321.253 306.701 319.912C306.458 318.571 305.961 317.6 306.135 317.462C306.308 317.323 307.221 318.225 307.464 319.774C307.707 321.323 307.198 322.502 306.944 322.409Z" fill="#263238"/>
<path d="M304.24 221.413C304.24 221.413 304.182 243.978 314.424 251.595C324.665 259.213 360.176 287.881 360.176 287.881L303.477 297.568L307.719 323.855C307.719 323.855 384.255 316.133 393.619 313C402.982 309.867 409.721 294.019 402.392 282.945C398.705 277.42 360.604 223.251 360.604 223.251L359.448 208.721L311.418 211.749L304.24 221.413Z" fill="#263238"/>
<path d="M307.72 323.854C307.671 323.708 307.636 323.557 307.616 323.403C307.546 323.057 307.466 322.606 307.361 322.039C307.142 320.802 306.841 319.057 306.46 316.814C305.697 312.19 304.599 305.671 303.258 297.602V297.383H303.477L355.241 288.459L360.154 287.615L360.016 288.146C352.028 281.546 344.433 275.327 337.509 269.744L327.66 261.883C324.574 259.444 321.603 257.259 319.152 254.947C315.256 251.384 311.862 247.308 309.061 242.833C308.304 241.618 307.621 240.36 307.015 239.064C306.795 238.625 306.656 238.278 306.564 238.047C306.508 237.934 306.469 237.813 306.448 237.689C306.517 237.795 306.575 237.907 306.622 238.024C306.726 238.255 306.888 238.59 307.119 239.018C307.763 240.283 308.473 241.514 309.246 242.706C312.109 247.11 315.532 251.124 319.43 254.647C321.88 256.901 324.851 259.051 327.949 261.49C331.047 263.929 334.376 266.53 337.844 269.304C344.78 274.876 352.409 281.072 360.397 287.673L360.906 288.089L360.258 288.193L355.345 289.037L303.558 297.81L303.743 297.556C305.003 305.648 306.055 312.214 306.737 316.791C307.072 319.045 307.338 320.802 307.523 322.039C307.604 322.617 307.662 323.068 307.708 323.415C307.728 323.56 307.732 323.708 307.72 323.854Z" fill="#455A64"/>
<path d="M375.47 289.511C375.47 289.684 372.106 288.702 367.898 288.262C363.691 287.823 360.234 288.066 360.223 287.881C360.953 287.656 361.713 287.543 362.477 287.546C364.304 287.433 366.137 287.476 367.956 287.673C369.778 287.856 371.581 288.201 373.343 288.702C374.092 288.852 374.81 289.126 375.47 289.511Z" fill="#455A64"/>
<path d="M340.468 32.1242C340.812 31.0947 341.465 30.1962 342.338 29.5508C343.211 28.9055 344.261 28.5447 345.346 28.5176C346.437 27.3341 347.893 26.5508 349.482 26.2931C351.07 26.0353 352.7 26.3179 354.109 27.0958C354.949 26.3832 355.959 25.8992 357.041 25.6903C358.123 25.4814 359.24 25.5547 360.286 25.9032C361.331 26.2517 362.269 26.8635 363.01 27.6798C363.75 28.4961 364.267 29.4893 364.512 30.5636C365.577 30.2128 366.724 30.1964 367.799 30.5167C368.873 30.837 369.824 31.4787 370.523 32.3554C371.193 33.2598 371.573 34.3463 371.612 35.4712C371.651 36.5961 371.348 37.7065 370.743 38.6554C372.015 38.8257 373.178 39.4624 374.008 40.4419C374.837 41.4214 375.273 42.674 375.231 43.9567C375.19 45.2395 374.673 46.4611 373.782 47.3846C372.891 48.3081 371.688 48.8677 370.408 48.955L342.491 37.904C341.599 37.2666 340.926 36.3692 340.564 35.3345C340.202 34.2999 340.169 33.1786 340.468 32.1242Z" fill="#263238"/>
<path d="M371.355 49.533C369.941 44.2169 366.585 39.6247 361.948 36.6644C357.312 33.7041 351.734 32.5913 346.317 33.5461L345.161 33.7426C333.289 36.6325 331.52 48.4349 334.757 60.3297L343.97 104.95L366.049 118.07L368.708 108.325V92.4424C368.708 92.4424 379.92 88.5468 377.955 76.9178C376.973 71.242 374.083 59.8673 371.355 49.533Z" fill="#FFBF9D"/>
<path d="M368.765 92.3499C363.406 93.324 357.88 92.7341 352.848 90.6506C352.848 90.6506 357.367 98.9967 368.684 95.8525L368.765 92.3499Z" fill="#FF9A6C"/>
<path d="M369.921 60.4683C370.007 60.8972 369.92 61.3426 369.68 61.7082C369.44 62.0737 369.066 62.3301 368.638 62.4219C368.433 62.4774 368.219 62.4914 368.009 62.4631C367.798 62.4348 367.596 62.3647 367.413 62.257C367.23 62.1494 367.07 62.0063 366.943 61.8361C366.816 61.6659 366.724 61.472 366.673 61.2659C366.587 60.8356 366.673 60.3887 366.913 60.0213C367.153 59.6539 367.528 59.3952 367.956 59.3008C368.162 59.2455 368.377 59.2319 368.588 59.261C368.799 59.29 369.002 59.3611 369.185 59.4699C369.368 59.5787 369.528 59.7231 369.654 59.8946C369.781 60.0661 369.872 60.2612 369.921 60.4683Z" fill="#263238"/>
<path d="M370.141 56.2259C369.967 56.4802 368.557 55.7751 366.788 56.1103C365.02 56.4455 363.841 57.5553 363.644 57.3819C363.448 57.2085 363.644 56.8732 364.164 56.353C364.829 55.6757 365.691 55.2264 366.627 55.0699C367.548 54.8978 368.501 55.0275 369.343 55.4398C369.967 55.7519 370.222 56.1103 370.141 56.2259Z" fill="#263238"/>
<path d="M354.443 63.9591C354.529 64.3894 354.442 64.8363 354.202 65.2037C353.962 65.5711 353.588 65.8298 353.16 65.9242C352.955 65.9781 352.741 65.9909 352.531 65.9619C352.321 65.9329 352.119 65.8626 351.936 65.7552C351.754 65.6477 351.594 65.5052 351.467 65.3358C351.339 65.1665 351.247 64.9736 351.194 64.7683C351.109 64.3394 351.195 63.894 351.435 63.5284C351.675 63.1628 352.05 62.9065 352.477 62.8147C352.682 62.759 352.895 62.7446 353.105 62.7721C353.315 62.7997 353.517 62.8687 353.7 62.9753C353.883 63.0818 354.043 63.2236 354.17 63.3925C354.298 63.5614 354.39 63.754 354.443 63.9591Z" fill="#263238"/>
<path d="M353.137 59.0579C352.964 59.3122 351.553 58.6186 349.785 58.9423C348.016 59.266 346.872 60.3988 346.641 60.2139C346.409 60.0289 346.641 59.7052 347.149 59.1851C347.822 58.5131 348.686 58.0651 349.623 57.9019C350.545 57.7306 351.497 57.8603 352.339 58.2719C352.964 58.5955 353.218 58.9423 353.137 59.0579Z" fill="#263238"/>
<path d="M361.367 71.2188C362.246 70.7495 363.183 70.3959 364.153 70.1669C364.604 70.0397 365.008 69.8779 365.031 69.5542C364.989 69.0768 364.799 68.6243 364.488 68.2595L362.511 65.0344C359.76 60.4106 357.679 56.619 357.887 56.5034C358.095 56.3878 360.454 60.0406 363.205 64.5951C363.875 65.7511 364.523 66.8146 365.124 67.855C365.51 68.353 365.71 68.9704 365.69 69.6005C365.653 69.7721 365.578 69.9331 365.47 70.0713C365.362 70.2095 365.224 70.3212 365.066 70.3981C364.828 70.5154 364.575 70.6009 364.315 70.6524C363.358 70.9594 362.369 71.1496 361.367 71.2188Z" fill="#263238"/>
<path d="M356.374 73.4032C356.663 73.3338 357.021 75.2643 358.917 76.3393C360.813 77.4144 362.824 76.8248 362.882 77.0907C362.94 77.3566 362.5 77.5531 361.633 77.738C360.508 77.9551 359.342 77.7711 358.339 77.2179C357.376 76.6737 356.66 75.7795 356.339 74.721C356.119 73.9234 356.247 73.4147 356.374 73.4032Z" fill="#263238"/>
<path d="M352.282 53.9603C352.155 54.4689 350.548 54.3302 348.698 54.7001C346.849 55.07 345.369 55.7289 345.103 55.3012C344.976 55.1047 345.207 54.6192 345.785 54.1452C346.527 53.5276 347.414 53.1098 348.363 52.9314C349.312 52.7406 350.295 52.8126 351.207 53.1395C351.912 53.3592 352.282 53.7291 352.282 53.9603Z" fill="#263238"/>
<path d="M368.847 51.4172C368.65 51.8912 367.344 51.7987 365.888 52.1686C364.431 52.5385 363.298 53.1512 362.905 52.8044C362.732 52.6426 362.813 52.1917 363.252 51.6484C363.842 50.9985 364.614 50.5407 365.467 50.3346C366.32 50.1285 367.216 50.1835 368.038 50.4925C368.65 50.8161 368.928 51.186 368.847 51.4172Z" fill="#263238"/>
<path d="M369.274 44.4121C369.274 44.4121 364.916 37.6959 361.125 36.644C356.501 35.3493 355.565 40.3431 351.334 39.9385C347.103 39.5339 342.733 38.297 339.185 42.1695C335.312 46.4119 337.855 48.4233 338.514 53.6251C341.173 74.6983 338.514 81.2988 335.601 71.6581C335.289 70.6062 332.133 70.2825 330.885 65.8089C329.243 60.0291 327.718 52.8968 328.272 48.4695C328.735 44.7357 330.284 41.9383 333.393 38.5976C338.283 33.3148 346.051 31.8121 351.426 31.3844C356.802 30.9567 368.107 35.2337 369.274 44.4121Z" fill="#263238"/>
<path d="M337.74 70.9414C337.649 70.5198 337.474 70.1209 337.225 69.7689C336.976 69.4168 336.659 69.1189 336.291 68.8931C335.924 68.6673 335.515 68.5183 335.088 68.4551C334.662 68.3919 334.227 68.4158 333.81 68.5254C331.694 69.115 329.521 70.8374 330.469 75.23C332.168 83.1137 339.716 79.7961 339.659 79.5649C339.601 79.3337 338.48 74.2359 337.74 70.9414Z" fill="#FFBF9D"/>
<path d="M337.313 76.9638C337.313 76.9638 337.198 77.091 336.99 77.2528C336.693 77.4582 336.329 77.541 335.972 77.484C335.402 77.2653 334.9 76.9001 334.517 76.4251C334.133 75.9501 333.881 75.3823 333.788 74.779C333.633 74.1019 333.633 73.3986 333.788 72.7214C333.807 72.4606 333.89 72.2084 334.029 71.9868C334.168 71.7652 334.359 71.5809 334.585 71.4499C334.735 71.3755 334.905 71.3556 335.068 71.3936C335.23 71.4316 335.374 71.5251 335.475 71.6579C335.626 71.8544 335.614 72.0163 335.649 72.0278C335.683 72.0394 335.787 71.8544 335.649 71.5423C335.562 71.3572 335.415 71.2066 335.233 71.1146C335.106 71.0622 334.971 71.0352 334.834 71.0352C334.697 71.0352 334.561 71.0622 334.435 71.1146C334.129 71.2511 333.863 71.4626 333.661 71.7293C333.459 71.996 333.328 72.3094 333.279 72.6405C333.092 73.3998 333.092 74.1931 333.279 74.9524C333.391 75.6623 333.71 76.3235 334.195 76.8538C334.68 77.384 335.31 77.76 336.007 77.9348C336.224 77.9434 336.439 77.9044 336.639 77.8205C336.839 77.7367 337.018 77.6099 337.163 77.4493C337.336 77.2066 337.348 76.9754 337.313 76.9638Z" fill="#FF9A6C"/>
<path d="M333.636 55.8098C334.747 56.4257 335.995 56.7517 337.266 56.7577C337.893 56.7372 338.492 56.4928 338.954 56.0686C339.416 55.6445 339.711 55.0687 339.786 54.4457C339.786 53.8793 339.531 53.2898 339.786 52.7696C340.04 52.2494 340.942 52.2032 341.624 52.1569C342.802 52.0335 343.901 51.5052 344.734 50.6621C345.567 49.8189 346.081 48.7131 346.19 47.5331C346.612 47.8624 347.143 48.0203 347.676 47.9753C348.21 47.9303 348.707 47.6857 349.068 47.2903C349.767 46.4724 350.351 45.5622 350.802 44.5854C351.028 44.0981 351.371 43.6742 351.801 43.3515C352.23 43.0289 352.733 42.8174 353.264 42.7359C353.853 42.8279 354.45 42.8512 355.044 42.8052C356.062 42.5278 356.35 41.21 356.316 40.1465C356.281 39.083 356.189 37.8346 356.963 37.141C357.798 36.6137 358.795 36.4045 359.772 36.5515C360.743 36.5515 361.934 36.0659 362.015 35.0834C362.009 34.8248 361.952 34.57 361.847 34.3338C361.742 34.0976 361.591 33.8847 361.402 33.7078C360.59 32.8633 359.515 32.3197 358.354 32.1664C357.192 32.0131 356.013 32.259 355.01 32.8639C354.393 31.6106 353.416 30.5702 352.204 29.8764C350.991 29.1825 349.6 28.8669 348.207 28.9701C346.814 29.0732 345.483 29.5904 344.387 30.4552C343.29 31.32 342.476 32.4929 342.051 33.8234C341.076 33.2088 339.966 32.8406 338.817 32.7505C337.668 32.6604 336.514 32.8511 335.455 33.3061C334.396 33.7611 333.463 34.4669 332.737 35.3625C332.012 36.2581 331.515 37.3168 331.289 38.4472C330.277 38.3819 329.268 38.61 328.382 39.1042C327.496 39.5983 326.772 40.3375 326.295 41.2331C325.844 42.1441 325.661 43.1645 325.768 44.1755C325.874 45.1866 326.266 46.1465 326.897 46.9436C326.227 47.4438 325.696 48.1066 325.355 48.8692C325.013 49.6318 324.871 50.4689 324.943 51.3015C325.209 52.943 327.093 54.2955 328.596 53.6135C328.432 54.3087 328.521 55.0396 328.848 55.6751C329.174 56.3106 329.716 56.8091 330.376 57.0813C331.067 57.3034 331.815 57.2649 332.48 56.9732C333.144 56.6814 333.679 56.1566 333.983 55.4977" fill="#263238"/>
<path d="M328.006 53.6481C328.026 53.93 328.105 54.2045 328.238 54.4536C328.372 54.7026 328.557 54.9206 328.78 55.093C329.26 55.5229 329.882 55.7579 330.526 55.7519C330.939 55.7427 331.344 55.6426 331.714 55.4588C332.083 55.275 332.408 55.0119 332.664 54.6884H332.318C332.87 55.3622 333.53 55.9402 334.271 56.3993C334.762 56.7103 335.307 56.926 335.878 57.035C336.416 57.1315 336.971 57.0836 337.485 56.8963C337.938 56.7784 338.359 56.5618 338.719 56.262C339.079 55.9623 339.368 55.5868 339.565 55.1624C339.79 54.5998 339.904 53.9994 339.901 53.3938C339.901 52.9661 339.901 52.7349 339.843 52.7349C339.772 52.9402 339.73 53.154 339.716 53.3706C339.657 53.9388 339.504 54.4934 339.265 55.0121C339.035 55.4038 338.726 55.743 338.358 56.0078C337.989 56.2727 337.569 56.4574 337.125 56.55C336.68 56.6426 336.222 56.641 335.778 56.5453C335.334 56.4497 334.915 56.2621 334.549 55.9947C333.833 55.5666 333.186 55.0327 332.63 54.411L332.445 54.2029L332.283 54.4226C332.07 54.6998 331.799 54.9279 331.49 55.0915C331.181 55.255 330.84 55.3502 330.491 55.3705C329.928 55.4007 329.373 55.224 328.931 54.8734C328.544 54.5303 328.23 54.1138 328.006 53.6481Z" fill="#455A64"/>
<path d="M339.647 32.8291C339.647 32.8291 339.867 32.8291 340.237 32.9332C340.784 33.055 341.28 33.3414 341.659 33.7539L341.774 33.8926L341.855 33.7192C342.606 32.2016 343.727 30.8977 345.115 29.9277C346.002 29.2943 347.016 28.8605 348.086 28.6561C349.252 28.447 350.453 28.5671 351.554 29.0029C352.424 29.3466 353.212 29.8705 353.866 30.5403C354.472 31.17 354.92 31.9347 355.172 32.7713L355.241 33.0256L355.473 32.9101C356.407 32.4564 357.471 32.3491 358.477 32.6074C359.482 32.8657 360.364 33.4727 360.963 34.3203C361.432 35.0156 361.743 35.8045 361.877 36.6323C361.925 36.4114 361.925 36.1827 361.877 35.9618C361.771 35.3411 361.535 34.7499 361.183 34.2278C360.657 33.3987 359.873 32.7652 358.952 32.4246C358.363 32.2071 357.738 32.1085 357.111 32.1343C356.484 32.1601 355.868 32.3098 355.299 32.5748L355.588 32.7135C355.336 31.7976 354.859 30.9592 354.201 30.2745C353.404 29.4506 352.417 28.8353 351.327 28.4825C350.236 28.1298 349.076 28.0505 347.947 28.2515C346.822 28.4813 345.759 28.9461 344.826 29.6156C343.401 30.6391 342.278 32.0291 341.578 33.6383H341.786C341.357 33.212 340.801 32.9362 340.202 32.8523C339.856 32.7482 339.647 32.806 339.647 32.8291Z" fill="#455A64"/>
<path d="M352.825 225.528C353.923 225.621 357.68 226.95 362.558 217.922C367.437 208.894 372.118 175.463 372.118 175.463L352.825 225.528Z" fill="#E0E0E0"/>
<path d="M373.873 162.575L374.428 130.265L367.932 105.539C367.932 105.539 363.389 98.4187 358.43 94.8006C355.227 92.3482 351.569 90.5565 347.668 89.5294L340.223 87.7261L339.426 93.8989L361.031 118.683L373.873 162.575Z" fill="#E0E0E0"/>
<path d="M339.566 89.9224C339.566 89.9224 357.345 91.4482 365.945 112.938C370.569 124.497 373.378 155.419 373.921 160.251C374.464 165.083 372.65 176.169 369.355 191.104C368.708 194.005 366.384 201.635 360.05 220.142C353.264 239.932 347.854 254.543 347.854 254.543L291.004 232.58L319.279 182.989C319.279 182.989 317.788 167.707 317.857 166.251C318.4 154.887 316.192 148.495 319.949 126.659C321.053 120.132 323.345 113.863 326.712 108.163C330.295 102.141 332.942 100.338 339.023 95.8062L339.566 89.9224Z" fill="#263238"/>
<path d="M345.646 225.378L347.149 213.39L320.041 202.397L315.094 213.853L345.646 225.378Z" fill="#263238"/>
<path d="M345.647 225.378L345.034 225.112L343.3 224.418L336.908 221.922L315.199 213.61L315.372 214.003L319.58 204.305L320.331 202.548L319.927 202.721L347.069 213.61L346.941 213.391C346.537 217.032 346.202 220.003 345.97 222.118C345.866 223.124 345.786 223.921 345.716 224.534C345.647 225.147 345.635 225.389 345.647 225.401C345.713 225.147 345.76 224.888 345.785 224.626C345.878 224.037 345.994 223.262 346.132 222.315C346.433 220.164 346.849 217.159 347.358 213.46V213.298L347.207 213.24L320.135 202.155L319.915 202.051L319.799 202.328C319.557 202.906 319.302 203.484 319.048 204.073C317.592 207.449 316.181 210.72 314.864 213.795L314.736 214.084L315.025 214.188L337.058 222.349L343.427 224.661L345.115 225.262C345.288 225.317 345.466 225.356 345.647 225.378Z" fill="#455A64"/>
<path d="M368.118 195.115C368.101 195.221 368.074 195.326 368.037 195.427L367.76 196.317L366.604 199.785C365.598 202.802 364.176 207.091 362.408 212.362L348.363 253.792L348.062 254.67L347.958 254.971L347.669 254.855L307.465 239.215L295.339 234.418L292.056 233.088L291.212 232.73L290.923 232.58L291.235 232.672L292.102 232.973L295.42 234.198L307.615 238.822L347.877 254.312L347.484 254.497C347.588 254.219 347.681 253.919 347.785 253.618C353.333 237.435 358.362 222.87 362.015 212.235C363.841 206.987 365.332 202.721 366.384 199.716L367.656 196.271C367.783 195.913 367.898 195.624 367.979 195.392C368.06 195.161 368.106 195.115 368.118 195.115Z" fill="#455A64"/>
<path d="M284.554 258.415C284.554 258.415 291.27 236.533 296.992 235.042C302.714 233.55 310.274 233.319 311.603 237.053C313.239 241.76 313.984 246.731 313.8 251.711C313.413 256.295 312.659 260.841 311.545 265.305L305.708 263.49C305.708 263.49 310.332 241.272 309.095 237.631C307.858 233.99 298.217 234.868 296.449 238.648C294.68 242.428 289.062 259.802 289.062 259.802L284.554 258.415Z" fill="#455A64"/>
<path d="M257.724 285.95C259.77 276.784 264.555 256.624 266.671 247.804C266.947 246.642 267.662 245.632 268.666 244.986C269.67 244.339 270.886 244.106 272.057 244.336L326.85 255.132C328.027 255.366 329.067 256.047 329.751 257.033C330.434 258.018 330.708 259.231 330.514 260.415L324.33 298.493C324.231 299.102 324.011 299.685 323.684 300.208C323.356 300.731 322.927 301.183 322.421 301.537C321.916 301.892 321.345 302.141 320.742 302.272C320.138 302.402 319.515 302.41 318.909 302.296L261.4 291.511C260.787 291.398 260.204 291.163 259.685 290.82C259.166 290.477 258.721 290.032 258.378 289.513C258.035 288.994 257.8 288.41 257.687 287.798C257.575 287.186 257.587 286.558 257.724 285.95Z" fill="#455A64"/>
<path d="M324.873 269.166L324.803 269.57C324.745 269.859 324.676 270.276 324.572 270.796C324.364 271.894 324.052 273.478 323.647 275.524L320.179 292.99L319.902 294.401C319.837 294.911 319.629 295.392 319.301 295.788C318.953 296.192 318.489 296.479 317.971 296.608C317.45 296.714 316.91 296.69 316.399 296.539L310.134 295.325L296.263 292.655L280.992 289.684L272.901 288.112L268.774 287.303L267.733 287.106C267.366 287.055 267.005 286.962 266.658 286.829C266.3 286.672 265.983 286.435 265.731 286.136C265.478 285.838 265.297 285.486 265.202 285.107C265.138 284.778 265.138 284.441 265.202 284.112C265.202 283.777 265.329 283.5 265.387 283.199L265.768 281.407L266.531 277.859C267.028 275.547 267.525 273.235 268.011 270.923C268.997 266.353 269.941 261.957 270.843 257.733V257.537H271.039C286.61 261.525 300.077 264.369 309.625 266.253C314.411 267.189 318.214 267.894 320.815 268.368L323.821 268.923L324.572 269.073L324.826 269.131H324.549L323.774 269.016L320.792 268.53C318.18 268.091 314.376 267.432 309.591 266.519C300.008 264.715 286.529 261.895 270.935 257.953L271.178 257.803C270.288 262.022 269.34 266.438 268.369 271.004C267.884 273.316 267.387 275.628 266.89 277.94C266.635 279.096 266.381 280.252 266.127 281.488L265.745 283.269C265.559 283.823 265.511 284.414 265.606 284.991C265.689 285.307 265.841 285.6 266.051 285.85C266.261 286.1 266.524 286.3 266.82 286.436C267.14 286.557 267.474 286.639 267.814 286.679L268.855 286.887L272.981 287.696L281.073 289.268L296.355 292.262L310.227 294.979L316.492 296.215C316.957 296.353 317.449 296.376 317.925 296.285C318.374 296.175 318.778 295.929 319.081 295.58C319.374 295.222 319.558 294.789 319.613 294.331C319.717 293.857 319.809 293.395 319.902 292.944C321.416 285.615 322.653 279.697 323.497 275.605C323.936 273.559 324.271 271.963 324.503 270.865C324.618 270.333 324.711 269.917 324.769 269.617C324.826 269.316 324.873 269.166 324.873 269.166Z" fill="#263238"/>
<path d="M304.446 290.47C304.446 290.47 304.782 290.528 305.429 290.528C306.367 290.497 307.277 290.2 308.053 289.672C308.654 289.24 309.154 288.683 309.517 288.038C309.881 287.393 310.099 286.676 310.157 285.938C310.492 284.216 310.885 282.262 311.313 280.101C311.533 279.014 311.752 277.881 311.983 276.702C312.318 275.523 312.198 274.261 311.648 273.165C311.348 272.598 310.933 272.099 310.429 271.701C309.926 271.303 309.345 271.014 308.724 270.853C307.406 270.564 305.984 270.298 304.562 270.009L285.963 266.287C285.181 266.131 284.372 266.18 283.614 266.429C282.856 266.678 282.176 267.119 281.639 267.709C281.107 268.284 280.736 268.99 280.564 269.755L280.079 272.067L279.154 276.691C279.008 277.461 278.857 278.201 278.703 278.91C278.539 279.619 278.415 280.337 278.333 281.06C278.297 281.744 278.413 282.428 278.672 283.061C278.932 283.695 279.33 284.263 279.836 284.725C280.326 285.161 280.9 285.492 281.524 285.696C282.125 285.881 282.807 285.985 283.431 286.123L290.494 287.568L300.724 289.695L303.499 290.296L304.215 290.458L304.458 290.528H304.204L303.475 290.4L300.69 289.88L290.436 287.88L283.35 286.435C282.714 286.297 282.079 286.216 281.397 286.019C280.723 285.804 280.103 285.445 279.582 284.967C279.029 284.473 278.594 283.861 278.309 283.177C278.023 282.494 277.893 281.754 277.929 281.014C278.015 280.271 278.142 279.534 278.31 278.806C278.46 278.078 278.599 277.338 278.749 276.587C279.05 275.095 279.362 273.57 279.674 271.963C279.824 271.188 279.986 270.402 280.148 269.651C280.338 268.821 280.735 268.053 281.304 267.42C281.891 266.777 282.632 266.296 283.458 266.023C284.284 265.75 285.166 265.693 286.02 265.859L304.62 269.616C306.042 269.917 307.429 270.171 308.793 270.483C309.467 270.664 310.095 270.985 310.637 271.426C311.179 271.866 311.622 272.415 311.937 273.038C312.515 274.208 312.634 275.552 312.272 276.806C312.03 277.962 311.798 279.118 311.579 280.193C311.14 282.343 310.735 284.297 310.423 285.973C310.33 286.401 310.249 286.817 310.134 287.221C310.009 287.599 309.838 287.96 309.625 288.297C309.261 288.895 308.767 289.404 308.18 289.788C307.375 290.321 306.429 290.603 305.464 290.597C305.12 290.602 304.778 290.559 304.446 290.47Z" fill="#263238"/>
<g opacity="0.3">
<path d="M266.497 286.598C281.915 294.671 299.358 298.059 316.677 296.342L266.497 286.598Z" fill="black"/>
</g>
<path d="M300.91 275.176L294.483 273.882C294.241 273.833 294.012 273.738 293.807 273.601C293.603 273.464 293.427 273.287 293.291 273.082C293.154 272.877 293.06 272.647 293.012 272.405C292.965 272.164 292.966 271.915 293.015 271.674C293.115 271.19 293.402 270.765 293.813 270.49C294.223 270.216 294.726 270.114 295.211 270.206L301.673 271.512C301.914 271.559 302.143 271.653 302.348 271.789C302.552 271.925 302.728 272.1 302.864 272.304C303.001 272.509 303.095 272.738 303.143 272.979C303.19 273.22 303.19 273.468 303.141 273.708C303.094 273.953 302.999 274.186 302.861 274.393C302.722 274.6 302.544 274.777 302.336 274.914C302.128 275.051 301.894 275.145 301.65 275.19C301.405 275.235 301.153 275.23 300.91 275.176Z" fill="#E0E0E0"/>
<path d="M311.176 230.129C312.024 231.417 312.715 232.803 313.233 234.255C313.466 236.857 313.513 239.473 313.372 242.081C313.372 242.081 312.02 242.763 310.921 239.134C310.343 237.388 309.929 235.593 309.685 233.77L311.176 230.129Z" fill="#FFBF9D"/>
<path d="M311.003 241.746L311.257 230.291L306.841 221.818L292.831 221.552L292.334 235.423C292.334 235.423 294.392 241.377 295.374 242.498C296.357 243.619 298.322 242.787 298.322 242.787C299.374 244.451 302.287 243.839 302.287 243.839C303.709 245.538 305.928 243.943 305.928 243.943C305.928 243.943 307.87 245.723 308.76 245.607C309.134 245.518 309.468 245.306 309.708 245.006C310.52 244.112 310.98 242.954 311.003 241.746Z" fill="#FFBF9D"/>
<path d="M297.245 239.828C297.372 239.828 297.708 240.394 297.973 241.192C298.239 241.989 298.367 242.683 298.228 242.729C298.089 242.775 297.765 242.151 297.5 241.354C297.234 240.556 297.107 239.874 297.245 239.828Z" fill="#FF9A6C"/>
<path d="M300.876 239.654C301.226 240.321 301.472 241.038 301.604 241.781C301.893 242.477 302.076 243.214 302.147 243.965C301.62 243.397 301.263 242.692 301.118 241.931C300.821 241.211 300.737 240.42 300.876 239.654Z" fill="#FF9A6C"/>
<path d="M305.013 240.024C305.163 240.024 305.267 240.902 305.475 241.954C305.684 243.006 305.88 243.861 305.741 243.919C305.603 243.977 305.175 243.156 304.967 242.047C304.759 240.937 304.886 240.024 305.013 240.024Z" fill="#FF9A6C"/>
<path d="M311.095 233.886C311.322 235.327 311.388 236.788 311.291 238.244C311.354 239.696 311.249 241.15 310.979 242.579C310.678 239.686 310.717 236.769 311.095 233.886Z" fill="#FF9A6C"/>
<path d="M297.038 237.527C297.038 237.527 297.038 237.735 296.738 237.886C296.406 238.077 296.014 238.139 295.64 238.059C295.26 237.982 294.923 237.768 294.692 237.458C294.518 237.227 294.507 237.03 294.564 237.007C294.622 236.984 295.073 237.435 295.72 237.562C296.368 237.689 296.957 237.412 297.038 237.527Z" fill="#FF9A6C"/>
<path d="M301.268 238.221C301.268 238.221 301.187 238.429 300.91 238.567C300.544 238.717 300.142 238.757 299.754 238.683C299.352 238.61 298.984 238.411 298.702 238.117C298.494 237.874 298.448 237.689 298.494 237.643C298.54 237.596 299.083 238.047 299.846 238.186C300.609 238.325 301.199 238.094 301.268 238.221Z" fill="#FF9A6C"/>
<path d="M309.372 237.377C309.372 237.307 309.695 237.677 309.372 238.174C308.929 238.665 308.309 238.96 307.649 238.995C307.012 239.054 306.372 238.908 305.823 238.579C305.418 238.313 305.256 238.047 305.303 238.001C306.034 238.314 306.819 238.479 307.615 238.487C308.154 238.456 308.673 238.267 309.106 237.943C309.372 237.677 309.302 237.4 309.372 237.377Z" fill="#FF9A6C"/>
<path d="M352.986 129.63C347.484 135.409 313.314 168.932 313.314 168.932C313.314 168.932 311.337 223.147 310.343 223.378C309.349 223.609 289.709 222.003 289.709 222.003C289.709 222.003 286.958 164.528 289.247 157.974C291.536 151.42 320.758 113.099 321.394 112.302C322.03 111.504 325.382 105.643 336.56 102.765C349.657 99.4128 355.16 105.69 357.368 112.128C359.263 117.677 355.645 126.3 353.9 128.612C353.617 128.97 353.312 129.31 352.986 129.63Z" fill="#263238"/>
<path d="M352.987 129.629C352.987 129.629 353.148 129.398 353.495 128.994C353.999 128.386 354.426 127.718 354.767 127.005C356.142 124.291 357.082 121.377 357.553 118.37C357.942 116.218 357.799 114.004 357.136 111.92C356.308 109.449 354.892 107.215 353.01 105.412C351.935 104.447 350.709 103.666 349.38 103.1C347.956 102.532 346.457 102.178 344.93 102.048C341.578 101.899 338.228 102.349 335.034 103.377C331.481 104.396 328.159 106.096 325.255 108.383C323.748 109.637 322.428 111.101 321.336 112.729L317.603 117.665C312.597 124.335 307.28 131.537 301.812 139.108C299.096 142.923 296.31 146.853 293.628 150.945C292.238 152.981 290.976 155.1 289.848 157.292C289.732 157.581 289.582 157.846 289.478 158.135L289.305 159.025C289.163 159.629 289.074 160.244 289.039 160.863L288.877 162.748L288.784 164.643C288.426 174.827 288.715 185.451 289.004 196.224C289.27 205.01 289.605 213.622 289.987 221.968L289.709 221.69L300.263 222.522L305.442 222.881L307.997 223.031L309.268 223.089H310.158C310.424 221.454 310.605 219.806 310.701 218.153C310.806 216.488 310.921 214.847 311.025 213.205C311.21 209.938 311.387 206.724 311.557 203.565C312.193 190.942 312.713 179.289 313.071 168.886V168.793V168.724L342.132 140.102L350.097 132.311L352.177 130.288C352.651 129.837 352.906 129.618 352.906 129.618C352.906 129.618 352.686 129.872 352.224 130.334L350.189 132.404L342.317 140.287L313.418 169.059L313.487 168.897C313.117 179.301 312.667 190.942 312.054 203.576C311.892 206.728 311.723 209.942 311.545 213.217C311.43 214.858 311.326 216.511 311.222 218.176C311.131 219.873 310.942 221.564 310.655 223.239C310.628 223.331 310.585 223.417 310.528 223.493C310.477 223.56 310.403 223.606 310.32 223.621H310.228H309.858H309.21L307.927 223.563L305.361 223.413L300.182 223.054L289.628 222.233H289.362V221.968C288.981 213.61 288.646 204.998 288.38 196.201C288.091 185.381 287.802 174.816 288.172 164.586L288.264 162.678L288.438 160.771C288.475 160.129 288.564 159.491 288.704 158.864L288.912 157.916C289.022 157.612 289.149 157.315 289.293 157.026C290.431 154.804 291.709 152.658 293.119 150.599C295.824 146.483 298.61 142.565 301.338 138.75C306.817 131.132 312.158 123.988 317.186 117.33L320.909 112.429C321.51 111.654 322.065 110.799 322.77 110.117C323.432 109.379 324.15 108.695 324.92 108.071C330.658 103.719 337.72 101.474 344.918 101.713C346.486 101.865 348.022 102.255 349.472 102.869C350.837 103.444 352.092 104.25 353.183 105.25C355.095 107.092 356.528 109.374 357.356 111.897C358.025 114.028 358.156 116.292 357.738 118.486C357.241 121.51 356.257 124.434 354.825 127.144C354.468 127.853 354.021 128.514 353.495 129.109C353.183 129.433 352.987 129.629 352.987 129.629Z" fill="#455A64"/>
<path d="M372.372 154.437C372.262 154.234 372.184 154.016 372.141 153.789C371.99 153.304 371.806 152.633 371.574 151.905C371.077 150.194 370.418 147.813 369.575 144.9C367.91 138.877 365.633 130.612 363.078 121.341V121.214L363.147 121.099C363.783 120.104 364.465 119.041 365.159 117.977L365.679 117.157L365.91 117.619L362.084 117.261H361.887L361.818 117.064C361.136 114.906 360.345 112.784 359.448 110.706C358.656 108.777 357.656 106.94 356.466 105.227C355.269 103.811 353.799 102.651 352.143 101.817C350.617 100.95 349.149 100.222 347.808 99.5861C345.103 98.3145 342.895 97.3898 341.369 96.754L339.624 96.0257C339.413 95.9565 339.212 95.8634 339.022 95.7483C339.242 95.7754 339.456 95.8338 339.658 95.9217C340.074 96.0604 340.675 96.2685 341.45 96.5575C342.999 97.1239 345.242 97.9909 347.97 99.2162C349.334 99.8404 350.813 100.546 352.374 101.401C354.099 102.24 355.637 103.419 356.894 104.869C358.127 106.599 359.159 108.465 359.968 110.429C360.886 112.525 361.696 114.666 362.396 116.845L362.13 116.637L365.968 116.983H366.453L366.188 117.399L365.667 118.22L363.644 121.341V121.099C366.13 130.404 368.338 138.669 369.944 144.715C370.707 147.651 371.32 150.044 371.771 151.766C371.956 152.552 372.118 153.188 372.233 153.685C372.315 153.928 372.361 154.181 372.372 154.437Z" fill="#455A64"/>
<path d="M368.384 119.896C361.68 123.849 356.235 123.826 345.045 122.878C337.289 122.22 330.492 120 322.712 119.757C311.499 119.422 303.061 122.844 292.888 127.468L285.352 136.369L299.489 140.646C309.044 135.735 319.712 133.393 330.446 133.849C347.785 134.796 364.061 130.069 369.818 125.664L371.794 120.185L371.043 117.318L368.662 117.099L368.384 119.896Z" fill="#6A3D88"/>
<path d="M368.385 119.896C368.385 119.896 368.385 119.654 368.385 119.18C368.385 118.706 368.477 118.024 368.558 117.134V117.053H368.627L371.009 117.249H371.078V117.319C371.298 118.151 371.563 119.11 371.852 120.174C371.298 121.781 370.639 123.642 369.922 125.676C368.23 126.908 366.389 127.922 364.443 128.693C362.216 129.637 359.93 130.432 357.599 131.075C348.943 133.427 339.974 134.421 331.012 134.022C327.584 133.85 324.147 133.958 320.736 134.346C317.137 134.769 313.582 135.508 310.112 136.554C306.483 137.606 302.967 139.016 299.616 140.762H299.501H299.385L291.132 138.473L285.236 136.658L284.797 136.531L285.086 136.184L292.623 127.271H292.681C297.536 124.967 302.56 123.035 307.708 121.492C312.469 120.117 317.412 119.481 322.366 119.607C326.783 119.828 331.174 120.408 335.497 121.341C339.219 122.103 342.982 122.639 346.768 122.948C349.86 123.249 352.967 123.38 356.074 123.341C358.397 123.308 360.706 122.966 362.94 122.324C364.337 121.902 365.694 121.361 366.997 120.706L367.991 120.185L368.35 120.012C368.35 120.012 368.257 120.093 368.038 120.22C367.818 120.347 367.483 120.555 367.044 120.798C365.754 121.505 364.399 122.086 362.998 122.532C360.749 123.228 358.415 123.617 356.062 123.688C352.945 123.757 349.827 123.653 346.722 123.376C342.921 123.098 339.142 122.585 335.405 121.838C331.102 120.939 326.734 120.382 322.343 120.174C317.441 120.062 312.552 120.705 307.847 122.081C302.747 123.635 297.77 125.567 292.958 127.861L293.062 127.78L285.537 136.693L285.398 136.207L291.259 137.987L299.535 140.484H299.304C302.706 138.687 306.281 137.239 309.974 136.161C313.475 135.115 317.06 134.376 320.69 133.953C324.144 133.571 327.623 133.47 331.093 133.652C339.994 134.073 348.907 133.121 357.518 130.832C359.834 130.205 362.108 129.433 364.327 128.52C366.248 127.765 368.072 126.783 369.76 125.595V125.665L371.771 120.185V120.255L371.055 117.388L371.136 117.469L368.754 117.215H368.835L368.593 119.284C368.465 119.677 368.385 119.896 368.385 119.896Z" fill="#263238"/>
<path d="M341.879 192.04C341.879 192.19 336.712 190.502 330.47 188.271C326.664 187.021 322.925 185.574 319.269 183.937C319.326 183.786 324.436 185.474 330.678 187.705C334.484 188.955 338.223 190.402 341.879 192.04Z" fill="#455A64"/>
</svg>
