<svg width="132" height="150" viewBox="0 0 132 150" fill="none" xmlns="http://www.w3.org/2000/svg">
<path d="M130.476 97.3351C129.352 101.204 126.42 104.324 122.676 105.634C122.8 105.821 122.925 106.133 122.988 106.321H95.9691C92.8492 106.321 92.8492 112.56 95.9691 112.56H118.557C121.178 112.56 123.424 114.058 124.36 116.367C123.362 120.61 120.679 124.098 116.38 125.04H89.7292C86.6093 125.04 86.6093 131.28 89.7292 131.28H114.689C114.82 131.28 117.247 131.218 118.189 134.462V134.525C115.749 139.273 108.829 142.761 103.332 143.704C98.6522 144.515 97.7225 145.264 93.9099 146.012C84.6125 147.753 74.3168 149.313 61.4627 149.812C60.7763 149.881 60.0275 149.881 59.2787 149.881H59.0915C37.3768 149.812 24.9595 137.401 24.9595 137.401V90.6023C24.9595 90.6023 28.1418 81.3049 40.5591 62.523C55.7844 39.5603 56.1588 56.2207 70.5728 16.7848C71.4464 14.3512 73.0688 12.1673 76.0015 12.3545C78.4413 12.5417 80.4318 14.1016 80.931 16.1608C80.2509 27.0806 78.1917 36.6275 74.6912 43.8658C72.5072 48.4833 70.3857 52.8512 69.2001 57.5311C68.7009 59.6526 68.8257 61.0254 69.2001 61.4622C69.2625 61.5246 69.3873 61.6494 69.5121 61.7118C69.4497 61.8366 69.4497 62.0238 69.3873 62.1486C67.6401 69.1996 69.9489 75.0027 80.7438 75.0027H124.797C127.356 75.0027 129.54 76.5626 130.476 78.7466C129.845 80.9929 128.535 82.9897 126.794 84.4873C127.418 85.0489 127.973 85.6104 128.416 86.2968C127.418 87.0394 126.17 87.601 124.797 87.601H95.9691C92.8492 87.601 92.8492 93.8408 95.9691 93.8408H124.797C127.293 93.8408 129.477 95.2136 130.476 97.3351Z" fill="#FFBE9D"/>
<path d="M12.4796 90.721C12.4796 88.9988 11.0819 87.6011 9.35968 87.6011C7.63747 87.6011 6.23975 88.9988 6.23975 90.721V140.64C6.23975 142.362 7.63747 143.76 9.35968 143.76C11.0819 143.76 12.4796 142.362 12.4796 140.64V90.721Z" fill="#5FFFBA"/>
<path d="M126.794 84.4815C129.414 86.7902 131.037 90.0973 131.037 93.7789C131.037 99.1389 127.543 103.95 122.675 105.628C124.048 107.631 124.797 110.003 124.797 112.561C124.797 118.614 121.864 123.793 116.186 124.978C118.557 124.978 119.368 129.408 118.869 132.341C117.871 138.207 109.64 142.637 103.332 143.698C98.652 144.509 97.7222 145.258 93.9097 146.007C82.6779 148.128 69.9486 150 53.0386 150C28.8903 150 14.913 136.335 14.2891 135.711L12.4795 133.901V83.4831L12.7915 82.4847C12.9787 82.0542 16.7226 72.3761 29.1399 52.9764C45.8003 26.8938 43.866 47.1733 58.2801 8.9854C60.2768 3.55672 64.1455 0 69.387 0L70.1358 0.0623985C76.4381 0.43679 81.3051 5.49108 81.118 11.5437C80.806 24.3979 78.6844 35.6296 74.6909 43.8662C72.5069 48.4837 70.3854 52.8516 69.1998 57.5315C68.7006 59.6531 68.8254 61.0258 69.1998 61.4626C69.5742 61.8994 71.0718 62.642 74.5037 62.642H96.7176C98.4648 62.642 99.8375 64.0147 99.8375 65.7619C99.8375 67.509 98.4648 68.8818 96.7176 68.8818H74.5037C63.7087 68.8818 61.4 63.0788 63.1472 56.0277C66.7039 41.8008 74.4413 28.5099 74.8781 11.3503C75.0029 8.72957 72.6941 6.42082 69.7614 6.23362C66.8287 6.04643 65.2063 8.23038 64.3327 10.6639C49.9187 50.0998 49.5443 33.4394 34.319 56.4021C21.9017 75.1841 18.7194 84.4815 18.7194 84.4815V131.28C18.7194 131.28 31.1991 143.76 53.0386 143.76C74.8781 143.76 83.6139 140.64 102.333 137.52C105.703 136.959 112.317 134.775 112.317 131.28C112.317 125.103 108.573 125.041 108.449 125.041H95.9688C92.8489 125.041 92.8489 118.801 95.9688 118.801H112.317C115.749 118.801 118.557 116.055 118.557 112.561C118.557 109.129 115.749 106.321 112.317 106.321H102.209C99.0887 106.321 99.0887 100.081 102.209 100.081H118.557C121.989 100.081 124.797 97.2108 124.797 93.7789C124.797 90.3469 121.989 87.6014 118.557 87.6014H102.209C99.0887 87.6014 99.0887 81.3615 102.209 81.3615H118.557C121.989 81.3615 124.797 78.616 124.797 75.1217C124.797 71.6898 121.989 68.8818 118.557 68.8818H109.197C107.45 68.8818 106.077 67.509 106.077 65.7619C106.077 64.0147 107.45 62.642 109.197 62.642H118.557C125.421 62.642 131.037 68.2578 131.037 75.1217C131.037 78.8656 129.414 82.2351 126.794 84.4815Z" fill="#2D2220"/>
<path d="M99.8375 65.7615C99.8375 64.0393 98.4398 62.6416 96.7176 62.6416C94.9954 62.6416 93.5977 64.0393 93.5977 65.7615C93.5977 67.4837 94.9954 68.8815 96.7176 68.8815C98.4398 68.8815 99.8375 67.4837 99.8375 65.7615Z" fill="#2D2220"/>
<path d="M6.23986 109.44C6.23986 111.163 4.84213 112.56 3.11993 112.56C1.39773 112.56 0 111.163 0 109.44V84.481C0 82.7588 1.39773 81.3611 3.11993 81.3611C4.84213 81.3611 6.23986 82.7588 6.23986 84.481V109.44Z" fill="#2D2220"/>
<path d="M6.23986 121.92C6.23986 120.198 4.84213 118.8 3.11993 118.8C1.39773 118.8 0 120.198 0 121.92V134.4C0 136.122 1.39773 137.52 3.11993 137.52C4.84213 137.52 6.23986 136.122 6.23986 134.4V121.92Z" fill="#2D2220"/>
</svg>
