<svg width="493" height="500" viewBox="0 0 493 500" fill="none" xmlns="http://www.w3.org/2000/svg">
<path d="M321.479 499.691L285.199 366.05L177.251 365.017C166.556 403.887 160.198 453.476 157.311 499.691" fill="#D4145A"/>
<path d="M201.647 463.874C202.716 464.476 203.864 464.924 205.058 465.205C206.495 465.472 207.978 465.338 209.344 464.819C210.71 464.299 211.906 463.413 212.802 462.258C213.698 461.103 214.259 459.723 214.423 458.271C214.587 456.818 214.348 455.349 213.732 454.023C213.176 452.932 212.459 451.931 211.605 451.052C211.605 451.052 211.95 451.207 212.437 451.635C213.135 452.255 213.711 453.001 214.136 453.833C214.771 455.082 215.074 456.473 215.016 457.873C214.949 459.598 214.346 461.259 213.293 462.627C212.222 463.982 210.762 464.977 209.11 465.479C207.767 465.883 206.342 465.932 204.974 465.621C204.063 465.415 203.198 465.045 202.419 464.528C201.885 464.16 201.623 463.946 201.647 463.874Z" fill="#FAFAFA"/>
<path d="M237.868 430.957C237.263 430.597 236.561 430.435 235.86 430.494C235.507 430.561 235.175 430.711 234.892 430.932C234.609 431.154 234.382 431.439 234.232 431.765C234.054 432.161 234 432.602 234.079 433.029C234.157 433.455 234.363 433.848 234.67 434.155C234.977 434.462 235.37 434.668 235.797 434.747C236.224 434.825 236.664 434.772 237.06 434.594C237.387 434.445 237.674 434.219 237.895 433.935C238.117 433.652 238.266 433.319 238.332 432.966C238.388 432.264 238.226 431.563 237.868 430.957C237.868 430.957 238.082 431.04 238.332 431.373C238.674 431.852 238.826 432.44 238.759 433.025C238.716 433.468 238.559 433.893 238.303 434.257C238.046 434.622 237.7 434.914 237.298 435.105C236.799 435.343 236.238 435.421 235.693 435.327C235.148 435.234 234.646 434.973 234.255 434.582C233.864 434.191 233.604 433.689 233.51 433.144C233.417 432.599 233.494 432.038 233.733 431.54C233.925 431.138 234.218 430.793 234.582 430.538C234.946 430.282 235.37 430.123 235.812 430.078C236.397 430.011 236.985 430.164 237.464 430.506C237.785 430.743 237.892 430.945 237.868 430.957Z" fill="#FAFAFA"/>
<path d="M259.377 484.801C258.772 484.443 258.07 484.281 257.369 484.337C257.015 484.403 256.683 484.552 256.399 484.774C256.116 484.995 255.89 485.282 255.741 485.609C255.563 486.005 255.509 486.445 255.588 486.872C255.666 487.299 255.872 487.692 256.179 487.999C256.486 488.306 256.879 488.512 257.306 488.59C257.733 488.669 258.173 488.615 258.569 488.437C258.895 488.287 259.181 488.06 259.402 487.777C259.623 487.494 259.774 487.162 259.841 486.809C259.899 486.108 259.737 485.406 259.377 484.801C259.377 484.801 259.591 484.884 259.841 485.217C260.18 485.692 260.332 486.276 260.269 486.857C260.217 487.296 260.053 487.715 259.793 488.073C259.533 488.431 259.185 488.716 258.783 488.901C258.284 489.139 257.724 489.217 257.179 489.123C256.634 489.03 256.131 488.77 255.74 488.379C255.349 487.988 255.089 487.485 254.996 486.94C254.902 486.395 254.98 485.835 255.218 485.336C255.409 484.933 255.701 484.587 256.065 484.331C256.43 484.075 256.854 483.917 257.298 483.874C257.882 483.807 258.471 483.96 258.949 484.302C259.294 484.587 259.401 484.777 259.377 484.801Z" fill="#FAFAFA"/>
<path d="M175.243 453.322C175.243 453.381 174.803 453.381 174.054 453.595C173.011 453.905 172.097 454.548 171.452 455.425C170.933 456.131 170.619 456.966 170.545 457.838C170.471 458.711 170.639 459.587 171.031 460.37C171.423 461.153 172.024 461.813 172.767 462.276C173.51 462.739 174.367 462.988 175.243 462.995C176.12 462.99 176.978 462.743 177.723 462.281C178.468 461.818 179.07 461.159 179.464 460.376C179.857 459.592 180.027 458.715 179.953 457.841C179.879 456.968 179.565 456.132 179.046 455.425C178.397 454.547 177.479 453.904 176.431 453.595C175.694 453.381 175.243 453.381 175.243 453.322C175.653 453.221 176.081 453.221 176.491 453.322C177.639 453.564 178.666 454.204 179.39 455.128C179.936 455.817 180.297 456.633 180.441 457.5C180.584 458.367 180.505 459.256 180.21 460.084C179.846 461.109 179.174 461.996 178.286 462.623C177.397 463.251 176.336 463.588 175.249 463.588C174.161 463.588 173.1 463.251 172.212 462.623C171.323 461.996 170.651 461.109 170.287 460.084C169.993 459.256 169.913 458.367 170.057 457.5C170.2 456.633 170.562 455.817 171.107 455.128C171.826 454.203 172.849 453.563 173.995 453.322C174.405 453.22 174.833 453.22 175.243 453.322Z" fill="#FAFAFA"/>
<path d="M254.826 454.332C254.826 454.332 254.374 454.332 253.638 454.605C252.59 454.914 251.672 455.557 251.023 456.435C250.492 457.141 250.167 457.981 250.087 458.861C250.006 459.741 250.172 460.626 250.566 461.417C250.961 462.207 251.568 462.872 252.319 463.337C253.07 463.802 253.936 464.049 254.82 464.049C255.704 464.049 256.57 463.802 257.321 463.337C258.073 462.872 258.679 462.207 259.074 461.417C259.468 460.626 259.634 459.741 259.554 458.861C259.473 457.981 259.148 457.141 258.617 456.435C257.975 455.555 257.06 454.912 256.014 454.605C255.266 454.391 254.826 454.391 254.826 454.332C255.236 454.236 255.663 454.236 256.074 454.332C257.222 454.569 258.249 455.205 258.973 456.126C259.514 456.818 259.871 457.634 260.013 458.5C260.154 459.367 260.074 460.254 259.781 461.082C259.421 462.108 258.75 462.997 257.863 463.626C256.975 464.255 255.914 464.593 254.826 464.593C253.738 464.593 252.677 464.255 251.789 463.626C250.902 462.997 250.231 462.108 249.871 461.082C249.578 460.254 249.498 459.367 249.639 458.5C249.781 457.634 250.138 456.818 250.679 456.126C251.403 455.205 252.43 454.569 253.578 454.332C253.989 454.236 254.416 454.236 254.826 454.332Z" fill="#FAFAFA"/>
<path d="M181.636 485.811C182.968 485.811 184.048 484.731 184.048 483.399C184.048 482.066 182.968 480.986 181.636 480.986C180.304 480.986 179.224 482.066 179.224 483.399C179.224 484.731 180.304 485.811 181.636 485.811Z" fill="#FAFAFA"/>
<path d="M225.521 417.101C226.853 417.101 227.933 416.021 227.933 414.689C227.933 413.357 226.853 412.277 225.521 412.277C224.188 412.277 223.108 413.357 223.108 414.689C223.108 416.021 224.188 417.101 225.521 417.101Z" fill="#FAFAFA"/>
<path d="M273.055 433.37C274.387 433.37 275.467 432.29 275.467 430.957C275.467 429.625 274.387 428.545 273.055 428.545C271.723 428.545 270.643 429.625 270.643 430.957C270.643 432.29 271.723 433.37 273.055 433.37Z" fill="#FAFAFA"/>
<path d="M216.906 427.749C216.786 428.007 216.643 428.254 216.478 428.486L215.135 430.494L210.18 437.731L209.99 438.004L209.788 437.731C207.684 434.903 205.201 431.564 202.515 427.927H202.991L199.14 433.049L195.647 437.802L195.385 438.147L195.148 437.79L188.517 427.927H188.909L182.682 435.057L180.935 436.994C180.735 437.233 180.512 437.452 180.27 437.648C180.43 437.383 180.613 437.133 180.816 436.899L182.468 434.867L188.528 427.642L188.742 427.392L188.933 427.666C190.905 430.553 193.187 433.869 195.647 437.481H195.159L198.641 432.799L202.515 427.642L202.753 427.309L203.002 427.642L210.132 437.517H209.728L214.862 430.387L216.312 428.45C216.479 428.192 216.679 427.956 216.906 427.749Z" fill="#FAFAFA"/>
<path d="M240.815 474.415C240.769 474.697 240.689 474.972 240.577 475.235C240.351 475.817 240.078 476.578 239.733 477.493L236.572 485.669L236.442 485.989L236.18 485.764L226.852 477.897L227.327 477.778C226.495 479.679 225.64 481.664 224.76 483.72L222.384 489.067L222.205 489.459L221.896 489.174C218.688 486.203 215.741 483.458 213.174 481.093L213.566 481.022L209.134 489.341C208.623 490.279 208.195 491.04 207.862 491.634C207.728 491.912 207.565 492.175 207.375 492.418C207.466 492.122 207.585 491.836 207.731 491.563L208.92 489.186C209.977 487.083 211.427 484.219 213.162 480.761L213.317 480.464L213.566 480.689L222.348 488.699L221.873 488.806L224.19 483.458C225.081 481.426 225.937 479.442 226.769 477.517L226.935 477.136L227.244 477.41L236.501 485.372L236.109 485.467C237.499 482.139 238.64 479.382 239.472 477.374L240.435 475.152C240.535 474.893 240.662 474.646 240.815 474.415Z" fill="#FAFAFA"/>
<path d="M281.73 453.322C281.985 453.449 282.224 453.604 282.443 453.785L284.38 455.223L291.344 460.547L291.617 460.749L291.332 460.939L281.171 467.701V467.214L286.139 471.337L290.619 475.069L290.951 475.342L290.583 475.556L280.387 481.676V481.284L287.137 487.867L288.991 489.721C289.223 489.922 289.427 490.154 289.597 490.41C289.345 490.234 289.107 490.039 288.884 489.828L286.947 488.069L280.031 481.652L279.793 481.426L280.078 481.248L290.215 475.033V475.532L285.735 471.813C284.023 470.398 282.372 469.008 280.767 467.689L280.458 467.416L280.803 467.202L291.023 460.535V460.927C288.206 458.681 285.889 456.804 284.19 455.437L282.324 453.904C281.932 453.536 281.706 453.346 281.73 453.322Z" fill="#FAFAFA"/>
<g opacity="0.2">
<path d="M161.113 455.306L306.483 444.469L303.334 432.847H163.906L161.113 455.306Z" fill="black"/>
</g>
<path d="M237.463 489.614C237.297 489.614 237.261 479.56 237.392 467.166C237.523 454.772 237.784 444.718 237.95 444.73C238.117 444.742 238.152 454.772 238.022 467.166C237.891 479.56 237.63 489.614 237.463 489.614Z" fill="#263238"/>
<path d="M267.826 489.614C267.607 489.099 267.432 488.566 267.304 488.021C266.983 486.833 266.567 485.395 266.115 483.624C265.093 479.917 263.655 474.807 262.004 469.174C260.352 463.542 258.759 458.479 257.607 454.807L256.252 450.458C256.065 449.932 255.921 449.392 255.824 448.842C256.098 449.327 256.317 449.841 256.478 450.375C256.858 451.385 257.393 452.846 258.023 454.665C259.282 458.313 260.922 463.363 262.598 469.008C264.273 474.652 265.616 479.774 266.531 483.517C266.995 485.383 267.351 486.904 267.577 487.962C267.719 488.502 267.803 489.056 267.826 489.614Z" fill="#263238"/>
<path d="M388.846 313.348L367.23 327.429V110.403H388.846V313.348Z" fill="#F5F5F5"/>
<path d="M367.111 300.656C377.022 270.247 372.59 236.272 383.558 206.076C384.604 203.177 385.816 200.206 385.507 197.176C385.114 194.551 383.957 192.1 382.18 190.129C380.231 187.752 377.319 185.637 373.992 185.863C372.635 186.006 371.339 186.499 370.229 187.292C369.119 188.086 368.233 189.153 367.658 190.39C366.743 192.717 366.338 195.214 366.47 197.71C366.291 206.944 366.339 216.177 366.398 225.399C366.517 248.635 366.64 271.859 366.767 295.071" fill="#E0E0E0"/>
<path d="M367.028 165.816V157.783L388.644 151.591V160.86L367.028 165.816Z" fill="#E0E0E0"/>
<path d="M105.024 199.172C105.024 199.172 103.467 187.099 104.168 182.833C104.917 178.293 112.487 168.68 112.487 168.68C112.38 168.264 111.132 167.218 107.258 168.68C103.384 170.141 102.029 172.863 98.3574 175.477L79.5579 163.819L73.4023 183.498L89.3736 208.643L105.024 199.172Z" fill="#FFAD9D"/>
<path d="M188.077 153.005C178.369 162.512 187.697 177.307 181.47 186.861C177.703 192.648 169.587 195.453 167.887 202.131C167.032 205.447 167.994 208.917 168.505 212.292C169.016 215.666 168.897 219.564 166.438 221.941C165.195 222.918 163.889 223.811 162.528 224.615C158.725 227.407 157.442 232.612 157.87 237.306C158.298 242 160.128 246.421 161.435 250.96C165.037 263.859 164.238 277.591 159.165 289.985C161.394 289.996 163.597 289.5 165.606 288.535C167.616 287.569 169.379 286.159 170.763 284.412C170.656 287.561 170.537 290.698 170.419 293.847C174.602 294.109 178.642 291.863 181.434 288.737C184.08 285.478 186.095 281.754 187.376 277.757C193.962 260.014 196.132 240.935 193.698 222.167" fill="#263238"/>
<path d="M268.195 125.84C273.74 134.07 276.062 144.052 274.719 153.885C273.946 159.41 272.033 165.15 273.935 170.403C275.563 174.918 279.876 178.602 279.674 183.403C279.401 188.869 273.233 192.565 272.687 198.008C271.914 205.554 282.039 210.628 281.932 218.209C281.873 222.119 279.068 225.339 277.179 228.738C275.289 232.137 274.374 237.056 277.416 239.492L242.146 236.973L248.421 126.707L268.195 125.84Z" fill="#263238"/>
<path d="M371.378 219.778H370.986L372.543 214.585L377.522 194.74C377.739 193.852 377.616 192.915 377.176 192.114C376.736 191.313 376.011 190.707 375.145 190.414L371.58 190.295L359.328 184.556C358.795 184.348 358.223 184.263 357.652 184.305C357.082 184.348 356.528 184.519 356.032 184.804C355.536 185.089 355.111 185.481 354.786 185.952C354.462 186.424 354.248 186.962 354.159 187.527C353.707 191.175 351.224 200.967 348.586 197.532C348.586 197.461 348.455 197.39 348.396 197.307C344.688 192.209 340.077 189.452 338.164 189.523C337.755 189.559 337.365 189.712 337.041 189.964C336.716 190.215 336.471 190.555 336.335 190.942C336.198 191.329 336.176 191.748 336.271 192.147C336.365 192.547 336.573 192.91 336.869 193.195C337.06 193.441 337.299 193.647 337.57 193.801C337.689 193.86 337.831 193.979 337.962 194.063C339.599 195.522 341.08 197.147 342.383 198.911C343.574 200.461 344.487 202.206 345.08 204.068C345.734 206.136 346.268 207.93 346.589 209.463L345.639 219.6" fill="#FFAD9D"/>
<path d="M338.675 129.88C338.675 129.88 352.935 127.135 373.576 108.49C394.218 89.8449 404.283 64.5215 406.731 64.6759C409.179 64.8304 420.028 60.2078 439.137 105.079C458.245 149.951 449.927 160.004 445.875 159.802C441.823 159.6 414.538 151.163 397.295 152.672C380.053 154.182 357.712 162.476 357.712 162.476L338.675 129.88Z" fill="#455A64"/>
<path d="M307.742 153.172L312.341 162.536L314.397 166.731C315.754 169.505 318.125 171.652 321.019 172.729C323.914 173.806 327.112 173.73 329.952 172.518L360.766 162.75L344.129 121.681L313.232 137.129C310.391 138.543 308.22 141.02 307.193 144.023C306.165 147.026 306.362 150.313 307.742 153.172Z" fill="#263238"/>
<path d="M324.913 168.454L334.099 187.776L339.007 186.588L370.022 213.325L379.386 196.201C379.386 196.201 360.848 187.586 357.569 180.753C354.289 173.92 358.341 172.554 358.341 172.554L349.797 162.274L324.913 168.454Z" fill="#263238"/>
<path d="M437.473 105.793C447.621 130.094 451.531 151.603 446.183 153.825C440.836 156.048 428.287 138.175 418.127 113.873C407.966 89.572 404.069 68.063 409.416 65.8527C414.764 63.6424 427.312 81.4913 437.473 105.793Z" fill="#263238"/>
<path d="M304.747 166.433L313.089 164.069L308.252 154.194L301.942 157.877L304.747 166.433Z" fill="#455A64"/>
<path d="M352.733 165.816L330.107 179.363L327.48 173.849L352.733 165.816Z" fill="#455A64"/>
<path d="M308.253 154.194L313.089 164.069L311.378 164.556L307.492 154.633L308.253 154.194Z" fill="#455A64"/>
<path d="M313.886 156.606C314.005 156.879 318.176 155.417 323.202 153.278C328.229 151.139 332.234 149.25 332.115 148.977C331.996 148.703 327.837 150.165 322.798 152.304C317.76 154.443 313.779 156.332 313.886 156.606Z" fill="#455A64"/>
<path d="M311.509 150.735C311.628 151.009 315.406 149.547 319.946 147.456C324.485 145.364 328.074 143.475 327.943 143.213C327.813 142.952 324.046 144.402 319.506 146.493C314.967 148.585 311.39 150.474 311.509 150.735Z" fill="#455A64"/>
<path d="M316.916 162.773C316.916 162.916 317.95 162.714 319.53 162.274C320.315 162.06 321.253 161.775 322.299 161.454C323.345 161.134 324.403 160.611 325.543 160.123C330.13 158.151 333.648 156.19 333.541 155.952C333.434 155.715 329.667 157.141 325.127 159.149C323.939 159.624 322.929 160.159 321.943 160.539C320.956 160.92 320.041 161.252 319.293 161.561C317.795 162.179 316.88 162.631 316.916 162.773Z" fill="#455A64"/>
<path d="M415.524 99.8272C415.524 99.8272 428.121 92.507 434.407 109.417C440.693 126.327 427.61 128.704 427.61 128.704C422.242 119.695 418.173 109.974 415.524 99.8272Z" fill="#455A64"/>
<path d="M402.929 79.5303C402.969 80.6095 403.104 81.6832 403.333 82.7388C403.666 84.7946 404.129 87.7773 404.818 91.4374C405.294 93.2437 405.805 95.2163 406.363 97.3791C406.648 98.4486 406.933 99.5419 407.231 100.671C407.385 101.229 407.539 101.859 407.694 102.382C407.848 102.905 408.086 103.57 408.276 104.117C409.108 106.494 409.976 108.87 410.867 111.401C411.093 112.031 411.318 112.673 411.556 113.315C411.794 113.956 412.103 114.574 412.376 115.204C412.935 116.476 413.564 117.759 414.099 119.054C414.634 120.35 415.287 121.633 415.834 122.893C416.131 123.523 416.381 124.164 416.713 124.758C417.046 125.353 417.379 125.947 417.7 126.541L421.455 133.303C421.764 133.849 422.037 134.384 422.358 134.895L423.344 136.38L425.234 139.209L428.644 144.271C430.926 147.206 432.839 149.523 434.158 151.128C434.805 151.98 435.525 152.776 436.309 153.504C435.783 152.562 435.174 151.667 434.491 150.831C433.219 149.119 431.425 146.719 429.239 143.76C428.228 142.203 427.135 140.492 425.959 138.662C425.376 137.747 424.77 136.808 424.129 135.834L423.178 134.348C422.869 133.849 422.596 133.303 422.299 132.768C421.11 130.617 419.922 128.347 418.627 126.006L417.652 124.247C417.319 123.653 417.082 123.059 416.785 122.382L415.074 118.567C414.491 117.284 413.885 116.012 413.35 114.753C413.077 114.123 412.756 113.564 412.53 112.875C412.305 112.186 412.067 111.604 411.841 110.986C410.922 108.482 410.047 106.074 409.215 103.76C409.013 103.178 408.775 102.572 408.597 102.049C408.419 101.526 408.288 100.861 408.122 100.35C407.813 99.2329 407.504 98.1515 407.207 97.1058C406.613 95.0064 406.062 93.0615 405.555 91.271L403.761 82.6675C403.578 81.5989 403.3 80.5489 402.929 79.5303Z" fill="#263238"/>
<path d="M341.349 215.512L335.146 270.58L304.19 239.683C304.19 239.683 287.624 274.145 287.398 275.535C287.244 276.474 304.772 293.8 317.796 303.794C324.843 309.212 334.362 317.59 343.143 316.176C357.784 313.799 366.482 304.162 367.754 289.379L373.363 216.32L341.349 215.512Z" fill="#D4145A"/>
<path d="M179.295 266.681L156.586 251.59C162.801 216.688 213.21 213.194 213.21 213.194L251.594 212.517C251.594 212.517 280.042 208.643 297.63 228.417C315.823 248.856 329.548 264.994 329.548 264.994L304.593 292.254L280.173 273.087C283.927 278.51 285.995 284.923 286.115 291.518C286.115 302.878 277.642 313.74 277.642 313.74L275.527 333.145L284.926 370.756L176.205 371.053C183.609 359.3 188.921 349.128 195.516 331.755L185.356 295.202L179.295 266.681Z" fill="#D4145A"/>
<path d="M180.947 223.592L125.88 252.73L105.951 198.293L81.6377 209.855L98.8329 279.147C102.255 292.92 116.836 301.203 130.158 296.295C130.609 296.129 131.049 295.95 131.488 295.76L191.167 269.926L180.947 223.592Z" fill="#D4145A"/>
<path d="M217.606 266.385C216.395 266.569 215.215 266.921 214.101 267.43C212.805 268.103 211.719 269.119 210.96 270.367C210.202 271.615 209.801 273.047 209.801 274.507C209.801 275.967 210.202 277.399 210.96 278.647C211.719 279.895 212.805 280.911 214.101 281.583C215.215 282.093 216.395 282.445 217.606 282.629C217.273 282.695 216.93 282.695 216.596 282.629C215.666 282.561 214.755 282.323 213.91 281.928C212.638 281.334 211.541 280.421 210.726 279.278C209.723 277.869 209.184 276.183 209.184 274.453C209.184 272.724 209.723 271.038 210.726 269.629C211.541 268.489 212.639 267.58 213.91 266.991C214.753 266.59 215.665 266.352 216.596 266.289C216.936 266.255 217.279 266.287 217.606 266.385Z" fill="#FAFAFA"/>
<path d="M256.406 285.315C256.967 286.403 257.684 287.404 258.533 288.286C259.489 289.185 260.646 289.841 261.908 290.199C263.454 290.633 265.096 290.586 266.615 290.067C268.135 289.547 269.46 288.577 270.417 287.287C271.2 286.239 271.714 285.015 271.914 283.722C272.04 282.502 271.992 281.269 271.771 280.062C271.954 280.354 272.083 280.676 272.152 281.013C272.384 281.916 272.453 282.854 272.354 283.782C272.2 285.174 271.693 286.503 270.88 287.644C269.872 289.049 268.452 290.104 266.816 290.665C265.181 291.225 263.411 291.261 261.754 290.769C260.395 290.382 259.165 289.64 258.189 288.618C257.536 287.951 257.013 287.17 256.644 286.313C256.502 285.998 256.421 285.66 256.406 285.315Z" fill="#FAFAFA"/>
<path d="M228.563 347.298C229.631 347.902 230.779 348.35 231.974 348.629C233.41 348.892 234.89 348.755 236.254 348.234C237.618 347.712 238.812 346.827 239.707 345.673C240.602 344.52 241.163 343.142 241.329 341.692C241.495 340.241 241.26 338.773 240.648 337.447C240.092 336.356 239.375 335.355 238.521 334.476C238.521 334.476 238.854 334.631 239.353 335.059C240.05 335.677 240.623 336.423 241.041 337.257C241.685 338.503 241.993 339.896 241.932 341.297C241.865 343.022 241.262 344.683 240.209 346.051C239.138 347.406 237.678 348.401 236.026 348.903C234.683 349.307 233.258 349.356 231.89 349.045C230.979 348.839 230.114 348.469 229.335 347.952C228.801 347.584 228.539 347.334 228.563 347.298Z" fill="#FAFAFA"/>
<path d="M342.822 251.982C343.892 252.578 345.04 253.022 346.233 253.301C347.668 253.562 349.146 253.425 350.508 252.904C351.871 252.383 353.064 251.499 353.958 250.347C354.853 249.195 355.414 247.82 355.581 246.372C355.749 244.923 355.516 243.456 354.908 242.131C354.353 241.035 353.636 240.029 352.781 239.148C353.092 239.289 353.374 239.486 353.612 239.73C354.309 240.354 354.882 241.104 355.3 241.941C355.945 243.182 356.252 244.571 356.191 245.969C356.119 247.701 355.508 249.368 354.443 250.736C353.377 252.103 351.911 253.104 350.249 253.598C348.909 253.993 347.489 254.038 346.126 253.729C345.213 253.533 344.346 253.166 343.571 252.647C343.284 252.472 343.03 252.246 342.822 251.982Z" fill="#FAFAFA"/>
<path d="M353.137 307.561C352.873 306.365 352.441 305.212 351.853 304.138C351.169 303.013 350.218 302.075 349.084 301.405C348.112 300.834 347.03 300.475 345.909 300.352C344.788 300.23 343.654 300.347 342.582 300.695C341.509 301.043 340.523 301.615 339.687 302.372C338.852 303.13 338.187 304.055 337.736 305.089C337.304 306.234 337.032 307.434 336.928 308.654C336.824 308.328 336.784 307.985 336.809 307.644C336.821 306.709 336.998 305.784 337.332 304.911C337.828 303.614 338.646 302.465 339.708 301.571C340.643 300.799 341.737 300.241 342.912 299.94C344.087 299.638 345.314 299.6 346.506 299.827C347.697 300.054 348.824 300.541 349.806 301.253C350.788 301.965 351.601 302.886 352.186 303.948C352.645 304.763 352.944 305.659 353.065 306.586C353.152 306.903 353.176 307.234 353.137 307.561Z" fill="#FAFAFA"/>
<path d="M269.133 237.698C269.928 238.615 270.848 239.415 271.866 240.075C272.999 240.738 274.275 241.117 275.586 241.18C276.712 241.232 277.837 241.044 278.886 240.629C279.934 240.214 280.883 239.582 281.669 238.773C282.455 237.964 283.061 236.998 283.446 235.938C283.832 234.878 283.988 233.749 283.904 232.624C283.76 231.396 283.44 230.195 282.953 229.059C283.196 229.296 283.39 229.579 283.524 229.891C283.966 230.717 284.245 231.621 284.344 232.553C284.511 233.942 284.315 235.35 283.773 236.64C283.102 238.235 281.951 239.581 280.479 240.49C279.007 241.4 277.288 241.828 275.562 241.715C274.164 241.623 272.813 241.173 271.64 240.407C270.86 239.898 270.179 239.249 269.632 238.494C269.252 238.055 269.097 237.722 269.133 237.698Z" fill="#FAFAFA"/>
<path d="M161.185 267.347C161.978 268.266 162.898 269.066 163.918 269.724C165.171 270.469 166.605 270.856 168.063 270.843C169.52 270.83 170.947 270.417 172.186 269.65C173.426 268.883 174.432 267.791 175.095 266.493C175.757 265.194 176.051 263.739 175.944 262.285C175.797 261.057 175.477 259.857 174.993 258.72C175.229 258.967 175.422 259.253 175.564 259.563C175.994 260.39 176.272 261.288 176.384 262.213C176.547 263.607 176.347 265.02 175.801 266.313C175.131 267.906 173.981 269.25 172.512 270.16C171.043 271.069 169.326 271.498 167.602 271.387C166.204 271.296 164.854 270.846 163.68 270.08C162.9 269.57 162.219 268.922 161.672 268.167C161.339 267.692 161.149 267.359 161.185 267.347Z" fill="#FAFAFA"/>
<path d="M117.37 269.534C117.937 268.443 118.338 267.273 118.558 266.064C118.753 264.617 118.546 263.145 117.962 261.808C117.377 260.47 116.437 259.319 115.243 258.479C114.049 257.64 112.647 257.144 111.191 257.046C109.735 256.948 108.28 257.252 106.984 257.924C105.923 258.536 104.958 259.3 104.12 260.193C104.12 260.193 104.251 259.849 104.655 259.338C105.242 258.608 105.964 257.999 106.782 257.543C107.997 256.843 109.373 256.47 110.775 256.462C112.504 256.457 114.192 256.984 115.611 257.971C117.02 258.97 118.083 260.382 118.653 262.012C119.12 263.334 119.239 264.754 118.998 266.135C118.831 267.054 118.501 267.935 118.024 268.737C117.691 269.284 117.441 269.557 117.37 269.534Z" fill="#FAFAFA"/>
<path d="M240.209 276.985C239.608 276.625 238.91 276.463 238.212 276.521C237.858 276.584 237.524 276.733 237.241 276.955C236.957 277.177 236.731 277.464 236.584 277.793C236.406 278.188 236.353 278.629 236.431 279.056C236.509 279.483 236.716 279.876 237.022 280.183C237.329 280.49 237.722 280.696 238.149 280.774C238.576 280.852 239.017 280.799 239.412 280.621C239.739 280.472 240.024 280.246 240.243 279.962C240.463 279.679 240.61 279.346 240.672 278.993C240.743 278.291 240.58 277.585 240.209 276.985C240.209 276.985 240.434 277.068 240.684 277.4C241.021 277.882 241.173 278.468 241.112 279.052C241.066 279.495 240.908 279.919 240.652 280.283C240.396 280.647 240.051 280.939 239.65 281.132C239.151 281.363 238.593 281.435 238.052 281.339C237.511 281.242 237.012 280.982 236.624 280.593C236.235 280.205 235.975 279.706 235.878 279.165C235.782 278.624 235.854 278.066 236.085 277.567C236.279 277.164 236.573 276.818 236.939 276.562C237.306 276.306 237.732 276.149 238.177 276.105C238.761 276.038 239.35 276.191 239.828 276.533C240.125 276.771 240.232 276.961 240.209 276.985Z" fill="#FAFAFA"/>
<path d="M278.355 258.363C277.755 257.992 277.049 257.829 276.347 257.9C275.992 257.962 275.658 258.111 275.374 258.333C275.09 258.554 274.865 258.842 274.719 259.171C274.545 259.567 274.494 260.006 274.574 260.43C274.654 260.855 274.861 261.245 275.167 261.55C275.473 261.855 275.864 262.06 276.289 262.138C276.714 262.216 277.153 262.164 277.547 261.988C277.875 261.839 278.161 261.613 278.382 261.33C278.604 261.046 278.753 260.713 278.819 260.36C278.876 259.662 278.714 258.964 278.355 258.363C278.355 258.363 278.569 258.447 278.819 258.767C279.161 259.246 279.313 259.835 279.246 260.419C279.2 260.863 279.041 261.288 278.785 261.653C278.53 262.019 278.185 262.314 277.785 262.511C277.286 262.741 276.728 262.814 276.187 262.717C275.646 262.621 275.147 262.361 274.758 261.972C274.37 261.583 274.109 261.085 274.013 260.544C273.917 260.002 273.989 259.445 274.22 258.946C274.413 258.545 274.705 258.2 275.069 257.944C275.433 257.688 275.857 257.529 276.299 257.484C276.885 257.421 277.474 257.577 277.951 257.924C278.272 258.161 278.379 258.363 278.355 258.363Z" fill="#FAFAFA"/>
<path d="M361.17 227.467C360.569 227.107 359.871 226.945 359.174 227.003C358.817 227.066 358.482 227.214 358.196 227.436C357.91 227.657 357.683 227.945 357.534 228.275C357.356 228.67 357.302 229.111 357.38 229.538C357.459 229.965 357.665 230.358 357.972 230.665C358.279 230.972 358.672 231.178 359.099 231.256C359.525 231.334 359.966 231.281 360.362 231.103C360.689 230.954 360.976 230.728 361.197 230.445C361.418 230.161 361.568 229.828 361.633 229.475C361.7 228.773 361.537 228.068 361.17 227.467C361.17 227.467 361.396 227.55 361.633 227.882C361.975 228.361 362.128 228.95 362.061 229.534C362.018 229.978 361.861 230.402 361.604 230.767C361.348 231.131 361.002 231.423 360.599 231.614C360.101 231.852 359.54 231.93 358.995 231.836C358.45 231.743 357.948 231.483 357.557 231.092C357.166 230.701 356.905 230.198 356.812 229.653C356.718 229.108 356.796 228.548 357.034 228.049C357.228 227.646 357.522 227.3 357.889 227.044C358.255 226.788 358.681 226.631 359.126 226.587C359.711 226.52 360.299 226.673 360.778 227.015C361.087 227.229 361.194 227.467 361.17 227.467Z" fill="#FAFAFA"/>
<path d="M267.731 316.936C267.131 316.577 266.433 316.415 265.735 316.473C265.38 316.538 265.046 316.688 264.76 316.909C264.475 317.13 264.247 317.417 264.095 317.744C263.917 318.14 263.864 318.581 263.942 319.008C264.02 319.435 264.226 319.828 264.533 320.134C264.84 320.441 265.233 320.648 265.66 320.726C266.087 320.804 266.528 320.751 266.923 320.573C267.251 320.424 267.537 320.198 267.759 319.914C267.98 319.631 268.13 319.298 268.195 318.945C268.251 318.243 268.089 317.542 267.731 316.936C267.731 316.936 267.957 317.02 268.195 317.352C268.537 317.831 268.689 318.419 268.623 319.004C268.579 319.447 268.422 319.872 268.166 320.236C267.91 320.601 267.564 320.893 267.161 321.084C266.662 321.322 266.102 321.4 265.557 321.306C265.012 321.213 264.509 320.953 264.118 320.562C263.727 320.171 263.467 319.668 263.373 319.123C263.28 318.578 263.358 318.018 263.596 317.519C263.791 317.117 264.085 316.771 264.451 316.515C264.817 316.259 265.243 316.102 265.687 316.057C266.268 315.993 266.852 316.145 267.327 316.485C267.648 316.722 267.755 316.924 267.731 316.936Z" fill="#FAFAFA"/>
<path d="M138.998 276.985C138.397 276.625 137.699 276.463 137.002 276.521C136.645 276.584 136.31 276.732 136.024 276.954C135.738 277.175 135.511 277.463 135.362 277.793C135.184 278.189 135.13 278.629 135.208 279.056C135.287 279.483 135.493 279.876 135.8 280.183C136.107 280.49 136.5 280.696 136.927 280.774C137.354 280.852 137.794 280.799 138.19 280.621C138.517 280.472 138.804 280.246 139.025 279.963C139.247 279.679 139.396 279.347 139.461 278.993C139.518 278.292 139.356 277.59 138.998 276.985C138.998 276.985 139.224 277.068 139.461 277.401C139.804 277.879 139.956 278.468 139.889 279.052C139.846 279.496 139.689 279.92 139.432 280.285C139.176 280.649 138.83 280.941 138.428 281.132C137.929 281.37 137.368 281.448 136.823 281.354C136.278 281.261 135.776 281.001 135.385 280.61C134.994 280.219 134.734 279.716 134.64 279.171C134.547 278.626 134.624 278.066 134.863 277.567C135.056 277.164 135.351 276.818 135.717 276.562C136.083 276.306 136.509 276.149 136.954 276.105C137.535 276.042 138.118 276.194 138.594 276.533C138.915 276.771 139.022 276.961 138.998 276.985Z" fill="#FAFAFA"/>
<path d="M209.491 332.123C209.491 332.123 209.039 332.123 208.303 332.397C207.254 332.703 206.335 333.346 205.688 334.227C205.157 334.932 204.832 335.772 204.751 336.652C204.671 337.532 204.837 338.417 205.231 339.208C205.626 339.999 206.232 340.664 206.984 341.129C207.735 341.594 208.601 341.84 209.485 341.84C210.369 341.84 211.235 341.594 211.986 341.129C212.737 340.664 213.344 339.999 213.739 339.208C214.133 338.417 214.299 337.532 214.218 336.652C214.138 335.772 213.813 334.932 213.282 334.227C212.633 333.35 211.721 332.705 210.679 332.385C209.931 332.171 209.491 332.171 209.491 332.123C209.881 332.023 210.29 332.023 210.679 332.123C211.823 332.363 212.845 332.999 213.567 333.918C214.113 334.606 214.474 335.423 214.617 336.289C214.761 337.156 214.682 338.045 214.387 338.873C214.023 339.898 213.351 340.785 212.463 341.413C211.574 342.04 210.513 342.377 209.426 342.377C208.338 342.377 207.277 342.04 206.389 341.413C205.5 340.785 204.828 339.898 204.464 338.873C204.169 338.045 204.09 337.156 204.234 336.289C204.377 335.423 204.739 334.606 205.284 333.918C206.01 332.998 207.037 332.363 208.184 332.123C208.611 332.001 209.064 332.001 209.491 332.123Z" fill="#FAFAFA"/>
<path d="M321.92 266.384C321.92 266.444 321.468 266.444 320.731 266.658C319.682 266.964 318.764 267.607 318.117 268.488C317.646 269.125 317.342 269.869 317.232 270.654C317.122 271.438 317.21 272.238 317.487 272.98C317.712 273.634 318.076 274.232 318.556 274.731C319.036 275.231 319.618 275.619 320.264 275.869C320.909 276.12 321.601 276.226 322.292 276.182C322.982 276.137 323.655 275.942 324.262 275.61C324.87 275.278 325.398 274.818 325.808 274.261C326.219 273.704 326.504 273.064 326.642 272.385C326.78 271.707 326.768 271.007 326.607 270.334C326.446 269.66 326.14 269.03 325.711 268.488C325.066 267.61 324.152 266.968 323.108 266.658C322.359 266.444 321.92 266.444 321.92 266.384C322.329 266.282 322.758 266.282 323.168 266.384C324.314 266.625 325.337 267.266 326.055 268.191C326.601 268.879 326.962 269.696 327.106 270.562C327.249 271.429 327.17 272.318 326.875 273.146C326.511 274.171 325.839 275.058 324.951 275.686C324.062 276.313 323.001 276.65 321.914 276.65C320.826 276.65 319.765 276.313 318.877 275.686C317.988 275.058 317.316 274.171 316.953 273.146C316.658 272.318 316.578 271.429 316.722 270.562C316.865 269.696 317.227 268.879 317.772 268.191C318.495 267.265 319.522 266.625 320.672 266.384C321.082 266.284 321.51 266.284 321.92 266.384Z" fill="#FAFAFA"/>
<path d="M201.327 296.188C201.662 295.863 202.085 295.643 202.544 295.557C203.003 295.471 203.478 295.522 203.908 295.704C204.338 295.886 204.705 296.191 204.963 296.58C205.221 296.97 205.359 297.426 205.359 297.893C205.359 298.36 205.221 298.817 204.963 299.206C204.705 299.596 204.338 299.9 203.908 300.082C203.478 300.264 203.003 300.315 202.544 300.229C202.085 300.143 201.662 299.924 201.327 299.599C201.098 299.377 200.917 299.112 200.793 298.819C200.669 298.526 200.605 298.211 200.605 297.893C200.605 297.575 200.669 297.26 200.793 296.968C200.917 296.675 201.098 296.41 201.327 296.188Z" fill="#FAFAFA"/>
<path d="M112.499 281.108C113.832 281.108 114.912 280.028 114.912 278.696C114.912 277.363 113.832 276.283 112.499 276.283C111.167 276.283 110.087 277.363 110.087 278.696C110.087 280.028 111.167 281.108 112.499 281.108Z" fill="#FAFAFA"/>
<path d="M360.766 264.911C362.098 264.911 363.178 263.831 363.178 262.499C363.178 261.166 362.098 260.086 360.766 260.086C359.434 260.086 358.354 261.166 358.354 262.499C358.354 263.831 359.434 264.911 360.766 264.911Z" fill="#FAFAFA"/>
<path d="M269.407 223.604C269.742 223.279 270.165 223.06 270.624 222.974C271.084 222.887 271.558 222.939 271.988 223.121C272.418 223.302 272.785 223.607 273.043 223.996C273.301 224.386 273.439 224.842 273.439 225.31C273.439 225.777 273.301 226.233 273.043 226.623C272.785 227.012 272.418 227.317 271.988 227.498C271.558 227.68 271.084 227.732 270.624 227.646C270.165 227.56 269.742 227.34 269.407 227.015C269.179 226.793 268.997 226.528 268.873 226.235C268.749 225.942 268.686 225.628 268.686 225.31C268.686 224.991 268.749 224.677 268.873 224.384C268.997 224.091 269.179 223.826 269.407 223.604Z" fill="#FAFAFA"/>
<path d="M214.172 360.56C214.507 360.235 214.931 360.016 215.39 359.93C215.849 359.844 216.323 359.895 216.754 360.077C217.184 360.259 217.551 360.563 217.809 360.953C218.067 361.342 218.205 361.799 218.205 362.266C218.205 362.733 218.067 363.189 217.809 363.579C217.551 363.968 217.184 364.273 216.754 364.455C216.323 364.636 215.849 364.688 215.39 364.602C214.931 364.516 214.507 364.296 214.172 363.971C213.944 363.749 213.763 363.484 213.639 363.191C213.515 362.898 213.451 362.584 213.451 362.266C213.451 361.948 213.515 361.633 213.639 361.34C213.763 361.047 213.944 360.782 214.172 360.56Z" fill="#FAFAFA"/>
<path d="M251.142 306.551C251.026 306.807 250.882 307.05 250.714 307.275L249.383 309.296L244.416 316.521L244.225 316.806L244.023 316.533L236.751 306.729H237.238L233.376 311.898C232.188 313.502 230.999 315.059 229.882 316.568L229.633 316.913L229.395 316.556L222.752 306.693H223.132L216.905 313.823L215.147 315.76C214.956 316 214.736 316.215 214.493 316.402C214.643 316.137 214.822 315.89 215.028 315.665L216.68 313.633L222.752 306.408L222.954 306.158L223.144 306.432L229.87 316.236H229.371L232.865 311.565L236.727 306.396L236.977 306.075L237.214 306.408L244.344 316.271H243.952L249.086 309.141L250.524 307.204C250.928 306.753 251.118 306.527 251.142 306.551Z" fill="#FAFAFA"/>
<path d="M275.063 347.037C275.015 347.32 274.931 347.595 274.814 347.857C274.6 348.451 274.315 349.2 273.97 350.115C273.186 352.159 272.104 354.94 270.809 358.291L270.69 358.612L270.417 358.386L261.089 350.519L261.564 350.412C260.744 352.313 259.876 354.286 258.997 356.354L256.62 361.689L256.454 362.081L256.133 361.796L247.411 353.716L247.815 353.644L243.37 361.963L242.146 364.232C242.012 364.51 241.849 364.773 241.659 365.017C241.743 364.718 241.862 364.431 242.016 364.161L243.204 361.784C244.262 359.693 245.711 356.817 247.446 353.359L247.589 353.074L247.839 353.3L256.632 361.297L256.145 361.404L258.522 356.057C259.401 354.025 260.269 352.04 261.1 350.115L261.255 349.747L261.576 350.008L270.821 357.97L270.441 358.065C271.819 354.738 272.96 351.981 273.804 349.972C274.196 349.069 274.505 348.332 274.766 347.75C274.844 347.504 274.944 347.266 275.063 347.037Z" fill="#FAFAFA"/>
<path d="M294.92 241.727C295.18 241.843 295.427 241.987 295.657 242.154L297.665 243.497L304.867 248.476L305.152 248.678L304.879 248.88L295.039 256.117V255.63L300.197 259.504L304.843 263.069L305.188 263.319L304.831 263.556L294.944 270.163V269.759L302.003 276.01L303.928 277.781C304.168 277.975 304.387 278.194 304.582 278.434C304.31 278.285 304.058 278.101 303.833 277.888L301.813 276.236L294.611 270.14L294.362 269.926L294.635 269.736L304.463 263.057V263.556L299.804 260.051L294.659 256.165L294.326 255.915L294.659 255.678L304.558 248.548V248.94L297.428 243.782L295.621 242.309C295.372 242.135 295.137 241.94 294.92 241.727Z" fill="#FAFAFA"/>
<path d="M324.474 296.83C324.53 296.551 324.617 296.28 324.735 296.022L325.626 293.764C326.458 291.756 327.587 289.011 328.954 285.659L329.084 285.339L329.346 285.576L338.508 293.633L338.033 293.74C338.9 291.851 339.803 289.89 340.718 287.87C341.562 286.063 342.37 284.305 343.166 282.57L343.344 282.19L343.653 282.487L352.209 290.746L351.805 290.805L356.416 282.57C356.951 281.643 357.379 280.894 357.723 280.312C357.862 280.035 358.033 279.775 358.234 279.54C358.139 279.834 358.011 280.117 357.854 280.383L356.666 282.76L352.257 291.078L352.102 291.375L351.853 291.138L343.226 282.962L343.713 282.867L341.336 288.167C340.409 290.175 339.506 292.136 338.627 294.025L338.46 294.394L338.151 294.12L329.072 285.98L329.453 285.885L325.888 293.918L324.89 296.105C324.775 296.36 324.636 296.602 324.474 296.83Z" fill="#FAFAFA"/>
<path d="M136.135 262.225C136.194 261.946 136.286 261.675 136.408 261.417L137.287 259.171L140.627 251.055L140.746 250.746L141.007 250.972L150.169 259.04L149.694 259.135L152.391 253.277L154.827 247.977L155.006 247.585L155.315 247.882L163.871 256.141L163.467 256.2L168.077 247.965C168.612 247.05 169.052 246.301 169.384 245.707C169.527 245.432 169.698 245.173 169.895 244.935C169.803 245.23 169.675 245.513 169.515 245.779L168.327 248.155L163.918 256.474L163.764 256.759L163.514 256.533L154.899 248.345L155.374 248.25C154.59 249.961 153.782 251.744 152.997 253.55L150.3 259.409L150.122 259.789L149.824 259.516L140.734 251.364L141.138 251.233C139.688 254.525 138.476 257.258 137.573 259.254C137.157 260.146 136.824 260.87 136.563 261.453C136.454 261.728 136.31 261.987 136.135 262.225Z" fill="#FAFAFA"/>
<path d="M221.623 247.989C221.845 247.814 222.079 247.655 222.324 247.514L224.392 246.266L231.973 241.869L232.271 241.691L232.342 242.035C233.019 245.481 233.827 249.569 234.719 254.014L234.291 253.8L239.983 250.781L245.152 248.072L245.532 247.87V248.286C246.174 252.612 246.721 256.604 247.291 260.051L246.935 259.86C250.5 258.327 253.447 257.068 255.598 256.129L257.974 255.131C258.253 255.002 258.543 254.903 258.842 254.834C258.59 255.01 258.319 255.157 258.034 255.273L255.657 256.39L247.077 260.324L246.78 260.455V260.134C246.234 256.676 245.592 252.695 244.914 248.381L245.366 248.607L240.209 251.328L234.493 254.335L234.136 254.525L234.053 254.121C233.221 249.676 232.461 245.588 231.807 242.13L232.175 242.297L224.534 246.48L222.395 247.609C222.156 247.769 221.896 247.897 221.623 247.989Z" fill="#FAFAFA"/>
<path d="M250.917 219.719C251.166 209.023 251.618 197.58 251.618 197.58C251.618 197.58 267.874 195.524 268.575 178.947C269.11 166.315 269.324 146.469 269.407 137.711C269.413 136.438 269.01 135.196 268.257 134.169C267.504 133.142 266.441 132.384 265.224 132.007L238.178 123.689L215.421 140.492L214.886 219.148C214.815 229.154 221.351 235.321 231.345 235.321C241.137 235.345 250.703 229.51 250.917 219.719Z" fill="#FFAD9D"/>
<path d="M251.652 197.58C243.95 197.375 236.474 194.926 230.144 190.533C230.144 190.533 235.194 202.618 251.379 201.644L251.652 197.58Z" fill="#E88B79"/>
<path d="M250.156 178.257C250.301 177.944 250.36 177.597 250.328 177.253C250.295 176.909 250.171 176.579 249.969 176.299C249.767 176.018 249.494 175.796 249.178 175.656C248.862 175.516 248.515 175.462 248.171 175.5C248.085 174.743 247.719 174.046 247.146 173.544C246.572 173.043 245.831 172.774 245.069 172.791C244.308 172.85 243.588 173.158 243.019 173.667C242.45 174.176 242.064 174.858 241.92 175.607C241.812 176.365 241.922 177.137 242.238 177.834C242.554 178.531 243.062 179.123 243.703 179.541C244.352 179.941 245.089 180.18 245.85 180.236C246.611 180.291 247.375 180.163 248.076 179.862C248.636 179.655 249.133 179.306 249.518 178.85C249.903 178.394 250.164 177.846 250.274 177.259" fill="#E88B79"/>
<path d="M263.216 153.457C263.225 154.05 263.001 154.623 262.592 155.052C262.183 155.481 261.622 155.732 261.029 155.75C260.738 155.778 260.444 155.747 260.165 155.658C259.886 155.569 259.628 155.425 259.406 155.234C259.184 155.043 259.003 154.81 258.873 154.547C258.744 154.285 258.669 153.999 258.652 153.707C258.646 153.111 258.872 152.537 259.283 152.107C259.693 151.676 260.256 151.423 260.851 151.401C261.142 151.375 261.436 151.408 261.714 151.498C261.993 151.589 262.25 151.734 262.471 151.926C262.691 152.118 262.871 152.352 262.999 152.616C263.127 152.879 263.201 153.165 263.216 153.457Z" fill="#263238"/>
<path d="M265.984 151.556C265.699 151.853 263.976 150.569 261.528 150.581C259.08 150.593 257.286 151.769 257.024 151.508C256.763 151.247 257.179 150.843 257.963 150.32C259.01 149.593 260.254 149.204 261.528 149.203C262.814 149.203 264.065 149.62 265.093 150.391C265.913 150.878 266.127 151.413 265.984 151.556Z" fill="#263238"/>
<path d="M250.797 170.176C252.088 169.768 253.426 169.524 254.778 169.452C255.408 169.392 255.966 169.261 256.097 168.834C256.157 168.187 256.011 167.539 255.681 166.98L253.839 162.227C251.261 155.441 249.407 149.868 249.68 149.761C249.953 149.654 252.259 155.073 254.826 161.858L256.596 166.611C256.994 167.367 257.108 168.239 256.917 169.071C256.828 169.292 256.689 169.489 256.512 169.647C256.335 169.806 256.124 169.922 255.895 169.986C255.55 170.08 255.195 170.128 254.837 170.129C253.497 170.306 252.141 170.322 250.797 170.176Z" fill="#263238"/>
<path d="M243.596 171.864C243.988 171.864 244 174.502 246.27 176.392C248.54 178.281 251.38 177.984 251.392 178.352C251.392 178.519 250.762 178.875 249.574 178.899C248.017 178.926 246.501 178.4 245.296 177.414C244.133 176.471 243.386 175.11 243.216 173.623C243.109 172.506 243.406 171.852 243.596 171.864Z" fill="#263238"/>
<path d="M243.156 150.332C242.895 150.973 240.839 150.498 238.403 150.652C235.967 150.807 233.887 151.437 233.65 150.819C233.519 150.522 233.911 149.928 234.767 149.345C235.847 148.632 237.098 148.221 238.391 148.157C239.666 148.079 240.938 148.359 242.063 148.965C242.859 149.464 243.263 150.023 243.156 150.332Z" fill="#263238"/>
<path d="M266.53 145.554C266.007 146.113 263.951 145.554 261.492 145.554C259.032 145.554 256.952 145.923 256.477 145.341C256.263 145.055 256.584 144.509 257.499 143.974C258.758 143.319 260.168 143.007 261.587 143.071C263.001 143.076 264.389 143.462 265.603 144.188C266.471 144.711 266.756 145.281 266.53 145.554Z" fill="#263238"/>
<path d="M242.455 155.097C242.36 155.097 242.075 154.657 241.373 154.17C240.461 153.545 239.362 153.251 238.26 153.338C237.144 153.456 236.073 153.839 235.135 154.455C234.386 154.919 233.946 155.275 233.946 155.204C233.946 155.132 234.208 154.681 234.933 154.099C235.877 153.313 237.037 152.833 238.26 152.72C238.879 152.666 239.502 152.737 240.094 152.926C240.686 153.116 241.234 153.422 241.706 153.825C242.36 154.479 242.514 155.073 242.455 155.097Z" fill="#263238"/>
<path d="M234.077 160.706C233.994 160.848 233.637 160.789 233.293 160.575C232.948 160.361 232.734 160.076 232.829 159.933C232.924 159.791 233.269 159.838 233.614 160.052C233.958 160.266 234.172 160.563 234.077 160.706Z" fill="#E88B79"/>
<path d="M238.32 161.003C238.142 161.003 238.058 160.658 238.106 160.29C238.153 159.921 238.344 159.624 238.51 159.648C238.676 159.672 238.771 159.993 238.724 160.373C238.676 160.753 238.486 161.027 238.32 161.003Z" fill="#E88B79"/>
<path d="M236.002 168.05C235.848 167.978 235.836 167.681 236.002 167.396C236.169 167.111 236.371 166.921 236.525 166.992C236.68 167.063 236.691 167.349 236.525 167.646C236.359 167.943 236.204 168.121 236.002 168.05Z" fill="#E88B79"/>
<path d="M263.215 160.325C263.12 160.468 262.846 160.456 262.609 160.325C262.371 160.195 262.252 159.921 262.347 159.779C262.442 159.636 262.716 159.648 262.953 159.779C263.191 159.91 263.31 160.183 263.215 160.325Z" fill="#E88B79"/>
<path d="M265.913 159.933C265.77 159.85 265.794 159.517 265.984 159.196C266.174 158.875 266.436 158.685 266.59 158.769C266.745 158.852 266.709 159.184 266.519 159.505C266.329 159.826 266.056 160.016 265.913 159.933Z" fill="#E88B79"/>
<path d="M264.095 166.992C263.928 166.992 263.857 166.552 263.94 166.065C264.023 165.578 264.213 165.221 264.392 165.257C264.57 165.293 264.629 165.697 264.546 166.172C264.463 166.647 264.261 167.016 264.095 166.992Z" fill="#E88B79"/>
<path d="M263.215 193.005C263.215 193.005 263.726 193.207 264.653 193.468C265.953 193.838 267.313 193.955 268.657 193.813C270.647 193.579 272.536 192.811 274.124 191.59C276.049 190.106 277.411 188.011 277.986 185.649C278.529 183.277 278.363 180.798 277.511 178.519C276.813 176.641 275.541 175.031 273.874 173.92C272.741 173.184 271.458 172.71 270.119 172.529C269.168 172.411 268.634 172.529 268.622 172.411C268.748 172.363 268.88 172.335 269.014 172.327C269.389 172.293 269.767 172.293 270.143 172.327C271.548 172.42 272.91 172.852 274.112 173.587C275.902 174.702 277.279 176.371 278.033 178.34C278.986 180.736 279.177 183.367 278.58 185.874C277.994 188.396 276.538 190.63 274.468 192.185C272.791 193.445 270.795 194.211 268.705 194.395C267.306 194.502 265.901 194.312 264.581 193.836C264.076 193.651 263.612 193.368 263.215 193.005Z" fill="#D4145A"/>
<g opacity="0.2">
<path d="M240.483 303.354C240.815 303.508 240.031 306.158 237.167 309.485C235.455 311.422 233.45 313.078 231.225 314.393C225.738 317.72 219.186 318.822 212.913 317.471C210.41 316.939 208.004 316.021 205.783 314.75C201.992 312.551 200.388 310.305 200.649 309.996C200.911 309.687 203.026 311.185 206.757 312.741C211.52 314.811 216.781 315.454 221.902 314.593C227.024 313.733 231.785 311.405 235.61 307.893C238.581 305.279 240.067 303.104 240.483 303.354Z" fill="black"/>
</g>
<g opacity="0.2">
<path d="M180.935 274.346C180.935 274.346 201.671 322.747 200.566 329.081C199.461 335.415 184.939 356.033 184.939 356.033L195.515 331.755C189.685 312.878 184.819 293.717 180.935 274.346Z" fill="black"/>
</g>
<path d="M339.448 284.281C337.095 280.11 335.532 275.542 334.837 270.805C335.015 270.805 335.823 273.847 337.095 277.555C338.366 281.262 339.59 284.197 339.448 284.281Z" fill="#263238"/>
<path d="M341.966 280.942C340.38 279.393 339.01 277.638 337.89 275.725C336.599 273.923 335.563 271.952 334.812 269.866C334.967 269.783 336.429 272.35 338.378 275.392C340.326 278.434 342.145 280.823 341.966 280.942Z" fill="#263238"/>
<path d="M266.27 324.459C265.8 324.895 265.296 325.293 264.761 325.647L260.542 328.475L246.603 337.982L232.7 347.631L228.481 350.543C227.981 350.923 227.448 351.257 226.889 351.541C227.337 351.104 227.822 350.706 228.338 350.353C229.301 349.604 230.715 348.558 232.45 347.275C235.944 344.708 240.768 341.238 246.247 337.471C251.725 333.704 256.668 330.341 260.305 328.048C262.123 326.859 263.596 325.932 264.63 325.291C265.155 324.972 265.703 324.694 266.27 324.459Z" fill="#263238"/>
<path d="M120.188 265.315C120.621 263.03 121.344 260.81 122.338 258.708C123.152 256.529 124.242 254.464 125.583 252.564C125.737 252.647 124.394 255.44 122.909 258.946C122.115 261.115 121.207 263.242 120.188 265.315Z" fill="#263238"/>
<path d="M124.108 270.603C123.994 269.708 123.994 268.801 124.108 267.906C124.108 266.242 124.31 263.937 124.619 261.417C124.928 258.898 125.308 256.664 125.653 254.988C125.78 254.092 126.016 253.214 126.354 252.374C126.353 253.276 126.262 254.176 126.08 255.06C125.855 256.7 125.534 258.969 125.225 261.489C124.916 264.008 124.702 266.242 124.536 267.929C124.491 268.834 124.347 269.73 124.108 270.603Z" fill="#263238"/>
<path d="M238.035 113.945C240.416 118.266 241.325 123.246 240.624 128.13C239.923 133.015 237.65 137.538 234.149 141.015C230.584 144.437 225.688 146.767 223.454 151.199C221.077 155.857 222.349 161.49 224.048 166.422C225.748 171.353 227.898 176.439 227.174 181.609C226.282 188.038 221.137 193.219 220.044 199.612C217.952 211.84 231.107 222.63 229.55 234.941C228.885 240.336 225.474 244.923 222.515 249.486C219.556 254.05 216.871 259.362 217.893 264.709C218.38 267.24 220.531 269.462 220.269 272.065C219.307 282.475 204.583 283.865 202.444 282.047C205.13 276.925 201.957 268.975 201.636 268.571C201.165 270.839 199.995 272.902 198.289 274.469C196.583 276.036 194.429 277.028 192.13 277.305C192.705 273.324 192.385 269.264 191.191 265.422C190.306 266.887 189.114 268.142 187.696 269.101C186.278 270.059 184.669 270.697 182.979 270.972C185.764 256.494 184.017 241.509 177.976 228.061C175.849 223.379 173.14 218.554 173.829 213.42C174.732 206.813 180.959 202.321 183.859 196.332C187.15 189.594 186.045 181.656 185.142 174.205C184.239 166.754 183.787 158.579 188.065 152.423C190.68 148.668 194.815 146.065 196.919 142.001C198.879 138.234 198.796 133.754 199.984 129.678C202.147 122.287 207.566 113.945 214.839 111.425C222.111 108.906 233.424 106.47 237.999 113.945" fill="#263238"/>
<path d="M186.021 255.452C184.238 260.585 182.456 265.909 182.812 271.328C183.169 276.747 186.377 282.368 191.618 283.877C193.603 284.447 195.932 284.483 197.334 286.004C197.871 286.674 198.224 287.472 198.359 288.32C198.495 289.168 198.408 290.036 198.106 290.84C197.484 292.44 196.583 293.917 195.445 295.202C198.715 293.658 201.477 291.213 203.406 288.155C203.863 290.241 203.802 292.407 203.228 294.464C202.655 296.521 201.586 298.407 200.115 299.955C204.119 300.109 207.613 297.352 210.453 294.512C216.918 288.024 222.337 279.456 221.54 270.342C220.744 261.227 213.899 253.36 213.923 244.198C213.923 240.633 214.981 237.27 215.111 233.764C215.242 230.259 214.339 226.373 211.416 224.436" fill="#263238"/>
<path d="M236.383 114.574C238.134 112.528 240.365 110.948 242.877 109.976C245.388 109.003 248.101 108.668 250.774 109.001C256.152 109.747 261.067 112.445 264.582 116.583C268.06 120.713 270.529 125.594 271.796 130.843C272.286 132.376 272.476 133.99 272.354 135.596C272.292 136.393 272.044 137.165 271.632 137.85C271.219 138.534 270.653 139.114 269.977 139.541C269.231 139.895 268.412 140.068 267.587 140.048C266.761 140.027 265.952 139.813 265.224 139.423C263.778 138.637 262.467 137.626 261.338 136.428C260.973 138.01 260.097 139.429 258.845 140.464C257.594 141.498 256.036 142.092 254.413 142.153C252.79 142.214 251.192 141.738 249.866 140.8C248.541 139.862 247.561 138.513 247.078 136.963C246.2 139.086 244.662 140.871 242.69 142.052C240.719 143.233 238.42 143.747 236.133 143.519C233.846 143.291 231.694 142.333 229.995 140.786C228.295 139.239 227.139 137.186 226.698 134.931C225.878 130.795 227.578 126.541 229.954 123.047C232.331 119.554 235.409 116.606 237.857 113.172" fill="#263238"/>
<path d="M175.207 224.745C175.528 224.367 175.826 223.97 176.098 223.557C176.823 222.346 177.255 220.983 177.358 219.576C177.474 217.345 177.339 215.109 176.954 212.909C176.767 211.507 176.719 210.09 176.811 208.679C176.948 207.079 177.426 205.527 178.214 204.127C179.842 201.168 182.705 198.744 185.819 196.451C187.376 195.262 188.992 194.074 190.572 192.731C192.164 191.368 193.493 189.725 194.494 187.883C195.454 185.903 195.938 183.726 195.908 181.525C195.866 179.212 195.603 176.908 195.124 174.645C194.672 172.327 194.125 169.951 193.935 167.515C193.612 165.003 193.777 162.453 194.422 160.004C194.785 158.764 195.356 157.595 196.11 156.546C196.869 155.532 197.769 154.632 198.784 153.873C200.789 152.497 202.898 151.281 205.094 150.236C207.178 149.259 209.067 147.91 210.667 146.255C212.099 144.585 212.968 142.506 213.151 140.314C213.424 138.175 213.353 136.048 213.412 133.968C213.416 131.955 213.713 129.954 214.291 128.026C215.38 124.527 217.416 121.397 220.174 118.983C222.435 116.981 225.166 115.583 228.112 114.919C230.337 114.434 232.646 114.504 234.838 115.121C236.218 115.516 237.493 116.214 238.569 117.165C238.844 117.413 239.098 117.684 239.33 117.973C239.484 118.163 239.567 118.27 239.556 118.282C239.544 118.294 239.223 117.878 238.486 117.26C237.399 116.368 236.135 115.716 234.778 115.347C232.619 114.788 230.356 114.759 228.183 115.264C225.311 115.94 222.657 117.334 220.471 119.316C217.789 121.686 215.818 124.756 214.779 128.181C214.225 130.084 213.945 132.057 213.947 134.039C213.982 136.177 213.906 138.315 213.721 140.444C213.518 142.745 212.605 144.925 211.107 146.683C209.462 148.392 207.522 149.789 205.379 150.807C203.215 151.833 201.133 153.025 199.152 154.372C198.187 155.093 197.331 155.95 196.609 156.915C195.898 157.907 195.36 159.012 195.017 160.183C194.395 162.554 194.237 165.024 194.553 167.455C194.779 169.832 195.326 172.209 195.742 174.585C196.224 176.884 196.487 179.224 196.526 181.573C196.548 183.866 196.036 186.132 195.029 188.192C193.991 190.09 192.613 191.782 190.964 193.183C189.408 194.585 187.768 195.761 186.211 196.914C183.086 199.172 180.269 201.537 178.677 204.389C177.906 205.73 177.432 207.222 177.287 208.762C177.18 210.148 177.211 211.541 177.382 212.921C177.745 215.148 177.845 217.409 177.679 219.659C177.547 221.091 177.07 222.469 176.288 223.676C175.992 224.091 175.626 224.453 175.207 224.745Z" fill="#455A64"/>
<path d="M203.644 252.017C203.447 251.565 203.292 251.096 203.18 250.615C202.925 249.21 202.978 247.767 203.335 246.385C203.921 244.228 204.68 242.122 205.605 240.087C206.543 237.71 207.72 234.834 207.256 231.614C206.963 229.949 206.337 228.36 205.414 226.943C204.406 225.384 203.32 223.877 202.158 222.428C200.899 220.858 199.819 219.152 198.938 217.342C197.54 214.253 196.918 210.87 197.125 207.486C197.332 204.102 198.362 200.819 200.126 197.924C202.658 193.801 206.686 190.794 210.203 187.312C211.968 185.62 213.48 183.683 214.695 181.561C215.26 180.519 215.698 179.414 216.003 178.269C216.274 177.137 216.406 175.976 216.395 174.811C216.276 170.141 214.41 165.851 213.792 161.514C213.406 159.447 213.487 157.321 214.027 155.29C214.568 153.259 215.555 151.374 216.918 149.773C219.288 147.04 222.019 144.642 225.034 142.643C227.485 141.012 229.802 139.188 231.962 137.188C233.591 135.682 234.964 133.92 236.026 131.972C236.893 130.29 237.391 128.442 237.488 126.553C237.527 127.043 237.527 127.536 237.488 128.026C237.337 129.437 236.934 130.81 236.299 132.078C235.261 134.078 233.895 135.889 232.259 137.438C230.113 139.481 227.799 141.342 225.343 142.999C222.388 144.98 219.711 147.346 217.381 150.034C216.072 151.583 215.127 153.405 214.613 155.366C214.099 157.328 214.029 159.379 214.41 161.371C215.028 165.613 216.918 169.891 217.06 174.74C217.068 175.94 216.932 177.137 216.656 178.305C216.337 179.499 215.878 180.652 215.29 181.739C214.047 183.928 212.498 185.929 210.691 187.681C207.126 191.246 203.133 194.181 200.685 198.174C198.971 200.987 197.968 204.175 197.761 207.463C197.554 210.75 198.149 214.039 199.497 217.045C200.354 218.823 201.407 220.501 202.634 222.048C203.822 223.592 204.939 225.066 205.878 226.623C206.822 228.097 207.461 229.745 207.756 231.471C208.207 234.858 206.947 237.769 205.985 240.146C205.035 242.158 204.241 244.24 203.608 246.373C203.236 247.723 203.151 249.135 203.359 250.52C203.501 251.53 203.68 252.006 203.644 252.017Z" fill="#455A64"/>
<path d="M265.913 134.503C265.806 134.503 265.568 132.542 264.986 129.417C264.639 127.599 264.114 125.82 263.417 124.105C262.572 122.02 261.268 120.151 259.603 118.639C257.904 117.173 255.806 116.25 253.578 115.989C251.744 115.748 249.886 115.748 248.052 115.989C244.903 116.393 242.978 116.856 242.954 116.749C243.381 116.561 243.827 116.421 244.285 116.333C245.506 116.007 246.743 115.749 247.993 115.561C249.86 115.238 251.764 115.174 253.649 115.371C255.988 115.632 258.193 116.598 259.971 118.139C261.71 119.714 263.061 121.671 263.916 123.855C264.602 125.614 265.092 127.444 265.378 129.31C265.639 130.89 265.758 132.186 265.83 133.077C265.91 133.548 265.937 134.026 265.913 134.503Z" fill="#455A64"/>
<path d="M250.275 137.985C250.291 136.725 250.378 135.467 250.537 134.218C250.861 131.228 250.615 128.203 249.812 125.305C249.339 123.737 248.56 122.279 247.518 121.015C246.655 119.997 245.602 119.157 244.417 118.543C243.286 118.025 242.084 117.676 240.852 117.51C241.183 117.412 241.533 117.392 241.874 117.45C242.815 117.519 243.737 117.756 244.595 118.151C245.871 118.739 247.009 119.59 247.934 120.647C249.055 121.95 249.892 123.471 250.394 125.115C251.226 128.087 251.421 131.201 250.964 134.253C250.822 135.442 250.655 136.357 250.525 136.998C250.501 137.339 250.416 137.673 250.275 137.985Z" fill="#455A64"/>
<path d="M388.644 91.6393V47.4807H79.5693V434.415H388.644V302.153L367.028 316.413V366.633H102.302V91.1759H367.028V114.04C373.445 109.821 382.845 99.6368 388.644 91.6393Z" fill="#F5F5F5"/>
<path d="M110.526 69.1324C111.116 68.8715 111.616 68.443 111.965 67.9C112.314 67.357 112.495 66.7236 112.486 66.0784C112.513 65.6557 112.452 65.2322 112.308 64.8338C112.165 64.4355 111.941 64.0708 111.651 63.7623C111.361 63.4537 111.011 63.2078 110.622 63.0397C110.233 62.8716 109.814 62.7849 109.391 62.7849C108.967 62.7849 108.548 62.8716 108.16 63.0397C107.771 63.2078 107.421 63.4537 107.131 63.7623C106.841 64.0708 106.617 64.4355 106.473 64.8338C106.33 65.2322 106.269 65.6557 106.295 66.0784C106.285 66.7286 106.466 67.3675 106.817 67.915C107.168 68.4625 107.673 68.8942 108.268 69.1562C107.297 69.2713 106.381 69.6712 105.637 70.3056C104.893 70.94 104.353 71.7805 104.085 72.7212C105.203 73.9717 106.726 74.7881 108.387 75.0265H110.3C111.991 74.7903 113.537 73.9452 114.649 72.6499C114.388 71.7211 113.856 70.891 113.122 70.2648C112.388 69.6386 111.484 69.2445 110.526 69.1324Z" fill="#455A64"/>
<path d="M109.373 75.1334C109.373 75.1334 110.003 75.1334 111.061 74.8126C112.56 74.3861 113.876 73.4752 114.804 72.222C115.482 71.3078 115.921 70.2393 116.083 69.1128C116.245 67.9864 116.124 66.8373 115.731 65.7693C115.246 64.4677 114.375 63.3453 113.235 62.5528C112.094 61.7604 110.738 61.3356 109.349 61.3356C107.96 61.3356 106.605 61.7604 105.464 62.5528C104.324 63.3453 103.453 64.4677 102.968 65.7693C102.581 66.8397 102.466 67.9893 102.632 69.1152C102.798 70.2412 103.24 71.3085 103.919 72.222C104.849 73.4725 106.171 74.3759 107.674 74.7888C108.743 75.074 109.373 75.0502 109.373 75.1096C109.373 75.1691 109.219 75.1096 108.922 75.1096C108.485 75.1148 108.049 75.0628 107.626 74.9552C106.037 74.6045 104.62 73.7091 103.622 72.424C102.924 71.546 102.444 70.516 102.219 69.4175C101.973 68.1393 102.072 66.8186 102.505 65.5911C102.984 64.2275 103.861 63.0393 105.024 62.1805C106.272 61.2517 107.787 60.75 109.343 60.75C110.9 60.75 112.414 61.2517 113.663 62.1805C114.829 63.0356 115.708 64.225 116.182 65.5911C116.624 66.8166 116.727 68.1385 116.479 69.4175C116.273 70.5284 115.8 71.5724 115.101 72.4596C114.1 73.7417 112.691 74.6432 111.108 75.0146C110.683 75.1103 110.249 75.162 109.813 75.1691C109.528 75.1572 109.373 75.1572 109.373 75.1334Z" fill="#455A64"/>
<path d="M366.921 60.8853C366.923 61.1908 366.835 61.4902 366.667 61.7455C366.499 62.0009 366.259 62.2007 365.978 62.3198C365.697 62.4389 365.386 62.4719 365.086 62.4146C364.786 62.3573 364.51 62.2122 364.292 61.9979C364.074 61.7835 363.925 61.5094 363.863 61.2102C363.801 60.911 363.829 60.6001 363.944 60.317C364.059 60.0338 364.255 59.791 364.508 59.6193C364.76 59.4476 365.058 59.3547 365.364 59.3523C365.567 59.3508 365.768 59.3892 365.956 59.4654C366.144 59.5416 366.315 59.654 366.46 59.7964C366.604 59.9387 366.719 60.1082 366.799 60.295C366.878 60.4818 366.919 60.6824 366.921 60.8853Z" fill="#455A64"/>
<path d="M366.921 66.423C366.925 66.729 366.839 67.0295 366.673 67.2864C366.506 67.5433 366.267 67.7449 365.986 67.8658C365.705 67.9868 365.394 68.0215 365.093 67.9655C364.793 67.9096 364.515 67.7655 364.296 67.5516C364.077 67.3378 363.927 67.0637 363.864 66.7642C363.801 66.4647 363.829 66.1532 363.943 65.8694C364.057 65.5855 364.253 65.342 364.506 65.1698C364.759 64.9975 365.058 64.9043 365.364 64.9019C365.772 64.8987 366.164 65.0568 366.456 65.3418C366.747 65.6267 366.914 66.0153 366.921 66.423Z" fill="#455A64"/>
<path d="M367.029 71.9725C367.034 72.2785 366.947 72.579 366.781 72.8359C366.615 73.0928 366.376 73.2945 366.095 73.4154C365.813 73.5363 365.503 73.571 365.202 73.5151C364.901 73.4591 364.624 73.3151 364.405 73.1012C364.186 72.8873 364.035 72.6132 363.972 72.3137C363.91 72.0142 363.937 71.7028 364.051 71.4189C364.166 71.1351 364.362 70.8916 364.615 70.7193C364.868 70.5471 365.166 70.4539 365.472 70.4515C365.88 70.4483 366.272 70.6064 366.564 70.8913C366.856 71.1762 367.023 71.5649 367.029 71.9725Z" fill="#455A64"/>
<path d="M260.566 68.2291C260.566 68.4074 230.097 68.5381 192.533 68.5381C154.97 68.5381 124.501 68.4074 124.501 68.2291C124.501 68.0509 154.958 67.9202 192.545 67.9202C230.132 67.9202 260.566 68.0628 260.566 68.2291Z" fill="#263238"/>
<path d="M150.347 400.619L147.209 399.229C145.55 400.105 143.649 400.412 141.798 400.104C139.947 399.797 138.247 398.891 136.96 397.525C135.674 396.159 134.87 394.409 134.673 392.543C134.475 390.677 134.895 388.797 135.868 387.193C136.841 385.588 138.313 384.347 140.059 383.658C141.805 382.97 143.728 382.874 145.534 383.383C147.34 383.893 148.93 384.98 150.059 386.479C151.187 387.978 151.794 389.806 151.785 391.683C151.801 393.816 151.031 395.881 149.622 397.482L150.347 400.619ZM143.015 383.662C141.744 383.614 140.48 383.866 139.325 384.397C138.169 384.928 137.155 385.724 136.365 386.72C135.574 387.715 135.028 388.883 134.772 390.129C134.516 391.374 134.557 392.663 134.891 393.89C135.225 395.116 135.843 396.247 136.695 397.191C137.548 398.135 138.61 398.865 139.796 399.322C140.983 399.78 142.26 399.951 143.525 399.824C144.79 399.696 146.008 399.272 147.079 398.587L147.209 398.516L149.515 399.538L148.992 397.268L149.099 397.161C150.156 395.995 150.85 394.546 151.098 392.992C151.345 391.438 151.135 389.845 150.492 388.409C149.849 386.972 148.802 385.754 147.479 384.902C146.155 384.051 144.612 383.603 143.038 383.614L143.015 383.662Z" fill="#263238"/>
<path d="M170.478 399.253L166.913 390.507L160.151 384.327L176.479 384.185L170.478 399.253ZM161.661 384.993L167.4 390.269L170.466 397.732L175.576 384.898L161.661 384.993Z" fill="#263238"/>
<path d="M175.857 384.287L166.967 390.082L167.291 390.58L176.181 384.784L175.857 384.287Z" fill="#263238"/>
<path d="M366.268 399.526L359.447 392.835L353.101 399.312L352.923 379.954L366.09 379.835L366.268 399.526ZM359.447 391.992L359.661 392.206L365.602 398.147L365.448 380.477L353.481 380.584L353.636 397.91L359.447 391.992Z" fill="#263238"/>
<path d="M124.655 386.24C124.419 385.068 123.776 384.017 122.838 383.275C121.9 382.533 120.73 382.148 119.535 382.188C118.34 382.228 117.198 382.69 116.312 383.493C115.426 384.296 114.854 385.388 114.697 386.573C114.516 385.394 113.923 384.316 113.024 383.532C112.124 382.747 110.976 382.307 109.783 382.288C108.59 382.27 107.428 382.674 106.505 383.43C105.582 384.187 104.956 385.245 104.738 386.419C104.487 388.147 104.913 389.905 105.927 391.327C106.946 392.725 108.145 393.984 109.492 395.07L114.804 399.823C116.598 398.183 118.119 396.65 119.914 395.01C121.259 393.9 122.457 392.622 123.479 391.208C124.493 389.764 124.914 387.986 124.655 386.24Z" fill="#D4145A"/>
<path d="M79.57 193.646C80.8891 194.585 81.4476 195.156 82.7429 196.13C83.3459 196.667 84.0852 197.028 84.8796 197.172C85.6741 197.317 86.4931 197.24 87.2467 196.95C88.7677 196.166 89.2668 194.181 89.0411 192.47C88.8153 190.759 88.0429 189.19 87.6982 187.515C88.2121 187.711 88.776 187.733 89.3038 187.579C89.8317 187.424 90.2945 187.101 90.6215 186.659C90.9293 186.2 91.1416 185.683 91.2457 185.14C91.3498 184.597 91.3437 184.039 91.2276 183.498C91.013 182.428 90.6531 181.393 90.1581 180.42C90.5502 181.038 91.6198 180.812 91.9763 180.171C92.2503 179.476 92.2503 178.703 91.9763 178.008C91.6374 176.2 90.7494 174.54 89.4332 173.254C88.7634 172.627 87.9097 172.232 86.9982 172.127C86.0867 172.023 85.1656 172.214 84.3709 172.672C83.1826 173.504 80.996 174.728 80.6395 176.154C79.3918 181.169 79.8196 188.56 79.4512 193.718" fill="#E0E0E0"/>
<path d="M363.356 180.848C364.014 181.123 364.54 181.641 364.826 182.293C365.111 182.946 365.134 183.684 364.889 184.354C363.903 187.027 362.311 191.21 361.122 193.753C360.783 194.592 360.287 195.358 359.661 196.011C359.351 196.368 358.938 196.619 358.478 196.73C358.019 196.841 357.536 196.805 357.098 196.629C356.66 196.452 356.288 196.143 356.033 195.745C355.779 195.347 355.655 194.879 355.68 194.407C355.669 193.45 355.851 192.5 356.214 191.614C357.058 189.119 358.496 185.387 359.779 182.357C360.059 181.69 360.588 181.158 361.254 180.876C361.921 180.594 362.671 180.584 363.345 180.848H363.356Z" fill="#FFAD9D"/>
<path d="M367.278 185.768C367.954 186.038 368.496 186.564 368.785 187.232C369.075 187.9 369.088 188.655 368.823 189.333C367.837 192.006 366.244 196.189 365.056 198.732C364.708 199.569 364.209 200.335 363.583 200.99C363.275 201.35 362.862 201.603 362.403 201.716C361.943 201.828 361.46 201.793 361.021 201.615C360.583 201.438 360.211 201.127 359.958 200.727C359.705 200.327 359.585 199.858 359.613 199.386C359.605 198.43 359.783 197.482 360.136 196.593C360.98 194.11 362.43 190.366 363.701 187.336C363.981 186.669 364.51 186.137 365.176 185.855C365.843 185.573 366.593 185.563 367.266 185.827L367.278 185.768Z" fill="#FFAD9D"/>
<path d="M370.95 188.893C371.522 189.126 371.981 189.573 372.229 190.138C372.478 190.704 372.496 191.344 372.281 191.923C371.425 194.241 370.047 197.865 369.013 200.063C368.719 200.79 368.291 201.455 367.753 202.024C367.486 202.336 367.128 202.556 366.729 202.653C366.331 202.75 365.911 202.72 365.531 202.567C365.15 202.413 364.827 202.144 364.608 201.797C364.388 201.45 364.283 201.043 364.307 200.634C364.303 199.82 364.456 199.013 364.759 198.257C365.495 196.094 366.743 192.862 367.825 190.236C367.942 189.943 368.116 189.677 368.338 189.452C368.559 189.228 368.823 189.049 369.113 188.928C369.404 188.806 369.716 188.743 370.032 188.744C370.347 188.744 370.659 188.807 370.95 188.929V188.893Z" fill="#FFAD9D"/>
<path d="M375.679 189.939C376.257 190.172 376.721 190.622 376.97 191.194C377.218 191.765 377.233 192.411 377.01 192.993C376.155 195.31 374.776 198.935 373.731 201.169C373.436 201.898 373.005 202.563 372.459 203.129C372.184 203.411 371.838 203.614 371.457 203.714C371.076 203.814 370.675 203.81 370.296 203.7C369.917 203.529 369.594 203.254 369.365 202.907C369.135 202.56 369.009 202.155 369.001 201.739C369.001 200.924 369.158 200.117 369.464 199.362C370.189 197.188 371.449 193.944 372.53 191.305C372.646 191.009 372.821 190.739 373.043 190.511C373.266 190.283 373.532 190.102 373.826 189.979C374.119 189.856 374.435 189.793 374.753 189.794C375.072 189.796 375.387 189.861 375.679 189.986V189.939Z" fill="#FFAD9D"/>
<path d="M359.958 196.118C360.376 194.389 360.994 192.714 361.8 191.127C362.41 189.458 363.207 187.863 364.177 186.374C363.766 188.104 363.152 189.779 362.347 191.365C361.735 193.036 360.934 194.631 359.958 196.118Z" fill="#E88B79"/>
<path d="M364.2 200.206C364.682 198.241 365.363 196.329 366.232 194.502C366.907 192.6 367.776 190.773 368.823 189.048C368.343 191.008 367.666 192.915 366.803 194.74C366.128 196.647 365.256 198.479 364.2 200.206Z" fill="#E88B79"/>
<path d="M368.657 200.741C369.174 199.044 369.826 197.391 370.606 195.797C371.19 194.12 371.906 192.491 372.745 190.925C372.031 194.431 370.643 197.765 368.657 200.741Z" fill="#E88B79"/>
<path d="M388.644 91.6395C388.644 91.6395 388.644 90.7007 388.644 88.8231C388.644 86.9455 388.644 84.1529 388.644 80.5047C388.644 73.0895 388.644 62.0499 388.585 47.5403L388.692 47.6472L79.6171 47.8136L79.8904 47.5403C79.8904 139.268 79.8904 245.993 79.8904 359.229V434.475L79.5815 434.178H388.656L388.407 434.427C388.407 349.331 388.49 279.171 388.514 230.271C388.514 205.839 388.514 186.718 388.585 173.694C388.585 167.194 388.585 162.215 388.585 158.852C388.585 155.489 388.585 153.778 388.585 153.778C388.585 153.778 388.585 155.501 388.585 158.852C388.585 162.203 388.585 167.17 388.585 173.694C388.585 186.766 388.585 205.779 388.585 230.271C388.585 279.171 388.656 349.331 388.704 434.427V434.689H388.442H79.3676H79.0586V359.17C79.0586 245.874 79.0586 139.209 79.0586 47.4808V47.2075H79.3319L388.407 47.3739H388.525V47.4808C388.525 61.9904 388.525 73.0301 388.525 80.4453C388.525 84.1529 388.525 86.9257 388.525 88.7637C388.668 90.7007 388.644 91.6395 388.644 91.6395Z" fill="#263238"/>
<path d="M73.2594 182.191C73.4213 181.902 73.6404 181.648 73.9031 181.446C74.1659 181.244 74.467 181.097 74.7881 181.015C75.1093 180.933 75.4438 180.917 75.7713 180.968C76.0989 181.019 76.4127 181.136 76.6937 181.311C78.702 182.583 80.8766 183.926 82.7661 185.15C83.6287 185.601 84.3735 186.248 84.9408 187.039C85.2071 187.438 85.3179 187.921 85.2522 188.396C85.1865 188.871 84.9489 189.306 84.5843 189.618C84.1322 189.837 83.6341 189.945 83.1318 189.933C82.6294 189.92 82.1373 189.788 81.6966 189.547C81.3995 189.428 76.6699 186.576 74.0437 184.983C73.575 184.712 73.2308 184.268 73.0843 183.746C72.9378 183.225 73.0006 182.667 73.2594 182.191Z" fill="#FFAD9D"/>
<path d="M72.6889 175.655C72.8641 175.312 73.1108 175.01 73.4124 174.77C73.714 174.53 74.0634 174.358 74.4372 174.264C74.8111 174.171 75.2006 174.159 75.5795 174.228C75.9585 174.298 76.3181 174.448 76.6342 174.669C78.9277 176.285 81.3876 177.996 83.5741 179.541C84.5678 180.139 85.4161 180.951 86.0577 181.917C86.3612 182.41 86.4833 182.992 86.403 183.565C86.3227 184.138 86.0451 184.665 85.618 185.055C85.0976 185.314 84.5192 185.435 83.9385 185.405C83.3579 185.376 82.7945 185.198 82.3026 184.888C81.9699 184.746 76.5748 181.109 73.5802 179.089C73.0345 178.724 72.6421 178.171 72.4777 177.536C72.3134 176.9 72.3886 176.227 72.6889 175.643V175.655Z" fill="#FFAD9D"/>
<path d="M73.6877 170.117C73.8658 169.776 74.1149 169.478 74.4183 169.242C74.7217 169.006 75.0723 168.837 75.4463 168.748C75.8203 168.659 76.2091 168.652 76.5864 168.726C76.9636 168.8 77.3205 168.954 77.633 169.178C79.9027 170.818 82.3863 172.577 84.5135 174.146C85.4928 174.75 86.3282 175.561 86.9614 176.522C87.2578 177.022 87.3713 177.61 87.2824 178.184C87.1935 178.759 86.9079 179.284 86.4742 179.671C85.9507 179.919 85.3727 180.03 84.7947 179.992C84.2168 179.955 83.6578 179.771 83.1706 179.458C82.8379 179.303 77.4904 175.595 74.5195 173.516C73.981 173.142 73.5986 172.583 73.4453 171.945C73.2919 171.308 73.3782 170.636 73.6877 170.058V170.117Z" fill="#FFAD9D"/>
<path d="M74.2225 163.748C74.4124 163.356 74.6859 163.01 75.0238 162.735C75.3617 162.46 75.7557 162.262 76.1782 162.155C76.6007 162.049 77.0415 162.036 77.4694 162.118C77.8973 162.201 78.302 162.375 78.655 162.631C81.2337 164.496 84.0382 166.481 86.4743 168.275C87.603 168.969 88.5614 169.907 89.2788 171.02C89.6227 171.592 89.7619 172.263 89.6733 172.924C89.5847 173.585 89.2738 174.196 88.7916 174.657C87.7458 175.429 86.2604 175.001 85.0721 174.455C84.6918 174.276 78.6075 170.07 75.2326 167.729C74.6158 167.296 74.1746 166.656 73.9893 165.926C73.804 165.195 73.8867 164.422 74.2225 163.748Z" fill="#FFAD9D"/>
<path d="M85.8914 175.18C84.1793 174.36 82.5615 173.355 81.0668 172.185C79.4574 171.178 77.9596 170.003 76.5986 168.679C78.3108 169.5 79.9286 170.504 81.4233 171.674C83.0384 172.673 84.5371 173.849 85.8914 175.18Z" fill="#E88B79"/>
<path d="M84.3816 180.135C82.7503 179.429 81.207 178.536 79.7827 177.473C78.244 176.573 76.8128 175.5 75.5166 174.276C77.1512 174.987 78.6984 175.884 80.1274 176.95C81.6623 177.846 83.0897 178.914 84.3816 180.135Z" fill="#E88B79"/>
<path d="M84.4898 186.386C82.8598 185.673 81.3167 184.776 79.891 183.712C78.3536 182.82 76.9258 181.751 75.6367 180.527C77.268 181.233 78.8114 182.126 80.2356 183.189C81.772 184.087 83.1995 185.16 84.4898 186.386Z" fill="#E88B79"/>
<path d="M367.028 114.04C367.028 114.04 367.028 113.552 367.028 112.566C367.028 111.58 367.028 110.13 367.028 108.205C367.028 104.355 367.028 98.6982 367.028 91.176L367.123 91.2711L102.397 91.4612L102.683 91.176C102.683 141.276 102.683 196.284 102.683 253.8C102.683 292.777 102.683 330.59 102.683 366.597L102.385 366.3L367.111 366.431L366.945 366.597C366.945 343.472 367.004 325.279 367.028 312.872C367.028 306.669 367.028 301.916 367.028 298.707C367.028 297.103 367.028 295.891 367.028 295.071C367.028 294.251 367.028 293.883 367.028 293.883C367.028 293.883 367.028 294.287 367.028 295.071C367.028 295.855 367.028 297.103 367.028 298.707C367.028 301.916 367.028 306.669 367.028 312.872C367.028 325.279 367.028 343.472 367.1 366.597V366.763H366.933L102.207 366.894H101.91V366.597C101.91 330.59 101.91 292.777 101.91 253.8C101.91 196.284 101.91 141.276 101.91 91.176V90.8789H102.195L366.921 91.069H367.016V91.176C367.016 98.6388 367.016 104.355 367.016 108.205C367.016 110.13 367.016 111.58 367.016 112.566C367.016 113.552 367.028 114.04 367.028 114.04Z" fill="#263238"/>
<path d="M367.029 185.768C366.862 185.768 366.72 179.826 366.72 172.506C366.72 165.186 366.862 159.244 367.029 159.244C367.195 159.244 367.338 165.186 367.338 172.506C367.338 179.826 367.207 185.768 367.029 185.768Z" fill="#263238"/>
<path d="M492.505 499.691C492.505 499.869 382.37 500 246.519 500C110.668 500 0.533203 499.869 0.533203 499.691C0.533203 499.513 110.633 499.382 246.519 499.382C382.406 499.382 492.505 499.524 492.505 499.691Z" fill="#263238"/>
<path d="M332.89 13.2329C334.114 12.7046 335.157 11.8284 335.888 10.713C336.619 9.59757 337.006 8.29207 337.002 6.9585C337.078 6.08104 336.972 5.19732 336.691 4.36255C336.41 3.52778 335.96 2.75991 335.369 2.10692C334.778 1.45392 334.059 0.929837 333.256 0.567413C332.453 0.204989 331.584 0.0120125 330.704 0.00054314C329.823 -0.0109262 328.95 0.159362 328.138 0.500758C327.326 0.842154 326.593 1.34733 325.985 1.98471C325.377 2.62209 324.907 3.37798 324.605 4.20515C324.302 5.03232 324.174 5.91299 324.227 6.79214C324.189 8.13717 324.55 9.4634 325.265 10.6034C325.979 11.7434 327.016 12.646 328.244 13.1973C318.392 14.5876 318.737 25.2827 318.737 25.2827L341.993 25.5916C341.993 25.5916 342.622 14.754 332.89 13.2329Z" fill="#455A64"/>
<path d="M471.818 291.767H474.028L478.853 285.053V280.645C478.853 280.645 482.263 280.431 481.859 286.206C481.455 291.981 481.859 290.508 481.859 290.508C481.859 290.508 489.108 290.508 489.714 291.161C490.32 291.815 490.344 298.826 490.427 302.736C490.473 303.677 490.204 304.607 489.661 305.378C489.119 306.148 488.334 306.716 487.433 306.99C487.177 307.061 486.913 307.096 486.648 307.097C484.842 307.097 475.597 305.623 475.597 305.623H471.782L471.818 291.767Z" fill="#455A64"/>
<path d="M465.496 290.555L466.863 305.671H470.642V290.864L465.496 290.555Z" fill="#455A64"/>
<path d="M63.1485 31.1173C62.7978 29.3364 61.8264 27.7378 60.4074 26.606C58.9883 25.4742 57.2136 24.8828 55.3993 24.937C53.585 24.9912 51.8488 25.6875 50.4998 26.902C49.1509 28.1164 48.2767 29.7702 48.0329 31.5689C47.779 29.767 46.8925 28.1143 45.5317 26.9062C44.1709 25.6981 42.4248 25.0136 40.6055 24.975C38.7863 24.9364 37.0127 25.5463 35.6019 26.6956C34.1912 27.8449 33.2353 29.4586 32.9053 31.248C32.5408 33.8815 33.2047 36.5541 34.7591 38.7108C36.2962 40.8499 38.1013 42.7828 40.1304 44.4624C42.923 46.839 45.466 49.2157 48.223 51.5924C50.9443 49.1206 53.2734 46.839 56.0066 44.3198C58.0314 42.643 59.8291 40.7096 61.3541 38.5682C62.8847 36.4062 63.527 33.7391 63.1485 31.1173Z" fill="#455A64"/>
<path d="M440.849 442.188C438.199 445.955 433.078 444.707 430.689 442.413C428.3 440.12 427.302 436.769 426.387 433.584C424.296 426.323 422.192 418.694 423.749 411.291C424.125 409.049 425.107 406.953 426.589 405.23C427.342 404.381 428.305 403.746 429.381 403.387C430.458 403.028 431.61 402.959 432.721 403.186C435.312 403.876 436.928 406.407 438.08 408.819C441.509 415.934 443.303 423.725 443.333 431.623C443.333 435.295 442.917 439.157 440.849 442.188Z" fill="#D4145A"/>
<g opacity="0.2">
<path d="M440.848 442.187C438.198 445.954 433.077 444.707 430.688 442.413C428.299 440.12 427.301 436.768 426.386 433.584C424.295 426.323 422.191 418.694 423.748 411.291C424.124 409.049 425.106 406.953 426.588 405.23C427.341 404.381 428.304 403.745 429.38 403.387C430.457 403.028 431.609 402.959 432.72 403.186C435.311 403.875 436.927 406.406 438.08 408.819C441.508 415.934 443.302 423.725 443.332 431.623C443.332 435.295 442.916 439.157 440.848 442.187Z" fill="black"/>
</g>
<path d="M430.95 461.284C426.522 459.208 421.546 458.604 416.749 459.561C414.183 459.989 411.497 460.749 409.738 462.686C407.979 464.623 407.659 468.034 409.667 469.697C410.964 470.576 412.529 470.971 414.088 470.814C417.843 470.814 422.002 470.113 425.008 472.371C426.72 473.655 427.86 475.794 429.904 476.435C430.928 476.671 432 476.567 432.959 476.138C433.918 475.709 434.71 474.979 435.216 474.059C436.199 472.177 436.416 469.989 435.822 467.951C435.577 466.54 435.01 465.204 434.165 464.048C433.32 462.892 432.22 461.946 430.95 461.284Z" fill="#D4145A"/>
<path d="M448.098 447.594C446.744 445.823 445.841 443.748 445.469 441.549C445.096 439.35 445.264 437.094 445.959 434.974C447.404 430.736 449.996 426.98 453.445 424.125C457.349 420.639 461.899 417.954 466.838 416.222C468.743 415.445 470.796 415.096 472.851 415.2C473.88 415.257 474.879 415.565 475.762 416.098C476.644 416.63 477.383 417.371 477.913 418.254C479.315 420.94 477.973 424.196 476.511 426.858C473.931 431.55 470.987 436.032 467.705 440.262C465.079 443.661 462.049 447.012 458.032 448.581C454.016 450.149 449.845 449.935 447.718 447.155" fill="#D4145A"/>
<path d="M441.027 499.073C440.879 498.514 440.799 497.94 440.789 497.362C440.659 496.114 440.516 494.546 440.326 492.692C440.097 490.386 439.748 488.093 439.28 485.823C438.664 483.064 437.83 480.358 436.785 477.731C435.754 475.106 434.362 472.638 432.649 470.398C431.25 468.583 429.464 467.101 427.421 466.061C426.036 465.376 424.552 464.911 423.024 464.683C422.447 464.662 421.873 464.582 421.312 464.445C421.889 464.384 422.471 464.384 423.047 464.445C424.639 464.567 426.196 464.969 427.646 465.633C429.796 466.647 431.68 468.149 433.148 470.018C434.943 472.282 436.389 474.801 437.438 477.493C438.506 480.155 439.333 482.907 439.91 485.716C440.357 488.012 440.663 490.334 440.825 492.668C440.98 494.652 441.027 496.233 441.063 497.421C441.107 497.972 441.095 498.525 441.027 499.073Z" fill="#263238"/>
<path d="M440.706 495.472C440.662 495.213 440.662 494.948 440.706 494.688V492.466C440.706 490.493 440.706 487.641 440.611 484.148C440.432 477.101 439.826 467.356 438.65 456.661C437.473 445.966 435.905 436.329 434.479 429.413C434.134 427.69 433.801 426.133 433.481 424.766C433.16 423.4 432.91 422.211 432.661 421.261C432.411 420.31 432.268 419.633 432.138 419.05C432.058 418.796 432.01 418.532 431.995 418.266C432.116 418.504 432.207 418.755 432.268 419.015C432.447 419.585 432.661 420.31 432.934 421.189C433.207 422.069 433.516 423.305 433.861 424.671C434.205 426.038 434.598 427.583 434.966 429.318C436.917 438.319 438.381 447.419 439.351 456.578C440.539 467.273 441.062 477.065 441.11 484.136C441.11 487.701 441.11 490.541 440.979 492.454C440.979 493.381 440.884 494.13 440.848 494.724C440.826 494.977 440.778 495.228 440.706 495.472Z" fill="#263238"/>
<path d="M440.659 476.649C440.586 475.859 440.586 475.063 440.659 474.273C440.742 472.74 440.956 470.541 441.384 467.832C441.908 464.67 442.606 461.54 443.475 458.456C444.518 454.672 445.828 450.967 447.397 447.369C450.128 440.76 454.033 434.701 458.924 429.484C459.777 428.592 460.681 427.751 461.633 426.965C462.049 426.608 462.417 426.264 462.821 425.99L463.867 425.266C464.496 424.783 465.164 424.354 465.864 423.982C463.565 425.797 461.378 427.749 459.316 429.829C454.586 435.088 450.788 441.117 448.086 447.654C446.527 451.226 445.209 454.898 444.141 458.646C443.245 461.705 442.504 464.806 441.919 467.939C441.419 470.613 441.134 472.787 440.968 474.308C440.92 475.095 440.817 475.877 440.659 476.649Z" fill="#263238"/>
<path d="M38.8334 424.113C40.7694 424.439 42.6197 425.152 44.2736 426.21C45.9276 427.267 47.3511 428.648 48.4589 430.269C50.6593 433.532 52.0858 437.255 52.63 441.154C53.8183 448.64 51.8576 457.125 49.065 464.184C41.4358 460.619 37.3717 451.73 35.5892 447.084C32.7848 439.763 32.1549 424.802 38.8096 424.113" fill="#455A64"/>
<path d="M60.3316 474.712C59.1873 472.838 58.5582 470.695 58.5081 468.5C58.458 466.305 58.9887 464.135 60.0464 462.211C61.1367 460.305 62.5956 458.635 64.3379 457.299C66.0803 455.962 68.0713 454.986 70.1948 454.427C72.1437 453.881 74.3897 453.679 76.0414 454.843C76.7861 455.435 77.3585 456.216 77.6992 457.104C78.0398 457.992 78.1362 458.956 77.9784 459.894C77.6492 461.762 76.829 463.509 75.6018 464.956C71.6327 470.09 66.8437 474.332 60.3554 474.712" fill="#455A64"/>
<path d="M58.3945 498.408C58.2472 497.893 58.1634 497.362 58.1449 496.827C58.038 495.817 57.9073 494.344 57.8122 492.514C57.4607 487.743 57.7524 482.946 58.6797 478.254C59.651 473.5 61.898 469.1 65.1799 465.526C66.1784 464.459 67.3131 463.528 68.5548 462.758C68.9884 462.441 69.4698 462.197 69.9808 462.033C68.4274 463.216 66.9692 464.519 65.6196 465.93C62.5627 469.521 60.4618 473.825 59.5115 478.444C58.6158 483.061 58.2451 487.765 58.4064 492.466C58.5287 494.445 58.5248 496.429 58.3945 498.408Z" fill="#263238"/>
<path d="M40.6045 435.426C40.9949 436.213 41.317 437.032 41.567 437.874C42.1374 439.454 42.9217 441.772 43.8486 444.648C45.7262 450.387 48.198 458.373 50.6935 467.226C53.189 476.079 55.2567 484.195 56.6352 490.066C57.3244 493.013 57.8235 495.39 58.2157 497.041C58.431 497.893 58.5859 498.759 58.6791 499.632C58.3722 498.849 58.1298 498.042 57.9542 497.22L56.1123 490.315C54.5675 484.469 52.4047 476.412 49.9092 467.547C47.4137 458.682 45.0489 450.684 43.3139 444.897C42.4939 442.116 41.8047 439.799 41.2818 438.04C40.9817 437.19 40.755 436.315 40.6045 435.426Z" fill="#263238"/>
<path d="M50.1708 481.771C48.2719 477.541 45.3913 473.825 41.7683 470.932C38.1453 468.038 33.8843 466.051 29.3392 465.134C27.0338 464.695 24.1818 464.754 22.8984 466.727C21.615 468.699 22.7202 471.337 24.0868 473.251C27.0535 477.17 31.1117 480.126 35.7522 481.747C40.3926 483.369 45.4086 483.584 50.1708 482.365" fill="#455A64"/>
<path d="M31.8826 471.872C32.3905 471.849 32.8991 471.901 33.3918 472.027C33.9865 472.11 34.5744 472.237 35.1505 472.407C35.9197 472.588 36.6775 472.814 37.4202 473.084C39.3731 473.765 41.2523 474.641 43.0292 475.699C45.1982 477.013 47.2183 478.559 49.054 480.309C50.8403 482.094 52.4336 484.061 53.8074 486.18C54.923 487.922 55.8587 489.774 56.6 491.705C56.8957 492.439 57.1497 493.189 57.3605 493.951C57.5441 494.519 57.6871 495.099 57.7883 495.686C57.9255 496.182 57.9935 496.693 57.9903 497.207C57.824 497.207 57.4081 495.104 56.0415 491.931C55.2571 490.075 54.3065 488.293 53.2013 486.607C51.8022 484.563 50.2105 482.657 48.448 480.915C46.6565 479.211 44.7022 477.687 42.6132 476.364C40.8958 475.301 39.0862 474.394 37.2063 473.655C33.9859 472.383 31.8113 472.038 31.8826 471.872Z" fill="#263238"/>
<path d="M438.865 224.234C438.916 224.365 438.952 224.5 438.972 224.638C439.038 225.031 439.069 225.429 439.067 225.827C439.003 227.369 438.549 228.869 437.748 230.188C436.472 232.169 434.901 233.945 433.09 235.452L426.519 241.644L426.34 241.822L426.15 241.644L419.733 235.94C417.511 233.943 414.897 231.804 413.661 228.608C413.241 227.637 413.037 226.587 413.064 225.531C413.091 224.474 413.347 223.435 413.815 222.488C414.294 221.597 414.958 220.818 415.761 220.204C416.564 219.589 417.489 219.152 418.473 218.923C419.401 218.73 420.359 218.744 421.281 218.961C422.203 219.179 423.066 219.596 423.809 220.182C425.208 221.246 426.144 222.808 426.423 224.543H425.912C426.123 223.282 426.679 222.104 427.518 221.139C428.357 220.175 429.446 219.461 430.666 219.077C431.606 218.806 432.596 218.756 433.559 218.932C434.522 219.107 435.431 219.502 436.215 220.087C437.228 220.81 438.019 221.802 438.497 222.951C438.668 223.348 438.776 223.769 438.818 224.199C438.818 224.199 438.699 223.759 438.354 223.01C437.847 221.935 437.064 221.012 436.085 220.337C435.337 219.797 434.475 219.439 433.565 219.291C432.656 219.142 431.724 219.208 430.844 219.481C429.706 219.848 428.692 220.521 427.912 221.426C427.132 222.332 426.617 223.435 426.423 224.615L426.174 226.338L425.912 224.615C425.636 223.023 424.76 221.599 423.464 220.634C422.786 220.097 421.998 219.717 421.155 219.522C420.313 219.327 419.437 219.321 418.592 219.505C417.696 219.715 416.855 220.114 416.125 220.676C415.396 221.237 414.794 221.948 414.362 222.761C413.936 223.629 413.703 224.579 413.68 225.545C413.658 226.512 413.846 227.471 414.231 228.358C415.419 231.364 417.903 233.456 420.173 235.488L426.566 241.24H426.198L432.829 235.108C434.633 233.654 436.211 231.94 437.511 230.022C438.317 228.759 438.806 227.32 438.937 225.827C438.96 224.805 438.818 224.246 438.865 224.234Z" fill="#263238"/>
<path d="M404.652 204.639C404.652 204.639 404.652 204.936 404.652 205.494C404.652 206.053 404.652 206.896 404.652 207.966C404.652 210.129 404.652 213.301 404.652 217.366C404.652 225.506 404.723 237.235 404.771 251.697L404.545 251.471H434.764H435.038V251.744C435.038 256.284 435.038 261.12 435.038 266.099L434.55 265.897L448.894 251.53L448.989 251.447H492.387L492.078 251.756C492.078 235.119 492.078 219.279 492.078 204.698L492.363 204.983L429.144 204.852L411.033 204.769H406.197H404.949H404.509H406.137H410.891L428.942 204.686L492.339 204.543H492.625V204.829C492.625 219.41 492.625 235.25 492.625 251.887V252.196H449.226L449.44 252.113L435.073 266.468L434.574 266.955V266.254C434.574 261.275 434.574 256.438 434.574 251.899L434.848 252.172H404.628H404.402V251.946C404.402 237.437 404.497 225.648 404.521 217.484C404.521 213.444 404.521 210.354 404.521 208.132C404.521 207.086 404.521 206.278 404.521 205.756C404.521 205.233 404.652 204.639 404.652 204.639Z" fill="#263238"/>
<path d="M453.089 228.952H449.382V232.517H448.514V228.952H444.807V228.108H448.514V224.543H449.382V228.108H453.089V228.952Z" fill="#263238"/>
<path d="M458.698 221.691V235.345H457.7V222.595H454.36V221.691H458.698Z" fill="#263238"/>
<path d="M462.145 228.524C462.145 224.246 464.355 221.596 467.492 221.596C470.629 221.596 472.84 224.246 472.84 228.524C472.84 232.802 470.629 235.452 467.492 235.452C464.355 235.452 462.145 232.79 462.145 228.524ZM471.841 228.524C471.841 224.722 470.071 222.511 467.492 222.511C464.913 222.511 463.143 224.722 463.143 228.524C463.143 232.327 464.913 234.525 467.492 234.525C470.071 234.525 471.841 232.327 471.841 228.524Z" fill="#263238"/>
<path d="M474.979 228.524C474.979 224.246 477.189 221.596 480.326 221.596C483.463 221.596 485.674 224.246 485.674 228.524C485.674 232.802 483.463 235.452 480.326 235.452C477.189 235.452 474.979 232.79 474.979 228.524ZM484.675 228.524C484.675 224.722 482.905 222.511 480.326 222.511C477.747 222.511 475.977 224.722 475.977 228.524C475.977 232.327 477.747 234.525 480.326 234.525C482.905 234.525 484.675 232.327 484.675 228.524Z" fill="#263238"/>
<path d="M0 94.1589H96.0771V145.626H48.7456L33.0358 161.324V145.626H0V94.1589Z" fill="#D4145A"/>
<path d="M16.2803 118.472C16.2803 118.472 16.2803 118.829 16.3753 119.471C16.4704 120.112 16.4942 121.063 16.5774 122.192C16.7318 124.569 16.9576 127.932 17.2191 131.996L16.9695 131.782L20.7009 131.568C23.8738 131.853 27.4269 132.257 31.1701 132.4C31.3903 132.406 31.6102 132.382 31.8237 132.328C32.0388 132.301 32.2501 132.249 32.4536 132.174C32.87 132.009 33.2467 131.758 33.5587 131.437C34.2301 130.781 34.6505 129.911 34.747 128.977C34.7879 128.491 34.7879 128.002 34.747 127.516C34.747 127.005 34.6639 126.506 34.6282 125.995C34.545 124.973 34.45 123.939 34.3668 122.893C34.2836 121.847 34.141 120.516 33.9984 119.328C33.9152 118.758 33.8439 118.14 33.7251 117.629C33.6981 117.5 33.6623 117.373 33.6181 117.248C33.6181 117.248 33.6181 117.248 33.6181 117.177C33.6181 117.106 33.6181 117.177 33.5231 117.177C33.2644 117.118 33.0025 117.074 32.7387 117.046C30.5419 116.928 28.3403 116.928 26.1435 117.046L26.4049 116.821C26.41 116.868 26.41 116.916 26.4049 116.963V117.058L26.3098 117.141C26.2818 117.169 26.248 117.189 26.211 117.201C26.174 117.214 26.1347 117.218 26.0959 117.213H25.9415V117.141V117.034C25.9378 116.991 25.9378 116.947 25.9415 116.904C25.9315 116.761 25.9315 116.618 25.9415 116.476V115.668C25.9415 115.145 25.9415 114.622 25.9415 114.111C26.0015 113.134 26.0015 112.153 25.9415 111.176C25.8753 110.281 25.5896 109.415 25.1096 108.657C24.8814 108.33 24.5774 108.062 24.2235 107.878C23.8697 107.694 23.4765 107.598 23.0776 107.599L23.2915 107.35C23.3628 108.918 23.4222 110.344 23.4816 111.663V111.735C21.5208 114.717 20.0117 116.987 19.0253 118.484H17.4211H16.8626C17.0269 118.45 17.1939 118.43 17.3617 118.425L19.0134 118.282H18.9421C19.8809 116.761 21.3188 114.456 23.2083 111.426V111.544C23.137 110.225 23.0538 108.799 22.9587 107.243V107.005H23.1845C23.6647 106.981 24.1434 107.077 24.5771 107.284C25.0108 107.492 25.3858 107.804 25.6681 108.193C26.2142 109.012 26.5415 109.957 26.6188 110.938C26.706 111.942 26.7338 112.95 26.702 113.957C26.702 114.456 26.702 114.967 26.702 115.49V116.262C26.702 116.381 26.702 116.512 26.702 116.619C26.7066 116.638 26.7066 116.658 26.702 116.678C26.702 116.678 26.702 116.678 26.6188 116.678C26.5356 116.678 26.4762 116.809 26.4881 116.773C26.5 116.737 26.4881 116.69 26.393 116.702L26.2742 116.63V116.417H26.4762C28.7046 116.291 30.9382 116.291 33.1666 116.417C33.4758 116.445 33.782 116.501 34.0816 116.583C34.1912 116.62 34.2952 116.672 34.3905 116.737C34.4716 116.828 34.536 116.933 34.5807 117.046C34.6299 117.194 34.6696 117.345 34.6995 117.498C34.8302 118.092 34.9134 118.686 34.9847 119.269C35.1392 120.457 35.2461 121.645 35.365 122.834C35.4838 124.022 35.5313 124.913 35.6264 125.947L35.7334 127.468C35.7816 127.99 35.7816 128.515 35.7334 129.037C35.6245 130.101 35.1598 131.098 34.4143 131.865C34.0418 132.237 33.5969 132.528 33.1071 132.721C32.6225 132.894 32.1126 132.986 31.5979 132.994C27.7715 132.827 24.2659 132.4 21.0812 132.067L17.3498 132.245H17.124V132.008C16.9576 127.884 16.8269 124.497 16.72 122.049C16.72 120.944 16.6605 120.053 16.6487 119.364C16.4923 119.082 16.3687 118.783 16.2803 118.472Z" fill="white"/>
<path d="M10.0411 117.617C10.4623 117.557 10.8873 117.529 11.3126 117.534C12.1682 117.534 13.4516 117.462 15.0797 117.438H15.2698V117.64C15.5193 121.063 15.8164 126.054 16.1016 131.603V132.091V132.412H15.7927L12.0969 132.59H11.8117V132.316C11.2176 128.038 10.7541 124.295 10.4451 121.621C10.3025 120.433 10.1837 119.399 10.0886 118.567C10.0256 118.223 10.0017 117.872 10.0173 117.522C10.1193 117.913 10.1986 118.31 10.255 118.71C10.3976 119.55 10.5759 120.584 10.7898 121.812C11.2176 124.438 11.8117 128.038 12.4178 132.174L12.0969 131.924L15.7927 131.722L15.4956 132.043V131.556C15.2104 126.006 14.9846 121.015 14.8658 117.581L15.0797 117.783C13.5586 117.783 12.3227 117.676 11.4433 117.64C10.9758 117.658 10.5078 117.65 10.0411 117.617Z" fill="white"/>
<path d="M52.9764 120.742H48.9122V124.687H47.9616V120.742H43.8975V119.827H47.9616V115.858H48.9122V119.827H52.9764V120.742Z" fill="white"/>
<path d="M59.143 112.804V127.741H57.9547V113.79H54.3896V112.804H59.143Z" fill="white"/>
<path d="M62.875 120.279C62.875 115.597 65.2517 112.697 68.7216 112.697C72.1916 112.697 74.5682 115.597 74.5682 120.279C74.5682 124.961 72.1916 127.848 68.7216 127.848C65.2517 127.848 62.875 124.949 62.875 120.279ZM73.475 120.279C73.475 116.108 71.538 113.707 68.7216 113.707C65.9053 113.707 63.9683 116.084 63.9683 120.279C63.9683 124.473 65.9171 126.85 68.7216 126.85C71.5261 126.85 73.475 124.438 73.475 120.279Z" fill="white"/>
<path d="M76.9678 120.279C76.9678 115.597 79.3444 112.697 82.8144 112.697C86.2843 112.697 88.661 115.597 88.661 120.279C88.661 124.961 86.2843 127.848 82.8144 127.848C79.3444 127.848 76.9678 124.949 76.9678 120.279ZM87.5796 120.279C87.5796 116.108 85.6308 113.707 82.8263 113.707C80.0218 113.707 78.0729 116.084 78.0729 120.279C78.0729 124.473 80.0099 126.85 82.8263 126.85C85.6426 126.85 87.5202 124.438 87.5202 120.279H87.5796Z" fill="white"/>
</svg>
