<svg width="314" height="200" viewBox="0 0 314 200" fill="none" xmlns="http://www.w3.org/2000/svg">
<path d="M193.809 16.7304L199.343 10.6105L211.086 20.0288L228.522 0L234.224 5.55362L210.818 31.3049L193.809 16.7304Z" fill="#EBEBEB"/>
<path d="M37.0059 65.2919L32.4955 66.5039L18.984 55.4166L16.5797 46.4155C16.5797 46.4155 9.49613 47.8561 13.4701 59.4203C17.4441 70.9846 15.7452 68.2227 15.7452 68.2227C15.7452 68.2227 0.962046 72.2463 0.0778382 73.8558C-0.567932 75.0281 2.95896 89.8411 4.94594 97.8586C5.93944 101.892 9.39678 104.962 13.3807 104.912C13.9404 104.915 14.4981 104.845 15.0398 104.704C18.7257 103.71 36.7874 95.6629 36.7874 95.6629L44.5763 93.5865L37.0059 65.2919Z" fill="#F5F5F5"/>
<path d="M49.2562 59.3711L54.7303 90.9542L47.0109 93.0207L38.9238 62.7987L49.2562 59.3711Z" fill="#F5F5F5"/>
<path d="M290.148 161.324L292.949 161.483L299.556 153.286L299.864 147.683C299.864 147.683 304.215 147.683 303.301 154.965C302.387 162.248 303.033 160.43 303.033 160.43C303.033 160.43 312.243 160.986 312.968 161.82C313.495 162.436 313.236 171.596 313.057 176.564C313.048 177.765 312.639 178.93 311.894 179.872C311.149 180.815 310.111 181.483 308.944 181.77C308.618 181.835 308.284 181.862 307.951 181.849C305.646 181.72 294.042 179.197 294.042 179.197L289.194 178.928L290.148 161.324Z" fill="#F5F5F5"/>
<path d="M282.2 159.336L282.855 178.63L287.664 178.898L288.707 160.091L282.2 159.336Z" fill="#F5F5F5"/>
<path d="M297.738 199.742C297.738 199.891 239.907 200 168.584 200C97.2614 200 39.4302 199.891 39.4302 199.742C39.4302 199.593 97.2514 199.483 168.584 199.483C239.917 199.483 297.738 199.613 297.738 199.742Z" fill="#263238"/>
<path d="M133.792 59.2323L139.445 52.6851C138.785 45.7722 140.734 38.8624 144.91 33.3138C149.086 27.7651 155.186 23.979 162.011 22.6995C168.837 21.42 175.894 22.7396 181.796 26.3991C187.698 30.0585 192.018 35.7931 193.906 42.4757C195.795 49.1584 195.115 56.3057 192.002 62.513C188.889 68.7203 183.566 73.5386 177.08 76.0209C170.595 78.5032 163.415 78.4699 156.953 75.9277C150.491 73.3855 145.213 68.5181 142.157 62.2823L133.792 59.2323Z" fill="white"/>
<path d="M133.792 59.2324L134.309 59.441L135.888 60.0371L142.127 62.3817C142.151 62.3919 142.178 62.3924 142.202 62.3831C142.226 62.3738 142.246 62.3555 142.257 62.3321V62.2725L142.068 62.3321C144.089 66.5006 147.118 70.0995 150.88 72.8035C152.051 73.6503 153.291 74.398 154.586 75.0388C155.977 75.7206 157.419 76.2952 158.898 76.7576C164.27 78.4112 170.016 78.4106 175.388 76.7558C180.76 75.1009 185.51 71.8684 189.02 67.4783C191.761 64.02 193.647 59.964 194.526 55.6398C195.404 51.3156 195.251 46.8451 194.077 42.5914L193.59 40.9322L192.955 39.3327L192.637 38.5379L192.249 37.7829L191.474 36.2628C191.206 35.7661 190.878 35.2693 190.58 34.8322C190.3 34.346 189.985 33.881 189.636 33.4413C185.663 28.0588 179.89 24.2798 173.368 22.7904C166.845 21.3011 160.005 22.2002 154.089 25.3245C151.075 26.9131 148.38 29.0452 146.141 31.6133C145.118 32.7806 144.188 34.0263 143.359 35.3389C142.621 36.5831 141.957 37.8703 141.372 39.1936C139.588 43.4597 138.904 48.1059 139.385 52.7051V52.6356L135.203 57.603L134.15 58.8648C133.911 59.143 133.812 59.282 133.812 59.282L134.199 58.8548L135.302 57.603L139.524 52.7051C139.53 52.6943 139.532 52.6824 139.532 52.6703C139.532 52.6583 139.53 52.6464 139.524 52.6356C139.115 48.0727 139.838 43.4792 141.631 39.2632C142.222 37.9591 142.886 36.6888 143.618 35.4581C144.45 34.1663 145.376 32.9377 146.389 31.7822C150.079 27.6146 154.94 24.6562 160.336 23.2933C165.733 21.9303 171.415 22.2262 176.641 24.1422C180.631 25.6319 184.229 28.0101 187.162 31.0967C187.917 31.8887 188.621 32.7283 189.269 33.6102C189.607 34.0482 189.919 34.506 190.203 34.9812C190.491 35.4581 190.818 35.9151 191.087 36.392L191.842 37.8922L192.229 38.6373L192.537 39.4221L193.153 40.9918L193.64 42.6212C194.794 46.808 194.946 51.2079 194.083 55.4644C193.22 59.7209 191.366 63.7141 188.672 67.1207C186.277 70.1304 183.283 72.6105 179.88 74.4044C176.477 76.1982 172.739 77.2667 168.902 77.5424C165.548 77.7681 162.181 77.3775 158.967 76.39C157.503 75.9374 156.075 75.3761 154.695 74.711C153.413 74.079 152.184 73.3447 151.019 72.5154C147.279 69.8565 144.256 66.3138 142.217 62.2029C142.198 62.1892 142.175 62.1818 142.152 62.1818C142.129 62.1818 142.106 62.1892 142.088 62.2029C142.067 62.2117 142.051 62.2278 142.042 62.248C142.033 62.2682 142.031 62.2911 142.038 62.3122L142.167 62.2029C139.455 61.2094 137.369 60.504 135.948 59.9874L134.329 59.4211L133.792 59.2324Z" fill="#263238"/>
<path d="M167.045 68.1733C176.12 68.1733 183.477 60.8163 183.477 51.741C183.477 42.6656 176.12 35.3086 167.045 35.3086C157.969 35.3086 150.612 42.6656 150.612 51.741C150.612 60.8163 157.969 68.1733 167.045 68.1733Z" fill="#B41FA5"/>
<g opacity="0.3">
<path d="M167.045 68.1733C176.12 68.1733 183.477 60.8163 183.477 51.741C183.477 42.6656 176.12 35.3086 167.045 35.3086C157.969 35.3086 150.612 42.6656 150.612 51.741C150.612 60.8163 157.969 68.1733 167.045 68.1733Z" fill="black"/>
</g>
<path d="M179.321 60.9018C185.361 54.1279 184.766 43.7406 177.992 37.7011C171.218 31.6615 160.831 32.2568 154.791 39.0307C148.752 45.8045 149.347 56.1919 156.121 62.2315C162.895 68.2711 173.282 67.6757 179.321 60.9018Z" fill="#B41FA5"/>
<path d="M178.052 49.9234C178.052 52.1006 177.407 54.2288 176.197 56.0391C174.988 57.8493 173.268 59.2602 171.257 60.0934C169.246 60.9266 167.032 61.1446 164.897 60.7198C162.762 60.2951 160.8 59.2467 159.261 57.7072C157.721 56.1677 156.673 54.2063 156.248 52.071C155.823 49.9356 156.041 47.7223 156.875 45.7109C157.708 43.6995 159.119 41.9802 160.929 40.7707C162.739 39.5611 164.867 38.9155 167.045 38.9155C168.49 38.9155 169.922 39.2003 171.257 39.7535C172.593 40.3067 173.806 41.1175 174.828 42.1397C175.85 43.1619 176.661 44.3754 177.214 45.7109C177.768 47.0464 178.052 48.4779 178.052 49.9234Z" fill="white"/>
<path d="M172.429 49.9233C172.429 50.9883 172.113 52.0294 171.522 52.9149C170.93 53.8004 170.089 54.4906 169.105 54.8981C168.121 55.3057 167.038 55.4123 165.994 55.2046C164.949 54.9968 163.99 54.484 163.237 53.7309C162.484 52.9778 161.971 52.0183 161.763 50.9738C161.555 49.9293 161.662 48.8466 162.07 47.8627C162.477 46.8787 163.167 46.0377 164.053 45.4461C164.938 44.8544 165.979 44.5386 167.044 44.5386C168.473 44.5386 169.842 45.1059 170.852 46.1157C171.862 47.1256 172.429 48.4952 172.429 49.9233Z" fill="#B41FA5"/>
<path d="M178.499 37.8919L178.052 34.3848L181.619 30.5698L181.877 34.355L178.499 37.8919Z" fill="#455A64"/>
<path d="M186.149 35.1101L182.533 34.812L178.907 38.2992L182.533 38.6867L186.149 35.1101Z" fill="#455A64"/>
<g opacity="0.3">
<path d="M167.759 49.844L180.327 40.2568C179.858 39.5753 179.333 38.934 178.757 38.3394L167.759 48.9896V49.844Z" fill="black"/>
</g>
<path d="M182.016 33.8288L176.91 38.9353L168.793 47.0522L166.925 48.9199C166.804 49.0425 166.736 49.2081 166.737 49.3804C166.738 49.5528 166.808 49.7177 166.93 49.8389C167.053 49.9601 167.218 50.0277 167.391 50.0268C167.563 50.0258 167.728 49.9565 167.849 49.8339L172.966 44.7174L181.082 36.6006L182.94 34.7329C183.536 34.1467 182.612 33.2327 182.016 33.8288Z" fill="#263238"/>
<path d="M277.213 180.945C274.61 170.434 272.901 169.857 266.642 156.505H261.993L217.345 155.73L213.699 163.827C209.646 174.755 206.874 181.263 205.751 189.25C205.31 192.735 205.267 196.258 205.622 199.752H279.14C280.203 194.307 278.346 185.485 277.213 180.945Z" fill="#263238"/>
<path d="M228.581 34.6929C226.69 36.2425 225.201 38.226 224.241 40.4747C223.281 42.7233 222.878 45.1706 223.067 47.6083C223.276 49.9728 223.951 52.6652 222.431 54.4833C220.911 56.3013 217.941 56.2616 216.47 58.1095C214.771 60.2952 216.242 63.4942 215.655 66.1965C215.341 67.4573 214.587 68.5644 213.529 69.3184C212.47 70.0725 211.178 70.4239 209.883 70.3096C212.944 72.7535 216.618 74.3072 220.504 74.8002L223.425 70.9752C222.931 71.6941 222.694 72.5577 222.75 73.4277C222.805 74.2977 223.152 75.1238 223.733 75.7738C224.931 77.0524 226.479 77.9506 228.183 78.3569C232.179 79.5481 236.396 79.7993 240.504 79.091C244.613 78.3827 248.502 76.7339 251.868 74.2736" fill="#263238"/>
<path d="M273.209 55.1388C272.452 53.397 271.789 51.6161 271.222 49.8037C270.328 45.8297 272.215 41.2796 270.228 37.6931C268.817 35.1398 265.857 33.9078 263.065 33.0832C260.273 32.2586 257.273 31.5533 255.177 29.5265C253.637 28.0363 252.743 25.9798 251.203 24.4895C249.017 22.3734 245.818 21.6779 242.778 21.5091C239.643 21.2361 236.49 21.7803 233.628 23.0887C232.207 23.753 230.962 24.742 229.994 25.9759C229.026 27.2098 228.362 28.6541 228.054 30.1922C227.826 31.7023 228.054 33.2819 227.568 34.7324C227.081 36.1829 225.819 37.5838 225.064 39.0839C224.288 40.6946 224.072 42.5183 224.449 44.2658C224.827 46.0134 225.778 47.5848 227.15 48.7307L248.868 76.2107C253.389 77.8699 264.277 75.704 267.744 72.346C271.212 68.988 274.749 59.6592 273.209 55.1388Z" fill="#263238"/>
<path d="M227.687 45.1644C228.512 38.8656 233.221 31.3946 239.47 32.4775L256.876 38.5974C257.301 38.6611 257.709 38.8094 258.076 39.0335C258.443 39.2575 258.762 39.5528 259.013 39.902C259.264 40.2511 259.442 40.6469 259.538 41.0662C259.633 41.4854 259.644 41.9195 259.568 42.3429L255.704 87.6461L234.84 91.4412L234.989 85.8479C235.198 82.0229 235.417 78.5358 235.407 78.5656C235.397 78.5954 227.459 76.6879 226.465 66.0377C225.959 60.7424 226.773 52.1586 227.687 45.1644Z" fill="#FFBF9D"/>
<path d="M228.8 55.238C228.769 55.5908 228.88 55.9413 229.107 56.213C229.334 56.4848 229.659 56.6557 230.012 56.6885C230.183 56.7136 230.356 56.7043 230.523 56.6612C230.69 56.618 230.847 56.5419 230.984 56.4373C231.121 56.3326 231.236 56.2016 231.321 56.0519C231.407 55.9023 231.462 55.737 231.482 55.5658C231.51 55.2136 231.399 54.8645 231.172 54.5934C230.946 54.3222 230.622 54.1506 230.27 54.1154C230.1 54.0902 229.926 54.0995 229.759 54.1426C229.592 54.1858 229.435 54.2619 229.298 54.3666C229.161 54.4712 229.047 54.6022 228.961 54.7519C228.875 54.9015 228.821 55.0668 228.8 55.238Z" fill="#263238"/>
<path d="M242.46 55.9831C242.43 56.3359 242.54 56.6864 242.767 56.9581C242.994 57.2299 243.32 57.4008 243.672 57.4336C243.843 57.4587 244.017 57.4494 244.183 57.4063C244.35 57.3631 244.507 57.287 244.644 57.1824C244.781 57.0778 244.896 56.9467 244.981 56.7971C245.067 56.6474 245.122 56.4821 245.142 56.311C245.17 55.9587 245.059 55.6096 244.832 55.3385C244.606 55.0673 244.282 54.8958 243.93 54.8605C243.76 54.8353 243.586 54.8446 243.419 54.8878C243.252 54.9309 243.096 55.0071 242.958 55.1117C242.821 55.2163 242.707 55.3473 242.621 55.497C242.536 55.6467 242.481 55.8119 242.46 55.9831Z" fill="#263238"/>
<path d="M228.591 50.3798C228.74 50.6281 229.992 49.8234 231.572 50.032C233.151 50.2407 234.165 51.3136 234.363 51.1149C234.562 50.9162 234.363 50.5983 233.896 50.1214C233.324 49.4914 232.545 49.0863 231.701 48.9789C230.856 48.8769 230.002 49.0737 229.287 49.5353C228.74 49.8929 228.522 50.2705 228.591 50.3798Z" fill="#263238"/>
<path d="M242.738 51.4135C242.927 51.6321 244.149 50.728 245.838 50.7777C247.527 50.8274 248.749 51.7712 248.938 51.5625C249.127 51.3539 248.848 51.0658 248.322 50.6287C247.613 50.0602 246.736 49.7423 245.828 49.7246C244.937 49.6969 244.062 49.9698 243.344 50.4995C242.848 50.9168 242.639 51.3042 242.738 51.4135Z" fill="#263238"/>
<path d="M237.533 61.4276C236.783 61.1332 235.998 60.9362 235.198 60.8414C234.821 60.7719 234.483 60.6824 234.433 60.4241C234.425 60.039 234.536 59.6608 234.751 59.3412L236.043 56.5793C237.841 52.655 239.162 49.4262 239.023 49.3467C238.884 49.2672 237.284 52.4066 235.486 56.3011C235.049 57.2946 234.642 58.1888 234.244 59.073C233.979 59.503 233.876 60.0143 233.956 60.5135C234 60.6494 234.075 60.7733 234.175 60.8751C234.275 60.9768 234.397 61.0538 234.532 61.0997C234.734 61.1721 234.945 61.2156 235.158 61.2289C235.939 61.3915 236.736 61.4582 237.533 61.4276Z" fill="#263238"/>
<path d="M235.367 78.5357C240.323 78.9454 245.296 77.9721 249.733 75.7241C249.733 75.7241 245.689 82.8773 235.208 81.1883L235.367 78.5357Z" fill="#FF9A6C"/>
<path d="M242.003 65.6203C241.832 65.2677 241.572 64.9662 241.248 64.746C240.855 64.5571 240.408 64.5148 239.986 64.6268C239.362 64.7266 238.787 65.0264 238.347 65.4812C238.132 65.7113 237.982 65.9945 237.912 66.3017C237.842 66.6089 237.855 66.9292 237.95 67.2297C238.119 67.8357 239.033 68.1537 239.649 68.2232C240.279 68.2971 240.916 68.1571 241.457 67.8258C241.698 67.716 241.908 67.5476 242.068 67.336C242.227 67.1243 242.332 66.876 242.371 66.6138C242.344 66.2546 242.217 65.9103 242.003 65.6203Z" fill="#FF9A6C"/>
<path d="M241.686 63.6332C241.447 63.6332 241.338 65.1731 239.917 66.2064C238.497 67.2396 236.818 66.9515 236.788 67.1998C236.758 67.4482 237.145 67.5376 237.851 67.5972C238.775 67.6698 239.696 67.4168 240.454 66.8819C240.828 66.621 241.146 66.2864 241.386 65.8986C241.627 65.5109 241.787 65.0781 241.855 64.6267C241.944 63.9809 241.795 63.5736 241.686 63.6332Z" fill="#263238"/>
<path d="M242.848 45.7508C242.967 46.1581 244.427 46.0687 246.116 46.3866C247.805 46.7046 249.166 47.2609 249.415 46.9231C249.524 46.7641 249.305 46.3767 248.779 45.9296C248.071 45.4167 247.257 45.07 246.397 44.9152C245.537 44.7604 244.653 44.8015 243.811 45.0355C243.096 45.2441 242.758 45.5322 242.848 45.7508Z" fill="#263238"/>
<path d="M229.436 45.0545C229.704 45.4023 230.876 45.134 232.257 45.2135C233.638 45.293 234.781 45.6109 235.079 45.2831C235.208 45.1142 235.079 44.7764 234.552 44.4287C233.88 43.9907 233.099 43.7497 232.297 43.7332C231.502 43.687 230.71 43.866 230.012 44.2498C229.505 44.5578 229.317 44.8856 229.436 45.0545Z" fill="#263238"/>
<path d="M263.085 40.2465C262.092 38.7563 260.343 38.0012 258.674 37.3753C251.457 34.6697 243.943 32.8353 236.291 31.9111C235.357 33.4908 236.291 35.6069 237.701 36.7395C239.112 37.8721 241 38.2993 242.669 38.9252C244.338 39.5511 246.166 40.5148 246.881 42.2037C247.597 43.8926 247.04 46.128 247.716 47.956C248.888 51.0955 253.299 52.0691 254.452 55.2284C255.316 57.6028 253.955 60.1959 253.637 62.6796C253.472 63.9587 253.581 65.2584 253.958 66.4919C254.335 67.7254 254.97 68.8643 255.822 69.8327C256.674 70.8012 257.723 71.5768 258.898 72.1079C260.073 72.639 261.348 72.9133 262.638 72.9126C263.075 63.8519 263.509 54.7946 263.94 45.7405C264.079 43.8529 264.128 41.7765 263.085 40.2465Z" fill="#263238"/>
<path d="M281.594 62.9379C280.143 61.6663 278.345 60.5734 277.759 58.7553C276.904 56.0928 279.011 52.9335 277.61 50.5094C276.328 48.3038 272.642 48.4528 271.42 46.1976C270.496 44.4391 271.53 42.8595 271.162 41.3096C270.794 39.7598 268.579 38.4186 266.999 38.6173L254.769 56.6789C253.676 62.6995 252.554 65.9085 253.875 69.4155C254.748 71.2776 255.415 73.2299 255.862 75.2374C256.16 77.2244 255.663 79.5889 254.014 80.8109C261.406 81.3176 268.301 77.3734 274.659 73.5783L281.395 69.5447C282.133 69.1846 282.768 68.6448 283.243 67.9749C284.216 66.3059 282.994 64.1997 281.594 62.9379Z" fill="#263238"/>
<path d="M274.818 71.7402C274.564 71.8229 274.3 71.8763 274.034 71.8992C273.263 71.9861 272.483 71.939 271.729 71.7601C270.523 71.4829 269.411 70.8975 268.5 70.0612C267.297 68.9259 266.534 67.4025 266.344 65.7594C266.227 64.8111 266.298 63.8489 266.553 62.928C266.877 61.9509 267.331 61.0219 267.904 60.1661C268.505 59.2822 268.974 58.3148 269.295 57.2949C269.459 56.7741 269.506 56.2233 269.432 55.6822C269.358 55.1411 269.165 54.623 268.867 54.1654C268.182 53.2712 266.88 53.0626 265.768 52.6155C265.137 52.3951 264.584 51.9944 264.178 51.4631C263.809 50.8861 263.625 50.2101 263.652 49.5257C263.801 48.2188 264.07 46.9285 264.456 45.671C264.601 45.0501 264.601 44.4043 264.456 43.7834C264.29 43.1735 263.909 42.6443 263.383 42.2931C262.243 41.6322 260.946 41.2891 259.628 41.2996C258.285 41.2668 256.973 40.8943 255.813 40.2167C254.697 39.5365 253.784 38.5689 253.17 37.4151C252.658 36.2945 252.323 35.1014 252.177 33.8782C252.04 32.7491 251.787 31.6371 251.422 30.56C251.024 29.5766 250.421 28.6893 249.653 27.957C248.379 26.7432 246.751 25.9666 245.006 25.7397C243.261 25.5129 241.489 25.8476 239.947 26.6953C238.881 27.2505 237.925 27.9945 237.125 28.8909C236.449 29.6686 235.866 30.5221 235.387 31.4343C235.405 31.3665 235.429 31.3002 235.456 31.2356C235.516 31.1164 235.585 30.9276 235.705 30.6891C236.636 28.9079 238.074 27.4422 239.838 26.4767C241.269 25.6762 242.899 25.3006 244.537 25.3938C246.534 25.5332 248.426 26.3458 249.902 27.6987C250.717 28.4612 251.355 29.394 251.769 30.4308C252.158 31.5276 252.424 32.6637 252.564 33.8186C252.722 34.9981 253.057 36.1469 253.558 37.2263C254.133 38.3123 254.996 39.2195 256.051 39.8491C257.161 40.4796 258.411 40.8212 259.688 40.8426C261.078 40.8099 262.451 41.1531 263.662 41.8361C264.273 42.2434 264.717 42.857 264.913 43.5648C265.072 44.2512 265.072 44.9647 264.913 45.6511C264.534 46.8828 264.268 48.1465 264.118 49.4264C264.089 50.0252 264.245 50.6185 264.566 51.1253C264.925 51.5867 265.412 51.9322 265.966 52.1188C266.523 52.3473 267.109 52.5062 267.685 52.7347C268.285 52.9484 268.814 53.323 269.215 53.8176C269.55 54.3224 269.768 54.896 269.852 55.496C269.936 56.096 269.885 56.7073 269.702 57.2849C269.369 58.3449 268.88 59.3494 268.251 60.2654C267.69 61.0927 267.242 61.9915 266.92 62.9379C266.666 63.818 266.585 64.7391 266.682 65.6501C266.838 67.2241 267.541 68.6935 268.669 69.8029C269.535 70.6341 270.603 71.2233 271.768 71.5117C272.761 71.7846 273.797 71.8623 274.818 71.7402Z" fill="#455A64"/>
<path d="M206.694 64.0805C206.479 64.7083 206.479 65.39 206.694 66.0178C206.821 66.3742 207.026 66.6976 207.294 66.9642C207.562 67.2307 207.887 67.4336 208.244 67.5577C208.723 67.6967 209.23 67.6987 209.71 67.5635C210.189 67.4282 210.621 67.1612 210.957 66.7927C211.336 66.3634 211.554 65.8154 211.572 65.2429C211.593 64.6037 211.492 63.9666 211.274 63.3652C210.867 62.1233 210.052 60.7722 210.162 59.1329C210.21 58.3033 210.431 57.4929 210.811 56.7538C211.191 56.0147 211.721 55.3631 212.367 54.841C213.048 54.2895 213.826 53.8715 214.662 53.6091C215.514 53.3553 216.396 53.2183 217.285 53.2017C218.143 53.1794 218.997 53.083 219.838 52.9136C220.629 52.7416 221.333 52.2945 221.825 51.6519C222.261 51.0001 222.505 50.2396 222.531 49.4563C222.558 48.6916 222.485 47.9266 222.312 47.1812C221.893 45.7767 221.656 44.3243 221.607 42.8595C221.668 41.5586 222.118 40.3059 222.898 39.2631C223.555 38.429 224.364 37.7277 225.283 37.1966C225.953 36.7917 226.593 36.3402 227.2 35.8454C227.697 35.41 228.103 34.8797 228.392 34.2856C228.392 34.2856 228.392 34.2856 228.392 34.4148C228.356 34.5392 228.306 34.6592 228.243 34.7725C228.024 35.2285 227.716 35.637 227.339 35.9746C226.748 36.5009 226.113 36.9761 225.442 37.3953C224.566 37.9343 223.795 38.6277 223.167 39.4419C222.444 40.4464 222.036 41.6427 221.994 42.8793C222.065 44.3116 222.312 45.7297 222.729 47.1017C222.921 47.8813 223.001 48.684 222.968 49.4861C222.943 50.3464 222.678 51.1825 222.203 51.9003C221.659 52.6243 220.872 53.1285 219.987 53.321C219.122 53.5121 218.24 53.6153 217.355 53.6289C216.5 53.6497 215.652 53.7799 214.831 54.0164C214.046 54.2616 213.315 54.6526 212.675 55.1689C212.072 55.6506 211.576 56.2527 211.218 56.937C210.861 57.6212 210.65 58.3725 210.599 59.1428C210.48 60.643 211.235 61.9345 211.652 63.2459C211.87 63.8851 211.971 64.5581 211.95 65.2329C211.914 65.8802 211.654 66.4949 211.215 66.9715C210.842 67.3692 210.365 67.6537 209.837 67.7925C209.31 67.9313 208.755 67.9188 208.234 67.7564C207.85 67.6134 207.503 67.3855 207.219 67.0896C206.935 66.7937 206.722 66.4375 206.595 66.0476C206.43 65.5611 206.403 65.0386 206.516 64.5375C206.551 64.3767 206.611 64.2225 206.694 64.0805Z" fill="#263238"/>
<path d="M219.391 85.967C212.208 87.2188 205.681 92.7426 202.383 101.287C199.402 109.026 195.935 116.348 196.282 116.338L213.172 125.081L214.384 122.527L216.689 150.673L209.556 167.562C209.556 167.562 225.62 176.643 238.893 176.732C251.312 176.822 274.142 170.305 274.142 170.305L268.182 153.594L272.692 124.981L272.742 127.048L288.558 123.968C288.558 123.968 286.293 106.353 282.587 97.412C279.229 89.4641 266.324 85.9868 266.324 85.9868L255.604 83.2051C255.604 83.2051 253.408 89.6131 243.95 89.0965C234.492 88.5799 235.237 82.748 235.237 82.748L219.391 85.967Z" fill="#B41FA5"/>
<path d="M275.633 104.068C275.623 104.138 275.623 104.208 275.633 104.277C275.633 104.436 275.633 104.625 275.564 104.873C275.494 105.41 275.405 106.155 275.295 107.059C275.057 108.907 274.709 111.46 274.302 114.272C273.894 117.083 273.527 119.617 273.249 121.484C273.12 122.388 273.01 123.124 272.931 123.66C272.931 123.908 272.881 124.107 272.851 124.256C272.843 124.325 272.843 124.395 272.851 124.465C272.851 124.465 272.851 124.395 272.851 124.266C272.851 124.137 272.921 123.918 272.961 123.67C273.06 123.143 273.179 122.398 273.338 121.504C273.636 119.656 274.034 117.113 274.441 114.301C274.848 111.49 275.166 108.927 275.365 107.079C275.464 106.155 275.534 105.4 275.574 104.883C275.574 104.635 275.574 104.436 275.574 104.277C275.574 104.118 275.633 104.068 275.633 104.068Z" fill="#263238"/>
<path d="M214.772 103.373C214.766 103.446 214.766 103.519 214.772 103.592C214.772 103.761 214.772 103.969 214.702 104.237C214.702 104.784 214.593 105.589 214.533 106.582C214.414 108.569 214.325 111.321 214.354 114.361C214.384 117.401 214.553 120.153 214.722 122.13C214.801 123.124 214.881 123.928 214.941 124.485L215.02 125.121C215.011 125.193 215.011 125.267 215.02 125.339C215.027 125.263 215.027 125.187 215.02 125.111C215.02 124.952 215.02 124.733 215.02 124.475C215.02 123.899 214.921 123.104 214.851 122.12C214.722 120.133 214.583 117.391 214.543 114.361C214.503 111.331 214.543 108.579 214.672 106.592C214.672 105.598 214.762 104.814 214.782 104.237C214.782 103.979 214.782 103.761 214.782 103.602C214.791 103.525 214.788 103.448 214.772 103.373Z" fill="#263238"/>
<path d="M246.136 144.444C245.428 144.4 244.719 144.503 244.052 144.746C243.386 144.989 242.776 145.366 242.262 145.855C240.632 147.434 237.761 149.63 234.542 149.441C229.575 149.153 226.306 144.97 226.594 139.317C226.882 133.664 230.628 129.879 235.615 130.167C238.834 130.356 241.427 132.86 242.868 134.618C243.321 135.165 243.882 135.611 244.517 135.929C245.151 136.247 245.845 136.43 246.554 136.466C247.932 136.545 249.284 136.073 250.315 135.155C251.345 134.236 251.968 132.946 252.048 131.568L252.982 98.465L201.121 96.5674L165.654 95.3057L164.461 126.77C164.292 129.641 166.975 131.797 169.846 131.966C170.554 132.009 171.264 131.906 171.93 131.663C172.597 131.421 173.206 131.043 173.721 130.555C175.35 128.975 178.221 126.779 181.44 126.968C186.408 127.256 189.676 131.439 189.388 137.092C189.1 142.745 185.354 146.53 180.367 146.242C177.148 146.053 174.555 143.55 173.115 141.791C172.662 141.245 172.1 140.798 171.466 140.48C170.831 140.162 170.138 139.979 169.429 139.943C168.052 139.865 166.701 140.335 165.671 141.251C164.641 142.168 164.017 143.455 163.935 144.831L162.375 181.859L214.583 183.846L245.212 185.008L248.978 185.147L251.034 149.908C251.105 148.535 250.629 147.19 249.712 146.166C248.794 145.142 247.509 144.523 246.136 144.444Z" fill="#E0E0E0"/>
<path d="M246.136 144.444C246.383 144.447 246.63 144.473 246.871 144.524C247.588 144.656 248.266 144.945 248.858 145.368C249.835 146.077 250.537 147.102 250.845 148.269C251.038 149.018 251.088 149.797 250.994 150.564C250.994 151.379 250.905 152.253 250.845 153.177C250.428 160.608 249.852 171.457 249.057 185.187V185.336H248.908L162.375 182.118H162.146V181.859C162.435 174.607 162.743 167.116 163.06 159.426C163.219 155.571 163.378 151.67 163.537 147.723C163.537 146.729 163.617 145.736 163.666 144.742C163.713 143.95 163.933 143.177 164.31 142.478C164.687 141.78 165.213 141.172 165.851 140.699C166.488 140.225 167.221 139.897 167.999 139.737C168.777 139.578 169.58 139.591 170.353 139.775C171.396 140.015 172.345 140.561 173.075 141.345C173.708 142.133 174.406 142.867 175.161 143.54C176.617 144.937 178.514 145.783 180.526 145.935C181.534 145.984 182.541 145.833 183.491 145.492C184.441 145.151 185.313 144.626 186.06 143.948C187.561 142.542 188.556 140.681 188.891 138.652C189.089 137.638 189.16 136.604 189.1 135.572C189.055 134.536 188.857 133.511 188.514 132.532C187.842 130.558 186.437 128.918 184.589 127.952C183.658 127.485 182.641 127.213 181.601 127.151C180.561 127.09 179.519 127.241 178.539 127.595C177.55 127.96 176.617 128.462 175.767 129.085C175.34 129.403 174.923 129.731 174.525 130.078C174.128 130.426 173.76 130.824 173.274 131.161C172.479 131.737 171.54 132.08 170.561 132.155C169.601 132.215 168.639 132.056 167.75 131.688C166.835 131.365 166.026 130.8 165.408 130.053C164.79 129.306 164.388 128.404 164.243 127.446C164.173 126.452 164.243 125.598 164.243 124.674L164.342 121.942L164.551 116.517C164.829 109.318 165.1 102.224 165.365 95.2367V94.9883H165.614L252.981 98.1873H253.19V98.396C252.972 105.682 252.766 112.636 252.574 119.259C252.475 122.571 252.382 125.783 252.296 128.896C252.296 129.681 252.296 130.456 252.226 131.221C252.216 132.01 252.04 132.789 251.71 133.506C251.386 134.194 250.92 134.805 250.343 135.3C249.765 135.795 249.09 136.161 248.361 136.376C247.632 136.591 246.865 136.649 246.112 136.547C245.359 136.444 244.636 136.183 243.99 135.781C243.387 135.384 242.856 134.887 242.421 134.311C241.977 133.789 241.499 133.298 240.99 132.84C240.023 131.933 238.894 131.215 237.662 130.724C236.471 130.276 235.184 130.143 233.926 130.337C232.742 130.502 231.611 130.934 230.619 131.602C229.628 132.27 228.802 133.156 228.204 134.191C227.111 136.094 226.587 138.269 226.694 140.46C226.711 142.429 227.313 144.348 228.422 145.974C229.353 147.287 230.662 148.283 232.175 148.83C233.688 149.377 235.332 149.448 236.887 149.034C238.073 148.68 239.191 148.129 240.195 147.405C240.991 146.833 241.744 146.206 242.45 145.527C243.007 145.063 243.658 144.724 244.358 144.534C244.774 144.413 245.206 144.353 245.64 144.355C245.788 144.34 245.938 144.34 246.087 144.355C245.506 144.345 244.927 144.419 244.368 144.573C243.689 144.771 243.059 145.11 242.52 145.567C241.817 146.258 241.063 146.896 240.265 147.474C239.255 148.219 238.127 148.787 236.927 149.153C235.337 149.591 233.651 149.53 232.098 148.977C230.545 148.424 229.199 147.407 228.243 146.064C227.108 144.406 226.486 142.45 226.455 140.441C226.34 138.2 226.867 135.973 227.975 134.023C228.595 132.956 229.45 132.044 230.474 131.355C231.498 130.667 232.665 130.22 233.887 130.049C235.194 129.856 236.529 129.993 237.771 130.446C239.04 130.95 240.206 131.685 241.209 132.612C241.725 133.079 242.213 133.576 242.669 134.102C243.077 134.655 243.582 135.13 244.159 135.503C244.764 135.881 245.441 136.126 246.148 136.223C246.854 136.319 247.573 136.265 248.256 136.063C248.94 135.861 249.573 135.516 250.113 135.051C250.654 134.587 251.09 134.013 251.392 133.367C252.048 132.046 251.829 130.446 251.928 128.896C252.018 125.777 252.097 122.558 252.187 119.259C252.372 112.636 252.564 105.682 252.763 98.396L252.972 98.6145L165.544 95.5049L165.812 95.2565C165.548 102.231 165.279 109.328 165.008 116.547C164.935 118.342 164.865 120.15 164.799 121.972L164.7 124.694C164.7 125.588 164.581 126.561 164.64 127.396C164.78 128.26 165.15 129.07 165.711 129.741C166.272 130.413 167.004 130.92 167.829 131.211C168.651 131.545 169.537 131.691 170.422 131.638C171.301 131.579 172.146 131.28 172.866 130.774C173.284 130.447 173.685 130.098 174.068 129.731C174.486 129.363 174.913 129.025 175.36 128.737C176.25 128.085 177.226 127.56 178.261 127.177C179.306 126.801 180.416 126.641 181.525 126.707C182.633 126.774 183.717 127.066 184.709 127.565C186.684 128.581 188.185 130.327 188.891 132.433C189.25 133.457 189.454 134.528 189.497 135.612C189.562 136.686 189.492 137.764 189.289 138.821C188.934 140.956 187.887 142.914 186.308 144.395C184.696 145.839 182.579 146.589 180.417 146.481C178.289 146.319 176.284 145.424 174.744 143.948C173.973 143.268 173.261 142.524 172.618 141.722C171.958 141.007 171.095 140.511 170.144 140.301C169.207 140.083 168.226 140.141 167.321 140.469C166.417 140.797 165.627 141.381 165.047 142.149C164.466 142.911 164.121 143.826 164.054 144.782C164.054 145.776 163.965 146.769 163.925 147.763C163.759 151.737 163.597 155.634 163.438 159.456C163.12 167.159 162.809 174.637 162.504 181.889L162.276 181.641L248.878 185.019L248.719 185.158C249.554 171.428 250.21 160.589 250.706 153.157C250.766 152.233 250.816 151.359 250.865 150.544C250.964 149.792 250.923 149.027 250.746 148.289C250.496 147.359 249.992 146.517 249.29 145.857C248.588 145.197 247.716 144.746 246.772 144.554C246.385 144.464 246.126 144.464 246.136 144.444Z" fill="#263238"/>
<path d="M172.151 176.593C172.151 176.593 169.31 177.219 170.71 183.21C171.595 186.965 173.919 184.809 173.919 184.809C174.185 185.076 174.512 185.274 174.871 185.386C175.23 185.499 175.612 185.522 175.982 185.455C176.352 185.388 176.701 185.231 176.997 184.999C177.294 184.767 177.53 184.467 177.685 184.124L178.013 184.491C178.013 184.491 179.741 187.412 182.255 184.611C182.75 184.831 183.301 184.895 183.834 184.794C184.366 184.692 184.855 184.431 185.235 184.044C186.447 182.653 184.47 179.514 184.47 179.514C184.47 179.514 184.073 174.904 182.831 174.735C182.455 174.677 182.07 174.749 181.739 174.938C181.409 175.128 181.153 175.424 181.013 175.779C180.892 176.857 180.839 177.942 180.854 179.027C180.854 179.027 180.526 175.053 179.701 174.696C178.251 174.139 176.83 174.407 177.347 179.276C177.347 179.276 177.019 175.659 176.224 175.302C175.429 174.944 174.307 175.53 173.79 176.881C173.481 177.681 173.365 178.542 173.452 179.395C173.452 179.395 173.939 175.898 172.151 176.593Z" fill="#FFBF9D"/>
<path d="M173.929 184.621C173.976 183.523 173.936 182.424 173.81 181.332C173.827 180.233 173.76 179.134 173.611 178.044C173.172 180.229 173.282 182.488 173.929 184.621Z" fill="#FF9A6C"/>
<path d="M177.834 184.184C177.838 183.146 177.758 182.109 177.595 181.084C177.575 180.048 177.479 179.016 177.307 177.994C177.041 179.016 176.99 180.081 177.158 181.124C177.175 182.179 177.405 183.219 177.834 184.184Z" fill="#FF9A6C"/>
<path d="M182.463 184.67C182.582 184.611 181.887 183.28 181.47 181.501C181.052 179.723 181.062 178.233 180.923 178.223C180.661 179.342 180.702 180.512 181.042 181.61C181.233 182.739 181.724 183.796 182.463 184.67Z" fill="#FF9A6C"/>
<path d="M287.833 124.157L272.931 126.988L273.457 140.202L258.744 157.955L261.953 166.708C264.933 164.602 281.485 153.326 287.207 147.474C289.671 144.97 287.833 124.157 287.833 124.157Z" fill="#FFBF9D"/>
<path d="M282.17 141.324C282.17 141.324 281.733 140.937 280.978 140.45C280.548 140.169 280.088 139.936 279.607 139.755C279.036 139.546 278.442 139.406 277.838 139.337C277.242 139.284 276.641 139.308 276.05 139.407C275.557 139.495 275.074 139.635 274.61 139.824C273.815 140.152 273.358 140.49 273.338 140.45C273.436 140.358 273.543 140.275 273.656 140.202C273.778 140.105 273.907 140.019 274.043 139.943C274.202 139.864 274.371 139.755 274.58 139.665C275.044 139.455 275.531 139.298 276.03 139.198C276.633 139.087 277.248 139.057 277.858 139.109C278.474 139.18 279.079 139.33 279.656 139.556C280.146 139.75 280.61 140.004 281.037 140.311C281.21 140.427 281.376 140.553 281.534 140.688C281.673 140.798 281.792 140.917 281.892 141.006C281.997 141.101 282.09 141.208 282.17 141.324Z" fill="#FF9A6C"/>
<path d="M258.972 157.478C258.972 157.478 257.472 155.243 255.991 154.687C254.511 154.13 252.365 154.061 252.017 153.693C251.67 153.326 251.024 152.213 250.239 152.7C249.454 153.187 247.835 155.591 250.726 157.339L252.872 158.055C252.421 159.048 251.825 159.969 251.103 160.787C250.299 161.462 239.966 168.218 239.966 168.218C239.966 168.218 238.754 168.834 238.903 169.887C239.052 170.94 241.188 171.079 241.188 171.079C241.467 171.557 241.862 171.955 242.336 172.239C242.81 172.522 243.348 172.68 243.901 172.699C244.76 172.692 245.617 172.588 246.454 172.391C246.831 172.944 247.379 173.358 248.015 173.57C248.65 173.782 249.337 173.779 249.971 173.563C252.246 172.798 262.479 166.251 262.479 166.251L261.485 157.955L258.972 157.478Z" fill="#FFBF9D"/>
<path d="M248.709 167.751C247.694 168.685 246.515 169.423 245.232 169.927C243.989 170.556 242.643 170.954 241.258 171.099C241.258 170.99 242.996 170.503 245.033 169.579C247.07 168.655 248.649 167.662 248.709 167.751Z" fill="#FF9A6C"/>
<path d="M251.571 170.006C250.126 171.622 248.101 172.6 245.938 172.728C245.938 172.619 247.309 172.341 248.858 171.586C250.408 170.831 251.491 169.937 251.571 170.006Z" fill="#FF9A6C"/>
<path d="M130.026 176.404L60.7997 171.924L54.4712 199.742H131.745C132.407 191.921 131.827 184.044 130.026 176.404Z" fill="#263238"/>
<path d="M89.9388 13.1739C90.4748 12.333 91.259 11.6795 92.1828 11.3039C93.1066 10.9283 94.1243 10.8493 95.095 11.0777C96.3256 10.278 97.7895 9.91567 99.2511 10.049C100.713 10.1824 102.087 10.8037 103.152 11.8128C104.06 11.3721 105.065 11.1692 106.073 11.2231C107.081 11.277 108.059 11.5859 108.915 12.1208C109.761 12.6752 110.452 13.4357 110.923 14.3308C111.394 15.2259 111.629 16.2261 111.607 17.2373C112.632 17.1722 113.652 17.423 114.529 17.956C115.407 18.489 116.1 19.2784 116.515 20.2178C116.899 21.1693 116.987 22.215 116.765 23.2171C116.543 24.2192 116.023 25.1306 115.273 25.831C116.327 26.307 117.18 27.1403 117.68 28.1837C118.18 29.2271 118.295 30.4136 118.005 31.5337C117.654 32.6358 116.92 33.5761 115.936 34.1846C114.952 34.7932 113.783 35.0298 112.64 34.8519L90.4157 18.7772C89.765 18.008 89.3695 17.0555 89.2841 16.0516C89.1987 15.0477 89.4275 14.042 89.9388 13.1739Z" fill="#263238"/>
<path d="M113.276 35.5273C113.248 30.5118 111.334 25.6906 107.914 22.022C104.494 18.3534 99.8183 16.1062 94.8171 15.727L93.8237 15.6574C82.6767 15.5084 78.4444 25.5327 78.5934 36.7393L76.6064 78.2077L93.1381 94.799L99.1786 83.7613L101.265 72.7634C101.265 72.7634 112.054 71.8593 112.948 61.1494C113.316 55.9733 113.356 45.2436 113.276 35.5273Z" fill="#AE7461"/>
<path d="M101.285 72.7532C96.3236 72.3946 91.5721 70.6072 87.6045 67.6069C87.6045 67.6069 89.9392 75.833 100.649 75.6343L101.285 72.7532Z" fill="#6F4439"/>
<path d="M109.471 44.5385C109.448 44.9373 109.27 45.3113 108.975 45.5805C108.679 45.8497 108.291 45.9927 107.891 45.9791C107.696 45.9818 107.502 45.945 107.321 45.8708C107.14 45.7967 106.976 45.6867 106.838 45.5474C106.701 45.4082 106.593 45.2427 106.522 45.0608C106.45 44.8788 106.416 44.6843 106.421 44.4888C106.444 44.09 106.622 43.716 106.917 43.4469C107.213 43.1777 107.601 43.0346 108.001 43.0483C108.196 43.0469 108.389 43.0847 108.57 43.1593C108.75 43.234 108.913 43.344 109.05 43.4829C109.188 43.6219 109.295 43.7868 109.368 43.9681C109.44 44.1494 109.475 44.3434 109.471 44.5385Z" fill="#263238"/>
<path d="M110.713 41.1701C110.514 41.3489 109.421 40.4151 107.732 40.2958C106.043 40.1766 104.831 40.9217 104.672 40.7131C104.513 40.5045 104.802 40.266 105.358 39.9183C106.099 39.474 106.96 39.2725 107.822 39.3421C108.678 39.3974 109.494 39.7285 110.147 40.2859C110.643 40.7131 110.782 41.0807 110.713 41.1701Z" fill="#263238"/>
<path d="M95.3736 43.8128C95.3482 44.2054 95.1735 44.5735 94.8852 44.8414C94.597 45.1093 94.2172 45.2567 93.8237 45.2533C93.6281 45.2534 93.4344 45.2144 93.254 45.1386C93.0737 45.0629 92.9102 44.9519 92.7733 44.8122C92.6364 44.6725 92.5287 44.5069 92.4566 44.325C92.3845 44.1432 92.3494 43.9487 92.3533 43.7532C92.3789 43.3552 92.5578 42.9828 92.8524 42.7141C93.1471 42.4454 93.5344 42.3015 93.933 42.3126C94.1261 42.3165 94.3165 42.3584 94.4935 42.4359C94.6704 42.5134 94.8303 42.6249 94.9641 42.7642C95.0978 42.9036 95.2028 43.0679 95.2731 43.2478C95.3434 43.4277 95.3775 43.6197 95.3736 43.8128Z" fill="#263238"/>
<path d="M95.0261 39.7895C94.8175 39.9782 93.7246 39.0344 92.0456 38.9251C90.3666 38.8159 89.1546 39.5511 88.9857 39.3325C88.8168 39.1139 89.1247 38.8953 89.6811 38.5476C90.4212 38.1008 91.2835 37.8991 92.145 37.9714C92.998 38.0288 93.8098 38.3598 94.4598 38.9152C94.9764 39.3523 95.1254 39.7299 95.0261 39.7895Z" fill="#263238"/>
<path d="M99.5464 52.4168C100.427 52.2023 101.332 52.1022 102.239 52.1188C102.666 52.1188 103.063 52.0592 103.153 51.7711C103.22 51.3411 103.155 50.9007 102.964 50.5094L101.971 47.211C100.58 42.5217 99.606 38.6868 99.7948 38.6272C99.9835 38.5676 101.255 42.3329 102.646 47.0122C102.984 48.1647 103.315 49.2675 103.64 50.3206C103.869 50.8478 103.904 51.439 103.739 51.9896C103.673 52.1355 103.572 52.2632 103.446 52.3618C103.32 52.4604 103.171 52.527 103.014 52.5559C102.773 52.5834 102.529 52.5834 102.288 52.5559C101.372 52.625 100.451 52.5783 99.5464 52.4168Z" fill="#263238"/>
<path d="M94.6384 53.2116C94.9066 53.2116 94.7775 54.9999 96.2081 56.3808C97.6387 57.7618 99.5562 57.7022 99.5462 57.9505C99.5363 58.1989 99.0992 58.2685 98.2944 58.2287C97.2512 58.1697 96.2625 57.7439 95.5027 57.0266C94.7808 56.3264 94.3512 55.3784 94.3006 54.374C94.2907 53.6189 94.5192 53.1917 94.6384 53.2116Z" fill="#263238"/>
<path d="M95.3835 35.1101C95.155 35.5174 93.7741 35.0306 92.0553 34.9412C90.3366 34.8517 88.8861 35.1001 88.7371 34.663C88.6775 34.4544 88.9954 34.0868 89.6213 33.7589C90.4283 33.3732 91.3223 33.2054 92.2143 33.2721C93.0967 33.3186 93.9491 33.6074 94.6781 34.1066C95.2444 34.504 95.4829 34.9114 95.3835 35.1101Z" fill="#263238"/>
<path d="M110.634 36.6198C110.355 36.9973 109.213 36.6198 107.852 36.6198C106.491 36.6198 105.348 36.898 105.08 36.5105C104.961 36.3217 105.14 35.9442 105.636 35.5766C106.308 35.1455 107.092 34.9238 107.89 34.9398C108.688 34.9557 109.463 35.2085 110.117 35.666C110.604 36.0535 110.763 36.431 110.634 36.6198Z" fill="#263238"/>
<path d="M112.601 30.54C112.601 30.54 110.276 23.5855 107.166 21.8171C103.401 19.6414 101.414 23.8041 97.7778 22.5125C94.1416 21.221 90.5452 19.1148 86.5414 21.7376C82.1601 24.5989 83.9484 26.9534 83.3424 31.6725C80.9182 50.8966 77.0237 56.1025 76.676 46.9425C76.676 45.949 73.9539 44.9555 73.8446 40.7133C73.7154 35.2193 73.9836 28.5828 75.4639 24.8174C76.7257 21.6283 78.7325 19.5023 82.2296 17.257C87.7435 13.7102 94.9463 14.1374 99.7946 14.9819C104.643 15.8263 113.694 22.1648 112.601 30.54Z" fill="#263238"/>
<path d="M78.7327 46.8134C78.7488 46.4204 78.6851 46.0282 78.5454 45.6605C78.4057 45.2927 78.193 44.9571 77.92 44.6739C77.647 44.3907 77.3195 44.1658 76.9571 44.0127C76.5948 43.8596 76.2052 43.7816 75.8118 43.7832C73.8248 43.8329 71.51 44.7767 71.3511 48.9494C71.053 56.3012 78.4545 55.0793 78.4744 54.8607C78.4942 54.6421 78.6333 49.8932 78.7327 46.8134Z" fill="#AE7461"/>
<path d="M76.994 52.0394C76.994 52.0394 76.8648 52.1189 76.6462 52.2083C76.4893 52.2755 76.3203 52.3102 76.1495 52.3102C75.9787 52.3102 75.8097 52.2755 75.6527 52.2083C75.1919 51.8867 74.8242 51.449 74.5869 50.9396C74.3497 50.4301 74.2513 49.867 74.3016 49.3073C74.3099 48.6763 74.4593 48.0551 74.7388 47.4892C74.813 47.2618 74.9426 47.0564 75.1161 46.8916C75.2895 46.7268 75.5013 46.6078 75.7322 46.5454C75.8797 46.5104 76.0347 46.5292 76.1695 46.5984C76.3043 46.6676 76.41 46.7827 76.4674 46.9229C76.5568 47.1316 76.4674 47.2806 76.5469 47.2905C76.6264 47.3004 76.7059 47.1713 76.6562 46.8633C76.6238 46.6812 76.529 46.5161 76.388 46.3964C76.1922 46.238 75.9436 46.1599 75.6925 46.1778C75.389 46.226 75.1032 46.352 74.8629 46.5435C74.6227 46.7351 74.4361 46.9856 74.3215 47.2707C73.9876 47.8806 73.8069 48.5624 73.7949 49.2576C73.7949 50.7379 74.4804 52.1586 75.5236 52.5063C75.7173 52.5734 75.9239 52.5949 76.1272 52.569C76.3306 52.5432 76.5252 52.4707 76.6959 52.3573C76.9344 52.2182 77.0138 52.0493 76.994 52.0394Z" fill="#6F4439"/>
<path d="M78.544 32.5168C79.3843 33.3087 80.4086 33.8789 81.5245 34.176C82.086 34.3056 82.6755 34.2257 83.1823 33.9513C83.689 33.6769 84.0781 33.2268 84.2764 32.6857C84.4056 32.1791 84.2764 31.573 84.6838 31.2054C85.0911 30.8378 85.8362 30.967 86.4423 31.0763C87.5018 31.2358 88.584 31.0269 89.508 30.4844C90.4321 29.9419 91.1419 29.0988 91.519 28.0958C91.8241 28.4747 92.2577 28.7284 92.7374 28.809C93.2172 28.8896 93.7098 28.7914 94.1219 28.533C94.9215 27.9714 95.6402 27.3029 96.258 26.546C96.5678 26.1662 96.9665 25.8686 97.4188 25.6797C97.8711 25.4908 98.363 25.4164 98.851 25.463C99.3508 25.6792 99.8743 25.8359 100.411 25.93C101.404 25.93 101.921 24.8173 102.139 23.8735C102.358 22.9297 102.537 21.8269 103.391 21.3599C104.246 20.893 105.13 21.2805 106.004 21.4792C106.878 21.6778 107.991 21.5487 108.319 20.6943C108.373 20.4647 108.38 20.2265 108.339 19.9942C108.298 19.7619 108.21 19.5404 108.08 19.3431C107.557 18.4135 106.733 17.6896 105.743 17.2906C104.754 16.8916 103.658 16.8411 102.636 17.1475C102.372 15.9034 101.744 14.7662 100.83 13.8811C99.9172 12.9959 98.7609 12.403 97.5092 12.178C96.2574 11.9531 94.9671 12.1063 93.8028 12.618C92.6385 13.1298 91.6532 13.9769 90.9726 15.0513C90.2503 14.2889 89.3537 13.7132 88.3599 13.3738C87.3661 13.0343 86.3047 12.9412 85.267 13.1024C84.2293 13.2637 83.2462 13.6744 82.4022 14.2994C81.5582 14.9244 80.8786 15.7449 80.4217 16.6905C79.5414 16.3938 78.5934 16.3624 77.6954 16.6001C76.7975 16.8378 75.9892 17.3342 75.371 18.0275C74.7528 18.7208 74.352 19.5806 74.2185 20.4998C74.0849 21.4191 74.2244 22.3573 74.6197 23.1979C73.9156 23.4877 73.2965 23.9514 72.8204 24.5457C72.3443 25.1399 72.0268 25.8452 71.8975 26.5956C71.7584 28.1157 73.1195 29.735 74.6098 29.437C74.2906 30.0175 74.1932 30.6943 74.3357 31.3412C74.4783 31.9882 74.8511 32.5614 75.3847 32.954C75.9437 33.3093 76.6138 33.447 77.2677 33.3408C77.9216 33.2346 78.5137 32.8918 78.9315 32.3778" fill="#263238"/>
<path d="M74.0833 29.3477C74.0356 29.5994 74.0429 29.8584 74.1046 30.1071C74.1664 30.3557 74.2811 30.588 74.4409 30.7882C74.7594 31.2861 75.2576 31.642 75.8319 31.7817C76.1978 31.8703 76.579 31.8752 76.9471 31.7961C77.3152 31.717 77.6607 31.5559 77.9579 31.3247L77.6499 31.2552C77.9832 31.9703 78.4331 32.625 78.9812 33.1925C79.3385 33.5787 79.7669 33.8924 80.2429 34.1164C80.6994 34.3265 81.2032 34.4121 81.7034 34.3648C82.1246 34.3577 82.5392 34.2589 82.9184 34.0753C83.2975 33.8917 83.6322 33.6277 83.899 33.3018C84.2214 32.8525 84.4572 32.3472 84.5944 31.8115C84.6637 31.624 84.6974 31.4252 84.6938 31.2254C84.6938 31.2254 84.5845 31.4141 84.4355 31.7619C84.2521 32.2483 83.9904 32.7013 83.6605 33.1031C83.3673 33.3928 83.0171 33.6185 82.6322 33.766C82.2472 33.9135 81.8359 33.9795 81.4241 33.9599C81.0124 33.9403 80.6092 33.8355 80.24 33.6521C79.8708 33.4687 79.5436 33.2107 79.2792 32.8944C78.7702 32.3586 78.3448 31.749 78.0175 31.0863L77.9281 30.8478L77.7393 31.0068C77.4873 31.2021 77.1968 31.3421 76.8869 31.4174C76.577 31.4927 76.2547 31.5018 75.9411 31.4439C75.4358 31.3397 74.9846 31.0577 74.6695 30.6491C74.3939 30.256 74.1951 29.8145 74.0833 29.3477Z" fill="#455A64"/>
<path d="M89.0649 13.5809C89.2262 13.6661 89.392 13.7424 89.5617 13.8094C90.0144 14.0449 90.385 14.4121 90.6247 14.8625L90.7042 15.0115L90.8135 14.8824C91.8162 13.7056 93.1017 12.8031 94.549 12.2596C95.4778 11.9112 96.4703 11.7655 97.4599 11.8324C98.5539 11.9139 99.6034 12.2993 100.49 12.9451C101.187 13.4424 101.769 14.0825 102.199 14.8228C102.591 15.5194 102.812 16.2991 102.845 17.0979V17.3264H103.073C104.105 17.1291 105.173 17.3392 106.054 17.9126C106.751 18.3718 107.287 19.0392 107.584 19.82C107.836 20.5262 107.938 21.2777 107.882 22.0256C107.965 21.8379 108.009 21.635 108.011 21.4295C108.063 20.8548 107.992 20.2756 107.802 19.7306C107.518 18.8866 106.972 18.1555 106.242 17.6443C105.289 16.9873 104.114 16.7338 102.974 16.9389L103.212 17.1277C103.19 16.2639 102.958 15.4184 102.537 14.6638C102.077 13.8779 101.454 13.2002 100.709 12.6768C99.7625 11.986 98.639 11.5793 97.4699 11.5045C96.4235 11.4449 95.3766 11.6109 94.4 11.9913C92.9092 12.5725 91.6043 13.5477 90.6247 14.8128H90.8036C90.5303 14.3348 90.103 13.9636 89.5915 13.7597C89.431 13.6626 89.2514 13.6016 89.0649 13.5809Z" fill="#455A64"/>
<path d="M67.1582 177.021C67.3125 177.113 67.4756 177.189 67.645 177.249L69.0657 177.825C70.3076 178.322 72.1356 178.978 74.4008 179.723C76.6659 180.468 79.4179 181.263 82.4778 182.028C85.5378 182.793 88.9653 183.488 92.5717 184.064C96.1781 184.641 99.6355 184.988 102.795 185.217C105.954 185.445 108.805 185.515 111.19 185.495C113.574 185.475 115.521 185.416 116.853 185.316L118.393 185.207C118.57 185.207 118.748 185.184 118.919 185.137C118.741 185.122 118.561 185.122 118.383 185.137H116.843C115.511 185.137 113.584 185.197 111.19 185.137C108.795 185.078 105.974 184.988 102.825 184.76C99.6752 184.531 96.2377 184.134 92.6413 183.578C89.0448 183.021 85.6868 182.306 82.5871 181.591C79.4874 180.875 76.7752 180.09 74.5001 179.375C72.225 178.66 70.387 178.074 69.1352 177.627L67.6748 177.13C67.5082 177.071 67.3345 177.034 67.1582 177.021Z" fill="#263238"/>
<path d="M113.128 78.9827L100.937 76.9957C100.937 76.9957 100.292 82.1023 91.9959 82.2712C82.4683 82.4699 75.802 74.3232 75.802 74.3232C75.802 74.3232 54.6804 80.4233 50.5176 83.5429C46.3549 86.6624 59.9459 151.786 59.9459 151.786L61.1778 171.189C61.1778 171.189 58.4159 174.646 58.4159 178.014C58.4985 179.856 57.905 181.665 56.7468 183.101C82.1306 190.224 109.581 196.582 132.759 189.698C132.759 189.698 132.183 178.252 130.841 175.133C129.5 172.013 129.749 171.725 129.749 171.725L125.944 137.768L122.297 104.734L113.128 78.9827Z" fill="#455A64"/>
<path d="M113.127 78.9824C113.127 78.9824 119.148 80.8204 122.645 84.6155C126.142 88.4106 133.881 101.584 133.881 101.584L127.145 123.362L117.399 118.643L113.127 78.9824Z" fill="#455A64"/>
<path d="M120.648 103.591C120.952 104.591 121.168 105.614 121.294 106.651C121.632 108.549 122.039 111.182 122.447 114.093C122.854 117.003 123.182 119.656 123.371 121.574C123.519 122.606 123.575 123.65 123.539 124.693C123.284 123.681 123.104 122.652 123.003 121.613C122.705 119.557 122.337 116.994 121.94 114.162C121.543 111.331 121.215 108.767 120.946 106.701C120.764 105.674 120.664 104.634 120.648 103.591Z" fill="#263238"/>
<path d="M86.561 124.683C86.518 125.372 86.3397 126.046 86.0363 126.666C85.733 127.285 85.3104 127.84 84.7929 128.296C84.2753 128.753 83.6729 129.103 83.02 129.327C82.367 129.551 81.6764 129.644 80.9875 129.601C80.2737 129.561 79.5758 129.373 78.938 129.05C78.3002 128.727 77.7363 128.275 77.2818 127.723C75.8313 125.935 73.2184 123.391 69.9797 123.193C64.9426 122.875 61.1773 126.69 60.8197 132.392C60.462 138.095 63.7306 142.327 68.7676 142.655C72.0163 142.854 74.9173 140.668 76.5765 139.059C77.345 138.341 78.3111 137.871 79.3499 137.708C80.3887 137.546 81.4524 137.698 82.4035 138.147C83.3546 138.595 84.1493 139.318 84.6851 140.223C85.2208 141.127 85.4728 142.172 85.4086 143.222L83.1732 178.799L162.345 182.176L164.063 144.761C164.109 144.079 164.289 143.413 164.594 142.801C164.899 142.189 165.323 141.644 165.841 141.198C166.358 140.751 166.96 140.412 167.61 140.2C168.26 139.988 168.945 139.907 169.627 139.963C170.318 140.013 170.991 140.211 171.6 140.544C172.208 140.876 172.738 141.336 173.154 141.89C174.604 143.669 176.502 146.391 180.645 146.262C186.318 146.073 189.447 142.765 189.805 137.062C190.162 131.359 186.894 127.127 181.857 126.799C178.608 126.6 175.697 128.657 174.048 130.247C173.536 130.758 172.924 131.16 172.251 131.426C171.578 131.693 170.857 131.819 170.134 131.796C167.243 131.618 164.54 129.422 164.719 126.531L166.07 94.7391L87.6539 91.4507L86.561 124.683Z" fill="#B41FA5"/>
<path d="M48.3119 85.2715C48.3119 85.2715 43.1557 96.4185 42.6689 100.035C42.2516 102.936 39.0426 139.933 38.7545 145.368C38.4664 150.802 36.6582 162.148 43.5332 166.062C48.2722 168.765 72.1656 172.629 70.7449 172.411C73.1691 167.692 69.8806 164.671 74.2321 160.717L57.9885 149.004L61.1875 109.572L48.3119 85.2715Z" fill="#AE7461"/>
<path d="M48.9878 154.538C49.8213 152.885 51.1107 151.506 52.7034 150.564C54.212 149.5 55.9872 148.877 57.8299 148.766C56.1319 149.318 54.4995 150.054 52.9618 150.961C51.5064 152 50.1733 153.2 48.9878 154.538Z" fill="#6F4439"/>
<path d="M76.1294 160.747C76.1294 160.747 78.782 158.373 80.8683 158.144C82.9547 157.916 85.7166 158.532 86.2431 158.224C86.7697 157.916 87.952 156.634 88.8362 157.588C89.7204 158.542 90.9722 162.088 86.6902 163.39L83.7097 163.588C83.9609 165.013 84.423 166.393 85.0808 167.682C85.8954 168.814 96.9232 180.895 96.9232 180.895C96.9232 180.895 98.2843 182.077 97.7379 183.389C97.1914 184.7 94.4196 184.164 94.4196 184.164C93.9093 184.678 93.2784 185.057 92.5842 185.265C91.8901 185.473 91.1549 185.505 90.4456 185.356C89.3393 185.063 88.2695 184.647 87.2565 184.114C86.5918 184.699 85.7531 185.049 84.8697 185.11C83.9863 185.171 83.1074 184.94 82.3685 184.452C79.696 182.723 68.708 170.94 68.708 170.94L72.682 160.618L76.1294 160.747Z" fill="#AE7461"/>
<path d="M85.9951 176.405C86.1143 176.305 87.7735 178.233 90.0883 180.309C92.4031 182.385 94.5491 183.786 94.4597 183.905C93.9316 183.72 93.438 183.448 92.9993 183.101C91.8661 182.372 90.79 181.558 89.7803 180.667C88.7762 179.767 87.8367 178.797 86.9688 177.766C86.577 177.364 86.2487 176.905 85.9951 176.405Z" fill="#6F4439"/>
<path d="M81.1372 179.286C81.2465 179.177 82.4685 180.458 84.227 181.69C85.3752 182.354 86.4058 183.203 87.277 184.204C86.122 183.574 85.0132 182.864 83.9587 182.078C82.8285 181.361 81.8661 180.408 81.1372 179.286Z" fill="#6F4439"/>
<path d="M35.3169 124.505L59.4588 129.105L66.4828 106.711L60.7404 80.0957C60.7404 80.0957 47.8945 80.5626 43.6722 91.0738C39.4498 101.585 35.3169 124.505 35.3169 124.505Z" fill="#455A64"/>
<path d="M156.414 98.8721C156.414 98.8721 159.265 98.2462 157.854 92.2555C156.97 88.5001 154.655 90.6659 154.655 90.6659C154.389 90.3991 154.062 90.2007 153.703 90.0876C153.343 89.9745 152.962 89.95 152.591 90.0164C152.22 90.0828 151.871 90.238 151.573 90.4687C151.275 90.6995 151.037 90.9989 150.88 91.3415L150.562 90.9739C150.562 90.9739 148.823 88.053 146.32 90.8547C145.825 90.6344 145.274 90.5706 144.741 90.6718C144.208 90.773 143.719 91.0344 143.339 91.421C142.127 92.8118 144.094 95.9513 144.094 95.9513C144.094 95.9513 144.502 100.561 145.734 100.74C146.111 100.797 146.497 100.724 146.828 100.533C147.158 100.341 147.414 100.043 147.552 99.6868C147.68 98.6089 147.737 97.5235 147.721 96.4381C147.721 96.4381 148.049 100.462 148.863 100.78C150.324 101.326 151.744 101.058 151.218 96.1897C151.218 96.1897 151.556 99.8159 152.34 100.164C153.125 100.511 154.268 99.9352 154.784 98.584C155.094 97.7881 155.21 96.9299 155.122 96.0804C155.122 96.0804 154.655 99.5278 156.414 98.8721Z" fill="#AE7461"/>
<path d="M154.675 90.8447C154.623 91.9423 154.663 93.0423 154.794 94.1332C154.772 95.2329 154.838 96.3326 154.993 97.4216C155.283 96.3441 155.363 95.2212 155.232 94.1133C155.244 92.9992 155.056 91.8919 154.675 90.8447Z" fill="#6F4439"/>
<path d="M150.761 91.2817C150.77 92.3196 150.853 93.3555 151.01 94.3815C151.023 95.4174 151.119 96.4506 151.298 97.4712C151.678 95.3973 151.493 93.2592 150.761 91.2817Z" fill="#6F4439"/>
<path d="M146.131 90.7954C146.022 90.855 146.717 92.1863 147.125 93.9647C147.532 95.743 147.532 97.2332 147.661 97.2432C147.931 96.128 147.893 94.9607 147.552 93.8653C147.36 92.7338 146.869 91.674 146.131 90.7954Z" fill="#6F4439"/>
<path d="M60.234 102.161C60.3012 102.515 60.3312 102.874 60.3234 103.234C60.3234 103.93 60.3234 104.943 60.3234 106.215C60.3234 108.698 60.2539 112.176 60.1148 115.931C59.9757 119.686 59.8565 123.024 59.7571 125.637C59.7074 126.79 59.6677 127.773 59.6379 128.618C59.6472 128.983 59.6071 129.347 59.5187 129.701C59.452 129.344 59.4221 128.981 59.4293 128.618C59.4293 127.922 59.4293 126.919 59.4293 125.637C59.4293 123.154 59.4988 119.676 59.6379 115.921C59.777 112.166 59.8962 108.827 59.9956 106.215C60.0452 105.062 60.085 104.079 60.1148 103.234C60.1036 102.873 60.1437 102.511 60.234 102.161Z" fill="#263238"/>
</svg>
