<svg width="293" height="200" viewBox="0 0 293 200" fill="none" xmlns="http://www.w3.org/2000/svg">
<path d="M228.473 55.8187L238.161 60.6931L239.18 58.6536L251.611 34.0779L226.821 21.27L221.845 30.8861C221.578 31.3002 221.162 31.595 220.683 31.7091C220.204 31.8231 219.699 31.7475 219.275 31.498C218.82 31.2533 218.479 30.8394 218.327 30.3457C218.055 29.3389 217.4 28.4787 216.501 27.9493C215.721 27.6376 214.853 27.6317 214.069 27.9326C213.285 28.2336 212.643 28.8194 212.272 29.5729C211.901 30.3264 211.828 31.192 212.068 31.997C212.307 32.8019 212.842 33.4868 213.564 33.9148C214.032 34.1755 214.559 34.3124 215.094 34.3124C215.629 34.3124 216.156 34.1755 216.624 33.9148C216.85 33.8222 217.093 33.7789 217.338 33.7877C217.582 33.7965 217.822 33.8572 218.041 33.9657C218.259 34.0628 218.455 34.2019 218.618 34.3751C218.782 34.5483 218.91 34.7522 218.994 34.975C219.078 35.1977 219.118 35.435 219.11 35.6731C219.102 35.9112 219.047 36.1453 218.949 36.3621L213.31 47.9565L217.032 49.8431L222.64 52.7289C222.856 52.8362 223.048 52.9849 223.205 53.1667C223.363 53.3484 223.483 53.5596 223.559 53.788C223.635 54.0164 223.665 54.2576 223.647 54.4976C223.629 54.7376 223.564 54.9717 223.456 55.1865C223.313 55.3949 223.128 55.5719 222.915 55.7069C222.701 55.8418 222.462 55.9319 222.212 55.9717C221.722 56.0782 221.258 56.2832 220.85 56.5742C220.442 56.8651 220.097 57.2361 219.836 57.6645C219.03 59.1737 219.734 60.9072 221.529 61.8658C223.323 62.8243 225.291 62.447 226.097 60.9276C226.294 60.4404 226.391 59.9184 226.383 59.3928C226.374 58.8673 226.259 58.3488 226.046 57.8684C225.955 57.6503 225.913 57.4146 225.923 57.1783C225.934 56.942 225.997 56.7111 226.107 56.502C226.214 56.298 226.361 56.1177 226.539 55.9721C226.717 55.8264 226.923 55.7184 227.144 55.6546C227.365 55.5907 227.597 55.5723 227.825 55.6005C228.054 55.6288 228.274 55.703 228.473 55.8187Z" fill="#F5F5F5"/>
<path d="M11.4932 174.935L11.585 189.507H14.6442L51.6709 189.333L51.8238 151.827L37.262 151.756C36.6037 151.691 35.9963 151.373 35.5682 150.869C35.1401 150.365 34.9247 149.714 34.9676 149.054C34.9705 148.711 35.0414 148.372 35.1762 148.057C35.311 147.742 35.5069 147.457 35.7527 147.218C36.7938 146.279 37.4237 144.967 37.5067 143.568C37.5067 141.161 35.5998 139.489 32.9791 139.55C32.4097 139.504 31.837 139.578 31.2981 139.768C30.7593 139.957 30.2662 140.258 29.8509 140.65C29.4357 141.042 29.1074 141.517 28.8874 142.045C28.6674 142.572 28.5605 143.139 28.5738 143.71C28.5412 144.428 28.6928 145.142 29.0141 145.785C29.3354 146.427 29.8157 146.977 30.4093 147.381C30.6568 147.598 30.8563 147.865 30.995 148.163C31.1337 148.462 31.2086 148.786 31.2149 149.115C31.2314 149.435 31.1845 149.754 31.0769 150.056C30.9693 150.357 30.8031 150.634 30.5879 150.871C30.3728 151.108 30.1129 151.3 29.8232 151.436C29.5336 151.572 29.2198 151.65 28.9001 151.664L11.6156 151.97V157.589V166.073C11.6641 166.576 11.5431 167.08 11.2719 167.506C11.0007 167.932 10.5949 168.255 10.1189 168.424C9.643 168.593 9.12427 168.598 8.64526 168.438C8.16625 168.278 7.75448 167.962 7.47542 167.542C7.04862 167.02 6.52041 166.59 5.92274 166.278C5.32506 165.966 4.67033 165.778 3.99811 165.726C1.68331 165.726 0.0415285 167.593 0.000738989 170.325C-0.0400505 173.058 1.61193 175.19 3.91653 175.22C4.61249 175.155 5.28869 174.953 5.90639 174.625C6.52409 174.298 7.07115 173.852 7.51621 173.313C7.71957 173.071 7.9741 172.877 8.2615 172.744C8.5489 172.612 8.86203 172.545 9.17838 172.549C9.48969 172.544 9.79863 172.603 10.0862 172.722C10.3738 172.842 10.634 173.019 10.8508 173.242C11.0676 173.465 11.2364 173.731 11.3468 174.022C11.4573 174.313 11.5071 174.624 11.4932 174.935Z" fill="#F5F5F5"/>
<path d="M280.48 125.08C279.938 124.663 279.253 124.478 278.575 124.564C277.897 124.65 277.28 125 276.86 125.539C276.656 125.817 276.514 126.136 276.444 126.474C276.373 126.811 276.376 127.16 276.452 127.497C276.654 128.173 276.716 128.884 276.634 129.586C276.551 130.287 276.326 130.964 275.973 131.576C274.545 133.513 271.894 133.666 269.599 131.963C267.305 130.26 266.632 127.721 268.059 125.784C268.54 125.256 269.124 124.833 269.775 124.54C270.425 124.247 271.129 124.091 271.843 124.081C272.19 124.047 272.526 123.939 272.827 123.763C273.128 123.587 273.387 123.347 273.586 123.061C273.901 122.605 274.055 122.057 274.026 121.504C273.996 120.95 273.784 120.422 273.423 120.002L263.501 113.006L260.819 111.15L250.479 125.661C250.297 125.944 250.174 126.259 250.116 126.59C250.057 126.921 250.065 127.26 250.139 127.587C250.213 127.915 250.352 128.224 250.547 128.497C250.742 128.771 250.989 129.003 251.274 129.179C251.559 129.375 251.88 129.509 252.219 129.574C252.558 129.639 252.906 129.633 253.243 129.557C253.953 129.301 254.716 129.23 255.462 129.349C256.207 129.469 256.91 129.775 257.505 130.24C259.697 132.055 259.963 134.319 258.423 136.511C256.883 138.704 254.344 139.336 252.243 137.888C251.11 136.964 250.379 135.638 250.204 134.186C250.119 133.7 249.911 133.245 249.598 132.863C249.285 132.482 248.879 132.188 248.419 132.011C247.959 131.833 247.461 131.778 246.973 131.85C246.485 131.922 246.024 132.119 245.635 132.422C245.582 132.528 245.52 132.631 245.452 132.728L236.57 144.965L269.028 167.827L292.635 133.819L280.48 125.08Z" fill="#EBEBEB"/>
<path d="M21.5987 37.872C21.0529 38.2834 20.6926 38.8946 20.597 39.5714C20.5014 40.2483 20.6783 40.9354 21.0889 41.4819C21.3022 41.7516 21.5711 41.9722 21.8772 42.1288C22.1834 42.2854 22.5197 42.3743 22.8632 42.3894C23.5743 42.3724 24.2813 42.5012 24.9407 42.7677C25.6001 43.0343 26.1979 43.433 26.6974 43.9394C28.1964 45.8157 27.656 48.3957 25.4024 50.1904C23.1487 51.9851 20.5178 51.9342 19.029 50.0578C18.6508 49.4571 18.3987 48.7857 18.2883 48.0845C18.1779 47.3832 18.2113 46.6668 18.3866 45.9789C18.4474 45.6381 18.4352 45.2883 18.3508 44.9525C18.2664 44.6168 18.1118 44.3028 17.8971 44.0312C17.5356 43.5933 17.0373 43.2898 16.4824 43.1696C15.9274 43.0494 15.3482 43.1194 14.8379 43.3684L5.48688 51.1184L2.98853 53.219L14.277 67.0059C14.5029 67.2548 14.7759 67.4564 15.0802 67.599C15.3846 67.7416 15.7142 67.8223 16.05 67.8366C16.3858 67.8508 16.7211 67.7982 17.0364 67.6819C17.3517 67.5656 17.6408 67.3878 17.8869 67.1589C18.1482 66.9364 18.3603 66.6619 18.5095 66.3529C18.6588 66.0439 18.7419 65.7071 18.7537 65.3641C18.6985 64.6055 18.8371 63.8454 19.1564 63.155C19.4757 62.4647 19.9652 61.8669 20.579 61.4177C22.9142 59.776 25.1066 60.1023 26.8708 62.1723C27.2925 62.594 27.6218 63.099 27.8376 63.6549C28.0533 64.2109 28.1509 64.8058 28.124 65.4016C28.0972 65.9974 27.9465 66.581 27.6815 67.1153C27.4166 67.6496 27.0432 68.1229 26.5853 68.5049C25.4057 69.3531 23.9463 69.718 22.5063 69.5247C22.1441 69.4833 21.7774 69.5143 21.4273 69.6158C21.0772 69.7174 20.7507 69.8874 20.4668 70.1161C19.9609 70.4922 19.5977 71.029 19.4365 71.6384C19.2754 72.2479 19.3258 72.894 19.5797 73.471C19.6688 73.5484 19.7508 73.6337 19.8244 73.726L29.3386 85.5141L59.9307 60.2042L33.1626 28.4292L21.5987 37.872Z" fill="#EBEBEB"/>
<path d="M274.218 199.235C274.218 199.388 223.13 199.5 160.12 199.5C97.1104 199.5 46.0725 199.388 46.0725 199.235C46.0725 199.082 97.1512 198.97 160.171 198.97C223.191 198.97 274.218 199.082 274.218 199.235Z" fill="#263238"/>
<path d="M148.169 45.1935L151.697 37.5047C149.192 31.1921 149.138 24.1709 151.547 17.8209C153.955 11.4709 158.652 6.25123 164.713 3.1878C170.774 0.124359 177.762 -0.561352 184.303 1.26542C190.844 3.0922 196.466 7.29937 200.063 13.0601C203.66 18.8208 204.972 25.7185 203.742 32.3976C202.511 39.0767 198.828 45.0542 193.414 49.1553C188.001 53.2564 181.25 55.1847 174.487 54.561C167.724 53.9374 161.439 50.807 156.867 45.785L148.169 45.1935Z" fill="white"/>
<path d="M148.169 45.1936H148.76L150.443 45.2854L156.887 45.6525L156.765 45.836C156.751 45.8076 156.748 45.7745 156.757 45.7441C156.767 45.7136 156.788 45.688 156.816 45.6729C156.838 45.6555 156.865 45.646 156.893 45.646C156.92 45.646 156.947 45.6555 156.969 45.6729C160.008 48.973 163.816 51.4706 168.054 52.9436C172.689 54.5485 177.675 54.8591 182.474 53.8422C187.273 52.8252 191.704 50.5191 195.291 47.1719C199.856 42.9427 202.809 37.258 203.644 31.0911C204.48 24.9243 203.145 18.6588 199.869 13.3676L198.972 11.9705L197.952 10.6653C197.274 9.80708 196.545 8.98984 195.77 8.21787C191.345 3.92421 185.583 1.27449 179.443 0.709195C173.303 0.143894 167.154 1.69707 162.019 5.11052C156.884 8.52397 153.072 13.5921 151.216 19.4724C149.361 25.3526 149.573 31.6909 151.819 37.4334V37.5353C150.657 39.9827 149.78 41.8794 149.148 43.1847L148.434 44.6633C148.271 44.9998 148.179 45.1732 148.179 45.1732C148.179 45.1732 148.24 45.0202 148.383 44.6939L149.025 43.2255C149.617 41.8794 150.484 39.9419 151.595 37.4334V37.5252C149.892 33.3273 149.272 28.7689 149.79 24.2686C150.626 17.2679 154.116 10.8547 159.54 6.35068C164.964 1.84666 171.909 -0.404949 178.944 0.0599706C185.423 0.554661 191.525 3.29573 196.198 7.80999C196.99 8.59668 197.732 9.43104 198.421 10.3084L199.441 11.634L200.349 13.0616C202.946 17.2482 204.366 22.0582 204.458 26.9842C204.55 31.9103 203.312 36.77 200.873 41.0508C198.433 45.3317 194.885 48.8751 190.6 51.3074C186.315 53.7397 181.454 54.9708 176.528 54.8709C173.587 54.835 170.672 54.3148 167.901 53.3311C163.625 51.8095 159.797 49.2437 156.765 45.8666L156.969 45.7238C156.984 45.7538 156.987 45.7884 156.978 45.8206C156.968 45.8527 156.947 45.8801 156.918 45.8972H156.847L150.331 45.3771L148.689 45.2344C148.515 45.2347 148.341 45.2211 148.169 45.1936Z" fill="#263238"/>
<path d="M176.14 39.1262L161.843 29.5712L165.188 24.5745L174.774 30.9887L186.704 15.2031L191.487 18.8232L176.14 39.1262Z" fill="#6A3D88"/>
<path d="M76.6647 48.9155C74.4553 44.5382 72.6234 39.9805 71.1887 35.2918C69.7609 30.5757 69.5297 25.5782 70.5157 20.7504C70.6789 20.0263 72.2799 15.1112 73.0243 15.0908C73.5545 15.0908 72.7591 19.5675 73.0753 19.9958C76.1345 24.0135 77.5213 29.1734 77.7558 34.2109C77.9385 39.1377 77.5725 44.0696 76.6647 48.9155Z" fill="#263238"/>
<path d="M109.021 86.9108C108.623 83.4743 106.706 66.2815 106.737 66.2815C106.767 66.2815 118.362 63.5792 117.648 51.8114C117.301 46.1213 115.609 34.4759 113.997 23.9318C113.158 18.4645 110.29 13.5142 105.964 10.0671C101.638 6.61998 96.1722 4.92926 90.6555 5.3318L89.5236 5.41336C77.2868 7.03475 71.8924 18.2825 73.8503 30.4275L82.671 86.9108L103.433 85.8911L109.021 86.9108Z" fill="#FFBF9D"/>
<path d="M106.737 66.2306C101.301 66.6157 95.8683 65.4336 91.0837 62.8247C91.0837 62.8247 95.3972 71.2885 107.063 69.3612L106.737 66.2306Z" fill="#FF9A6C"/>
<path d="M110.479 34.9046C110.516 35.3415 110.382 35.7757 110.104 36.1147C109.826 36.4537 109.426 36.6708 108.99 36.7197C108.778 36.7543 108.56 36.7454 108.351 36.6938C108.141 36.6422 107.945 36.5489 107.772 36.4193C107.6 36.2898 107.455 36.1268 107.348 35.9401C107.24 35.7534 107.171 35.5469 107.145 35.3329C107.105 34.8954 107.238 34.4598 107.517 34.1202C107.796 33.7805 108.197 33.5641 108.633 33.5178C108.846 33.4832 109.064 33.492 109.273 33.5436C109.483 33.5952 109.679 33.6886 109.852 33.8181C110.024 33.9476 110.168 34.1106 110.276 34.2973C110.384 34.484 110.453 34.6906 110.479 34.9046Z" fill="#263238"/>
<path d="M111.835 28.9488C111.642 29.1834 110.306 28.337 108.501 28.4696C106.696 28.6021 105.442 29.6116 105.217 29.4077C104.993 29.2037 105.299 28.8978 105.839 28.439C106.585 27.8398 107.496 27.4839 108.45 27.4192C109.39 27.3489 110.329 27.5772 111.132 28.0718C111.713 28.4593 111.937 28.8367 111.835 28.9488Z" fill="#263238"/>
<path d="M94.0612 36.9441C94.0983 37.3826 93.9622 37.8182 93.682 38.1575C93.4018 38.4968 92.9998 38.7128 92.5622 38.7593C92.3503 38.7909 92.1343 38.7799 91.9267 38.727C91.7191 38.6741 91.5242 38.5803 91.3533 38.4512C91.1823 38.3221 91.0389 38.1602 90.9313 37.9749C90.8237 37.7897 90.7541 37.5849 90.7267 37.3724C90.6867 36.935 90.8205 36.4994 91.0991 36.1597C91.3776 35.8201 91.7787 35.6037 92.2155 35.5573C92.4283 35.5228 92.6459 35.5315 92.8552 35.5832C93.0646 35.6348 93.2613 35.7282 93.4337 35.8577C93.606 35.9872 93.7505 36.1502 93.8583 36.3369C93.9661 36.5236 94.0352 36.7301 94.0612 36.9441Z" fill="#263238"/>
<path d="M94.1839 30.9783C93.9901 31.2128 92.6441 30.3665 90.8392 30.5092C89.0342 30.652 87.7799 31.6411 87.5556 31.4372C87.3313 31.2332 87.6372 30.9375 88.1878 30.4786C88.9255 29.8732 89.8356 29.5163 90.7882 29.4589C91.7292 29.3806 92.6702 29.6096 93.4701 30.1115C94.0615 30.499 94.2757 30.8763 94.1839 30.9783Z" fill="#263238"/>
<path d="M101.689 44.3981C102.619 44.0297 103.592 43.7796 104.585 43.6537C105.044 43.5721 105.472 43.4497 105.534 43.1234C105.532 42.6446 105.39 42.1767 105.126 41.7774L103.494 38.3613C101.23 33.4971 99.5578 29.4793 99.7516 29.3978C99.9453 29.3162 101.944 33.181 104.208 38.0451L105.778 41.4817C106.11 42.0173 106.244 42.6524 106.156 43.2764C106.099 43.4444 106.006 43.5976 105.882 43.7247C105.759 43.8518 105.608 43.9495 105.442 44.0106C105.192 44.0983 104.931 44.1532 104.667 44.1737C103.688 44.3742 102.687 44.4496 101.689 44.3981Z" fill="#263238"/>
<path d="M110.183 21.3419C109.918 21.7906 108.633 21.5152 107.124 21.6682C105.615 21.8211 104.402 22.2596 104.065 21.8721C103.912 21.6784 104.065 21.2399 104.565 20.7912C105.249 20.2315 106.09 19.8968 106.971 19.8327C107.85 19.7445 108.734 19.9335 109.5 20.3731C110.081 20.73 110.316 21.1277 110.183 21.3419Z" fill="#263238"/>
<path d="M94.2245 26.8182C93.9288 27.2465 92.6541 26.8998 91.1653 26.9712C89.6765 27.0426 88.412 27.4199 88.1061 26.9712C87.9633 26.7774 88.1061 26.3491 88.6669 25.9514C89.3757 25.4259 90.232 25.137 91.1143 25.1255C91.9967 25.0855 92.8697 25.3207 93.6126 25.7985C94.1531 26.1962 94.3469 26.6041 94.2245 26.8182Z" fill="#263238"/>
<path d="M75.4511 39.0653C75.2472 38.9939 67.1912 37.2706 68.0376 45.2959C68.884 53.3213 77.5416 51.1084 77.5314 50.8739C77.5212 50.6394 75.4511 39.0653 75.4511 39.0653Z" fill="#FFBF9D"/>
<path d="M73.9828 47.8039C73.9828 47.8039 73.8604 47.9161 73.6361 48.0487C73.3233 48.2143 72.9611 48.2614 72.6163 48.1812C71.7394 47.9569 70.8828 46.6822 70.689 45.2444C70.5965 44.5594 70.6593 43.8624 70.8726 43.2049C70.9206 42.9449 71.0311 42.7004 71.1945 42.4926C71.3579 42.2848 71.5694 42.1198 71.8107 42.0118C71.9672 41.9537 72.1389 41.9513 72.2968 42.0052C72.4548 42.0591 72.5893 42.1659 72.6775 42.3075C72.8101 42.5217 72.7693 42.695 72.8203 42.695C72.8713 42.695 72.9733 42.5421 72.8203 42.2259C72.7572 42.0311 72.6271 41.865 72.4532 41.7569C72.3358 41.6836 72.2048 41.6349 72.0681 41.6139C71.9313 41.5929 71.7917 41.5999 71.6578 41.6345C71.3352 41.7334 71.0436 41.914 70.8113 42.1588C70.579 42.4035 70.414 42.7042 70.3321 43.0315C70.0635 43.7611 69.9761 44.5449 70.0772 45.3157C70.3015 46.9269 71.2907 48.375 72.4838 48.5687C72.7071 48.6068 72.936 48.5956 73.1545 48.5357C73.3729 48.4758 73.5756 48.3687 73.7483 48.222C73.993 47.9977 74.0134 47.8141 73.9828 47.8039Z" fill="#FF9A6C"/>
<path d="M107.257 11.1955C108.47 10.3288 104.096 6.57612 100.741 5.4952C95.6422 3.85342 88.1573 3.35373 83.854 5.12808C78.6839 7.25933 74.5438 10.4307 72.4125 15.6008C70.3971 20.8572 69.813 26.5544 70.7198 32.1104C70.8509 33.8231 71.4351 35.4702 72.4125 36.8827C73.7382 38.5245 76.0122 39.3913 76.1958 41.8489C76.2406 42.75 76.6402 43.5968 77.3073 44.2044C78.9592 45.5913 80.5806 43.9189 81.2434 42.3587C82.6405 39.014 82.406 35.2206 82.151 31.6311C82.1081 29.0507 81.6431 26.4948 80.7744 24.0646C80.2237 22.7696 79.4487 21.5765 78.9796 20.261C78.6989 19.6146 78.5626 18.9148 78.5802 18.2103C78.5978 17.5058 78.7689 16.8136 79.0816 16.1821C79.2531 15.9205 79.4476 15.6748 79.6629 15.4479C80.6671 14.3434 81.9478 13.5268 83.3728 13.0823C84.7979 12.6378 86.3157 12.5813 87.7698 12.9189C92.4708 13.9998 100.455 15.4988 102.291 13.7347C104.942 11.1955 105.462 9.65572 105.462 9.65572L107.257 11.1955Z" fill="#263238"/>
<path d="M102.964 49.2319C102.872 48.9464 101.444 49.2319 99.9554 48.5997C98.4666 47.9675 97.6508 46.7948 97.3755 46.9273C97.2531 46.9885 97.2837 47.4066 97.61 47.9471C98.0716 48.6782 98.7485 49.2482 99.5475 49.5787C100.345 49.9082 101.227 49.976 102.066 49.7724C102.699 49.6398 103.015 49.3645 102.964 49.2319Z" fill="#263238"/>
<path d="M81.7634 28.9488C79.8406 29.1877 77.8935 29.15 75.9815 28.8366C72.8101 28.5103 70.2913 27.8169 70.3423 27.6027C70.3933 27.3886 72.8917 27.98 76.0426 28.3165C79.1936 28.6531 81.7634 28.7856 81.7634 28.9488Z" fill="#EBEBEB"/>
<path d="M63.0002 128.424L45.5423 127.527L62.1028 113.822L48.8462 89.3481C48.8462 89.3481 21.0889 121.806 18.6722 126.426C15.9699 131.606 13.6754 140.019 21.1603 144.139C26.361 146.994 67.4666 146.698 67.4666 146.698L63.0002 128.424Z" fill="#FFBF9D"/>
<path d="M86.7295 192.78V199.235L137.4 199.979L138.767 179.044L86.7295 192.78Z" fill="#263238"/>
<path d="M133.138 72.3799C133.138 72.3799 166.942 101.891 167.472 101.177C168.003 100.463 178.638 72.3799 178.638 72.3799L197.911 72.7674C197.911 72.7674 187.714 115.331 181.453 120.93C175.192 126.528 168.196 124.713 163.393 123.764C158.59 122.816 135.3 101.432 135.3 101.432L133.138 72.3799Z" fill="#FFBF9D"/>
<path d="M80.9885 71.8289L53.894 81.0065L59.8085 102.737L71.7293 137.714L85.6895 193.045L164.148 173.181L141.714 103.553L133.148 72.3898L125.816 69.6772L112.56 71.7167L108.012 71.3904C108.012 71.3904 109.092 77.1111 98.3954 77.5088C91.9609 77.7332 80.9885 71.8289 80.9885 71.8289Z" fill="#E0E0E0"/>
<path d="M139.889 110.365L149.433 116.331L160.212 93.0706C160.212 93.0706 139.215 71.5133 132.353 70.0551C125.49 68.5969 122.991 70.7281 122.991 70.7281L139.889 110.365Z" fill="#E0E0E0"/>
<path d="M53.119 126.752L29.094 110.518C29.094 110.518 45.0325 89.1037 47.2963 86.4829C49.2339 84.1512 51.624 82.2363 54.3223 80.854L64.1628 115.301L53.119 126.752Z" fill="#E0E0E0"/>
<path d="M57.7078 95.5279C57.6058 95.5279 59.9308 102.982 62.8881 112.099C65.8453 121.215 68.3131 128.578 68.4049 128.547C68.4966 128.516 66.1818 121.103 63.2246 111.986C60.2674 102.87 57.7996 95.4973 57.7078 95.5279Z" fill="#263238"/>
<path d="M139.888 137.408L116.924 137.306V142.313L117.209 199.725L179.413 199.969L179.515 177.382C179.515 175.343 181.698 173.854 184.002 173.823C185.144 173.816 186.244 174.26 187.061 175.057C188.673 176.682 190.833 177.645 193.119 177.759C194.03 177.78 194.936 177.611 195.777 177.261C196.619 176.911 197.378 176.389 198.007 175.728C198.635 175.067 199.117 174.283 199.424 173.424C199.731 172.566 199.855 171.653 199.788 170.744C199.716 166.665 197.361 164.228 192.884 163.911C189.611 163.677 188 165.543 186.766 166.756C186.394 167.144 185.95 167.454 185.458 167.669C184.966 167.884 184.437 168 183.9 168.011C183.385 168.054 182.867 167.995 182.374 167.837C181.882 167.68 181.426 167.426 181.031 167.092C180.637 166.758 180.313 166.349 180.077 165.888C179.842 165.428 179.699 164.926 179.658 164.411V137.806H169.879L154.583 137.653C153.539 137.689 152.524 137.31 151.76 136.599C150.995 135.888 150.544 134.903 150.504 133.86C150.514 133.339 150.64 132.827 150.872 132.361C151.105 131.896 151.439 131.488 151.85 131.168C153.206 130.076 155.123 128.108 155.164 125.834C155.225 122.245 152.105 119.716 147.547 119.645C142.988 119.573 139.786 122.041 139.725 125.62C139.725 127.935 141.53 129.924 142.856 131.045C143.255 131.379 143.575 131.797 143.792 132.27C144.009 132.743 144.117 133.258 144.11 133.778C144.022 134.815 143.53 135.777 142.74 136.455C141.951 137.134 140.927 137.476 139.888 137.408Z" fill="#455A64"/>
<path d="M217.582 137.756C216.536 137.688 215.505 138.036 214.713 138.723C213.921 139.41 213.432 140.381 213.351 141.427C213.345 141.947 213.456 142.463 213.675 142.936C213.893 143.408 214.215 143.826 214.615 144.16C215.931 145.281 217.786 147.27 217.746 149.585C217.684 153.164 214.442 155.632 209.924 155.56C205.407 155.489 202.246 152.96 202.307 149.37C202.307 147.066 204.255 145.128 205.611 144.037C206.021 143.716 206.355 143.308 206.59 142.843C206.824 142.377 206.953 141.866 206.967 141.345C206.947 140.481 206.632 139.65 206.076 138.988C205.52 138.326 204.755 137.874 203.908 137.705L184.798 137.776L179.699 137.847L179.658 164.412C179.742 165.448 180.233 166.41 181.025 167.085C181.816 167.76 182.843 168.093 183.88 168.011C184.417 168.001 184.946 167.885 185.438 167.67C185.93 167.454 186.374 167.144 186.746 166.757C187.949 165.543 189.56 163.698 192.864 163.912C197.341 164.228 199.696 166.686 199.768 170.744C199.835 171.653 199.711 172.566 199.404 173.425C199.097 174.283 198.615 175.068 197.986 175.729C197.358 176.389 196.599 176.911 195.757 177.261C194.916 177.611 194.01 177.781 193.099 177.76C190.813 177.646 188.653 176.682 187.041 175.058C186.224 174.26 185.124 173.817 183.982 173.824C181.881 173.824 179.903 175.078 179.546 176.883C179.578 177.054 179.595 177.228 179.597 177.403L179.393 200L241.862 199.756L241.128 137.898L217.582 137.756Z" fill="#6A3D88"/>
<path d="M217.287 138L241.128 137.857V133.095L240.843 75.6939L179.454 75.4492L179.342 98.0364C179.342 100.076 177.19 101.565 174.916 101.595C173.796 101.591 172.722 101.152 171.918 100.372C170.34 98.7463 168.205 97.7774 165.943 97.6591C161.996 97.7203 159.294 100.616 159.355 104.675C159.416 108.733 161.752 111.191 166.177 111.517C169.41 111.752 170.99 109.876 172.194 108.662C172.555 108.275 172.99 107.965 173.474 107.75C173.957 107.534 174.479 107.418 175.008 107.408C176.04 107.332 177.059 107.668 177.843 108.343C178.627 109.018 179.111 109.976 179.189 111.007L179.689 137.816H188.866H202.755C203.273 137.796 203.789 137.878 204.274 138.058C204.76 138.238 205.205 138.512 205.584 138.864C205.963 139.217 206.269 139.641 206.483 140.112C206.698 140.583 206.817 141.092 206.834 141.61C206.762 142.141 206.579 142.651 206.296 143.106C206.013 143.561 205.637 143.951 205.192 144.251C204.349 144.894 203.65 145.706 203.139 146.635C202.628 147.563 202.316 148.589 202.225 149.645C202.164 153.225 205.284 155.764 209.751 155.835C214.217 155.907 217.705 153.337 217.766 149.717C217.766 147.402 215.951 145.26 214.645 144.139C214.251 143.835 213.932 143.444 213.714 142.997C213.497 142.549 213.386 142.057 213.391 141.559C213.401 141.065 213.511 140.579 213.715 140.13C213.918 139.68 214.211 139.277 214.575 138.944C214.94 138.611 215.368 138.356 215.834 138.193C216.3 138.031 216.794 137.965 217.287 138Z" fill="#455A64"/>
<g opacity="0.3">
<path d="M141.928 106.775C141.779 106.277 141.532 105.813 141.203 105.41C140.874 105.007 140.468 104.673 140.009 104.428C139.551 104.183 139.048 104.03 138.53 103.98C138.013 103.929 137.49 103.982 136.992 104.134C136.478 104.274 135.999 104.52 135.584 104.855C135.17 105.19 134.83 105.608 134.586 106.082C133.75 107.611 132.689 109.885 129.487 110.426C125.143 111.17 122.278 109.243 121.186 105.154C120.095 101.065 121.961 97.4547 125.745 96.4452C127.981 96.0213 130.294 96.4898 132.189 97.7504C133.146 98.3401 134.297 98.5271 135.391 98.2705C137.574 97.6892 139.307 95.6803 138.757 93.6001L134.79 77.4066L133.077 70.6968L73.2588 85.9928L88.616 148.503L110.795 143.323C111.831 143.094 112.738 142.472 113.322 141.586C113.907 140.701 114.123 139.623 113.926 138.581C113.804 138.057 113.57 137.565 113.241 137.139C112.912 136.714 112.495 136.364 112.019 136.113C110.469 135.297 108.175 133.727 107.624 131.371C106.778 127.731 109.266 124.457 113.64 123.427C118.015 122.397 121.707 124.213 122.553 127.863C123.104 130.209 121.747 132.636 120.717 134.063C120.403 134.5 120.186 134.999 120.08 135.527C119.975 136.054 119.983 136.598 120.106 137.122C120.323 137.976 120.822 138.73 121.521 139.265C122.221 139.8 123.08 140.083 123.96 140.07L143.937 134.971L148.628 133.727L141.928 106.775Z" fill="black"/>
</g>
<g opacity="0.3">
<path d="M179.097 75.5004C183.401 73.7261 187.969 77.3665 192.272 75.5922C192.893 75.2468 193.614 75.1278 194.312 75.2557C194.693 75.431 195.025 75.6961 195.281 76.0282C195.537 76.3603 195.708 76.7496 195.78 77.1626C196.053 78.2886 196.087 79.4592 195.88 80.5992C195.673 81.7391 195.229 82.8229 194.577 83.7807C193.249 85.6949 191.382 87.1714 189.213 88.0228C187.511 88.8094 185.598 89.0137 183.768 88.604C180.678 87.7271 179.057 78.7534 179.097 75.5004Z" fill="black"/>
</g>
<path d="M178.261 72.6347C178.891 72.2847 179.4 71.7512 179.719 71.1051C180.219 69.7284 184.043 69.0656 184.043 69.0656C184.647 68.7303 185.274 68.4373 185.919 68.1886C186.939 67.8317 188.979 69.2593 188.979 69.2593C191.171 68.0459 191.844 68.6679 193.159 69.5245C193.724 69.8275 194.257 70.1862 194.75 70.5952C194.874 70.4534 195.035 70.3488 195.215 70.293C195.395 70.2372 195.587 70.2324 195.77 70.2791C196.362 70.3582 196.918 70.609 197.369 71.0004C197.82 71.3918 198.147 71.9068 198.309 72.4817C198.906 74.245 199.313 76.0671 199.523 77.9169C199.461 79.4669 197.483 83.2705 197.483 83.2705C197.483 83.2705 195.75 84.3515 194.618 83.8518C193.486 83.3521 194.781 79.8646 194.781 79.8646L193.812 75.1432C193.812 75.1432 192.211 85.4528 191.416 86.6663C190.62 87.8798 188.071 87.686 188.071 87.686C185.532 89.8683 184.329 87.9613 184.329 87.9613C184.329 87.9613 184.012 88.308 182.891 87.8084C181.769 87.3087 179.76 75.4492 179.76 75.4492L176.344 75.8673C176.365 75.2105 176.552 74.5697 176.887 74.0045C177.222 73.4393 177.695 72.9681 178.261 72.6347Z" fill="#FFBF9D"/>
<path d="M189.744 72.4209C189.701 72.6229 189.67 72.8272 189.652 73.0327C189.652 73.461 189.55 74.0525 189.478 74.6847C189.346 76.0818 189.172 78.0192 188.999 80.1505C188.916 81.9728 188.719 83.7882 188.408 85.5857C188.293 86.1263 188.14 86.6579 187.949 87.1765C187.867 87.3626 187.795 87.5533 187.735 87.7476C187.735 87.7476 187.735 87.7476 187.826 87.615C187.918 87.4824 187.949 87.3907 188.03 87.2071C188.256 86.6971 188.437 86.1682 188.571 85.6265C188.924 83.8268 189.142 82.0032 189.223 80.1709C189.407 78.0295 189.55 76.0919 189.642 74.6949L189.744 73.0327C189.769 72.8296 189.769 72.624 189.744 72.4209Z" fill="#FF9A6C"/>
<path d="M184.757 72.4004C184.71 72.6045 184.687 72.8131 184.685 73.0224C184.685 73.4575 184.655 74.0184 184.594 74.705C184.522 76.1224 184.441 78.0906 184.359 80.2626C184.278 82.4346 184.227 84.3415 184.196 85.8201C184.196 86.4932 184.196 87.0642 184.196 87.5027C184.174 87.7095 184.174 87.918 184.196 88.1248C184.242 87.9206 184.266 87.712 184.267 87.5027C184.267 87.0608 184.298 86.5 184.359 85.8201C184.43 84.4027 184.512 82.4346 184.594 80.2626C184.675 78.0906 184.726 76.1326 184.757 74.705C184.757 74.032 184.757 73.4609 184.757 73.0224C184.778 72.8157 184.778 72.6072 184.757 72.4004Z" fill="#FF9A6C"/>
<path d="M73.1977 128.618L40.7292 127.588L36.4973 145.974L71.3112 147.229L73.1977 128.618Z" fill="#FFBF9D"/>
<path d="M26.1772 126.018C26.1772 126.079 27.3092 125.936 29.1243 125.926C31.5111 125.951 33.8946 126.114 36.2625 126.415L43.3292 127.354C44.2368 127.466 44.971 127.547 45.4809 127.588C45.7447 127.626 46.0125 127.626 46.2763 127.588C46.0244 127.507 45.7646 127.452 45.5013 127.425L43.3598 127.078C41.5651 126.793 39.0769 126.375 36.3032 126.059C33.9366 125.755 31.5507 125.625 29.1651 125.671C28.7164 125.671 28.2983 125.722 27.9312 125.753C27.5641 125.783 27.2582 125.814 27.0032 125.855C26.7217 125.871 26.4437 125.926 26.1772 126.018Z" fill="#FF9A6C"/>
<path d="M139.327 104.246C139.18 103.747 138.934 103.283 138.605 102.88C138.276 102.476 137.87 102.143 137.41 101.898C136.951 101.653 136.448 101.502 135.93 101.454C135.411 101.405 134.889 101.46 134.392 101.615C133.879 101.755 133.401 102 132.988 102.336C132.575 102.671 132.237 103.089 131.996 103.563C131.149 105.082 130.099 107.356 126.897 107.907C122.553 108.652 119.687 106.724 118.586 102.625C117.485 98.5256 119.361 94.9361 123.154 93.9266C125.389 93.5009 127.702 93.9656 129.599 95.2216C130.071 95.5179 130.597 95.7174 131.147 95.8084C131.697 95.8995 132.259 95.8803 132.801 95.7519C134.973 95.1706 136.717 93.1515 136.156 91.0713L132.179 74.8779L130.466 68.168L70.6379 83.464L86.0054 145.974L108.174 140.784C109.212 140.558 110.121 139.936 110.708 139.05C111.294 138.165 111.512 137.085 111.315 136.042C111.193 135.519 110.959 135.029 110.63 134.605C110.301 134.181 109.884 133.833 109.408 133.584C107.848 132.758 105.564 131.188 105.013 128.842C104.157 125.202 106.655 121.918 111.03 120.888C115.404 119.858 119.086 121.684 119.942 125.324C120.493 127.68 119.137 130.107 118.107 131.535C117.789 131.97 117.569 132.468 117.462 132.996C117.354 133.524 117.362 134.069 117.485 134.594C117.707 135.444 118.207 136.196 118.906 136.73C119.604 137.263 120.46 137.549 121.339 137.541L141.326 132.442L146.017 131.198L139.327 104.246Z" fill="#6A3D88"/>
<path d="M63.2144 133.717L72.0555 121.858L79.0101 116.677L79.0815 120.246C79.0815 120.246 92.8378 118.859 94.8364 119.339C96.0499 119.634 97.8141 123.051 95.122 123.826C95.7632 124.093 96.3351 124.503 96.7944 125.024C97.2538 125.545 97.5885 126.164 97.7733 126.834C98.1914 128.955 97.1308 129.954 94.6121 130.77C94.6121 130.77 97.4266 132.259 96.8555 134.105C96.6201 134.695 96.2635 135.23 95.8085 135.675C95.3536 136.119 94.8105 136.463 94.2144 136.684C94.2144 136.684 95.7236 139.53 94.3572 140.59C92.0428 142.098 89.5167 143.253 86.8621 144.016L77.6233 145.852L71.8413 147.504L63.2144 133.717Z" fill="#FFBF9D"/>
<path d="M86.8621 125.661C86.8621 125.845 88.7894 125.59 91.0736 125.09C93.3578 124.59 95.1525 124.07 95.1525 123.866C95.1525 123.662 93.2252 123.948 90.941 124.437C88.6568 124.927 86.8621 125.427 86.8621 125.661Z" fill="#FF9A6C"/>
<path d="M87.8816 132.289C87.8816 132.473 89.4316 132.289 91.2773 131.932C93.123 131.575 94.5711 131.106 94.5405 130.913C94.5099 130.719 92.9803 130.913 91.1448 131.269C89.3092 131.626 87.8816 132.116 87.8816 132.289Z" fill="#FF9A6C"/>
<path d="M88.5854 137.898C88.6568 138.091 89.9111 137.714 91.4203 137.337C92.9295 136.96 94.2144 136.858 94.2144 136.664C94.2144 136.47 92.8786 136.297 91.2674 136.664C90.2764 136.819 89.3479 137.246 88.5854 137.898Z" fill="#FF9A6C"/>
<path d="M77.4499 120.868C77.4499 121.052 79.3364 120.777 81.6104 120.399C83.8844 120.022 85.6894 119.696 85.6894 119.502C85.6894 119.308 83.7825 119.359 81.4983 119.747C79.214 120.134 77.4091 120.695 77.4499 120.868Z" fill="#FF9A6C"/>
</svg>
