<svg width="329" height="200" viewBox="0 0 329 200" fill="none" xmlns="http://www.w3.org/2000/svg">
<path d="M294.647 39.7325L296.785 35.066C295.251 31.2163 295.213 26.932 296.678 23.0556C298.143 19.1792 301.005 15.991 304.701 14.1181C308.398 12.2451 312.662 11.8228 316.654 12.9342C320.646 14.0457 324.078 16.6104 326.275 20.1241C328.472 23.6379 329.275 27.8464 328.526 31.9222C327.777 35.998 325.53 39.6461 322.228 42.1493C318.925 44.6525 314.806 45.8296 310.679 45.4493C306.553 45.0689 302.718 43.1585 299.928 40.0937L294.647 39.7325Z" fill="white"/>
<path d="M294.569 39.7621H294.921L295.897 39.8207L299.802 40.0355L299.724 40.1526C299.71 40.1381 299.702 40.1189 299.702 40.0989C299.702 40.079 299.71 40.0597 299.724 40.0452C299.739 40.0367 299.755 40.0322 299.773 40.0322C299.79 40.0322 299.807 40.0367 299.821 40.0452C301.668 42.0455 303.978 43.561 306.548 44.458C309.363 45.4325 312.39 45.6212 315.304 45.0036C318.218 44.3861 320.908 42.9857 323.086 40.9532C325.855 38.3884 327.646 34.9404 328.152 31.2C328.658 27.4596 327.847 23.6597 325.859 20.4515L325.322 19.6022L324.707 18.8114C324.293 18.2917 323.849 17.7963 323.379 17.3275C320.681 14.7755 317.197 13.2147 313.497 12.9004C309.796 12.586 306.099 13.5366 303.009 15.5968C299.919 17.657 297.62 20.7048 296.488 24.2415C295.356 27.7783 295.457 31.5946 296.775 35.0663V35.1248L295.155 38.5613C294.969 38.942 294.823 39.2447 294.725 39.4595C294.628 39.6742 294.569 39.7719 294.569 39.7719C294.597 39.67 294.636 39.5717 294.686 39.479L295.077 38.5906L296.639 35.0663V35.1248C295.602 32.575 295.226 29.8046 295.545 27.0706C296.051 22.8193 298.169 18.9242 301.462 16.1886C304.756 13.453 308.973 12.0855 313.245 12.368C317.179 12.6732 320.884 14.3407 323.72 17.0834C324.201 17.562 324.654 18.0672 325.077 18.5966L325.702 19.4069L326.259 20.2758C327.64 22.5101 328.474 25.0385 328.695 27.6559C328.915 30.2733 328.516 32.9058 327.528 35.3396C326.639 37.4877 325.312 39.4266 323.631 41.0321C321.95 42.6376 319.952 43.8743 317.765 44.663C315.86 45.3484 313.845 45.6793 311.82 45.6393C310.034 45.6027 308.266 45.2729 306.587 44.663C303.988 43.7391 301.662 42.1783 299.821 40.1233L299.948 40.0452C299.962 40.0597 299.97 40.079 299.97 40.0989C299.97 40.1189 299.962 40.1381 299.948 40.1526L295.985 39.8305L295.008 39.7426L294.569 39.7621Z" fill="#E0E0E0"/>
<path d="M308.295 29.1503C308.295 29.5365 308.18 29.914 307.966 30.2351C307.751 30.5562 307.446 30.8064 307.09 30.9542C306.733 31.102 306.34 31.1407 305.962 31.0653C305.583 30.99 305.235 30.804 304.962 30.5309C304.689 30.2579 304.503 29.91 304.427 29.5312C304.352 29.1525 304.391 28.7599 304.539 28.4031C304.686 28.0463 304.937 27.7414 305.258 27.5268C305.579 27.3123 305.956 27.1978 306.342 27.1978C306.86 27.1978 307.357 27.4035 307.723 27.7696C308.089 28.1358 308.295 28.6324 308.295 29.1503Z" fill="#E0E0E0"/>
<path d="M314.436 29.1503C314.436 29.5365 314.321 29.914 314.107 30.2351C313.892 30.5562 313.587 30.8064 313.231 30.9542C312.874 31.102 312.481 31.1407 312.102 31.0653C311.724 30.99 311.376 30.804 311.103 30.5309C310.83 30.2579 310.644 29.91 310.568 29.5312C310.493 29.1525 310.532 28.7599 310.679 28.4031C310.827 28.0463 311.077 27.7414 311.399 27.5268C311.72 27.3123 312.097 27.1978 312.483 27.1978C313.001 27.1978 313.498 27.4035 313.864 27.7696C314.23 28.1358 314.436 28.6324 314.436 29.1503Z" fill="#E0E0E0"/>
<path d="M318.624 31.0936C319.697 31.0936 320.567 30.2237 320.567 29.1508C320.567 28.0778 319.697 27.208 318.624 27.208C317.551 27.208 316.681 28.0778 316.681 29.1508C316.681 30.2237 317.551 31.0936 318.624 31.0936Z" fill="#E0E0E0"/>
<path d="M164.764 193.056L167.605 187.589C165.942 183.91 165.624 179.763 166.707 175.874C169.255 166.638 179.291 160.322 190.001 161.23C203.454 162.372 212.514 173.794 209.136 185.363C206.432 194.638 196.181 200.827 185.412 199.705C180.29 199.232 175.475 197.048 171.745 193.505L164.764 193.056Z" fill="white"/>
<path d="M164.667 193.085H165.135L166.492 193.153L171.676 193.407L171.579 193.544C171.569 193.52 171.568 193.494 171.577 193.47C171.587 193.447 171.605 193.428 171.628 193.417C171.645 193.406 171.665 193.4 171.686 193.4C171.707 193.4 171.727 193.406 171.745 193.417C174.274 195.814 177.33 197.587 180.668 198.591C185.429 200.011 190.506 199.971 195.243 198.474C197.923 197.617 200.417 196.263 202.595 194.481C204.84 192.656 206.648 190.351 207.886 187.735C209.17 184.966 209.696 181.906 209.411 178.867C209.127 175.827 208.041 172.918 206.266 170.436L205.553 169.459L204.743 168.483C204.186 167.878 203.6 167.301 202.985 166.755C201.722 165.677 200.34 164.746 198.865 163.982C195.925 162.459 192.7 161.562 189.396 161.346C186.265 161.148 183.125 161.56 180.15 162.557C177.475 163.451 174.992 164.838 172.828 166.648C169.3 169.556 166.971 173.666 166.287 178.187C165.847 181.363 166.303 184.6 167.605 187.53V187.598L165.467 191.669L164.901 192.724C164.774 192.958 164.696 193.085 164.696 193.085C164.737 192.966 164.789 192.852 164.852 192.743C164.979 192.489 165.145 192.138 165.37 191.699L167.439 187.579V187.647C166.076 184.7 165.575 181.427 165.994 178.207C166.661 173.621 169.006 169.447 172.575 166.491C174.769 164.637 177.292 163.213 180.014 162.293C183.051 161.274 186.256 160.847 189.454 161.034C192.826 161.256 196.116 162.17 199.119 163.719C200.628 164.5 202.043 165.45 203.337 166.55C203.969 167.104 204.569 167.694 205.133 168.317L205.963 169.293L206.695 170.27C208.505 172.806 209.609 175.778 209.892 178.882C210.175 181.985 209.628 185.108 208.306 187.93C207.029 190.599 205.175 192.95 202.878 194.813C200.654 196.623 198.106 197.995 195.37 198.855C190.548 200.365 185.383 200.382 180.551 198.904C177.187 197.863 174.116 196.044 171.589 193.593L171.754 193.485C171.77 193.503 171.778 193.525 171.778 193.549C171.778 193.572 171.77 193.594 171.754 193.612H171.706L166.453 193.231L165.135 193.134L164.667 193.085Z" fill="#E0E0E0"/>
<path d="M182.864 180.657C182.928 181.18 182.83 181.71 182.585 182.177C182.34 182.644 181.959 183.025 181.493 183.269C181.026 183.514 180.496 183.611 179.973 183.547C179.45 183.484 178.958 183.263 178.564 182.913C178.169 182.563 177.891 182.102 177.765 181.59C177.639 181.079 177.671 180.541 177.858 180.048C178.045 179.555 178.378 179.131 178.812 178.832C179.245 178.533 179.76 178.373 180.287 178.373C180.931 178.335 181.564 178.555 182.047 178.983C182.53 179.411 182.824 180.013 182.864 180.657Z" fill="#E0E0E0"/>
<path d="M190.997 180.657C191.06 181.18 190.963 181.71 190.718 182.177C190.473 182.644 190.092 183.025 189.625 183.269C189.158 183.514 188.628 183.611 188.105 183.547C187.582 183.484 187.09 183.263 186.696 182.913C186.302 182.563 186.023 182.102 185.897 181.59C185.771 181.079 185.804 180.541 185.991 180.048C186.178 179.555 186.51 179.131 186.944 178.832C187.378 178.533 187.892 178.373 188.419 178.373C189.064 178.335 189.697 178.555 190.18 178.983C190.663 179.411 190.956 180.013 190.997 180.657Z" fill="#E0E0E0"/>
<path d="M199.139 180.657C199.202 181.18 199.105 181.71 198.86 182.176C198.616 182.642 198.235 183.023 197.769 183.268C197.303 183.513 196.774 183.611 196.251 183.548C195.728 183.485 195.237 183.265 194.842 182.916C194.447 182.568 194.168 182.107 194.041 181.596C193.914 181.085 193.945 180.548 194.13 180.055C194.316 179.562 194.647 179.137 195.079 178.837C195.512 178.536 196.025 178.375 196.552 178.373C197.197 178.335 197.831 178.554 198.316 178.982C198.8 179.41 199.096 180.012 199.139 180.657Z" fill="#E0E0E0"/>
<path d="M54.1138 43.3255L48.5393 45.0242C46.4353 49.2147 42.84 52.4667 38.4602 54.141C34.0803 55.8154 29.2325 55.791 24.8697 54.0727C20.5069 52.3544 16.9445 49.0665 14.8827 44.8551C12.8209 40.6437 12.4089 35.8134 13.7276 31.3136C15.0462 26.8138 18.0002 22.97 22.009 20.5376C26.0177 18.1051 30.7913 17.26 35.3915 18.1683C39.9917 19.0767 44.0858 21.6727 46.8692 25.4463C49.6525 29.2199 50.9238 33.898 50.4332 38.5613L54.1138 43.3255Z" fill="white"/>
<path d="M54.1724 43.3745L53.9089 43.0621L53.1962 42.1541L50.4431 38.6688H50.5895C50.5853 38.6799 50.5788 38.69 50.5705 38.6985C50.5622 38.707 50.5523 38.7137 50.5414 38.7183C50.5304 38.7228 50.5187 38.7251 50.5068 38.725C50.495 38.7249 50.4832 38.7224 50.4724 38.7177C50.4636 38.7047 50.4589 38.6894 50.4589 38.6737C50.4589 38.6581 50.4636 38.6427 50.4724 38.6298C50.7811 35.5562 50.325 32.454 49.1447 29.5993C47.8457 26.4715 45.7186 23.757 42.9921 21.7478C40.2657 19.7386 37.043 18.5108 33.6708 18.1965C29.402 17.7783 25.1206 18.8564 21.559 21.2463C17.9973 23.6362 15.3767 27.1893 14.1454 31.298L13.833 32.4012L13.628 33.5141C13.5017 34.2543 13.4137 35.0005 13.3644 35.7498C13.3075 37.2318 13.4188 38.7154 13.6963 40.1723C14.2546 42.9855 15.4428 45.6356 17.1719 47.9239C19.092 50.4072 21.6087 52.3651 24.4881 53.6155C27.3674 54.8659 30.5161 55.3683 33.6416 55.0761C36.7672 54.7839 39.7681 53.7066 42.3659 51.9441C44.9636 50.1817 47.0737 47.7913 48.5003 44.9951H48.5589L52.6885 43.7943L53.8112 43.4428L54.192 43.3452L53.8503 43.4623L52.8057 43.804L48.6468 45.122C47.2593 47.919 45.1914 50.3226 42.6329 52.1121C38.6539 54.8902 33.7598 56.034 28.9617 55.3072C24.1635 54.5805 19.8276 52.0388 16.8497 48.207C15.0775 45.8766 13.862 43.1717 13.2961 40.2992C13.0004 38.8118 12.8857 37.2941 12.9544 35.7791C12.9988 35.0132 13.0868 34.2505 13.218 33.4946L13.4327 32.3524L13.7452 31.2297C14.9888 27.0173 17.6664 23.3725 21.3142 20.9263C24.962 18.4802 29.3505 17.3867 33.7196 17.8353C36.2036 18.0685 38.6161 18.7949 40.8159 19.9722C43.0156 21.1494 44.9583 22.7537 46.5303 24.6911C48.1022 26.6286 49.2718 28.8602 49.9705 31.2553C50.6692 33.6504 50.883 36.1608 50.5993 38.6396H50.4333C50.4401 38.6178 50.4551 38.5994 50.4752 38.5885C50.4952 38.5776 50.5187 38.5749 50.5407 38.581L53.245 42.1834L53.9284 43.0913C54.1724 43.2768 54.1724 43.3745 54.1724 43.3745Z" fill="#E0E0E0"/>
<path d="M27.8131 36.5111C27.8131 36.9474 27.6837 37.374 27.4413 37.7368C27.1988 38.0997 26.8543 38.3825 26.4511 38.5495C26.0479 38.7165 25.6043 38.7602 25.1763 38.675C24.7483 38.5899 24.3552 38.3798 24.0466 38.0712C23.7381 37.7626 23.5279 37.3695 23.4428 36.9415C23.3577 36.5135 23.4013 36.0699 23.5683 35.6667C23.7353 35.2636 24.0181 34.919 24.381 34.6765C24.7438 34.4341 25.1704 34.3047 25.6068 34.3047C26.1919 34.3047 26.7531 34.5371 27.1669 34.9509C27.5807 35.3647 27.8131 35.9259 27.8131 36.5111Z" fill="#E0E0E0"/>
<path d="M32.5579 38.7174C33.7765 38.7174 34.7643 37.7296 34.7643 36.5111C34.7643 35.2925 33.7765 34.3047 32.5579 34.3047C31.3394 34.3047 30.3516 35.2925 30.3516 36.5111C30.3516 37.7296 31.3394 38.7174 32.5579 38.7174Z" fill="#E0E0E0"/>
<path d="M39.5186 38.7174C40.7372 38.7174 41.725 37.7296 41.725 36.5111C41.725 35.2925 40.7372 34.3047 39.5186 34.3047C38.3001 34.3047 37.3123 35.2925 37.3123 36.5111C37.3123 37.7296 38.3001 38.7174 39.5186 38.7174Z" fill="#E0E0E0"/>
<path d="M125.147 47.3478L128.291 40.5139C126.072 34.9082 126.03 28.6754 128.173 23.0403C130.316 17.4052 134.489 12.7753 139.872 10.0604C145.255 7.34541 151.459 6.74175 157.264 8.36799C163.069 9.99423 168.057 13.7328 171.246 18.849C174.435 23.9652 175.595 30.0892 174.499 36.0175C173.403 41.9458 170.129 47.2498 165.321 50.8872C160.513 54.5246 154.519 56.2324 148.516 55.675C142.513 55.1177 136.936 52.3354 132.88 47.875L125.147 47.3478Z" fill="white"/>
<path d="M125.03 47.3479H125.557L127.051 47.426L132.782 47.7482L132.674 47.9141C132.656 47.8943 132.645 47.8681 132.645 47.8409C132.645 47.8137 132.656 47.7876 132.674 47.7677C132.694 47.7534 132.718 47.7457 132.743 47.7457C132.767 47.7457 132.791 47.7534 132.811 47.7677C135.512 50.7002 138.896 52.9202 142.661 54.2306C147.888 56.0125 153.566 55.9609 158.76 54.0842C162.101 52.8734 165.13 50.9329 167.626 48.4038C170.122 45.8748 172.023 42.8209 173.19 39.4645C174.358 36.1081 174.761 32.5337 174.373 29.0015C173.984 25.4693 172.813 22.0682 170.944 19.0459L170.153 17.806L169.255 16.6442C168.646 15.8853 167.994 15.1617 167.302 14.4769C165.93 13.1435 164.403 11.9798 162.753 11.0112C159.672 9.17887 156.215 8.07036 152.644 7.76933C149.072 7.46829 145.478 7.98259 142.134 9.27342C139.162 10.3999 136.442 12.1047 134.133 14.2893C131.824 16.4739 129.971 19.0947 128.682 22.0002C127.393 24.9057 126.693 28.038 126.622 31.2159C126.552 34.3939 127.112 37.5542 128.271 40.514V40.6019L125.889 45.6297L125.264 46.9379C125.118 47.2405 125.03 47.3967 125.03 47.3967C125.03 47.3967 125.089 47.26 125.206 46.9672C125.323 46.6743 125.538 46.2154 125.782 45.659C126.309 44.4679 127.08 42.7301 128.066 40.5043V40.5921C126.549 36.7623 126.027 32.6108 126.547 28.5245C127.066 24.4381 128.612 20.5498 131.04 17.2218C133.467 13.8938 136.698 11.2344 140.43 9.49123C144.162 7.74808 148.275 6.97794 152.385 7.25254C156.154 7.53914 159.807 8.68459 163.065 10.6011C164.754 11.5953 166.318 12.7883 167.722 14.1548C168.413 14.8569 169.065 15.5968 169.675 16.3709L170.592 17.5619L171.403 18.8311C173.301 21.9182 174.488 25.3893 174.878 28.9923C175.267 32.5954 174.849 36.24 173.655 39.6614C172.46 43.0829 170.518 46.1953 167.971 48.7728C165.423 51.3503 162.333 53.328 158.926 54.5625C154.39 56.2127 149.465 56.4679 144.783 55.2953C140.101 54.1226 135.877 51.5758 132.655 47.9825L132.84 47.8556C132.859 47.8754 132.869 47.9016 132.869 47.9288C132.869 47.956 132.859 47.9821 132.84 48.002H132.772L126.983 47.5334L125.518 47.4065L125.03 47.3479Z" fill="#263238"/>
<path d="M145.141 31.8346C145.141 32.3984 144.974 32.9496 144.661 33.4184C144.348 33.8872 143.902 34.2525 143.382 34.4683C142.861 34.6841 142.287 34.7405 141.735 34.6305C141.182 34.5205 140.674 34.249 140.275 33.8503C139.876 33.4517 139.605 32.9437 139.495 32.3907C139.385 31.8378 139.441 31.2646 139.657 30.7437C139.873 30.2228 140.238 29.7776 140.707 29.4643C141.176 29.1511 141.727 28.9839 142.291 28.9839C143.047 28.9839 143.772 29.2842 144.306 29.8188C144.841 30.3535 145.141 31.0785 145.141 31.8346Z" fill="#263238"/>
<path d="M154.133 31.8346C154.134 32.4012 153.968 32.9556 153.655 33.4275C153.341 33.8994 152.894 34.2675 152.371 34.4852C151.848 34.7029 151.272 34.7604 150.716 34.6503C150.161 34.5403 149.65 34.2676 149.249 33.867C148.849 33.4664 148.576 32.9558 148.466 32.4C148.356 31.8442 148.414 31.2683 148.631 30.7452C148.849 30.2221 149.217 29.7755 149.689 29.4619C150.161 29.1483 150.715 28.982 151.282 28.9839C152.038 28.9839 152.763 29.2842 153.298 29.8189C153.832 30.3535 154.133 31.0786 154.133 31.8346Z" fill="#263238"/>
<path d="M163.114 31.8346C163.114 32.3984 162.947 32.9496 162.634 33.4184C162.321 33.8872 161.875 34.2525 161.354 34.4683C160.834 34.6841 160.26 34.7405 159.707 34.6305C159.154 34.5205 158.646 34.249 158.248 33.8503C157.849 33.4517 157.578 32.9437 157.468 32.3907C157.358 31.8378 157.414 31.2646 157.63 30.7437C157.846 30.2228 158.211 29.7776 158.68 29.4643C159.149 29.1511 159.7 28.9839 160.264 28.9839C161.02 28.9839 161.745 29.2842 162.279 29.8188C162.814 30.3535 163.114 31.0785 163.114 31.8346Z" fill="#263238"/>
<path d="M94.2875 52.8638C80.271 52.8612 66.5635 56.9828 54.8728 64.7152C43.1821 72.4475 34.0248 83.4488 28.5419 96.3484C23.059 109.248 21.4928 123.476 24.0384 137.259C26.584 151.043 33.1288 163.772 42.8576 173.863L34.9889 196.317C34.9889 196.317 50.287 190.401 59.5811 186.72C69.115 192.024 79.7372 195.074 90.6329 195.636C101.529 196.198 112.408 194.257 122.437 189.961C132.466 185.665 141.378 179.129 148.488 170.855C155.599 162.58 160.72 152.787 163.458 142.226C166.196 131.665 166.479 120.617 164.285 109.93C162.091 99.2427 157.477 89.2002 150.799 80.5727C144.121 71.9452 135.556 64.962 125.76 60.1588C115.964 55.3557 105.198 52.8602 94.2875 52.8638Z" fill="#E0E0E0"/>
<path d="M94.2872 52.7178C94.2872 52.7178 94.707 52.7178 95.5173 52.7178C96.3277 52.7178 97.548 52.7178 99.1393 52.8349C103.783 53.1001 108.386 53.846 112.875 55.0608C116.12 55.9286 119.301 57.0214 122.394 58.3313C126.073 59.9019 129.613 61.7798 132.977 63.9449C141.204 69.2343 148.272 76.1393 153.752 84.2415C156.91 88.9595 159.512 94.0276 161.503 99.3444C163.62 105.125 164.995 111.151 165.594 117.278C166.904 130.876 164.31 144.564 158.116 156.739C156.48 159.978 154.587 163.079 152.453 166.014C142.203 180.286 127.064 190.293 109.916 194.129C92.7681 197.965 74.8083 195.363 59.454 186.818H59.6688L35.0765 196.425L34.5786 196.62L34.7544 196.112L42.6231 173.658L42.6817 173.912C34.8662 165.807 29.0741 155.972 25.7762 145.207C22.4784 134.441 21.7681 123.049 23.703 111.958C26.769 94.3598 36.3031 78.5439 50.4333 67.6156C53.2096 65.4435 56.1468 63.4854 59.2197 61.758C59.9323 61.3285 60.6646 60.9575 61.3772 60.5963C62.0899 60.235 62.7928 59.8543 63.5055 59.5321C64.9308 58.9073 66.2781 58.2337 67.6449 57.7358C72.237 55.8966 77.0118 54.5515 81.8886 53.7233L83.3335 53.4695L84.7101 53.2938C85.5985 53.1864 86.4283 53.0692 87.1898 53.0009C88.742 52.9033 90.0405 52.7666 91.0949 52.7471H93.4867C94.0237 52.7471 94.297 52.7471 94.297 52.7471H93.4867L91.1046 52.8349C90.0502 52.8349 88.7518 53.0107 87.1995 53.118C86.4283 53.1961 85.6082 53.3231 84.7198 53.4305L83.353 53.6159L81.9082 53.8795C77.0512 54.7401 72.2971 56.1045 67.723 57.9506C66.366 58.4582 65.0187 59.1319 63.6031 59.7567C62.9002 60.0886 62.2071 60.4693 61.4944 60.8306C60.7817 61.1918 60.03 61.5725 59.3564 61.9923C56.2834 63.7195 53.3461 65.6777 50.5699 67.8499C42.6775 73.9841 36.1638 81.7099 31.4519 90.5256C26.74 99.3412 23.9352 109.049 23.2198 119.02C22.5045 128.99 23.8944 138.999 27.2995 148.397C30.7046 157.795 36.0486 166.372 42.9843 173.57L43.0819 173.677V173.824L35.2718 196.278L34.9496 195.956L59.5321 186.359H59.6492L59.7469 186.418C74.9967 194.894 92.8282 197.474 109.855 193.67C126.883 189.865 141.92 179.94 152.112 165.779C154.235 162.865 156.119 159.783 157.745 156.563C162.211 147.803 164.822 138.216 165.413 128.4C166.004 118.585 164.564 108.753 161.181 99.5201C159.194 94.2159 156.603 89.158 153.459 84.4465C145.755 73.0257 134.946 64.0458 122.306 58.5656C119.224 57.2563 116.057 56.1571 112.827 55.2756C108.361 54.0422 103.782 53.267 99.1588 52.9618C97.5773 52.7959 96.3569 52.8349 95.5466 52.7861C94.7363 52.7373 94.2872 52.7178 94.2872 52.7178Z" fill="#263238"/>
<path d="M86.5749 31.4349L87.5512 31.3276C92.1511 30.8131 96.7762 32.0492 100.506 34.7897C104.236 37.5303 106.798 41.5746 107.682 46.118C109.381 54.9044 111.148 64.589 111.587 69.3337C112.563 79.1745 102.908 81.8007 102.908 81.8007L103.474 85.7936C103.697 87.3589 103.609 88.9529 103.214 90.484C102.818 92.015 102.125 93.4528 101.172 94.7148C100.219 95.9767 99.0268 97.038 97.6627 97.8375C96.2986 98.637 94.7899 99.159 93.2233 99.3735C90.0957 99.8067 86.9234 98.9885 84.3954 97.0966C81.8675 95.2048 80.1879 92.392 79.7215 89.2691L74.2446 52.8738C72.2238 42.7694 76.4217 33.1727 86.5749 31.4349Z" fill="#FFBF9D"/>
<path d="M102.986 81.781C98.425 82.2904 93.8136 81.4806 89.699 79.4478C89.699 79.4478 93.5162 86.184 103.22 84.2022L102.986 81.781Z" fill="#FF9A6C"/>
<path d="M106.022 55.4216C106.07 55.7875 105.971 56.1573 105.748 56.4514C105.526 56.7454 105.196 56.9401 104.831 56.9934C104.654 57.0285 104.471 57.0276 104.295 56.9908C104.118 56.954 103.95 56.882 103.802 56.779C103.653 56.6761 103.527 56.5444 103.43 56.3917C103.334 56.239 103.269 56.0685 103.24 55.8902C103.195 55.5248 103.294 55.1562 103.517 54.8628C103.739 54.5693 104.067 54.3741 104.431 54.3184C104.608 54.2847 104.79 54.2866 104.966 54.324C105.143 54.3614 105.31 54.4335 105.458 54.5362C105.606 54.6389 105.732 54.7701 105.829 54.9221C105.926 55.0741 105.992 55.2439 106.022 55.4216Z" fill="#263238"/>
<path d="M106.081 51.1559C105.924 51.3609 104.772 50.6971 103.259 50.863C101.746 51.029 100.731 51.9174 100.545 51.7514C100.36 51.5855 100.545 51.3316 101.043 50.9216C101.641 50.3825 102.391 50.0415 103.191 49.9453C103.976 49.8589 104.769 50.0229 105.456 50.4139C105.963 50.7556 106.149 51.068 106.081 51.1559Z" fill="#263238"/>
<path d="M92.3446 57.2181C92.3865 57.5834 92.2846 57.9508 92.0605 58.2423C91.8364 58.5339 91.5076 58.7267 91.1438 58.7801C90.9673 58.8138 90.7858 58.8118 90.6101 58.7743C90.4344 58.7368 90.268 58.6645 90.1206 58.5617C89.9732 58.4589 89.8479 58.3277 89.752 58.1758C89.6561 58.0238 89.5916 57.8542 89.5622 57.677C89.5175 57.3126 89.6171 56.9453 89.8397 56.6534C90.0622 56.3615 90.3901 56.1683 90.7533 56.1149C90.9306 56.0784 91.1135 56.0782 91.2909 56.1145C91.4682 56.1507 91.6364 56.2226 91.7852 56.3257C91.934 56.4288 92.0603 56.5611 92.1564 56.7145C92.2526 56.8679 92.3166 57.0392 92.3446 57.2181Z" fill="#263238"/>
<path d="M91.2707 53.0983C91.1145 53.3033 89.9625 52.6394 88.4591 52.8054C86.9556 52.9714 85.9208 53.8598 85.7353 53.6938C85.5498 53.5279 85.7353 53.274 86.2332 52.864C86.8331 52.3276 87.5824 51.987 88.381 51.8877C89.1665 51.8013 89.9592 51.9653 90.6459 52.3563C91.1536 52.698 91.3488 53.0104 91.2707 53.0983Z" fill="#263238"/>
<path d="M97.9971 63.6812C98.7669 63.35 99.573 63.1108 100.399 62.9686C100.789 62.8807 101.141 62.7635 101.18 62.5C101.164 62.0953 101.028 61.7044 100.789 61.3773L99.3249 58.5754C97.2747 54.5727 95.742 51.2631 95.8982 51.185C96.0544 51.1069 97.8507 54.2798 99.9106 58.2825C100.409 59.2587 100.887 60.235 101.336 61.1137C101.631 61.5525 101.759 62.0823 101.697 62.6073C101.657 62.749 101.585 62.8796 101.487 62.9895C101.389 63.0994 101.267 63.1857 101.131 63.2419C100.924 63.3206 100.707 63.3731 100.487 63.3981C99.6724 63.599 98.8357 63.6942 97.9971 63.6812Z" fill="#263238"/>
<path d="M90.9974 47.1432C90.8901 47.5728 89.3671 47.5435 87.6196 47.9535C85.872 48.3635 84.4955 49.0079 84.2124 48.6662C84.0952 48.5002 84.3002 48.0902 84.8274 47.6313C85.5422 47.0559 86.3794 46.652 87.2747 46.4506C88.17 46.2492 89.0995 46.2557 89.9919 46.4696C90.6753 46.6551 91.0365 46.9382 90.9974 47.1432Z" fill="#263238"/>
<path d="M105.036 46.8502C104.802 47.2212 103.728 46.9869 102.469 47.104C101.209 47.2212 100.194 47.5922 99.9009 47.27C99.7838 47.104 99.9009 46.7428 100.33 46.3621C100.911 45.905 101.614 45.6296 102.35 45.5706C103.086 45.5115 103.824 45.6714 104.47 46.0301C104.938 46.3718 105.134 46.6745 105.036 46.8502Z" fill="#263238"/>
<path d="M106.198 41.7151C106.198 41.7151 102.918 35.8575 99.7936 34.7543C96.0057 33.4168 94.9123 37.5269 91.3782 36.9607C87.8441 36.3944 84.2319 35.096 81.0297 38.1322C77.5249 41.4613 79.5458 43.2869 79.7996 47.6801C80.7759 65.458 78.1497 70.8177 76.2948 62.5975C76.0996 61.6896 73.4832 61.2503 72.6729 57.4428C71.6282 52.5029 70.7203 46.45 71.4818 42.7988C72.0871 39.7138 73.5613 37.4488 76.3632 34.8324C80.7857 30.7028 87.4048 29.8827 91.9835 29.8339C96.5622 29.7851 105.749 33.9635 106.198 41.7151Z" fill="#263238"/>
<path d="M76.8903 62.2557C76.8356 61.8961 76.7082 61.5515 76.5157 61.2428C76.3233 60.9341 76.0699 60.6679 75.7711 60.4605C75.4723 60.253 75.1344 60.1087 74.7779 60.0364C74.4214 59.964 74.0539 59.9651 73.6979 60.0396C71.882 60.4204 69.9685 61.6895 70.5055 65.4579C71.4818 72.1551 77.9935 69.8023 77.9739 69.607C77.9544 69.4118 77.3198 65.0576 76.8903 62.2557Z" fill="#FFBF9D"/>
<path d="M76.1873 67.2739C76.1873 67.2739 76.0799 67.3715 75.8944 67.4886C75.6349 67.6486 75.3232 67.7012 75.0255 67.6351C74.5539 67.4215 74.1473 67.0867 73.8472 66.6648C73.5471 66.2429 73.3642 65.749 73.3171 65.2334C73.2218 64.6611 73.2518 64.0749 73.4049 63.5152C73.4443 63.3047 73.533 63.1065 73.6636 62.9368C73.7943 62.7672 73.9632 62.6308 74.1567 62.5389C74.2845 62.4834 74.4279 62.4744 74.5617 62.5137C74.6955 62.5529 74.8113 62.6379 74.8889 62.7537C75.006 62.9295 74.9865 63.0661 75.0158 63.0759C75.0451 63.0857 75.1427 62.9392 75.0158 62.6756C74.9535 62.5165 74.8402 62.3826 74.6936 62.2949C74.4856 62.1892 74.2466 62.1615 74.02 62.2168C73.7539 62.3107 73.5163 62.4713 73.33 62.6833C73.1437 62.8952 73.0149 63.1514 72.9558 63.4274C72.7453 64.056 72.6982 64.728 72.8192 65.3799C73.0535 66.7271 73.9321 67.8889 74.9377 68.0256C75.124 68.0525 75.3141 68.0365 75.4934 67.979C75.6727 67.9215 75.8366 67.8239 75.9725 67.6936C76.1971 67.4301 76.2166 67.2739 76.1873 67.2739Z" fill="#FF9A6C"/>
<path d="M107.233 34.3441C106.159 33.6217 104.724 33.5924 103.659 32.8602C101.707 31.5227 101.453 28.2717 99.2076 27.5395C97.8799 27.1002 96.4448 27.8031 95.0487 27.7348C92.7838 27.6176 91.8271 25.9677 88.4101 26.1435C87.216 26.1354 86.0448 26.4719 85.0371 27.1126C84.0293 27.7532 83.2277 28.6709 82.7282 29.7557C81.8902 29.423 80.979 29.3183 80.0873 29.452C79.1956 29.5858 78.3552 29.9533 77.6516 30.5171C77.05 31.0387 76.5651 31.6813 76.2287 32.403C75.8922 33.1247 75.7118 33.9092 75.6991 34.7053C75.6991 34.7053 74.9767 34.3929 72.9363 36.1893C71.5964 37.6503 70.6727 39.4438 70.2613 41.383C69.656 43.892 70.8666 46.4303 72.0478 48.7246C72.6824 49.9644 73.4634 51.3214 74.8107 51.6534C76.4411 52.1025 78.1495 50.7552 78.7158 49.1346C79.282 47.514 80.1704 45.8934 80.8538 44.3314C82.0351 41.6271 83.2554 39.0986 82.0546 37.4975C83.5628 36.9027 85.2212 36.8036 86.7895 37.2144C88.3613 37.6341 89.7183 38.5518 91.3292 39.0107C92.94 39.4695 94.834 39.3329 95.8102 38.0344C96.0546 38.4684 96.3937 38.8416 96.8023 39.1262C97.2109 39.4109 97.6785 39.5997 98.1702 39.6785C98.662 39.7573 99.1651 39.7242 99.6422 39.5815C100.119 39.4388 100.558 39.1903 100.926 38.8545C101.584 39.8145 102.581 40.4901 103.716 40.7454C104.851 41.0008 106.042 40.817 107.047 40.231C108.97 38.9521 109.166 35.6328 107.233 34.3441Z" fill="#263238"/>
<path d="M71.3157 47.1819C71.6567 47.6463 71.9448 48.1473 72.1748 48.6756C72.4474 49.2105 72.8587 49.6624 73.3658 49.9838C74.027 50.2791 74.7729 50.3242 75.4648 50.1107C76.1791 49.9316 76.8455 49.5984 77.4174 49.1344C77.8824 48.7366 78.3016 48.288 78.667 47.7969C78.9793 47.3094 79.332 46.849 79.7213 46.4204C79.526 46.9743 79.2461 47.4946 78.8915 47.9629C78.5468 48.5023 78.1296 48.9917 77.6517 49.4176C77.0381 49.9346 76.3129 50.3023 75.5332 50.4914C74.7462 50.7296 73.8982 50.6598 73.1608 50.2962C72.609 49.9292 72.175 49.4105 71.9112 48.8025C71.6457 48.2893 71.4457 47.7449 71.3157 47.1819Z" fill="#455A64"/>
<path d="M71.8525 52.3659C72.2781 52.6442 72.7374 52.8673 73.2193 53.0298C73.7499 53.161 74.3024 53.1777 74.8399 53.0786C75.4926 52.9452 76.1087 52.6721 76.646 52.2781C77.6249 51.5119 78.4386 50.5555 79.0378 49.4664C79.2732 48.9981 79.558 48.5563 79.8872 48.1484C79.7607 48.6598 79.5601 49.1498 79.2917 49.6031C78.7359 50.7786 77.9096 51.8057 76.8803 52.6002C76.3036 53.0281 75.635 53.3156 74.9278 53.4398C74.3394 53.5338 73.7372 53.487 73.1705 53.3031C72.1649 52.9614 71.8135 52.3757 71.8525 52.3659Z" fill="#455A64"/>
<path d="M93.8382 66.395C93.6473 67.1411 93.5586 67.9096 93.5746 68.6795C93.5695 69.0466 93.6426 69.4105 93.7891 69.7472C93.9355 70.0838 94.1519 70.3855 94.4239 70.632C94.7063 70.9386 95.0535 71.1783 95.4403 71.3337C95.8271 71.4891 96.2436 71.5562 96.6596 71.5302C97.4066 71.4844 98.1125 71.1728 98.6497 70.6517C99.1869 70.1306 99.5199 69.4345 99.5884 68.6892L99.7641 67.0003C98.2119 66.6391 93.9553 66.4926 93.8382 66.395Z" fill="#FF9A6C"/>
<path d="M98.2412 70.9444C98.2412 70.9444 98.0362 70.9444 97.7042 71.0322C97.2356 71.1287 96.7558 71.1582 96.2789 71.1201C95.5896 71.0482 94.9522 70.7208 94.4923 70.2024C94.0763 69.6879 93.8083 69.0698 93.7171 68.4145C93.626 67.7591 93.7151 67.0913 93.9749 66.4828L93.7699 66.6C95.2928 66.7464 96.6303 66.8538 97.5773 66.9221C98.0864 66.9831 98.601 66.9831 99.1101 66.9221C98.6213 66.771 98.1169 66.676 97.6066 66.639C96.6303 66.5121 95.3319 66.3461 93.8089 66.1802H93.6625L93.6039 66.3071C93.3018 66.9834 93.1983 67.7317 93.3055 68.4647C93.4127 69.1976 93.7261 69.885 94.2092 70.4465C94.7412 71.024 95.4757 71.3737 96.2594 71.4227C96.7636 71.4403 97.2668 71.3641 97.7433 71.1982C97.9247 71.148 98.094 71.0617 98.2412 70.9444Z" fill="#263238"/>
<path d="M56.2519 97.3428C55.6954 97.3428 47.7291 100.525 45.6301 108.365C43.5311 116.204 37.8199 144.877 37.8199 144.877L31.7183 153.293C31.7183 153.293 33.6708 168.669 44.8784 165.74C44.8784 165.74 52.3371 167.048 54.7192 159.482C57.1012 151.916 61.7092 129.355 61.7092 129.355L56.2519 97.3428Z" fill="#455A64"/>
<path d="M79.5552 84.2119L75.328 90.5967L56.281 97.3427L61.7383 152.57L59.6979 181.526C59.4246 185.373 62.6267 188.409 63.9642 188.516H124.932C126.426 188.516 128.457 184.807 128.71 182.766C128.913 180.927 128.751 179.066 128.232 177.289L125.069 166.209C125.538 173.101 123.478 125.108 123.399 123.36L128.007 98.6705L106.334 89.884L102.986 84.7098L93.223 92.1295L79.5552 84.2119Z" fill="#455A64"/>
<path d="M127.978 98.6704C127.978 98.6704 132.342 102.497 133.074 105.416C133.807 108.335 149.476 142.29 149.476 142.29L157.286 144.399L159.365 148.704C160.592 151.19 160.922 154.023 160.299 156.723C159.677 159.424 158.14 161.827 155.948 163.524C155.679 163.728 155.399 163.917 155.109 164.09C150.901 166.589 143.335 166.492 138.932 161.298C134.754 156.417 122.541 138.658 122.541 138.658V116.946L127.978 98.6704Z" fill="#455A64"/>
<path d="M149.954 142.31C149.162 142.423 148.376 142.579 147.601 142.778C145.785 143.404 144.177 144.519 142.954 146C141.753 147.513 140.767 149.185 140.026 150.969C139.746 151.736 139.389 152.472 138.961 153.166C139.078 152.354 139.308 151.562 139.645 150.813C140.316 148.93 141.307 147.176 142.574 145.629C143.861 144.063 145.599 142.931 147.553 142.388C148.329 142.131 149.163 142.104 149.954 142.31Z" fill="#263238"/>
<path d="M41.5492 146.928L31.0836 138.229L25.0698 144.975L25.8118 148.285L38.8938 160.595C40.8344 159.481 42.2973 157.691 43.0039 155.568C44.3121 151.867 41.5492 146.928 41.5492 146.928Z" fill="#FFBF9D"/>
<path d="M30.9665 142.7C31.4122 141.279 31.4865 139.768 31.1823 138.31C30.8781 136.852 30.2056 135.497 29.2288 134.373C26.8608 131.903 24.0912 129.853 21.0379 128.31C19.1927 127.207 15.5317 123.341 14.7214 124.083C14.2331 124.522 13.9212 125.123 13.844 125.775C13.7667 126.428 13.9294 127.086 14.3016 127.626C15.151 129.228 19.183 131.122 19.0756 133.181C19.0633 133.383 19.0108 133.581 18.9213 133.762C18.8319 133.944 18.7071 134.105 18.5545 134.238C18.4018 134.371 18.2242 134.472 18.0321 134.535C17.8399 134.598 17.6371 134.623 17.4355 134.607C17.4355 134.607 10.2989 134.236 7.3506 133.631C4.40227 133.025 1.65896 133.269 1.69801 134.314C1.73706 135.359 2.22519 135.993 4.62681 136.491C7.02843 136.989 11.0995 137.301 11.2362 137.887C11.3728 138.473 10.5137 138.736 9.08836 138.473C7.66301 138.209 0.87794 137.399 0.301942 138.121C0.167356 138.304 0.0745264 138.513 0.0300458 138.735C-0.0144348 138.957 -0.00947482 139.186 0.0445738 139.406C0.0986223 139.626 0.200433 139.831 0.342775 140.008C0.485118 140.184 0.664498 140.326 0.868178 140.425L2.39116 141.177C2.39116 141.177 1.31726 142.349 2.01041 143.13C2.70356 143.911 4.47061 143.891 4.47061 143.891L13.4816 144.682C13.4816 144.682 13.9404 145.287 13.6378 145.658C13.3351 146.029 6.36457 144.682 6.21813 145.424C6.07169 146.166 5.41759 146.478 7.46776 147.24C10.4842 148.114 13.6251 148.48 16.7618 148.323C18.7144 148.04 26.7198 148.616 26.7198 148.616L30.9665 142.7Z" fill="#FFBF9D"/>
<path d="M105.768 91.4854C105.205 92.1923 104.577 92.8459 103.894 93.4379C102.703 94.6094 101.063 96.2398 99.3346 98.1045L98.2705 99.2662L98.0362 99.52L97.8312 99.2565C96.4937 97.5382 95.3319 96.0055 94.5216 94.9023C94.0461 94.3376 93.6397 93.7182 93.311 93.0572C93.8753 93.5315 94.3801 94.0724 94.8145 94.668C95.7127 95.7126 96.9232 97.1965 98.2802 98.905H97.8409L98.9148 97.7335C100.397 96.1244 101.965 94.596 103.611 93.1548C104.259 92.5124 104.984 91.9517 105.768 91.4854Z" fill="#263238"/>
<path d="M57.4918 111.987C57.6433 112.363 57.7483 112.757 57.8042 113.158C57.9701 113.92 58.1654 115.023 58.3899 116.39C58.8293 119.133 59.2979 122.95 59.6884 127.129C60.0789 131.307 60.362 135.163 60.5768 137.926C60.6744 139.228 60.7525 140.321 60.8111 141.207C60.8597 141.609 60.8597 142.015 60.8111 142.417C60.6804 142.032 60.5984 141.632 60.567 141.226C60.4499 140.465 60.3132 139.352 60.1472 137.965C59.8348 135.212 59.4834 131.395 59.0929 127.178C58.7023 122.96 58.3021 119.162 57.9604 116.439C57.8042 115.169 57.6675 114.076 57.5601 113.188C57.4922 112.791 57.4693 112.388 57.4918 111.987Z" fill="#263238"/>
<path d="M123.722 110.064C123.838 110.544 123.907 111.035 123.927 111.528C124.015 112.505 124.122 113.862 124.21 115.56C124.395 118.977 124.493 123.693 124.513 128.886V146.244C124.544 146.74 124.521 147.238 124.444 147.728C124.345 147.243 124.293 146.75 124.288 146.254C124.22 145.278 124.161 143.921 124.103 142.222C123.985 138.805 123.946 134.1 123.927 128.896C123.907 123.693 123.927 118.987 123.8 115.58C123.8 113.969 123.722 112.651 123.702 111.548C123.656 111.054 123.663 110.557 123.722 110.064Z" fill="#263238"/>
<path d="M48.9007 158.896C48.639 157.935 48.4433 156.956 48.3149 155.968C47.9146 153.621 47.1505 151.352 46.0499 149.241C44.9276 147.155 43.2345 145.431 41.1686 144.272C40.2764 143.855 39.3565 143.499 38.4155 143.208C38.6853 143.145 38.9659 143.145 39.2356 143.208C39.9698 143.332 40.6829 143.559 41.3541 143.881C43.5723 144.984 45.3938 146.747 46.5674 148.929C47.7018 151.092 48.4329 153.445 48.7249 155.87C48.9115 156.867 48.9706 157.884 48.9007 158.896Z" fill="#263238"/>
<path d="M51.6145 147.464C51.4974 147.601 49.8084 145.863 47.0749 144.955C44.3413 144.047 41.9592 144.34 41.9495 144.155C43.6976 143.637 45.5695 143.727 47.2604 144.409C50.1599 145.385 51.7512 147.406 51.6145 147.464Z" fill="#263238"/>
<path d="M94.5705 186.799C94.5238 186.475 94.5042 186.149 94.5119 185.822C94.5119 185.149 94.5119 184.251 94.4436 183.108C94.4436 180.697 94.3264 177.251 94.2483 173.131C94.0531 164.657 93.7797 153.049 93.4771 140.211C93.1744 127.373 93.0085 115.707 93.0182 107.282C93.0182 103.064 93.0182 99.6569 93.1159 97.2943C93.1159 96.1618 93.1744 95.2539 93.2037 94.59C93.196 94.2636 93.2156 93.937 93.2623 93.6138C93.2916 93.9385 93.2916 94.2653 93.2623 94.59C93.2623 95.2637 93.2623 96.1618 93.2623 97.3041C93.2623 99.7154 93.2623 103.103 93.3502 107.282C93.438 115.707 93.6821 127.344 93.975 140.201C94.2678 153.059 94.5119 164.696 94.5803 173.131C94.5803 177.339 94.5803 180.756 94.5803 183.108C94.5803 184.251 94.5803 185.149 94.5803 185.822C94.6042 186.147 94.6009 186.474 94.5705 186.799Z" fill="#263238"/>
<path d="M41.0417 146.537C41.7277 147.029 42.2594 147.706 42.5744 148.49C42.9905 149.306 43.2895 150.177 43.4628 151.077C43.6349 152.186 43.6349 153.316 43.4628 154.425C43.3408 155.551 43.0097 156.643 42.4865 157.647C42.0325 158.456 41.4099 159.159 40.6609 159.707C40.0037 160.263 39.1688 160.564 38.3081 160.556C39.0534 160.254 39.7584 159.86 40.4071 159.385C41.0688 158.848 41.6164 158.184 42.0179 157.432C42.4806 156.477 42.7777 155.451 42.8966 154.396C43.0481 153.341 43.0481 152.269 42.8966 151.213C42.7549 150.351 42.509 149.508 42.1644 148.704C41.8266 147.964 41.4519 147.24 41.0417 146.537Z" fill="#263238"/>
<path d="M113.881 135.476C113.424 135.796 112.94 136.077 112.436 136.316C111.46 136.833 110.103 137.546 108.375 138.405C104.919 140.123 100.096 142.388 94.7071 144.682C89.3181 146.977 84.2903 148.87 80.6586 150.149C78.833 150.794 77.3588 151.292 76.3337 151.614C75.8094 151.816 75.2667 151.966 74.7131 152.063C75.2104 151.807 75.726 151.588 76.2556 151.409L80.5122 149.769C84.1146 148.392 89.0643 146.44 94.4728 144.155C99.8813 141.871 104.733 139.664 108.228 138.044L112.368 136.091C112.853 135.842 113.359 135.636 113.881 135.476Z" fill="#263238"/>
<path d="M14.9264 141.822C12.8394 142.106 10.7268 142.152 8.62947 141.958C6.52284 141.946 4.42403 141.701 2.37158 141.226C2.37158 141.06 5.193 141.226 8.65875 141.372C12.1245 141.519 14.9264 141.656 14.9264 141.822Z" fill="#FF9A6C"/>
<path d="M21.3406 141.343C21.3406 141.402 20.667 141.294 19.8664 140.621C19.3505 140.172 18.9402 139.614 18.6651 138.988C18.39 138.362 18.2568 137.682 18.2751 136.999C18.342 136.279 18.4727 135.567 18.6656 134.87C18.8138 134.333 18.8861 133.778 18.8804 133.221C18.837 132.711 18.7186 132.211 18.5289 131.737C18.5289 131.668 19.144 132.127 19.2904 133.191C19.3521 133.788 19.3192 134.391 19.1928 134.978C19.0268 135.651 18.9126 136.337 18.8511 137.028C18.8354 138.253 19.3018 139.434 20.1495 140.318C20.8036 141.011 21.3796 141.255 21.3406 141.343Z" fill="#FF9A6C"/>
<path d="M92.618 92.5005C92.2906 93.6285 91.8659 94.7261 91.3488 95.7808L90.6362 97.4111C90.3775 98.0562 90.0809 98.6854 89.7478 99.2953C89.6275 99.4974 89.4504 99.6598 89.2387 99.7621C89.027 99.8645 88.7898 99.9025 88.5567 99.8713C88.1464 99.7598 87.7639 99.5636 87.434 99.2953L85.4815 97.9285C82.7577 96.0541 80.3072 94.3261 78.55 93.0472C77.5645 92.4104 76.6368 91.6884 75.7773 90.8896C76.8289 91.4131 77.8347 92.0238 78.7843 92.7153C80.6001 93.9063 83.0798 95.5757 85.8134 97.4599L87.7659 98.8365C88.0288 99.0559 88.33 99.2247 88.6543 99.3344C88.7889 99.3504 88.9252 99.3254 89.0454 99.2627C89.1656 99.2 89.2641 99.1025 89.328 98.9829C89.9625 97.8212 90.4995 96.5618 90.9876 95.6148C91.4483 94.5354 91.9935 93.4941 92.618 92.5005Z" fill="#263238"/>
<path d="M151.8 146.039L162.997 139.43L168.396 146.039L167.273 149.241L152.844 159.98C151.064 158.511 149.875 156.448 149.496 154.171C148.763 150.139 151.8 146.039 151.8 146.039Z" fill="#FFBF9D"/>
<path d="M162.753 143.101C162.483 141.639 162.589 140.132 163.06 138.721C163.531 137.311 164.353 136.043 165.448 135.037C168.088 132.86 171.079 131.147 174.293 129.97C176.245 129.091 180.336 125.674 181.068 126.504C181.498 126.998 181.735 127.631 181.735 128.286C181.735 128.941 181.498 129.574 181.068 130.068C180.033 131.571 174.107 133.826 174.927 135.72C175.269 136.501 177.134 136.638 177.134 136.638C180.506 136.877 183.888 136.945 187.267 136.843C190.264 136.589 192.959 137.155 192.803 138.19C192.647 139.225 192.08 139.791 189.601 139.996C187.121 140.201 183.079 139.996 182.874 140.621C182.669 141.246 183.489 141.597 184.944 141.451C186.398 141.305 193.213 141.344 193.73 142.115C193.845 142.311 193.915 142.53 193.935 142.757C193.954 142.984 193.923 143.212 193.844 143.425C193.764 143.638 193.638 143.831 193.475 143.989C193.312 144.147 193.116 144.268 192.9 144.341L191.299 144.907C191.299 144.907 192.276 146.205 191.455 146.928C190.635 147.65 188.917 147.396 188.917 147.396L179.867 147.133C179.867 147.133 179.35 147.68 179.613 148.051C179.877 148.422 186.955 147.914 187.004 148.685C187.052 149.456 187.677 149.827 185.559 150.345C182.459 150.862 179.296 150.862 176.196 150.345C174.244 149.827 166.268 149.466 166.268 149.466L162.753 143.101Z" fill="#FFBF9D"/>
<path d="M154.884 161.162C154.64 161.141 154.404 161.068 154.191 160.947C153.579 160.682 153.004 160.337 152.483 159.922C150.71 158.556 149.498 156.59 149.073 154.393C148.649 152.196 149.042 149.919 150.179 147.992C150.511 147.413 150.914 146.879 151.379 146.4C151.711 146.078 151.926 145.922 151.955 145.951C151.985 145.981 151.272 146.732 150.54 148.187C149.557 150.063 149.244 152.217 149.65 154.296C150.056 156.374 151.159 158.251 152.776 159.619C153.967 160.683 154.933 161.064 154.884 161.162Z" fill="#263238"/>
<path d="M176.382 133.259C176.44 133.328 175.962 133.796 175.337 134.616C174.981 135.082 174.738 135.623 174.625 136.198C174.488 136.852 174.498 137.623 174.38 138.453C174.281 139.173 174.039 139.866 173.668 140.491C173.298 141.116 172.807 141.662 172.223 142.095C171.774 142.492 171.209 142.735 170.612 142.788C170.612 142.69 171.198 142.456 171.969 141.812C172.968 140.934 173.622 139.73 173.814 138.414C173.87 137.648 173.968 136.885 174.107 136.13C174.259 135.486 174.571 134.892 175.015 134.402C175.767 133.533 176.333 133.191 176.382 133.259Z" fill="#FF9A6C"/>
<path d="M177.993 143.667C177.993 143.501 181.009 143.667 184.7 143.93C188.39 144.194 191.377 144.614 191.368 144.78C189.125 144.88 186.878 144.789 184.651 144.506C182.411 144.418 180.184 144.137 177.993 143.667Z" fill="#FF9A6C"/>
<path d="M63.447 188.517C63.447 188.517 76.1385 196.229 95.6639 195.585C115.189 194.94 124.903 188.517 124.903 188.517H63.447Z" fill="#263238"/>
<path d="M277.845 131.131C290.371 117.642 297.367 99.9375 297.447 81.5302C297.526 63.1229 290.682 45.3585 278.272 31.7625C265.863 18.1666 248.796 9.73282 230.458 8.13496C212.12 6.53709 193.852 11.8919 179.278 23.1368C164.704 34.3816 154.891 50.6945 151.785 68.8382C148.68 86.9818 152.509 105.63 162.512 121.082C172.516 136.534 187.964 147.66 205.789 152.252C223.615 156.845 242.515 154.567 258.74 145.873C267.604 149.417 286.847 156.856 286.847 156.856L277.845 131.131Z" fill="#FAFAFA"/>
<path d="M277.845 131.131C277.845 131.131 278.06 131.707 278.46 132.82L280.227 137.77C281.76 142.124 284.025 148.509 286.954 156.817L287.032 157.061L286.808 156.963L258.681 146.019H258.818C250.024 150.717 240.372 153.59 230.44 154.466C220.509 155.341 210.503 154.202 201.023 151.115C197.348 149.927 193.779 148.435 190.352 146.654C186.793 144.839 183.391 142.733 180.179 140.357C173.451 135.36 167.607 129.272 162.89 122.345C155.366 111.212 151.025 98.2358 150.335 84.8167C150.108 80.1805 150.311 75.5332 150.94 70.9342C153.078 55.4033 160.11 40.9579 171.015 29.6952C181.921 18.4324 196.132 10.9386 211.586 8.30163C227.04 5.66466 242.932 8.0218 256.956 15.0308C270.979 22.0399 282.403 33.336 289.57 47.2792C292.283 52.4965 294.342 58.028 295.701 63.7489C298.041 73.6102 298.344 83.8455 296.59 93.8277C294.426 106.159 289.116 117.723 281.174 127.402C280.14 128.7 279.28 129.608 278.714 130.233L277.845 131.209L278.665 130.233C279.222 129.598 280.081 128.661 281.087 127.363C284.107 123.62 286.755 119.591 288.994 115.335C292.54 108.602 295.007 101.355 296.307 93.857C298.024 83.914 297.692 73.7248 295.33 63.9148C293.969 58.2208 291.914 52.7156 289.209 47.5233C284.625 38.6509 278.277 30.8084 270.554 24.477C262.831 18.1455 253.896 13.4585 244.297 10.7035C234.698 7.94846 224.638 7.18347 214.733 8.45544C204.827 9.7274 195.286 13.0095 186.695 18.1005C178.103 23.1914 170.643 29.9838 164.77 38.0612C158.897 46.1385 154.737 55.3304 152.543 65.0731C150.35 74.8158 150.17 84.9039 152.015 94.7186C153.859 104.533 157.69 113.868 163.27 122.149C167.955 129.031 173.756 135.082 180.433 140.054C183.625 142.417 187.005 144.517 190.538 146.331C193.941 148.1 197.483 149.586 201.13 150.773C210.554 153.881 220.51 155.042 230.396 154.188C240.282 153.334 249.891 150.482 258.642 145.804H258.71H258.779L286.866 156.836L286.72 156.983C283.791 148.665 281.604 142.221 280.091 137.848C279.339 135.68 278.773 134.021 278.382 132.898C277.992 131.775 277.845 131.131 277.845 131.131Z" fill="#263238"/>
<path d="M267.146 31.1809C267.996 30.4468 268.673 29.5321 269.125 28.5036C269.578 27.4751 269.795 26.3586 269.762 25.2354C269.567 22.9998 267.643 20.8812 265.408 20.9886C265.774 19.9452 265.818 18.8155 265.532 17.7471C265.247 16.6787 264.645 15.7212 263.807 14.9999C262.969 14.2786 261.932 13.827 260.833 13.7041C259.734 13.5812 258.623 13.7927 257.646 14.311C257.728 13.699 257.615 13.0769 257.322 12.5334C257.029 11.9899 256.572 11.5528 256.016 11.2845C255.04 10.7378 251.34 10.6304 250.158 12.7489L244.682 30.5365C243.538 31.5624 242.609 32.8042 241.947 34.1904C241.285 35.5767 240.903 37.0801 240.824 38.6143C240.746 40.1485 240.971 41.6831 241.487 43.13C242.003 44.5769 242.8 45.9075 243.832 47.0453C243.154 47.969 242.767 49.074 242.721 50.2189C242.674 51.3638 242.97 52.4965 243.57 53.4724C244.171 54.4482 245.049 55.2227 246.092 55.6969C247.135 56.1711 248.296 56.3234 249.426 56.1343C249.491 56.9154 249.724 57.6732 250.109 58.356C250.494 59.0388 251.021 59.6306 251.656 60.0909C252.29 60.5512 253.016 60.8692 253.785 61.0231C254.553 61.1771 255.346 61.1634 256.109 60.983C256.872 60.8026 257.586 60.4598 258.204 59.9779C258.823 59.496 259.329 58.8864 259.69 58.1907C260.051 57.495 260.258 56.7296 260.296 55.9468C260.334 55.1639 260.203 54.3821 259.911 53.6546C262.469 54.6894 265.525 52.7564 266.452 50.1498C267.38 47.5432 266.638 44.6143 265.359 42.1541C266.507 41.862 267.546 41.2406 268.346 40.3665C269.146 39.4924 269.673 38.4035 269.863 37.2338C270.053 36.064 269.897 34.8643 269.414 33.782C268.931 32.6998 268.143 31.7821 267.146 31.1418V31.1809Z" fill="#263238"/>
<path d="M253.243 15.873C255.694 16.8493 256.065 18.919 256.465 20.6372C257.344 24.3568 255.713 29.658 253.458 32.7332C251.203 35.8085 248.86 37.2924 245.052 37.6146C245.326 31.822 245.596 26.036 245.863 20.2565L253.243 15.873Z" fill="#D4145A"/>
<path d="M253.976 25.919C254.879 24.8373 255.375 23.4724 255.375 22.0628C255.375 20.6531 254.879 19.2882 253.976 18.2065C255.167 16.8983 254.952 14.7505 253.897 13.3252C252.76 11.9651 251.332 10.8775 249.719 10.1425C249.339 8.10622 248.193 6.29298 246.517 5.07615C244.841 3.85933 242.762 3.33157 240.708 3.60153C238.834 0.389601 234.411 -0.401176 230.779 0.399364C229.904 0.658055 228.997 0.79279 228.085 0.799635C227.427 0.701462 226.775 0.564549 226.132 0.389603C222.54 -0.352361 218.761 1.9614 217.112 5.27095C216.889 5.81291 216.593 6.32199 216.233 6.78416C215.663 7.30074 215.03 7.74354 214.349 8.10213C213.658 8.56399 213.074 9.16927 212.638 9.8768C212.201 10.5843 211.923 11.3775 211.82 12.2025C211.664 13.6083 212.015 15.1313 211.332 16.3711C210.99 16.9959 210.424 17.4743 210.141 18.1284C209.34 20.0126 211.352 22.1409 210.815 24.1227C210.707 24.5327 210.492 24.8939 210.356 25.2942C210.049 26.1105 210.056 27.0113 210.375 27.8228C210.711 28.3941 210.936 29.0233 211.039 29.6777C210.968 30.1745 210.834 30.6601 210.639 31.1225C210.317 32.3038 212.591 37.1071 213.568 37.8295L244.545 40.1823C245.745 40.011 246.862 39.4678 247.737 38.629C248.613 37.7901 249.203 36.6979 249.426 35.506C249.437 35.108 249.562 34.7216 249.787 34.393C250.045 34.1657 250.348 33.996 250.676 33.8951C252.736 32.9189 253.165 30.2439 253.107 27.9692C253.084 27.6412 253.114 27.3116 253.194 26.9929C253.383 26.5876 253.648 26.2228 253.976 25.919Z" fill="#263238"/>
<path d="M245.091 25.3522C245.265 22.3709 244.632 19.3979 243.257 16.7467C241.882 14.0955 239.818 11.8643 237.281 10.2884C234.869 8.95487 232.213 8.12145 229.471 7.83794C226.963 7.42603 224.389 7.78696 222.091 8.87279C220.353 9.1559 213.704 14.457 212.962 20.6564C212.123 27.539 211.381 35.974 211.898 41.158C212.953 51.6236 220.821 53.4004 220.821 53.4004L218.869 70.5339L233.298 84.1041L240.601 64.5787L245.091 25.3522Z" fill="#AE7461"/>
<path d="M215.325 29.8333C215.306 30.1798 215.421 30.5203 215.646 30.784C215.872 31.0478 216.19 31.2143 216.536 31.2489C216.704 31.2708 216.875 31.2589 217.038 31.2141C217.202 31.1693 217.355 31.0924 217.488 30.9879C217.622 30.8835 217.733 30.7535 217.816 30.6056C217.899 30.4576 217.951 30.2947 217.971 30.1262C217.995 29.7802 217.883 29.4383 217.659 29.1737C217.434 28.9092 217.115 28.7429 216.77 28.7106C216.601 28.6874 216.429 28.6982 216.265 28.7424C216.1 28.7865 215.946 28.8632 215.811 28.9678C215.677 29.0724 215.564 29.2028 215.481 29.3515C215.397 29.5001 215.344 29.664 215.325 29.8333Z" fill="#263238"/>
<path d="M215.11 24.7668C215.267 24.9523 216.311 24.2591 217.746 24.347C219.181 24.4349 220.177 25.2061 220.343 25.0402C220.509 24.8742 220.275 24.6497 219.835 24.2884C219.243 23.821 218.519 23.5512 217.766 23.5172C217.023 23.4742 216.285 23.6654 215.657 24.0639C215.198 24.3763 215.032 24.6887 215.11 24.7668Z" fill="#263238"/>
<path d="M222.832 36.5405C222.09 36.2647 221.316 36.0811 220.528 35.9938C220.167 35.9352 219.826 35.8376 219.777 35.5838C219.773 35.2073 219.878 34.8377 220.079 34.5196C220.48 33.6508 220.89 32.7526 221.319 31.7958C223.047 27.8908 224.326 24.7277 224.17 24.6593C224.014 24.591 222.481 27.676 220.753 31.5518C220.343 32.528 219.943 33.4164 219.562 34.2951C219.303 34.7186 219.206 35.2213 219.289 35.7107C219.333 35.8435 219.407 35.9645 219.505 36.0643C219.603 36.1642 219.723 36.2402 219.855 36.2867C220.055 36.3487 220.261 36.388 220.47 36.4038C221.247 36.5568 222.042 36.6028 222.832 36.5405Z" fill="#263238"/>
<path d="M220.821 53.4103C225.714 53.7572 230.606 52.7435 234.958 50.4814C234.958 50.4814 230.877 57.5984 220.529 56.0364L220.821 53.4103Z" fill="#6F4439"/>
<path d="M216.379 19.1045C216.594 19.4657 217.707 19.29 218.976 19.4755C220.245 19.661 221.29 20.0515 221.593 19.7489C221.729 19.6122 221.593 19.2607 221.183 18.88C220.602 18.4174 219.9 18.1326 219.162 18.0599C218.423 17.9583 217.671 18.0701 216.994 18.3821C216.477 18.6164 216.282 18.9288 216.379 19.1045Z" fill="#263238"/>
<path d="M230.74 31.3078C230.713 31.6549 230.55 31.9773 230.287 32.2056C230.024 32.4338 229.682 32.5497 229.335 32.5281C229.165 32.5243 228.998 32.4869 228.843 32.4178C228.688 32.3488 228.548 32.2496 228.432 32.126C228.315 32.0025 228.225 31.857 228.165 31.698C228.106 31.5391 228.078 31.3699 228.085 31.2004C228.115 30.8542 228.278 30.5333 228.541 30.3055C228.803 30.0777 229.144 29.961 229.491 29.98C229.66 29.9838 229.828 30.0213 229.983 30.0903C230.138 30.1593 230.277 30.2585 230.394 30.3821C230.51 30.5057 230.601 30.6512 230.66 30.8101C230.72 30.969 230.747 31.1382 230.74 31.3078Z" fill="#263238"/>
<path d="M234.645 26.4559C234.47 26.6121 233.533 25.7725 232.107 25.6358C230.682 25.4992 229.569 26.124 229.432 25.9287C229.295 25.7335 229.559 25.548 230.047 25.2649C230.702 24.8928 231.456 24.7357 232.205 24.8158C232.946 24.8823 233.647 25.1832 234.206 25.6749C234.616 26.0556 234.782 26.3876 234.645 26.4559Z" fill="#263238"/>
<path d="M235.026 20.8516C234.714 21.1445 233.65 20.7051 232.332 20.5685C231.014 20.4318 229.862 20.5685 229.637 20.1877C229.539 20.012 229.744 19.6996 230.272 19.4457C230.973 19.123 231.753 19.0111 232.517 19.1236C233.283 19.1979 234.01 19.4967 234.606 19.9827C235.046 20.3537 235.172 20.7051 235.026 20.8516Z" fill="#263238"/>
<path d="M242.866 35.0763C242.866 34.305 243.9 32.538 244.672 32.4599C246.732 32.2646 250.383 32.6356 250.119 37.8099C249.768 44.878 242.739 43.0622 242.739 42.8572C242.739 42.6521 242.7 37.7415 242.866 35.0763Z" fill="#AE7461"/>
<path d="M244.818 40.3674C244.818 40.3674 244.935 40.465 245.14 40.5724C245.427 40.7091 245.754 40.7335 246.058 40.6407C246.529 40.3733 246.921 39.9857 247.194 39.5175C247.466 39.0494 247.61 38.5173 247.61 37.9755C247.659 37.3685 247.573 36.7582 247.356 36.1889C247.3 35.9673 247.19 35.7627 247.037 35.5927C246.884 35.4227 246.692 35.2923 246.478 35.2127C246.338 35.1681 246.188 35.1741 246.052 35.2294C245.916 35.2847 245.804 35.3859 245.736 35.5153C245.628 35.7008 245.667 35.8472 245.628 35.857C245.589 35.8668 245.482 35.7301 245.55 35.447C245.601 35.2745 245.708 35.1235 245.853 35.0174C245.952 34.9457 246.065 34.8956 246.184 34.8703C246.303 34.8451 246.427 34.8453 246.546 34.871C246.834 34.9411 247.099 35.0852 247.315 35.2889C247.531 35.4926 247.69 35.7489 247.776 36.0327C248.04 36.6478 248.151 37.3179 248.098 37.9853C247.981 39.4009 247.19 40.6993 246.146 40.9141C245.952 40.9601 245.751 40.962 245.557 40.9198C245.362 40.8775 245.18 40.7922 245.023 40.67C244.828 40.5138 244.799 40.3869 244.818 40.3674Z" fill="#6F4439"/>
<path d="M211.352 20.6565C212.068 20.3462 212.682 19.8378 213.119 19.191C213.557 18.5442 213.8 17.7858 213.822 17.0052C214.798 17.3371 215.774 16.1754 216.389 15.3944C217.004 14.6133 217.688 14.2326 217.707 13.2368C217.689 13.0428 217.723 12.8474 217.805 12.6706C218.01 12.4377 218.296 12.2913 218.605 12.2605C219.373 12.0607 220.077 11.6719 220.655 11.1296C221.234 10.5873 221.667 9.90875 221.915 9.15601C223.407 9.9147 225.064 10.2904 226.738 10.2494C227.074 10.8049 227.546 11.2657 228.11 11.5883C228.674 11.911 229.31 12.0849 229.96 12.0937C230.609 12.1025 231.25 11.9459 231.822 11.6386C232.394 11.3313 232.879 10.8835 233.23 10.3373C233.44 10.7882 233.745 11.1883 234.124 11.5102C234.503 11.8321 234.948 12.0681 235.427 12.202C236.382 12.4513 237.369 12.5599 238.355 12.5241C238.116 13.4705 238.225 14.4716 238.665 15.3433C239.104 16.2151 239.844 16.8988 240.747 17.2688C241.001 17.3664 241.284 17.4543 241.382 17.6984C241.411 17.8317 241.413 17.9695 241.387 18.1036C241.362 18.2377 241.311 18.3655 241.235 18.4794C241.077 18.878 241 19.3045 241.01 19.7335C241.02 20.1624 241.116 20.585 241.292 20.9759C241.469 21.3668 241.723 21.7181 242.039 22.0088C242.354 22.2995 242.725 22.5235 243.129 22.6676C242.847 22.8905 242.619 23.1746 242.462 23.4984C242.305 23.8222 242.223 24.1773 242.223 24.5371C242.223 24.8969 242.305 25.2521 242.462 25.5759C242.619 25.8997 242.847 26.1837 243.129 26.4067C243.373 26.5726 243.705 26.7777 243.647 27.0803C243.615 27.1918 243.555 27.2928 243.471 27.3732C242.848 27.994 242.414 28.7797 242.221 29.6381C242.148 30.0664 242.24 30.5068 242.479 30.8696C242.719 31.2323 243.087 31.4902 243.51 31.5907C243.255 31.7614 243.038 31.9816 242.87 32.2382C242.702 32.4949 242.588 32.7826 242.534 33.0844C242.485 33.6994 243.071 34.3633 243.657 34.1778C243.91 34.0899 247.464 33.6115 247.63 33.4065C249.788 30.8097 247.454 27.6661 247.444 24.2882C247.382 20.8838 246.526 17.541 244.945 14.5255C244.319 13.2493 243.528 12.0611 242.592 10.9914C241.473 9.82542 240.226 8.79044 238.873 7.90638C237.209 6.60472 235.347 5.57953 233.357 4.87019C229.598 3.74748 225.547 4.87019 221.905 6.34435C220.496 6.84472 219.16 7.53091 217.932 8.38475C216.545 9.51327 215.368 10.8783 214.456 12.4167C212.985 14.5484 211.971 16.9616 211.479 19.5045" fill="#263238"/>
<path d="M210.141 18.1085C210.243 17.8396 210.388 17.589 210.571 17.3666C210.737 17.142 210.961 16.8882 211.176 16.5465C211.427 16.1532 211.59 15.7103 211.654 15.2481C211.728 14.6687 211.751 14.0839 211.723 13.5005C211.692 12.7958 211.754 12.09 211.908 11.4016C212.114 10.6268 212.476 9.90244 212.972 9.2733C213.254 8.90678 213.582 8.57858 213.949 8.29703C214.313 8.00977 214.702 7.75497 215.11 7.53554C215.531 7.30649 215.913 7.01335 216.243 6.66666C216.545 6.27133 216.795 5.83809 216.985 5.37798C217.975 3.34091 219.656 1.72172 221.729 0.809047C222.287 0.565802 222.87 0.385696 223.467 0.272096C224.085 0.158005 224.715 0.121926 225.342 0.164706C225.654 0.164706 225.966 0.252574 226.318 0.301387L227.245 0.525928C227.858 0.696583 228.5 0.736496 229.13 0.64308C229.774 0.555215 230.408 0.359962 231.082 0.24281C231.747 0.105364 232.424 0.0269567 233.103 0.00850343C233.794 -0.017219 234.487 0.0154413 235.173 0.106133C235.87 0.212911 236.556 0.38283 237.223 0.613793C238.601 1.0893 239.795 1.98362 240.64 3.17162L240.884 3.5426L240.776 3.48402C242.858 3.21389 244.964 3.75141 246.662 4.98612C248.36 6.22082 249.52 8.05892 249.905 10.1226L249.846 10.0445C250.678 10.4751 251.481 10.9611 252.248 11.4992C253.018 12.0181 253.681 12.6811 254.2 13.4517C254.686 14.1928 254.953 15.0555 254.971 15.9412C255.016 16.8007 254.725 17.644 254.161 18.294V18.1769C255.049 19.2149 255.546 20.5306 255.567 21.8965C255.613 23.1256 255.272 24.3381 254.591 25.3622C254.438 25.5988 254.268 25.8239 254.083 26.0358C253.897 26.2281 253.721 26.4301 253.556 26.6411C253.407 26.8399 253.307 27.0705 253.263 27.3147C253.243 27.5584 253.243 27.8033 253.263 28.0469C253.291 28.9447 253.212 29.8426 253.029 30.7219C252.882 31.4189 252.603 32.0815 252.209 32.6745C251.906 33.1207 251.505 33.4915 251.037 33.7581C250.666 33.9729 250.334 34.051 250.149 34.1682C250.048 34.2232 249.956 34.2922 249.875 34.3732C249.944 34.282 250.03 34.2057 250.129 34.1486C250.315 34.0217 250.647 33.9338 251.017 33.7093C251.468 33.4406 251.852 33.0735 252.14 32.6354C252.522 32.0387 252.79 31.3768 252.931 30.6829C253.104 29.8089 253.173 28.9176 253.136 28.0274C253.117 27.7772 253.117 27.5259 253.136 27.2757C253.18 27.0102 253.287 26.7592 253.448 26.5435C253.614 26.3265 253.789 26.1179 253.976 25.9187C254.163 25.7177 254.33 25.4986 254.473 25.2646C255.113 24.2574 255.43 23.0788 255.381 21.8867C255.354 20.558 254.863 19.2806 253.995 18.2745L253.946 18.2062L253.995 18.1476C254.53 17.5372 254.803 16.7414 254.757 15.9315C254.733 15.0783 254.476 14.2479 254.015 13.5298C253.51 12.7985 252.874 12.1665 252.14 11.6652C251.346 11.138 250.518 10.665 249.66 10.2496C249.279 8.24336 248.146 6.45838 246.493 5.25908C244.841 4.05979 242.792 3.53663 240.767 3.79643H240.64V3.73785L240.405 3.3864C239.59 2.2328 238.432 1.3652 237.096 0.906673C236.444 0.673342 235.77 0.506525 235.085 0.408773C234.412 0.314627 233.733 0.278701 233.054 0.301387C232.398 0.322177 231.744 0.400578 231.102 0.53569C230.448 0.652842 229.813 0.838333 229.149 0.93596C228.824 0.964066 228.498 0.964066 228.173 0.93596C227.843 0.91145 227.516 0.855883 227.197 0.769996L226.22 0.545454C225.918 0.545454 225.615 0.428299 225.303 0.408773C224.696 0.367618 224.086 0.400403 223.487 0.506403C222.903 0.616581 222.334 0.79008 221.788 1.02382C220.735 1.47404 219.778 2.12006 218.967 2.92755C218.203 3.66661 217.579 4.53615 217.121 5.49514C216.919 5.96936 216.657 6.4156 216.34 6.82286C215.998 7.17713 215.603 7.47675 215.169 7.71127C214.764 7.92533 214.379 8.17356 214.017 8.45323C213.678 8.72489 213.373 9.03627 213.109 9.38069C212.613 10.0015 212.254 10.7201 212.055 11.4894C211.897 12.1674 211.831 12.8636 211.859 13.5591C211.879 14.1466 211.847 14.7347 211.762 15.3164C211.695 15.787 211.525 16.237 211.264 16.6344C211.03 16.9761 210.805 17.2397 210.629 17.4544C210.501 17.6192 210.384 17.792 210.278 17.9719C210.236 18.0207 210.19 18.0664 210.141 18.1085Z" fill="#455A64"/>
<path d="M237.477 1.83407C237.477 1.83407 237.301 1.71692 236.969 1.52167C236.498 1.26038 235.986 1.07895 235.456 0.984717C234.672 0.836214 233.862 0.903706 233.113 1.17997C232.197 1.52372 231.414 2.1493 230.877 2.96655C230.717 3.21226 230.583 3.47401 230.477 3.74756C230.423 3.86393 230.396 3.99048 230.396 4.11854C230.396 4.24661 230.423 4.37316 230.477 4.48952L230.633 4.74335L230.36 4.64573C229.636 4.39828 228.844 4.44383 228.153 4.77264C227.606 5.03928 227.158 5.47363 226.874 6.0125C226.689 6.36806 226.573 6.75573 226.533 7.15474C226.533 7.43786 226.533 7.59406 226.533 7.59406C226.533 7.59406 226.533 7.59406 226.533 7.48667C226.522 7.37629 226.522 7.26512 226.533 7.15474C226.539 6.73444 226.639 6.32083 226.826 5.94416C227.109 5.36786 227.572 4.89869 228.144 4.60668C228.877 4.24824 229.722 4.19215 230.496 4.45047L230.369 4.59691C230.302 4.45326 230.268 4.29663 230.268 4.13807C230.268 3.9795 230.302 3.82287 230.369 3.67922C230.48 3.3886 230.621 3.11044 230.789 2.84939C231.35 1.99485 232.172 1.34426 233.132 0.994482C233.916 0.722172 234.759 0.664863 235.573 0.828514C236.115 0.940517 236.631 1.1524 237.096 1.45333C237.222 1.5327 237.343 1.62077 237.457 1.71692C237.447 1.78526 237.486 1.82431 237.477 1.83407Z" fill="#455A64"/>
<path d="M248.45 10.6303C248.45 10.6303 248.372 10.7279 248.186 10.8743C247.928 11.0717 247.65 11.2418 247.357 11.382C246.907 11.5933 246.418 11.7065 245.921 11.7139C245.289 11.7265 244.676 11.4999 244.203 11.0794H244.359L244.135 11.3625L243.881 11.6261C243.356 12.0927 242.726 12.4274 242.046 12.6023C241.491 12.7456 240.915 12.7821 240.347 12.7097C239.969 12.6535 239.601 12.5451 239.254 12.3876C239.121 12.3336 238.999 12.2577 238.892 12.163C239.365 12.3552 239.861 12.4864 240.367 12.5535C240.914 12.6064 241.467 12.5567 241.997 12.4071C242.646 12.2252 243.242 11.8904 243.735 11.4308L243.979 11.177L244.184 10.9232L244.262 10.8255L244.35 10.9036C244.78 11.2941 245.34 11.5099 245.921 11.5089C246.395 11.5121 246.864 11.4156 247.298 11.2258C248.04 10.9232 248.45 10.601 248.45 10.6303Z" fill="#455A64"/>
<path d="M251.788 17.406C251.788 17.406 251.788 17.4548 251.788 17.5426C251.745 17.6625 251.682 17.7746 251.603 17.8746C251.309 18.2427 250.887 18.4867 250.422 18.5579C249.736 18.6417 249.04 18.5229 248.42 18.2163C248.047 18.0675 247.682 17.8981 247.327 17.7086C246.915 17.5016 246.59 17.1558 246.409 16.7323V16.6152L246.575 16.6835C245.91 17.1668 245.176 17.5485 244.398 17.816C243.766 18.017 243.092 18.044 242.446 17.8941C242.001 17.794 241.59 17.5785 241.255 17.2693C241.163 17.187 241.084 17.0916 241.02 16.9862L240.952 16.8788C240.952 16.8788 241.069 17.0057 241.313 17.2009C241.649 17.4765 242.048 17.6643 242.475 17.7476C243.125 17.891 243.802 17.847 244.427 17.6207C245.181 17.355 245.892 16.98 246.536 16.5078L246.663 16.4199V16.5664V16.664C246.838 17.0285 247.13 17.3239 247.493 17.5036C247.844 17.6988 248.215 17.855 248.557 18.0112C249.159 18.3186 249.837 18.4473 250.51 18.3822C250.948 18.3233 251.352 18.1126 251.652 17.7867C251.709 17.6644 251.755 17.5369 251.788 17.406Z" fill="#455A64"/>
<path d="M228.924 38.3955C227.279 38.7591 225.688 39.3333 224.19 40.104C224.063 40.8264 225.254 42.4177 225.927 42.7106C226.3 42.8503 226.701 42.8993 227.096 42.8535C227.492 42.8076 227.871 42.6683 228.202 42.447C228.797 41.9547 229.186 41.2586 229.295 40.4945C229.33 39.7759 229.203 39.0586 228.924 38.3955Z" fill="#6F4439"/>
<path d="M226.123 42.7984C226.667 42.7931 227.206 42.6906 227.714 42.4958C228.226 42.2639 228.65 41.8738 228.924 41.3828C229.25 40.7864 229.34 40.09 229.178 39.4303C229.099 39.1156 228.964 38.8178 228.778 38.5516L229.012 38.62C227.557 39.1793 226.058 39.6201 224.531 39.938C225.945 39.2332 227.415 38.6455 228.924 38.1807H229.071L229.159 38.3076C229.505 38.7858 229.704 39.3545 229.731 39.944C229.759 40.5335 229.614 41.1183 229.315 41.6269C228.971 42.18 228.452 42.6025 227.841 42.8277C227.57 42.9487 227.275 43.0088 226.978 43.0038C226.682 42.9987 226.389 42.9286 226.123 42.7984Z" fill="#263238"/>
<path d="M244.203 45.5318C245.454 45.5318 246.468 44.5178 246.468 43.2669C246.468 42.016 245.454 41.002 244.203 41.002C242.952 41.002 241.938 42.016 241.938 43.2669C241.938 44.5178 242.952 45.5318 244.203 45.5318Z" fill="#455A64"/>
<path d="M162.411 91.3581C162.411 91.3581 157.374 85.3443 156.095 83.2062C155.125 81.4517 153.745 79.9578 152.073 78.8521C150.12 77.4267 144.907 74.0488 143.062 74.3515C141.656 74.576 136.335 72.6332 133.934 72.0572C133.719 72.0111 133.495 72.0291 133.29 72.1089C133.086 72.1887 132.909 72.3269 132.782 72.5063C132.362 73.8438 134.637 75.6499 136.326 76.3333L138.542 77.2217L139.762 82.4935C139.762 82.4935 138.366 88.5952 139.762 89.8937C141.158 91.1921 140.914 90.8699 142.788 91.3971C144.663 91.9243 151.575 92.0317 151.721 92.2172C151.868 92.4027 156.027 98.4067 156.027 98.4067L162.411 91.3581Z" fill="#AE7461"/>
<path d="M129.345 72.4868C129.345 72.4868 130.8 71.8522 132.049 73.795C132.763 74.9136 133.415 76.0706 134.002 77.2607C134.158 77.3291 135.398 77.495 135.398 77.495L137.35 79.9748L136.862 81.6149C136.862 81.6149 133.094 81.0877 132.332 80.0333C131.07 77.9438 129.998 75.7448 129.13 73.463C129.003 72.6723 129.345 72.4868 129.345 72.4868Z" fill="#AE7461"/>
<path d="M142.378 86.828L141.578 85.4905L142.808 84.0749C142.808 84.0749 145.453 84.9828 146.4 83.7527C147.347 82.5226 147.064 82.425 147.064 82.425L143.598 81.3706L145.688 80.8727C145.688 80.8727 148.548 81.849 149.114 80.2089L148.968 79.2326C147.689 78.8628 146.383 78.5919 145.063 78.4223C143.341 78.4916 141.623 78.6513 139.918 78.9007L143.481 77.817C144.247 77.9125 145.024 77.8528 145.766 77.6413C145.912 77.5901 146.045 77.5066 146.155 77.3971C146.264 77.2876 146.348 77.1549 146.4 77.0087C146.451 76.8625 146.469 76.7065 146.453 76.5524C146.436 76.3983 146.385 76.25 146.303 76.1183C146.185 75.9209 146.007 75.7668 145.795 75.679C144.888 75.2889 143.927 75.0419 142.944 74.9468C141.675 74.9468 137.467 75.6497 136.433 76.5967C135.398 77.5437 135.242 77.9927 135.593 79.0959C136.032 80.1501 136.582 81.1547 137.233 82.0931C137.252 82.942 137.487 83.7721 137.917 84.5045C137.917 84.5045 137.292 87.033 139.732 89.913" fill="#AE7461"/>
<path d="M139.713 89.8935C139.616 89.8012 139.525 89.7034 139.44 89.6006C139.186 89.2941 138.957 88.9676 138.756 88.6243C138.424 88.0974 138.162 87.5297 137.975 86.9354C137.713 86.1231 137.642 85.2608 137.77 84.4166V84.524C137.309 83.7745 137.06 82.9143 137.048 82.0345V82.1126C136.677 81.5659 136.306 80.9802 135.945 80.3358C135.531 79.6697 135.274 78.9188 135.193 78.1392C135.208 77.6957 135.389 77.274 135.701 76.9579C135.979 76.6247 136.308 76.338 136.677 76.1086C137.463 75.7136 138.296 75.4215 139.157 75.2397C140.045 75.0286 140.945 74.8657 141.851 74.7516C142.331 74.6974 142.816 74.6974 143.296 74.7516C143.782 74.8195 144.262 74.9273 144.731 75.0737L145.434 75.308C145.69 75.3907 145.933 75.5091 146.156 75.6595C146.387 75.8502 146.544 76.1166 146.597 76.4114C146.651 76.7062 146.598 77.0105 146.449 77.2703C146.301 77.5382 146.057 77.7403 145.766 77.8366C145.512 77.9193 145.25 77.9781 144.985 78.0123C144.459 78.0709 143.929 78.0709 143.403 78.0123H143.491L142.037 78.4614L139.928 79.1057L139.84 78.6859C141.451 78.4711 143.013 78.2661 144.565 78.1978C145.339 78.2042 146.109 78.3025 146.859 78.4907C147.591 78.6566 148.294 78.8324 148.997 79.0276H149.124V79.1545C149.124 79.4962 149.222 79.8184 149.271 80.1308V80.1796C149.143 80.5398 148.885 80.8392 148.548 81.0192C148.246 81.175 147.912 81.2586 147.572 81.2633C146.908 81.2743 146.247 81.1685 145.619 80.9509H145.727L143.628 81.439V81.0973L146.215 81.9076L146.82 82.0931H146.967H147.035H147.094C147.119 82.0849 147.146 82.0849 147.172 82.0931C147.308 82.3469 147.172 82.425 147.172 82.5422C146.995 82.891 146.778 83.2185 146.527 83.5185C146.277 83.8242 145.935 84.0401 145.551 84.1335C145.213 84.2173 144.864 84.2502 144.516 84.2311C143.917 84.1955 143.326 84.0773 142.759 83.8797H142.866L141.607 85.2757V85.4222C141.861 85.8517 142.046 86.1934 142.193 86.3985C142.258 86.5074 142.313 86.6217 142.359 86.7401C142.269 86.6475 142.193 86.5422 142.134 86.4277L141.5 85.4515L142.71 84.0066H142.778C143.325 84.1818 143.894 84.2804 144.467 84.2995C144.795 84.3433 145.128 84.3076 145.439 84.1955C145.75 84.0833 146.03 83.898 146.254 83.6551C146.491 83.3545 146.691 83.0268 146.85 82.6789C146.858 82.6403 146.858 82.6003 146.85 82.5617C146.85 82.5617 146.85 82.5617 146.937 82.4836C146.996 82.3957 146.869 82.6008 146.937 82.5812H146.859H146.713L146.108 82.3958L143.511 81.6245L142.896 81.4488L143.52 81.2926L145.619 80.7849H145.727C146.298 80.9823 146.899 81.0781 147.504 81.068C147.795 81.0918 148.086 81.0236 148.337 80.873C148.587 80.7223 148.784 80.4969 148.9 80.2284V80.3261C148.851 79.9941 148.802 79.672 148.753 79.3498L148.89 79.5158C148.207 79.3303 147.504 79.1545 146.781 78.9983C146.063 78.8167 145.325 78.7216 144.585 78.7152C143.081 78.7836 141.5 78.9983 139.908 79.2033L139.811 78.7836L141.919 78.1392L143.374 77.6999C143.864 77.7584 144.359 77.7584 144.848 77.6999C145.087 77.6733 145.323 77.621 145.551 77.5437C145.646 77.516 145.735 77.4698 145.812 77.4078C145.889 77.3458 145.953 77.2693 146 77.1825C146.099 77.0091 146.134 76.8064 146.098 76.61C146.062 76.4136 145.958 76.2361 145.805 76.1086C145.621 75.9855 145.421 75.8901 145.209 75.8255L144.526 75.5912C144.083 75.4501 143.629 75.3456 143.169 75.2788C142.718 75.2254 142.263 75.2254 141.812 75.2788C140.922 75.3792 140.038 75.5325 139.166 75.7376C138.342 75.9099 137.542 76.182 136.784 76.5479C136.454 76.7555 136.158 77.0123 135.906 77.3094C135.773 77.4357 135.667 77.587 135.593 77.7546C135.519 77.9221 135.48 78.1026 135.476 78.2857C135.551 79.0062 135.788 79.7005 136.169 80.3163C136.501 80.9509 136.872 81.5366 137.224 82.0833C137.221 82.9072 137.44 83.7165 137.858 84.4264V84.4752V84.5338C137.728 85.3358 137.782 86.1569 138.014 86.9354C138.177 87.5225 138.413 88.0867 138.717 88.6146C139.371 89.4639 139.742 89.8642 139.713 89.8935Z" fill="#6F4439"/>
<path d="M143.394 87.4529C143.746 87.057 144.166 86.7265 144.633 86.4767C146.826 85.184 149.344 84.5502 151.887 84.651C152.412 84.6359 152.935 84.7186 153.43 84.8951C151.684 84.9167 149.945 85.1064 148.236 85.4613C146.561 85.968 144.94 86.6349 143.394 87.4529Z" fill="#6F4439"/>
<path d="M143.891 81.3608C143.891 81.4389 143.472 81.3608 142.818 81.273C141.979 81.2666 141.161 81.5302 140.484 82.0247C139.8 82.5471 139.172 83.1393 138.61 83.7917C138.161 84.2896 137.868 84.5923 137.819 84.5532C137.77 84.5142 137.985 84.153 138.376 83.577C138.887 82.8326 139.513 82.1736 140.23 81.6244C140.983 81.0703 141.918 80.8226 142.847 80.9313C143.23 80.9684 143.593 81.1179 143.891 81.3608Z" fill="#6F4439"/>
<path d="M140.084 78.8522C139.469 79.1977 138.902 79.621 138.395 80.1116C137.614 80.9707 137.253 81.8884 137.136 81.8494C137.156 81.4632 137.253 81.085 137.421 80.7364C137.588 80.3879 137.823 80.076 138.112 79.8188C138.47 79.4058 138.927 79.0901 139.44 78.9011C139.781 78.7741 140.084 78.8034 140.084 78.8522Z" fill="#6F4439"/>
<path d="M257.949 69.8018C257.949 69.8018 264.841 71.6274 265.046 80.7067C265.222 88.7316 268.951 111.293 269.069 119.435C269.186 127.577 268.249 133.718 257.929 135.456C249.602 136.852 240.767 118.137 240.767 118.137L249.241 110.786L245.707 96.0634C245.707 96.0634 243.363 91.0161 248.928 80.4431C254.493 69.8701 257.949 69.8018 257.949 69.8018Z" fill="#D4145A"/>
<path d="M219.611 55.8514L215.628 61.1135L202.936 63.8373C202.936 63.8373 193.603 83.6848 194.042 92.8129C194.173 97.3978 194.646 101.966 195.458 106.481L195.38 116.927C195.38 116.927 191.475 125.616 193.193 129.384C194.911 133.152 199.871 136.618 199.871 136.618L245.863 137.204C245.863 137.204 249.143 139.078 250.861 134.158C252.579 129.238 249.885 93.3206 249.885 93.3206L258.847 70.2221L244.32 62.285L241.665 55.2852L224.316 59.7174L219.611 55.8514Z" fill="#D4145A"/>
<path d="M252.589 112.963L250.637 110.161L240.728 114.447L241.655 117.659C241.655 117.659 245.033 121.457 248.372 120.187C251.711 118.918 252.277 115.16 252.277 115.16L252.589 112.963Z" fill="#AE7461"/>
<path d="M244.018 105.446C244.673 104.557 245.495 103.804 246.439 103.23C246.925 103.026 247.424 102.853 247.932 102.712C247.853 102.48 247.829 102.233 247.862 101.99C247.896 101.747 247.986 101.516 248.126 101.314C248.266 101.112 248.451 100.947 248.666 100.83C248.882 100.713 249.122 100.649 249.368 100.643C249.762 100.976 250.242 101.192 250.754 101.267C250.901 101.244 251.052 101.251 251.197 101.288C251.341 101.325 251.477 101.392 251.595 101.483C251.713 101.575 251.811 101.689 251.883 101.82C251.955 101.951 251.999 102.095 252.013 102.244C252.189 102.986 252.648 105.055 252.013 106.032C251.379 107.008 250.236 107.984 250.754 110.63C250.754 110.63 250.061 113.559 248.567 114.31C247.886 114.721 247.115 114.959 246.322 115.003C246.322 115.003 244.945 116.673 243.793 116.439C242.641 116.204 242.124 116.155 242.124 116.155C242.124 116.155 241.206 117.581 239.195 116.468C238.866 116.687 238.486 116.815 238.092 116.841C237.698 116.867 237.304 116.789 236.949 116.614C236.412 116.321 233.786 113.686 233.669 111.665C233.552 109.644 233.669 108.277 234.128 107.525C234.87 106.422 235.944 107.428 235.944 107.428C236.047 106.476 236.383 105.564 236.92 104.772C237.672 104.02 238.238 104.138 238.238 104.138C238.238 104.138 238.014 101.834 239.79 101.668C241.567 101.502 241.401 103.62 241.46 104.772L241.518 105.914C241.518 105.914 242.27 104.177 244.018 105.446Z" fill="#AE7461"/>
<path d="M244.017 105.445C244.017 105.445 243.793 105.299 243.334 105.123C243.051 105.033 242.748 105.033 242.465 105.123C242.092 105.273 241.794 105.564 241.635 105.933L241.479 106.265V105.904C241.479 105.416 241.401 104.86 241.381 104.254C241.402 103.611 241.293 102.97 241.059 102.37C240.97 102.223 240.852 102.096 240.712 101.996C240.572 101.897 240.413 101.826 240.245 101.79C240.077 101.753 239.903 101.751 239.734 101.784C239.566 101.816 239.405 101.883 239.263 101.98C238.949 102.226 238.707 102.554 238.565 102.927C238.422 103.3 238.383 103.705 238.453 104.098V104.284H238.238C237.924 104.325 237.626 104.441 237.367 104.623C237.109 104.805 236.898 105.047 236.754 105.328C236.435 105.994 236.225 106.705 236.129 107.437L236.071 107.779L235.817 107.554C235.668 107.373 235.458 107.251 235.227 107.212C234.996 107.173 234.758 107.218 234.557 107.339C234.187 107.711 233.962 108.202 233.923 108.726C233.845 109.301 233.813 109.882 233.825 110.463C233.817 111.056 233.87 111.648 233.981 112.23C234.396 113.402 235.062 114.468 235.934 115.354C236.149 115.598 236.373 115.823 236.608 116.048L236.959 116.35C237.08 116.429 237.212 116.492 237.349 116.536C237.638 116.623 237.943 116.646 238.242 116.602C238.541 116.558 238.826 116.449 239.077 116.282L239.195 116.204L239.302 116.262C239.836 116.6 240.478 116.722 241.098 116.604C241.437 116.51 241.735 116.308 241.948 116.028L242.036 115.911H242.162L243.354 116.116C243.539 116.116 243.764 116.194 243.93 116.204C244.091 116.237 244.257 116.237 244.418 116.204C245.101 115.918 245.702 115.465 246.165 114.886L246.234 114.808H246.351C246.898 114.767 247.434 114.628 247.932 114.398C248.443 114.224 248.895 113.914 249.24 113.499C249.872 112.621 250.324 111.625 250.568 110.571V110.649C250.285 109.478 250.445 108.243 251.017 107.183C251.291 106.685 251.671 106.256 251.925 105.836C252.128 105.389 252.215 104.899 252.179 104.41C252.162 103.926 252.11 103.443 252.023 102.966C251.993 102.526 251.855 102.1 251.623 101.726C251.486 101.59 251.307 101.504 251.115 101.482C250.92 101.482 250.695 101.482 250.451 101.404C250.028 101.277 249.636 101.064 249.299 100.779H249.397C249.158 100.781 248.923 100.84 248.712 100.953C248.502 101.065 248.321 101.226 248.186 101.423C248.005 101.817 247.96 102.26 248.059 102.682V102.78H247.962L246.917 103.132C246.605 103.203 246.308 103.329 246.038 103.503C245.619 103.784 245.233 104.112 244.886 104.479C244.593 104.772 244.388 105.006 244.242 105.162C244.096 105.318 244.027 105.406 244.017 105.396C244.008 105.387 244.066 105.299 244.193 105.123C244.32 104.947 244.525 104.703 244.798 104.391C245.138 104.001 245.522 103.65 245.941 103.346C246.221 103.162 246.527 103.02 246.849 102.926L247.903 102.546L247.825 102.692C247.688 102.211 247.733 101.697 247.952 101.247C248.103 101.009 248.31 100.812 248.555 100.672C248.8 100.533 249.076 100.455 249.358 100.447H249.426C249.733 100.698 250.089 100.884 250.471 100.993C250.793 101.072 251.447 100.993 251.798 101.384C251.977 101.578 252.099 101.818 252.15 102.077C252.199 102.311 252.257 102.546 252.296 102.78C252.398 103.275 252.46 103.778 252.482 104.284C252.527 104.837 252.426 105.392 252.189 105.894C251.906 106.392 251.544 106.783 251.291 107.251C250.769 108.238 250.636 109.384 250.92 110.463C250.673 111.57 250.201 112.613 249.533 113.529C249.343 113.765 249.12 113.973 248.869 114.144C248.615 114.303 248.347 114.441 248.069 114.554C247.505 114.81 246.9 114.963 246.282 115.003L246.468 114.925C245.949 115.565 245.278 116.065 244.515 116.379C244.298 116.451 244.069 116.475 243.842 116.448C243.607 116.448 243.441 116.389 243.236 116.36L242.075 116.155L242.28 116.057C242.012 116.43 241.621 116.696 241.176 116.809C240.449 116.959 239.692 116.826 239.058 116.438H239.292C238.985 116.645 238.635 116.781 238.268 116.835C237.902 116.889 237.528 116.86 237.174 116.75C237.025 116.737 236.877 116.708 236.734 116.663L236.344 116.331C236.1 116.096 235.866 115.862 235.641 115.618C234.735 114.674 234.046 113.545 233.62 112.308C233.498 111.692 233.445 111.063 233.464 110.434C233.451 109.83 233.487 109.226 233.571 108.628C233.629 108.005 233.914 107.424 234.372 106.998C234.511 106.896 234.671 106.828 234.84 106.797C235.009 106.767 235.183 106.775 235.348 106.822C235.642 106.901 235.912 107.049 236.139 107.251L235.827 107.359C235.934 106.584 236.168 105.832 236.52 105.133C236.701 104.792 236.962 104.501 237.281 104.284C237.591 104.038 237.98 103.914 238.375 103.932L238.179 104.118C238.144 103.652 238.201 103.185 238.345 102.741C238.475 102.301 238.769 101.927 239.165 101.696C239.547 101.5 239.983 101.435 240.405 101.511C240.607 101.548 240.796 101.632 240.958 101.758C241.119 101.884 241.248 102.047 241.333 102.233C241.572 102.855 241.682 103.52 241.655 104.186C241.655 104.791 241.655 105.348 241.655 105.836H241.489C241.582 105.631 241.717 105.448 241.885 105.298C242.053 105.148 242.251 105.035 242.465 104.967C242.789 104.873 243.136 104.901 243.441 105.045C243.652 105.149 243.847 105.284 244.017 105.445Z" fill="#6F4439"/>
<path d="M250.08 104.948C250.08 104.996 249.865 105.045 249.543 104.948C249.122 104.839 248.743 104.604 248.46 104.274C248.166 103.954 247.987 103.545 247.952 103.112C247.952 102.78 247.952 102.585 248.04 102.585C248.128 102.585 248.216 103.346 248.792 103.991C249.368 104.635 250.1 104.83 250.08 104.948Z" fill="#6F4439"/>
<path d="M247.474 110.806C247.347 110.854 246.829 109.497 245.882 108.023C244.935 106.549 243.93 105.543 243.988 105.446C244.937 106.01 245.716 106.82 246.243 107.789C246.894 108.679 247.317 109.714 247.474 110.806Z" fill="#6F4439"/>
<path d="M241.616 105.416C241.684 105.416 241.616 105.963 241.763 106.802C242.066 107.889 242.533 108.923 243.149 109.868C243.469 110.422 243.746 111 243.979 111.596C244.131 112.09 244.258 112.592 244.359 113.099C244.477 113.54 244.738 113.928 245.101 114.202C245.101 114.202 244.935 114.202 244.711 114.085C244.406 113.867 244.18 113.555 244.067 113.197C243.901 112.767 243.822 112.221 243.598 111.742C243.357 111.169 243.08 110.611 242.768 110.073C242.126 109.094 241.682 108 241.46 106.851C241.348 106.369 241.403 105.863 241.616 105.416Z" fill="#6F4439"/>
<path d="M240.64 113.266C240.191 113.021 239.796 112.689 239.478 112.289C239.093 111.887 238.779 111.421 238.551 110.913C238.32 110.286 238.185 109.628 238.15 108.96C237.921 107.274 237.977 105.561 238.316 103.894C238.443 103.894 238.316 106.159 238.58 108.921C238.612 109.555 238.727 110.182 238.922 110.786C239.117 111.263 239.384 111.707 239.712 112.104C240.062 112.457 240.372 112.847 240.64 113.266Z" fill="#6F4439"/>
<path d="M237.447 113.803C237.389 113.803 237.203 113.471 236.744 112.983C236.469 112.695 236.215 112.388 235.983 112.065C235.692 111.636 235.52 111.137 235.485 110.62C235.465 109.73 235.557 108.841 235.758 107.974C235.866 107.32 235.856 106.91 235.924 106.91C236.074 107.254 236.121 107.634 236.061 108.004C235.96 108.859 235.911 109.72 235.915 110.581C236.036 111.412 236.411 112.186 236.988 112.797C237.398 113.344 237.506 113.783 237.447 113.803Z" fill="#6F4439"/>
<path d="M264.754 120.382C264.387 119.763 263.944 119.193 263.436 118.684C262.85 118.166 262.192 117.735 261.483 117.405C260.607 117.014 259.703 116.688 258.779 116.429C257.839 116.168 256.914 115.858 256.006 115.501C255.258 115.197 254.552 114.797 253.907 114.31C253.471 113.977 253.089 113.578 252.775 113.129C252.56 112.807 252.482 112.611 252.501 112.592C252.978 113.132 253.508 113.623 254.083 114.056C254.729 114.492 255.424 114.853 256.153 115.13C256.973 115.452 257.91 115.716 258.906 116.018C259.852 116.287 260.773 116.637 261.659 117.063C262.383 117.425 263.043 117.903 263.611 118.479C264.011 118.866 264.341 119.318 264.588 119.816C264.686 119.989 264.743 120.183 264.754 120.382Z" fill="#263238"/>
<path d="M159.414 85.6175L162.646 88.7318C164.03 88.8913 165.397 89.1822 166.726 89.6006C169.401 90.3817 174.995 97.4108 174.995 97.4108L189.259 76.3429C189.259 76.3429 196.268 64.5398 202.926 63.8076L197.684 97.1374C197.684 97.1374 183.489 115.882 176.655 118.235C169.821 120.587 155.05 102.204 154.435 98.8654L150.091 93.6326L159.414 85.6175Z" fill="#D4145A"/>
<path d="M255.821 135.807C255.513 135.741 255.214 135.636 254.932 135.495C254.145 135.155 253.387 134.75 252.667 134.284C250.334 132.69 248.268 130.736 246.546 128.495C245.511 127.206 244.594 125.937 243.773 124.766C243.001 123.757 242.324 122.679 241.753 121.544C241.384 120.741 241.291 119.838 241.489 118.976C241.553 118.75 241.649 118.533 241.772 118.332C241.86 118.195 241.928 118.137 241.938 118.147C241.824 118.429 241.729 118.72 241.655 119.015C241.523 119.836 241.656 120.677 242.036 121.417C242.639 122.513 243.331 123.558 244.105 124.541C244.935 125.693 245.853 126.952 246.878 128.222C248.583 130.429 250.591 132.384 252.843 134.03C254.6 135.212 255.85 135.729 255.821 135.807Z" fill="#263238"/>
<path d="M247.474 89.23C247.601 89.23 247.552 91.8269 247.688 95.0193C247.825 98.2117 248.079 100.789 247.952 100.799C247.761 100.261 247.646 99.699 247.61 99.1293C247.464 98.0847 247.317 96.6399 247.249 95.0388C247.181 93.4377 247.249 91.9733 247.249 90.9287C247.244 90.3547 247.32 89.7829 247.474 89.23Z" fill="#263238"/>
<path d="M257.852 70.7786C257.004 70.9263 256.171 71.1484 255.362 71.4424C253.482 72.3247 251.886 73.7144 250.754 75.4549C249.566 77.1654 248.656 79.0535 248.06 81.0489C247.601 82.5914 247.493 83.5872 247.415 83.5774C247.379 83.3413 247.379 83.101 247.415 82.8648C247.433 82.5894 247.469 82.3154 247.523 82.0447C247.577 81.6828 247.652 81.3242 247.747 80.9708C248.266 78.9043 249.155 76.9492 250.373 75.2011C251.049 74.2369 251.846 73.364 252.746 72.6042C253.487 71.9847 254.329 71.4961 255.235 71.1593C255.421 71.091 255.606 71.0129 255.782 70.9641L256.299 70.8567C256.566 70.7831 256.842 70.747 257.119 70.7493C257.363 70.7194 257.611 70.7293 257.852 70.7786Z" fill="#263238"/>
<path d="M201.111 70.7778C201.079 70.9044 201.029 71.0259 200.964 71.1391L200.496 72.1153C200.281 72.5449 200.027 73.0916 199.763 73.7066C199.5 74.3217 199.158 75.0344 198.855 75.8447C198.105 77.713 197.454 79.6193 196.903 81.5558C196.251 83.9274 195.746 86.3368 195.39 88.7705C195.058 91.2106 194.878 93.6691 194.853 96.1315C194.844 98.1432 194.941 100.154 195.146 102.155C195.204 103.014 195.341 103.785 195.419 104.459C195.497 105.133 195.605 105.718 195.692 106.197L195.868 107.29C195.888 107.416 195.888 107.545 195.868 107.671C195.815 107.556 195.775 107.435 195.751 107.31C195.683 107.007 195.595 106.656 195.497 106.226C195.354 105.656 195.24 105.08 195.155 104.498C195.048 103.825 194.892 103.053 194.814 102.194C194.558 100.183 194.427 98.1586 194.423 96.1315C194.413 91.1773 195.106 86.2466 196.483 81.4875C197.052 79.5426 197.733 77.6324 198.524 75.7666C198.846 74.966 199.207 74.2631 199.5 73.6481C199.793 73.033 200.066 72.4961 200.31 72.0763C200.554 71.6565 200.701 71.3734 200.857 71.1C201.013 70.8266 201.091 70.7778 201.111 70.7778Z" fill="#263238"/>
<path d="M244.32 62.2849C244.32 62.2849 244.213 62.363 243.988 62.4704C243.764 62.5778 243.432 62.734 243.012 62.9195C242.133 63.2904 240.864 63.7981 239.253 64.3839C235.033 65.8981 230.722 67.1501 226.347 68.1327H226.132L226.084 67.9277C225.996 67.5275 225.888 67.0979 225.761 66.6683C225.146 64.4132 224.395 62.2849 223.936 60.2347L224.287 60.3128C222.471 62.529 220.841 64.4913 219.406 66.0142L219.289 66.1314L219.181 66.0142C218.623 65.3758 218.117 64.6935 217.668 63.9738L216.623 62.3923C216.047 61.5234 215.647 61.1036 215.647 61.0743C215.765 61.1518 215.871 61.2474 215.96 61.3574C216.155 61.5624 216.409 61.8749 216.731 62.3337C217.053 62.7925 217.414 63.31 217.834 63.8762C218.302 64.5625 218.817 65.2149 219.377 65.8287H219.162C220.577 64.296 222.188 62.3044 223.985 60.0883L224.248 59.7661L224.346 60.1664C224.814 62.1873 225.566 64.3058 226.191 66.5805C226.318 67.01 226.425 67.4494 226.523 67.8594L226.259 67.6934C230.622 66.7164 234.93 65.5106 239.166 64.0812C240.776 63.5443 242.094 63.1049 242.963 62.7437C243.406 62.564 243.859 62.4108 244.32 62.2849Z" fill="#263238"/>
<path d="M218.889 139L218.693 138.902C218.514 138.809 218.342 138.705 218.176 138.59C217.533 138.124 216.983 137.541 216.555 136.872C215.893 135.808 215.436 134.629 215.208 133.396C214.897 131.788 214.746 130.153 214.759 128.515C214.759 121.232 214.652 111.147 215.433 100.047C215.833 94.4918 216.409 89.22 217.278 84.4265C218.007 80.2102 218.985 76.0407 220.206 71.94C221.293 68.1562 222.677 64.4641 224.346 60.8984L224.287 61.0937L224.073 61.6697L223.223 63.8565C222.823 64.8328 222.442 65.975 221.964 67.3418C221.485 68.7086 220.987 70.2706 220.499 72.0279C219.333 76.1272 218.401 80.2896 217.707 84.4949C216.907 89.2298 216.292 94.4919 215.891 100.037C215.11 111.118 215.169 121.193 215.091 128.476C215.064 130.111 215.191 131.746 215.472 133.357C215.68 134.569 216.107 135.734 216.731 136.794C217.282 137.677 218.018 138.43 218.889 139Z" fill="#263238"/>
<path d="M231.853 123.33C231.454 123.325 231.055 123.286 230.662 123.213C229.901 123.116 228.798 122.93 227.441 122.667C220.382 121.259 213.556 118.867 207.164 115.559C205.943 114.925 204.967 114.378 204.313 113.978C203.971 113.785 203.645 113.566 203.337 113.324C203.714 113.456 204.077 113.626 204.42 113.831C205.104 114.183 206.1 114.681 207.349 115.286C210.557 116.846 213.849 118.228 217.209 119.425C220.588 120.597 224.03 121.575 227.519 122.354C228.856 122.657 229.95 122.891 230.701 123.038C231.096 123.088 231.483 123.186 231.853 123.33Z" fill="#263238"/>
<g opacity="0.3">
<path d="M266.862 118.069C266.682 117.352 266.328 116.69 265.83 116.144C265.333 115.597 264.708 115.182 264.011 114.935C262.605 114.463 261.115 114.29 259.638 114.427C257.919 114.518 256.196 114.482 254.483 114.32C255.938 115.472 258.486 115.97 260.467 116.809C261.617 117.208 262.68 117.821 263.601 118.615C263.962 118.957 264.265 119.367 264.656 119.67C264.844 119.834 265.07 119.95 265.313 120.008C265.556 120.066 265.81 120.064 266.052 120.002C266.389 119.822 266.653 119.531 266.801 119.179C266.948 118.827 266.97 118.435 266.862 118.069Z" fill="black"/>
</g>
<g opacity="0.3">
<path d="M197.03 80.4629C194.433 83.1642 192.809 86.6533 192.415 90.3797C192.021 94.1061 192.878 97.8577 194.853 101.043V100.916C193.967 94.0217 194.712 87.016 197.03 80.4629Z" fill="black"/>
</g>
<path d="M194.472 148.782L199.89 136.598L250.08 135.827L257.09 147.991C257.09 147.991 228.495 161.103 194.472 148.782Z" fill="#263238"/>
</svg>
