<svg width="431" height="429" viewBox="0 0 431 429" fill="none" xmlns="http://www.w3.org/2000/svg">
<path d="M82.1301 194.859L85.8301 202.369C85.9262 202.56 86.0675 202.724 86.2418 202.848C86.4162 202.972 86.6181 203.051 86.8301 203.079L95.1101 204.279C95.3506 204.314 95.5767 204.415 95.7625 204.571C95.9484 204.728 96.0867 204.933 96.1616 205.165C96.2366 205.396 96.2453 205.643 96.1867 205.879C96.1281 206.115 96.0045 206.33 95.8301 206.499L89.8301 212.339C89.6778 212.485 89.5642 212.666 89.4996 212.867C89.435 213.068 89.4214 213.282 89.4601 213.489L90.8701 221.739C90.9102 221.977 90.8831 222.222 90.7919 222.445C90.7007 222.669 90.5489 222.863 90.3537 223.005C90.1585 223.148 89.9275 223.233 89.6866 223.251C89.4458 223.269 89.2046 223.22 88.9901 223.109L81.5801 219.219C81.3935 219.121 81.1859 219.07 80.9751 219.07C80.7643 219.07 80.5566 219.121 80.3701 219.219L72.9601 223.109C72.7456 223.22 72.5044 223.269 72.2635 223.251C72.0227 223.233 71.7917 223.148 71.5964 223.005C71.4012 222.863 71.2495 222.669 71.1583 222.445C71.0671 222.222 71.04 221.977 71.0801 221.739L72.4901 213.489C72.5244 213.282 72.5087 213.069 72.4443 212.869C72.38 212.669 72.2688 212.487 72.1201 212.339L66.1201 206.499C65.9456 206.33 65.8221 206.115 65.7635 205.879C65.7049 205.643 65.7135 205.396 65.7885 205.165C65.8635 204.933 66.0017 204.728 66.1876 204.571C66.3735 204.415 66.5995 204.314 66.8401 204.279L75.1301 203.079C75.3423 203.052 75.5446 202.973 75.7191 202.849C75.8935 202.725 76.0347 202.56 76.1301 202.369L79.8401 194.859C79.9513 194.652 80.1165 194.479 80.3181 194.359C80.5197 194.238 80.7502 194.175 80.9851 194.175C81.22 194.175 81.4504 194.238 81.652 194.359C81.8537 194.479 82.0188 194.652 82.1301 194.859Z" fill="#E0E0E0"/>
<path d="M48.2099 151.479L50.7699 156.669C50.8328 156.801 50.9281 156.916 51.047 157.001C51.1659 157.087 51.3045 157.141 51.4499 157.159L57.1799 157.999C57.3451 158.024 57.5002 158.094 57.6279 158.202C57.7555 158.309 57.8506 158.451 57.9025 158.609C57.9544 158.768 57.961 158.938 57.9217 159.101C57.8824 159.263 57.7987 159.411 57.6799 159.529L53.5299 163.529C53.4254 163.631 53.3472 163.758 53.3019 163.897C53.2566 164.036 53.2457 164.184 53.2699 164.329L54.2699 170.029C54.2978 170.194 54.2792 170.363 54.2163 170.518C54.1533 170.673 54.0485 170.807 53.9135 170.906C53.7785 171.004 53.6188 171.063 53.4521 171.076C53.2854 171.089 53.1184 171.056 52.9699 170.979L47.8399 168.289C47.7107 168.22 47.5664 168.184 47.4199 168.184C47.2734 168.184 47.1291 168.22 46.9999 168.289L41.8799 170.979C41.731 171.058 41.5628 171.094 41.3945 171.083C41.2262 171.071 41.0645 171.012 40.9279 170.913C40.7913 170.814 40.6853 170.679 40.622 170.522C40.5587 170.366 40.5407 170.195 40.5699 170.029L41.5699 164.329C41.5968 164.184 41.5871 164.036 41.5417 163.896C41.4963 163.756 41.4166 163.63 41.3099 163.529L37.1299 159.549C37.0111 159.431 36.9274 159.283 36.8881 159.121C36.8487 158.958 36.8554 158.788 36.9073 158.629C36.9592 158.471 37.0543 158.329 37.1819 158.222C37.3095 158.114 37.4646 158.044 37.6299 158.019L43.3599 157.179C43.5035 157.16 43.6401 157.105 43.7571 157.019C43.8741 156.933 43.9679 156.82 44.0299 156.689L46.5999 151.499C46.6728 151.348 46.7861 151.221 46.9272 151.132C47.0683 151.042 47.2316 150.993 47.3987 150.991C47.5659 150.989 47.7303 151.034 47.8736 151.12C48.0168 151.206 48.1333 151.33 48.2099 151.479Z" fill="#E0E0E0"/>
<path d="M233.61 17.3189L235.38 20.9189C235.426 21.0086 235.493 21.0861 235.574 21.1452C235.656 21.2043 235.75 21.2432 235.85 21.2589L239.85 21.8289C239.965 21.8463 240.074 21.8954 240.163 21.9709C240.252 22.0463 240.319 22.145 240.355 22.256C240.391 22.367 240.396 22.4859 240.368 22.5994C240.341 22.7129 240.283 22.8166 240.2 22.8989L237.32 25.6989C237.249 25.77 237.197 25.8572 237.167 25.9529C237.138 26.0487 237.132 26.1503 237.15 26.2489L237.82 30.2489C237.841 30.3634 237.829 30.4816 237.786 30.5899C237.743 30.6981 237.671 30.7921 237.577 30.861C237.483 30.9299 237.371 30.9709 237.255 30.9794C237.139 30.9878 237.023 30.9634 236.92 30.9089L233.37 29.0389C233.28 28.9947 233.18 28.9718 233.08 28.9718C232.979 28.9718 232.88 28.9947 232.79 29.0389L229.24 30.9089C229.136 30.9621 229.02 30.9856 228.904 30.9767C228.788 30.9678 228.676 30.9269 228.582 30.8585C228.488 30.7901 228.414 30.697 228.37 30.5893C228.325 30.4817 228.312 30.3639 228.33 30.2489L229.01 26.2489C229.029 26.1495 229.022 26.0469 228.991 25.9507C228.959 25.8546 228.904 25.7679 228.83 25.6989L225.96 22.8989C225.877 22.8173 225.819 22.7144 225.791 22.6016C225.763 22.4887 225.767 22.3704 225.802 22.2597C225.837 22.1489 225.902 22.0501 225.99 21.9741C226.078 21.898 226.185 21.8478 226.3 21.8289L230.3 21.2589C230.398 21.2433 230.491 21.2043 230.571 21.1451C230.652 21.0859 230.716 21.0083 230.76 20.9189L232.54 17.3189C232.595 17.2255 232.673 17.1481 232.767 17.0943C232.86 17.0405 232.967 17.0122 233.075 17.0122C233.183 17.0122 233.289 17.0405 233.383 17.0943C233.477 17.1481 233.555 17.2255 233.61 17.3189Z" fill="#E0E0E0"/>
<path d="M388.65 202.819L390.43 206.409C390.473 206.502 390.538 206.583 390.62 206.644C390.702 206.705 390.799 206.745 390.9 206.759L394.9 207.329C395.015 207.346 395.122 207.395 395.211 207.469C395.299 207.544 395.365 207.643 395.4 207.753C395.436 207.863 395.439 207.982 395.411 208.094C395.383 208.206 395.323 208.309 395.24 208.389L392.37 211.199C392.297 211.269 392.242 211.355 392.211 211.451C392.179 211.547 392.172 211.65 392.19 211.749L392.87 215.749C392.888 215.864 392.875 215.982 392.83 216.09C392.785 216.197 392.712 216.29 392.618 216.359C392.523 216.427 392.412 216.468 392.296 216.477C392.18 216.486 392.064 216.462 391.96 216.409L388.41 214.539C388.32 214.495 388.22 214.472 388.12 214.472C388.019 214.472 387.92 214.495 387.83 214.539L384.28 216.409C384.177 216.464 384.061 216.488 383.945 216.48C383.828 216.471 383.717 216.43 383.623 216.361C383.529 216.292 383.457 216.198 383.414 216.09C383.371 215.982 383.359 215.864 383.38 215.749L384.06 211.749C384.075 211.65 384.067 211.548 384.036 211.453C384.004 211.357 383.951 211.27 383.88 211.199L381 208.389C380.916 208.308 380.857 208.205 380.829 208.092C380.801 207.979 380.806 207.86 380.843 207.749C380.879 207.639 380.946 207.541 381.036 207.466C381.126 207.392 381.234 207.344 381.35 207.329L385.35 206.759C385.451 206.743 385.546 206.703 385.628 206.642C385.71 206.581 385.776 206.501 385.82 206.409L387.59 202.819C387.645 202.728 387.723 202.653 387.816 202.6C387.909 202.548 388.013 202.521 388.12 202.521C388.226 202.521 388.331 202.548 388.424 202.6C388.517 202.653 388.595 202.728 388.65 202.819Z" fill="#E0E0E0"/>
<path d="M347.6 186.239L350.53 192.179C350.602 192.329 350.71 192.459 350.844 192.556C350.979 192.654 351.135 192.717 351.3 192.739L357.85 193.689C358.045 193.706 358.232 193.78 358.385 193.902C358.539 194.024 358.653 194.189 358.714 194.375C358.775 194.562 358.779 194.762 358.727 194.951C358.675 195.14 358.568 195.31 358.42 195.439L353.68 200.059C353.562 200.176 353.474 200.32 353.421 200.478C353.369 200.636 353.355 200.804 353.38 200.969L354.5 207.499C354.544 207.69 354.53 207.89 354.461 208.074C354.392 208.257 354.271 208.416 354.112 208.531C353.953 208.647 353.764 208.712 353.568 208.721C353.372 208.729 353.178 208.68 353.01 208.579L347.13 205.549C346.984 205.47 346.821 205.429 346.655 205.429C346.489 205.429 346.326 205.47 346.18 205.549L340.34 208.549C340.172 208.65 339.978 208.699 339.782 208.691C339.586 208.682 339.397 208.617 339.238 208.501C339.079 208.386 338.958 208.227 338.889 208.044C338.82 207.86 338.806 207.66 338.85 207.469L339.97 200.939C339.995 200.774 339.981 200.606 339.929 200.448C339.877 200.29 339.788 200.146 339.67 200.029L334.93 195.409C334.782 195.28 334.675 195.11 334.623 194.921C334.571 194.732 334.576 194.532 334.636 194.345C334.697 194.159 334.811 193.994 334.965 193.872C335.119 193.75 335.305 193.676 335.5 193.659L342.05 192.709C342.215 192.687 342.372 192.624 342.506 192.526C342.64 192.429 342.748 192.299 342.82 192.149L345.75 186.209C345.828 186.027 345.959 185.872 346.126 185.764C346.292 185.656 346.487 185.6 346.685 185.604C346.883 185.607 347.076 185.669 347.239 185.782C347.402 185.895 347.528 186.054 347.6 186.239Z" fill="#E0E0E0"/>
<path d="M48.97 258.769L51.13 263.049C51.184 263.157 51.263 263.25 51.3604 263.322C51.4578 263.393 51.5708 263.44 51.69 263.459L56.41 264.139C56.5469 264.16 56.6755 264.218 56.7814 264.307C56.8873 264.397 56.9663 264.513 57.0098 264.645C57.0533 264.777 57.0595 264.918 57.0278 265.052C56.996 265.187 56.9276 265.311 56.83 265.409L53.41 268.739C53.3221 268.82 53.256 268.923 53.2175 269.036C53.1791 269.15 53.1696 269.271 53.19 269.389L54 274.099C54.0241 274.236 54.0093 274.377 53.957 274.506C53.9047 274.635 53.8172 274.746 53.7045 274.828C53.5918 274.909 53.4584 274.957 53.3196 274.966C53.1809 274.975 53.0424 274.945 52.92 274.879L48.7 272.659C48.5931 272.604 48.4749 272.576 48.355 272.576C48.235 272.576 48.1168 272.604 48.01 272.659L43.78 274.879C43.6583 274.946 43.5198 274.978 43.3809 274.969C43.2421 274.96 43.1085 274.912 42.9961 274.83C42.8837 274.748 42.797 274.636 42.7463 274.506C42.6956 274.377 42.683 274.235 42.71 274.099L43.51 269.389C43.5344 269.272 43.5279 269.15 43.491 269.036C43.4542 268.922 43.3884 268.82 43.3 268.739L39.88 265.409C39.7788 265.313 39.7068 265.19 39.6723 265.055C39.6379 264.92 39.6423 264.778 39.6852 264.645C39.7281 264.512 39.8076 264.394 39.9146 264.305C40.0216 264.215 40.1517 264.158 40.29 264.139L45.02 263.459C45.1392 263.44 45.2521 263.393 45.3495 263.322C45.4469 263.25 45.5259 263.157 45.58 263.049L47.69 258.769C47.755 258.657 47.8484 258.564 47.9607 258.499C48.073 258.434 48.2004 258.4 48.33 258.4C48.4596 258.4 48.5869 258.434 48.6992 258.499C48.8115 258.564 48.9049 258.657 48.97 258.769Z" fill="#E0E0E0"/>
<path d="M149.897 21.3525L138.417 21.4673L138.988 78.5873L150.468 78.4725L149.897 21.3525Z" fill="#E0E0E0"/>
<path d="M68.4324 22.3357L38.7029 22.4966L38.8735 54.0261L68.603 53.8653L68.4324 22.3357Z" fill="#EBEBEB"/>
<path d="M98.2871 21.5894L68.5571 21.8867L68.8724 53.4167L98.6024 53.1194L98.2871 21.5894Z" fill="#F5F5F5"/>
<path d="M38.74 31.2089C58.49 31.3689 78.3 31.2089 98.05 30.9289C98.1239 30.9157 98.1908 30.8769 98.239 30.8193C98.2872 30.7617 98.3136 30.689 98.3136 30.6139C98.3136 30.5389 98.2872 30.4661 98.239 30.4086C98.1908 30.351 98.1239 30.3122 98.05 30.2989C78.3 30.1889 58.5 30.2989 38.75 30.6689C38.6784 30.6689 38.6097 30.6974 38.5591 30.748C38.5084 30.7987 38.48 30.8673 38.48 30.9389C38.48 31.0106 38.5084 31.0792 38.5591 31.1299C38.6097 31.1805 38.6784 31.2089 38.75 31.2089H38.74Z" fill="#E0E0E0"/>
<path d="M74.1806 53.3345L20.1714 53.6267L20.3104 79.3263L74.3196 79.0341L74.1806 53.3345Z" fill="#EBEBEB"/>
<path d="M127.928 53.0435L73.9189 53.3357L74.058 79.0353L128.067 78.7431L127.928 53.0435Z" fill="#F5F5F5"/>
<path d="M20.1999 60.7791C56.0699 61.1891 92.0799 60.7791 127.95 60.2491C128.024 60.2358 128.091 60.197 128.139 60.1395C128.187 60.0819 128.214 60.0092 128.214 59.9341C128.214 59.859 128.187 59.7863 128.139 59.7287C128.091 59.6711 128.024 59.6323 127.95 59.6191C92.0699 59.4291 56.0699 59.4491 20.1899 60.2391C20.1183 60.2391 20.0496 60.2675 19.999 60.3182C19.9484 60.3688 19.9199 60.4375 19.9199 60.5091C19.9199 60.5807 19.9484 60.6494 19.999 60.7C20.0496 60.7506 20.1183 60.7791 20.1899 60.7791H20.1999Z" fill="#E0E0E0"/>
<path d="M209.23 79.3291H0V88.5391H209.23V79.3291Z" fill="#E0E0E0"/>
<path d="M42.75 83.759H34.26V115.169H42.75V83.759Z" fill="#E0E0E0"/>
<path d="M169.54 83.759H161.05V115.169H169.54V83.759Z" fill="#E0E0E0"/>
<path d="M161.004 -5.3861e-05L149.524 0.114746L150.309 78.6747L161.789 78.5599L161.004 -5.3861e-05Z" fill="#EBEBEB"/>
<path d="M178.754 15.4984L160.914 15.595L161.258 79.254L179.098 79.1575L178.754 15.4984Z" fill="#F5F5F5"/>
<path d="M178.63 27.779C178.63 27.949 174.63 28.089 169.71 28.089C164.79 28.089 160.79 27.949 160.79 27.779C160.79 27.609 164.79 27.469 169.71 27.469C174.63 27.469 178.63 27.609 178.63 27.779Z" fill="#E0E0E0"/>
<path d="M178.63 25.0991C178.63 25.2791 174.63 25.4091 169.71 25.4091C164.79 25.4091 160.79 25.2791 160.79 25.0991C160.79 24.9191 164.79 24.7991 169.71 24.7991C174.63 24.7991 178.63 24.9291 178.63 25.0991Z" fill="#E0E0E0"/>
<path d="M178.63 69.5991C178.63 69.7691 174.63 69.9091 169.71 69.9091C164.79 69.9091 160.79 69.7691 160.79 69.5991C160.79 69.4291 164.79 69.2891 169.71 69.2891C174.63 69.2891 178.63 69.4291 178.63 69.5991Z" fill="#E0E0E0"/>
<path d="M178.63 66.9189C178.63 67.0889 174.63 67.2289 169.71 67.2289C164.79 67.2289 160.79 67.0889 160.79 66.9189C160.79 66.7489 164.79 66.6089 169.71 66.6089C174.63 66.6089 178.63 66.7489 178.63 66.9189Z" fill="#E0E0E0"/>
<path d="M170 61.0889C169.83 61.0889 169.69 54.6589 169.69 46.7389C169.69 38.8189 169.83 32.3989 170 32.3989C170.17 32.3989 170.31 38.8189 170.31 46.7389C170.31 54.6589 170.13 61.0889 170 61.0889Z" fill="#E0E0E0"/>
<path d="M198.23 31.1489H178.82V79.1989H198.23V31.1489Z" fill="#EBEBEB"/>
<path d="M158.2 14.299C158.2 14.9521 158.006 15.5906 157.643 16.1335C157.28 16.6764 156.764 17.0993 156.161 17.3488C155.557 17.5983 154.893 17.663 154.253 17.5349C153.612 17.4067 153.024 17.0914 152.563 16.6289C152.102 16.1664 151.788 15.5775 151.662 14.9367C151.536 14.2959 151.603 13.6321 151.854 13.0292C152.105 12.4264 152.53 11.9117 153.074 11.5503C153.618 11.1889 154.257 10.9971 154.91 10.999C155.343 10.999 155.772 11.0845 156.171 11.2504C156.571 11.4164 156.934 11.6596 157.24 11.9662C157.546 12.2728 157.788 12.6366 157.953 13.0369C158.117 13.4373 158.201 13.8661 158.2 14.299Z" fill="#E0E0E0"/>
<path d="M155.93 23.3789H153.89V70.1089H155.93V23.3789Z" fill="#E0E0E0"/>
<path d="M428.66 39.959H287.52V166.229H428.66V39.959Z" fill="#FAFAFA"/>
<path d="M428.66 166.229C428.66 166.229 428.66 165.419 428.66 163.889C428.66 162.359 428.66 160.069 428.66 157.119C428.66 151.189 428.66 142.529 428.58 131.489C428.58 109.429 428.48 77.8991 428.42 39.9591L428.74 40.2791H287.61L287.98 39.9091C287.98 85.8491 287.98 129.079 287.98 166.179L287.65 165.849L389.73 166.019L418.52 166.099H426.14H428.14H428.82H428.18H426.25H418.69L389.97 166.179L287.52 166.549H287.18V166.219C287.18 129.119 287.18 85.8891 287.18 39.9491V39.5491H287.57L428.7 39.6091H429.02V39.9291C428.95 77.9291 428.89 109.549 428.85 131.659C428.85 142.659 428.79 151.309 428.77 157.219C428.77 160.152 428.77 162.389 428.77 163.929C428.68 165.469 428.66 166.229 428.66 166.229Z" fill="#E0E0E0"/>
<path d="M341.63 62.389C341.63 62.599 334.2 62.769 325.04 62.769C315.88 62.769 308.45 62.599 308.45 62.389C308.45 62.179 315.88 62.019 325.04 62.019C334.2 62.019 341.63 62.189 341.63 62.389Z" fill="#E0E0E0"/>
<path d="M401.44 71.869C401.44 72.079 381.03 72.249 355.86 72.249C330.69 72.249 310.27 72.079 310.27 71.869C310.27 71.659 330.68 71.499 355.86 71.499C381.04 71.499 401.44 71.669 401.44 71.869Z" fill="#E0E0E0"/>
<path d="M314.64 87.939H308.69V93.889H314.64V87.939Z" fill="#E0E0E0"/>
<path d="M329.28 87.939H323.33V93.889H329.28V87.939Z" fill="#E0E0E0"/>
<path d="M344.19 87.6689H338.24V93.6189H344.19V87.6689Z" fill="#E0E0E0"/>
<path d="M358.55 87.939H352.6V93.889H358.55V87.939Z" fill="#E0E0E0"/>
<path d="M373.19 87.939H367.24V93.889H373.19V87.939Z" fill="#E0E0E0"/>
<path d="M387.83 87.939H381.88V93.889H387.83V87.939Z" fill="#E0E0E0"/>
<path d="M402.46 87.939H396.51V93.889H402.46V87.939Z" fill="#EBEBEB"/>
<path d="M314.64 100.579H308.69V106.529H314.64V100.579Z" fill="#EBEBEB"/>
<path d="M329.28 100.579H323.33V106.529H329.28V100.579Z" fill="#E0E0E0"/>
<path d="M343.92 100.579H337.97V106.529H343.92V100.579Z" fill="#EBEBEB"/>
<path d="M358.55 100.579H352.6V106.529H358.55V100.579Z" fill="#E0E0E0"/>
<path d="M373.19 100.579H367.24V106.529H373.19V100.579Z" fill="#E0E0E0"/>
<path d="M388.1 100.309H382.15V106.259H388.1V100.309Z" fill="#E0E0E0"/>
<path d="M402.46 100.579H396.51V106.529H402.46V100.579Z" fill="#E0E0E0"/>
<path d="M314.64 113.219H308.69V119.169H314.64V113.219Z" fill="#E0E0E0"/>
<path d="M329.55 112.949H323.6V118.899H329.55V112.949Z" fill="#E0E0E0"/>
<path d="M343.92 113.219H337.97V119.169H343.92V113.219Z" fill="#E0E0E0"/>
<path d="M358.55 113.219H352.6V119.169H358.55V113.219Z" fill="#EBEBEB"/>
<path d="M373.19 113.219H367.24V119.169H373.19V113.219Z" fill="#E0E0E0"/>
<path d="M387.83 113.219H381.88V119.169H387.83V113.219Z" fill="#E0E0E0"/>
<path d="M402.46 113.219H396.51V119.169H402.46V113.219Z" fill="#E0E0E0"/>
<path d="M314.64 125.859H308.69V131.809H314.64V125.859Z" fill="#E0E0E0"/>
<path d="M329.28 125.859H323.33V131.809H329.28V125.859Z" fill="#E0E0E0"/>
<path d="M343.92 125.859H337.97V131.809H343.92V125.859Z" fill="#E0E0E0"/>
<path d="M358.82 125.589H352.87V131.539H358.82V125.589Z" fill="#E0E0E0"/>
<path d="M373.19 125.859H367.24V131.809H373.19V125.859Z" fill="#E0E0E0"/>
<path d="M387.83 125.859H381.88V131.809H387.83V125.859Z" fill="#EBEBEB"/>
<path d="M402.46 125.859H396.51V131.809H402.46V125.859Z" fill="#E0E0E0"/>
<path d="M314.64 138.499H308.69V144.449H314.64V138.499Z" fill="#E0E0E0"/>
<path d="M329.28 138.499H323.33V144.449H329.28V138.499Z" fill="#EBEBEB"/>
<path d="M343.92 138.499H337.97V144.449H343.92V138.499Z" fill="#E0E0E0"/>
<path d="M358.55 138.499H352.6V144.449H358.55V138.499Z" fill="#E0E0E0"/>
<path d="M373.19 138.499H367.24V144.449H373.19V138.499Z" fill="#E0E0E0"/>
<path d="M388.1 138.229H382.15V144.179H388.1V138.229Z" fill="#E0E0E0"/>
<path d="M402.46 138.499H396.51V144.449H402.46V138.499Z" fill="#E0E0E0"/>
<path d="M18.62 362.199V398.969H12.48V402.969H18.62V427.549H133.37V405.149H124.87V400.279H133.37V392.959H137.13V389.649H132.64V362.199H18.62Z" fill="#EBEBEB"/>
<path d="M102.9 362.299V427.159H133.37V404.759H124.87V400.299L133.37 400.449V393.129L137.22 393.139L137.15 389.359L132.66 389.239V362.199L102.9 362.299Z" fill="#E0E0E0"/>
<path d="M105.07 402.429C105.07 402.649 84.3101 402.839 58.7001 402.839C33.0901 402.839 12.3201 402.649 12.3201 402.429C12.3201 402.209 33.0801 402.019 58.7001 402.019C84.3201 402.019 105.07 402.199 105.07 402.429Z" fill="#E0E0E0"/>
<path d="M105.07 398.689C105.07 398.919 84.3101 399.099 58.7001 399.099C33.0901 399.099 12.3201 398.919 12.3201 398.689C12.3201 398.459 33.0801 398.289 58.7001 398.289C84.3201 398.289 105.07 398.469 105.07 398.689Z" fill="#E0E0E0"/>
<path d="M111.03 388.639C111.03 388.869 90.26 389.049 64.65 389.049C39.04 389.049 18.28 388.869 18.28 388.639C18.28 388.409 39.04 388.229 64.65 388.229C90.26 388.229 111.03 388.419 111.03 388.639Z" fill="#E0E0E0"/>
<path d="M111.6 416.029C111.6 416.259 90.8301 416.439 65.2301 416.439C39.6301 416.439 18.8501 416.259 18.8501 416.029C18.8501 415.799 39.6101 415.629 65.2301 415.629C90.8501 415.629 111.6 415.809 111.6 416.029Z" fill="#E0E0E0"/>
<path d="M33.5099 300.929V335.779H27.6899V339.549H33.5099V362.869H142.26V341.659H134.26V337.039H142.26V330.109H145.84V326.959H141.59V300.959L33.5099 300.929Z" fill="#F5F5F5"/>
<path d="M113.38 301.039V362.499H142.26V341.279H134.21V337.039L142.26 337.179V330.249L145.91 330.259L145.84 326.669L141.59 326.569V300.929L113.38 301.039Z" fill="#E0E0E0"/>
<path d="M115.44 339.059C115.44 339.279 95.76 339.449 71.49 339.449C47.22 339.449 27.54 339.279 27.54 339.059C27.54 338.839 47.21 338.679 71.54 338.679C95.87 338.679 115.44 338.849 115.44 339.059Z" fill="#E0E0E0"/>
<path d="M115.44 335.549C115.44 335.769 95.76 335.939 71.49 335.939C47.22 335.939 27.54 335.769 27.54 335.549C27.54 335.329 47.21 335.169 71.54 335.169C95.87 335.169 115.44 335.309 115.44 335.549Z" fill="#E0E0E0"/>
<path d="M121.13 325.999C121.13 326.209 101.46 326.379 77.1899 326.379C52.9199 326.379 33.1899 326.209 33.1899 325.999C33.1899 325.789 52.8699 325.609 77.1899 325.609C101.51 325.609 121.13 325.779 121.13 325.999Z" fill="#E0E0E0"/>
<path d="M121.63 351.959C121.63 352.169 101.95 352.339 77.68 352.339C53.41 352.339 33.73 352.169 33.73 351.959C33.73 351.749 53.4 351.569 77.68 351.569C101.96 351.569 121.63 351.739 121.63 351.959Z" fill="#E0E0E0"/>
<path d="M365.31 316.109C359.36 313.049 352.31 312.649 345.75 313.739C342.2 314.319 338.5 315.389 336.09 318.049C333.68 320.709 333.22 325.409 335.99 327.699C337.64 329.059 339.94 329.269 342.08 329.239C347.25 329.179 352.99 328.239 357.08 331.379C359.43 333.149 361 336.109 363.82 336.979C366.64 337.849 369.68 336.209 371.15 333.719C372.491 331.128 372.788 328.122 371.98 325.319C371.649 323.375 370.876 321.533 369.719 319.936C368.563 318.339 367.054 317.029 365.31 316.109Z" fill="#EBEBEB"/>
<path d="M378.93 289.809C375.3 294.999 368.23 293.279 364.93 290.109C361.63 286.939 360.27 282.349 359.01 277.959C356.12 267.959 353.22 257.449 355.36 247.249C355.875 244.158 357.231 241.269 359.28 238.899C361.43 236.639 364.72 235.289 367.73 236.089C371.3 237.029 373.51 240.519 375.11 243.839C379.829 253.644 382.302 264.378 382.35 275.259C382.35 280.319 381.77 285.629 378.91 289.809" fill="#EBEBEB"/>
<path d="M388.92 297.259C384.92 292.569 384.22 285.739 385.98 279.869C387.74 273.999 391.71 268.999 396.28 264.919C401.664 260.128 407.931 256.432 414.73 254.039C417.362 252.974 420.194 252.493 423.03 252.629C424.452 252.706 425.833 253.13 427.053 253.864C428.274 254.598 429.295 255.619 430.03 256.839C431.97 260.539 430.11 265.039 428.1 268.699C424.546 275.155 420.494 281.324 415.98 287.149C412.35 291.829 408.19 296.449 402.65 298.569C397.11 300.689 391.37 300.439 388.43 296.569" fill="#EBEBEB"/>
<path d="M379.18 368.169C378.986 367.396 378.876 366.605 378.85 365.809C378.68 364.089 378.47 361.929 378.22 359.369C377.903 356.196 377.419 353.042 376.77 349.919C375.928 346.116 374.781 342.388 373.34 338.769C371.928 335.154 370.013 331.757 367.65 328.679C365.722 326.172 363.264 324.123 360.45 322.679C358.539 321.734 356.49 321.096 354.38 320.789C353.587 320.763 352.798 320.648 352.03 320.449C352.824 320.361 353.626 320.361 354.42 320.449C356.611 320.623 358.753 321.181 360.75 322.099C363.708 323.488 366.306 325.541 368.34 328.099C370.807 331.217 372.796 334.685 374.24 338.389C375.709 342.061 376.85 345.856 377.65 349.729C378.267 352.887 378.688 356.08 378.91 359.289C379.11 362.029 379.19 364.239 379.23 365.779C379.3 366.575 379.283 367.377 379.18 368.169Z" fill="#E0E0E0"/>
<path d="M378.74 363.209C378.667 362.851 378.644 362.484 378.67 362.119C378.67 361.289 378.67 360.259 378.67 358.989C378.67 356.269 378.67 352.329 378.53 347.479C378.29 337.759 377.45 327.309 375.84 312.569C374.31 298.709 372.26 282.569 370.09 272.089C369.617 269.696 369.16 267.559 368.72 265.679C368.29 263.789 367.94 262.169 367.59 260.859C367.24 259.549 367.05 258.609 366.86 257.809C366.747 257.459 366.683 257.096 366.67 256.729C366.834 257.047 366.961 257.382 367.05 257.729L367.96 260.729C368.36 262.029 368.77 263.639 369.24 265.519C369.71 267.399 370.24 269.519 370.76 271.909C373.455 284.338 375.477 296.903 376.82 309.549C378.44 324.319 379.17 337.769 379.23 347.549C379.29 352.419 379.18 356.359 379.06 359.079C378.98 360.359 378.92 361.389 378.87 362.219C378.857 362.552 378.813 362.884 378.74 363.209Z" fill="#E0E0E0"/>
<path d="M378.67 337.269C378.581 336.181 378.581 335.087 378.67 333.999C378.854 331.031 379.188 328.074 379.67 325.139C380.38 320.78 381.341 316.466 382.55 312.219C383.958 306.995 385.763 301.887 387.95 296.939C392.43 286.309 398.51 277.619 403.81 272.239C404.977 271.006 406.223 269.85 407.54 268.779C408.11 268.289 408.62 267.779 409.13 267.429L410.58 266.429C411.454 265.771 412.377 265.179 413.34 264.659C413.49 264.879 409.43 267.269 404.34 272.719C397.821 279.982 392.589 288.305 388.87 297.329C386.73 302.251 384.916 307.309 383.44 312.469C382.03 317.209 381.09 321.579 380.37 325.249C379.65 328.919 379.31 331.949 379.07 334.029C379.026 335.118 378.892 336.202 378.67 337.269Z" fill="#E0E0E0"/>
<path d="M403.74 383.029L401.14 418.639H355.4L352.8 383.029H403.74Z" fill="#E0E0E0"/>
<path d="M408.16 368.989H347.34V383.029H408.16V368.989Z" fill="#E0E0E0"/>
<path d="M408.16 417.279V421.169H405.3H348.34V417.279H408.16Z" fill="#EBEBEB"/>
<path d="M402.5 428.019L405.3 421.169H350.52L353.79 428.019H402.5Z" fill="#E0E0E0"/>
<path d="M353.65 394.669C353.704 394.788 353.775 394.899 353.86 394.999L354.54 395.899L357.21 399.309L357.33 399.469L357.44 399.309C359.12 396.989 361.35 393.889 363.99 390.249H363.61L370.06 399.379L370.26 399.659L370.49 399.399L378.13 390.299H377.69L378.11 390.829C380.48 393.829 382.78 396.679 384.95 399.399L385.17 399.689L385.39 399.389L391.83 390.269H391.46L399.4 399.269L399.54 399.429L399.65 399.249L402.14 395.069L402.78 393.959C402.858 393.837 402.922 393.706 402.97 393.569C402.866 393.675 402.776 393.792 402.7 393.919L402 394.989L399.39 399.089H399.64L391.82 389.929L391.62 389.699L391.45 389.949L384.94 399.029H385.38L378.56 390.449L378.14 389.919L377.92 389.649L377.7 389.909L370.07 399.029H370.5L363.99 389.949L363.8 389.689L363.61 389.949L357.2 399.109H357.44L354.66 395.789C354.36 395.439 354.12 395.149 353.92 394.929C353.72 394.709 353.66 394.659 353.65 394.669Z" fill="#F5F5F5"/>
<path d="M352.13 382.799C352.13 382.949 363.59 383.079 377.73 383.079C391.87 383.079 403.33 382.949 403.33 382.799C403.33 382.649 391.87 382.509 377.73 382.509C363.59 382.509 352.13 382.639 352.13 382.799Z" fill="#F5F5F5"/>
<path d="M349.85 421.549C349.85 421.709 362.31 421.839 377.67 421.839C393.03 421.839 405.5 421.709 405.5 421.549C405.5 421.389 393.04 421.269 377.67 421.269C362.3 421.269 349.85 421.399 349.85 421.549Z" fill="#F5F5F5"/>
<path d="M418.19 427.849C418.19 427.999 329.51 428.109 220.19 428.109C110.87 428.109 22.1199 427.999 22.1199 427.849C22.1199 427.699 110.73 427.549 220.13 427.549C329.53 427.549 418.19 427.709 418.19 427.849Z" fill="#263238"/>
<path d="M237.62 56.139C238.05 48.629 242.67 44.009 249.15 40.139C252.413 38.2404 256.086 37.158 259.857 36.9839C263.628 36.8098 267.386 37.5491 270.81 39.139C275.36 41.299 279.34 44.999 284.33 45.639C292.55 46.699 300.33 39.079 308.4 40.989C310.832 41.5388 312.996 42.9217 314.516 44.8983C316.037 46.8748 316.818 49.3208 316.726 51.8127C316.633 54.3047 315.672 56.6859 314.009 58.5443C312.347 60.4026 310.086 61.6212 307.62 61.989C313 62.779 316.05 69.579 314.06 74.649C312.07 79.719 306.42 82.649 300.98 82.769C295.54 82.889 290.31 80.659 285.61 77.929C280.91 75.199 276.51 71.929 271.61 69.569C266.71 67.209 261.06 65.849 255.8 67.249C248.69 69.139 243.64 75.859 241.8 82.989C239.96 90.119 240.74 97.649 241.85 104.929C242.96 112.209 244.36 119.549 243.66 126.929C243.685 127.36 243.608 127.79 243.434 128.185C243.26 128.579 242.995 128.927 242.66 129.199C241.57 129.799 240.32 128.769 239.51 127.809C230.37 116.982 223.446 104.465 219.13 90.969C216.65 83.159 215.28 75.569 218.26 67.969C221.24 60.369 231.26 53.069 237.61 56.169" fill="#263238"/>
<path d="M230.69 92.4591L242.69 166.699C244.94 180.559 253.95 193.949 275.69 189.399C294.26 184.029 292.88 170.669 290.46 154.189C290.46 154.189 310.9 148.869 309.07 128.089C308.18 118.089 304.68 97.5091 301.29 78.9691C299.532 69.3645 294.222 60.7739 286.417 54.9072C278.612 49.0404 268.884 46.3278 259.17 47.3091L257.17 47.5091C235.74 50.9391 226.67 71.0891 230.69 92.4591Z" fill="#FFBF9D"/>
<path d="M290.51 154.189C290.51 154.189 277.51 156.269 262.68 148.919C262.68 148.919 270.83 164.359 291.36 160.399L290.51 154.189Z" fill="#FF9A6C"/>
<path d="M294.3 99.7591C294.377 100.529 294.154 101.299 293.677 101.909C293.2 102.518 292.506 102.919 291.74 103.029C291.366 103.098 290.983 103.091 290.612 103.009C290.241 102.926 289.891 102.771 289.581 102.551C289.272 102.331 289.009 102.051 288.81 101.728C288.61 101.404 288.478 101.044 288.42 100.669C288.339 99.899 288.56 99.1276 289.035 98.5163C289.51 97.9049 290.204 97.5011 290.97 97.3891C291.345 97.3205 291.729 97.3278 292.101 97.4105C292.473 97.4931 292.825 97.6496 293.135 97.8706C293.446 98.0915 293.709 98.3725 293.909 98.6969C294.109 99.0213 294.242 99.3825 294.3 99.7591Z" fill="#263238"/>
<path d="M297.91 89.5989C297.58 90.0189 295.16 88.5989 291.97 88.9189C288.78 89.2389 286.61 91.0789 286.22 90.7189C286.04 90.5689 286.34 89.8289 287.28 88.9889C288.566 87.8938 290.158 87.2202 291.84 87.0589C293.495 86.8833 295.164 87.2331 296.61 88.0589C297.67 88.7389 298.07 89.4089 297.91 89.5989Z" fill="#263238"/>
<path d="M264.41 101.669C264.49 102.439 264.27 103.211 263.794 103.822C263.319 104.433 262.626 104.837 261.86 104.949C261.483 105.018 261.096 105.009 260.722 104.925C260.348 104.84 259.995 104.681 259.685 104.457C259.374 104.233 259.111 103.949 258.913 103.621C258.714 103.293 258.584 102.928 258.53 102.549C258.45 101.777 258.671 101.005 259.149 100.393C259.626 99.7816 260.322 99.3788 261.09 99.2691C261.466 99.2022 261.852 99.2116 262.225 99.2969C262.597 99.3822 262.949 99.5415 263.258 99.7654C263.568 99.9893 263.83 100.273 264.028 100.6C264.225 100.927 264.355 101.291 264.41 101.669Z" fill="#263238"/>
<path d="M266.61 93.3491C266.28 93.7691 263.87 92.3491 260.68 92.6691C257.49 92.9891 255.31 94.8291 254.93 94.4691C254.74 94.3091 255.04 93.5791 255.99 92.7291C257.275 91.6332 258.868 90.9624 260.55 90.8091C262.206 90.63 263.876 90.9801 265.32 91.8091C266.37 92.4891 266.77 93.1591 266.61 93.3491Z" fill="#263238"/>
<path d="M280.57 115.839C280.57 115.659 282.48 115.119 285.65 114.389C286.46 114.219 287.21 113.979 287.29 113.389C287.28 112.541 287.008 111.716 286.51 111.029C285.543 109.142 284.543 107.142 283.51 105.029C279.27 96.5391 276.12 89.5191 276.46 89.3491C276.8 89.1791 280.52 95.9291 284.75 104.429C285.75 106.519 286.75 108.519 287.69 110.429C288.297 111.364 288.559 112.482 288.43 113.589C288.344 113.889 288.188 114.165 287.977 114.394C287.765 114.623 287.502 114.8 287.21 114.909C286.773 115.08 286.316 115.194 285.85 115.249C282.6 115.799 280.6 116.019 280.57 115.839Z" fill="#263238"/>
<path d="M266.18 80.7689C265.95 81.6589 262.72 81.5689 259.03 82.3989C255.34 83.2289 252.41 84.5489 251.83 83.8289C251.57 83.4789 252.02 82.6089 253.15 81.6389C254.666 80.4295 256.449 79.5998 258.35 79.2189C260.24 78.7977 262.204 78.8286 264.08 79.3089C265.51 79.7289 266.27 80.3389 266.18 80.7689Z" fill="#263238"/>
<path d="M295.8 80.4889C295.32 81.2689 293.04 80.7389 290.4 80.9689C287.76 81.1989 285.57 81.9689 284.98 81.2389C284.71 80.8889 284.98 80.1289 285.9 79.3489C287.131 78.3946 288.618 77.8272 290.172 77.7186C291.726 77.61 293.278 77.9651 294.63 78.7389C295.63 79.3889 296.02 80.1089 295.8 80.4889Z" fill="#263238"/>
<path d="M233.93 107.659C233.56 107.539 219.25 104.869 221.13 119.019C223.01 133.169 236.82 128.359 236.79 127.949C236.76 127.539 233.93 107.659 233.93 107.659Z" fill="#FFBF9D"/>
<path d="M231.76 123.169C231.69 123.169 231.53 123.369 231.14 123.619C230.59 123.947 229.933 124.047 229.31 123.899C227.74 123.549 226.16 121.339 225.76 118.799C225.562 117.591 225.637 116.354 225.98 115.179C226.051 114.72 226.235 114.285 226.514 113.914C226.793 113.542 227.159 113.245 227.58 113.049C227.855 112.931 228.164 112.917 228.448 113.009C228.733 113.101 228.975 113.293 229.13 113.549C229.38 113.919 229.32 114.209 229.4 114.229C229.48 114.249 229.67 113.949 229.48 113.379C229.357 113.04 229.12 112.753 228.81 112.569C228.382 112.326 227.875 112.261 227.4 112.389C226.834 112.581 226.327 112.914 225.927 113.357C225.526 113.8 225.245 114.337 225.11 114.919C224.674 116.226 224.56 117.619 224.78 118.979C225.25 121.819 227.07 124.289 229.19 124.609C229.585 124.669 229.988 124.64 230.371 124.524C230.753 124.408 231.105 124.208 231.4 123.939C231.78 123.549 231.81 123.179 231.76 123.169Z" fill="#FF9A6C"/>
<path d="M299.65 59.6089C297.39 55.7189 293.77 52.7889 289.92 50.4489C281.613 45.2831 271.888 42.8686 262.13 43.5489C252.345 44.3117 243.239 48.8434 236.73 56.1889C231.756 62.22 228.658 69.5764 227.82 77.3489C227.015 85.0843 227.756 92.9025 230 100.349C230.93 103.629 232.19 106.999 234.78 109.219C236.4 110.599 239.01 111.359 240.56 109.899C241.369 108.93 241.834 107.72 241.88 106.459C243.51 95.2289 245.02 83.1889 239.95 73.0389C242.191 69.1336 245.21 65.7299 248.82 63.0389C250.633 61.714 252.69 60.7615 254.874 60.2363C257.057 59.7111 259.323 59.6236 261.54 59.9789C268.06 61.2989 272.54 67.0589 278.06 70.8289C282.01 73.5015 286.54 75.1964 291.274 75.7737C296.009 76.3509 300.813 75.794 305.29 74.1489L299.65 59.6089Z" fill="#263238"/>
<path d="M283.37 124.459C283.209 125.804 282.852 127.118 282.31 128.359C282.039 128.979 281.638 129.534 281.134 129.986C280.631 130.438 280.036 130.777 279.39 130.979C278.685 131.132 277.952 131.104 277.261 130.895C276.57 130.687 275.943 130.307 275.44 129.789C274.435 128.741 273.79 127.399 273.6 125.959C273.39 124.669 273.66 123.029 274.89 122.619C275.418 122.484 275.972 122.484 276.5 122.619L283.72 123.919" fill="#FF9A6C"/>
<path d="M281.86 130.489C281.79 130.289 280.45 131.179 278.22 130.789C276.962 130.58 275.826 129.914 275.03 128.919C274.571 128.304 274.246 127.601 274.074 126.854C273.901 126.107 273.886 125.332 274.03 124.579C274.108 124.194 274.236 123.821 274.41 123.469C274.61 123.139 274.57 123.159 274.86 123.139C275.15 123.119 275.63 123.269 276.01 123.339L277.2 123.549C278.74 123.829 280.14 124.059 281.31 124.239C283.66 124.599 285.13 124.739 285.16 124.579C285.19 124.419 283.79 123.979 281.48 123.399C280.33 123.119 278.95 122.789 277.42 122.459L276.24 122.199C275.805 122.092 275.364 122.009 274.92 121.949C274.569 121.915 274.217 122 273.92 122.189C273.656 122.374 273.445 122.626 273.31 122.919C273.09 123.37 272.929 123.847 272.83 124.339C272.643 125.261 272.663 126.213 272.89 127.127C273.116 128.04 273.543 128.891 274.14 129.619C274.641 130.2 275.253 130.676 275.94 131.019C276.626 131.362 277.374 131.566 278.14 131.619C279.133 131.728 280.137 131.558 281.04 131.129C281.64 130.839 281.9 130.549 281.86 130.489Z" fill="#263238"/>
<path d="M313.13 43.9189C313.263 44.2188 313.358 44.5348 313.41 44.8589C313.583 45.7755 313.613 46.7132 313.5 47.6389C313.267 49.3562 312.693 51.0097 311.812 52.502C310.931 53.9944 309.761 55.2955 308.37 56.3289C304.89 59.0989 299.37 60.2089 293.72 59.3289C288.07 58.4489 282.23 55.7789 276.23 53.3289C270.23 50.8789 264.13 49.1789 258.56 50.1989C253.67 51.1276 249.231 53.6656 245.95 57.4089C243.689 59.8976 241.867 62.7513 240.56 65.8489C239.65 68.0589 239.34 69.3489 239.24 69.3289C239.262 68.9899 239.322 68.6543 239.42 68.3289C239.638 67.4317 239.905 66.547 240.22 65.6789C241.425 62.4705 243.2 59.5063 245.46 56.9289C248.79 52.9987 253.356 50.3156 258.41 49.3189C264.18 48.2089 270.56 49.9289 276.59 52.4289C282.62 54.9289 288.29 57.6489 293.85 58.4289C299.41 59.2089 304.63 58.2989 307.99 55.7389C310.682 53.7834 312.521 50.8701 313.13 47.5989C313.286 46.3773 313.286 45.1406 313.13 43.9189Z" fill="#455A64"/>
<path d="M220.26 87.019C220.181 85.6921 220.368 84.3628 220.81 83.109C222.154 78.2838 224.947 73.9872 228.81 70.799C229.918 69.8213 231.251 69.134 232.69 68.799C233.7 68.5816 234.754 68.701 235.69 69.139C236.32 69.459 236.56 69.789 236.52 69.829C235.384 69.2833 234.095 69.1455 232.87 69.439C230.65 70.009 228.15 72.439 225.87 75.199C223.967 77.6532 222.481 80.4031 221.47 83.339C220.64 85.549 220.41 87.039 220.26 87.019Z" fill="#455A64"/>
<path d="M224.01 99.2589C224.036 97.9243 224.308 96.6058 224.81 95.3689C226.925 89.2075 231.241 84.0441 236.93 80.8689C238.06 80.1556 239.31 79.654 240.62 79.3889C239.537 80.1113 238.419 80.7789 237.27 81.3889C231.942 84.7648 227.8 89.718 225.42 95.5589C225.014 96.8159 224.544 98.0509 224.01 99.2589Z" fill="#455A64"/>
<path d="M300.21 179.369C300.21 179.369 315.38 198.939 319.03 206.289C322.68 213.639 348.84 294.849 348.84 294.849L337.49 299.619L300.21 179.369Z" fill="#455A64"/>
<path d="M239.18 161.049V151.239L294.3 169.169L309.06 192.799L320.44 225.809L288.54 177.859L239.18 161.049Z" fill="#EBEBEB"/>
<path d="M235.9 170.479C235.9 170.479 212.52 198.479 213.02 216.639C213.52 234.549 237.81 343.379 237.81 343.379L231.93 362.829L225.56 427.649H358.06L348.84 294.849C347.37 294.769 319.84 218.739 319.84 218.739L288.97 175.949L238.22 157.659L235.9 170.479Z" fill="#455A64"/>
<path d="M336.87 263.219C336.87 263.219 346.14 262.859 350.98 265.019C355.82 267.179 359.91 266.099 363.33 272.789C366.75 279.479 370.75 282.509 371.59 292.659C372.43 302.809 361.47 326.329 354.23 329.659C346.99 332.989 336.87 263.219 336.87 263.219Z" fill="#455A64"/>
<g opacity="0.3">
<path d="M233.22 262.299C233.22 262.299 287.39 313.149 294.28 318.009C301.17 322.869 302.19 353.619 310.68 354.209C319.17 354.799 346.68 334.449 346.68 334.449L265.19 257.679L233.22 262.299Z" fill="black"/>
</g>
<path d="M309.5 307.829C309.5 307.829 297.72 322.899 296.37 326.679C295.02 330.459 293.71 332.969 295.15 334.229C295.667 334.779 296.34 335.157 297.078 335.313C297.817 335.468 298.585 335.394 299.28 335.099C301.2 334.359 310.67 321.869 310.67 321.869C310.67 321.869 298.11 339.779 297.54 342.869C296.97 345.959 299.43 347.459 302.31 346.919C305.19 346.379 310.67 338.289 310.67 338.289C310.67 338.289 302.9 347.289 304.54 348.809C306.18 350.329 308.07 350.519 310.23 349.439C312.39 348.359 317.87 341.259 317.87 341.259C317.87 341.259 314.09 345.259 316.16 346.259C318.23 347.259 318.41 347.359 320.21 345.869C322.01 344.379 337.89 328.869 337.89 328.869L327.89 322.009L309.5 307.829Z" fill="#FFBF9D"/>
<path d="M314.33 317.039C313.779 317.923 313.164 318.765 312.49 319.559L307.89 325.559C306.09 327.889 304.4 329.959 303.12 331.419C302.476 332.242 301.752 332.999 300.96 333.679C301.523 332.8 302.151 331.964 302.84 331.179L307.48 325.239C309.28 322.909 310.95 320.819 312.2 319.339C312.835 318.506 313.548 317.736 314.33 317.039Z" fill="#FF9A6C"/>
<path d="M322.68 324.259C320.721 326.971 318.625 329.581 316.4 332.079C314.302 334.684 312.072 337.181 309.72 339.559C311.675 336.844 313.771 334.234 316 331.739C318.098 329.134 320.328 326.637 322.68 324.259Z" fill="#FF9A6C"/>
<path d="M329.37 328.789C327.309 331.424 325.112 333.951 322.79 336.359C320.585 338.887 318.248 341.297 315.79 343.579C317.853 340.946 320.05 338.419 322.37 336.009C324.572 333.478 326.908 331.068 329.37 328.789Z" fill="#FF9A6C"/>
<path d="M243.07 187.889C250.68 186.279 260.34 185.609 267.7 189.779L307.89 226.039C307.89 226.039 364.54 289.589 366.76 293.129C368.98 296.669 371.97 317.589 363.39 328.249C354.81 338.909 345.13 334.809 334.13 332.299C325.42 330.299 264.51 285.549 239.47 266.959C230.768 260.553 224.494 251.388 221.67 240.959C219.76 234.25 219.082 227.25 219.67 220.299" fill="#455A64"/>
<path d="M219.68 220.349C219.68 220.349 219.68 220.709 219.61 221.399C219.54 222.089 219.51 223.109 219.49 224.459C219.49 228.392 219.885 232.315 220.67 236.169C221.213 238.953 221.948 241.696 222.87 244.379C223.997 247.564 225.469 250.615 227.26 253.479C229.311 256.761 231.752 259.783 234.53 262.479C237.44 265.399 241.06 267.859 244.73 270.599C259.49 281.469 277.08 294.379 296.89 308.329C301.89 311.809 306.95 315.329 312.2 318.889C317.45 322.449 322.85 326.029 328.54 329.329C329.961 330.15 331.426 330.891 332.93 331.549C333.688 331.862 334.475 332.1 335.28 332.259L337.72 332.849C340.962 333.761 344.268 334.43 347.61 334.849C350.986 335.268 354.409 334.643 357.42 333.059C360.41 331.342 362.909 328.887 364.68 325.929C367.57 320.929 368.63 315.129 368.82 309.499C368.932 306.685 368.819 303.865 368.48 301.069C368.31 299.689 368.08 298.309 367.79 296.959C367.54 295.62 367.085 294.328 366.44 293.129C364.8 290.969 362.94 288.889 361.19 286.809L355.87 280.669L345.42 268.749L307.74 226.169L267.6 189.849C264.42 188.133 260.913 187.111 257.31 186.849C254.686 186.636 252.049 186.659 249.43 186.919C247.32 187.129 245.72 187.399 244.65 187.579L243.45 187.799C243.18 187.849 243.04 187.859 243.04 187.859C243.04 187.859 243.58 187.729 244.64 187.509C245.7 187.289 247.3 187.019 249.42 186.789C252.047 186.505 254.695 186.462 257.33 186.659C260.97 186.912 264.514 187.935 267.73 189.659L307.98 225.849C319.26 238.479 331.98 252.799 345.73 268.369L356.19 280.289L361.51 286.429C363.29 288.519 365.1 290.549 366.81 292.799C367.009 293.117 367.18 293.451 367.32 293.799C367.46 294.129 367.56 294.459 367.68 294.799C367.91 295.469 368.06 296.149 368.23 296.799C368.53 298.169 368.76 299.559 368.93 300.959C369.272 303.782 369.389 306.628 369.28 309.469C369.08 315.149 368.02 321.029 365.06 326.149C363.247 329.189 360.681 331.71 357.61 333.469C354.508 335.094 350.985 335.736 347.51 335.309C344.131 334.897 340.788 334.228 337.51 333.309L335.07 332.719C334.242 332.552 333.432 332.308 332.65 331.989C331.124 331.316 329.638 330.554 328.2 329.709C322.48 326.389 317.1 322.779 311.84 319.249C306.58 315.719 301.48 312.149 296.53 308.659C276.72 294.659 259.15 281.749 244.42 270.839C240.77 268.089 237.14 265.609 234.21 262.659C231.42 259.929 228.972 256.87 226.92 253.549C225.136 250.663 223.67 247.592 222.55 244.389C221.634 241.69 220.909 238.93 220.38 236.129C219.613 232.261 219.251 228.323 219.3 224.379C219.344 223.029 219.471 221.683 219.68 220.349Z" fill="#263238"/>
<path d="M321.58 223.399L321.35 223.259L320.71 222.779C320.17 222.349 319.31 221.779 318.31 220.889C316.24 219.209 313.41 216.599 310.02 213.269C306.63 209.939 302.71 205.849 298.25 201.429C296.01 199.239 293.66 196.929 291.09 194.689C288.48 192.332 285.706 190.164 282.79 188.199C281.57 187.319 280.25 186.649 279.02 185.899L278.84 185.789V185.609C279.05 184.699 279.26 183.799 279.46 182.919L279.63 183.219L248.89 173.549L239.78 170.629L237.34 169.819L236.7 169.599L236.49 169.509C236.49 169.509 236.57 169.509 236.72 169.509L237.36 169.689L239.84 170.409L249 173.189L279.83 182.709L280.05 182.779L280 183.009C279.8 183.889 279.6 184.789 279.39 185.699L279.26 185.419C280.51 186.179 281.85 186.859 283.07 187.739C286.008 189.713 288.799 191.899 291.42 194.279C294 196.539 296.35 198.859 298.59 201.069C303.03 205.519 306.92 209.619 310.28 212.979C313.64 216.339 316.42 218.979 318.44 220.709C319.44 221.609 320.25 222.219 320.78 222.709L321.39 223.219C321.459 223.272 321.523 223.333 321.58 223.399Z" fill="#263238"/>
<path d="M341.47 264.339C341.047 263.682 340.669 262.997 340.34 262.289L337.45 256.549C335.03 251.679 331.73 244.949 328.11 237.489C324.49 230.029 321.25 223.259 318.93 218.349C317.81 215.929 316.88 213.959 316.21 212.519C315.92 211.869 315.68 211.339 315.5 210.919C315.403 210.739 315.329 210.547 315.28 210.349C315.406 210.512 315.51 210.69 315.59 210.879C315.8 211.279 316.07 211.799 316.39 212.429C317.1 213.849 318.08 215.799 319.26 218.189C321.68 223.119 324.96 229.839 328.58 237.259L337.78 256.389L340.53 262.199C340.879 262.896 341.193 263.61 341.47 264.339Z" fill="#263238"/>
<path d="M247.84 374.039H248.2L249.2 374.109L253.2 374.429L267.82 375.689L317.13 380.119L316.85 380.429L313.64 367.549C313.14 365.549 312.64 363.549 312.16 361.549L312.39 361.749L257.19 355.339L257.36 355.249C254.12 360.999 251.62 365.629 249.99 368.859C249.18 370.469 248.59 371.729 248.23 372.599C248.093 372.924 247.979 373.258 247.89 373.599C247.855 373.712 247.838 373.83 247.84 373.949C247.806 373.467 247.91 372.984 248.14 372.559C248.47 371.669 249.04 370.389 249.83 368.759C251.41 365.509 253.83 360.849 257.06 355.069L257.12 354.969H257.23L312.45 361.199H312.63V361.379L314.11 367.379C315.19 371.779 316.26 376.089 317.28 380.219L317.37 380.569H317.01L267.6 375.949L253.03 374.539L249.13 374.139L248.13 374.029C248.034 374.046 247.937 374.05 247.84 374.039Z" fill="#263238"/>
<g opacity="0.3">
<path d="M249.63 374.209L252 380.369L317.07 384.249V380.369L249.63 374.209Z" fill="black"/>
</g>
<path d="M160.13 64.1091C159.93 60.6291 157.04 57.7191 153.72 56.6691C150.4 55.6191 146.72 56.1491 143.45 57.2491C136.24 59.6391 130.18 64.5391 124.3 69.3491C115.17 76.7991 106.3 87.0391 102.82 98.3491C100.19 106.829 99.4299 112.349 102.13 121.349C104.51 129.349 106.4 137.059 105.93 143.739C105.18 154.289 103.93 156.739 101.19 167.119C99.4999 173.589 105.27 190.519 105.27 190.519L141.76 176.519C154.76 170.399 182.82 158.979 182.82 158.979L160.13 64.1091Z" fill="#263238"/>
<path d="M139.64 187.839C139.7 178.959 139.79 172.779 139.78 172.839C139.77 172.899 123.85 169.159 120.64 146.439C118.773 131.729 118.364 116.87 119.42 102.079C120.51 88.4991 129.81 71.9691 143.33 73.6291L185.45 85.0491C189.56 85.5591 190.93 89.0491 190.78 93.1991L191.09 95.1391L188 160.019L189.33 187.609C188.79 199.939 176.6 211.149 164.27 211.709C161.06 211.861 157.852 211.354 154.845 210.218C151.839 209.082 149.096 207.342 146.788 205.105C144.48 202.868 142.655 200.182 141.426 197.213C140.196 194.243 139.589 191.053 139.64 187.839Z" fill="#B56760"/>
<path d="M128.96 120.179C128.935 120.939 129.209 121.679 129.723 122.24C130.237 122.801 130.95 123.138 131.71 123.179C132.076 123.209 132.445 123.166 132.794 123.053C133.143 122.94 133.467 122.759 133.746 122.52C134.025 122.281 134.254 121.989 134.419 121.661C134.585 121.333 134.684 120.976 134.71 120.609C134.735 119.849 134.461 119.109 133.947 118.548C133.433 117.988 132.72 117.651 131.96 117.609C131.594 117.579 131.226 117.622 130.876 117.735C130.527 117.848 130.203 118.03 129.924 118.269C129.645 118.508 129.416 118.799 129.251 119.127C129.085 119.455 128.987 119.813 128.96 120.179Z" fill="#263238"/>
<path d="M125.13 112.309C125.48 112.689 127.71 111.099 130.84 111.159C133.97 111.219 136.23 112.829 136.58 112.449C136.75 112.279 136.39 111.589 135.4 110.849C134.066 109.885 132.465 109.361 130.82 109.349C129.192 109.311 127.594 109.794 126.26 110.729C125.3 111.449 124.96 112.129 125.13 112.309Z" fill="#263238"/>
<path d="M158.23 119.839C158.205 120.599 158.479 121.339 158.993 121.9C159.507 122.46 160.221 122.798 160.98 122.839C161.346 122.869 161.715 122.826 162.064 122.713C162.413 122.6 162.737 122.419 163.016 122.18C163.295 121.941 163.524 121.649 163.689 121.321C163.855 120.993 163.954 120.635 163.98 120.269C164.01 119.509 163.739 118.768 163.226 118.206C162.713 117.645 162 117.308 161.24 117.269C160.873 117.236 160.503 117.277 160.152 117.389C159.801 117.501 159.475 117.682 159.195 117.921C158.915 118.161 158.685 118.454 158.519 118.783C158.353 119.112 158.255 119.471 158.23 119.839Z" fill="#263238"/>
<path d="M155.13 112.219C155.49 112.599 157.72 111.009 160.85 111.069C163.98 111.129 166.24 112.739 166.59 112.359C166.76 112.189 166.4 111.499 165.41 110.759C164.076 109.795 162.475 109.271 160.83 109.259C159.202 109.225 157.605 109.708 156.27 110.639C155.3 111.359 154.96 112.039 155.13 112.219Z" fill="#263238"/>
<path d="M142.58 135.869C142.58 135.699 140.66 135.329 137.51 134.869C136.72 134.769 135.96 134.599 135.84 134.049C135.783 133.226 135.982 132.405 136.41 131.699L138.88 125.649C142.31 117.049 144.8 109.969 144.45 109.839C144.1 109.709 141.05 116.569 137.62 125.169C136.79 127.289 136 129.309 135.25 131.249C134.729 132.2 134.562 133.306 134.78 134.369C134.889 134.654 135.062 134.911 135.286 135.119C135.509 135.327 135.778 135.481 136.07 135.569C136.513 135.694 136.97 135.765 137.43 135.779C140.6 135.999 142.56 136.049 142.58 135.869Z" fill="#263238"/>
<path d="M139.78 172.849C150.449 173.192 161.004 170.568 170.27 165.269C170.27 165.269 162.34 181.139 139.69 178.629L139.78 172.849Z" fill="#8A4A43"/>
<path d="M154.13 101.159C154.5 101.989 157.58 101.369 161.28 101.559C164.98 101.749 168 102.559 168.43 101.749C168.62 101.369 168.05 100.609 166.8 99.869C165.138 98.9731 163.293 98.467 161.407 98.389C159.52 98.3111 157.64 98.6633 155.91 99.419C154.6 100.049 153.97 100.759 154.13 101.159Z" fill="#263238"/>
<path d="M124.26 102.549C124.9 103.269 127.46 102.549 130.52 102.549C133.58 102.549 136.18 103.119 136.79 102.389C137.06 102.029 136.66 101.309 135.54 100.619C133.99 99.7534 132.235 99.3216 130.46 99.369C128.703 99.356 126.975 99.819 125.46 100.709C124.35 101.459 123.98 102.189 124.26 102.549Z" fill="#263238"/>
<path d="M143.32 143.549C143.987 142.584 144.902 141.818 145.969 141.33C147.035 140.842 148.214 140.652 149.38 140.779H149.6C150.234 140.778 150.854 140.962 151.385 141.309C151.916 141.655 152.334 142.149 152.589 142.729C152.843 143.31 152.923 143.952 152.819 144.577C152.714 145.202 152.43 145.783 152 146.249C151.215 147.157 150.166 147.797 149 148.079C148.265 148.316 147.488 148.394 146.721 148.308C145.954 148.222 145.214 147.973 144.55 147.579C143.898 147.164 143.416 146.53 143.19 145.791C142.965 145.052 143.011 144.257 143.32 143.549Z" fill="#8A4A43"/>
<path d="M152.07 138.839C151.92 138.839 151.73 139.629 151.15 140.839C150.425 142.352 149.32 143.651 147.942 144.608C146.564 145.566 144.961 146.148 143.29 146.299C142 146.439 141.17 146.299 141.14 146.489C141.11 146.679 141.91 146.969 143.32 147.019C145.178 147.058 147.001 146.507 148.526 145.445C150.052 144.383 151.201 142.865 151.81 141.109C152.26 139.739 152.19 138.849 152.07 138.839Z" fill="#263238"/>
<path d="M118.84 128.259L114.15 109.259C109.93 103.439 113.22 93.939 116.21 87.409C119.2 80.879 124.9 75.869 131.21 72.489C137.52 69.109 144.56 67.199 151.54 65.489C148.658 74.3057 142.716 81.8005 134.79 86.619C134.79 86.619 123.26 94.549 121.13 103.849C118.89 114.039 118.84 128.259 118.84 128.259Z" fill="#263238"/>
<path d="M145.2 77.479L178.27 97.349C179.191 107.548 181.565 117.562 185.32 127.089C191.42 121.869 195.19 131.929 197.02 124.199C197.12 123.789 195.34 140.409 188.95 140.929L187.95 158.999L219.49 151.239C219.49 151.239 217.79 129.339 212.41 116.049C209.06 107.789 207.29 100.859 203.99 92.579C201.48 86.309 197.04 76.939 193.7 72.479C186.54 62.909 160.01 62.479 160.01 62.479C148.32 65.239 156.19 63.929 146.34 70.819L142.98 79.819" fill="#263238"/>
<path d="M185.31 126.959C185.31 122.189 190.4 118.719 194.74 120.869C197.12 122.059 199.04 124.589 199.11 129.659C199.29 143.179 185.43 140.589 185.4 140.199C185.37 139.809 185.34 132.549 185.31 126.959Z" fill="#B56760"/>
<path d="M189.53 135.019C189.59 135.019 189.78 135.179 190.18 135.359C190.759 135.583 191.401 135.583 191.98 135.359C193.43 134.809 194.62 132.529 194.65 130.089C194.669 128.93 194.426 127.781 193.94 126.729C193.799 126.308 193.56 125.926 193.241 125.617C192.923 125.307 192.535 125.078 192.11 124.949C191.834 124.88 191.542 124.909 191.285 125.032C191.028 125.154 190.821 125.361 190.7 125.619C190.52 125.999 190.61 126.259 190.54 126.289C190.47 126.319 190.24 126.069 190.34 125.509C190.416 125.172 190.603 124.869 190.87 124.649C191.246 124.362 191.72 124.233 192.19 124.289C192.754 124.387 193.284 124.627 193.728 124.988C194.173 125.349 194.518 125.817 194.73 126.349C195.329 127.507 195.632 128.795 195.61 130.099C195.61 132.829 194.18 135.399 192.19 135.989C191.822 136.1 191.433 136.128 191.053 136.071C190.673 136.014 190.309 135.873 189.99 135.659C189.56 135.349 189.49 135.049 189.53 135.019Z" fill="#8A4A43"/>
<path d="M160.97 62.449C160.816 62.7429 160.625 63.0153 160.4 63.259C159.99 63.749 159.4 64.429 158.56 65.259C156.96 66.869 154.65 68.999 152.09 71.329C149.53 73.659 147.23 75.779 145.59 77.329C144.746 78.2128 143.858 79.0539 142.93 79.849C143.088 79.5591 143.287 79.2931 143.52 79.059C143.93 78.569 144.52 77.889 145.33 77.059C146.91 75.409 149.18 73.239 151.74 70.909L158.31 64.909C159.99 63.449 160.91 62.399 160.97 62.449Z" fill="#455A64"/>
<path d="M124.18 73.8991C124.439 73.5368 124.733 73.2017 125.06 72.8991C125.916 71.9981 126.835 71.1593 127.81 70.3891C131.042 67.8323 134.761 65.9609 138.74 64.8891C140.941 64.2099 143.291 64.1787 145.51 64.7991C146.423 65.06 147.27 65.5112 147.995 66.1231C148.721 66.735 149.309 67.4936 149.72 68.3491C150.242 69.5227 150.31 70.8485 149.91 72.0691C149.803 72.3967 149.648 72.7067 149.45 72.9891C149.31 73.1758 149.23 73.2658 149.21 73.2591C149.405 72.8533 149.576 72.4359 149.72 72.0091C150.016 70.8351 149.896 69.5945 149.38 68.4991C148.975 67.7105 148.411 67.015 147.722 66.4571C147.033 65.8992 146.235 65.4912 145.38 65.2591C143.244 64.694 140.992 64.7391 138.88 65.3891C134.968 66.4533 131.294 68.2482 128.05 70.6791C125.55 72.5491 124.25 73.9691 124.18 73.8991Z" fill="#455A64"/>
<path d="M116.62 87.549C116.866 87.1825 117.154 86.8468 117.48 86.549C118.06 85.949 118.92 85.089 120 84.059C122.789 81.3132 125.906 78.9218 129.28 76.939C131.138 75.838 133.165 75.0508 135.28 74.609C137.061 74.247 138.912 74.5231 140.51 75.389C141.571 75.9901 142.412 76.9153 142.91 78.029C143.033 78.3512 143.117 78.6869 143.16 79.029C143.175 79.1419 143.175 79.2562 143.16 79.369C143.1 79.369 143.06 78.909 142.71 78.159C142.172 77.1376 141.339 76.3014 140.32 75.759C138.776 74.9786 137.009 74.756 135.32 75.129C133.252 75.5845 131.27 76.3677 129.45 77.449C126.115 79.4169 123.004 81.7405 120.17 84.379L117.54 86.739C117.258 87.0359 116.95 87.3069 116.62 87.549Z" fill="#455A64"/>
<path d="M195.78 141.549C195.811 142.482 195.565 143.403 195.073 144.196C194.58 144.989 193.864 145.618 193.014 146.004C192.164 146.39 191.219 146.515 190.298 146.364C189.377 146.213 188.522 145.792 187.84 145.155C187.158 144.518 186.68 143.693 186.467 142.784C186.254 141.875 186.315 140.924 186.643 140.05C186.97 139.176 187.549 138.419 188.307 137.874C189.065 137.329 189.967 137.021 190.9 136.989C191.52 136.968 192.138 137.069 192.719 137.286C193.3 137.504 193.832 137.834 194.285 138.258C194.738 138.681 195.104 139.19 195.36 139.755C195.617 140.319 195.759 140.929 195.78 141.549Z" fill="#455A64"/>
<path d="M109.13 276.599C108 277.349 95.5299 280.369 92.5099 288.309C89.4899 296.249 73.4499 312.369 85.0599 328.109L109.13 314.759V276.599Z" fill="#D4145A"/>
<path d="M85.07 328.149C83.0354 325.47 81.6832 322.337 81.13 319.019C80.6976 316.068 80.8746 313.059 81.65 310.179C83.08 304.469 86.33 299.179 88.94 294.859C90.3064 292.778 91.5036 290.591 92.52 288.319C94.99 281.829 103.77 278.619 107.52 277.249C108.072 277.054 108.61 276.82 109.13 276.549V314.769L85.07 328.149ZM109.13 276.639C108.609 276.882 108.075 277.096 107.53 277.279C103.79 278.639 95.02 281.849 92.53 288.279C91.5179 290.557 90.3206 292.747 88.95 294.829C86.34 299.109 83.09 304.429 81.67 310.139C80.8945 313.009 80.7175 316.008 81.15 318.949C81.7012 322.25 83.0427 325.369 85.06 328.039L109.06 314.699L109.13 276.639Z" fill="#263238"/>
<path d="M136.93 210.829L138.9 183.599L188.46 162.919L190.22 173.079L156.46 190.259L136.93 210.829Z" fill="#E0E0E0"/>
<path d="M190.22 167.089C190.22 167.089 159.86 179.369 146.39 191.369C133.73 202.649 107.39 247.129 104.57 259.259C101.75 271.389 102.3 304.939 102.3 304.939C102.3 304.939 102.23 339.559 102.23 340.409C102.23 341.259 80.52 397.099 84.46 427.549H208.29C208.29 427.549 211.96 384.669 203.5 368.029C195.04 351.389 194.75 354.769 194.75 354.769C194.75 354.769 199.83 349.129 199.27 344.049C198.777 340.709 197.521 337.526 195.6 334.749L217.32 267.049C217.32 267.049 219.57 232.919 213.65 210.049C208.13 188.669 206.03 189.879 199.13 183.029C199.22 183.219 198.98 182.889 199.13 183.029L192.82 177.859L190.22 167.089Z" fill="#D4145A"/>
<path d="M109.13 374.039C108.75 372.579 118.51 355.249 118.51 355.249L174.51 364.649L178.4 380.369L109.13 374.039Z" fill="#D4145A"/>
<path d="M109.13 374.039H109.5L110.5 374.109L114.5 374.429L129.13 375.709L178.4 380.119L178.12 380.429C177.18 376.619 176.19 372.619 175.18 368.559C174.86 367.259 174.54 365.959 174.18 364.709L174.39 364.899L118.44 355.419L118.62 355.329C115.38 361.069 112.89 365.709 111.26 368.929C110.44 370.539 109.85 371.809 109.49 372.679C109.349 373.003 109.232 373.338 109.14 373.679C109.08 373.909 109.14 374.019 109.14 374.029C109.12 373.543 109.227 373.061 109.45 372.629C109.78 371.739 110.35 370.469 111.14 368.839C112.72 365.579 115.14 360.919 118.37 355.149L118.43 355.049H118.55L174.55 364.359H174.72V364.519L175.67 368.369C176.67 372.439 177.67 376.439 178.61 380.249L178.7 380.599H178.34L128.94 375.979L114.37 374.569L110.46 374.169L109.46 374.059C109.35 374.067 109.239 374.06 109.13 374.039Z" fill="#263238"/>
<g opacity="0.3">
<path d="M97.1299 347.149L98.3799 357.289C107.3 363.609 119.92 362.409 129.47 357.069C139.02 351.729 146.1 342.959 152.64 334.199C172.49 307.649 189.78 278.979 201.57 247.999C170.82 284.929 128.2 310.469 97.1299 347.149Z" fill="black"/>
</g>
<path d="M197.13 195.739C207.52 204.009 216.58 229.889 200.49 252.259C200.49 252.259 130.19 347.639 118.55 355.259C106.91 362.879 91.2399 358.389 86.7599 347.199C82.2799 336.009 84.0699 325.259 90.3399 317.649C96.6099 310.039 137.81 237.489 137.81 237.489C137.81 237.489 147.2 203.869 163.21 194.109" fill="#D4145A"/>
<path d="M163.19 194.099L162.47 194.609C161.75 195.089 161.056 195.607 160.39 196.159C157.841 198.345 155.565 200.829 153.61 203.559C148.43 210.619 142.61 222.179 137.95 237.559C128.95 253.469 117.63 273.279 104.49 295.559C101.18 301.099 97.7899 306.819 94.1299 312.559C93.1299 313.979 92.3099 315.449 91.2499 316.839C90.7399 317.549 90.2499 318.239 89.6999 318.909C89.1855 319.6 88.7081 320.318 88.2699 321.059C87.3854 322.552 86.6454 324.126 86.0599 325.759C85.485 327.419 85.0697 329.13 84.8199 330.869C84.3353 334.408 84.4877 338.004 85.2699 341.489C85.4699 342.369 85.6799 343.249 85.9599 344.109C86.2399 344.969 86.5299 345.829 86.8399 346.679C87.1499 347.529 87.5899 348.319 87.9699 349.139L88.7099 350.279C88.9437 350.669 89.2114 351.037 89.5099 351.379C91.8631 354.249 94.9849 356.389 98.5099 357.549C102.046 358.752 105.82 359.078 109.51 358.499C112.92 357.947 116.159 356.623 118.98 354.629C121.58 352.404 124.004 349.98 126.23 347.379C130.77 342.279 135.06 337.089 139.23 331.959C147.55 321.679 155.38 311.609 162.8 301.959C170.22 292.309 177.19 283.119 183.69 274.489L193.07 261.969L197.47 256.059C198.89 254.119 200.37 252.279 201.55 250.319C203.971 246.687 205.851 242.722 207.13 238.549C207.4 237.549 207.67 236.549 207.93 235.609C208.19 234.669 208.3 233.659 208.48 232.699C209.865 224.656 208.992 216.386 205.96 208.809C204.563 205.122 202.559 201.695 200.03 198.669C199.58 198.159 199.22 197.669 198.85 197.339L197.9 196.459C197.39 195.989 197.14 195.729 197.14 195.729C197.14 195.729 197.42 195.959 197.94 196.419L198.94 197.279C199.33 197.619 199.69 198.099 200.15 198.599C202.711 201.614 204.74 205.043 206.15 208.739C208.458 214.577 209.553 220.824 209.37 227.099C209.291 228.992 209.097 230.879 208.79 232.749C208.61 233.749 208.51 234.749 208.25 235.679C207.99 236.609 207.72 237.679 207.44 238.679C206.157 242.889 204.264 246.889 201.82 250.549C200.63 252.549 199.15 254.369 197.74 256.319L193.35 262.239C190.35 266.239 187.23 270.419 183.99 274.779C177.51 283.419 170.54 292.639 163.14 302.279C155.74 311.919 147.91 321.999 139.59 332.279C135.42 337.419 131.14 342.619 126.59 347.719C125.46 348.999 124.28 350.259 123.09 351.499C121.899 352.771 120.619 353.958 119.26 355.049C116.376 357.108 113.057 358.476 109.56 359.049C105.771 359.644 101.895 359.3 98.2699 358.049C94.6705 356.849 91.4866 354.65 89.0899 351.709C88.7768 351.361 88.4988 350.982 88.2599 350.579L87.4999 349.409C87.1099 348.559 86.6499 347.739 86.3299 346.869C86.0099 345.999 85.6799 345.149 85.4399 344.269C85.1999 343.389 84.9499 342.499 84.7499 341.609C83.5013 336.307 83.7821 330.759 85.5599 325.609C86.1641 323.946 86.9207 322.343 87.8199 320.819C88.2799 320.069 88.7499 319.329 89.2799 318.629C89.8099 317.929 90.3399 317.249 90.8299 316.559C91.8299 315.199 92.7499 313.719 93.6999 312.309C97.3499 306.579 100.75 300.869 104.07 295.309C117.22 273.099 128.55 253.309 137.64 237.429C142.3 222.039 148.24 210.499 153.48 203.429C155.451 200.697 157.76 198.224 160.35 196.069C161.025 195.524 161.729 195.017 162.46 194.549C162.93 194.249 163.19 194.099 163.19 194.099Z" fill="#263238"/>
<path d="M132.19 267.929C132.19 267.929 130.38 263.199 126.76 262.569C123.14 261.939 116.15 262.569 116.15 262.569C116.15 262.569 113.07 264.889 113.1 268.069C113.101 269.888 113.32 271.701 113.75 273.469C113.75 273.469 111.22 270.059 107.89 273.289C104.56 276.519 101.64 283.069 101.64 283.069C101.64 283.069 97.21 284.489 95.52 286.639C94.3286 288.36 93.4204 290.261 92.83 292.269C91.7297 293.027 90.8611 294.074 90.3209 295.296C89.7807 296.518 89.5899 297.865 89.77 299.189C89.9696 300.596 90.4995 301.936 91.3165 303.099C92.1334 304.261 93.214 305.214 94.47 305.879C94.47 305.879 107.68 315.609 109.29 314.349C110.9 313.089 114.21 311.109 109.46 306.899L101.73 300.049L103.97 296.589C103.97 296.589 116.9 305.479 118.97 305.049C121.04 304.619 124.57 304.549 123.12 301.359C121.67 298.169 109.59 288.869 109.59 288.869L111.02 283.869C111.02 283.869 125.02 293.329 127.29 291.819C129.56 290.309 131.62 289.599 129.29 286.479C126.96 283.359 116.87 275.909 116.87 275.909L121 272.049C121 272.049 130.77 273.759 132.19 267.929Z" fill="#B56760"/>
<path d="M192.78 177.859L192.43 177.959L191.43 178.239C190.53 178.469 189.2 178.819 187.49 179.309C182.672 180.643 177.929 182.232 173.28 184.069C171.81 184.659 170.28 185.309 168.73 186.069C167.95 186.439 167.16 186.819 166.37 187.249C165.98 187.469 165.57 187.669 165.18 187.899C164.79 188.129 164.41 188.369 164.05 188.649C161 191.166 158.194 193.965 155.67 197.009C150.19 203.339 144.6 210.679 138.88 218.459C133.16 226.239 127.88 233.819 123.13 240.729C120.76 244.189 118.54 247.489 116.48 250.599C114.524 253.441 112.751 256.403 111.17 259.469C108.973 263.961 107.115 268.611 105.61 273.379C105.06 275.069 104.67 276.379 104.41 277.279L104.12 278.279C104.091 278.399 104.051 278.516 104 278.629C104 278.629 104 278.499 104.07 278.269L104.31 277.269C104.54 276.369 104.9 275.039 105.41 273.339C106.851 268.538 108.667 263.857 110.84 259.339C112.406 256.249 114.169 253.262 116.12 250.399C118.12 247.269 120.38 243.959 122.73 240.489C127.45 233.559 132.73 225.999 138.46 218.189C144.19 210.379 149.79 203.059 155.31 196.719C157.861 193.657 160.705 190.85 163.8 188.339C164.17 188.049 164.58 187.819 164.97 187.559C165.36 187.299 165.78 187.129 166.18 186.909C166.97 186.479 167.77 186.099 168.56 185.739C170.13 184.999 171.66 184.349 173.14 183.739C177.814 181.925 182.588 180.383 187.44 179.119C189.16 178.659 190.5 178.349 191.44 178.119L192.44 177.899C192.552 177.875 192.666 177.862 192.78 177.859Z" fill="#263238"/>
<path d="M184.92 348.789C184.38 348.538 183.862 348.244 183.37 347.909C182.37 347.329 181 346.419 179.32 345.249C170.581 339.096 162.949 331.505 156.75 322.799C155.57 321.129 154.65 319.749 154.06 318.799C153.73 318.304 153.436 317.786 153.18 317.249C153.552 317.697 153.887 318.176 154.18 318.679C154.82 319.629 155.78 320.969 157 322.609C163.33 331.153 170.912 338.694 179.49 344.979C181.13 346.189 182.49 347.139 183.43 347.769C183.95 348.073 184.448 348.414 184.92 348.789Z" fill="#263238"/>
<g opacity="0.3">
<path d="M110.95 374.209L112.64 380.369L176.02 380.159L110.95 374.209Z" fill="black"/>
</g>
</svg>
