<svg width="1440" height="540" viewBox="0 0 1440 540" fill="none" xmlns="http://www.w3.org/2000/svg">
<rect width="1440" height="540" fill="#F0EFEF"/>
<path d="M919.34 467.754C921.095 467.854 922.84 468.081 924.563 468.432C927.767 468.94 932.266 469.634 937.119 470.281C941.972 470.928 946.487 471.421 949.707 471.821C951.461 471.936 953.206 472.168 954.929 472.515C953.173 472.621 951.41 472.58 949.66 472.391C946.41 472.176 941.957 471.775 937.011 471.113C932.066 470.45 927.644 469.68 924.455 469.048C922.717 468.757 921.007 468.324 919.34 467.754Z" fill="#E0E0E0"/>
<path d="M685.373 458.602C687.91 459.732 690.335 461.099 692.614 462.685C695.033 464.053 697.314 465.653 699.424 467.461C694.462 464.975 689.755 462.008 685.373 458.602Z" fill="#EB996E"/>
<path d="M683.849 463.64C686.809 464.572 689.685 465.752 692.446 467.168C695.3 468.328 698.052 469.725 700.673 471.344C697.711 470.422 694.835 469.247 692.076 467.831C689.216 466.677 686.463 465.275 683.849 463.64Z" fill="#EB996E"/>
<path d="M686.621 475.672C690.535 475.658 694.433 476.176 698.207 477.213C694.293 477.224 690.396 476.706 686.621 475.672Z" fill="#EB996E"/>
<path d="M818.134 459.141C817.444 459.289 816.743 459.381 816.039 459.418L810.184 459.927L789.94 461.467L790.186 460.805L799.06 469.124L808.042 477.598L808.69 478.214H807.796L787.659 479.324L781.836 479.57C781.138 479.631 780.437 479.631 779.74 479.57C780.426 479.434 781.122 479.352 781.82 479.324L787.628 478.846L807.75 477.459L807.519 478.122L798.506 469.664L789.662 461.313L789.015 460.712H789.893L810.153 459.495L816.023 459.202C816.724 459.128 817.43 459.108 818.134 459.141Z" fill="#E0E0E0"/>
<path d="M493.05 480.68C514.373 463.224 517.131 433.889 514.111 407.975C513.603 403.646 513.711 399.039 511.307 395.403C508.904 391.767 503.82 389.564 500.03 391.721C496.948 393.508 495.777 397.375 494.206 400.626C492.093 404.993 488.793 408.678 484.685 411.257C482.004 412.921 478.614 414.076 475.718 412.798C471.758 411.041 470.896 405.911 470.572 401.597C469.956 393.555 469.35 385.507 468.754 377.454C468.653 373.117 467.851 368.825 466.381 364.744C464.687 360.769 461.374 357.21 457.137 356.409C452.9 355.608 447.893 358.381 447.4 362.679C447.38 364.482 447.483 366.283 447.708 368.072C447.796 368.966 447.621 369.866 447.205 370.662C446.789 371.458 446.15 372.116 445.366 372.555C443.672 373.202 441.823 372.124 440.406 371.014C435.537 367.039 432.009 361.678 428.696 356.332C425.384 350.986 422.133 345.547 417.65 341.079C413.166 336.611 407.189 333.376 400.903 333.53C394.617 333.684 388.254 338.075 387.175 344.314C386.097 350.554 390.179 356.409 394.493 361C400.918 367.782 408.287 373.604 416.371 378.286C417.92 378.977 419.21 380.142 420.053 381.614C421.239 384.418 418.713 387.5 415.924 388.686C412.75 390.026 409.176 389.98 405.802 390.658C402.428 391.336 398.853 393.123 397.821 396.405C396.404 401.027 400.517 405.279 404.431 408.006C412.317 413.467 421.075 417.546 430.329 420.07C433.642 420.963 437.108 421.703 439.882 423.721C442.655 425.739 444.504 429.483 443.225 432.657C441.946 435.831 437.971 437.125 434.551 436.786C431.131 436.447 427.972 434.891 424.66 433.966C418.497 432.225 410.794 433.273 407.312 438.712C406.282 440.566 405.702 442.636 405.62 444.756C405.537 446.875 405.953 448.985 406.834 450.914C408.628 454.751 411.174 458.188 414.322 461.021C424.809 471.552 437.895 479.122 452.253 482.96C466.582 486.581 479.6 486.812 493.05 480.68Z" fill="#EBEBEB"/>
<path d="M494.914 499.923C492.7 487.972 489.33 476.264 484.854 464.965C479.322 451.162 472.989 437.694 465.888 424.63L460.326 414.338C458.508 410.949 456.705 407.59 454.733 404.416C450.954 398.332 446.839 392.464 442.408 386.837C438.202 381.429 433.996 376.437 430.083 371.815C426.169 367.193 422.379 362.956 418.728 359.228C413.046 353.334 406.911 347.894 400.378 342.958C398.067 341.202 396.219 339.877 394.971 339.045L393.538 338.059C393.374 337.947 393.204 337.844 393.029 337.751C393.029 337.751 393.183 337.89 393.491 338.121L394.894 339.153C396.126 340.047 397.975 341.372 400.224 343.159C406.682 348.159 412.754 353.639 418.389 359.552C421.979 363.28 425.738 367.532 429.682 372.17C433.626 376.807 437.786 381.799 442.007 387.207C446.437 392.824 450.552 398.682 454.333 404.755C456.29 407.913 458.077 411.257 459.895 414.646L465.41 424.953C472.453 437.999 478.759 451.429 484.299 465.18C488.781 476.44 492.186 488.098 494.467 500" fill="#E0E0E0"/>
<path d="M454.611 404.34C454.756 403.723 454.838 403.093 454.858 402.46C454.981 401.258 455.104 399.487 455.227 397.314C455.489 392.969 455.643 386.961 455.797 380.367C455.951 373.773 456.198 367.733 456.552 363.419C456.706 361.247 456.876 359.506 456.999 358.289C457.089 357.666 457.13 357.038 457.122 356.409C456.932 357.011 456.803 357.63 456.737 358.258C456.537 359.46 456.306 361.216 456.09 363.373C455.613 367.718 455.289 373.726 455.135 380.321C454.981 386.915 454.873 392.846 454.781 397.268C454.704 399.348 454.657 401.089 454.611 402.414C454.549 403.054 454.549 403.699 454.611 404.34Z" fill="#E0E0E0"/>
<path d="M397.559 398.608H398.144H399.823C401.272 398.608 403.367 398.608 405.986 398.685C411.178 398.793 418.312 399.193 426.246 400.01C434.18 400.827 441.237 401.874 446.352 402.783C448.909 403.23 450.974 403.631 452.407 403.908L454.04 404.231C454.425 404.231 454.625 404.324 454.625 404.231C454.452 404.14 454.264 404.077 454.071 404.047L452.453 403.6C451.051 403.245 448.986 402.768 446.429 402.275C441.329 401.243 434.211 400.118 426.308 399.286C418.404 398.454 411.209 398.146 405.986 398.161C403.382 398.161 401.364 398.161 399.823 398.3L398.159 398.408C397.95 398.442 397.747 398.51 397.559 398.608Z" fill="#E0E0E0"/>
<path d="M484.146 463.979C484.267 463.746 484.37 463.504 484.454 463.255C484.669 462.716 484.916 462.023 485.239 461.175C485.917 459.357 486.78 456.692 487.92 453.472C490.093 446.893 492.82 437.711 495.716 427.527C498.612 417.343 501.247 408.16 503.312 401.551C504.344 398.316 505.176 395.666 505.792 393.724C506.069 392.862 506.285 392.184 506.455 391.598C506.549 391.355 506.616 391.102 506.655 390.843C506.517 391.065 506.409 391.303 506.331 391.552C506.131 392.107 505.869 392.8 505.546 393.647C504.868 395.465 504.005 398.115 502.88 401.351C500.692 407.929 497.965 417.112 495.084 427.296C492.203 437.48 489.6 446.693 487.473 453.271C486.457 456.507 485.609 459.157 485.008 461.083C484.731 461.961 484.515 462.623 484.33 463.224C484.244 463.469 484.182 463.722 484.146 463.979Z" fill="#E0E0E0"/>
<path d="M407.512 446.369C407.75 446.483 408.005 446.561 408.267 446.6L410.501 447.124L418.728 449.003C425.661 450.544 435.213 452.901 445.767 455.489C456.32 458.078 465.888 460.327 472.852 461.806C476.334 462.546 479.153 463.116 481.11 463.47L483.359 463.871C483.622 463.931 483.891 463.967 484.16 463.979C483.916 463.866 483.656 463.789 483.39 463.747L481.156 463.224L472.944 461.344C466.011 459.803 456.459 457.446 445.921 454.858C435.383 452.269 425.8 450.02 418.836 448.541C415.354 447.801 412.534 447.231 410.578 446.877L408.313 446.461C408.049 446.408 407.781 446.377 407.512 446.369Z" fill="#E0E0E0"/>
<path d="M695.448 40.4375L584.057 73.9414L606.64 149.024L718.031 115.52L695.448 40.4375Z" fill="white"/>
<path d="M718.051 115.447C718.051 115.447 717.882 114.969 717.605 114.076C717.327 113.182 716.911 111.826 716.372 110.101C715.309 106.619 713.737 101.519 711.75 95.0176C707.775 81.9681 702.09 63.2488 695.157 40.4622L695.557 40.6779L584.197 74.3109L584.475 73.8025L607.03 148.895L606.568 148.649L686.806 124.691L709.778 117.897L715.941 116.094L717.481 115.632L718.036 115.493L717.543 115.663L716.002 116.156L709.963 118.004L687.13 124.984L606.768 149.342L606.414 149.45L606.306 149.095C599.419 126.216 591.747 100.78 583.689 74.0182L583.581 73.633L583.951 73.5251L695.357 40.0924L695.665 40L695.758 40.3081C702.583 63.218 708.176 82.0297 712.089 95.1409C713.999 101.643 715.509 106.727 716.526 110.224C717.035 111.919 717.404 113.228 717.682 114.153C717.959 115.077 718.051 115.447 718.051 115.447Z" fill="#E0E0E0"/>
<path d="M695.464 40.416C695.423 40.5335 695.372 40.6469 695.31 40.7549L694.786 41.7102C694.278 42.5884 693.585 43.8055 692.722 45.3462L684.941 58.7038L658.842 102.967L658.657 103.26L658.349 103.137L654.944 101.827L604.765 82.2454L589.589 76.2367L585.491 74.5574L584.428 74.1106C584.3 74.0682 584.181 74.0058 584.073 73.9257C584.207 73.9373 584.338 73.9739 584.458 74.0336L585.537 74.4033L589.712 75.944L604.965 81.7216L655.222 101.072L658.642 102.397L658.149 102.567C668.472 85.2343 677.746 69.7043 684.464 58.4111L692.46 45.1921C693.384 43.6514 694.124 42.4959 694.648 41.6177L695.248 40.7087C695.372 40.5084 695.449 40.4006 695.464 40.416Z" fill="#E0E0E0"/>
<path d="M1019.59 340.386C1019.59 340.386 1012.37 333.237 998.285 351.094C990.902 360.133 984.124 369.649 977.994 379.581C977.994 379.581 974.481 383.217 972.17 379.92C969.859 376.623 967.471 368.118 962.325 368.55C957.18 368.981 954.221 374.281 953.528 382.739C952.835 391.198 950.662 409.701 950.447 411.365C950.231 413.029 948.906 415.201 946.919 413.214C944.931 411.226 934.932 394.31 927.152 399.517C919.371 404.725 921.343 428.667 921.513 431.271C921.682 433.874 920.974 434.86 919.679 435.23C918.385 435.6 915.535 429.591 912.469 424.892C909.403 420.193 905.043 415.248 900.822 418.652C896.6 422.057 892.117 438.805 902.778 469.572L908.648 483.438L923.67 485.58C956.132 488.183 971.231 479.663 973.465 474.718C975.698 469.772 969.844 466.783 964.513 464.996C959.182 463.209 952.65 461.915 952.696 460.605C952.742 459.296 953.497 458.34 956.07 457.847C958.643 457.354 982.262 453.225 985.343 444.428C988.424 435.631 969.551 430.115 967.132 428.729C964.713 427.342 966.501 425.447 968.041 424.846C969.582 424.245 986.961 417.482 994.988 414.708C1003.01 411.935 1007.44 407.899 1006.53 402.629C1005.62 397.36 996.821 397.376 993.046 395.943C989.272 394.51 991.922 390.227 991.922 390.227C1000.04 381.826 1007.59 372.896 1014.52 363.496C1028.28 345.378 1019.32 340.093 1019.32 340.093" fill="#EBEBEB"/>
<path d="M1006.9 356.285C1006.83 356.422 1006.75 356.551 1006.65 356.671L1005.86 357.78C1005.13 358.766 1004.09 360.168 1002.78 361.955C1000.09 365.576 996.159 370.783 991.259 377.192C981.476 390.011 967.795 407.605 952.604 426.956L913.748 476.582L902.023 491.665L898.819 495.748L897.971 496.795C897.771 497.026 897.678 497.15 897.663 497.134C897.732 496.998 897.815 496.869 897.91 496.749L898.695 495.655L901.777 491.464C904.457 487.844 908.402 482.636 913.286 476.227C923.069 463.409 936.765 445.814 951.972 426.463C967.178 407.112 980.844 389.579 990.812 376.838C995.727 370.506 999.733 365.375 1002.54 361.77C1003.89 360.029 1004.97 358.689 1005.73 357.672L1006.59 356.624C1006.77 356.393 1006.88 356.27 1006.9 356.285Z" fill="#E0E0E0"/>
<path d="M965.191 380.582C965.526 381.903 965.717 383.256 965.761 384.619C965.992 387.114 966.192 390.581 966.331 394.417C966.47 398.254 966.531 401.427 966.608 404.216C966.722 405.569 966.722 406.93 966.608 408.283C966.275 406.963 966.089 405.609 966.054 404.247C965.854 401.736 965.684 398.269 965.545 394.448C965.407 390.627 965.314 387.438 965.206 384.649C965.084 383.297 965.079 381.936 965.191 380.582Z" fill="#E0E0E0"/>
<path d="M967.902 408.823C973.174 407.972 978.486 407.391 983.818 407.082C992.615 406.358 999.779 405.942 999.794 406.158C994.522 407 989.21 407.576 983.879 407.883C975.082 408.623 967.933 409.039 967.902 408.823Z" fill="#E0E0E0"/>
<path d="M942.343 438.527C943.725 438.633 945.096 438.855 946.441 439.189C948.968 439.667 952.434 440.329 956.286 440.946C960.138 441.562 963.635 442.024 966.177 442.348C967.564 442.458 968.939 442.68 970.291 443.01C968.905 443.129 967.51 443.098 966.131 442.918C963.558 442.733 959.968 442.363 956.163 441.731C952.357 441.1 948.814 440.36 946.318 439.744C944.953 439.482 943.62 439.074 942.343 438.527Z" fill="#E0E0E0"/>
<path d="M934.27 413.538C934.909 414.655 935.426 415.837 935.81 417.066C936.627 419.3 937.721 422.381 938.892 425.801C940.062 429.222 941.049 432.334 941.742 434.614C942.176 435.819 942.496 437.062 942.697 438.327C942.048 437.21 941.531 436.02 941.156 434.784C940.324 432.565 939.246 429.484 938.075 426.063C936.904 422.643 935.918 419.515 935.225 417.251C934.772 416.051 934.452 414.806 934.27 413.538Z" fill="#E0E0E0"/>
<path d="M908.371 436.894C909.113 438.358 909.741 439.878 910.251 441.439C911.314 444.289 912.731 448.233 914.256 452.608C915.782 456.984 917.107 460.959 918.047 463.84C918.626 465.381 919.074 466.969 919.387 468.585C918.632 467.1 918.004 465.554 917.507 463.963C916.444 461.128 915.027 457.184 913.502 452.809C911.976 448.433 910.636 444.458 909.711 441.562C909.135 440.046 908.686 438.484 908.371 436.894Z" fill="#E0E0E0"/>
<path d="M951.586 188.802L947.936 308.288L1035.25 310.955L1038.9 191.47L951.586 188.802Z" fill="#F5F5F5"/>
<path d="M935.512 204.686L931.861 324.171L1019.18 326.839L1022.83 207.354L935.512 204.686Z" fill="white"/>
<path d="M1019.16 326.813C1019.15 326.618 1019.15 326.422 1019.16 326.227C1019.16 325.827 1019.16 325.272 1019.16 324.548C1019.16 323.007 1019.24 320.85 1019.32 318.015C1019.47 312.299 1019.68 303.995 1019.96 293.472C1020.56 272.442 1021.41 242.63 1022.41 207.333L1022.77 207.703L935.456 205.068L935.872 204.683C934.47 249.363 933.191 290.637 932.143 324.163L931.82 323.824L995.234 325.934L1012.87 326.551L1017.5 326.736L1019.11 326.813H1017.57L1012.95 326.705L995.388 326.258L931.774 324.486H931.45V324.163C932.452 290.622 933.684 249.301 935.025 204.668V204.267H935.441L1022.74 206.979H1023.11V207.348C1021.95 242.784 1020.98 272.642 1020.29 293.719C1019.93 304.195 1019.64 312.484 1019.45 318.169C1019.35 320.973 1019.27 323.13 1019.21 324.625C1019.21 325.333 1019.21 325.888 1019.13 326.273C1019.05 326.658 1019.16 326.813 1019.16 326.813Z" fill="#E0E0E0"/>
<path d="M988.779 232.323C988.779 232.554 979.273 232.43 967.564 232.076C955.855 231.722 946.349 231.244 946.349 231.028C946.349 230.813 955.87 230.921 967.579 231.275C979.288 231.629 988.779 232.107 988.779 232.323Z" fill="#E0E0E0"/>
<path d="M1011.33 243.416C1011.33 243.632 996.697 243.416 978.641 242.815C960.584 242.214 945.947 241.629 945.963 241.413C945.978 241.197 960.599 241.413 978.671 242.014C996.744 242.615 1011.35 243.185 1011.33 243.416Z" fill="#E0E0E0"/>
<path d="M1011.01 254.247C1011.01 254.462 996.359 254.247 978.302 253.646C960.245 253.045 945.624 252.459 945.624 252.244C945.624 252.028 960.276 252.244 978.333 252.845C996.389 253.445 1011.01 254.016 1011.01 254.247Z" fill="#E0E0E0"/>
<path d="M1010.67 265.077C1010.67 265.293 996.035 265.077 977.979 264.476C959.922 263.875 945.301 263.29 945.301 263.074C945.301 262.859 959.953 263.074 978.009 263.675C996.066 264.276 1010.69 264.892 1010.67 265.077Z" fill="#E0E0E0"/>
<path d="M1010.35 275.909C1010.35 276.124 995.696 275.909 977.655 275.308C959.614 274.707 944.962 274.122 944.962 273.906C944.962 273.69 959.614 273.906 977.671 274.507C995.727 275.108 1010.35 275.678 1010.35 275.909Z" fill="#E0E0E0"/>
<path d="M1010.03 286.739C1010.03 286.955 995.373 286.739 977.316 286.138C959.26 285.538 944.639 284.952 944.639 284.736C944.639 284.521 959.29 284.736 977.347 285.337C995.404 285.938 1010.03 286.462 1010.03 286.739Z" fill="#E0E0E0"/>
<path d="M1009.69 297.571C1009.69 297.787 995.035 297.571 976.993 296.97C958.952 296.369 944.3 295.784 944.315 295.568C944.331 295.352 958.952 295.568 977.009 296.169C995.065 296.77 1009.7 297.34 1009.69 297.571Z" fill="#E0E0E0"/>
<path d="M979.118 307.477C979.118 307.693 971.246 307.631 961.539 307.338C951.833 307.046 943.976 306.614 943.976 306.399C943.976 306.183 951.848 306.245 961.555 306.537C971.261 306.83 979.118 307.246 979.118 307.477Z" fill="#E0E0E0"/>
<path d="M760.533 95.3668L733.212 163.988L819.038 198.16L846.36 129.539L760.533 95.3668Z" fill="white"/>
<path d="M846.344 129.544L845.928 129.39L844.726 128.928L840.104 127.079L822.494 120.069L760.466 95.4183L760.651 95.3412L733.35 163.948L733.258 163.732L819.074 197.935H818.904C827.162 177.259 834.018 160.127 838.794 148.156C841.198 142.178 843.077 137.479 844.356 134.29L845.897 130.638L846.405 129.375L845.928 130.623C845.604 131.455 845.127 132.672 844.495 134.259C843.232 137.463 841.414 142.162 839.01 148.125C834.249 160.111 827.424 177.29 819.212 198.012V198.135H819.089L733.15 164.132H732.996V163.978C742.872 139.204 752.193 115.786 760.328 95.3721V95.2334H760.451L822.633 120.069L840.15 127.095L844.772 128.943L845.959 129.421L846.344 129.544Z" fill="#E0E0E0"/>
<path d="M761.706 100.941L737.827 160.916L817.627 192.689L841.507 132.713L761.706 100.941Z" fill="#EBEBEB"/>
<path d="M738.142 161.097L780.865 134.906L788.845 165.103L805.515 157.307L817.949 192.866L738.142 161.097Z" fill="#E0E0E0"/>
<path d="M807.271 140.098C806.777 141.341 805.924 142.409 804.822 143.168C803.72 143.927 802.417 144.341 801.079 144.36C799.741 144.378 798.428 143.999 797.305 143.27C796.183 142.542 795.302 141.497 794.773 140.267C794.245 139.038 794.093 137.68 794.337 136.364C794.581 135.048 795.209 133.834 796.143 132.876C797.077 131.918 798.274 131.258 799.583 130.98C800.892 130.703 802.254 130.819 803.497 131.316C804.322 131.643 805.075 132.131 805.711 132.75C806.348 133.369 806.856 134.107 807.207 134.923C807.558 135.739 807.744 136.616 807.755 137.504C807.766 138.392 807.602 139.273 807.271 140.098Z" fill="#E0E0E0"/>
<path d="M539.594 235.404C540.174 235.644 540.802 235.744 541.427 235.697C542.177 235.611 542.874 235.268 543.399 234.726C544.009 233.883 544.55 232.991 545.017 232.061L555.016 214.621L558.344 208.858L560.116 205.777C560.424 205.286 560.692 204.771 560.917 204.236C561.079 203.704 561.079 203.136 560.917 202.603C560.778 202.055 560.471 201.565 560.039 201.201C559.545 200.852 559.03 200.533 558.498 200.246L555.062 198.336L547.913 194.33L516.083 176.473C515.455 176.138 514.725 176.046 514.034 176.217C513.342 176.388 512.739 176.808 512.339 177.398L509.951 181.496C508.41 184.208 506.87 186.904 505.329 189.538L496.393 204.806C496.039 205.407 495.684 206.008 495.345 206.609C495.002 207.13 494.825 207.742 494.837 208.365C494.861 208.974 495.083 209.558 495.469 210.029C495.906 210.483 496.43 210.844 497.009 211.092L503.742 214.913L515.79 221.754L533.231 231.722L537.961 234.464L539.178 235.189C539.455 235.358 539.594 235.45 539.578 235.466L539.147 235.266L537.884 234.603L533.092 231.984L515.513 222.247L503.465 215.422L496.717 211.647C496.063 211.358 495.471 210.945 494.976 210.43C494.494 209.835 494.219 209.1 494.19 208.335C494.157 207.572 494.362 206.819 494.775 206.178C495.114 205.577 495.469 204.976 495.823 204.375L504.651 189.138L509.273 181.095L511.692 176.951C512.202 176.195 512.974 175.655 513.86 175.436C514.745 175.217 515.68 175.334 516.484 175.765L548.283 193.683L555.432 197.719L558.837 199.661C559.425 199.959 559.991 200.299 560.532 200.677C561.069 201.136 561.451 201.749 561.625 202.434C561.81 203.089 561.81 203.782 561.625 204.437C561.38 205.02 561.086 205.582 560.747 206.116L558.945 209.197L555.586 214.944C551.287 222.216 547.806 228.117 545.371 232.261C544.866 233.193 544.289 234.084 543.646 234.927C543.072 235.489 542.32 235.832 541.52 235.897C541.035 235.933 540.55 235.854 540.102 235.666C539.921 235.603 539.75 235.515 539.594 235.404Z" fill="#E0E0E0"/>
<path d="M531.46 203.82L535.342 210.707L527.331 210.861L519.319 211L523.448 203.959L527.577 196.918L531.46 203.82Z" fill="#E0E0E0"/>
<path d="M558.637 399.686L512.124 352.958L535.512 310.004C558.899 280.053 608.416 281.979 608.416 281.979C632.845 280.318 657.387 281.825 681.429 286.462C720.763 294.166 717.589 320.141 717.589 320.141L722.858 416.541L728.512 495.039L583.457 497.966L558.637 399.748" fill="#FF931E"/>
<path d="M636.78 493.376L506.855 494.916C499.697 495 492.636 493.262 486.335 489.867C480.033 486.473 474.698 481.532 470.83 475.509C466.962 469.486 464.689 462.579 464.223 455.436C463.758 448.294 465.115 441.15 468.168 434.676L523.725 331.651L574.336 365.854L539.81 437.449L644.976 439.329L636.78 493.376Z" fill="#FF931E"/>
<path d="M712.998 304.427L817.256 465.397L756.43 469.372C756.43 469.372 720.101 412.135 720.917 413.306C722.365 415.463 712.998 304.427 712.998 304.427Z" fill="#FF931E"/>
<path d="M571.718 375.113C571.721 374.83 571.768 374.55 571.856 374.281C572.01 373.665 572.18 372.894 572.411 371.939C572.889 369.921 573.597 366.993 574.321 363.357C575.045 359.721 575.862 355.346 576.37 350.477C576.996 345.201 576.996 339.869 576.37 334.593C575.535 329.361 573.71 324.336 570.994 319.787C568.811 316.042 566.228 312.545 563.29 309.357C561.31 307.178 559.201 305.12 556.973 303.194C556.124 302.53 555.312 301.82 554.539 301.068C554.79 301.192 555.027 301.342 555.248 301.515C555.679 301.838 556.372 302.285 557.174 302.947C559.49 304.777 561.673 306.769 563.706 308.91C566.743 312.074 569.41 315.573 571.656 319.34C574.468 323.96 576.352 329.083 577.202 334.424C577.812 339.765 577.771 345.161 577.079 350.493C576.559 354.831 575.818 359.14 574.861 363.404C574.059 367.055 573.32 369.967 572.688 371.97C572.411 372.971 572.164 373.742 571.995 374.265C571.93 374.556 571.837 374.84 571.718 375.113Z" fill="#263238"/>
<path d="M567.527 380.66C567.304 381.462 567.005 382.241 566.633 382.986C566.017 384.527 565.092 386.591 563.906 389.149C561.549 394.372 558.206 401.551 554.354 409.409C550.502 417.266 546.866 424.307 544.17 429.437C542.814 431.964 541.705 434.06 540.919 435.4C540.544 436.146 540.111 436.862 539.625 437.541C539.902 436.755 540.242 435.993 540.642 435.261C541.428 433.721 542.444 431.656 543.723 429.176L553.691 409.147C557.466 401.336 560.902 394.279 563.459 388.995C564.661 386.514 565.647 384.45 566.417 382.832C566.726 382.078 567.097 381.351 567.527 380.66Z" fill="#263238"/>
<path d="M636.78 493.375C636.78 493.375 636.78 493.283 636.78 493.114C636.78 492.944 636.78 492.636 636.78 492.312C636.857 491.573 636.965 490.541 637.089 489.231C637.397 486.489 637.828 482.591 638.367 477.676C639.507 467.708 641.14 453.688 642.989 437.156L643.359 437.557H604.981L537.946 437.449L517.609 437.326L512.078 437.249H510.63H510.137C510.3 437.229 510.466 437.229 510.63 437.249H512.078L517.609 437.172L537.946 437.048L605.089 436.94H643.467H643.883V437.341C641.849 453.857 640.139 467.877 638.907 477.83C638.29 482.729 637.782 486.627 637.366 489.37C637.202 490.664 637.063 491.691 636.95 492.451L636.827 493.237C636.811 493.283 636.796 493.375 636.78 493.375Z" fill="#263238"/>
<path d="M540.719 438.589C539.788 437.561 538.924 436.475 538.131 435.338C533.978 430.125 528.837 425.785 523.001 422.566C521.755 421.963 520.541 421.294 519.365 420.563C520.733 420.883 522.046 421.402 523.263 422.104C529.341 425.106 534.597 429.543 538.577 435.03C539.452 436.112 540.173 437.309 540.719 438.589Z" fill="#263238"/>
<path d="M725.015 448.788C724.902 448.349 724.83 447.9 724.799 447.448C724.691 446.508 724.553 445.229 724.368 443.611C724.013 440.284 723.536 435.461 723.027 429.499C721.964 417.559 720.747 401.043 719.669 382.801C718.59 364.559 717.835 348.012 717.404 336.041C717.188 330.048 717.034 325.257 716.973 321.852C716.973 320.234 716.973 318.955 716.896 318C716.872 317.554 716.872 317.106 716.896 316.66C716.981 317.102 717.027 317.55 717.034 318C717.034 318.94 717.157 320.234 717.25 321.852C717.419 325.272 717.65 330.094 717.943 336.011C718.513 347.982 719.361 364.498 720.439 382.755C721.518 401.012 722.658 417.497 723.52 429.453C723.983 435.353 724.352 440.237 724.614 443.596C724.738 445.137 724.83 446.493 724.907 447.432C724.984 447.88 725.02 448.334 725.015 448.788Z" fill="#263238"/>
<path d="M609.032 361.201C609.039 360.494 609.096 359.789 609.202 359.09C609.387 357.626 609.618 355.67 609.91 353.266C610.588 348.182 611.451 341.218 612.591 333.145L613.177 333.515L603.208 340.494L593.071 347.55L592.347 348.059L592.47 347.181C593.702 339.184 594.75 332.282 595.551 327.152C595.952 324.795 596.26 322.853 596.507 321.405C596.589 320.711 596.734 320.025 596.938 319.356C596.939 320.059 596.877 320.76 596.753 321.451C596.568 322.899 596.337 324.841 596.029 327.229C595.336 332.282 594.365 339.2 593.256 347.258L592.67 346.888L602.792 339.801L612.776 332.852L613.5 332.344L613.377 333.222C612.191 341.264 611.158 348.228 610.419 353.251C610.034 355.639 609.726 357.596 609.494 359.044C609.405 359.775 609.25 360.497 609.032 361.201Z" fill="#E0E0E0"/>
<path d="M667.024 367.44C666.469 366.998 665.953 366.509 665.483 365.977C664.482 364.898 663.126 363.465 661.462 361.709L647.704 346.795L648.366 346.564C648.043 350.339 647.704 354.437 647.349 358.689C646.995 362.942 646.625 367.163 646.302 371.015L646.225 371.908L645.639 371.246L632.251 356.147L628.43 351.741C627.944 351.237 627.51 350.684 627.136 350.092C627.69 350.564 628.205 351.079 628.676 351.633L632.651 355.885L646.24 370.784L645.578 371.015C645.901 367.178 646.24 363.019 646.61 358.689C646.98 354.36 647.319 350.339 647.642 346.564L647.719 345.686L648.305 346.333L661.863 361.447L665.73 365.869C666.202 366.358 666.634 366.884 667.024 367.44Z" fill="#E0E0E0"/>
<path d="M696.204 365.375C695.917 366.025 695.566 366.644 695.157 367.224L692.075 372.185L681.075 389.256L680.705 388.671L692.661 386.606L704.832 384.557L705.71 384.403L705.294 385.065L694.047 401.797L690.658 406.635C690.281 407.227 689.859 407.788 689.394 408.314C689.699 407.683 690.049 407.076 690.442 406.496L693.523 401.566L704.539 384.619L704.924 385.204L692.753 387.315L680.751 389.348L679.873 389.487L680.366 388.763L691.598 371.816L694.895 366.962C695.299 366.408 695.736 365.878 696.204 365.375Z" fill="#E0E0E0"/>
<path d="M657.395 395.234C657.105 395.878 656.755 396.492 656.347 397.068L653.266 402.044L642.281 419.099L641.896 418.514L653.882 416.449L666.069 414.385L666.947 414.246L666.439 414.97L655.192 431.718L651.879 436.525C651.512 437.118 651.089 437.675 650.616 438.188C650.924 437.56 651.274 436.952 651.664 436.37C652.465 435.138 653.513 433.489 654.745 431.456L665.761 414.508L666.146 415.094L653.975 417.204L641.973 419.223L641.095 419.377L641.588 418.637L652.819 401.69C654.175 399.687 655.284 398.054 656.132 396.837C656.514 396.273 656.936 395.737 657.395 395.234Z" fill="#E0E0E0"/>
<path d="M741.253 365.037C740.947 365.672 740.597 366.285 740.205 366.871L737.124 371.847L726.139 388.902L725.754 388.317L737.74 386.252L749.927 384.188L750.805 384.049L750.312 384.773L739.05 401.52C737.694 403.492 736.585 405.11 735.737 406.312C735.373 406.912 734.949 407.474 734.474 407.991C734.785 407.361 735.14 406.753 735.537 406.173L738.618 401.258L749.634 384.311L750.019 384.896L737.848 386.992L725.846 389.025L724.983 389.18L725.461 388.44L736.693 371.493L740.005 366.639C740.368 366.066 740.786 365.529 741.253 365.037Z" fill="#E0E0E0"/>
<path d="M789.631 442.595C789.08 442.176 788.565 441.712 788.09 441.208L783.869 437.141L769.371 422.936L770.018 422.674C769.895 426.464 769.771 430.562 769.633 434.83C769.494 439.097 769.325 443.334 769.186 447.155V448.049L768.554 447.417L754.442 433.012L750.405 428.806C749.904 428.329 749.44 427.814 749.019 427.265C749.567 427.687 750.082 428.15 750.559 428.652L754.75 432.704L769.078 446.909L768.416 447.171C768.539 443.319 768.678 439.159 768.816 434.845C768.955 430.531 769.124 426.479 769.263 422.689V421.811L769.879 422.427L784.161 436.848L788.244 441.069C788.748 441.538 789.212 442.049 789.631 442.595Z" fill="#E0E0E0"/>
<path d="M544.895 340.293C544.593 340.931 544.243 341.544 543.847 342.127L540.766 347.103L529.781 364.174L529.395 363.588L541.382 361.509L553.569 359.459L554.447 359.305L553.954 360.045L542.691 376.777L539.394 381.584C539.02 382.172 538.598 382.729 538.131 383.248C538.426 382.617 538.777 382.014 539.179 381.445L542.26 376.515C545.049 372.247 548.869 366.393 553.276 359.567L553.661 360.153L541.49 362.264L529.488 364.297L528.625 364.436L529.103 363.712C533.617 356.933 537.499 351.078 540.334 346.764L543.647 341.911C544.019 341.34 544.437 340.799 544.895 340.293Z" fill="#E0E0E0"/>
<path d="M483.977 455.505C484.496 455.974 484.97 456.49 485.394 457.046L489.153 461.56L501.925 477.321L501.248 477.506C501.802 473.762 502.388 469.695 503.019 465.458C503.651 461.221 504.267 457.046 504.837 453.241L504.961 452.362L505.515 453.071L517.933 468.971L521.461 473.593C521.91 474.128 522.312 474.7 522.663 475.303C522.157 474.826 521.688 474.311 521.261 473.762L517.563 469.264L505.007 453.533L505.685 453.364C505.13 457.169 504.529 461.298 503.898 465.581C503.266 469.864 502.665 473.87 502.095 477.614L501.972 478.492L501.417 477.799L488.845 461.868L485.255 457.246C484.79 456.695 484.363 456.114 483.977 455.505Z" fill="#E0E0E0"/>
<path d="M623.099 380.906C622.409 381.054 621.708 381.147 621.003 381.183L615.149 381.692L594.904 383.232L595.151 382.585L604.025 390.905L613.007 399.379L613.654 399.995H612.761L592.624 401.104L586.8 401.351C586.103 401.411 585.402 401.411 584.705 401.351C585.391 401.213 586.086 401.126 586.785 401.089L592.593 400.627L612.715 399.24L612.483 399.887L603.471 391.444L594.627 383.094L593.98 382.477H594.858L615.118 381.26L620.973 380.968C621.679 380.893 622.389 380.873 623.099 380.906Z" fill="#E0E0E0"/>
<path d="M588.957 458.556C589.471 459.039 589.955 459.554 590.405 460.096L594.242 464.534L607.353 480.033L606.675 480.218C607.152 476.458 607.676 472.391 608.215 468.154C608.755 463.917 609.309 459.711 609.756 455.906L609.879 455.012L610.434 455.706L623.191 471.343L626.811 475.965C627.26 476.502 627.672 477.068 628.044 477.66C627.524 477.187 627.045 476.672 626.611 476.12L622.821 471.698L609.879 456.291L610.542 456.091C610.064 459.912 609.54 464.041 609.001 468.339C608.462 472.638 607.923 476.659 607.461 480.418L607.337 481.296L606.783 480.618L593.887 464.934L590.22 460.312C589.742 459.77 589.319 459.181 588.957 458.556Z" fill="#E0E0E0"/>
<path d="M527.932 401.612C527.242 401.764 526.541 401.857 525.836 401.89L519.997 402.383L499.753 403.923L499.984 403.261L508.873 411.596L517.856 420.07L518.503 420.686H517.609L497.472 421.795L491.649 422.042C490.967 422.1 490.281 422.1 489.6 422.042C490.284 421.894 490.98 421.807 491.68 421.78L497.488 421.318L517.609 419.916L517.378 420.578L508.365 412.135L499.506 403.785L498.874 403.168H499.753L520.013 401.936L525.867 401.659C526.553 401.592 527.243 401.576 527.932 401.612Z" fill="#E0E0E0"/>
<path d="M580.36 456.815C579.671 456.961 578.97 457.049 578.265 457.077L572.411 457.585L552.166 459.126L552.413 458.464L561.287 466.799L570.269 475.272L570.916 475.889H570.038L549.886 476.983L544.062 477.244C543.365 477.305 542.664 477.305 541.967 477.244C542.651 477.097 543.347 477.009 544.047 476.983L549.855 476.52L569.976 475.118L569.745 475.781L560.732 467.338L551.889 459.018L551.242 458.417H552.12L572.38 457.185L578.25 456.908C578.949 456.813 579.656 456.782 580.36 456.815Z" fill="#E0E0E0"/>
<path d="M698.7 316.366C698.01 316.514 697.31 316.607 696.605 316.644L690.75 317.137L670.521 318.677L670.752 318.03L679.627 326.35L688.609 334.824L689.256 335.44H688.378L668.226 336.549L662.402 336.796C661.705 336.856 661.004 336.856 660.307 336.796C660.991 336.648 661.687 336.561 662.387 336.534L668.195 336.072L688.332 334.685L688.085 335.332L679.103 326.905L670.259 318.554L669.612 317.938H670.491L690.75 316.705L696.62 316.428C697.311 316.355 698.006 316.335 698.7 316.366Z" fill="#E0E0E0"/>
<path d="M641.141 456.815C641.141 456.815 667.055 449.343 675.637 447.155C678.98 446.307 693.293 453.857 703.184 460.143C703.184 460.143 716.803 468.216 715.71 470.696C714.492 473.439 709.547 472.884 701.458 469.156C701.458 469.156 704.262 477.275 698.762 477.09C698.762 477.09 701.489 485.872 696.343 486.781C691.197 487.69 689.996 476.489 685.466 475.888C680.936 475.288 671.6 474.671 671.6 474.671C671.6 474.671 663.789 487.613 657.734 488.537C651.679 489.462 637.705 487.813 637.705 487.813L641.141 456.815Z" fill="#FFBE9D"/>
<path d="M607.415 189.4C607.72 190.398 607.725 191.464 607.428 192.465C607.131 193.466 606.546 194.357 605.746 195.028C604.945 195.698 603.965 196.118 602.928 196.235C601.891 196.352 600.842 196.161 599.912 195.686C596.399 193.914 595.953 189.061 596.646 185.194C597.339 181.327 598.649 177.182 597.031 173.592C595.783 170.85 593.087 169.109 590.992 166.952C589.143 165.077 587.753 162.799 586.933 160.297C586.112 157.795 585.882 155.137 586.262 152.531C586.706 149.933 587.859 147.508 589.593 145.524C591.328 143.539 593.576 142.072 596.091 141.284C601.253 139.852 607.616 141.438 611.498 137.695C614.287 134.983 614.456 130.561 616.613 127.326C619.956 122.303 627.028 121.502 633.006 122.319C638.984 123.135 645.054 125.061 650.909 123.597C655.793 122.38 659.798 118.975 664.39 116.88C669.393 114.593 674.987 113.926 680.388 114.974C685.789 116.022 690.728 118.732 694.514 122.725C698.299 126.717 700.742 131.793 701.501 137.242C702.26 142.692 701.297 148.242 698.747 153.117C697.046 156.684 694.152 159.546 690.566 161.205" fill="#263238"/>
<path d="M637.149 316.675C641.078 316.668 644.967 315.88 648.589 314.359C652.211 312.837 655.495 310.612 658.251 307.811C661.007 305.011 663.18 301.692 664.643 298.046C666.106 294.399 666.832 290.499 666.777 286.571L666.391 258.253C666.391 258.253 690.18 255.865 691.751 232.293C693.323 208.72 692.198 154.319 692.198 154.319C679.109 147.826 664.525 144.941 649.949 145.962C635.374 146.983 621.334 151.873 609.279 160.127L605.643 162.639L607.414 287.341C607.508 295.161 610.683 302.629 616.251 308.122C621.818 313.614 629.328 316.688 637.149 316.675Z" fill="#FFBE9D"/>
<path d="M685.975 197.103C685.114 197.004 684.321 196.592 683.744 195.946C683.168 195.299 682.85 194.464 682.85 193.598C682.85 192.732 683.168 191.896 683.744 191.25C684.321 190.604 685.114 190.192 685.975 190.093C686.162 190.047 686.357 190.047 686.545 190.093C687.405 190.192 688.199 190.604 688.775 191.25C689.351 191.896 689.67 192.732 689.67 193.598C689.67 194.464 689.351 195.299 688.775 195.946C688.199 196.592 687.405 197.004 686.545 197.103C686.356 197.134 686.163 197.134 685.975 197.103Z" fill="#263238"/>
<path d="M690.596 189.492C690.211 189.893 687.993 187.952 684.742 187.782C681.491 187.613 679.041 189.138 678.718 188.707C678.394 188.275 678.949 187.798 680.027 187.074C681.468 186.149 683.168 185.711 684.877 185.825C686.585 185.939 688.212 186.598 689.518 187.705C690.488 188.568 690.797 189.4 690.596 189.492Z" fill="#263238"/>
<path d="M653.018 190.294C653.577 190.681 654.009 191.225 654.258 191.857C654.508 192.489 654.564 193.182 654.42 193.846C654.276 194.51 653.939 195.117 653.45 195.59C652.961 196.062 652.342 196.378 651.673 196.499C651.004 196.62 650.315 196.54 649.691 196.268C649.068 195.997 648.539 195.547 648.172 194.975C647.804 194.403 647.615 193.735 647.628 193.055C647.64 192.375 647.854 191.714 648.242 191.156C648.762 190.409 649.557 189.899 650.452 189.737C651.347 189.576 652.27 189.776 653.018 190.294Z" fill="#263238"/>
<path d="M655.161 190.432C654.761 190.832 652.542 188.891 649.307 188.722C646.071 188.552 643.606 190.077 643.267 189.646C643.098 189.446 643.514 188.737 644.577 188.013C646.018 187.088 647.718 186.651 649.426 186.764C651.135 186.878 652.761 187.537 654.067 188.645C655.038 189.507 655.346 190.262 655.161 190.432Z" fill="#263238"/>
<path d="M666.777 217.948C666.777 217.702 668.796 217.394 672.093 217.116C672.94 217.116 673.633 216.916 673.71 216.469C673.772 215.62 673.608 214.769 673.233 214.004C672.509 211.801 671.784 209.583 671.014 207.256C667.933 197.658 665.915 189.754 666.392 189.6C666.87 189.446 669.735 197.103 672.771 206.701C673.479 209.043 674.173 211.323 674.835 213.48C675.324 214.602 675.422 215.856 675.112 217.039C674.975 217.359 674.763 217.642 674.496 217.864C674.228 218.086 673.911 218.242 673.572 218.318C673.092 218.425 672.599 218.462 672.108 218.426C668.78 218.364 666.777 218.21 666.777 217.948Z" fill="#263238"/>
<path d="M655.993 220.968C660.945 223.51 666.222 225.36 671.677 226.468C670.481 228.111 668.764 229.3 666.806 229.843C664.848 230.386 662.763 230.25 660.892 229.457C653.944 226.483 655.993 220.968 655.993 220.968Z" fill="white"/>
<path d="M666.484 257.914C655.578 257.525 645.034 253.899 636.194 247.499C636.194 247.499 642.542 264.862 666.191 264.03L666.484 257.914Z" fill="#EB996E"/>
<path d="M692.399 160.281C692.399 160.281 678.148 167.523 659.275 158.556C646.949 152.67 632.513 149.943 629.401 152.486C626.289 155.028 625.873 167.661 613.794 171.59C613.794 171.59 615.103 195.717 605.459 195.039C595.814 194.361 601.114 156.877 601.114 156.877L624.425 144.921L650.015 139.575L674.281 142.517L693.108 147.278L692.399 160.281Z" fill="#263238"/>
<path d="M607.215 187.289C606.83 187.088 591.269 181.604 590.915 197.765C590.561 213.927 606.845 210.953 606.876 210.491C606.907 210.029 607.215 187.289 607.215 187.289Z" fill="#FFBE9D"/>
<path d="M602.069 204.252C602.069 204.252 601.776 204.452 601.298 204.652C600.622 204.927 599.864 204.927 599.188 204.652C597.493 203.99 596.106 201.247 596.106 198.335C596.104 196.947 596.404 195.575 596.984 194.314C597.15 193.814 597.434 193.361 597.812 192.993C598.191 192.626 598.652 192.355 599.157 192.204C599.483 192.144 599.819 192.192 600.116 192.339C600.413 192.486 600.655 192.725 600.805 193.02C601.006 193.467 600.898 193.79 600.975 193.821C601.052 193.852 601.329 193.559 601.221 192.897C601.137 192.494 600.92 192.13 600.605 191.865C600.169 191.522 599.616 191.361 599.064 191.418C598.397 191.533 597.771 191.817 597.245 192.243C596.719 192.669 596.311 193.223 596.06 193.852C595.348 195.239 594.979 196.776 594.981 198.335C594.981 201.586 596.615 204.683 598.926 205.407C599.358 205.539 599.814 205.574 600.261 205.51C600.708 205.447 601.136 205.285 601.514 205.037C602.069 204.652 602.069 204.282 602.069 204.252Z" fill="#EB996E"/>
<path d="M598.987 136.708C600.831 136.167 602.8 136.238 604.6 136.91C606.4 137.583 607.933 138.82 608.971 140.437C607.534 139.349 605.985 138.419 604.349 137.663C602.6 137.159 600.803 136.839 598.987 136.708Z" fill="#263238"/>
<path d="M608.709 127.033C609.002 127.033 608.555 130.438 609.11 134.475C609.59 136.901 610.35 139.264 611.375 141.516C611.375 141.516 610.697 140.946 610.019 139.744C609.149 138.144 608.575 136.401 608.324 134.598C607.875 132.08 608.007 129.493 608.709 127.033Z" fill="#263238"/>
<path d="M675.097 181.696C675.005 181.511 675.698 180.941 677.008 180.418C680.484 179.073 684.343 179.112 687.792 180.525C689.086 181.08 689.78 181.65 689.687 181.835C689.487 182.266 686.375 181.049 682.384 181.049C678.394 181.049 675.282 182.174 675.097 181.696Z" fill="#263238"/>
<path d="M639.045 178.337C638.953 178.152 639.646 177.598 640.956 177.058C642.68 176.392 644.515 176.063 646.364 176.088C648.22 176.087 650.057 176.454 651.771 177.166C653.065 177.721 653.743 178.291 653.666 178.491C653.589 178.692 650.354 177.705 646.348 177.69C642.342 177.675 639.261 178.769 639.045 178.337Z" fill="#263238"/>
<path d="M672.308 184.285C672.343 184.602 672.343 184.922 672.308 185.24C672.308 185.918 672.308 186.781 672.385 187.844C672.462 188.907 672.385 190.34 672.478 191.88C672.42 193.658 672.681 195.432 673.248 197.119C673.991 199.306 675.277 201.269 676.985 202.823C678.694 204.378 680.769 205.474 683.016 206.008C684.305 206.323 685.636 206.438 686.96 206.347C688.338 206.285 689.696 205.999 690.981 205.5C693.722 204.473 696.057 202.587 697.637 200.123C699.133 197.77 699.884 195.021 699.794 192.235C699.794 189.477 699.794 186.827 699.794 184.285L700.164 184.654L680.135 184.47L674.327 184.362H672.786H672.216C672.876 184.288 673.54 184.258 674.203 184.269L679.919 184.161L700.164 183.977H700.672V184.362C700.672 186.904 700.672 189.554 700.672 192.312C700.776 195.25 699.986 198.151 698.407 200.631C696.732 203.24 694.256 205.235 691.351 206.316C689.986 206.841 688.544 207.137 687.083 207.195C685.69 207.277 684.293 207.147 682.939 206.809C680.582 206.24 678.412 205.073 676.636 203.422C674.861 201.77 673.54 199.69 672.801 197.38C672.248 195.618 672.018 193.77 672.123 191.926C672.123 190.386 672.123 188.953 672.2 187.782C672.277 186.611 672.2 185.887 672.278 185.209C672.263 184.901 672.273 184.592 672.308 184.285Z" fill="#263238"/>
<path d="M634.546 183.483C634.546 183.483 634.546 183.838 634.546 184.439V187.042C634.546 188.182 634.546 189.538 634.623 191.094C634.583 192.871 634.843 194.642 635.394 196.333C636.103 198.361 637.268 200.201 638.799 201.71C640.566 203.427 642.764 204.636 645.162 205.207C647.812 205.846 650.594 205.668 653.142 204.698C655.875 203.673 658.204 201.792 659.783 199.337C661.284 196.986 662.041 194.237 661.955 191.449C661.955 188.691 661.955 186.026 661.955 183.483L662.325 183.853L642.296 183.668L636.503 183.576H634.962H634.392C635.047 183.503 635.706 183.472 636.364 183.483L642.08 183.391L662.325 183.206H662.694V183.576C662.694 186.118 662.694 188.783 662.694 191.541C662.787 194.48 661.993 197.38 660.414 199.861C658.74 202.46 656.27 204.449 653.373 205.53C652.008 206.053 650.567 206.35 649.106 206.409C647.708 206.491 646.305 206.361 644.946 206.023C642.428 205.404 640.127 204.109 638.29 202.28C636.701 200.683 635.508 198.736 634.808 196.595C634.255 194.832 634.025 192.985 634.13 191.141C634.13 189.6 634.13 188.167 634.223 186.996C634.315 185.825 634.223 185.101 634.223 184.423C634.279 184.094 634.388 183.777 634.546 183.483Z" fill="#263238"/>
<path d="M672.647 185.41C669.124 185.944 665.54 185.944 662.017 185.41C665.538 184.855 669.125 184.855 672.647 185.41Z" fill="#263238"/>
<path d="M605.15 185.61C610.049 185.201 614.965 185.052 619.879 185.163C624.797 185.024 629.718 185.142 634.624 185.517C629.726 185.945 624.809 186.094 619.895 185.964C614.977 186.121 610.055 186.003 605.15 185.61Z" fill="#263238"/>
<path d="M763.64 476.351C767.102 482.777 772.345 488.066 778.741 491.583C785.136 495.101 792.411 496.697 799.691 496.179C808.293 495.577 816.432 492.06 822.765 486.209C829.098 480.358 833.247 472.522 834.526 463.995L843.462 361.709L807.672 352.866L793.051 432.981C793.051 432.981 785.409 466.552 763.64 476.351Z" fill="#FFBE9D"/>
<path d="M807.349 360.276L808.535 342.327C808.535 342.327 813.604 302.054 813.604 298.11C813.604 293.58 815.776 292.471 817.455 292.594C820.059 292.764 821.908 295.984 822.078 299.882C822.078 301.222 821.954 322.514 821.954 322.514C823.185 320.502 824.56 318.582 826.068 316.768C829.149 312.777 836.606 310.497 844.202 310.744C851.797 310.99 853.877 311.73 853.923 314.672C853.896 315.235 853.744 315.784 853.478 316.28C853.211 316.776 852.837 317.205 852.383 317.538C850.981 318.707 849.199 319.32 847.375 319.264C835.219 319.048 831.969 325.534 831.969 325.534L831.815 327.891C831.815 327.891 839.194 322.607 845.08 324.81C845.949 325.132 846.745 325.624 847.422 326.258C849.079 326.265 850.705 326.705 852.14 327.534C853.575 328.363 854.768 329.553 855.601 330.985C856.434 332.418 856.878 334.043 856.889 335.701C856.9 337.358 856.478 338.989 855.664 340.432C855.347 341.173 854.811 341.799 854.128 342.226C853.445 342.653 852.648 342.86 851.843 342.82C851.029 342.576 850.291 342.125 849.702 341.511C849.357 341.218 848.991 340.95 848.608 340.71L847.252 347.227C847.252 347.227 843.416 361.709 842.461 368.211" fill="#FFBE9D"/>
<path d="M810.846 358.874C813.065 359.491 815.36 357.858 816.562 355.886C817.764 353.913 818.272 351.587 819.32 349.523C822.494 343.36 830.105 340.433 833.016 334.116C833.417 333.238 833.633 332.036 832.862 331.45C832.092 330.865 831.137 331.343 830.351 331.774L810.322 342.867" fill="#FFBE9D"/>
<path d="M810.307 342.836C810.93 342.283 811.618 341.807 812.356 341.419C813.712 340.571 815.699 339.4 818.164 337.967L826.869 332.991L829.38 331.574C830.316 330.834 831.508 330.496 832.693 330.634C833.059 330.752 833.38 330.979 833.614 331.285C833.848 331.59 833.983 331.96 834.002 332.344C834.042 332.977 833.931 333.611 833.679 334.193C833.215 335.221 832.637 336.192 831.953 337.089C829.18 340.694 825.59 342.959 823.002 345.594C821.743 346.786 820.673 348.163 819.828 349.677C819.073 351.094 818.595 352.573 818.01 353.914C817.65 355.032 817.05 356.059 816.252 356.921C815.453 357.783 814.476 358.461 813.388 358.905C811.739 359.398 810.815 358.905 810.877 358.813C811.675 358.837 812.47 358.707 813.218 358.428C814.182 357.936 815.033 357.249 815.717 356.411C816.402 355.573 816.904 354.602 817.193 353.559C817.687 352.067 818.258 350.601 818.904 349.168C819.754 347.528 820.862 346.035 822.185 344.746C824.835 341.973 828.348 339.647 830.936 336.304C831.546 335.496 832.063 334.623 832.477 333.7C832.862 332.822 832.801 331.943 832.308 331.851C831.814 331.759 830.844 332.175 829.996 332.652L827.439 334.039L818.611 338.846C816.084 340.186 813.989 341.234 812.602 341.927C811.884 342.337 811.111 342.643 810.307 342.836Z" fill="#EB996E"/>
<path d="M831.537 328.06C831.673 326.602 832.154 325.198 832.939 323.962C833.852 322.694 835.148 321.754 836.637 321.281C838.501 320.668 840.452 320.356 842.414 320.357C844.429 320.377 846.442 320.201 848.423 319.833C850.083 319.494 851.624 318.724 852.891 317.599C853.312 317.21 853.639 316.731 853.847 316.197C854.055 315.663 854.139 315.089 854.093 314.518C854.07 314.098 853.932 313.692 853.692 313.347C853.615 313.347 853.692 313.793 853.769 314.533C853.762 315.049 853.642 315.558 853.419 316.024C853.195 316.489 852.873 316.901 852.475 317.229C851.243 318.199 849.795 318.854 848.253 319.14C846.314 319.458 844.349 319.603 842.383 319.571C840.347 319.549 838.322 319.866 836.39 320.511C834.775 321.073 833.393 322.157 832.462 323.592C831.858 324.558 831.508 325.66 831.445 326.797C831.357 327.218 831.389 327.656 831.537 328.06Z" fill="#EB996E"/>
<path d="M821.969 298.372C821.838 299.781 821.838 301.2 821.969 302.609C821.969 305.505 821.969 308.972 822.077 312.793C822.185 316.614 822.077 320.08 822.077 322.977C821.985 324.389 822.015 325.807 822.169 327.214C822.506 325.832 822.677 324.414 822.678 322.992C822.863 320.388 822.986 316.829 822.971 312.793C822.955 308.756 822.801 305.182 822.616 302.578C822.552 301.157 822.335 299.747 821.969 298.372Z" fill="#EB996E"/>
<path d="M836.344 332.79C836.775 332.687 837.189 332.526 837.577 332.313C838.079 332.056 838.63 331.909 839.193 331.883C839.757 331.856 840.319 331.95 840.843 332.159C841.165 332.333 841.436 332.588 841.631 332.899C841.825 333.209 841.936 333.564 841.953 333.93C842.002 334.849 841.934 335.771 841.752 336.673C841.497 337.806 841.679 338.995 842.261 340.001C842.629 340.517 843.114 340.94 843.676 341.235C844.238 341.529 844.862 341.687 845.496 341.695C846.12 341.691 846.736 341.56 847.308 341.312C847.88 341.063 848.396 340.701 848.824 340.247C849.627 339.441 850.165 338.409 850.365 337.289C850.606 335.477 850.58 333.639 850.288 331.835C850.128 330.615 849.758 329.431 849.194 328.338C848.762 327.567 848.362 327.275 848.331 327.305C848.3 327.336 848.577 327.721 848.901 328.476C849.324 329.584 849.588 330.746 849.687 331.927C849.889 333.664 849.863 335.42 849.61 337.15C849.414 338.13 848.905 339.02 848.161 339.687C847.417 340.353 846.476 340.761 845.481 340.848C844.979 340.845 844.486 340.725 844.039 340.498C843.593 340.27 843.205 339.942 842.908 339.538C842.442 338.693 842.295 337.71 842.492 336.765C842.663 335.794 842.705 334.804 842.615 333.822C842.57 333.353 842.405 332.904 842.135 332.518C841.865 332.132 841.5 331.822 841.074 331.619C840.475 331.391 839.83 331.308 839.193 331.378C838.555 331.448 837.943 331.668 837.408 332.02C836.683 332.451 836.252 332.682 836.344 332.79Z" fill="#EB996E"/>
<path d="M848.47 339.601C848.362 340.003 848.406 340.43 848.593 340.802C848.81 341.331 849.144 341.803 849.572 342.182C849.999 342.561 850.507 342.838 851.058 342.99C851.888 343.168 852.75 343.129 853.56 342.875C854.37 342.621 855.1 342.162 855.68 341.542C857.069 340.016 857.814 338.012 857.76 335.949C857.76 333.911 857.124 331.924 855.942 330.264C854.977 328.91 853.661 327.845 852.136 327.183C851.136 326.731 850.059 326.475 848.963 326.428C848.192 326.428 847.776 326.428 847.776 326.551C849.198 326.734 850.585 327.129 851.89 327.722C853.258 328.401 854.434 329.413 855.31 330.665C856.334 332.218 856.871 334.042 856.851 335.903C856.902 337.751 856.265 339.552 855.064 340.956C854.576 341.509 853.954 341.928 853.258 342.174C852.563 342.419 851.816 342.483 851.089 342.358C850.604 342.25 850.148 342.038 849.752 341.738C849.355 341.437 849.029 341.055 848.793 340.617C848.578 340.032 848.577 339.601 848.47 339.601Z" fill="#EB996E"/>
<path d="M833.833 353.836C833.171 353.627 832.461 353.627 831.799 353.836C830.065 354.216 828.505 355.158 827.362 356.517L828.071 356.733C827.977 355.779 827.823 354.832 827.609 353.898C826.995 350.586 825.475 347.508 823.218 345.008C824.727 347.898 825.925 350.94 826.792 354.083C827.008 355.038 827.162 355.963 827.27 356.825L827.393 357.781L827.994 357.026C829.016 355.766 830.38 354.83 831.923 354.329C833.078 353.975 833.833 353.944 833.833 353.836Z" fill="#EB996E"/>
<path d="M834.218 317.615C834.018 317.707 834.834 319.156 836.714 320.034C838.594 320.912 840.257 320.404 840.18 320.188C840.103 319.972 838.64 319.988 837.099 319.263C835.558 318.539 834.418 317.461 834.218 317.615Z" fill="#EB996E"/>
<path d="M801.186 371.893L846.158 375.113C846.158 375.113 839.24 454.689 837.9 467.029C836.56 479.37 828.656 497.982 801.186 497.982C773.715 497.982 768.6 488.63 756.383 469.371C770.788 459.388 793.667 429.576 793.667 429.576L801.186 371.893Z" fill="#FF931E"/>
<path d="M822.385 382.601C822.154 383.271 821.876 383.925 821.553 384.557L819.042 389.857L810.168 408.176L809.721 407.637L821.384 404.17L833.232 400.688L834.094 400.442L833.678 401.227L824.434 419.176L821.707 424.338C821.406 424.968 821.05 425.571 820.644 426.14C820.88 425.481 821.158 424.838 821.476 424.214C822.123 422.889 823.017 421.133 824.003 418.961L832.954 400.888L833.401 401.428L821.569 404.94L809.89 408.361L809.043 408.607L809.444 407.821L818.641 389.688C819.766 387.546 820.675 385.79 821.353 384.48C821.644 383.826 821.989 383.197 822.385 382.601Z" fill="#E0E0E0"/>
<path d="M770.495 365.391L719.36 491.85H627.15V497.566H901.807L957.995 365.391H770.495Z" fill="#263238"/>
<path d="M848.669 440.052C846.82 446.415 841.428 450.436 836.621 449.05C831.814 447.663 829.426 441.346 831.275 434.983C833.124 428.62 838.531 424.599 843.338 425.986C848.145 427.373 850.533 433.689 848.669 440.052Z" fill="#FAFAFA"/>
</svg>
