<svg width="95" height="130" viewBox="0 0 95 130" fill="none" xmlns="http://www.w3.org/2000/svg">
<path d="M85.216 8.98488H69.0056C68.1245 6.37646 65.6559 4.49244 62.7538 4.49244H55.8983C53.8178 1.69449 50.522 0 47.0302 0C43.5388 0 40.2427 1.69449 38.1619 4.49244H31.3067C28.4046 4.49244 25.936 6.37646 25.0549 8.98488H8.84449C3.96767 8.98488 0 12.9525 0 17.8294V121.156C0 126.032 3.96767 130 8.84449 130H85.216C90.0928 130 94.0605 126.032 94.0605 121.156V17.8294C94.0605 12.9525 90.0928 8.98488 85.216 8.98488ZM31.3067 24.4276H62.7538C64.7257 24.4276 66.4971 23.557 67.707 22.1814H80.8639V116.803H13.1965V22.1814H26.3535C27.5634 23.557 29.3348 24.4276 31.3067 24.4276ZM31.3067 8.7041H39.2914C40.0411 8.7041 40.7344 8.30568 41.1114 7.65765C42.3674 5.49987 44.5799 4.21166 47.0302 4.21166C49.4809 4.21166 51.6931 5.49987 52.9487 7.65736C53.3258 8.3054 54.0193 8.7041 54.7687 8.7041H62.7538C64.0698 8.7041 65.1404 9.77471 65.1404 11.0907V17.8294C65.1404 19.1454 64.0698 20.216 62.7538 20.216H31.3067C29.9907 20.216 28.9201 19.1454 28.9201 17.8294V11.0907C28.9201 9.77471 29.9907 8.7041 31.3067 8.7041ZM89.8488 121.156C89.8488 123.71 87.7705 125.788 85.216 125.788H8.84449C6.28998 125.788 4.21166 123.71 4.21166 121.156V17.8294C4.21166 15.2749 6.28998 13.1965 8.84449 13.1965H24.7084V17.8294C24.7084 17.8765 24.7109 17.9229 24.7121 17.9698H11.0907C9.92745 17.9698 8.98488 18.9126 8.98488 20.0756V118.909C8.98488 120.072 9.92745 121.015 11.0907 121.015H82.9698C84.133 121.015 85.0756 120.072 85.0756 118.909V20.0756C85.0756 18.9126 84.133 17.9698 82.9698 17.9698H69.3484C69.3495 17.9229 69.352 17.8765 69.352 17.8294V13.1965H85.216C87.7705 13.1965 89.8488 15.2749 89.8488 17.8294V121.156Z" fill="#6A3D88"/>
<path d="M47.0301 13.1965C47.5858 13.1965 48.128 12.9719 48.5183 12.5788C48.9114 12.1885 49.136 11.6438 49.136 11.0907C49.136 10.5376 48.9114 9.99285 48.5183 9.60257C48.128 9.20949 47.5861 8.98486 47.0301 8.98486C46.4742 8.98486 45.9323 9.20949 45.542 9.60257C45.1489 9.99285 44.9243 10.5348 44.9243 11.0907C44.9243 11.6466 45.1489 12.1885 45.542 12.5788C45.9323 12.9719 46.4742 13.1965 47.0301 13.1965Z" fill="#6A3D88"/>
<path d="M33.5531 44.6438H71.7388C72.9021 44.6438 73.8447 43.7009 73.8447 42.538C73.8447 41.375 72.9021 40.4321 71.7388 40.4321H33.5531C32.3898 40.4321 31.4473 41.375 31.4473 42.538C31.4473 43.7009 32.3898 44.6438 33.5531 44.6438Z" fill="#6A3D88"/>
<path d="M33.5531 67.1057H71.7388C72.9021 67.1057 73.8447 66.1629 73.8447 64.9999C73.8447 63.8369 72.9021 62.894 71.7388 62.894H33.5531C32.3898 62.894 31.4473 63.8369 31.4473 64.9999C31.4473 66.1629 32.3898 67.1057 33.5531 67.1057Z" fill="#6A3D88"/>
<path d="M33.5531 89.5681H40.2918C41.455 89.5681 42.3976 88.6253 42.3976 87.4623C42.3976 86.2993 41.455 85.3564 40.2918 85.3564H33.5531C32.3898 85.3564 31.4473 86.2993 31.4473 87.4623C31.4473 88.6253 32.3898 89.5681 33.5531 89.5681Z" fill="#6A3D88"/>
<path d="M33.5531 55.8747H71.7388C72.9021 55.8747 73.8447 54.9319 73.8447 53.7689C73.8447 52.6059 72.9021 51.6631 71.7388 51.6631H33.5531C32.3898 51.6631 31.4473 52.6059 31.4473 53.7689C31.4473 54.9319 32.3898 55.8747 33.5531 55.8747Z" fill="#6A3D88"/>
<path d="M33.5531 78.3372H42.538C43.7012 78.3372 44.6438 77.3943 44.6438 76.2313C44.6438 75.0683 43.7012 74.1255 42.538 74.1255H33.5531C32.3898 74.1255 31.4473 75.0683 31.4473 76.2313C31.4473 77.3943 32.3898 78.3372 33.5531 78.3372Z" fill="#6A3D88"/>
<path d="M33.5531 100.799H42.538C43.7012 100.799 44.6438 99.8562 44.6438 98.6932C44.6438 97.5303 43.7012 96.5874 42.538 96.5874H33.5531C32.3898 96.5874 31.4473 97.5303 31.4473 98.6932C31.4473 99.8562 32.3898 100.799 33.5531 100.799Z" fill="#6A3D88"/>
<path d="M22.3217 44.6438H24.5679C25.7311 44.6438 26.6737 43.7009 26.6737 42.538C26.6737 41.375 25.7311 40.4321 24.5679 40.4321H22.3217C21.1584 40.4321 20.2158 41.375 20.2158 42.538C20.2158 43.7009 21.1584 44.6438 22.3217 44.6438Z" fill="#6A3D88"/>
<path d="M22.3217 67.1057H24.5679C25.7311 67.1057 26.6737 66.1629 26.6737 64.9999C26.6737 63.8369 25.7311 62.894 24.5679 62.894H22.3217C21.1584 62.894 20.2158 63.8369 20.2158 64.9999C20.2158 66.1629 21.1584 67.1057 22.3217 67.1057Z" fill="#6A3D88"/>
<path d="M22.3217 89.5681H24.5679C25.7311 89.5681 26.6737 88.6253 26.6737 87.4623C26.6737 86.2993 25.7311 85.3564 24.5679 85.3564H22.3217C21.1584 85.3564 20.2158 86.2993 20.2158 87.4623C20.2158 88.6253 21.1584 89.5681 22.3217 89.5681Z" fill="#6A3D88"/>
<path d="M22.3217 55.8747H24.5679C25.7311 55.8747 26.6737 54.9319 26.6737 53.7689C26.6737 52.6059 25.7311 51.6631 24.5679 51.6631H22.3217C21.1584 51.6631 20.2158 52.6059 20.2158 53.7689C20.2158 54.9319 21.1584 55.8747 22.3217 55.8747Z" fill="#6A3D88"/>
<path d="M22.3217 78.3372H24.5679C25.7311 78.3372 26.6737 77.3943 26.6737 76.2313C26.6737 75.0683 25.7311 74.1255 24.5679 74.1255H22.3217C21.1584 74.1255 20.2158 75.0683 20.2158 76.2313C20.2158 77.3943 21.1584 78.3372 22.3217 78.3372Z" fill="#6A3D88"/>
<path d="M22.3217 100.799H24.5679C25.7311 100.799 26.6737 99.8562 26.6737 98.6932C26.6737 97.5303 25.7311 96.5874 24.5679 96.5874H22.3217C21.1584 96.5874 20.2158 97.5303 20.2158 98.6932C20.2158 99.8562 21.1584 100.799 22.3217 100.799Z" fill="#6A3D88"/>
<path d="M60.5078 74.1255C53.154 74.1255 47.1709 80.1086 47.1709 87.4624C47.1709 94.8163 53.154 100.799 60.5078 100.799C63.4793 100.799 66.2264 99.8217 68.446 98.1721C68.4668 98.1575 68.4895 98.1474 68.51 98.132C68.5661 98.0898 68.6192 98.0452 68.67 97.9989C71.815 95.557 73.8448 91.7434 73.8448 87.4624C73.8448 80.1086 67.8617 74.1255 60.5078 74.1255ZM58.402 78.5851V85.3566H51.6305C52.4237 82.0137 55.0591 79.3783 58.402 78.5851ZM51.6305 89.5683H59.4549L64.1492 95.8273C63.0329 96.3151 61.8019 96.5877 60.5078 96.5877C56.201 96.5877 52.584 93.5876 51.6305 89.5683ZM67.5169 93.2981L62.6137 86.7605V78.5851C66.633 79.5386 69.6331 83.1556 69.6331 87.4624C69.6331 89.68 68.8371 91.7151 67.5169 93.2981Z" fill="#6A3D88"/>
</svg>
