<svg width="131" height="114" viewBox="0 0 131 114" fill="none" xmlns="http://www.w3.org/2000/svg">
<path d="M111.941 0H4.2578C1.91003 0 0 1.91003 0 4.25781V30.6293C0 32.9771 1.91003 34.8871 4.2578 34.8871H111.941C114.289 34.8871 116.199 32.9771 116.199 30.6293V4.25781C116.199 1.91003 114.289 0 111.941 0ZM28.5691 30.7665H4.25806C4.18235 30.7665 4.12061 30.705 4.12061 30.6291V4.25755C4.12061 4.18184 4.18209 4.1201 4.25806 4.1201H28.5691V30.7665ZM112.078 30.6293C112.078 30.705 112.017 30.7668 111.941 30.7668H32.6895V4.12036H111.941C112.016 4.12036 112.078 4.18184 112.078 4.25781V30.6293Z" fill="#6A3D88"/>
<path d="M76.7809 10.9883H39.4215C38.2836 10.9883 37.3613 11.9108 37.3613 13.0485C37.3613 14.1861 38.2838 15.1086 39.4215 15.1086H76.7809C77.9188 15.1086 78.841 14.1861 78.841 13.0485C78.841 11.9108 77.9188 10.9883 76.7809 10.9883Z" fill="#6A3D88"/>
<path d="M103.147 19.7822H59.1949C58.0567 19.7822 57.1348 20.7047 57.1348 21.8424C57.1348 22.9801 58.0573 23.9026 59.1949 23.9026H103.147C104.285 23.9026 105.208 22.9801 105.208 21.8424C105.208 20.7047 104.285 19.7822 103.147 19.7822Z" fill="#6A3D88"/>
<path d="M50.4101 19.7822H39.4215C38.2836 19.7822 37.3613 20.7047 37.3613 21.8424C37.3613 22.9801 38.2838 23.9026 39.4215 23.9026H50.4101C51.5481 23.9026 52.4703 22.9801 52.4703 21.8424C52.4703 20.7047 51.5478 19.7822 50.4101 19.7822Z" fill="#6A3D88"/>
<path d="M16.3482 6.59131C12.1826 6.59131 8.79395 9.98023 8.79395 14.1456C8.79395 15.2835 9.71644 16.2057 10.8541 16.2057C11.9918 16.2057 12.9143 15.2832 12.9143 14.1456C12.9143 12.252 14.4547 10.7117 16.3482 10.7117C18.2417 10.7117 19.7821 12.2523 19.7821 14.1456C19.7821 16.0388 18.2417 17.5794 16.3482 17.5794C15.2103 17.5794 14.288 18.5019 14.288 19.6396C14.288 20.7773 15.2105 21.6998 16.3482 21.6998C20.5138 21.6998 23.9024 18.3111 23.9024 14.1456C23.9024 9.97997 20.5138 6.59131 16.3482 6.59131Z" fill="#6A3D88"/>
<path d="M16.368 24.1699H16.3461C15.2082 24.1699 14.2969 25.0924 14.2969 26.2301C14.2969 27.3678 15.2303 28.2903 16.3682 28.2903C17.5062 28.2903 18.4284 27.3678 18.4284 26.2301C18.4284 25.0924 17.5057 24.1699 16.368 24.1699Z" fill="#6A3D88"/>
<path d="M76.7809 50.5435H39.4215C38.2836 50.5435 37.3613 51.466 37.3613 52.6036C37.3613 53.7413 38.2838 54.6638 39.4215 54.6638H76.7809C77.9188 54.6638 78.841 53.7413 78.841 52.6036C78.841 51.466 77.9188 50.5435 76.7809 50.5435Z" fill="#6A3D88"/>
<path d="M96.5546 59.3379H59.1949C58.057 59.3379 57.1348 60.2604 57.1348 61.3981C57.1348 62.5357 58.0573 63.4582 59.1949 63.4582H96.5546C97.6925 63.4582 98.6148 62.5357 98.6148 61.3981C98.6148 60.2604 97.6923 59.3379 96.5546 59.3379Z" fill="#6A3D88"/>
<path d="M50.4101 59.3379H39.4215C38.2836 59.3379 37.3613 60.2604 37.3613 61.3981C37.3613 62.5357 38.2838 63.4582 39.4215 63.4582H50.4101C51.5481 63.4582 52.4703 62.5357 52.4703 61.3981C52.4703 60.2604 51.5478 59.3379 50.4101 59.3379Z" fill="#6A3D88"/>
<path d="M16.3482 46.147C12.1826 46.147 8.79395 49.5356 8.79395 53.7012C8.79395 54.8392 9.71644 55.7614 10.8541 55.7614C11.9918 55.7614 12.9143 54.8389 12.9143 53.7012C12.9143 51.8077 14.4547 50.2673 16.3482 50.2673C18.2417 50.2673 19.7821 51.8077 19.7821 53.7012C19.7821 55.5947 18.2417 57.1351 16.3482 57.1351C15.2103 57.1351 14.288 58.0576 14.288 59.1953C14.288 60.333 15.2105 61.2555 16.3482 61.2555C20.5138 61.2555 23.9024 57.8668 23.9024 53.7012C23.9024 49.5356 20.5138 46.147 16.3482 46.147Z" fill="#6A3D88"/>
<path d="M16.368 63.7349H16.3461C15.2082 63.7349 14.2969 64.6574 14.2969 65.795C14.2969 66.9327 15.2303 67.8552 16.3682 67.8552C17.5062 67.8552 18.4284 66.9327 18.4284 65.795C18.4284 64.6574 17.5057 63.7349 16.368 63.7349Z" fill="#6A3D88"/>
<path d="M76.7809 90.0986H39.4215C38.2836 90.0986 37.3613 91.0211 37.3613 92.1588C37.3613 93.2965 38.2838 94.219 39.4215 94.219H76.7809C77.9188 94.219 78.841 93.2965 78.841 92.1588C78.841 91.0211 77.9188 90.0986 76.7809 90.0986Z" fill="#6A3D88"/>
<path d="M98.7522 98.8936H59.1949C58.057 98.8936 57.1348 99.816 57.1348 100.954C57.1348 102.091 58.0573 103.014 59.1949 103.014H98.7522C99.8901 103.014 100.812 102.091 100.812 100.954C100.812 99.816 99.8899 98.8936 98.7522 98.8936Z" fill="#6A3D88"/>
<path d="M50.4101 98.8936H39.4215C38.2836 98.8936 37.3613 99.816 37.3613 100.954C37.3613 102.091 38.2838 103.014 39.4215 103.014H50.4101C51.5481 103.014 52.4703 102.091 52.4703 100.954C52.4703 99.816 51.5478 98.8936 50.4101 98.8936Z" fill="#6A3D88"/>
<path d="M16.3482 85.7109C12.1826 85.7109 8.79395 89.0996 8.79395 93.2652C8.79395 94.4031 9.71644 95.3254 10.8541 95.3254C11.9918 95.3254 12.9143 94.4029 12.9143 93.2652C12.9143 91.3717 14.4547 89.8313 16.3482 89.8313C18.2417 89.8313 19.7821 91.3717 19.7821 93.2652C19.7821 95.1587 18.2417 96.6991 16.3482 96.6991C15.2103 96.6991 14.288 97.6216 14.288 98.7593C14.288 99.8969 15.2105 100.819 16.3482 100.819C20.5138 100.819 23.9024 97.4308 23.9024 93.2652C23.9024 89.0999 20.5138 85.7109 16.3482 85.7109Z" fill="#6A3D88"/>
<path d="M16.368 103.29H16.3461C15.2082 103.29 14.2969 104.213 14.2969 105.35C14.2969 106.488 15.2303 107.41 16.3682 107.41C17.5062 107.41 18.4284 106.488 18.4284 105.35C18.4284 104.213 17.5057 103.29 16.368 103.29Z" fill="#6A3D88"/>
<path d="M129.991 84.6596C130.21 83.933 130.012 83.1447 129.476 82.6081L116.199 69.3311V43.813C116.199 41.4652 114.289 39.5552 111.941 39.5552H4.2578C1.91003 39.5552 0 41.4652 0 43.813V70.1845C0 72.5323 1.91003 74.4423 4.2578 74.4423H103.288V79.1122H4.2578C1.91003 79.1122 0 81.0222 0 83.3703V109.742C0 112.09 1.91003 114 4.2578 114H111.941C114.289 114 116.199 112.09 116.199 109.742V103.428L118.12 108.068C118.33 108.573 118.73 108.974 119.236 109.183C119.488 109.287 119.756 109.34 120.024 109.34C120.292 109.34 120.56 109.288 120.812 109.183L128.205 106.121C129.256 105.685 129.755 104.48 129.32 103.429L122.622 87.2594L128.427 86.0844C129.172 85.9337 129.772 85.3862 129.991 84.6596ZM28.5691 70.322H4.25806C4.18235 70.322 4.12061 70.2605 4.12061 70.1845V43.813C4.12061 43.7373 4.18209 43.6755 4.25806 43.6755H28.5691V70.322ZM32.6895 70.322V43.6758H111.941C112.017 43.6758 112.078 43.7373 112.078 43.8132V65.211L106.805 59.9375C106.216 59.348 105.329 59.172 104.56 59.4908C103.79 59.8097 103.288 60.5612 103.288 61.3942V70.3222L32.6895 70.322ZM28.5691 109.879H4.25806C4.18235 109.879 4.12061 109.817 4.12061 109.742V83.3703C4.12061 83.2945 4.18209 83.2328 4.25806 83.2328H28.5691V109.879ZM112.078 109.742C112.078 109.817 112.017 109.879 111.941 109.879H32.6895V83.2328H103.288V93.3998C103.288 94.1567 103.703 94.8528 104.369 95.2125C105.035 95.5723 105.845 95.538 106.478 95.1231L111.418 91.8851L112.078 93.4801V109.742ZM119.353 83.7168C118.749 83.839 118.232 84.2247 117.943 84.7681C117.653 85.3118 117.622 85.9558 117.858 86.5249L124.725 103.102L121.139 104.588L114.272 88.0102C114.038 87.4431 113.562 87.0104 112.976 86.8298C112.777 86.7686 112.573 86.7383 112.37 86.7383C111.973 86.7383 111.579 86.8529 111.24 87.0755L107.409 89.5866V66.3683L123.848 82.8075L119.353 83.7168Z" fill="#6A3D88"/>
</svg>
