<svg width="100" height="100" viewBox="0 0 100 100" fill="none" xmlns="http://www.w3.org/2000/svg">
<path d="M63.4797 81.3793H36.395C34.9934 81.3793 33.8558 82.5168 33.8558 83.9185V90.6896C33.8558 91.3905 34.1402 92.0269 34.6007 92.4874L41.3718 99.2586C41.8289 99.7156 42.462 100 43.1628 100C43.1662 100 43.1662 100 43.1696 100H56.7119C56.7119 100 56.7153 100 56.7187 100C57.4195 100 58.0526 99.7156 58.5131 99.2586L65.2842 92.4874C65.7413 92.0269 66.0257 91.3938 66.0257 90.693C66.0257 90.6896 66.0257 90.6896 66.0257 90.6863V83.9151C66.0257 82.5135 64.8881 81.3759 63.4865 81.3759L63.4797 81.3793ZM60.9405 89.6367L55.6556 94.9216H44.2157L38.9308 89.6367V86.4577H60.9371L60.9405 89.6367ZM80.2417 18.3126C74.0529 7.78007 63.0328 0.663574 50.3064 0.00338534L50.215 0H49.9881C37.2617 0.558621 26.2586 7.45506 20.002 17.5949L19.9106 17.754C16.1188 23.2082 13.8538 29.9726 13.8538 37.2651C13.8538 37.2854 13.8538 37.3024 13.8538 37.3227V37.3193C14.4463 44.7913 16.867 51.5963 20.6656 57.4195L20.564 57.2536C21.644 59.1123 22.7884 60.9439 23.9361 62.7755C26.2586 66.2017 28.4761 70.1391 30.3687 74.2594L30.582 74.7774C30.9781 75.7017 31.8787 76.3382 32.9248 76.3382C32.9282 76.3382 32.935 76.3382 32.9383 76.3382C33.2871 76.3382 33.6189 76.2637 33.9202 76.135L33.9032 76.1418C34.8275 75.7491 35.464 74.8485 35.464 73.799C35.464 73.4469 35.3929 73.1117 35.2609 72.8036L35.2676 72.8205C33.0399 67.8979 30.6971 63.7201 28.0394 59.7691L28.2392 60.084C27.1219 58.2998 26.0081 56.5156 24.9518 54.7009C21.6271 49.7444 19.4536 43.7587 18.9356 37.3058L18.9288 37.1771C18.9796 30.9442 20.9297 25.1786 24.2306 20.4185L24.1663 20.5166C29.5934 11.6159 39.0324 5.63023 49.9069 5.07838L49.9848 5.07499H50.1744C61.1944 5.72164 70.6402 11.8902 75.8439 20.8349L75.9251 20.9872C79.0094 25.6289 80.8444 31.3302 80.8444 37.4581C80.8444 37.6612 80.841 37.8644 80.8376 38.0675V38.037C80.0826 44.5509 77.8481 50.4249 74.4795 55.4796L74.5709 55.334C73.5924 56.9929 72.5666 58.6349 71.5408 60.2668C69.1573 63.8149 66.8314 67.9081 64.817 72.1773L64.5699 72.7562C64.4378 73.0508 64.3633 73.3995 64.3633 73.7617C64.3633 75.1634 65.5009 76.3009 66.9025 76.3009C67.9351 76.3009 68.8255 75.6847 69.2216 74.7977L69.2284 74.7808C71.3715 70.1967 73.5789 66.3236 76.0504 62.6435L75.8472 62.9651C76.8934 61.2926 77.9429 59.6134 78.9484 57.9138C82.6387 52.3513 85.1271 45.6851 85.8889 38.5042L85.9058 38.3113C85.916 38.0066 85.9227 37.6477 85.9227 37.2854C85.9227 30.2197 83.8 23.6517 80.1605 18.1806L80.2383 18.3059L80.2417 18.3126ZM45.4819 15.8445C45.0689 14.9575 44.1853 14.3549 43.1628 14.3549C42.787 14.3549 42.4281 14.4361 42.1065 14.5817L42.1234 14.5749C34.2824 19.1184 28.7131 26.8341 27.1456 35.9244L27.1185 36.1073C27.0982 36.2325 27.0847 36.3747 27.0847 36.5203C27.0847 37.7763 27.9954 38.8157 29.1905 39.0256L29.2041 39.029C29.3293 39.0493 29.4715 39.0629 29.6205 39.0629C29.6239 39.0629 29.6272 39.0629 29.6272 39.0629C30.8799 39.0629 31.9193 38.1555 32.1258 36.9604L32.1292 36.9469C33.4733 29.3903 37.9321 23.0761 44.1006 19.2741L44.2123 19.2098C45.0994 18.8035 45.7088 17.9199 45.7088 16.8975C45.7088 16.5183 45.6241 16.1594 45.4785 15.8378L45.4853 15.8547L45.4819 15.8445ZM1.40502 4.93618L14.9474 11.7073C15.2791 11.8766 15.6685 11.9748 16.0815 11.9748C17.4832 11.9748 18.6207 10.8373 18.6207 9.43562C18.6207 8.44703 18.0553 7.59048 17.2292 7.17067L17.2157 7.1639L3.67336 0.392728C3.34157 0.223448 2.95223 0.125266 2.53919 0.125266C1.13756 0.125266 0 1.26282 0 2.66445C0 3.65304 0.565393 4.5096 1.39148 4.92941L1.40502 4.93618ZM83.7932 11.9748C84.2062 11.9748 84.6024 11.8766 84.9477 11.7006L84.9342 11.7073L98.4765 4.93618C99.3161 4.5096 99.8781 3.65304 99.8781 2.66445C99.8781 1.26282 98.7406 0.125266 97.3389 0.125266C96.9259 0.125266 96.5332 0.223448 96.1878 0.399499L96.2014 0.392728L82.659 7.1639C81.8228 7.59048 81.2608 8.44703 81.2608 9.43224C81.2608 10.8339 82.395 11.9714 83.7966 11.9714L83.7932 11.9748ZM98.4731 68.1078L84.9308 61.3366C84.6024 61.1707 84.213 61.0726 83.8034 61.0726C82.4017 61.0726 81.2676 62.2101 81.2676 63.6084C81.2676 64.5902 81.8262 65.4433 82.6421 65.8632L82.6556 65.8699L96.198 72.6411C96.5264 72.8104 96.9157 72.9119 97.3288 72.9119C97.3322 72.9119 97.3322 72.9119 97.3355 72.9119C98.7372 72.9119 99.8747 71.7744 99.8747 70.3728C99.8747 69.3876 99.3127 68.531 98.49 68.1112L98.4765 68.1044L98.4731 68.1078ZM15.3096 61.3028L2.06182 67.4984C1.18834 67.9114 0.595863 68.7883 0.595863 69.8006C0.595863 71.2022 1.73342 72.3398 3.13505 72.3398C3.52439 72.3398 3.89342 72.2517 4.22521 72.096L4.20828 72.1028L17.4561 65.9072C18.3363 65.4941 18.9322 64.6173 18.9322 63.6016C18.9322 62.2 17.7946 61.0624 16.393 61.0624C15.9969 61.0624 15.6245 61.1538 15.2927 61.3129L15.3096 61.3028ZM2.53919 39.0595H5.92477C7.3264 39.0595 8.46396 37.9219 8.46396 36.5203C8.46396 35.1187 7.3264 33.9811 5.92477 33.9811H2.53919C1.13756 33.9811 0 35.1187 0 36.5203C0 37.9219 1.13756 39.0595 2.53919 39.0595ZM97.3355 33.9811H93.95C92.5483 33.9811 91.4108 35.1187 91.4108 36.5203C91.4108 37.9219 92.5483 39.0595 93.95 39.0595H97.3355C98.7372 39.0595 99.8747 37.9219 99.8747 36.5203C99.8747 35.1187 98.7372 33.9811 97.3355 33.9811Z" fill="#FF931E"/>
</svg>
