<svg width="130" height="130" viewBox="0 0 130 130" fill="none" xmlns="http://www.w3.org/2000/svg">
<path fill-rule="evenodd" clip-rule="evenodd" d="M65 130C100.9 130 130 100.9 130 65C130 29.0995 100.9 0 65 0C29.0995 0 0 29.0995 0 65C0 100.9 29.0995 130 65 130ZM65 6.5C97.3105 6.5 123.5 32.6895 123.5 65C123.5 97.3105 97.3105 123.5 65 123.5C32.6895 123.5 6.5 97.3105 6.5 65C6.5 32.6895 32.6895 6.5 65 6.5ZM16.25 68.25H22.75C24.545 68.25 26 66.795 26 65C26 63.205 24.545 61.75 22.75 61.75H16.25C14.4551 61.75 13 63.205 13 65C13 66.795 14.4551 68.25 16.25 68.25ZM113.75 68.25H107.25C105.455 68.25 104 66.795 104 65C104 63.205 105.455 61.75 107.25 61.75H113.75C115.545 61.75 117 63.205 117 65C117 66.795 115.545 68.25 113.75 68.25ZM61.75 16.25V22.75C61.75 24.545 63.205 26 65 26C66.795 26 68.25 24.545 68.25 22.75V16.25C68.25 14.4551 66.795 13 65 13C63.205 13 61.75 14.4551 61.75 16.25ZM61.75 113.75V107.25C61.75 105.455 63.205 104 65 104C66.795 104 68.25 105.455 68.25 107.25V113.75C68.25 115.545 66.795 117 65 117C63.205 117 61.75 115.545 61.75 113.75ZM68.0121 66.0202C67.7911 66.8096 67.2734 67.5165 66.5077 67.9588L47.1568 79.1323C45.6027 80.03 43.615 79.4973 42.7174 77.9431C41.8197 76.3886 42.3524 74.4009 43.9068 73.5033L62.2199 62.9288L71.8767 36.3873C72.4903 34.7006 74.3551 33.8306 76.0419 34.4445C77.7286 35.0581 78.5986 36.9229 77.9847 38.6097L68.0121 66.0202Z" fill="#6A3D88"/>
</svg>
