<svg width="42" height="49" viewBox="0 0 42 49" fill="none" xmlns="http://www.w3.org/2000/svg">
<path d="M41.82 31.7692C41.46 33.0121 40.52 34.0145 39.32 34.4355C39.36 34.4956 39.4 34.5959 39.42 34.656H30.76C29.76 34.656 29.76 36.6607 30.76 36.6607H38C38.84 36.6607 39.56 37.1419 39.86 37.8836C39.54 39.2468 38.68 40.3675 37.302 40.6702H28.76C27.76 40.6702 27.76 42.6749 28.76 42.6749H36.76C36.802 42.6749 37.58 42.6548 37.882 43.6973V43.7173C37.1 45.2429 34.882 46.3636 33.12 46.6663C31.62 46.9269 31.322 47.1675 30.1 47.408C27.12 47.9673 23.82 48.4685 19.7 48.6289C19.48 48.6509 19.24 48.6509 19 48.6509H18.94C11.98 48.6289 8 44.6415 8 44.6415V29.6061C8 29.6061 9.02 26.6191 13 20.5849C17.88 13.2075 18 18.5601 22.62 5.89033C22.9 5.10849 23.42 4.40684 24.36 4.46698C25.142 4.52712 25.78 5.0283 25.94 5.68986C25.722 9.19811 25.062 12.2653 23.94 14.5908C23.24 16.0743 22.56 17.4776 22.18 18.9811C22.02 19.6627 22.06 20.1038 22.18 20.2441C22.2 20.2642 22.24 20.3042 22.28 20.3243C22.26 20.3644 22.26 20.4245 22.24 20.4646C21.68 22.73 22.42 24.5943 25.88 24.5943H40C40.82 24.5943 41.52 25.0955 41.82 25.7972C41.618 26.5189 41.198 27.1604 40.64 27.6415C40.84 27.8219 41.018 28.0024 41.16 28.2229C40.84 28.4614 40.44 28.6419 40 28.6419H30.76C29.76 28.6419 29.76 30.6466 30.76 30.6466H40C40.8 30.6466 41.5 31.0876 41.82 31.7692Z" fill="#FFBE9D"/>
<path d="M4 29.6442C4 29.0909 3.552 28.6418 3 28.6418C2.448 28.6418 2 29.0909 2 29.6442V45.6819C2 46.2352 2.448 46.6843 3 46.6843C3.552 46.6843 4 46.2352 4 45.6819V29.6442Z" fill="#5FFFBA"/>
<path d="M40.64 27.6394C41.48 28.3812 42 29.4437 42 30.6265C42 32.3485 40.88 33.8941 39.32 34.4334C39.76 35.0769 40 35.8387 40 36.6606C40 38.6052 39.06 40.2691 37.24 40.65C38 40.65 38.26 42.0734 38.1 43.0156C37.78 44.9 35.142 46.3234 33.12 46.6642C31.62 46.9248 31.322 47.1654 30.1 47.4059C26.5 48.0875 22.42 48.689 17 48.689C9.26 48.689 4.78 44.2986 4.58 44.0981L4 43.5168V27.3187L4.1 26.9979C4.16 26.8596 5.36 23.7503 9.34 17.5176C14.68 9.13789 14.06 15.6532 18.68 3.38435C19.32 1.64025 20.56 0.497559 22.24 0.497559L22.48 0.517606C24.5 0.637889 26.06 2.26171 26 4.20628C25.9 8.336 25.22 11.9445 23.94 14.5907C23.24 16.0742 22.56 17.4775 22.18 18.981C22.02 19.6627 22.06 20.1037 22.18 20.244C22.3 20.3844 22.78 20.6229 23.88 20.6229H31C31.56 20.6229 32 21.064 32 21.6253C32 22.1866 31.56 22.6276 31 22.6276H23.88C20.42 22.6276 19.68 20.7632 20.24 18.4979C21.38 13.9272 23.86 9.65711 24 4.14414C24.04 3.30216 23.3 2.56041 22.36 2.50027C21.42 2.44013 20.9 3.14178 20.62 3.92362C16 16.5934 15.88 11.2408 11 18.6182C7.02 24.6524 6 27.6394 6 27.6394V42.6748C6 42.6748 10 46.6842 17 46.6842C24 46.6842 26.8 45.6819 32.8 44.6795C33.88 44.4991 36 43.7974 36 42.6748C36 40.6901 34.8 40.6701 34.76 40.6701H30.76C29.76 40.6701 29.76 38.6654 30.76 38.6654H36C37.1 38.6654 38 37.7833 38 36.6606C38 35.5581 37.1 34.6559 36 34.6559H32.76C31.76 34.6559 31.76 32.6512 32.76 32.6512H38C39.1 32.6512 40 31.729 40 30.6265C40 29.5239 39.1 28.6418 38 28.6418H32.76C31.76 28.6418 31.76 26.6371 32.76 26.6371H38C39.1 26.6371 40 25.755 40 24.6323C40 23.5298 39.1 22.6276 38 22.6276H35C34.44 22.6276 34 22.1866 34 21.6253C34 21.064 34.44 20.6229 35 20.6229H38C40.2 20.6229 42 22.4272 42 24.6323C42 25.8352 41.48 26.9177 40.64 27.6394Z" fill="#2D2220"/>
<path d="M32 21.6252C32 21.0719 31.552 20.6228 31 20.6228C30.448 20.6228 30 21.0719 30 21.6252C30 22.1785 30.448 22.6275 31 22.6275C31.552 22.6275 32 22.1785 32 21.6252Z" fill="#2D2220"/>
<path d="M2 35.6582C2 36.2115 1.552 36.6605 1 36.6605C0.448 36.6605 0 36.2115 0 35.6582V27.6393C0 27.086 0.448 26.637 1 26.637C1.552 26.637 2 27.086 2 27.6393V35.6582Z" fill="#2D2220"/>
<path d="M2 39.6676C2 39.1143 1.552 38.6653 1 38.6653C0.448 38.6653 0 39.1143 0 39.6676V43.6771C0 44.2304 0.448 44.6794 1 44.6794C1.552 44.6794 2 44.2304 2 43.6771V39.6676Z" fill="#2D2220"/>
</svg>
