<svg width="42" height="49" viewBox="0 0 42 49" fill="none" xmlns="http://www.w3.org/2000/svg">
<path d="M41.82 17.4175C41.46 16.1746 40.52 15.1723 39.32 14.7513C39.36 14.6911 39.4 14.5909 39.42 14.5308H30.76C29.76 14.5308 29.76 12.526 30.76 12.526H38C38.84 12.526 39.56 12.0449 39.86 11.3032C39.54 9.93995 38.68 8.81931 37.302 8.5166H28.76C27.76 8.5166 27.76 6.51188 28.76 6.51188H36.76C36.802 6.51188 37.58 6.53193 37.882 5.48948V5.46943C37.1 3.94384 34.882 2.82321 33.12 2.52049C31.62 2.25988 31.322 2.01931 30.1 1.77875C27.12 1.21943 23.82 0.718254 19.7 0.557877C19.48 0.535824 19.24 0.53582 19 0.53582H18.94C11.98 0.557873 8 4.54525 8 4.54525V19.5806C8 19.5806 9.02 22.5677 13 28.6019C17.88 35.9792 18 30.6266 22.62 43.2964C22.9 44.0783 23.42 44.7799 24.36 44.7198C25.142 44.6596 25.78 44.1585 25.94 43.4969C25.722 39.9887 25.062 36.9214 23.94 34.596C23.24 33.1125 22.56 31.7092 22.18 30.2056C22.02 29.524 22.06 29.083 22.18 28.9427C22.2 28.9226 22.24 28.8825 22.28 28.8625C22.26 28.8224 22.26 28.7622 22.24 28.7221C21.68 26.4568 22.42 24.5924 25.88 24.5924H40C40.82 24.5924 41.52 24.0912 41.82 23.3896C41.618 22.6679 41.198 22.0264 40.64 21.5453C40.84 21.3648 41.018 21.1844 41.16 20.9639C40.84 20.7253 40.44 20.5449 40 20.5449H30.76C29.76 20.5449 29.76 18.5402 30.76 18.5402H40C40.8 18.5402 41.5 18.0991 41.82 17.4175Z" fill="#FFBE9D"/>
<path d="M4 19.5426C4 20.0959 3.552 20.5449 3 20.5449C2.448 20.5449 2 20.0959 2 19.5426V3.50483C2 2.95152 2.448 2.50247 3 2.50247C3.552 2.50247 4 2.95152 4 3.50483V19.5426Z" fill="#5FFFBA"/>
<path d="M40.64 21.5473C41.48 20.8056 42 19.7431 42 18.5603C42 16.8383 40.88 15.2926 39.32 14.7534C39.76 14.1098 40 13.3481 40 12.5261C40 10.5815 39.06 8.91763 37.24 8.53673C38 8.53673 38.26 7.11338 38.1 6.17117C37.78 4.28673 35.142 2.86338 33.12 2.52258C31.62 2.26197 31.322 2.0214 30.1 1.78083C26.5 1.09923 22.42 0.497814 17 0.497814C9.26 0.497814 4.78 4.88815 4.58 5.08862L4 5.66999V21.8681L4.1 22.1889C4.16 22.3272 5.36 25.4365 9.34 31.6692C14.68 40.0489 14.06 33.5335 18.68 45.8024C19.32 47.5465 20.56 48.6892 22.24 48.6892L22.48 48.6692C24.5 48.5489 26.06 46.9251 26 44.9805C25.9 40.8508 25.22 37.2423 23.94 34.596C23.24 33.1126 22.56 31.7093 22.18 30.2057C22.02 29.5241 22.06 29.0831 22.18 28.9427C22.3 28.8024 22.78 28.5639 23.88 28.5639H31C31.56 28.5639 32 28.1228 32 27.5615C32 27.0002 31.56 26.5591 31 26.5591H23.88C20.42 26.5591 19.68 28.4235 20.24 30.6889C21.38 35.2596 23.86 39.5297 24 45.0426C24.04 45.8846 23.3 46.6264 22.36 46.6865C21.42 46.7466 20.9 46.045 20.62 45.2631C16 32.5933 15.88 37.9459 11 30.5686C7.02 24.5344 6 21.5473 6 21.5473V6.51197C6 6.51197 10 2.50253 17 2.50253C24 2.50253 26.8 3.50489 32.8 4.50725C33.88 4.68768 36 5.38932 36 6.51197C36 8.49664 34.8 8.51669 34.76 8.51669H30.76C29.76 8.51669 29.76 10.5214 30.76 10.5214H36C37.1 10.5214 38 11.4035 38 12.5261C38 13.6287 37.1 14.5308 36 14.5308H32.76C31.76 14.5308 31.76 16.5356 32.76 16.5356H38C39.1 16.5356 40 17.4577 40 18.5603C40 19.6629 39.1 20.545 38 20.545H32.76C31.76 20.545 31.76 22.5497 32.76 22.5497H38C39.1 22.5497 40 23.4318 40 24.5544C40 25.657 39.1 26.5591 38 26.5591H35C34.44 26.5591 34 27.0002 34 27.5615C34 28.1228 34.44 28.5639 35 28.5639H38C40.2 28.5639 42 26.7596 42 24.5544C42 23.3516 41.48 22.269 40.64 21.5473Z" fill="#2D2220"/>
<path d="M32 27.5616C32 28.1149 31.552 28.564 31 28.564C30.448 28.564 30 28.1149 30 27.5616C30 27.0083 30.448 26.5592 31 26.5592C31.552 26.5592 32 27.0083 32 27.5616Z" fill="#2D2220"/>
<path d="M2 13.5286C2 12.9753 1.552 12.5262 1 12.5262C0.448 12.5262 0 12.9753 0 13.5286V21.5474C0 22.1007 0.448 22.5498 1 22.5498C1.552 22.5498 2 22.1007 2 21.5474V13.5286Z" fill="#2D2220"/>
<path d="M2 9.51913C2 10.0724 1.552 10.5215 1 10.5215C0.448 10.5215 0 10.0724 0 9.51913V5.50969C0 4.95639 0.448 4.50733 1 4.50733C1.552 4.50733 2 4.95639 2 5.50969V9.51913Z" fill="#2D2220"/>
</svg>
